<svg width="110" height="28" viewBox="0 0 110 28" fill="none" xmlns="http://www.w3.org/2000/svg">
<mask id="mask0_730_2731" style="mask-type:luminance" maskUnits="userSpaceOnUse" x="0" y="0" width="110" height="28">
<path d="M110 0H0V28H110V0Z" fill="white"/>
</mask>
<g mask="url(#mask0_730_2731)">
<mask id="mask1_730_2731" style="mask-type:luminance" maskUnits="userSpaceOnUse" x="0" y="0" width="110" height="28">
<path d="M110 0H0V28H110V0Z" fill="white"/>
</mask>
<g mask="url(#mask1_730_2731)">
<path d="M50.5188 19.5753H51.9455L53.3458 12.5851H51.9182L50.5188 19.5753ZM54.2127 15.3811L53.9326 16.7791H63.2267L61.2668 26.5665H54.1856L54.4649 27.9646H62.4141L64.9336 15.3811H54.2127ZM63.6732 6.99174L63.9536 5.59384H52.2258L51.3859 1.39961H64.7935L65.0737 0.00153637H49.6792L51.0786 6.99174H63.6732ZM46.1806 11.187H68.572V9.78894H46.1806V11.187ZM20.99 9.08894L23.6143 5.59384H21.8648L18.1913 10.487L14.5178 5.59384H12.7691L15.3926 9.08894H12.9433L11.8943 10.487H24.4892L23.4392 9.08894H20.99ZM7.34599 14.2154L11.1946 9.08894H-0.00195312L8.39499 20.2742H2.79768L4.72151 17.7115L3.84766 16.5459L-0.00195312 21.6723H11.1946L2.79768 10.487H8.39499L6.47116 13.0508L7.34599 14.2154ZM19.1712 22.9916L21.3179 26.5665H15.3926L23.7896 12.5851H12.9209L16.7229 18.9161L17.5394 17.5568L15.3926 13.9832H21.3179L12.9209 27.9646H23.7896L19.9876 21.6335L19.1712 22.9916ZM24.4892 3.49664L25.5391 2.09769H18.8919V0.000488281H17.4916V2.09769H10.8443L11.8943 3.49664H24.4892ZM107.966 9.78789H94.951V11.186H107.966V9.78789ZM109.048 0.000488281H90.3706L90.1896 1.39961H107.818L108.359 5.59384H89.6475L86.7584 27.9646H88.1694L90.8785 6.99174H109.951L109.048 0.000488281ZM103.418 14.6821H97.7505L99.3242 12.5851H97.5754L94.9521 16.0802H104.468L103.418 14.6821ZM107.966 16.0802L105.342 12.5851H103.593L106.217 16.0802H107.966ZM108.456 22.3714V20.9734H103.968L98.3705 26.5665H93.0623V27.9646H98.9504L104.548 22.3714H108.456ZM94.4615 22.3714H98.3705L99.4799 23.4808L100.47 22.492L98.9504 20.9734H94.4615V22.3714ZM103.437 25.4583L102.449 26.446L103.968 27.9646H109.856V26.5665H104.548L103.437 25.4583ZM100.759 17.4783H102.158V20.9742H100.759V17.4783Z" fill="#450162"/>
</g>
</g>
</svg>
