<svg width="64" height="64" viewBox="0 0 64 64" fill="none" xmlns="http://www.w3.org/2000/svg">
<g clip-path="url(#clip0_717_2775)">
<mask id="mask0_717_2775" style="mask-type:luminance" maskUnits="userSpaceOnUse" x="0" y="24" width="64" height="16">
<path d="M64 24H0V40H64V24Z" fill="white"/>
</mask>
<g mask="url(#mask0_717_2775)">
<path d="M29.3929 35.1858H30.223L31.0377 31.1914H30.2071L29.3929 35.1858ZM31.5421 32.7891L31.3791 33.588H36.7866L35.6463 39.1808H31.5263L31.6888 39.9797H36.3138L37.7797 32.7891H31.5421ZM37.0464 27.9952L37.2095 27.1964H30.3861L29.8974 24.7997H37.6982L37.8612 24.0008H28.9044L29.7186 27.9952H37.0464ZM26.8689 30.3925H39.8966V29.5936H26.8689V30.3925ZM12.2125 29.1936L13.7394 27.1964H12.7215L10.5842 29.9925L8.44688 27.1964H7.42946L8.95586 29.1936H7.53081L6.92048 29.9925H14.2484L13.6375 29.1936H12.2125ZM4.27419 32.123L6.51339 29.1936H-0.000976562L4.88452 35.5852H1.6279L2.74722 34.1208L2.2388 33.4547L-0.000976562 36.3841H6.51339L1.6279 29.9925H4.88452L3.7652 31.4575L4.27419 32.123ZM11.1543 37.138L12.4033 39.1808H8.95586L13.8414 31.1914H7.51779L9.72982 34.8091L10.2049 34.0324L8.95586 31.9903H12.4033L7.51779 39.9797H13.8414L11.6293 36.3619L11.1543 37.138ZM14.2484 25.998L14.8593 25.1986H10.9918V24.0002H10.1771V25.1986H6.30957L6.92048 25.998H14.2484ZM62.8169 29.593H55.2444V30.3919H62.8169V29.593ZM63.4465 24.0002H52.5794L52.4741 24.7997H62.7308L63.0456 27.1964H52.1587L50.4778 39.9797H51.2987L52.8749 27.9952H63.9719L63.4465 24.0002ZM60.1706 32.3897H56.8732L57.7888 31.1914H56.7713L55.245 33.1886H60.7815L60.1706 32.3897ZM62.8169 33.1886L61.2899 31.1914H60.2725L61.799 33.1886H62.8169ZM63.1017 36.7836V35.9847H60.4905L57.2339 39.1808H54.1455V39.9797H57.5713L60.828 36.7836H63.1017ZM54.9596 36.7836H57.2339L57.8794 37.4175L58.4552 36.8525L57.5713 35.9847H54.9596V36.7836ZM60.1819 38.5475L59.6068 39.1119L60.4905 39.9797H63.9165V39.1808H60.828L60.1819 38.5475ZM58.6233 33.9875H59.4375V35.9852H58.6233V33.9875Z" fill="#450162"/>
</g>
</g>
<defs>
<clipPath id="clip0_717_2775">
<rect width="64" height="16" fill="white" transform="translate(0 24)"/>
</clipPath>
</defs>
</svg>
