<svg xmlns="http://www.w3.org/2000/svg" viewBox="0 0 255.12 58.94"><defs><style>.cls-2{fill:#0086d1}</style></defs><g id="img02"><path d="M238.35 17.04h15.87v2.49h-15.87zm16.77 7.88h-17.41v2.49H247v12c0 1.6-1 1.6-1.37 1.6h-3.84v2.49h4.11a3.93 3.93 0 0 0 2.79-1 4.14 4.14 0 0 0 1.15-3v-12h5.3v-2.58m-18.93-9.57h-3.15A23.84 23.84 0 0 1 225.4 23v3c3.09-1.55 8.84-7 10.8-10.61m-10.8 15.7V34a27.43 27.43 0 0 0 4.45-3.06v12.51h2.84V28.36a26.35 26.35 0 0 0 4.59-5.92h-3.09a30.13 30.13 0 0 1-8.79 8.65M75.54 35.94a29.73 29.73 0 0 1-1.41-8.82 15 15 0 0 1 4.43-.83 19.27 19.27 0 0 1-3 9.65m-5.15 4.19a3.24 3.24 0 0 1-3.41-.32c-1.08-.91-1.43-2.62-1-4.71a11.07 11.07 0 0 1 5.68-6.88 29.53 29.53 0 0 0 2 9.84 11.16 11.16 0 0 1-3.29 2.07zm9.88-16.31a18 18 0 0 0-6.1.65c0-.93.12-1.85.22-2.75h14.24v-2.36H74.74a31.9 31.9 0 0 1 1-4h-2.65a39.64 39.64 0 0 0-.88 4H63.7v2.36h8.19c-.12 1.12-.2 2.26-.24 3.39a2.91 2.91 0 0 1 0 .3c-4.07 1.88-7.2 5.2-8.08 9.15-.67 3 0 5.63 1.79 7.16a5.72 5.72 0 0 0 6 .72c5.74-2.35 9.17-8 9.72-16a9.87 9.87 0 0 1 5.54 2.2 6.9 6.9 0 0 1 2.1 5.36 5.78 5.78 0 0 1-1.93 4.19A11.36 11.36 0 0 1 78.65 41v2.49A13.89 13.89 0 0 0 88.52 40a8.37 8.37 0 0 0 2.7-6c0-6-3.99-9.68-10.95-10.18zm24.96 15.47a1.81 1.81 0 0 1-.75 1.65 2.29 2.29 0 0 1-2.07.09 4.41 4.41 0 0 1-2.81-3.73 7.28 7.28 0 0 1 2.89-6.54 11.94 11.94 0 0 1 2.74-1.4v9.93m15.61-10.57c-2.36-2-5.89-3-10-2.92a20.87 20.87 0 0 0-3.09.3v-4.38h8.05v-2.36h-8.05v-4h-2.57v4h-8.13v2.36h8.18v5a14.46 14.46 0 0 0-4.25 2 9.69 9.69 0 0 0-3.93 8.85 6.93 6.93 0 0 0 4.37 5.73 4.92 4.92 0 0 0 4.48-.31 4.26 4.26 0 0 0 1.9-3.73V28.65c4-.79 8.66-.31 11.35 2a5.62 5.62 0 0 1 1.68 6.76c-1.28 2.77-4.48 4.14-8.59 3.7v2.51c6 .54 9.59-2.28 10.93-5.18a8.12 8.12 0 0 0-2.33-9.72zm-1.76-11.8l-1.79 1.85a44.15 44.15 0 0 1 7.24 6.23l1.78-1.84a48.74 48.74 0 0 0-7.23-6.23M155.63 18c1 1 2.58 2.77 3.36 3.74l1.34-1.12c-.78-1-2.28-2.68-3.36-3.76L155.63 18m-1.14.91l-1.36 1.14c.87.82 2.49 2.63 3.39 3.73l1.35-1.13c-.88-1.07-2.38-2.77-3.38-3.74"/><path d="M148.45 18.81a.1.1 0 0 1-.09 0h.09m4.23-.22l-.79-2.25c-.13 0-13.66.6-19 .35v2.5c3.42.15 10.28-.15 14.78-.34-4.21 3-11.78 7.39-16.39 8.1l-2.17.14v2.5l12.36-.82a9.29 9.29 0 0 0-2.94 3.48 7 7 0 0 0 .73 7.33 10.08 10.08 0 0 0 5.27 3.49 19 19 0 0 0 8.19.47v-2.49c-5.18.73-9.54-.37-11.45-3a4.55 4.55 0 0 1-.47-4.78c1.25-2.66 4.66-4.52 9.28-5.11l6.3-.43v-2.5l-16.43 1.1a101.28 101.28 0 0 0 12.73-7.74zm31.14.03c-4.44-1.5-12.55-2.68-16.48-3l-.51 2.31c3.67.25 12.34 1.5 16.47 3l.52-2.31m-5.37 7.96A19.29 19.29 0 0 0 167 31.05c.27-4.21.46-9.51.5-10.51h-2.83c.1 1.51-.17 10-.54 13.74l2.33.89a16.92 16.92 0 0 1 12-6.1c3.35-.06 5.81.9 6.95 2.72a4.85 4.85 0 0 1-.16 5.05C182.19 42 174 41.11 169.1 40v2.55c9 1.87 15.58.29 18.46-4.5a7.22 7.22 0 0 0 .14-7.57c-.95-1.51-3.4-4.05-9.25-3.93m31.65-2.61h7.71v3.43h-7.71zm0-5.55h7.71v3.05h-7.71zm6.59 17.27c.93-.62 1.84-1.33 2.63-2V30.4a38 38 0 0 1-4 3.2 19.09 19.09 0 0 1-1.82-3.74h7.2v-14h-13.44v24.65l-1.6.3v2.66a61.78 61.78 0 0 0 9.65-2.47v-2.7a32.53 32.53 0 0 1-5.21 1.6v-10h.79a26.75 26.75 0 0 0 10.37 13.73v-3.29a26.18 26.18 0 0 1-4.57-4.68zm-16.21-17.85a26.76 26.76 0 0 0 4.75 4.65h-8.65a23.16 23.16 0 0 0 3.9-4.65m1.14 13h4.49v-2.52h-4.49V25h3.86v-2.35c.4.28.8.55 1.17.76v-3a15.24 15.24 0 0 1-5.1-5.59h-2.36a18.37 18.37 0 0 1-6.47 7.47v2.84a15.93 15.93 0 0 0 2.62-1.68V25h3.44v3.33h-4.48v2.49h4.48v9.5a41.66 41.66 0 0 1-5.34.49v2.48a59.5 59.5 0 0 0 12-1.94v-2.4a27 27 0 0 1-3.81.91z"/><path d="M196.3 32.51h-2.66a52.32 52.32 0 0 1 1.58 7.27h2.57a47 47 0 0 0-1.49-7.28m8.54 6.14c.38-1.62 1-4.6 1.18-6.13h-2.59c-.27 1.75-.92 5-1.24 6.13h2.65"/><path d="M5.46 53.28l1 2.25H4.5l1-2.25m.41-1.61h-.38l-3.2 7.17h.92v-.07c.26-.85.58-1.67.89-2.46l.08-.17h2.44q.51 1.15 1 2.64v.06H8.9v-.13zm7.29 6.77a2.53 2.53 0 0 1-1.82-.71 3.14 3.14 0 0 1-.82-2.29 3.53 3.53 0 0 1 .88-2.56 2.69 2.69 0 0 1 3.86.23 3.26 3.26 0 0 1 .61 2.15 3.47 3.47 0 0 1-.89 2.4 2.39 2.39 0 0 1-1.82.78m0-6.77a3.72 3.72 0 0 0-2.8 6.24 3.82 3.82 0 0 0 2.78 1A4 4 0 0 0 16 57.86a3.7 3.7 0 0 0 1-2.69 3.26 3.26 0 0 0-.93-2.41 4.15 4.15 0 0 0-2.88-1.09zm4.57.15h-.09v.21a1.09 1.09 0 0 1 0 .18 1.28 1.28 0 0 1 0 .19.31.31 0 0 0 0 .1v.1h.64c.66 0 1.5-.12 2.24-.12h1c-.35.54-.73 1.08-1.09 1.6l-.25.36-2.91 4.06v.35h5.8v-.26a1.1 1.1 0 0 1 0-.18V58H23c-.84.07-1.91.14-2.79.16h-1.4c1.29-2 2.81-4.12 4.28-6v-.3h-5.32m9.65 6.58a2.55 2.55 0 0 1-1.82-.71 3.14 3.14 0 0 1-.82-2.29 3.53 3.53 0 0 1 .88-2.56 2.69 2.69 0 0 1 3.86.23 3.26 3.26 0 0 1 .61 2.15 3.47 3.47 0 0 1-.89 2.4 2.39 2.39 0 0 1-1.82.78m0-6.77a3.71 3.71 0 0 0-2.79 6.24 3.78 3.78 0 0 0 2.77 1 4 4 0 0 0 2.85-1.08 3.7 3.7 0 0 0 1-2.69 3.26 3.26 0 0 0-.93-2.41 4.15 4.15 0 0 0-2.91-1.06zm6.25.69a7.8 7.8 0 0 1 1.37 0 1.08 1.08 0 0 1 1 1.17 1.36 1.36 0 0 1-1.21 1.35 5.7 5.7 0 0 1-1.19 0v-2.52m3.93 6.08l-.48-.57-2-2.49c1.24-.27 2-1 2-2a1.4 1.4 0 0 0-.39-1.05 2.63 2.63 0 0 0-1.91-.55h-2.17v7h1.05v-3.29h.26l.77.91 1.18 1.52.62.87h1.36l-.11-.15zm3.49-5.16l1 2.25H40.1l1-2.25m.44-1.56h-.34l-3.18 7.12h.92v-.07c.25-.85.57-1.67.89-2.46l.07-.17h2.42c.34.77.68 1.65 1 2.64v.06h1.25l-.06-.13z" fill="#6d6866"/><path class="cls-2" d="M35 11.52c-6.14 3.62-15.91 14.37-16 23.64-.09 6 2.51 9.31 4.53 11.78l23.41-23.47L35 11.52"/><path class="cls-2" d="M18 40.83c-9.75-17.18.29-33 6.33-40L23.47 0 0 23.47l17.66 17.67.31-.31"/></g></svg>