<svg width="148" height="34" viewBox="0 0 148 34" fill="none" xmlns="http://www.w3.org/2000/svg">
<path d="M45.0813 7.40234H54.3624C56.4048 7.40234 57.6457 7.6871 58.6022 8.38603C59.7398 9.18851 60.3602 10.5864 60.3602 12.1137C60.3602 14.0552 59.3778 15.5825 57.6457 16.3591C59.5588 17.0839 60.4895 18.4818 60.4895 20.5527C60.4895 22.4165 59.6881 23.9697 58.3179 24.7463C57.3872 25.2899 55.9911 25.5488 53.8195 25.5488H45.0554L45.0813 7.40234ZM53.8195 14.9871C54.957 14.9871 55.4482 14.8835 55.9394 14.4953C56.5082 14.0293 56.8184 13.3045 56.8184 12.4761C56.8184 11.7513 56.534 11.0265 56.0687 10.6123C55.5775 10.1981 55.0863 10.0945 53.8195 10.0945H48.3129V14.9871H53.8195ZM53.6902 22.8048C55.8619 22.8048 56.9218 21.9247 56.9218 20.1385C56.9218 18.3523 56.017 17.6793 53.8453 17.6793H48.3387V22.8048H53.6902Z" fill="#0091DB"/>
<path d="M63.3337 7.40234H66.3585V10.5087H63.3337V7.40234ZM66.3585 12.2949V25.5229H63.3337V12.2949H66.3585Z" fill="#0091DB"/>
<path d="M71.0376 9.00731L74.0624 7.40234V12.2949H79.2846L77.7076 14.7023H74.0882V20.6821C74.0624 22.7013 74.3726 23.0637 76.234 23.0896H77.7076V25.497H75.1223C72.0976 25.5488 70.9859 24.3321 71.0376 21.0704V14.7023H68.6333V12.2949H71.0376C71.0376 12.269 71.0376 9.00731 71.0376 9.00731Z" fill="#0091DB"/>
<path d="M79.2849 10.1204V7.40234H94.6156V10.1204H88.5402V25.5229H85.2569V10.1204H79.2849Z" fill="#0091DB"/>
<path d="M98.8812 12.2945C102.759 12.2428 105.008 13.4594 104.931 16.98V18.2743H102.035V17.2389C102.009 15.2974 100.536 14.7538 98.7261 14.7538H97.6661V25.5226H94.6414V12.2945H98.8812Z" fill="#0091DB"/>
<path d="M115.737 17.5503C115.789 15.35 115.194 14.7805 112.893 14.8063H106.766L108.343 12.3989H113.178C117.366 12.2695 118.865 13.6415 118.762 17.6798V25.601H111.73C109.145 25.601 108.421 25.4716 107.568 24.8762C106.585 24.2032 106.068 23.0124 106.068 21.6404C106.068 20.0095 106.792 18.6117 108.007 18.0163C108.654 17.6798 109.636 17.5503 111.213 17.5503H115.737ZM111.446 19.9578C110.644 19.9578 110.334 19.9837 110.024 20.1131C109.481 20.3202 109.171 20.8638 109.171 21.5627C109.171 22.7276 109.791 23.1677 111.446 23.1677H115.737V19.9578H111.446Z" fill="#0091DB"/>
<path d="M130.241 7.14598L133.265 5.54102V25.629H127.293C124.889 25.629 123.674 25.2665 122.562 24.3087C121.321 23.1697 120.623 21.3577 120.623 19.1056C120.623 16.7758 121.399 14.8084 122.769 13.6435C123.751 12.7892 125.173 12.4009 127.061 12.4009H130.241V7.14598ZM130.241 14.8343H127.526C125.018 14.8343 123.751 16.2063 123.751 18.9502C123.751 21.8495 124.915 23.2474 127.293 23.2474H130.241V14.8343Z" fill="#0091DB"/>
<path d="M147.2 20.1139C147.251 18.7419 147.303 17.3958 147.096 16.0756C146.941 15.2731 146.657 14.4706 146.114 13.8493C145.338 12.9174 144.201 12.5809 143.037 12.4514C141.047 12.2185 138.746 12.3738 137.221 13.8234C135.954 14.9883 135.178 17.0851 135.178 19.3631C135.178 21.1234 135.825 22.9614 136.859 24.0486C137.996 25.2135 139.108 25.55 141.564 25.6277H146.89V23.0649H142.158C139.702 23.0649 138.539 22.366 138.436 20.1139H147.2ZM138.462 17.7064C138.746 15.7131 139.573 14.8848 141.616 14.8071H141.719C143.606 14.8848 144.537 15.6355 144.382 17.7064H138.462Z" fill="#0091DB"/>
<path d="M33.5508 18.6913C33.5508 18.8207 33.5508 18.9502 33.5508 19.0796C33.5508 19.3126 33.5508 19.5456 33.525 19.7785C33.4733 20.6069 33.344 21.4094 33.163 22.186C33.0338 22.7296 32.8786 23.2732 32.6977 23.791C32.1031 25.4477 31.2499 27.0009 30.1383 28.347C29.6471 28.9683 29.0783 29.5636 28.4578 30.1073C27.5271 30.9615 26.4672 31.6605 25.3555 32.2558C25.278 32.3076 25.1745 32.3594 25.097 32.3853C24.5024 32.6959 23.8561 32.9548 23.2097 33.1619H23.1839C22.8478 33.2654 22.5117 33.369 22.1498 33.4725C22.0722 33.4984 21.9947 33.5243 21.9171 33.5502C21.4518 33.6537 20.9864 33.7573 20.5211 33.8349C16.85 34.4044 12.8945 33.4725 9.97314 31.4534L11.4726 29.1236C14.1871 30.9874 17.9875 31.7122 21.2708 30.858C21.2708 30.858 21.2708 30.858 21.2966 30.858C25.0711 29.7966 26.8291 26.4832 26.8033 24.0757C26.8808 21.4612 24.5799 19.3126 23.0288 19.6232C22.9512 19.6232 22.8736 19.6232 22.8478 19.5456C22.1756 17.7594 24.3473 16.6463 25.4589 15.559C29.9314 11.4172 26.5189 5.90337 26.3896 5.74805C27.7081 6.55053 29.0525 7.74131 30.0349 8.95798C32.284 11.6502 33.525 15.1707 33.525 18.6913H33.5508Z" fill="#0086D1"/>
<path d="M25.4851 0L5.55267 32.5394C8.39647 23.7121 13.567 9.78511 14.7562 6.67872C9.79251 8.18014 6.12143 12.7362 5.91461 18.1723V18.4312H0.666504V15.8167H3.38104C4.26003 11.0794 7.36236 7.09291 11.4988 4.9961C9.61154 4.37482 7.64674 3.70177 7.64674 3.70177L25.4851 0Z" fill="#0086D1"/>
<path d="M5.91435 21.0703H3.30322V23.7107H5.91435V21.0703Z" fill="#0086D1"/>
</svg>
