<svg width="125" height="48" viewBox="0 0 125 48" fill="none" xmlns="http://www.w3.org/2000/svg">
<path d="M19.6123 27.5201C19.6123 31.4941 17.4123 34.1352 14.0123 34.1352C12.4373 34.1352 11.1623 33.4624 10.2998 32.254V33.9981H6.4248V16.0215H10.3123V22.649C11.1623 21.4656 12.3998 20.7804 13.9373 20.7804C17.3498 20.7928 19.6123 23.4837 19.6123 27.5201ZM15.6998 27.4079C15.6998 25.4271 14.5998 24.0194 12.9748 24.0194C11.3998 24.0194 10.2998 25.4271 10.2998 27.4079C10.2998 29.4386 11.3998 30.8214 12.9748 30.8214C14.5998 30.8089 15.6998 29.4136 15.6998 27.4079Z" fill="#044E97"/>
<path d="M25.6998 17.1914C25.6998 18.4994 24.8498 19.4213 23.6623 19.4213C22.4623 19.4213 21.6123 18.4994 21.6123 17.1914C21.6123 15.9082 22.4623 14.9863 23.6623 14.9863C24.8623 14.9863 25.6998 15.9082 25.6998 17.1914ZM21.6998 20.9412H25.5623V33.9845H21.6998V20.9412Z" fill="#044E97"/>
<path d="M36.5125 33.2753C35.5375 33.8733 34.4125 34.1847 33.275 34.1723C30.9375 34.1723 29.25 32.7521 29.25 30.0363V24.2683H27.5625V21.5276H29.25V17.9023H33.125V21.5151H36.2875V24.2808H33.125V29.3885C33.125 30.41 33.525 30.846 34.25 30.8087C34.65 30.8087 35.175 30.6467 35.7625 30.3726L36.5125 33.2753Z" fill="#044E97"/>
<path d="M103.975 25.3402V33.8987H99.9999V26.5486C99.9999 24.9415 99.1624 23.9574 97.8499 23.9574C96.3374 24.0072 95.4124 25.3402 95.4124 27.1715V33.8987H91.4124V26.5486C91.4124 24.9415 90.5999 23.9574 89.2874 23.9574C87.7499 24.0072 86.8124 25.3402 86.8124 27.1715V33.8987H82.8374V20.3321H86.8124V22.5745C87.6624 20.9675 89.0999 20.1577 90.9249 20.1328C92.9499 20.1328 94.4624 21.2914 95.0874 23.2099C95.8999 21.1917 97.4249 20.1577 99.4749 20.1328C102.225 20.1328 103.975 22.1759 103.975 25.3402Z" fill="#044E97"/>
<path d="M118.55 28.2917H109.787C110.187 29.8987 111.25 30.8082 112.725 30.8082C113.8 30.8082 114.875 30.3348 115.712 29.4253L117.812 31.6678C116.55 33.1752 114.662 34.0597 112.387 34.0597C108.325 34.0597 105.775 31.294 105.775 27.158C105.775 22.9473 108.412 20.1816 112.275 20.1816C116.662 20.1816 118.825 23.3335 118.55 28.2917ZM114.712 25.9496C114.712 24.2927 113.737 23.2089 112.312 23.2089C110.937 23.2089 109.975 24.3176 109.725 25.9496H114.712Z" fill="#044E97"/>
<path d="M65.2749 7.63655C59.9999 5.92983 54.2374 6.78942 49.6999 9.95371C48.2499 8.93217 46.2499 9.28099 45.2249 10.7136C44.4374 11.8224 44.4374 13.3173 45.2374 14.4261C39.7249 22.4489 41.7874 33.4118 49.8374 38.9057C51.0374 39.7279 52.3374 40.3882 53.6999 40.8989C53.9124 40.9861 54.1249 41.0484 54.3499 41.1107C58.7999 42.5683 63.6499 42.1946 67.8249 40.0643C68.5124 39.7155 69.1624 39.3293 69.7999 38.9057L71.4124 40.5252C71.5499 40.6747 71.7249 40.6373 71.7874 40.438L73.4499 35.5919C79.6499 28.0798 78.5749 16.9799 71.0249 10.8008C69.3249 9.38065 67.3749 8.32173 65.2749 7.63655ZM75.1624 29.363C74.5999 31.0946 73.7499 32.7142 72.6374 34.1717L67.3124 35.9657C67.1999 35.9906 67.1249 36.0902 67.1374 36.2023C67.1499 36.2522 67.1749 36.302 67.2249 36.3394L68.6999 37.8219C68.1874 38.1582 67.6624 38.4572 67.1249 38.7313C59.1749 42.7552 49.4499 39.6033 45.3999 31.6802C42.7499 26.4852 43.1249 20.2688 46.3749 15.4227C46.5249 15.4974 46.6749 15.5597 46.8374 15.6096C48.5249 16.1577 50.3374 15.2358 50.8874 13.554C51.1499 12.7443 51.0749 11.8598 50.6874 11.0998C54.8249 8.2719 60.0374 7.52443 64.7999 9.0692C64.9874 9.13149 65.1874 9.20624 65.3874 9.26853C73.5624 12.2459 77.8874 21.1408 75.1624 29.363Z" fill="#044E97"/>
<path d="M62.3248 26.5099C63.5373 25.2517 64.3623 24.2177 64.8123 23.4079C65.2498 22.6356 65.4873 21.7635 65.4873 20.879C65.4873 19.2595 64.9248 17.9888 63.7998 17.0544C62.7123 16.1326 61.3248 15.6343 59.8998 15.6467C58.4123 15.6467 57.1998 15.9582 56.2498 16.606C55.2873 17.2413 54.4123 18.1757 53.6123 19.4214L56.6748 21.2278C57.6373 19.6955 58.6623 18.9356 59.7498 18.9356C60.2873 18.9107 60.8123 19.1224 61.1998 19.5086C61.5748 19.8948 61.7748 20.4056 61.7623 20.9413C61.7623 21.5019 61.5498 22.0999 61.1123 22.7103C60.6748 23.3207 59.9498 24.1429 58.9373 25.1645L53.8998 30.2971V33.1375H65.9998V29.7116H59.2248L62.3248 26.5099Z" fill="#044E97"/>
</svg>
