<svg width="64" height="64" viewBox="0 0 64 64" fill="none" xmlns="http://www.w3.org/2000/svg">
<path d="M22.9576 24.9131C24.1913 25.0261 25.0471 25.5319 26.086 26.15C27.2337 26.7865 27.8809 26.8604 29.1366 26.5001C29.5613 26.2475 29.9857 25.9946 30.41 25.7413C32.6209 24.5836 34.9753 24.8302 37.4012 24.8907C37.8774 24.8961 38.3535 24.9008 38.8297 24.9048C42.282 24.9467 42.282 24.9467 42.5841 25.2501C42.6089 25.8779 42.6186 26.4973 42.6152 27.1251C42.6162 27.3007 42.6171 27.4763 42.6181 27.6573C42.6156 28.9684 42.6156 28.9684 42.3351 29.2501C41.6986 29.2738 41.0688 29.2814 40.4323 29.2784C40.1335 29.2785 40.1335 29.2785 39.8286 29.2785C39.167 29.2784 38.5054 29.2764 37.8438 29.2745C37.3863 29.274 36.9289 29.2736 36.4714 29.2734C35.2649 29.2724 34.0584 29.27 32.8519 29.2672C31.6217 29.2647 30.3916 29.2635 29.1614 29.2623C26.7459 29.2596 24.3303 29.2553 21.9148 29.2501C21.5602 28.538 21.6235 27.9181 21.6191 27.1251C21.6138 26.6881 21.6138 26.6881 21.6084 26.2422C21.6904 25.1817 21.9135 25.0275 22.9576 24.9131Z" fill="#6964B8"/>
<path d="M24.2954 34.407C24.4866 34.4061 24.6778 34.4052 24.8748 34.4042C25.5071 34.4022 26.1392 34.4056 26.7715 34.4092C27.2103 34.4094 27.6491 34.4093 28.088 34.4089C29.0076 34.4089 29.9272 34.4115 30.8468 34.416C32.0274 34.4217 33.2078 34.4218 34.3883 34.4201C35.2943 34.4193 36.2003 34.421 37.1063 34.4234C37.5417 34.4244 37.9771 34.4247 38.4125 34.4243C39.0201 34.4242 39.6275 34.4273 40.2351 34.4314C40.4161 34.4308 40.5971 34.4302 40.7836 34.4295C42.0287 34.4429 42.0287 34.4429 42.5838 35.0001C42.6324 35.5958 42.6324 35.5958 42.6149 36.2813C42.6104 36.5088 42.6059 36.7364 42.6013 36.9708C42.5955 37.1454 42.5897 37.3201 42.5838 37.5001C41.8265 37.8802 41.039 37.7869 40.2083 37.7864C39.9179 37.7876 39.9179 37.7876 39.6217 37.7889C38.98 37.7913 38.3383 37.7918 37.6966 37.7921C37.2518 37.7929 36.8071 37.7937 36.3623 37.7946C35.4295 37.7961 34.4967 37.7965 33.5638 37.7964C32.3663 37.7964 31.1688 37.7998 29.9712 37.8041C29.0526 37.8069 28.134 37.8074 27.2154 37.8072C26.7738 37.8075 26.3321 37.8086 25.8905 37.8106C25.2739 37.813 24.6575 37.8123 24.041 37.8108C23.8572 37.8122 23.6735 37.8136 23.4843 37.8151C22.2204 37.8071 22.2204 37.8071 21.6655 37.2501C21.5244 35.4658 21.5244 35.4658 21.927 34.8501C22.6652 34.318 23.4203 34.3977 24.2954 34.407Z" fill="#433590"/>
<path d="M21.9141 22.25C28.7349 22.25 35.5558 22.25 42.5833 22.25C42.5833 22.6625 42.5833 23.075 42.5833 23.5C42.3343 23.75 42.3343 23.75 41.4012 23.7736C40.9824 23.7722 40.5635 23.7701 40.1446 23.7676C39.6847 23.7697 39.2247 23.7723 38.7647 23.7754C38.0407 23.7795 37.3171 23.7813 36.5931 23.7749C33.7342 23.7531 31.5445 23.8529 29.082 25.3993C28.3888 25.75 28.3888 25.75 27.7177 25.6993C26.9997 25.45 26.3631 25.115 25.6962 24.75C24.4614 24.1081 23.5355 23.8521 22.1631 23.75C21.9987 23.585 21.8344 23.42 21.665 23.25C21.7472 22.92 21.8294 22.59 21.9141 22.25Z" fill="#E8D049"/>
<path d="M29.061 30.0801C30.0029 30.3594 30.6395 30.9716 31.3421 31.6416C31.8567 32.0634 31.8567 32.0634 32.5133 31.9766C33.1674 31.7324 33.4576 31.4906 33.9296 30.9844C34.5962 30.3876 35.0554 30.1159 35.953 30.0469C37.21 30.1201 37.9271 30.7968 38.8129 31.6416C39.3317 32.0696 39.3317 32.0696 40.0113 31.9531C40.6051 31.7944 40.6051 31.7944 40.9646 31.3594C41.3382 31 41.3382 31 42.0075 30.9531C42.1975 30.9686 42.3875 30.9841 42.5833 31C42.6767 31.5469 42.6767 31.5469 42.5833 32.25C41.6951 33.1029 41.0345 33.6877 39.8129 33.8594C38.4448 33.7043 37.5667 32.9638 36.6067 32C36.0483 31.8526 36.0483 31.8526 35.3615 32C34.9565 32.3293 34.9565 32.3293 34.5522 32.7344C33.7099 33.5099 33.0487 33.7522 31.9111 33.8105C31.0444 33.7123 30.5326 33.309 29.8829 32.75C29.7648 32.6005 29.6467 32.4509 29.525 32.2969C29.1099 31.9196 29.1099 31.9196 28.3265 31.9844C27.4093 32.2453 27.1852 32.3869 26.5366 33.0156C25.9225 33.5827 25.5103 33.8805 24.6689 33.9531C23.3565 33.8629 22.5329 32.9083 21.665 32C21.7472 31.67 21.8294 31.34 21.9141 31C22.4744 30.9375 22.4744 30.9375 23.1592 31C23.4057 31.2552 23.4057 31.2552 23.6573 31.5156C24.1071 32.0589 24.1071 32.0589 24.7156 32.0312C25.3966 31.7516 25.7753 31.4531 26.3343 30.9844C27.2474 30.2758 27.904 30.0119 29.061 30.0801Z" fill="#EFCCB3"/>
<path d="M32.6222 16.7501C32.8713 17.0001 32.8713 17.0001 32.918 17.6095C32.8713 18.2501 32.8713 18.2501 32.3732 18.7501C31.873 18.9287 31.873 18.9287 31.2575 19.0919C31.0308 19.1529 30.8041 19.214 30.5706 19.2769C30.2071 19.3719 30.2071 19.3719 29.8362 19.4688C29.3375 19.6013 28.8388 19.7338 28.3401 19.8663C28.0945 19.931 27.8488 19.9958 27.5957 20.0625C26.9766 20.2281 26.3604 20.4009 25.7448 20.5792C25.5767 20.6271 25.4085 20.675 25.2353 20.7243C24.7916 20.8511 24.3484 20.9797 23.9053 21.1085C23.1417 21.2534 22.6552 21.2121 21.9141 21.0001C21.7429 20.422 21.7429 20.422 21.665 19.7501C22.2721 18.8167 23.3265 18.6868 24.3392 18.4346C24.528 18.3858 24.7169 18.3369 24.9115 18.2865C25.3107 18.1838 25.7104 18.0824 26.1103 17.9822C26.7194 17.8292 27.3272 17.6716 27.935 17.5133C28.3239 17.4139 28.7128 17.3147 29.1018 17.2159C29.2824 17.169 29.463 17.1222 29.6491 17.0739C30.6597 16.8234 31.5811 16.6768 32.6222 16.7501Z" fill="#E090B8"/>
<path d="M42.3342 16.7499C42.5832 16.9999 42.5832 16.9999 42.5987 17.7655C42.5936 18.0079 42.5885 18.2502 42.5832 18.4999C40.573 19.1472 38.5481 19.7334 36.5131 20.2968C36.1625 20.3949 36.1625 20.3949 35.8048 20.4951C34.5817 20.8308 33.3898 21.1426 32.124 21.2499C31.626 20.953 31.626 20.953 31.377 20.4999C31.4199 20.0031 31.4199 20.0031 31.626 19.4999C33.2975 18.4554 35.5165 18.0674 37.4003 17.5624C37.6833 17.4834 37.9662 17.4045 38.2578 17.3231C39.6431 16.9485 40.8965 16.6111 42.3342 16.7499Z" fill="#E1CCF5"/>
<path d="M20.1709 43.75C20.5715 43.7397 20.9721 43.7294 21.3849 43.7188C21.6103 43.7129 21.8356 43.7071 22.0678 43.7012C22.6612 43.75 22.6612 43.75 23.1592 44.25C23.2341 44.8193 23.2341 44.8193 23.237 45.4844C23.2412 45.7032 23.2454 45.922 23.2497 46.1475C23.1592 46.75 23.1592 46.75 22.8538 47.2012C22.2817 47.5883 21.9284 47.5767 21.2448 47.5469C20.8904 47.5314 20.536 47.5159 20.1709 47.5C20.1709 46.2625 20.1709 45.025 20.1709 43.75Z" fill="#191919"/>
<path d="M32.4983 43.6094C33.1208 43.75 33.1208 43.75 33.6967 44.0781C34.3663 45.1487 34.1931 46.2688 34.1169 47.5C33.8704 47.5 33.6239 47.5 33.3699 47.5C33.2877 46.675 33.2055 45.85 33.1208 45C32.7921 44.9175 32.4634 44.835 32.1247 44.75C32.0425 45.6575 31.9604 46.565 31.8757 47.5C31.547 47.4175 31.2183 47.335 30.8796 47.25C30.7899 46.1018 30.7355 45.2626 31.2998 44.2344C31.8757 43.75 31.8757 43.75 32.4983 43.6094Z" fill="#252525"/>
<path d="M25.6502 43.75C25.8967 43.75 26.1433 43.75 26.3973 43.75C26.4795 44.575 26.5616 45.4 26.6463 46.25C26.975 46.25 27.3037 46.25 27.6424 46.25C27.7246 45.425 27.8068 44.6 27.8914 43.75C28.138 43.75 28.3845 43.75 28.6385 43.75C28.6588 44.1456 28.6733 44.5415 28.6852 44.9375C28.6939 45.1579 28.7026 45.3784 28.7115 45.6055C28.624 46.3783 28.4391 46.7053 27.8914 47.25C27.0043 47.3438 27.0043 47.3438 26.1483 47.25C25.6502 46.75 25.6502 46.75 25.6016 46.0449C25.6073 45.7723 25.6131 45.4996 25.6191 45.2188C25.6236 44.9448 25.6281 44.6709 25.6327 44.3887C25.6385 44.1779 25.6442 43.9671 25.6502 43.75Z" fill="#121212"/>
<path d="M36.3584 43.75C37.2624 43.75 38.1663 43.75 39.0977 43.75C38.8148 45.1702 38.5291 45.4755 37.6035 46.5C38.1788 46.5825 38.754 46.665 39.3467 46.75C39.3467 46.915 39.3467 47.08 39.3467 47.25C38.3606 47.25 37.3744 47.25 36.3584 47.25C36.6556 46.0566 37.0548 45.6536 37.8526 44.75C37.113 44.6262 37.113 44.6262 36.3584 44.5C36.3584 44.2525 36.3584 44.005 36.3584 43.75Z" fill="#191919"/>
<path d="M41.3389 43.75C42.2428 43.75 43.1468 43.75 44.0782 43.75C43.7952 45.1702 43.5096 45.4755 42.584 46.5C43.3236 46.6238 43.3236 46.6238 44.0782 46.75C44.0782 46.915 44.0782 47.08 44.0782 47.25C43.1742 47.25 42.2702 47.25 41.3389 47.25C41.6361 46.0566 42.0353 45.6536 42.833 44.75C42.0934 44.6262 42.0934 44.6262 41.3389 44.5C41.3389 44.2525 41.3389 44.005 41.3389 43.75Z" fill="#171717"/>
<path d="M36.8565 46.5C37.6782 46.5825 38.5 46.665 39.3467 46.75C39.3467 46.915 39.3467 47.08 39.3467 47.25C38.3606 47.25 37.3744 47.25 36.3584 47.25C36.5228 47.0025 36.6871 46.755 36.8565 46.5Z" fill="#050505"/>
<path d="M41.8369 46.5C42.5765 46.5825 43.3161 46.665 44.0782 46.75C44.0782 46.915 44.0782 47.08 44.0782 47.25C43.1742 47.25 42.2702 47.25 41.3389 47.25C41.5032 47.0025 41.6676 46.755 41.8369 46.5Z" fill="#010101"/>
<path d="M20.918 46C21.411 46 21.9041 46 22.4121 46C22.33 46.2475 22.2478 46.495 22.1631 46.75C21.7522 46.75 21.3413 46.75 20.918 46.75C20.918 46.5025 20.918 46.255 20.918 46Z" fill="#EAEAEA"/>
<path d="M20.918 44.5C21.411 44.5 21.9041 44.5 22.4121 44.5C22.33 44.7475 22.2478 44.995 22.1631 45.25C21.7522 45.25 21.3413 45.25 20.918 45.25C20.918 45.0025 20.918 44.755 20.918 44.5Z" fill="#EDEDED"/>
</svg>
