<svg width="166" height="24" viewBox="0 0 166 24" fill="none" xmlns="http://www.w3.org/2000/svg">
<path d="M84.3855 3.91406H80.7179C80.6442 3.91406 80.5873 3.97434 80.5873 4.04467V14.3926C80.5873 16.5593 78.8255 18.3208 76.6584 18.3208C74.4913 18.3208 72.7262 16.5593 72.7262 14.3926V4.04467C72.7262 3.97099 72.6659 3.91406 72.5956 3.91406H68.928C68.8543 3.91406 68.7974 3.97434 68.7974 4.04467V14.3926C68.7974 18.7261 72.3243 22.2524 76.6584 22.2524C80.9925 22.2524 84.5195 18.7261 84.5195 14.3926V4.04467C84.5195 3.97099 84.4592 3.91406 84.3888 3.91406H84.3855Z" fill="black"/>
<path d="M104.827 3.91406C100.493 3.91406 96.9661 7.44041 96.9661 11.7738V22.1218C96.9661 22.1955 97.0263 22.2524 97.0967 22.2524H100.764C100.838 22.2524 100.895 22.1921 100.895 22.1218V11.7738C100.895 9.60712 102.657 7.84562 104.827 7.84562C106.998 7.84562 108.756 9.60712 108.756 11.7738V22.1218C108.756 22.1955 108.816 22.2524 108.887 22.2524H112.554C112.628 22.2524 112.685 22.1921 112.685 22.1218V11.7738C112.685 7.44041 109.158 3.91406 104.824 3.91406H104.827Z" fill="black"/>
<path d="M139.413 18.9767H129.204C129.147 18.9767 129.117 18.913 129.154 18.8695L138.86 7.22218C138.88 7.19873 138.891 7.16859 138.891 7.13845V4.04076C138.891 3.96709 138.83 3.91016 138.76 3.91016H125.265C125.191 3.91016 125.135 3.97044 125.135 4.04076V7.05473C125.135 7.12841 125.195 7.18534 125.265 7.18534H134.165C134.221 7.18534 134.252 7.24897 134.215 7.2925L124.508 18.9398C124.488 18.9633 124.478 18.9934 124.478 19.0235V22.1212C124.478 22.1949 124.538 22.2518 124.609 22.2518H139.413C139.487 22.2518 139.544 22.1916 139.544 22.1212V19.1073C139.544 19.0336 139.483 18.9767 139.413 18.9767Z" fill="black"/>
<path d="M164.966 18.9767H154.757C154.7 18.9767 154.67 18.913 154.707 18.8695L164.413 7.22218C164.433 7.19873 164.443 7.16859 164.443 7.13845V4.04076C164.443 3.96709 164.383 3.91016 164.313 3.91016H150.818C150.744 3.91016 150.687 3.97044 150.687 4.04076V7.05473C150.687 7.12841 150.748 7.18534 150.818 7.18534H159.717C159.774 7.18534 159.804 7.24897 159.767 7.2925L150.061 18.9398C150.041 18.9633 150.031 18.9934 150.031 19.0235V22.1212C150.031 22.1949 150.091 22.2518 150.161 22.2518H164.966C165.039 22.2518 165.096 22.1916 165.096 22.1212V19.1073C165.096 19.0336 165.036 18.9767 164.966 18.9767Z" fill="black"/>
<path d="M56.3514 9.15502C56.3514 6.26496 54.0001 3.91406 51.1096 3.91406H41.4131C41.3394 3.91406 41.2825 3.97434 41.2825 4.04467V22.1218C41.2825 22.1955 41.3428 22.2524 41.4131 22.2524H51.1096C54.0001 22.2524 56.3514 19.9015 56.3514 17.0114C56.3514 15.5078 55.705 14.0778 54.5762 13.0832C55.705 12.0886 56.3514 10.6553 56.3514 9.15502ZM51.2704 11.2079C50.9656 11.3653 50.634 11.4456 50.2924 11.4456H45.2817C45.2448 11.4456 45.2147 11.4155 45.2147 11.3787V7.25287C45.2147 7.21604 45.2448 7.1859 45.2817 7.1859H50.2924C50.5771 7.1859 50.8517 7.23948 51.113 7.34999L51.2034 7.38683C51.2034 7.38683 51.2168 7.39687 51.2235 7.40022C52.0073 7.77864 52.4762 8.57902 52.4159 9.45977C52.369 10.1965 51.9269 10.8663 51.2704 11.2045V11.2079ZM52.4125 16.6933C52.4762 17.5741 52.0106 18.3778 51.2302 18.7629C51.2235 18.7662 51.2135 18.7729 51.2068 18.7763L51.1096 18.8165C50.8484 18.9236 50.5737 18.9806 50.289 18.9806H45.2783C45.2415 18.9806 45.2113 18.9504 45.2113 18.9136V14.7878C45.2113 14.751 45.2415 14.7208 45.2783 14.7208H50.289C50.6273 14.7208 50.9589 14.8012 51.2603 14.9552C51.9168 15.2901 52.3589 15.9566 52.4125 16.69V16.6933Z" fill="black"/>
<path d="M23.1743 0.309104L12.8538 3.07403C12.2213 3.24349 11.8459 3.89354 12.0154 4.52596L12.0162 4.52919C12.1857 5.16162 12.8359 5.53692 13.4684 5.36747L23.7889 2.60254C24.4215 2.43308 24.7968 1.78303 24.6273 1.15061L24.6265 1.14738C24.457 0.514955 23.8068 0.139647 23.1743 0.309104Z" fill="#E0CCF4"/>
<path d="M12.1323 0.307152L1.81179 3.07208C1.17927 3.24153 0.803898 3.89159 0.973383 4.52401L0.97425 4.52724C1.14373 5.15966 1.79389 5.53497 2.42642 5.36551L12.7469 2.60059C13.3795 2.43113 13.7548 1.78108 13.5853 1.14866L13.5845 1.14542C13.415 0.513002 12.7648 0.137695 12.1323 0.307152Z" fill="#E090B8"/>
<path d="M23.7784 8.21519H13.0804C12.8962 8.21519 12.7153 8.25872 12.5512 8.33909L8.45154 10.3886C8.20033 10.5125 7.90558 10.5125 7.65438 10.3886L3.55471 8.33909C3.39059 8.25537 3.20972 8.21519 3.02551 8.21519H1.82307C1.33071 8.21519 0.932129 7.81667 0.932129 7.32439C0.932129 6.83211 1.33071 6.43359 1.82307 6.43359H23.7784C24.2708 6.43359 24.6693 6.83211 24.6693 7.32439C24.6693 7.81667 24.2708 8.21519 23.7784 8.21519Z" fill="#EAD14B"/>
<path d="M23.7181 14.5051H1.88001C1.3575 14.5051 0.932129 14.0798 0.932129 13.5574V10.7108C0.932129 10.1851 1.3575 9.75977 1.88001 9.75977H3.02551C3.20972 9.75977 3.39059 9.8033 3.55471 9.88367L7.65438 11.9332C7.90558 12.0571 8.20033 12.0571 8.45154 11.9332L12.5512 9.88367C12.7153 9.79995 12.8962 9.75977 13.0804 9.75977H23.7181C24.244 9.75977 24.666 10.1851 24.666 10.7075V13.554C24.666 14.0798 24.2406 14.5017 23.7181 14.5017V14.5051Z" fill="#6964B8"/>
<path d="M23.4837 20.4395H2.11782C1.46298 20.4395 0.932129 20.9702 0.932129 21.6249V22.8138C0.932129 23.4685 1.46298 23.9993 2.11782 23.9993H23.4837C24.1385 23.9993 24.6693 23.4685 24.6693 22.8138V21.6249C24.6693 20.9702 24.1385 20.4395 23.4837 20.4395Z" fill="#413290"/>
<path d="M21.3433 19.4846C20.4993 19.4846 19.6519 19.1631 19.0088 18.5201L18.1547 17.6662C17.8666 17.3782 17.4815 17.2174 17.0728 17.2174C16.6642 17.2174 16.279 17.3782 15.991 17.6662L15.1369 18.5201C13.8507 19.8061 11.754 19.8061 10.4678 18.5201L9.61371 17.6662C9.01752 17.0701 8.04619 17.0701 7.45 17.6662L6.5959 18.5201C5.30973 19.8061 3.213 19.8061 1.92683 18.5201L1.19331 17.7867C0.848323 17.4418 0.848323 16.8792 1.19331 16.5342C1.5383 16.1893 2.101 16.1893 2.44599 16.5342L3.17951 17.2676C3.7757 17.8637 4.74703 17.8637 5.34322 17.2676L6.19732 16.4137C7.48349 15.1277 9.58021 15.1277 10.8664 16.4137L11.7205 17.2676C12.3167 17.8637 13.288 17.8637 13.8842 17.2676L14.7383 16.4137C16.0245 15.1277 18.1212 15.1277 19.4074 16.4137L20.2615 17.2676C20.8577 17.8637 21.829 17.8637 22.4252 17.2676L23.1553 16.5376C23.5003 16.1927 24.063 16.1927 24.408 16.5376C24.753 16.8825 24.753 17.4451 24.408 17.7901L23.6779 18.5201C23.0348 19.1631 22.1874 19.4846 21.3433 19.4846Z" fill="#EFCCB3"/>
</svg>
