<?xml version="1.0" encoding="UTF-8"?>
<svg id="_レイヤー_2" data-name="レイヤー_2" xmlns="http://www.w3.org/2000/svg" viewBox="0 0 111.1 85.04">
  <defs>
    <style>
      .cls-1 {
        fill: #006cb8;
      }
    </style>
  </defs>
  <g id="_レイヤー_1-2" data-name="レイヤー_1">
    <g>
      <path class="cls-1" d="M60.46,35.39c0,.54-.45.98-.95.98h-8.01c-.54,0-.98-.44-.98-.98V14.16c0-.54.45-.97.98-.97h8.01c.5,0,.95.43.95.97v21.24ZM73.28,8.24c0-4.53-3.71-8.24-8.23-8.24h-18.88c-4.54,0-8.23,3.71-8.23,8.24v75.8c0,.54.45.98.98.98h10.66c.55,0,.95-.44.95-.98v-33.2c0-.54.45-.98.98-.98h8.01c.5,0,.95.44.95.98v33.2c0,.54.45.98.98.98h10.84c.53,0,.98-.44.98-.98V8.24Z"/>
      <path class="cls-1" d="M35.34,50.82c0-.54-.45-.98-.98-.98h-10.83c-.54,0-.98.44-.98.98v20.04c0,.53-.44.97-.97.97h-7.96c-.54,0-.98-.44-.98-.97V14.16c0-.54.44-.97.98-.97h7.96c.53,0,.97.43.97.97v21.21c0,.54.45.98.98.98h10.83c.54,0,.98-.44.98-.98V8.24c0-4.53-3.71-8.24-8.23-8.24H8.23C3.68,0,0,3.71,0,8.24v68.56c0,4.53,3.68,8.24,8.23,8.24h18.89c4.52,0,8.23-3.71,8.23-8.24v-25.97Z"/>
      <path class="cls-1" d="M111.1,50.82c0-.54-.44-.98-.98-.98h-10.8c-.54,0-.98.44-.98.98v20.04c0,.53-.42.97-.96.97h-8.01c-.53,0-.95-.44-.95-.97V14.16c0-.54.42-.97.95-.97h8.01c.54,0,.96.43.96.97v21.21c0,.54.44.98.98.98h10.8c.54,0,.98-.44.98-.98V8.24c0-4.53-3.66-8.24-8.21-8.24h-18.91c-4.54,0-8.23,3.71-8.23,8.24v68.56c0,4.53,3.69,8.24,8.23,8.24h18.91c4.54,0,8.21-3.71,8.21-8.24v-25.97Z"/>
    </g>
  </g>
</svg>