<svg width="48" height="37" viewBox="0 0 48 37" fill="none" xmlns="http://www.w3.org/2000/svg">
<path d="M25.9715 15.5529C25.9715 15.7815 25.7831 15.9678 25.5738 15.9678H22.2213C21.9953 15.9678 21.8112 15.7815 21.8112 15.5529V6.56564C21.8112 6.33705 21.9995 6.15501 22.2213 6.15501H25.5738C25.7831 6.15501 25.9715 6.33705 25.9715 6.56564V15.5572V15.5529ZM31.3372 4.05953C31.3372 2.14184 29.7844 0.571289 27.8926 0.571289H19.9905C18.0903 0.571289 16.5459 2.14184 16.5459 4.05953V36.148C16.5459 36.3766 16.7342 36.5628 16.9561 36.5628H21.4177C21.6479 36.5628 21.8153 36.3766 21.8153 36.148V22.0934C21.8153 21.8648 22.0037 21.6785 22.2255 21.6785H25.578C25.7873 21.6785 25.9756 21.8648 25.9756 22.0934V36.148C25.9756 36.3766 26.164 36.5628 26.3858 36.5628H30.9228C31.1446 36.5628 31.333 36.3766 31.333 36.148V4.05953H31.3372Z" fill="#006CB8"/>
<path d="M15.4578 22.0849C15.4578 21.8563 15.2694 21.6701 15.0476 21.6701H10.5148C10.2888 21.6701 10.1046 21.8563 10.1046 22.0849V30.5685C10.1046 30.7928 9.92046 30.9791 9.69864 30.9791H6.36704C6.14103 30.9791 5.95687 30.7928 5.95687 30.5685V6.56564C5.95687 6.33705 6.14103 6.15501 6.36704 6.15501H9.69864C9.92046 6.15501 10.1046 6.33705 10.1046 6.56564V15.5445C10.1046 15.7731 10.293 15.9593 10.5148 15.9593H15.0476C15.2736 15.9593 15.4578 15.7731 15.4578 15.5445V4.05953C15.4578 2.14184 13.905 0.571289 12.0132 0.571289H4.1111C2.20674 0.571289 0.666504 2.14184 0.666504 4.05953V33.083C0.666504 35.0007 2.20674 36.5713 4.1111 36.5713H12.0174C13.9092 36.5713 15.462 35.0007 15.462 33.083V22.0892L15.4578 22.0849Z" fill="#006CB8"/>
<path d="M47.1665 22.0849C47.1665 21.8563 46.9824 21.6701 46.7564 21.6701H42.2361C42.0101 21.6701 41.826 21.8563 41.826 22.0849V30.5685C41.826 30.7928 41.6502 30.9791 41.4242 30.9791H38.0716C37.8498 30.9791 37.674 30.7928 37.674 30.5685V6.56564C37.674 6.33705 37.8498 6.15501 38.0716 6.15501H41.4242C41.6502 6.15501 41.826 6.33705 41.826 6.56564V15.5445C41.826 15.7731 42.0101 15.9593 42.2361 15.9593H46.7564C46.9824 15.9593 47.1665 15.7731 47.1665 15.5445V4.05953C47.1665 2.14184 45.6347 0.571289 43.7303 0.571289H35.8157C33.9155 0.571289 32.3711 2.14184 32.3711 4.05953V33.083C32.3711 35.0007 33.9155 36.5713 35.8157 36.5713H43.7303C45.6305 36.5713 47.1665 35.0007 47.1665 33.083V22.0892V22.0849Z" fill="#006CB8"/>
</svg>
