<svg width="159" height="45" viewBox="0 0 159 45" fill="none" xmlns="http://www.w3.org/2000/svg">
<path d="M68.1334 32.7719L63.5333 24.4719C65.6333 23.5719 67.1334 21.7719 67.1334 18.8719C67.1334 14.1719 63.8333 12.6719 59.9333 12.6719H52.4333V32.6719H56.5333V25.0719H59.8333L63.6334 32.6719H68.1334V32.7719ZM56.4333 16.0719H59.2333C61.4333 16.0719 62.9333 16.7719 62.9333 19.0719C62.9333 21.3719 61.4333 21.8719 59.3333 21.8719H56.3333V16.0719H56.4333Z" fill="#1D2087"/>
<path d="M147.433 32.7719L142.833 24.4719C144.933 23.5719 146.433 21.7719 146.433 18.8719C146.433 14.1719 143.133 12.6719 139.233 12.6719H131.733V32.6719H135.833V25.0719H139.133L142.933 32.6719H147.433V32.7719ZM135.833 16.0719H138.633C140.833 16.0719 142.333 16.7719 142.333 19.0719C142.333 21.3719 140.833 21.8719 138.733 21.8719H135.733V16.0719H135.833Z" fill="#1D2087"/>
<path d="M26.1334 16.0713C25.0334 15.6713 23.7334 15.3713 22.4334 15.3713C18.0334 15.3713 15.9334 18.6713 15.9334 22.6713C15.9334 26.3713 18.1334 29.7713 22.4334 29.7713C23.9334 29.7713 25.2334 29.4713 26.3334 28.9713L27.0334 32.1713C25.5334 32.7713 23.7334 33.0713 21.9334 33.0713C15.7334 33.1713 11.7334 28.7713 11.7334 22.6713C11.7334 16.5713 15.5334 12.0713 22.0334 12.0713C23.8334 12.0713 25.5334 12.3713 26.8334 12.8713L26.1334 16.0713Z" fill="#1D2087"/>
<path d="M39.3334 33.1713C33.2334 33.1713 29.7334 28.7713 29.7334 22.6713C29.7334 16.5713 33.1334 12.0713 39.3334 12.0713C45.5334 12.0713 48.9334 16.4713 48.9334 22.6713C48.9334 28.7713 45.5334 33.1713 39.3334 33.1713ZM39.3334 15.3713C35.6334 15.3713 33.9334 18.5713 33.9334 22.5713C33.9334 26.5713 35.6334 29.7713 39.3334 29.7713C43.0334 29.7713 44.7334 26.5713 44.7334 22.5713C44.7334 18.6713 43.0334 15.3713 39.3334 15.3713Z" fill="#1D2087"/>
<path d="M93.1333 12.3721H105.433V15.6721H97.3333V20.6721H104.833V23.9721H97.3333V29.3721H105.733V32.6721H93.1333V12.3721Z" fill="#1D2087"/>
<path d="M112.733 32.7721H108.333L115.633 12.3721H121.333L128.633 32.7721H124.133L122.333 27.7721H114.433L112.733 32.7721ZM115.534 24.4721H121.433L118.433 15.6721L115.534 24.4721Z" fill="#1D2087"/>
<path d="M80.5333 24.2713H84.0333V29.3713C83.3333 29.6713 82.5333 29.7713 81.5333 29.7713C77.2333 29.7713 74.8333 26.5713 74.8333 22.6713C74.8333 18.2713 77.3333 15.7713 81.1333 15.5713V12.0713C74.3333 12.2713 70.6333 16.6713 70.6333 22.6713C70.6333 28.8713 74.7333 33.1713 81.1333 33.1713C83.5333 33.1713 85.9333 32.7713 88.0333 31.7713V20.9713H80.4333V24.2713H80.5333Z" fill="#1D2087"/>
<path d="M88.1335 11.9717H84.3335V15.7717H88.1335V11.9717Z" fill="#00A8B7"/>
</svg>
