<svg width="136" height="39" viewBox="0 0 136 39" fill="none" xmlns="http://www.w3.org/2000/svg">
<path d="M59.4697 19.5794C59.5003 18.5603 59.2934 17.5477 58.8642 16.6173C58.4351 15.6869 57.7949 14.8628 56.9916 14.2066C55.1878 12.7867 52.9138 12.0523 50.5936 12.1406H41.9917V15.8679H50.5936C51.7719 15.8227 52.9259 16.2019 53.8338 16.9329C54.252 17.2782 54.5857 17.7097 54.8105 18.1961C55.0353 18.6825 55.1455 19.2114 55.1331 19.7444C55.1495 20.2721 55.0415 20.7964 54.8172 21.2772C54.593 21.758 54.2584 22.1827 53.8392 22.5187C52.925 23.2421 51.7723 23.6203 50.5936 23.5836H46.3667V17.9393H41.9807V27.295H50.5827C52.9192 27.3738 55.199 26.5856 56.9587 25.0906C57.7662 24.4057 58.4094 23.5574 58.8432 22.6053C59.277 21.6532 59.4909 20.6203 59.4697 19.5794Z" fill="#414042"/>
<path d="M64.2859 19.5796C64.2658 20.6205 64.4767 21.6531 64.9039 22.6051C65.3311 23.5571 65.9642 24.4055 66.7589 25.0908C68.4904 26.585 70.7337 27.3733 73.0332 27.2953H80.463V23.5679H73.0332C71.8752 23.6074 70.7424 23.2287 69.8474 22.503C69.4374 22.1681 69.1097 21.746 68.8889 21.2682C68.6682 20.7904 68.5602 20.2695 68.5731 19.7447C68.561 19.2122 68.6691 18.6838 68.8895 18.1975C69.1099 17.7113 69.4371 17.2794 69.8474 16.9332C70.7381 16.1999 71.8739 15.8202 73.0332 15.8682H80.463V12.1408H73.0332C70.7464 12.0518 68.5047 12.7861 66.7265 14.2069C65.9353 14.8631 65.3048 15.6872 64.8822 16.6176C64.4596 17.548 64.2557 18.5606 64.2859 19.5796Z" fill="#414042"/>
<path d="M94.2038 15.8641L97.7363 12.1336H82.4308V27.3006H96.99V23.5861H86.7094V21.4757H96.99V17.9158H86.7094V15.8641H94.2038Z" fill="#414042"/>
<path d="M117.633 12.1336H113.248V20.9752L103.782 12.778C103.554 12.5617 103.28 12.3943 102.98 12.2869C102.68 12.1795 102.359 12.1345 102.039 12.1547C101.779 12.1407 101.519 12.1806 101.276 12.2717C101.033 12.3628 100.813 12.503 100.631 12.6829C100.298 13.04 100.123 13.508 100.143 13.9875V27.1919H104.528V18.3713L113.988 26.5739C114.24 26.8188 114.542 27.0099 114.876 27.1345C115.209 27.2592 115.566 27.3148 115.923 27.2975C117.074 27.2975 117.633 26.6637 117.633 25.3538V12.1336Z" fill="#414042"/>
<path d="M136 12.1336H119.383V15.8641H125.584V27.3006H129.803V15.8641H136V12.1336Z" fill="#414042"/>
<path d="M62.8404 15.6003H60.9204L59.4727 12.1336H64.2829L62.8404 15.6003Z" fill="#27C4B8"/>
<path d="M17.9838 7.3658L20.9633 5.68752V1.67828L17.9838 0V7.3658Z" fill="#A4A7A9"/>
<path d="M7.01028 24.8123V13.5414L16.9944 7.93071V0L0.505951 9.28541C0.352408 9.37253 0.224914 9.49734 0.136151 9.64744C0.0473881 9.79755 0.000452598 9.96771 0 10.141V28.7886L7.01028 24.8123Z" fill="#27C4B8"/>
<path d="M27.4395 25.6068L17.4722 31.2175L7.5667 25.6397L0.52832 29.605L16.9943 38.8685C17.1483 38.9547 17.3227 39.0001 17.5003 39.0001C17.6779 39.0008 17.8525 38.9554 18.0062 38.8685L34.5003 29.5776L27.4395 25.6068Z" fill="#6D6E71"/>
<path d="M34.4724 9.2851L27.9343 5.60493V9.61418L20.9297 13.5686L27.9568 17.5229V24.7462L34.984 28.7334V10.1407C34.983 9.96687 34.9352 9.79635 34.8454 9.6462C34.7556 9.49605 34.627 9.37154 34.4724 9.2851Z" fill="#A4A7A9"/>
<path d="M13.9868 17.4734L13.9924 25.3273L20.8284 21.4771V13.6177L13.9868 17.4734Z" fill="#6D6E71"/>
</svg>
