<svg width="136" height="40" viewBox="0 0 136 40" fill="none" xmlns="http://www.w3.org/2000/svg">
<g clip-path="url(#clip0_9153_85067)">
<path d="M59.4697 19.651C59.5003 18.6319 59.2934 17.6193 58.8642 16.6889C58.4351 15.7585 57.7949 14.9344 56.9916 14.2782C55.1878 12.8583 52.9138 12.1239 50.5936 12.2122H41.9917V15.9395H50.5936C51.7719 15.8943 52.9259 16.2735 53.8338 17.0045C54.252 17.3498 54.5857 17.7813 54.8105 18.2677C55.0353 18.7541 55.1455 19.283 55.1331 19.816C55.1495 20.3437 55.0415 20.868 54.8172 21.3488C54.593 21.8296 54.2584 22.2543 53.8392 22.5903C52.925 23.3137 51.7723 23.6919 50.5936 23.6552H46.3667V18.0109H41.9807V27.3666H50.5827C52.9192 27.4454 55.199 26.6572 56.9587 25.1622C57.7662 24.4773 58.4094 23.629 58.8432 22.6769C59.277 21.7248 59.4909 20.6919 59.4697 19.651Z" fill="#414042"/>
<path d="M64.2859 19.6511C64.2658 20.692 64.4767 21.7246 64.9039 22.6766C65.3311 23.6286 65.9642 24.477 66.7589 25.1623C68.4904 26.6565 70.7337 27.4448 73.0332 27.3668H80.463V23.6394H73.0332C71.8752 23.6789 70.7424 23.3002 69.8474 22.5745C69.4374 22.2396 69.1097 21.8175 68.8889 21.3397C68.6682 20.8619 68.5602 20.341 68.5731 19.8162C68.561 19.2837 68.6691 18.7553 68.8895 18.269C69.1099 17.7828 69.4371 17.3509 69.8474 17.0047C70.7381 16.2714 71.8739 15.8917 73.0332 15.9397H80.463V12.2123H73.0332C70.7464 12.1233 68.5047 12.8576 66.7265 14.2784C65.9353 14.9346 65.3048 15.7587 64.8822 16.6891C64.4596 17.6195 64.2557 18.6321 64.2859 19.6511Z" fill="#414042"/>
<path d="M94.2039 15.9356L97.7364 12.2051H82.4309V27.3721H96.9901V23.6576H86.7095V21.5472H96.9901V17.9873H86.7095V15.9356H94.2039Z" fill="#414042"/>
<path d="M117.633 12.2051H113.248V21.0467L103.782 12.8495C103.554 12.6332 103.28 12.4658 102.98 12.3584C102.68 12.251 102.359 12.206 102.039 12.2262C101.779 12.2122 101.519 12.2521 101.276 12.3432C101.033 12.4343 100.813 12.5745 100.631 12.7544C100.298 13.1115 100.123 13.5795 100.143 14.059V27.2634H104.528V18.4428L113.988 26.6454C114.24 26.8903 114.542 27.0814 114.876 27.206C115.209 27.3307 115.566 27.3863 115.923 27.369C117.074 27.369 117.633 26.7352 117.633 25.4253V12.2051Z" fill="#414042"/>
<path d="M136 12.2051H119.383V15.9356H125.584V27.3721H129.803V15.9356H136V12.2051Z" fill="#414042"/>
<path d="M62.8404 15.6718H60.9204L59.4727 12.2051H64.2829L62.8404 15.6718Z" fill="#27C4B8"/>
<path d="M17.9839 7.43709L20.9634 5.75881V1.74957L17.9839 0.0712891V7.43709Z" fill="#A4A7A9"/>
<path d="M7.01028 24.8836V13.6127L16.9944 8.002V0.0712891L0.505951 9.3567C0.352408 9.44382 0.224914 9.56863 0.136151 9.71873C0.0473881 9.86884 0.000452598 10.039 0 10.2123V28.8599L7.01028 24.8836Z" fill="#27C4B8"/>
<path d="M27.4395 25.6777L17.4722 31.2884L7.5667 25.7106L0.52832 29.6759L16.9943 38.9394C17.1483 39.0256 17.3227 39.071 17.5003 39.071C17.6779 39.0717 17.8525 39.0263 18.0062 38.9394L34.5003 29.6485L27.4395 25.6777Z" fill="#6D6E71"/>
<path d="M34.4724 9.35595L27.9343 5.67578V9.68503L20.9297 13.6395L27.9568 17.5938V24.8171L34.984 28.8043V10.2116C34.983 10.0377 34.9352 9.8672 34.8454 9.71705C34.7556 9.5669 34.627 9.44239 34.4724 9.35595Z" fill="#A4A7A9"/>
<path d="M13.9868 17.5452L13.9924 25.3991L20.8284 21.5489V13.6895L13.9868 17.5452Z" fill="#6D6E71"/>
</g>
<defs>
<clipPath id="clip0_9153_85067">
<rect width="136" height="39" fill="white" transform="translate(0 0.0712891)"/>
</clipPath>
</defs>
</svg>
