<?xml version="1.0" encoding="UTF-8"?>
<svg id="_レイヤー_2" data-name="レイヤー 2" xmlns="http://www.w3.org/2000/svg" viewBox="0 0 290.48 111.58">
  <defs>
    <style>
      .cls-1 {
        fill: #db1920;
      }

      .cls-1, .cls-2, .cls-3 {
        stroke-width: 0px;
      }

      .cls-2 {
        fill: #221d1e;
      }

      .cls-3 {
        fill: #f4f4f4;
      }
    </style>
  </defs>
  <g id="Layer_1" data-name="Layer 1">
    <g>
      <g>
        <path class="cls-2" d="M265.28,29.79c.23,0,.46.04.69.06.13,0,.25-.02.38-.03.38-.02-1.43-.04-1.06-.03Z"/>
        <path class="cls-1" d="M283.78,51.21c-1.77-7.61-4.52-13.08-8.41-16.8-2.82-2.71-6.06-4.26-9.41-4.56-2.02.15-3.78.77-5.23,1.81l-9.43-1.25c-1.45-.78-2.94-1.28-4.45-1.49-.42-.06-.83-.09-1.22-.11-2.93-.11-5.37.87-7.19,2.83-2.92-2.88-6.37-4.48-10-4.61-.18,0-.37,0-.56,0-1.65,0-3.17.35-4.55,1.01l-15.18.1.08.87c-2.19-1.16-4.62-1.91-7.24-2.28-.8-.11-1.58-.17-2.34-.2-3.17-.12-5.99.53-8.35,1.91l-.38-10.58-25.13-1.94-2.31,9.07-2.24-9.42-26.92-2.07-.96,15.91c-3.79-3.7-8.72-6.01-14.74-6.91-1.24-.19-2.48-.3-3.68-.35-7.03-.26-13.15,1.89-18.23,6.44-.61.54-1.19,1.12-1.76,1.72-.73-5.24-2.24-9.66-4.54-13.36-5.05-8.13-14.01-12.77-26.72-13.89L29.69,0,0,111.58l46.02-4.96c14.44-1.42,25.64-6.88,33.29-16.07,1.56-1.87,2.99-3.93,4.31-6.16.19.46.39.92.61,1.37,3.02,6.35,9.51,14.04,22.97,14.19h.05c8.68.08,15.86-2.61,21.34-7.95l-.95,15.75,29.82-3.61.4-17.54,8.16-.6v6.88s26.55-2.46,26.55-2.46l-.05-1.52c2.31,1.2,4.86,1.85,7.55,1.89h.23c1.58.02,3.63-.26,5.74-1.27l7.86.06h.06s5.93-.96,5.93-.96l20.58-3.29.43,7.35,6.16,3.09c3.29,1.65,6.65,2.51,9.95,2.55.4,0,.79,0,1.18-.02,5.7-.27,9.82-3.3,11.92-8.7.71-1.82,1.17-3.87,1.41-6.13,1.34.55,2.7.85,4.06.88.77.01,1.55-.06,2.31-.22,1.08-.23,2.43-.74,3.69-1.83l8.92-2.35-6.7-28.72Z"/>
      </g>
      <g>
        <path class="cls-3" d="M12.85,99.34L35.87,9.33l26.49,2.39c10.25.88,16.95,4.14,20.44,9.82,3.48,5.68,4.34,14.53,2.51,26.94l-.67,4.53c-1.93,13.13-5.79,23.3-11.7,30.24-6.17,7.27-15.29,11.59-27.6,12.74l-32.5,3.35ZM46.27,78c5.84-.33,10.35-2.24,13.58-5.7,3.16-3.38,5.44-9.08,6.85-17l1.63-9.1c1.33-7.45,1.07-12.59-.76-15.58-1.83-2.98-5.3-4.62-10.5-4.9l-7.92-.43-11.78,53.21,8.91-.5Z"/>
        <path class="cls-3" d="M131.18,64.48l-26.94-1.98c-1.65,8.75.1,13.35,5.2,13.57,2.56.11,4.53-.53,5.91-1.91,1.37-1.37,2.36-3.52,2.99-6.44l12.15.78c-1.2,6.53-3.72,11.69-7.64,15.44-4.04,3.87-9.4,5.8-16.11,5.71-7.23-.09-12.29-2.94-14.99-8.51-2.7-5.56-3.05-12.92-1.12-21.85l1.01-4.67c1.83-8.48,5.03-14.73,9.54-18.84,4.35-3.98,9.77-5.43,16.21-4.48,12.14,1.79,16.88,10.56,14.63,27.17l-.82,6.02ZM109.7,44.43c-1.49,1.54-2.67,4.16-3.54,7.87l14.42,1.4c.47-3.58.29-6.24-.54-8.03-.83-1.78-2.38-2.82-4.7-3.1-2.29-.28-4.17.34-5.64,1.86Z"/>
        <path class="cls-3" d="M149.17,94.72l-12.2,1.42,3.77-73.49,13.69,1.02,7.38,32.12.71,3.55h.13s.71-3.57.71-3.57l7.55-30.87,11.65.87,1.52,55.43-9.84.87-.31-31.18.04-6.88h-.06s-.77,2.91-.77,2.91l-6.82,29.15-7.93.55-6.92-29.97-.69-3.12h-.13s-.09,7.34-.09,7.34l-1.39,43.85Z"/>
        <path class="cls-3" d="M213.79,53.07l1.05,26.81-8.04-.08-.08-3.28.21-3.68h-.05c-1.42,5.43-4.11,8.19-8.09,8.17-3.35-.02-5.92-1.47-7.69-4.34-1.76-2.87-2.62-6.58-2.58-11.07.04-4.31,1.02-7.67,2.93-10.1,1.87-2.38,4.68-3.38,8.41-3.04,2.26.2,4.36.91,6.31,2.12l-.08-3.19c-.05-1.92-.41-3.56-1.08-4.93-.67-1.37-1.78-2.13-3.34-2.31-1.41-.16-2.45.3-3.12,1.4-.67,1.11-1.01,2.5-.99,4.17v.29s-8.15-.78-8.15-.78c.1-4.42,1.16-8,3.15-10.74,1.94-2.68,4.98-3.71,9.06-3.14,7.77,1.08,11.73,6.87,12.16,17.72ZM205.19,68.18c.81-1.69,1.2-3.79,1.17-6.29-.57-.47-1.33-.91-2.28-1.32-.96-.4-1.85-.64-2.7-.7-2.89-.2-4.34,1.48-4.31,5.07.03,3.69,1.45,5.61,4.22,5.71,1.78.06,3.08-.77,3.9-2.47Z"/>
        <path class="cls-3" d="M238.89,49.45l3.86,25.6-6.39.98-3.47-24.79c-.31-2.22-.84-3.88-1.59-5-.75-1.11-1.67-1.65-2.76-1.61-1.34.05-2.25.96-2.72,2.75-.47,1.81-.55,4.02-.22,6.63l2.95,23.21-7.13,1.09-4.79-41.56,6.77-.07.25,1.99.27,4.42h.04c.34-2.49,1.01-4.36,1.99-5.61.97-1.23,2.23-1.85,3.77-1.86,4.75-.03,7.76,4.5,9.16,13.83Z"/>
        <path class="cls-3" d="M253.63,39.09l5.46.71,4.3,31.37c.74,5.39.53,9.59-.66,12.57-1.22,3.05-3.49,4.67-6.87,4.81-2.48.11-4.96-.45-7.43-1.68l-.58-8.78c.88.5,1.88.88,3,1.14,1.11.26,2.17.39,3.17.38,1.59-.02,2.68-.7,3.3-2.03.61-1.32.8-3,.59-5.03l-.51-5.43h-.11c-.26,2.23-.83,3.94-1.71,5.11-.89,1.19-2.02,1.78-3.38,1.77-2.57-.02-4.64-1.69-6.17-4.98-1.53-3.28-2.6-7.94-3.2-13.89l-.12-1.14c-.59-5.8-.47-10.08.35-12.9.81-2.77,2.44-3.97,4.9-3.64,1.29.17,2.51.87,3.67,2.1,1.15,1.22,2.1,2.89,2.87,4.99h.07s-.7-3.66-.7-3.66l-.22-1.78ZM255.88,63.01c.34-1.57.36-3.57.05-5.98l-.29-2.31c-.31-2.45-.83-4.54-1.57-6.3-.73-1.75-1.73-2.69-3-2.82-1.28-.14-2.06.61-2.33,2.24-.28,1.65-.26,3.85.05,6.6l.25,2.24c.3,2.64.78,4.73,1.43,6.26.66,1.54,1.64,2.33,2.96,2.38,1.28.05,2.09-.73,2.43-2.31Z"/>
        <path class="cls-3" d="M278.67,50.95l4.77,21.03-4.61.94-.55-2.53-.45-2.9h-.03c.03,4.41-1.06,6.88-3.32,7.35-1.89.39-3.57-.4-5.02-2.4-1.45-2-2.53-4.76-3.23-8.25-.68-3.37-.67-6.14.01-8.3.67-2.13,2.12-3.3,4.3-3.55,1.33-.15,2.65.14,3.97.84l-.56-2.54c-.34-1.53-.81-2.8-1.42-3.8-.61-1.01-1.37-1.47-2.3-1.39-.84.07-1.36.59-1.57,1.56-.21.98-.17,2.14.11,3.47l.05.23-4.78.49c-.67-3.54-.66-6.55.02-9.03.67-2.44,2.24-3.71,4.7-3.84,4.69-.24,7.93,3.91,9.91,12.61ZM276.1,64.08c.2-1.43.09-3.13-.32-5.11-.4-.3-.91-.55-1.52-.74-.61-.19-1.16-.26-1.66-.19-1.68.23-2.24,1.74-1.65,4.56.61,2.88,1.72,4.2,3.31,3.92,1.02-.18,1.63-.99,1.83-2.43Z"/>
      </g>
    </g>
  </g>
</svg>