<svg width="95" height="36" viewBox="0 0 95 36" fill="none" xmlns="http://www.w3.org/2000/svg">
<path d="M86.2835 9.61219C86.3577 9.61219 86.4319 9.62509 86.5062 9.63154C86.5481 9.63154 86.5869 9.62509 86.6288 9.62187C86.7515 9.61541 86.1673 9.60896 86.2867 9.61219H86.2835Z" fill="#221D1E"/>
<path d="M92.2541 16.5223C91.6829 14.067 90.7953 12.3022 89.5399 11.102C88.6297 10.2276 87.584 9.72755 86.5029 9.63076C85.8509 9.67915 85.2829 9.87919 84.8149 10.2147L81.7715 9.81144C81.3035 9.55978 80.8226 9.39846 80.3353 9.3307C80.1997 9.31135 80.0674 9.30167 79.9415 9.29521C78.9959 9.25972 78.2084 9.57591 77.621 10.2083C76.6786 9.27908 75.5652 8.76286 74.3936 8.72092C74.3355 8.72092 74.2742 8.72092 74.2129 8.72092C73.6803 8.72092 73.1898 8.83384 72.7444 9.04678L67.8452 9.07905L67.871 9.35974C67.1642 8.98548 66.3799 8.7435 65.5343 8.62413C65.2762 8.58864 65.0244 8.56928 64.7791 8.5596C63.756 8.52088 62.8459 8.7306 62.0842 9.17584L61.9616 5.76232L53.8511 5.1364L53.1056 8.06273L52.3826 5.02348L43.6944 4.35562L43.3846 9.4888C42.1614 8.29503 40.5703 7.54974 38.6274 7.25937C38.2272 7.19806 37.827 7.16257 37.4397 7.14644C35.1708 7.06256 33.1956 7.75623 31.5561 9.22423C31.3592 9.39846 31.172 9.58559 30.9881 9.77917C30.7525 8.08855 30.2651 6.66248 29.5228 5.46872C27.893 2.84567 25.0012 1.34863 20.8992 0.987274L10.2487 0L0.666504 36L15.5191 34.3997C20.1795 33.9416 23.7942 32.18 26.2631 29.2149C26.7666 28.6116 27.2281 27.9469 27.6542 27.2275C27.7155 27.3759 27.78 27.5243 27.851 27.6695C28.8257 29.7182 30.9203 32.1993 35.2644 32.2477H35.2805C38.0819 32.2735 40.3992 31.4056 42.1679 29.6827L41.8612 34.7643L51.4854 33.5996L51.6145 27.9405L54.2481 27.7469V29.9667L62.8169 29.173L62.8007 28.6826C63.5463 29.0697 64.3692 29.2794 65.2374 29.2923H65.3117C65.8216 29.2988 66.4832 29.2085 67.1642 28.8826L69.7009 28.902H69.7203L71.6342 28.5922L78.2762 27.5307L78.415 29.9021L80.4031 30.8991C81.4649 31.4314 82.5493 31.7089 83.6143 31.7218C83.7434 31.7218 83.8693 31.7218 83.9952 31.7154C85.8348 31.6282 87.1645 30.6507 87.8422 28.9084C88.0714 28.3212 88.2198 27.6598 88.2973 26.9306C88.7298 27.1081 89.1687 27.2049 89.6076 27.2146C89.8561 27.2178 90.1079 27.1952 90.3532 27.1436C90.7017 27.0694 91.1374 26.9048 91.5441 26.5531L94.4229 25.7949L92.2606 16.5288L92.2541 16.5223Z" fill="#DB1920"/>
<path d="M4.81377 32.0505L12.2433 3.00977L20.7927 3.78087C24.1008 4.06479 26.2632 5.1166 27.3896 6.94918C28.5127 8.78177 28.7903 11.6371 28.1996 15.6411L27.9834 17.1026C27.3605 21.3389 26.1147 24.6201 24.2073 26.8592C22.216 29.2048 19.2726 30.5986 15.2997 30.9696L4.81055 32.0505H4.81377ZM15.5998 25.1653C17.4846 25.0589 18.9402 24.4426 19.9826 23.3263C21.0025 22.2358 21.7383 20.3968 22.1934 17.8415L22.7195 14.9054C23.1487 12.5018 23.0648 10.8434 22.4742 9.87874C21.8836 8.91728 20.7637 8.38815 19.0854 8.29781L16.5293 8.15908L12.7274 25.3267L15.603 25.1653H15.5998Z" fill="#F4F4F4"/>
<path d="M43.0036 20.8036L34.309 20.1648C33.7765 22.9879 34.3413 24.472 35.9872 24.543C36.8135 24.5785 37.4493 24.372 37.8946 23.9268C38.3368 23.4848 38.6563 22.7911 38.8596 21.849L42.7809 22.1006C42.3937 24.2075 41.5803 25.8723 40.3152 27.0822C39.0113 28.3308 37.2814 28.9535 35.1158 28.9244C32.7824 28.8954 31.1493 27.9759 30.2779 26.1788C29.4065 24.3849 29.2936 22.0103 29.9165 19.1291L30.2424 17.6224C30.833 14.8864 31.8658 12.8699 33.3214 11.5439C34.7253 10.2598 36.4746 9.79198 38.553 10.0985C42.4711 10.676 44.0009 13.5055 43.2747 18.8646L43.0101 20.8069L43.0036 20.8036ZM36.0711 14.3347C35.5903 14.8316 35.2094 15.6769 34.9286 16.8739L39.5826 17.3256C39.7343 16.1705 39.6762 15.3123 39.4083 14.7348C39.1404 14.1605 38.6402 13.825 37.8914 13.7346C37.1523 13.6443 36.5456 13.8443 36.0711 14.3347Z" fill="#F4F4F4"/>
<path d="M48.81 30.5611L44.8726 31.0193L46.0893 7.30859L50.5076 7.63769L52.8895 18.0008L53.1186 19.1462H53.1606L53.3897 17.9944L55.8264 8.03453L59.5864 8.31523L60.0769 26.1991L56.9011 26.4798L56.8011 16.4199L56.814 14.2002H56.7946L56.5461 15.139L54.345 24.5439L51.7857 24.7214L49.5523 15.0519L49.3296 14.0453H49.2877L49.2586 16.4135L48.81 30.5611Z" fill="#F4F4F4"/>
<path d="M69.6654 17.1236L70.0043 25.7736L67.4094 25.7477L67.3836 24.6895L67.4514 23.5022H67.4352C66.977 25.2541 66.1088 26.1446 64.8243 26.1381C63.7431 26.1317 62.9136 25.6639 62.3424 24.7379C61.7744 23.8119 61.4968 22.6149 61.5097 21.1663C61.5226 19.7757 61.8389 18.6916 62.4553 17.9076C63.0589 17.1398 63.9658 16.8171 65.1696 16.9268C65.899 16.9913 66.5767 17.2204 67.2061 17.6108L67.1803 16.5816C67.1641 15.9621 67.048 15.433 66.8317 14.991C66.6155 14.549 66.2572 14.3038 65.7538 14.2457C65.2987 14.1941 64.963 14.3425 64.7468 14.6974C64.5306 15.0555 64.4208 15.504 64.4273 16.0428V16.1363L61.7969 15.8847C61.8292 14.4586 62.1713 13.3036 62.8136 12.4196C63.4397 11.5549 64.4208 11.2226 65.7376 11.4065C68.2453 11.7549 69.5234 13.623 69.6622 17.1236H69.6654ZM66.8898 21.9987C67.1512 21.4534 67.2771 20.7759 67.2674 19.9693C67.0835 19.8177 66.8382 19.6757 66.5316 19.5434C66.2217 19.4144 65.9345 19.3369 65.6602 19.3176C64.7274 19.253 64.2595 19.7951 64.2691 20.9533C64.2788 22.1439 64.7371 22.7633 65.6311 22.7956C66.2056 22.815 66.6252 22.5472 66.8898 21.9987Z" fill="#F4F4F4"/>
<path d="M77.7663 15.9543L79.012 24.2139L76.9497 24.5301L75.8298 16.5318C75.7298 15.8156 75.5587 15.28 75.3167 14.9187C75.0746 14.5605 74.7777 14.3863 74.4259 14.3992C73.9934 14.4153 73.6997 14.7089 73.548 15.2865C73.3963 15.8704 73.3705 16.5835 73.477 17.4256L74.4291 24.914L72.128 25.2657L70.582 11.8568L72.767 11.8342L72.8477 12.4763L72.9348 13.9023H72.9477C73.0575 13.099 73.2737 12.4956 73.59 12.0923C73.903 11.6955 74.3097 11.4955 74.8067 11.4922C76.3397 11.4826 77.3112 12.9441 77.763 15.9543H77.7663Z" fill="#F4F4F4"/>
<path d="M82.5234 12.6127L84.2855 12.8418L85.6733 22.963C85.9122 24.702 85.8444 26.0571 85.4603 27.0185C85.0666 28.0026 84.334 28.5253 83.2431 28.5704C82.4427 28.6059 81.6423 28.4253 80.8451 28.0284L80.6579 25.1956C80.9419 25.357 81.2647 25.4796 81.6262 25.5634C81.9844 25.6473 82.3265 25.6893 82.6492 25.6861C83.1624 25.6796 83.5142 25.4602 83.7143 25.0311C83.9112 24.6052 83.9725 24.0632 83.9047 23.4082L83.7401 21.6563H83.7046C83.6207 22.3758 83.4367 22.9275 83.1527 23.305C82.8655 23.6889 82.5008 23.8793 82.0619 23.876C81.2324 23.8696 80.5643 23.3308 80.0705 22.2693C79.5767 21.2111 79.2314 19.7076 79.0378 17.7879L78.999 17.4201C78.8086 15.5488 78.8473 14.1679 79.112 13.258C79.3734 12.3643 79.8995 11.9771 80.6934 12.0836C81.1098 12.1385 81.5035 12.3643 81.8779 12.7612C82.249 13.1548 82.5556 13.6936 82.8042 14.3711H82.8268L82.6008 13.1903L82.5298 12.616L82.5234 12.6127ZM83.2495 20.3303C83.3593 19.8237 83.3657 19.1784 83.2657 18.4009L83.1721 17.6556C83.072 16.8651 82.9042 16.1908 82.6654 15.623C82.4298 15.0583 82.107 14.7551 81.6972 14.7131C81.284 14.6679 81.0323 14.9099 80.9452 15.4358C80.8548 15.9682 80.8613 16.678 80.9613 17.5652L81.042 18.288C81.1388 19.1397 81.2937 19.814 81.5035 20.3077C81.7165 20.8045 82.0328 21.0594 82.4588 21.0755C82.8719 21.0917 83.1334 20.84 83.2431 20.3303H83.2495Z" fill="#F4F4F4"/>
<path d="M90.605 16.4382L92.1445 23.2232L90.6567 23.5265L90.4792 22.7102L90.3339 21.7746H90.3242C90.3339 23.1974 89.9821 23.9943 89.2528 24.146C88.6428 24.2718 88.1006 24.0169 87.6326 23.3717C87.1646 22.7264 86.8161 21.8359 86.5901 20.7099C86.3707 19.6226 86.3739 18.7289 86.5934 18.032C86.8096 17.3448 87.2776 16.9673 87.9811 16.8866C88.4104 16.8382 88.8364 16.9318 89.2624 17.1576L89.0817 16.3381C88.972 15.8445 88.8203 15.4347 88.6234 15.1121C88.4265 14.7862 88.1812 14.6378 87.8811 14.6636C87.61 14.6862 87.4422 14.854 87.3744 15.167C87.3066 15.4831 87.3195 15.8574 87.4099 16.2865L87.426 16.3607L85.8833 16.5188C85.6671 15.3767 85.6703 14.4055 85.8898 13.6054C86.106 12.8181 86.6127 12.4084 87.4067 12.3665C88.9203 12.289 89.966 13.628 90.605 16.4349V16.4382ZM89.7756 20.6744C89.8401 20.213 89.8046 19.6645 89.6723 19.0257C89.5432 18.9289 89.3786 18.8483 89.1817 18.787C88.9849 18.7257 88.8074 18.7031 88.646 18.7257C88.1038 18.7999 87.9231 19.287 88.1135 20.1969C88.3103 21.1261 88.6686 21.552 89.1817 21.4616C89.5109 21.4036 89.7078 21.1422 89.7724 20.6776L89.7756 20.6744Z" fill="#F4F4F4"/>
</svg>
