<?xml version="1.0" encoding="UTF-8"?>
<svg id="_レイヤー_2" data-name="レイヤー_2" xmlns="http://www.w3.org/2000/svg" viewBox="0 0 855.28 462.78">
  <g id="_レイヤー_1-2" data-name="レイヤー_1">
    <g>
      <g>
        <path d="M90.16,0v30.8h-19.74C12.16,30.8,0,74.4,0,105.78c0,22.98,7.01,42.94,19.6,56.12,10.82,11.36,25.34,17.33,41.98,17.33,11.35,0,20.71-2.07,28.58-6.19l.24,3.08h38.44V0h-38.68ZM36.77,104.74c0-14.87,4.18-40.08,32.12-42.06,3.75-.29,13.91-1.02,21.27-1.24v77.12c-5.15,3.46-12.97,6.03-21.86,6.25-8.71.16-16.37-2.49-21.37-7.28h0c-6.7-6.4-10.15-17.47-10.15-32.78Z"/>
        <path d="M229.31,145.12c-20.71-.38-31.9-11.35-35.36-30.96h93.27l.06-1.53c.16-13.2-.06-24.24-.43-29.11-1.48-16.56-7.52-30.49-17.39-40.13-11.06-10.9-26.44-16.44-45.67-16.44-22.32,0-40.66,8.25-53.19,23.81h0c-11.04,13.84-17.23,33.21-17.23,54.56,0,35.68,20.17,73.83,76.68,73.83,21.57,0,42.73-6.7,54.81-12.67v-35.73c-6.64,3.69-27.35,14.89-55.55,14.38ZM223.71,59.95c14.36,0,24.24,10.1,25.26,22.92h-54.28c3.89-14,13.56-22.92,29.01-22.92Z"/>
        <path d="M403.82,90.16v85.96h38.68v-91.7c0-38.38-17.76-57.1-54.22-57.1-12.53,0-26.3,4.71-31.68,6.64l-.14-3.16h-38.54v145.32h38.68v-108.78c8.33-5.31,21.37-7.45,31.74-5.03,10.4,2.43,15.49,8.99,15.49,27.85Z"/>
        <path d="M769.46,116.83V30.8h-38.68v91.77c0,38.38,17.68,57.01,54.22,57.01,12.53,0,26.38-4.64,31.61-6.62l.22,3.16h38.46V30.8h-38.67v108.85c-8.25,5.23-21.29,7.37-31.68,4.93-10.45-2.35-15.46-8.89-15.46-27.76Z"/>
        <path d="M475.12,0v126.11c0,17.38,3.02,29.54,9.5,38.14,7.59,10.1,19.96,15.05,37.72,15.05,14.35,0,28.21-3.18,36.16-5.68v-34.85c-4.93,1.32-20.26,4.58-29.09,4.58-5.68,0-9.59-1.18-12.08-3.61-3.54-3.54-3.54-9.67-3.54-15.56v-61.43c15.25,0,34.18,1.1,44.71,2.22V30.8h-44.71V0h-38.67Z"/>
        <path d="M697.94,105.63c-7.74-10.68-19.6-16.22-41.48-20.27-9.13-1.77-19.8-3.62-25.99-7-3.03-1.69-4.66-3.97-4.5-6.56,0-2.58,1.69-4.93,4.26-6.24,5.67-3.02,15.91-4.58,31.39-1.85,14.94,2.79,31.36,8.55,36.61,10.74v-35.13c-17.91-8.9-33.82-12.38-51.71-12.07-16.58.28-31.02,4.64-41.63,12.59-11.11,8.3-17.38,20.33-18.03,34.76-1.12,24,14.06,38.45,48.91,45.29,7.29,1.4,17.74,3.54,22.31,5.38,4.55,1.83,7.15,4.86,7.21,8.26,0,3.24-2.28,6.26-5.89,7.79-6.54,2.74-17.09,2.29-23.93,1.63-19.98-1.98-38.97-9.05-45.97-12.23v36.1c11.79,6.03,30.4,12.89,52.45,12.51,25.34-.44,56.7-7.96,62.46-41.32,2.06-12.37-.16-23.64-6.48-32.41Z"/>
      </g>
      <g>
        <path d="M152.06,282.64v133.99c0,14.78-3.81,25.94-11.43,33.49-7.63,7.54-17.84,11.31-30.64,11.31-3.05,0-7.07-.3-12.07-.9-4.99-.6-9.16-1.36-12.52-2.26v-23.85s5.51,1.82,9.78,2.83c3.67.87,7.15,1.42,10.58,1.42,5.49,0,9.91-.75,13.26-2.26,3.35-1.51,5.87-3.77,7.55-6.79,1.68-3.02,2.76-6.66,3.26-10.92.49-4.26.74-9.45.74-15.55v-120.5h21.49ZM153.44,241.52v22.06h-24.24v-22.06h24.24Z"/>
        <path d="M295.65,428.03h-21.51v-2.36c-3.91,1.56-14.04,5.87-32.4,5.87-8.69,0-27.49-1.65-40.62-14.13-6.37-6.06-14.12-17.95-14.12-33.27,0-12.55,2.08-18.93,6.23-26.69,4.15-7.76,10.49-14.48,18.14-19.02,19.39-11.48,44.46-11.31,58.08-11.31h4.69v-5.29c0-4.83-.86-8.82-2.57-11.99-1.72-3.17-4.17-5.66-7.37-7.47-3.05-1.73-6.71-2.9-10.98-3.5-4.27-.6-8.73-.9-13.38-.9-5.64,0-13.53.94-20.55,2.43-11.05,2.35-20.96,5.63-20.96,5.63v-21.07c4.19-1.13,10.25-2.38,18.18-3.73,7.93-1.36,15.74-2.04,23.44-2.04,8.99,0,16.95.74,23.62,2.2,6.67,1.47,12.44,3.98,17.32,7.52,4.8,3.47,8.46,7.96,10.98,13.46,2.52,5.51,3.77,12.33,3.77,20.48v105.18ZM274.14,345.36c-6.93,0-17.16-.11-25.31.75-9.31.98-15.02,2.02-21.81,5.44-5.91,2.97-17.82,11.44-17.82,28.61,0,22.99,17.87,29.72,26.88,30.85,15.9,1.99,32.74-3.12,38.08-8.54v-57.11Z"/>
        <path d="M449.46,353.92c0,21.65-5.24,41.29-16.54,55.09-11.78,14.39-27.1,22.26-49.14,22.26-6.63,0-18.95-1.64-26.49-3.24v34.75h-21.5v-180.13h21.5v3.19c13.82-5.74,25.99-6.71,34.07-6.71,18.62,0,35.44,8.05,44.66,21.26,9.53,13.65,13.43,28.09,13.43,53.53h0ZM427.09,352.88c0-18.96-2.4-27.4-7.71-36.76-6.37-11.24-19.85-15.28-30.75-15.28-13.88,0-24.14,3.32-31.34,6.26v99.88c7.63,1.7,22.28,2.77,30.91,1.67,9.97-1.26,18.11-3.45,26.11-12.37,8.35-9.32,12.78-23.88,12.78-43.41Z"/>
        <path d="M584.79,428.03h-21.51v-2.36c-3.91,1.56-14.04,5.87-32.4,5.87-8.69,0-27.49-1.65-40.62-14.13-6.37-6.06-14.12-17.95-14.12-33.27,0-12.55,2.08-18.93,6.23-26.69,4.15-7.76,10.49-14.48,18.14-19.02,19.39-11.48,44.46-11.31,58.08-11.31h4.69v-5.29c0-4.83-.86-8.82-2.57-11.99-1.72-3.17-4.17-5.66-7.37-7.47-3.05-1.73-6.71-2.9-10.98-3.5-4.27-.6-8.73-.9-13.38-.9-5.64,0-13.53.94-20.55,2.43-11.05,2.35-20.96,5.63-20.96,5.63v-21.07c4.19-1.13,10.25-2.38,18.18-3.73,7.93-1.36,15.74-2.04,23.44-2.04,8.99,0,16.95.74,23.62,2.2,6.67,1.47,12.44,3.98,17.32,7.52,4.8,3.47,8.46,7.96,10.98,13.46,2.52,5.51,3.77,12.33,3.77,20.48v105.18ZM563.28,345.36c-6.93,0-17.16-.11-25.31.75-9.31.98-15.02,2.02-21.81,5.44-5.91,2.97-17.82,11.44-17.82,28.61,0,22.99,17.87,29.72,26.88,30.85,15.9,1.99,32.74-3.12,38.08-8.54v-57.11Z"/>
        <path d="M677.14,279.12c29.64,0,54.08,16.12,54.08,57.77v91.14h-21.5v-73.99c0-19.04-.43-33.82-8.38-42.91-7.61-8.7-16.67-11.41-29.56-10.8-9.66.46-20.29,4.23-25.26,6.44v121.26h-21.5v-145.39h21.5v3.25c5.47-2.65,16.93-6.77,30.61-6.77h0Z"/>
      </g>
    </g>
  </g>
</svg>