<svg width="89" height="49" viewBox="0 0 89 49" fill="none" xmlns="http://www.w3.org/2000/svg">
<path d="M9.94309 0.571289V3.7659H7.91204C1.91765 3.7659 0.666504 8.28813 0.666504 11.5429C0.666504 13.9264 1.38776 15.9967 2.68315 17.3637C3.79643 18.542 5.29039 19.1612 7.00249 19.1612C8.17029 19.1612 9.13334 18.9465 9.94309 18.5192L9.96778 18.8386H13.9229V0.571289H9.94309ZM4.44978 11.435C4.44978 9.89269 4.87986 7.27789 7.75461 7.07252C8.14045 7.04244 9.18582 6.96672 9.94309 6.94391V14.9429C9.41321 15.3017 8.6086 15.5683 7.69391 15.5911C6.79774 15.6077 6.0096 15.3329 5.49514 14.836C4.80578 14.1722 4.45081 13.024 4.45081 11.4361L4.44978 11.435Z" fill="black"/>
<path d="M24.2603 15.6229C22.1294 15.5835 20.9781 14.4457 20.6221 12.4117H30.2186L30.2248 12.253C30.2413 10.8839 30.2186 9.73883 30.1806 9.23371C30.0283 7.51609 29.4068 6.07125 28.3913 5.07138C27.2533 3.94083 25.6709 3.36621 23.6923 3.36621C21.3958 3.36621 19.5088 4.22191 18.2196 5.83581C17.0837 7.27131 16.4468 9.28038 16.4468 11.4948C16.4468 15.1956 18.5221 19.1525 24.3364 19.1525C26.5557 19.1525 28.7329 18.4576 29.9758 17.8384V14.1324C29.2926 14.5152 27.1618 15.6769 24.2603 15.624V15.6229ZM23.6841 6.789C25.1616 6.789 26.1781 7.83659 26.2831 9.16629H20.6982C21.0984 7.71419 22.0934 6.789 23.6831 6.789H23.6841Z" fill="black"/>
<path d="M42.2157 9.9231V18.839H46.1955V9.32774C46.1955 5.34693 44.3682 3.40527 40.6168 3.40527C39.3276 3.40527 37.9108 3.8938 37.3572 4.09398L37.3428 3.76622H33.3774V18.839H37.3572V7.55619C38.2143 7.00543 39.556 6.78347 40.623 7.03447C41.693 7.28651 42.2167 7.96692 42.2167 9.9231H42.2157Z" fill="black"/>
<path d="M79.8365 12.6887V3.76562H75.8567V13.2841C75.8567 17.2649 77.6758 19.1972 81.4354 19.1972C82.7246 19.1972 84.1496 18.716 84.6878 18.5106L84.7104 18.8384H88.6676V3.76562H84.6888V15.0557C83.8399 15.5981 82.4983 15.8201 81.4292 15.567C80.354 15.3233 79.8385 14.6449 79.8385 12.6877L79.8365 12.6887Z" fill="black"/>
<path d="M49.5518 0.571289V13.6515C49.5518 15.4542 49.8625 16.7155 50.5292 17.6075C51.3102 18.655 52.5829 19.1685 54.4102 19.1685C55.8867 19.1685 57.3128 18.8386 58.1307 18.5793V14.9647C57.6235 15.1016 56.0462 15.4397 55.1377 15.4397C54.5533 15.4397 54.151 15.3173 53.8948 15.0653C53.5305 14.6981 53.5305 14.0623 53.5305 13.4514V7.07978C55.0996 7.07978 57.0473 7.19387 58.1307 7.31004V3.7659H53.5305V0.571289H49.5518Z" fill="black"/>
<path d="M72.4777 11.5271C71.6813 10.4194 70.4611 9.84477 68.2098 9.4247C67.2704 9.24111 66.1726 9.04923 65.5357 8.69865C65.2239 8.52336 65.0562 8.28688 65.0727 8.01824C65.0727 7.75064 65.2466 7.50689 65.511 7.37102C66.0944 7.05778 67.148 6.89598 68.7407 7.17914C70.2779 7.46852 71.9674 8.06595 72.5075 8.2931V4.64938C70.6648 3.72626 69.0278 3.36532 67.1871 3.39747C65.4812 3.42651 63.9954 3.87873 62.9038 4.70332C61.7607 5.5642 61.1155 6.81196 61.0486 8.30866C60.9334 10.798 62.4953 12.2967 66.081 13.0062C66.8311 13.1514 67.9063 13.3734 68.3765 13.5642C68.8446 13.754 69.1122 14.0683 69.1183 14.4209C69.1183 14.757 68.8837 15.0702 68.5123 15.2289C67.8394 15.5131 66.7539 15.4664 66.0501 15.398C63.9944 15.1926 62.0405 14.4593 61.3203 14.1295V17.8738C62.5334 18.4992 64.4481 19.2108 66.7169 19.1714C69.3241 19.1257 72.5508 18.3457 73.1434 14.8856C73.3554 13.6026 73.1269 12.4336 72.4767 11.524L72.4777 11.5271Z" fill="black"/>
<path d="M16.3118 29.8871V43.7847C16.3118 45.3176 15.9198 46.4752 15.1358 47.2583C14.3507 48.0403 13.3002 48.4314 11.9832 48.4314C11.6694 48.4314 11.2558 48.4002 10.7413 48.338C10.2279 48.2758 9.79884 48.1969 9.45312 48.1036V45.6299C9.45312 45.6299 10.0201 45.8186 10.4594 45.9234C10.837 46.0136 11.1951 46.0707 11.548 46.0707C12.1128 46.0707 12.5676 45.9929 12.9123 45.8363C13.257 45.6796 13.5163 45.4452 13.6891 45.132C13.862 44.8188 13.9731 44.4412 14.0245 43.9994C14.075 43.5575 14.1007 43.0192 14.1007 42.3865V29.8881H16.3118V29.8871ZM16.4538 25.6221V27.9102H13.9597V25.6221H16.4538Z" fill="black"/>
<path d="M31.0858 44.9671H28.8726V44.7223C28.4703 44.8842 27.428 45.3312 25.539 45.3312C24.6448 45.3312 22.7105 45.16 21.3595 43.8656C20.7041 43.2371 19.9067 42.0038 19.9067 40.4148C19.9067 39.1131 20.1207 38.4514 20.5477 37.6465C20.9747 36.8416 21.6271 36.1446 22.4142 35.6737C24.4092 34.483 26.9887 34.5006 28.39 34.5006H28.8726V33.952C28.8726 33.451 28.7841 33.0371 28.6082 32.7083C28.4312 32.3795 28.1791 32.1213 27.8499 31.9335C27.5361 31.7541 27.1595 31.6328 26.7201 31.5705C26.2808 31.5083 25.8219 31.4772 25.3435 31.4772C24.7632 31.4772 23.9514 31.5747 23.2291 31.7292C22.0921 31.973 21.0725 32.3132 21.0725 32.3132V30.1278C21.5036 30.0106 22.1271 29.8809 22.943 29.7409C23.7589 29.5998 24.5625 29.5293 25.3548 29.5293C26.2798 29.5293 27.0988 29.6061 27.785 29.7575C28.4713 29.91 29.065 30.1703 29.5671 30.5375C30.061 30.8974 30.4376 31.3631 30.6968 31.9335C30.9561 32.5051 31.0847 33.2124 31.0847 34.0578V44.9671H31.0858ZM28.8726 36.3925C28.1596 36.3925 27.107 36.3811 26.2684 36.4703C25.3105 36.5719 24.723 36.6798 24.0244 37.0345C23.4163 37.3426 22.1909 38.2211 22.1909 40.002C22.1909 42.3865 24.0296 43.0846 24.9566 43.2018C26.5925 43.4082 28.3252 42.8782 28.8747 42.316V36.3925H28.8726Z" fill="black"/>
<path d="M46.9114 37.2807C46.9114 39.5263 46.3722 41.5634 45.2096 42.9947C43.9975 44.4873 42.4212 45.3035 40.1535 45.3035C39.4714 45.3035 38.2038 45.1334 37.428 44.9675V48.5718H35.2158V29.8885H37.428V30.2194C38.8499 29.624 40.1021 29.5234 40.9334 29.5234C42.8492 29.5234 44.5799 30.3584 45.5285 31.7285C46.5091 33.1443 46.9103 34.6421 46.9103 37.2807H46.9114ZM44.6097 37.1729C44.6097 35.2063 44.3628 34.3309 43.8164 33.3601C43.161 32.1943 41.774 31.7752 40.6525 31.7752C39.2244 31.7752 38.1688 32.1196 37.428 32.4245V42.7842C38.213 42.9605 39.7204 43.0715 40.6083 42.9574C41.6341 42.8267 42.4716 42.5995 43.2948 41.6744C44.1539 40.7077 44.6097 39.1975 44.6097 37.1718V37.1729Z" fill="black"/>
<path d="M60.8355 44.9671H58.6224V44.7223C58.2201 44.8842 57.1778 45.3312 55.2887 45.3312C54.3946 45.3312 52.4603 45.16 51.1093 43.8656C50.4539 43.2371 49.6565 42.0038 49.6565 40.4148C49.6565 39.1131 49.8705 38.4514 50.2975 37.6465C50.7245 36.8416 51.3768 36.1446 52.1639 35.6737C54.159 34.483 56.7384 34.5006 58.1398 34.5006H58.6224V33.952C58.6224 33.451 58.5339 33.0371 58.3579 32.7083C58.181 32.3795 57.9289 32.1213 57.5996 31.9335C57.2858 31.7541 56.9092 31.6328 56.4699 31.5705C56.0305 31.5083 55.5717 31.4772 55.0932 31.4772C54.5129 31.4772 53.7011 31.5747 52.9788 31.7292C51.8419 31.973 50.8222 32.3132 50.8222 32.3132V30.1278C51.2533 30.0106 51.8769 29.8809 52.6928 29.7409C53.5087 29.5998 54.3123 29.5293 55.1045 29.5293C56.0295 29.5293 56.8485 29.6061 57.5348 29.7575C58.2211 29.91 58.8148 30.1703 59.3169 30.5375C59.8107 30.8974 60.1873 31.3631 60.4466 31.9335C60.7059 32.5051 60.8345 33.2124 60.8345 34.0578V44.9671H60.8355ZM58.6224 36.3925C57.9093 36.3925 56.8568 36.3811 56.0182 36.4703C55.0603 36.5719 54.4728 36.6798 53.7742 37.0345C53.1661 37.3426 51.9407 38.2211 51.9407 40.002C51.9407 42.3865 53.7793 43.0846 54.7063 43.2018C56.3423 43.4082 58.075 42.8782 58.6244 42.316V36.3925H58.6224Z" fill="black"/>
<path d="M70.3375 29.5225C73.3872 29.5225 75.9018 31.1944 75.9018 35.5144V44.9676H73.6897V37.2932C73.6897 35.3184 73.6454 33.7854 72.8274 32.8426C72.0444 31.9402 71.1123 31.6591 69.786 31.7224C68.7921 31.7701 67.6984 32.1611 67.187 32.3903V44.9676H64.9749V29.8876H67.187V30.2247C67.7498 29.9498 68.9289 29.5225 70.3365 29.5225H70.3375Z" fill="black"/>
</svg>
