<svg width="172" height="41" viewBox="0 0 172 41" fill="none" xmlns="http://www.w3.org/2000/svg">
<g clip-path="url(#clip0_9139_81723)">
<path d="M169.03 29.674C167.526 29.674 166.373 29.2609 165.571 28.4346C164.769 27.6082 164.368 26.434 164.368 24.9113V19.5402H162.2V18.0252L164.368 17.5318V14.6282C165.808 14.204 167.25 15.2839 167.25 16.7858V25.0145C167.25 25.7948 167.434 26.4223 167.802 26.8967C168.17 27.371 168.65 27.6082 169.243 27.6082C169.519 27.6082 169.807 27.5852 170.108 27.5394C170.417 27.4859 170.789 27.3941 171.223 27.264L171.875 29.1001C171.248 29.2915 170.718 29.4329 170.283 29.5249C169.857 29.624 169.44 29.674 169.03 29.674ZM170.484 19.5402C170.033 19.5402 169.653 19.4408 169.343 19.2417C169.034 19.035 168.779 18.7787 168.579 18.4727C168.387 18.1667 168.236 17.853 168.128 17.5318H171.724V19.5402H170.484Z" fill="black"/>
<path d="M156.971 29.6737C155.918 29.6737 154.99 29.4977 154.188 29.1457C153.386 28.7937 152.718 28.3193 152.183 27.7227C151.649 27.1259 151.247 26.4488 150.98 25.6912C150.713 24.9261 150.579 24.1303 150.579 23.3041C150.579 22.0494 150.855 20.9706 151.406 20.0677C151.958 19.165 152.714 18.4723 153.675 17.9904C154.644 17.5008 155.742 17.2559 156.971 17.2559C157.873 17.2559 158.684 17.4281 159.402 17.7724C160.12 18.1089 160.705 18.5797 161.156 19.1841C161.608 19.7808 161.883 20.481 161.984 21.2843C162.092 22.0877 161.979 22.9485 161.645 23.8667H154.527C154.702 23.3771 154.957 22.9638 155.291 22.6273C155.634 22.2905 156.056 22.1224 156.557 22.1224H159.151C159.218 21.6097 159.16 21.1354 158.976 20.6993C158.801 20.2632 158.52 19.9151 158.136 19.6549C157.752 19.3947 157.296 19.2646 156.77 19.2646C156.218 19.2646 155.701 19.4099 155.216 19.7006C154.732 19.9836 154.339 20.4199 154.038 21.0089C153.746 21.5981 153.599 22.344 153.599 23.2467C153.599 24.1341 153.754 24.9031 154.063 25.5536C154.381 26.2039 154.819 26.7051 155.379 27.0571C155.939 27.4092 156.582 27.5851 157.309 27.5851C157.886 27.5851 158.445 27.5237 158.988 27.4014C159.54 27.2713 160.175 27.0494 160.893 26.7359L161.67 28.6411C160.81 29.0237 159.987 29.2914 159.201 29.4445C158.424 29.5971 157.681 29.6737 156.971 29.6737Z" fill="black"/>
<path d="M146.018 29.3986V12C147.686 12 149.038 13.3532 149.038 15.0226V29.3986H146.018Z" fill="black"/>
<path d="M140.717 29.3986V12C142.385 12 143.737 13.3532 143.737 15.0223V29.3986H140.717Z" fill="black"/>
<path d="M131.878 29.6743C131.051 29.6743 130.337 29.5211 129.735 29.2154C129.134 28.9015 128.67 28.4885 128.344 27.9758C128.027 27.4554 127.868 26.8931 127.868 26.2886C127.868 25.6001 128.077 24.9843 128.495 24.4408C128.921 23.8899 129.635 23.4347 130.638 23.0752C131.64 22.7157 133.015 22.463 134.761 22.3179C134.711 22.6086 134.623 22.8954 134.498 23.1787C134.372 23.4619 134.189 23.7066 133.946 23.9132C133.712 24.1121 133.403 24.2422 133.019 24.3035C132.476 24.3801 132.05 24.5063 131.74 24.6822C131.432 24.8581 131.21 25.0647 131.076 25.3019C130.951 25.5391 130.889 25.7876 130.889 26.0479C130.889 26.4764 131.051 26.8398 131.377 27.1381C131.712 27.4366 132.133 27.5858 132.643 27.5858C133.161 27.5858 133.679 27.4443 134.197 27.1611C134.723 26.8704 135.212 26.4687 135.663 25.956V22.1686C135.663 21.327 135.421 20.6537 134.936 20.1488C134.46 19.6362 133.733 19.3799 132.756 19.3799C132.33 19.3799 131.883 19.422 131.415 19.5061C130.955 19.5826 130.425 19.7202 129.823 19.9192C129.394 18.8786 130.034 17.7068 131.141 17.5063C131.203 17.4949 131.265 17.4844 131.327 17.4746C132.054 17.3523 132.705 17.291 133.282 17.291C134.995 17.291 136.315 17.7196 137.242 18.5765C138.178 19.4256 138.646 20.6462 138.646 22.2374V26.105C138.646 26.7172 138.679 27.2987 138.746 27.8493C138.813 28.3925 138.913 28.909 139.047 29.3986H136.804C136.578 29.2763 136.394 29.1118 136.252 28.9051C136.11 28.6985 135.989 28.4766 135.889 28.2394L135.839 27.8033L135.538 28.205C134.836 28.8094 134.205 29.2071 133.646 29.3986C133.094 29.5826 132.505 29.6743 131.878 29.6743Z" fill="black"/>
<path d="M108.346 29.3989L103.283 12.7119H103.985C105.384 12.7119 106.61 13.647 106.982 14.9969L109.862 25.4626L110.062 26.679L110.338 25.4626L113.835 12.9416H114.398C116.079 12.9416 117.552 14.0656 117.997 15.6871L120.678 25.4626L120.928 26.679L121.129 25.5083L124.638 12.7119C126.129 12.7119 127.198 14.1522 126.767 15.5811L122.595 29.3989H119.336L115.715 16.8436L115.502 15.891L115.301 16.8092L111.679 29.3989H108.346Z" fill="black"/>
<path d="M91.7042 29.2584L80.8013 12.5713H82.5629C83.6444 12.5713 84.6448 13.1469 85.1884 14.0829L87.6312 18.2867L87.8693 18.9408L88.0697 18.2867L91.4033 12.5713H94.8497L89.4484 20.7312L95.138 29.2584H91.7042ZM80.5129 29.2584L85.4882 21.7526C85.6969 22.005 85.9059 22.3379 86.1146 22.7509C86.3236 23.1565 86.4572 23.5887 86.5157 24.0478C86.5742 24.5069 86.478 24.943 86.2274 25.3561L83.8591 29.2581L80.5129 29.2584Z" fill="black"/>
<path d="M71.614 29.7192C69.8259 29.7192 68.2718 29.3517 66.9519 28.6172C65.6318 27.8826 64.6085 26.8651 63.8816 25.5643C63.1547 24.2561 62.7913 22.7487 62.7913 21.0426C62.7913 19.7419 63.0128 18.5598 63.4556 17.4963C63.8982 16.4327 64.5166 15.5184 65.3103 14.7533C66.104 13.9882 67.0356 13.399 68.1051 12.9859C69.1829 12.5729 70.3526 12.3662 71.6143 12.3662C73.1432 12.3662 74.4633 12.6112 75.5742 13.1008C76.6857 13.5904 77.6005 14.2523 78.3188 15.0862C79.0374 15.9126 79.5679 16.8422 79.9105 17.8749C80.2614 18.9002 80.437 19.956 80.437 21.0423C80.437 22.2435 80.228 23.3684 79.8103 24.4164C79.3926 25.4647 78.795 26.3866 78.0182 27.1822C77.241 27.9778 76.314 28.6014 75.2362 29.0527C74.1581 29.4972 72.9504 29.7192 71.614 29.7192ZM71.614 27.6304C72.6332 27.6304 73.5606 27.3589 74.3962 26.8157C75.2316 26.2725 75.8957 25.5074 76.3888 24.5204C76.8816 23.526 77.128 22.3667 77.128 21.0432C77.128 19.7502 76.8941 18.61 76.4262 17.623C75.9665 16.6286 75.3233 15.8557 74.4962 15.3048C73.6691 14.7464 72.7083 14.467 71.614 14.467C70.4942 14.467 69.5209 14.7538 68.6938 15.3278C67.8667 15.9017 67.2277 16.686 66.7764 17.6805C66.3338 18.6752 66.1123 19.796 66.1123 21.0432C66.1123 21.9306 66.2376 22.7722 66.488 23.5681C66.7387 24.3562 67.1021 25.0561 67.5783 25.6684C68.0546 26.2806 68.6313 26.7624 69.3079 27.1145C69.9932 27.4582 70.7617 27.6304 71.614 27.6304Z" fill="black"/>
<path d="M50.8201 29.3989V17.6747C50.8201 14.9339 53.0405 12.7119 55.7793 12.7119H61.5351C61.5351 14.325 60.2284 15.633 58.6161 15.633H56.8591C55.2474 15.633 53.9404 16.9407 53.9404 18.5541V29.3991H50.8201V29.3989ZM54.8931 21.6638C55.0016 21.35 55.1521 21.0363 55.3439 20.7228C55.5443 20.4016 55.7996 20.1375 56.1085 19.9308C56.426 19.7241 56.8106 19.621 57.2614 19.621H60.6829V21.6638H54.8931Z" fill="black"/>
<path d="M39.9709 20.5713C39.9709 9.52559 31.0231 0.571289 19.9855 0.571289C8.9478 0.571289 0 9.52559 0 20.5713C0 31.617 8.9478 40.5713 19.9855 40.5713C31.0231 40.5713 39.9709 31.617 39.9709 20.5713Z" fill="black"/>
<path fill-rule="evenodd" clip-rule="evenodd" d="M25.637 10.1699C23.9807 9.29238 22.7234 7.75095 22.227 5.89844C22.0739 6.46487 21.995 7.05915 21.995 7.67201C21.995 8.15024 22.046 8.61452 22.1388 9.06487C22.1388 9.06487 22.1388 9.06487 22.1388 9.06952C22.1388 9.07415 22.1435 9.08344 22.1435 9.0881C22.2687 9.69167 22.4729 10.2627 22.7466 10.792C22.162 10.3602 21.6424 9.84487 21.2063 9.26452C20.6217 13.8006 22.2687 18.5224 25.2798 21.6331C29.2094 26.211 25.586 33.9784 19.4618 33.7741C10.7953 33.8484 9.31063 21.076 17.6246 19.0702L17.62 19.047C19.8376 18.3274 20.8769 16.8835 21.0578 15.0078C17.8566 17.6031 12.7995 14.3856 13.8481 10.3556C1.83178 16.2752 6.29496 35.4781 19.9165 35.2413C25.8504 35.2413 30.8702 31.3136 32.5173 25.9138C34.4845 19.6181 31.3019 12.9092 25.637 10.1699Z" fill="#12FE74"/>
</g>
<defs>
<clipPath id="clip0_9139_81723">
<rect width="171.875" height="40" fill="white" transform="translate(0 0.571289)"/>
</clipPath>
</defs>
</svg>
