<svg width="121" height="28" viewBox="0 0 121 28" fill="none" xmlns="http://www.w3.org/2000/svg">
<path d="M14.329 21.6222C10.0526 21.6222 6.67035 18.2 6.67035 13.9611C6.67035 9.72222 10.0915 6.3 14.329 6.3V0C6.5926 0 0.333496 6.26111 0.333496 14C0.333496 21.7389 6.5926 28 14.329 28C22.0654 28 28.3245 21.7389 28.3245 14H22.0654C21.9876 18.2 18.5665 21.6222 14.329 21.6222Z" fill="#0068FF"/>
<path d="M44.0315 12.6212V17.249H51.1459V17.3657C49.9019 20.2823 47.0639 22.149 43.9538 22.149C40.8437 22.149 36.2174 18.6879 36.2174 14.4101C36.2174 10.1323 39.6774 6.67122 43.9538 6.67122C48.2302 6.67122 48.6967 7.83789 50.174 9.78234H55.85C53.945 4.88234 49.241 1.65456 43.9927 1.65456C38.7444 1.65456 31.2412 7.37122 31.2412 14.4101C31.2412 21.449 36.956 27.1657 43.9927 27.1657C51.0293 27.1657 50.6017 25.8434 52.9731 23.4323C55.3834 21.0212 56.7052 17.8323 56.7052 14.4101C56.7052 10.9879 56.7052 13.2046 56.5886 12.6601H44.0704L44.0315 12.6212ZM120.89 16.6268C120.968 16.1212 120.968 15.6157 120.968 15.1101C120.968 9.00456 116.069 4.06567 109.966 4.06567C103.862 4.06567 98.925 9.00456 98.925 15.1101C98.925 21.2157 103.862 26.1546 109.966 26.1546C116.069 26.1546 118.791 23.1212 120.346 18.8823H115.37C114.165 20.5934 112.221 21.6823 109.966 21.6823C107.711 21.6823 104.251 19.5046 103.551 16.5879H120.89V16.6268ZM103.901 12.5046C104.912 10.1712 107.245 8.53789 109.927 8.53789C112.61 8.53789 114.942 10.1712 115.953 12.5046H103.862H103.901ZM76.6488 6.16567C74.7828 4.68789 72.4113 3.79345 69.8455 3.79345C63.7419 3.79345 58.8046 8.73234 58.8046 14.8379C58.8046 20.9434 63.7419 25.8823 69.8455 25.8823C75.9491 25.8823 74.7828 24.9879 76.6488 23.5101V25.6879H81.1585V4.76567H76.6488V6.16567ZM69.8455 21.3712C66.2688 21.3712 63.3531 18.4546 63.3531 14.8768C63.3531 11.299 66.2688 8.38234 69.8455 8.38234C73.4221 8.38234 76.3378 11.299 76.3378 14.8768C76.3378 18.4546 73.4221 21.3712 69.8455 21.3712ZM91.4607 0.837891H86.5623V4.76567H84.2686V9.27678H86.5623V19.4268C86.5623 23.0046 89.478 25.9601 93.0935 25.9601H97.2144V21.1379H93.2102C92.2771 21.1379 91.4996 20.3601 91.4996 19.4268V9.27678H97.2144V4.76567H91.4996V0.837891H91.4607Z" fill="#14141E"/>
<path d="M31.7863 1.2207H20.6621V10.1587H31.7863V1.2207Z" fill="#17E6A1"/>
</svg>
