<svg width="64" height="64" viewBox="0 0 64 64" fill="none" xmlns="http://www.w3.org/2000/svg">
<path fill-rule="evenodd" clip-rule="evenodd" d="M43.327 11.3765L56 18.593V33.3528L44.5863 40.0108V45.2354L31.9219 52.6231L19.2574 45.2354V39.7632L8 33.1964V18.5929L20.6645 11.3812L32.1282 17.9091L43.327 11.3765ZM22.0717 39.7631V43.619L31.9219 49.3649L41.772 43.619V39.8284L31.8659 34.0498L22.0717 39.7631ZM44.5863 36.7526L53.1857 31.7363V20.229L43.344 14.6247L33.4853 20.3756V24.1662L44.5863 30.6418V36.7526ZM33.4853 27.4243L41.772 32.2582V36.5702L33.4853 31.7363V27.4243ZM30.5147 27.3332V31.5799L22.0717 36.505V32.2582L30.5147 27.3332ZM30.5147 24.075L19.2574 30.6418V36.505L10.8143 31.5799V20.229L20.6645 14.6199L30.5147 20.229V24.075Z" fill="#11A796"/>
</svg>
