<svg width="249" height="33" viewBox="0 0 249 33" fill="none" xmlns="http://www.w3.org/2000/svg">
<path d="M58.2803 17.6549H64.7603V25.4278C63.7974 26.1285 62.7694 26.6433 61.6808 26.9677C60.5921 27.2921 59.4383 27.4521 58.2282 27.4521C56.6755 27.4521 55.2702 27.2099 54.0123 26.7298C52.7545 26.2496 51.6789 25.5835 50.7854 24.7271C49.8919 23.8706 49.2022 22.8541 48.7165 21.6776C48.2307 20.5011 47.9878 19.2164 47.9878 17.8236C47.9878 16.4308 48.222 15.1201 48.6861 13.9436C49.1502 12.7671 49.8095 11.7549 50.6683 10.9071C51.5271 10.0593 52.568 9.39752 53.7868 8.92171C55.0056 8.44591 56.3719 8.20801 57.8812 8.20801C58.662 8.20801 59.3906 8.27289 60.0673 8.394C60.7439 8.51944 61.3685 8.69246 61.941 8.91306C62.5135 9.13366 63.0383 9.39752 63.5154 9.69598C63.9925 9.99876 64.4263 10.3318 64.8166 10.6952L63.6846 12.434C63.5111 12.7108 63.2856 12.8795 63.008 12.9401C62.7304 13.0007 62.4268 12.9314 62.0971 12.7325C61.7848 12.5422 61.4812 12.3735 61.182 12.2177C60.8827 12.0663 60.5661 11.9366 60.2234 11.8198C59.8851 11.7073 59.5164 11.6208 59.1174 11.5603C58.7184 11.4997 58.2586 11.4694 57.7381 11.4694C56.862 11.4694 56.0682 11.6208 55.3569 11.9236C54.6456 12.2264 54.0384 12.6546 53.5396 13.2083C53.0408 13.7619 52.6548 14.4281 52.3858 15.2067C52.1169 15.9852 51.9825 16.8547 51.9825 17.8149C51.9825 18.853 52.1299 19.7787 52.4249 20.5962C52.7198 21.4137 53.1362 22.1058 53.674 22.6681C54.2119 23.2304 54.8538 23.6587 55.6085 23.9528C56.3588 24.2469 57.1916 24.394 58.1111 24.394C58.7357 24.394 59.2909 24.3291 59.781 24.2037C60.2711 24.0782 60.7482 23.9052 61.2167 23.6889V20.5227H59.0827C58.8311 20.5227 58.6316 20.4578 58.4885 20.3194C58.3453 20.1853 58.2759 20.0123 58.2759 19.8047V17.6376L58.2803 17.6549Z" fill="#231815"/>
<path d="M66.9463 25.3628C66.9463 25.0773 66.9983 24.8091 67.1111 24.5496C67.2195 24.2944 67.367 24.0738 67.5622 23.8878C67.753 23.7018 67.9742 23.5547 68.2301 23.4466C68.486 23.3385 68.7636 23.2822 69.0716 23.2822C69.3795 23.2822 69.6441 23.3341 69.9043 23.4466C70.1646 23.5591 70.3901 23.7018 70.581 23.8878C70.7718 24.0738 70.9193 24.2944 71.0277 24.5496C71.1362 24.8048 71.1925 25.0773 71.1925 25.3628C71.1925 25.6483 71.1405 25.9294 71.0277 26.1803C70.9149 26.4312 70.7675 26.6475 70.581 26.8378C70.3901 27.0238 70.1646 27.1665 69.9043 27.2703C69.6441 27.3741 69.3665 27.426 69.0716 27.426C68.7766 27.426 68.486 27.3741 68.2301 27.2703C67.9742 27.1665 67.7487 27.0238 67.5622 26.8378C67.3713 26.6518 67.2195 26.4312 67.1111 26.1803C67.0027 25.9294 66.9463 25.6569 66.9463 25.3628Z" fill="#231815"/>
<path d="M81.4416 24.1301C82.0749 24.1301 82.6431 24.0263 83.1462 23.8144C83.6493 23.6024 84.0744 23.2996 84.4214 22.9146C84.7683 22.5254 85.0329 22.0539 85.2151 21.5002C85.3973 20.9466 85.4883 20.3237 85.4883 19.6316V8.41992H89.3919V19.6316C89.3919 20.7735 89.2054 21.8203 88.8411 22.7762C88.4724 23.7322 87.9433 24.5583 87.258 25.2461C86.5727 25.9382 85.7399 26.4789 84.7597 26.8682C83.7794 27.2574 82.6734 27.4521 81.4416 27.4521C80.2098 27.4521 79.0995 27.2574 78.1149 26.8682C77.1303 26.4789 76.2932 25.9382 75.6122 25.2461C74.9269 24.554 74.4021 23.7322 74.0291 22.7762C73.6561 21.8203 73.4783 20.7692 73.4783 19.6316V8.41992H77.3819V19.6316C77.3819 20.3237 77.473 20.9466 77.6551 21.5002C77.8373 22.0539 78.1019 22.5254 78.4489 22.9146C78.7958 23.3039 79.2209 23.6067 79.724 23.8144C80.2272 24.0263 80.7997 24.1301 81.4416 24.1301Z" fill="#231815"/>
<path d="M91.6821 25.3628C91.6821 25.0773 91.7342 24.8091 91.8469 24.5496C91.9554 24.2944 92.1028 24.0738 92.298 23.8878C92.4889 23.7018 92.7101 23.5547 92.966 23.4466C93.2219 23.3385 93.4995 23.2822 93.8074 23.2822C94.1154 23.2822 94.3799 23.3341 94.6402 23.4466C94.9004 23.5591 95.126 23.7018 95.3168 23.8878C95.5077 24.0738 95.6551 24.2944 95.7636 24.5496C95.872 24.8048 95.9284 25.0773 95.9284 25.3628C95.9284 25.6483 95.8763 25.9294 95.7636 26.1803C95.6508 26.4312 95.5033 26.6475 95.3168 26.8378C95.126 27.0238 94.9004 27.1665 94.6402 27.2703C94.3799 27.3741 94.1024 27.426 93.8074 27.426C93.5125 27.426 93.2219 27.3741 92.966 27.2703C92.7101 27.1665 92.4845 27.0238 92.298 26.8378C92.1072 26.6518 91.9554 26.4312 91.8469 26.1803C91.7385 25.9294 91.6821 25.6569 91.6821 25.3628Z" fill="#231815"/>
<path d="M113.165 11.5553H107.648V27.2439H103.731V11.5553H98.2141V8.41504H113.165V11.5553Z" fill="#231815"/>
<path d="M114.778 21.1067C114.891 22.3611 115.247 23.2781 115.854 23.8577C116.457 24.4373 117.242 24.7271 118.214 24.7271C118.708 24.7271 119.133 24.6666 119.497 24.5498C119.857 24.433 120.174 24.3032 120.447 24.1605C120.721 24.0178 120.968 23.888 121.189 23.7712C121.41 23.6544 121.631 23.5939 121.848 23.5939C122.126 23.5939 122.343 23.6977 122.499 23.9053L123.54 25.2029C123.158 25.6441 122.737 26.0118 122.278 26.3016C121.818 26.5914 121.341 26.8207 120.846 26.9894C120.352 27.1581 119.853 27.2749 119.35 27.3397C118.847 27.4046 118.361 27.4392 117.893 27.4392C116.956 27.4392 116.08 27.2835 115.273 26.9764C114.462 26.6693 113.755 26.2151 113.152 25.6139C112.549 25.0126 112.072 24.2686 111.729 23.3776C111.382 22.4865 111.209 21.4527 111.209 20.2762C111.209 19.3679 111.361 18.5114 111.66 17.7069C111.959 16.9023 112.388 16.2016 112.952 15.6047C113.516 15.0078 114.202 14.5363 115.008 14.1859C115.815 13.8355 116.726 13.6582 117.741 13.6582C118.6 13.6582 119.389 13.7923 120.118 14.0691C120.842 14.3416 121.467 14.7353 121.991 15.2543C122.516 15.7734 122.924 16.4135 123.214 17.1705C123.505 17.9275 123.653 18.7926 123.653 19.7571C123.653 20.0253 123.64 20.2459 123.614 20.4189C123.587 20.592 123.544 20.7304 123.483 20.8342C123.423 20.938 123.34 21.0072 123.236 21.0461C123.132 21.0851 122.998 21.1067 122.833 21.1067H114.791H114.778ZM120.426 18.9786C120.426 18.6066 120.374 18.2519 120.274 17.9145C120.174 17.5771 120.014 17.2786 119.801 17.0191C119.584 16.7596 119.311 16.5563 118.981 16.4049C118.652 16.2535 118.257 16.18 117.797 16.18C116.938 16.18 116.266 16.4222 115.78 16.9066C115.295 17.3911 114.978 18.0832 114.83 18.9829H120.426V18.9786Z" fill="#231815"/>
<path d="M135.598 16.8504C135.494 16.9888 135.389 17.0926 135.285 17.1662C135.181 17.2397 135.034 17.2743 134.843 17.2743C134.669 17.2743 134.5 17.2267 134.34 17.1272C134.179 17.0278 133.997 16.9196 133.789 16.8028C133.581 16.686 133.334 16.5779 133.047 16.4784C132.761 16.3789 132.405 16.327 131.98 16.327C131.443 16.327 130.978 16.4265 130.579 16.6168C130.185 16.8115 129.855 17.0926 129.595 17.456C129.335 17.8193 129.144 18.2605 129.018 18.7796C128.892 19.2986 128.827 19.8826 128.827 20.5314C128.827 21.8983 129.1 22.945 129.656 23.6717C130.206 24.3984 130.957 24.7617 131.915 24.7617C132.245 24.7617 132.527 24.7358 132.765 24.6796C133.004 24.6233 133.212 24.5541 133.39 24.4633C133.568 24.3768 133.724 24.2816 133.85 24.1778C133.98 24.074 134.101 23.9788 134.218 23.8923C134.336 23.8058 134.453 23.7366 134.57 23.6804C134.687 23.6241 134.817 23.5939 134.969 23.5939C135.246 23.5939 135.463 23.6977 135.619 23.9053L136.647 25.2029C136.266 25.6441 135.858 26.0118 135.424 26.3016C134.99 26.5914 134.539 26.8207 134.08 26.9894C133.616 27.1581 133.143 27.2749 132.666 27.3397C132.189 27.4046 131.716 27.4392 131.247 27.4392C130.423 27.4392 129.643 27.2835 128.905 26.9764C128.168 26.6693 127.522 26.2238 126.966 25.6355C126.411 25.0472 125.969 24.3249 125.643 23.4684C125.318 22.612 125.158 21.6344 125.158 20.5357C125.158 19.5582 125.301 18.6498 125.587 17.8107C125.873 16.9715 126.294 16.2448 126.849 15.6306C127.404 15.0164 128.09 14.5363 128.91 14.1859C129.729 13.8355 130.675 13.6582 131.75 13.6582C132.826 13.6582 133.672 13.8226 134.444 14.1513C135.216 14.48 135.91 14.9559 136.526 15.5787L135.589 16.8504H135.598Z" fill="#231815"/>
<path d="M142.052 15.1763C142.303 14.9514 142.563 14.7481 142.837 14.5577C143.11 14.3717 143.4 14.2117 143.708 14.0776C144.016 13.9435 144.346 13.8397 144.697 13.7662C145.049 13.6926 145.426 13.6537 145.834 13.6537C146.562 13.6537 147.209 13.7792 147.772 14.03C148.336 14.2809 148.813 14.6313 149.199 15.0811C149.585 15.531 149.876 16.0673 150.071 16.6902C150.266 17.3131 150.366 17.9965 150.366 18.7405V27.2401H146.788V18.7405C146.788 17.9965 146.614 17.4169 146.267 17.0103C145.92 16.5994 145.409 16.3918 144.732 16.3918C144.229 16.3918 143.756 16.4999 143.314 16.7162C142.871 16.9324 142.451 17.2352 142.052 17.6245V27.2401H138.46V7.89648H142.052V15.1763Z" fill="#231815"/>
<path d="M156.547 15.423C156.816 15.1635 157.093 14.9256 157.388 14.7093C157.679 14.493 157.987 14.307 158.312 14.1513C158.638 13.9956 158.989 13.8745 159.366 13.788C159.744 13.7015 160.151 13.6582 160.594 13.6582C161.322 13.6582 161.969 13.7836 162.532 14.0345C163.096 14.2854 163.573 14.6358 163.959 15.0856C164.345 15.5355 164.636 16.0718 164.831 16.6947C165.026 17.3176 165.126 18.001 165.126 18.745V27.2446H161.548V18.745C161.548 18.001 161.374 17.4214 161.027 17.0148C160.68 16.6039 160.169 16.3962 159.492 16.3962C158.989 16.3962 158.516 16.5044 158.074 16.7207C157.631 16.9369 157.211 17.2397 156.812 17.629V27.2446H153.22V13.8658H155.432C155.883 13.8658 156.183 14.0734 156.33 14.4887L156.551 15.423H156.547Z" fill="#231815"/>
<path d="M174.022 13.6582C175.028 13.6582 175.943 13.8182 176.768 14.1383C177.592 14.4584 178.299 14.9126 178.888 15.5095C179.478 16.1021 179.934 16.8245 180.255 17.6679C180.576 18.5157 180.736 19.4717 180.736 20.5357C180.736 21.5998 180.576 22.5601 180.255 23.4079C179.934 24.26 179.478 24.9867 178.888 25.5836C178.299 26.1805 177.592 26.639 176.768 26.9591C175.943 27.2792 175.028 27.4392 174.022 27.4392C173.016 27.4392 172.083 27.2792 171.255 26.9591C170.426 26.639 169.715 26.1805 169.125 25.5836C168.535 24.9867 168.075 24.26 167.75 23.4079C167.425 22.5557 167.264 21.5998 167.264 20.5357C167.264 19.4717 167.429 18.5157 167.75 17.6679C168.075 16.8201 168.531 16.1021 169.125 15.5095C169.715 14.9169 170.426 14.4584 171.255 14.1383C172.083 13.8182 173.003 13.6582 174.022 13.6582ZM174.022 24.7531C175.046 24.7531 175.805 24.4027 176.299 23.6933C176.794 22.9883 177.041 21.9415 177.041 20.5487C177.041 19.1559 176.794 18.1221 176.299 17.4127C175.805 16.7077 175.046 16.3573 174.022 16.3573C172.998 16.3573 172.2 16.7077 171.706 17.4127C171.211 18.1178 170.964 19.1646 170.964 20.5487C170.964 21.9329 171.211 22.9926 171.706 23.6933C172.2 24.3984 172.972 24.7531 174.022 24.7531Z" fill="#231815"/>
<path d="M186.618 7.89648V27.2444H183.026V7.89648H186.618Z" fill="#231815"/>
<path d="M195.661 13.6582C196.667 13.6582 197.582 13.8182 198.406 14.1383C199.231 14.4584 199.937 14.9126 200.527 15.5095C201.117 16.1021 201.573 16.8245 201.894 17.6679C202.215 18.5157 202.375 19.4717 202.375 20.5357C202.375 21.5998 202.215 22.5601 201.894 23.4079C201.573 24.26 201.117 24.9867 200.527 25.5836C199.937 26.1805 199.231 26.639 198.406 26.9591C197.582 27.2792 196.667 27.4392 195.661 27.4392C194.655 27.4392 193.722 27.2792 192.894 26.9591C192.065 26.639 191.354 26.1805 190.764 25.5836C190.174 24.9867 189.714 24.26 189.389 23.4079C189.064 22.5557 188.903 21.5998 188.903 20.5357C188.903 19.4717 189.068 18.5157 189.389 17.6679C189.714 16.8201 190.17 16.1021 190.764 15.5095C191.354 14.9169 192.065 14.4584 192.894 14.1383C193.722 13.8182 194.642 13.6582 195.661 13.6582ZM195.661 24.7531C196.684 24.7531 197.444 24.4027 197.938 23.6933C198.432 22.9883 198.68 21.9415 198.68 20.5487C198.68 19.1559 198.432 18.1221 197.938 17.4127C197.444 16.7077 196.684 16.3573 195.661 16.3573C194.637 16.3573 193.839 16.7077 193.345 17.4127C192.85 18.1178 192.603 19.1646 192.603 20.5487C192.603 21.9329 192.85 22.9926 193.345 23.6933C193.839 24.3984 194.611 24.7531 195.661 24.7531Z" fill="#231815"/>
<path d="M216.48 14.3066V15.6172C216.48 15.8249 216.419 15.9892 216.302 16.1103C216.185 16.2315 215.99 16.3223 215.725 16.3828L214.632 16.6035C214.78 17.0273 214.854 17.4815 214.854 17.966C214.854 18.6321 214.715 19.2333 214.442 19.7654C214.168 20.2974 213.791 20.7516 213.318 21.1279C212.841 21.5042 212.277 21.794 211.627 21.9973C210.976 22.2006 210.273 22.3001 209.519 22.3001C209.042 22.3001 208.595 22.2612 208.179 22.1833C207.814 22.4083 207.632 22.6548 207.632 22.923C207.632 23.1739 207.758 23.3555 208.001 23.468C208.248 23.5805 208.573 23.6627 208.977 23.7102C209.38 23.7578 209.84 23.7881 210.356 23.8011C210.872 23.814 211.397 23.8443 211.93 23.8833C212.464 23.9265 212.989 24.0044 213.505 24.1082C214.021 24.2163 214.481 24.3937 214.884 24.6402C215.287 24.8868 215.613 25.2155 215.86 25.6221C216.107 26.0287 216.229 26.5521 216.229 27.1923C216.229 27.7892 216.081 28.3688 215.786 28.9311C215.491 29.4934 215.062 29.9952 214.502 30.4364C213.943 30.8776 213.253 31.2323 212.442 31.5004C211.627 31.7686 210.699 31.9027 209.658 31.9027C208.617 31.9027 207.727 31.8032 206.973 31.6129C206.214 31.4183 205.585 31.1587 205.086 30.8343C204.587 30.5099 204.214 30.1336 203.976 29.714C203.733 29.2901 203.611 28.8489 203.611 28.3904C203.611 27.7935 203.793 27.2874 204.158 26.8722C204.522 26.4569 205.025 26.1239 205.667 25.873C205.329 25.6827 205.056 25.4361 204.852 25.129C204.648 24.8219 204.544 24.4196 204.544 23.9265C204.544 23.5286 204.687 23.109 204.978 22.6678C205.268 22.2266 205.719 21.8589 206.322 21.5648C205.637 21.2014 205.095 20.717 204.696 20.1028C204.297 19.4929 204.097 18.7835 204.097 17.966C204.097 17.2999 204.232 16.6986 204.505 16.1622C204.778 15.6259 205.155 15.1717 205.641 14.7911C206.127 14.4147 206.7 14.1293 207.359 13.9303C208.018 13.7313 208.734 13.6318 209.506 13.6318C210.651 13.6318 211.661 13.8568 212.538 14.3066H216.467H216.48ZM212.915 27.7892C212.915 27.5556 212.841 27.3653 212.694 27.2182C212.546 27.0711 212.351 26.9544 212.104 26.8678C211.857 26.7813 211.562 26.7208 211.228 26.6775C210.889 26.6386 210.529 26.6083 210.148 26.5867C209.766 26.5651 209.371 26.5478 208.964 26.5305C208.556 26.5132 208.157 26.4829 207.766 26.4396C207.463 26.6213 207.216 26.8376 207.016 27.0798C206.817 27.322 206.726 27.6032 206.726 27.9189C206.726 28.1352 206.773 28.3342 206.873 28.5159C206.973 28.6975 207.142 28.8532 207.376 28.983C207.61 29.1128 207.918 29.2123 208.3 29.2901C208.682 29.3637 209.159 29.3983 209.731 29.3983C210.304 29.3983 210.82 29.3593 211.228 29.2815C211.635 29.2036 211.965 29.0911 212.217 28.9484C212.468 28.8057 212.646 28.6326 212.759 28.4337C212.867 28.2347 212.924 28.0184 212.924 27.7848L212.915 27.7892ZM209.519 20.0552C210.256 20.0552 210.803 19.8692 211.154 19.4972C211.505 19.1252 211.679 18.6451 211.679 18.0568C211.679 17.4685 211.505 16.9625 211.154 16.6121C210.803 16.2617 210.256 16.0887 209.519 16.0887C208.781 16.0887 208.239 16.2617 207.892 16.6121C207.545 16.9625 207.372 17.4469 207.372 18.0568C207.372 18.6364 207.545 19.1166 207.897 19.4929C208.248 19.8692 208.786 20.0552 209.514 20.0552H209.519Z" fill="#231815"/>
<path d="M222.479 10.0634C222.479 10.3662 222.418 10.6474 222.297 10.9069C222.175 11.1664 222.01 11.3957 221.811 11.5946C221.607 11.7936 221.368 11.9493 221.095 12.0618C220.822 12.1743 220.531 12.2305 220.219 12.2305C219.924 12.2305 219.642 12.1743 219.378 12.0618C219.113 11.9493 218.879 11.7936 218.684 11.5946C218.484 11.3957 218.328 11.1664 218.211 10.9069C218.094 10.6474 218.033 10.3662 218.033 10.0634C218.033 9.76063 218.094 9.47948 218.211 9.21562C218.328 8.95177 218.484 8.72252 218.684 8.52354C218.883 8.32457 219.113 8.16885 219.378 8.05639C219.642 7.94393 219.92 7.8877 220.219 7.8877C220.531 7.8877 220.826 7.94393 221.095 8.05639C221.368 8.16885 221.607 8.32457 221.811 8.52354C222.015 8.72252 222.175 8.95609 222.297 9.21562C222.418 9.47948 222.479 9.76496 222.479 10.0634ZM222.049 13.8655V27.2443H218.458V13.8655H222.049Z" fill="#231815"/>
<path d="M227.983 21.1067C228.095 22.3611 228.451 23.2781 229.058 23.8577C229.661 24.4373 230.446 24.7271 231.418 24.7271C231.912 24.7271 232.337 24.6666 232.702 24.5498C233.062 24.433 233.378 24.3032 233.652 24.1605C233.925 24.0178 234.172 23.888 234.393 23.7712C234.614 23.6544 234.836 23.5939 235.053 23.5939C235.33 23.5939 235.547 23.6977 235.703 23.9053L236.744 25.2029C236.362 25.6441 235.942 26.0118 235.482 26.3016C235.022 26.5914 234.545 26.8207 234.051 26.9894C233.556 27.1581 233.057 27.2749 232.554 27.3397C232.051 27.4046 231.565 27.4392 231.097 27.4392C230.16 27.4392 229.284 27.2835 228.477 26.9764C227.666 26.6693 226.959 26.2151 226.356 25.6139C225.753 25.0126 225.276 24.2686 224.934 23.3776C224.587 22.4865 224.413 21.4527 224.413 20.2762C224.413 19.3679 224.565 18.5114 224.864 17.7069C225.163 16.9023 225.593 16.2016 226.157 15.6047C226.721 15.0078 227.406 14.5363 228.213 14.1859C229.019 13.8355 229.93 13.6582 230.945 13.6582C231.804 13.6582 232.593 13.7923 233.322 14.0691C234.046 14.3416 234.671 14.7353 235.196 15.2543C235.721 15.7734 236.128 16.4135 236.419 17.1705C236.709 17.9275 236.857 18.7926 236.857 19.7571C236.857 20.0253 236.844 20.2459 236.818 20.4189C236.792 20.592 236.748 20.7304 236.688 20.8342C236.627 20.938 236.545 21.0072 236.441 21.0461C236.336 21.0851 236.202 21.1067 236.037 21.1067H227.996H227.983ZM233.63 18.9786C233.63 18.6066 233.578 18.2519 233.478 17.9145C233.378 17.5771 233.218 17.2786 233.005 17.0191C232.788 16.7596 232.515 16.5563 232.186 16.4049C231.856 16.2535 231.461 16.18 231.001 16.18C230.143 16.18 229.47 16.4222 228.985 16.9066C228.499 17.3911 228.182 18.0832 228.035 18.9829H233.63V18.9786Z" fill="#231815"/>
<path d="M247.41 16.6164C247.314 16.7635 247.214 16.8673 247.119 16.9322C247.019 16.9971 246.88 17.0317 246.707 17.0317C246.533 17.0317 246.356 16.9884 246.173 16.9019C245.991 16.8154 245.787 16.7246 245.562 16.6207C245.336 16.5213 245.076 16.4304 244.785 16.3396C244.495 16.2531 244.157 16.2098 243.775 16.2098C243.194 16.2098 242.743 16.3309 242.422 16.5688C242.101 16.8067 241.94 17.1182 241.94 17.5075C241.94 17.7757 242.031 18.0006 242.213 18.1822C242.396 18.3639 242.634 18.524 242.938 18.6537C243.237 18.7878 243.575 18.9133 243.957 19.03C244.339 19.1468 244.729 19.2766 245.132 19.415C245.536 19.5534 245.926 19.7135 246.308 19.8951C246.69 20.0768 247.032 20.3017 247.327 20.5786C247.626 20.8511 247.869 21.1798 248.052 21.5648C248.234 21.9498 248.325 22.4126 248.325 22.9619C248.325 23.6107 248.208 24.212 247.969 24.757C247.731 25.3063 247.379 25.7821 246.919 26.1801C246.46 26.578 245.887 26.8895 245.202 27.1144C244.517 27.3393 243.727 27.4518 242.834 27.4518C242.374 27.4518 241.919 27.4085 241.467 27.3263C241.016 27.2442 240.587 27.1274 240.179 26.976C239.772 26.8246 239.39 26.6516 239.034 26.4526C238.679 26.2536 238.371 26.0373 238.11 25.8038L238.943 24.4672C239.039 24.3115 239.16 24.1904 239.303 24.1039C239.446 24.0173 239.628 23.9741 239.854 23.9741C240.079 23.9741 240.27 24.026 240.452 24.1385C240.635 24.2466 240.839 24.3634 241.064 24.4888C241.29 24.6143 241.554 24.731 241.862 24.8392C242.17 24.9473 242.552 25.0036 243.016 25.0036C243.363 25.0036 243.662 24.9646 243.914 24.8868C244.165 24.8089 244.369 24.7051 244.525 24.571C244.681 24.4369 244.794 24.2855 244.868 24.1168C244.942 23.9481 244.976 23.7751 244.976 23.5934C244.976 23.2993 244.885 23.0614 244.694 22.8711C244.508 22.6851 244.265 22.525 243.966 22.3866C243.666 22.2482 243.319 22.1228 242.929 22.0103C242.539 21.8978 242.144 21.7724 241.741 21.634C241.337 21.4956 240.943 21.3312 240.557 21.1409C240.171 20.9506 239.828 20.7127 239.529 20.4185C239.229 20.1287 238.986 19.7697 238.8 19.3458C238.613 18.9219 238.518 18.4072 238.518 17.8016C238.518 17.2479 238.626 16.7246 238.843 16.2228C239.06 15.7254 239.386 15.2842 239.819 14.9079C240.253 14.5272 240.795 14.2244 241.437 13.9995C242.079 13.7746 242.829 13.6621 243.684 13.6621C244.638 13.6621 245.505 13.8178 246.286 14.1293C247.067 14.4407 247.709 14.8473 248.212 15.3491L247.392 16.6207L247.41 16.6164Z" fill="#231815"/>
<path d="M37.6736 6.17043L27.8148 0.573242L19.1011 5.64272L10.1836 0.573242L0.333496 6.17043V17.4989L9.09057 22.5943V26.8376L18.9407 32.5689L28.7907 26.8376V22.7846L37.6693 17.62V6.17043H37.6736ZM26.6047 20.1201L20.1594 16.3699V13.0263L26.6047 16.7765V20.1201ZM2.52385 16.2488V7.44213L10.1836 3.09068L17.8476 7.44213V10.4267L9.09057 15.5221V20.0726L2.52385 16.2532V16.2488ZM17.8476 12.9528V16.2488L11.2809 20.0682V16.7722L17.8476 12.9528ZM18.9407 30.0428L11.2766 25.5832V22.59L18.8973 18.1564L26.6047 22.6376V25.5789L18.9407 30.0385V30.0428ZM35.4832 16.3699L28.7951 20.2629V15.5221L20.1594 10.5002V7.55891L27.8278 3.09933L35.4832 7.44645V16.3743V16.3699Z" fill="#006E54"/>
</svg>
