<svg width="151" height="33" viewBox="0 0 151 33" fill="none" xmlns="http://www.w3.org/2000/svg">
<g clip-path="url(#clip0_9139_81500)">
<path d="M12.7905 5.69129C14.2033 5.69129 15.3487 4.54514 15.3487 3.13129C15.3487 1.71744 14.2033 0.571289 12.7905 0.571289C11.3777 0.571289 10.2324 1.71744 10.2324 3.13129C10.2324 4.54514 11.3777 5.69129 12.7905 5.69129Z" fill="#00A0F0"/>
<path d="M23.023 5.69129C24.4358 5.69129 25.5811 4.54514 25.5811 3.13129C25.5811 1.71744 24.4358 0.571289 23.023 0.571289C21.6102 0.571289 20.4648 1.71744 20.4648 3.13129C20.4648 4.54514 21.6102 5.69129 23.023 5.69129Z" fill="#00A0F0"/>
<path d="M7.67433 12.0917C9.08714 12.0917 10.2324 10.9455 10.2324 9.53168C10.2324 8.11783 9.08714 6.97168 7.67433 6.97168C6.26152 6.97168 5.11621 8.11783 5.11621 9.53168C5.11621 10.9455 6.26152 12.0917 7.67433 12.0917Z" fill="#00A0F0"/>
<path d="M28.1392 12.0917C29.552 12.0917 30.6973 10.9455 30.6973 9.53168C30.6973 8.11783 29.552 6.97168 28.1392 6.97168C26.7264 6.97168 25.5811 8.11783 25.5811 9.53168C25.5811 10.9455 26.7264 12.0917 28.1392 12.0917Z" fill="#00A0F0"/>
<path d="M17.9067 32.5712C19.3196 32.5712 20.4649 31.425 20.4649 30.0112C20.4649 28.5973 19.3196 27.4512 17.9067 27.4512C16.4939 27.4512 15.3486 28.5973 15.3486 30.0112C15.3486 31.425 16.4939 32.5712 17.9067 32.5712Z" fill="#00A0F0"/>
<path d="M23.023 18.4911C24.4358 18.4911 25.5811 17.3449 25.5811 15.9311C25.5811 14.5172 24.4358 13.3711 23.023 13.3711C21.6102 13.3711 20.4648 14.5172 20.4648 15.9311C20.4648 17.3449 21.6102 18.4911 23.023 18.4911Z" fill="#00A0F0"/>
<path d="M17.9067 12.0917C19.3196 12.0917 20.4649 10.9455 20.4649 9.53168C20.4649 8.11783 19.3196 6.97168 17.9067 6.97168C16.4939 6.97168 15.3486 8.11783 15.3486 9.53168C15.3486 10.9455 16.4939 12.0917 17.9067 12.0917Z" fill="#EEEEEE"/>
<path d="M7.67433 24.8915C9.08714 24.8915 10.2324 23.7453 10.2324 22.3315C10.2324 20.9176 9.08714 19.7715 7.67433 19.7715C6.26152 19.7715 5.11621 20.9176 5.11621 22.3315C5.11621 23.7453 6.26152 24.8915 7.67433 24.8915Z" fill="#EEEEEE"/>
<path d="M17.9067 24.8915C19.3196 24.8915 20.4649 23.7453 20.4649 22.3315C20.4649 20.9176 19.3196 19.7715 17.9067 19.7715C16.4939 19.7715 15.3486 20.9176 15.3486 22.3315C15.3486 23.7453 16.4939 24.8915 17.9067 24.8915Z" fill="#EEEEEE"/>
<path d="M28.1392 24.8915C29.552 24.8915 30.6973 23.7453 30.6973 22.3315C30.6973 20.9176 29.552 19.7715 28.1392 19.7715C26.7264 19.7715 25.5811 20.9176 25.5811 22.3315C25.5811 23.7453 26.7264 24.8915 28.1392 24.8915Z" fill="#EEEEEE"/>
<path d="M12.7905 18.4911C14.2033 18.4911 15.3487 17.3449 15.3487 15.9311C15.3487 14.5172 14.2033 13.3711 12.7905 13.3711C11.3777 13.3711 10.2324 14.5172 10.2324 15.9311C10.2324 17.3449 11.3777 18.4911 12.7905 18.4911Z" fill="#EEEEEE"/>
<path d="M2.55812 18.4911C3.97093 18.4911 5.11624 17.3449 5.11624 15.9311C5.11624 14.5172 3.97093 13.3711 2.55812 13.3711C1.14531 13.3711 0 14.5172 0 15.9311C0 17.3449 1.14531 18.4911 2.55812 18.4911Z" fill="#EEEEEE"/>
<path d="M33.2554 18.4911C34.6682 18.4911 35.8135 17.3449 35.8135 15.9311C35.8135 14.5172 34.6682 13.3711 33.2554 13.3711C31.8426 13.3711 30.6973 14.5172 30.6973 15.9311C30.6973 17.3449 31.8426 18.4911 33.2554 18.4911Z" fill="#EEEEEE"/>
<path d="M61.2482 6.03906H57.7405C57.663 6.03906 57.5887 6.06987 57.5339 6.12472C57.4791 6.17956 57.4483 6.25395 57.4483 6.33151V14.4506H48.0925V6.33151C48.0925 6.25395 48.0617 6.17956 48.0069 6.12472C47.9521 6.06987 47.8778 6.03906 47.8003 6.03906H44.2917C44.2142 6.03906 44.1399 6.06987 44.0851 6.12472C44.0303 6.17956 43.9995 6.25395 43.9995 6.33151V26.8115C43.9995 26.8891 44.0303 26.9635 44.0851 27.0183C44.1399 27.0731 44.2142 27.104 44.2917 27.104H47.8003C47.8778 27.104 47.9521 27.0731 48.0069 27.0183C48.0617 26.9635 48.0925 26.8891 48.0925 26.8115V17.5226H57.4483V26.8115C57.4483 26.8891 57.4791 26.9635 57.5339 27.0183C57.5887 27.0731 57.663 27.104 57.7405 27.104H61.2482C61.2866 27.1041 61.3247 27.0966 61.3603 27.0819C61.3958 27.0673 61.4281 27.0458 61.4554 27.0186C61.4826 26.9914 61.5042 26.9592 61.5189 26.9236C61.5337 26.8881 61.5413 26.85 61.5413 26.8115V6.33151C61.5413 6.29303 61.5337 6.25493 61.5189 6.21939C61.5042 6.18385 61.4826 6.15157 61.4554 6.1244C61.4281 6.09724 61.3958 6.07571 61.3603 6.06107C61.3247 6.04642 61.2866 6.03895 61.2482 6.03906Z" fill="#141419"/>
<path d="M80.983 11.8905H77.4745C77.397 11.8905 77.3227 11.9213 77.2679 11.9761C77.2131 12.031 77.1823 12.1054 77.1823 12.1829V12.9358C75.9642 11.8819 74.4073 11.3028 72.7971 11.3047C70.7035 11.3047 68.6957 12.137 67.2153 13.6184C65.735 15.0999 64.9033 17.1092 64.9033 19.2042V19.79C64.9033 20.8274 65.1075 21.8546 65.5042 22.8129C65.9009 23.7713 66.4824 24.6421 67.2154 25.3755C67.9484 26.109 68.8186 26.6908 69.7763 27.0877C70.734 27.4846 71.7605 27.6888 72.7971 27.6887C74.4071 27.6905 75.9639 27.1118 77.1823 26.0585V26.8114C77.1823 26.8889 77.2131 26.9633 77.2679 27.0181C77.3227 27.073 77.397 27.1038 77.4745 27.1038H80.983C81.0605 27.1038 81.1349 27.073 81.1897 27.0181C81.2445 26.9633 81.2753 26.8889 81.2753 26.8114V12.1829C81.2753 12.1054 81.2445 12.031 81.1897 11.9761C81.1349 11.9213 81.0605 11.8905 80.983 11.8905ZM77.4745 20.9571C77.4745 21.927 77.0895 22.8571 76.4042 23.5429C75.7189 24.2287 74.7895 24.614 73.8203 24.614C73.1869 24.6141 72.5596 24.4894 71.9743 24.2469C71.389 24.0044 70.8572 23.6489 70.4093 23.2006C69.9613 22.7524 69.606 22.2203 69.3635 21.6347C69.1211 21.049 68.9963 20.4213 68.9963 19.7874V19.2016C68.9963 17.9212 69.5045 16.6933 70.4092 15.788C71.3139 14.8826 72.5409 14.374 73.8203 14.374C74.3003 14.374 74.7755 14.4686 75.2189 14.6525C75.6623 14.8363 76.0652 15.1058 76.4045 15.4454C76.7439 15.7851 77.013 16.1883 77.1966 16.6321C77.3802 17.0759 77.4746 17.5515 77.4745 18.0318V20.9571Z" fill="#141419"/>
<path d="M93.9921 14.6696V12.1807C93.9921 12.1031 93.9613 12.0287 93.9065 11.9739C93.8517 11.919 93.7774 11.8882 93.6999 11.8882H91.3611V8.67135C91.3611 8.59379 91.3304 8.5194 91.2756 8.46456C91.2207 8.40972 91.1464 8.37891 91.0689 8.37891H87.5604C87.4829 8.37891 87.4086 8.40972 87.3537 8.46456C87.2989 8.5194 87.2682 8.59379 87.2682 8.67135V11.89H84.9294C84.8519 11.89 84.7776 11.9208 84.7228 11.9757C84.668 12.0305 84.6372 12.1049 84.6372 12.1825V14.6714C84.6372 14.7489 84.668 14.8233 84.7228 14.8781C84.7776 14.933 84.8519 14.9638 84.9294 14.9638H87.2682V22.7167C87.2683 22.7376 87.2707 22.7585 87.2753 22.7789C87.2708 22.8553 87.2682 22.9318 87.2682 23.0091C87.2682 23.547 87.374 24.0796 87.5797 24.5766C87.7854 25.0735 88.0869 25.5251 88.467 25.9054C88.847 26.2858 89.2982 26.5875 89.7948 26.7933C90.2914 26.9992 90.8236 27.1051 91.3611 27.1051H93.6999C93.7774 27.1051 93.8517 27.0743 93.9065 27.0195C93.9613 26.9646 93.9921 26.8902 93.9921 26.8127V24.3238C93.9921 24.2462 93.9613 24.1718 93.9065 24.117C93.8517 24.0622 93.7774 24.0313 93.6999 24.0313H92.3844C92.113 24.0313 91.8527 23.9235 91.6608 23.7314C91.469 23.5394 91.3611 23.2789 91.3611 23.0073V14.962H93.6999C93.7382 14.962 93.7762 14.9545 93.8117 14.9398C93.8472 14.9251 93.8794 14.9035 93.9065 14.8764C93.9336 14.8492 93.9552 14.817 93.9699 14.7815C93.9845 14.746 93.9921 14.708 93.9921 14.6696Z" fill="#141419"/>
<path d="M105.394 11.3047H104.812C102.718 11.3047 100.71 12.137 99.23 13.6184C97.7496 15.0999 96.918 17.1092 96.918 19.2042V19.79C96.9179 20.2068 96.9506 20.6229 97.0157 21.0345C97.0672 21.3571 97.1387 21.6763 97.2297 21.99C97.2386 22.0211 97.2466 22.0522 97.2564 22.0834C97.2795 22.1616 97.3061 22.2389 97.3319 22.3162C97.3452 22.3545 97.3576 22.3936 97.371 22.4318C97.3967 22.5056 97.4251 22.5776 97.4527 22.6505C97.4687 22.6914 97.4847 22.7331 97.5015 22.774C97.53 22.8434 97.5602 22.9136 97.5904 22.982C97.609 23.0238 97.6277 23.0656 97.6472 23.1065C97.6783 23.1749 97.7103 23.2416 97.7431 23.3082L97.8062 23.4309C97.8408 23.4967 97.8755 23.5625 97.911 23.6274C97.9332 23.6674 97.9563 23.7065 97.9794 23.7456C98.0167 23.8105 98.054 23.8745 98.0931 23.9385L98.1633 24.0478C98.205 24.1127 98.2459 24.1767 98.2894 24.2398C98.3089 24.2691 98.3294 24.2967 98.3489 24.3287C98.5043 24.5496 98.6709 24.7623 98.8481 24.966C98.8783 25.0016 98.9085 25.038 98.9369 25.0727C98.9813 25.1234 99.0258 25.1714 99.0746 25.2202C99.1235 25.2691 99.1474 25.2985 99.1847 25.3358C99.2221 25.3731 99.2736 25.4247 99.3233 25.4718C99.3731 25.5189 99.4033 25.55 99.4441 25.5882C99.485 25.6265 99.5374 25.6727 99.5853 25.7145C99.6333 25.7562 99.6742 25.7909 99.7159 25.8282C99.7577 25.8656 99.811 25.9074 99.8589 25.9465C99.9069 25.9856 99.9477 26.0202 99.9993 26.0567L100.144 26.166C100.194 26.2025 100.244 26.2371 100.294 26.2727C100.345 26.3082 100.39 26.3402 100.439 26.3731C100.488 26.406 100.548 26.4434 100.602 26.4771C100.657 26.5109 100.697 26.5376 100.744 26.566C100.807 26.6034 100.871 26.6389 100.934 26.6745C100.975 26.6985 101.016 26.7225 101.059 26.7456C101.164 26.8025 101.269 26.8567 101.377 26.9091L101.475 26.9536C101.553 26.99 101.631 27.0265 101.711 27.0602L101.846 27.1145C101.914 27.1429 101.984 27.1705 102.053 27.1971L102.2 27.2487C102.268 27.2727 102.335 27.2958 102.404 27.3171C102.454 27.334 102.506 27.3491 102.556 27.3642C102.625 27.3847 102.692 27.4042 102.762 27.422C102.813 27.4362 102.866 27.4496 102.918 27.462C102.987 27.4798 103.057 27.4958 103.128 27.5109L103.286 27.5438C103.357 27.558 103.43 27.5705 103.502 27.582L103.658 27.6078C103.734 27.6185 103.811 27.6274 103.887 27.6362L104.036 27.654C104.125 27.662 104.207 27.6674 104.292 27.6736C104.335 27.6736 104.376 27.6798 104.419 27.6816C104.548 27.6878 104.677 27.6914 104.807 27.6914H105.392C106.507 27.6923 107.61 27.4558 108.628 26.9976C109.645 26.5394 110.553 25.8699 111.292 25.0336C111.309 25.0168 111.324 24.9977 111.336 24.9767C111.374 24.9096 111.385 24.8299 111.365 24.7551C111.345 24.6803 111.296 24.6164 111.229 24.5776L109.192 23.4007L108.724 23.134C108.666 23.1003 108.598 23.0878 108.531 23.0986C108.465 23.1095 108.404 23.143 108.359 23.1936C108.004 23.6399 107.553 24.0002 107.039 24.2477C106.525 24.4952 105.962 24.6234 105.392 24.6229H104.812C103.842 24.6232 102.908 24.2521 102.203 23.5857C101.497 22.9193 101.073 22.0081 101.017 21.0389H112.895C112.975 21.037 113.051 21.0069 113.111 20.9538C113.171 20.9008 113.21 20.8283 113.222 20.7491L113.273 20.0878C113.28 19.9278 113.285 19.6638 113.285 19.5029V19.2105C113.286 18.1728 113.083 17.1451 112.687 16.1861C112.29 15.2272 111.709 14.3557 110.977 13.6216C110.244 12.8874 109.374 12.3049 108.416 11.9074C107.458 11.5098 106.431 11.305 105.394 11.3047ZM101.015 17.9607C101.071 16.9912 101.496 16.0799 102.202 15.4135C102.908 14.7472 103.841 14.3762 104.812 14.3767H105.396C106.366 14.3769 107.299 14.7481 108.005 15.4145C108.71 16.0808 109.134 16.9917 109.19 17.9607H101.015Z" fill="#141419"/>
<path d="M131.548 16.7812C131.465 15.4916 130.959 14.2655 130.107 13.2944C129.255 12.3233 128.106 11.6618 126.838 11.4131C125.571 11.1644 124.258 11.3425 123.102 11.9196C121.947 12.4968 121.015 13.4405 120.452 14.6034V12.183C120.452 12.1054 120.421 12.031 120.366 11.9762C120.311 11.9213 120.237 11.8905 120.16 11.8905H116.651C116.574 11.8905 116.499 11.9213 116.444 11.9762C116.39 12.031 116.359 12.1054 116.359 12.183V26.8114C116.359 26.889 116.39 26.9634 116.444 27.0182C116.499 27.073 116.574 27.1039 116.651 27.1039H120.16C120.237 27.1039 120.311 27.073 120.366 27.0182C120.421 26.9634 120.452 26.889 120.452 26.8114V18.9119C120.452 18.8896 120.452 18.8683 120.452 18.8452C120.452 17.914 120.822 17.0209 121.479 16.3625C122.137 15.704 123.03 15.3341 123.96 15.3341C124.891 15.3341 125.783 15.704 126.441 16.3625C127.099 17.0209 127.469 17.914 127.469 18.8452C127.469 18.8683 127.469 18.8896 127.469 18.9119V26.8114C127.469 26.889 127.5 26.9634 127.555 27.0182C127.609 27.073 127.684 27.1039 127.761 27.1039H131.27C131.347 27.1039 131.422 27.073 131.476 27.0182C131.531 26.9634 131.562 26.889 131.562 26.8114V16.8639C131.561 16.8358 131.556 16.8079 131.548 16.7812Z" fill="#141419"/>
<path d="M150.125 11.8905H146.617C146.578 11.8905 146.54 11.898 146.505 11.9127C146.469 11.9274 146.437 11.949 146.41 11.9761C146.383 12.0033 146.361 12.0355 146.347 12.071C146.332 12.1065 146.324 12.1445 146.324 12.1829V12.9358C145.106 11.8819 143.549 11.3028 141.939 11.3047C139.846 11.3047 137.838 12.137 136.357 13.6184C134.877 15.0999 134.045 17.1092 134.045 19.2042V19.79C134.045 20.8274 134.25 21.8546 134.646 22.8129C135.043 23.7713 135.624 24.6421 136.357 25.3755C137.09 26.109 137.961 26.6908 138.918 27.0877C139.876 27.4846 140.903 27.6888 141.939 27.6887C143.549 27.6905 145.106 27.1118 146.324 26.0585V26.8114C146.324 26.8498 146.332 26.8878 146.347 26.9233C146.361 26.9588 146.383 26.991 146.41 27.0181C146.437 27.0453 146.469 27.0668 146.505 27.0815C146.54 27.0962 146.578 27.1038 146.617 27.1038H150.125C150.203 27.1038 150.277 27.073 150.332 27.0181C150.387 26.9633 150.417 26.8889 150.417 26.8114V12.1829C150.417 12.1054 150.387 12.031 150.332 11.9761C150.277 11.9213 150.203 11.8905 150.125 11.8905ZM146.617 20.9571C146.617 21.927 146.232 22.8571 145.546 23.5429C144.861 24.2287 143.932 24.614 142.962 24.614C142.329 24.6141 141.702 24.4894 141.116 24.2469C140.531 24.0044 139.999 23.6489 139.551 23.2006C139.103 22.7524 138.748 22.2203 138.506 21.6347C138.263 21.049 138.138 20.4213 138.138 19.7874V19.2016C138.138 17.9212 138.647 16.6933 139.551 15.788C140.456 14.8826 141.683 14.374 142.962 14.374C143.442 14.374 143.918 14.4686 144.361 14.6525C144.804 14.8363 145.207 15.1058 145.547 15.4454C145.886 15.7851 146.155 16.1883 146.339 16.6321C146.522 17.0759 146.617 17.5515 146.617 18.0318V20.9571Z" fill="#141419"/>
</g>
<defs>
<clipPath id="clip0_9139_81500">
<rect width="151" height="32" fill="white" transform="translate(0 0.571289)"/>
</clipPath>
</defs>
</svg>
