<svg xmlns="http://www.w3.org/2000/svg" width="170" height="36" viewBox="0 0 170 36"><circle cx="14.4" cy="2.88" r="2.88" fill="#00a0f0"/><circle cx="25.92" cy="2.88" r="2.88" fill="#00a0f0"/><circle cx="8.64" cy="10.08" r="2.88" fill="#00a0f0"/><circle cx="31.68" cy="10.08" r="2.88" fill="#00a0f0"/><circle cx="20.16" cy="33.12" r="2.88" fill="#00a0f0"/><circle cx="25.92" cy="17.28" r="2.88" fill="#00a0f0"/><circle cx="20.16" cy="10.08" r="2.88" fill="#eee"/><circle cx="8.64" cy="24.48" r="2.88" fill="#eee"/><circle cx="20.16" cy="24.48" r="2.88" fill="#eee"/><circle cx="31.68" cy="24.48" r="2.88" fill="#eee"/><circle cx="14.4" cy="17.28" r="2.88" fill="#eee"/><circle cx="2.88" cy="17.28" r="2.88" fill="#eee"/><circle cx="37.44" cy="17.28" r="2.88" fill="#eee"/><path d="M68.955,6.151H65.006a.329.329,0,0,0-.329.329v9.134H54.144V6.48a.329.329,0,0,0-.329-.329h-3.95a.329.329,0,0,0-.329.329V29.52a.329.329,0,0,0,.329.329h3.95a.329.329,0,0,0,.329-.329V19.07H64.677V29.52a.329.329,0,0,0,.329.329h3.949a.329.329,0,0,0,.33-.329V6.48A.329.329,0,0,0,68.955,6.151Z" fill="#141419"/><path d="M91.173,12.734h-3.95a.329.329,0,0,0-.329.329v.847a7.535,7.535,0,0,0-4.937-1.835h0a8.887,8.887,0,0,0-8.887,8.887v.659a8.886,8.886,0,0,0,8.887,8.886h0a7.539,7.539,0,0,0,4.937-1.834v.847a.329.329,0,0,0,.329.329h3.95a.329.329,0,0,0,.329-.329V13.063A.329.329,0,0,0,91.173,12.734Zm-3.95,10.2a4.114,4.114,0,0,1-4.114,4.114h0a5.43,5.43,0,0,1-5.431-5.43v-.659a5.431,5.431,0,0,1,5.431-5.431h0a4.114,4.114,0,0,1,4.114,4.115Z" fill="#141419"/><path d="M105.819,15.861v-2.8a.329.329,0,0,0-.329-.329h-2.633V9.113a.329.329,0,0,0-.329-.329h-3.95a.329.329,0,0,0-.329.329v3.621H95.616a.329.329,0,0,0-.329.329v2.8a.329.329,0,0,0,.329.329h2.633v8.722a.327.327,0,0,0,.008.07c-.005.086-.008.172-.008.259a4.608,4.608,0,0,0,4.608,4.608h2.633a.329.329,0,0,0,.329-.329v-2.8a.329.329,0,0,0-.329-.329h-1.481a1.152,1.152,0,0,1-1.152-1.152h0V16.19h2.633A.329.329,0,0,0,105.819,15.861Z" fill="#141419"/><path d="M118.656,12.075H118a8.887,8.887,0,0,0-8.887,8.887v.659a8.941,8.941,0,0,0,.11,1.4h0v0a8.865,8.865,0,0,0,.241,1.075c.01.035.019.07.03.105.026.088.056.175.085.262.015.043.029.087.044.13.029.083.061.164.092.246.018.046.036.093.055.139.032.078.066.157.1.234.021.047.042.094.064.14.035.077.071.152.108.227l.071.138c.039.074.078.148.118.221.025.045.051.089.077.133.042.073.084.145.128.217l.079.123c.047.073.093.145.142.216.022.033.045.064.067.1a8.865,8.865,0,0,0,.562.717c.034.04.068.081.1.12.05.057.1.111.155.166s.082.088.124.13.1.1.156.153.09.088.136.131.105.095.159.142.1.086.147.128.107.089.161.133.1.083.158.124l.163.123c.056.041.112.08.169.12s.108.076.163.113.123.079.184.117.106.068.16.1c.07.042.142.082.213.122.047.027.093.054.141.08.118.064.237.125.358.184l.11.05c.088.041.176.082.266.12l.152.061c.077.032.155.063.233.093l.166.058c.076.027.152.053.229.077.057.019.115.036.172.053.077.023.153.045.231.065.058.016.117.031.176.045.078.02.157.038.236.055l.178.037c.08.016.162.03.243.043l.176.029c.086.012.172.022.258.032l.168.02c.1.009.192.015.288.022.048,0,.095.007.143.009.145.007.29.011.437.011h.658a8.858,8.858,0,0,0,6.643-2.99.279.279,0,0,0,.049-.064.329.329,0,0,0-.12-.449h0l-2.293-1.324-.527-.3a.329.329,0,0,0-.411.067h0a4.267,4.267,0,0,1-3.341,1.608H118a4.278,4.278,0,0,1-4.272-4.032H127.1a.381.381,0,0,0,.368-.326l.058-.744c.008-.18.014-.477.014-.658v-.329A8.887,8.887,0,0,0,118.656,12.075Zm-4.93,7.488A4.279,4.279,0,0,1,118,15.531h.658a4.279,4.279,0,0,1,4.271,4.032Z" fill="#141419"/><path d="M148.1,18.236a6.582,6.582,0,0,0-12.492-2.45V13.063a.329.329,0,0,0-.329-.329h-3.95a.329.329,0,0,0-.329.329V29.52a.329.329,0,0,0,.329.329h3.95a.329.329,0,0,0,.329-.329V20.633h0c0-.025,0-.049,0-.075a3.95,3.95,0,0,1,7.9,0c0,.026,0,.05,0,.075h0V29.52a.329.329,0,0,0,.329.329h3.95a.329.329,0,0,0,.329-.329V18.329A.323.323,0,0,0,148.1,18.236Z" fill="#141419"/><path d="M169.015,12.734h-3.95a.329.329,0,0,0-.329.329v.847a7.535,7.535,0,0,0-4.937-1.835h0a8.887,8.887,0,0,0-8.887,8.887v.659a8.886,8.886,0,0,0,8.887,8.886h0a7.539,7.539,0,0,0,4.937-1.834v.847a.329.329,0,0,0,.329.329h3.95a.329.329,0,0,0,.329-.329V13.063A.329.329,0,0,0,169.015,12.734Zm-3.95,10.2a4.114,4.114,0,0,1-4.114,4.114h0a5.43,5.43,0,0,1-5.431-5.43v-.659a5.431,5.431,0,0,1,5.431-5.431h0a4.114,4.114,0,0,1,4.114,4.115Z" fill="#141419"/></svg>