<svg width="96" height="37" viewBox="0 0 96 37" fill="none" xmlns="http://www.w3.org/2000/svg">
<path d="M71.2081 22.158C71.2081 28.9998 68.9988 32.4166 64.5884 32.4166C60.1781 32.4166 57.9688 28.942 57.9688 22.0012C57.9688 15.0603 60.1698 11.5527 64.572 11.5527C65.7136 11.5527 66.6992 11.7591 67.5369 12.18C68.3746 12.6009 69.0645 13.2446 69.6066 14.1194C70.1487 14.9943 70.5511 16.0919 70.8139 17.4207C71.0767 18.7494 71.2163 20.334 71.2163 22.1662L71.2081 22.158ZM67.1755 22.0589C67.1755 19.4014 66.9949 17.5527 66.6253 16.5128C66.2557 15.4564 65.6069 14.9282 64.6788 14.9282C63.7507 14.9282 63.1019 15.4482 62.7077 16.4881C62.3463 17.528 62.1574 19.3437 62.1574 21.9351C62.1574 24.5266 62.3381 26.334 62.7077 27.3657C63.1019 28.4056 63.7589 28.9255 64.6788 28.9255C65.5986 28.9255 66.2393 28.4138 66.6088 27.3822C66.9866 26.4166 67.1755 24.6421 67.1755 22.0507V22.0589Z" fill="#F18705"/>
<path d="M21.191 31.5905H17.2652V18.0967C17.2652 16.7267 17.0599 16.0334 16.6985 15.497C16.3371 14.9605 15.6144 14.6222 14.867 14.6222C14.1196 14.6222 13.3969 14.9275 13.0437 15.398C12.6905 15.8931 12.4688 16.6772 12.4688 17.8986V31.5905H8.54297V19.5163C8.54297 16.6937 8.78115 15.2659 9.21644 14.3168C10.1363 12.4681 12.0171 11.0898 14.8998 11.0898C17.1749 11.0898 18.7435 11.9894 19.7045 13.0788C20.6654 14.1848 21.1828 15.6703 21.1828 18.2453V31.5905H21.191Z" fill="#0079C4"/>
<path d="M56.786 15.2905C55.899 15.2905 55.2337 15.5134 54.8806 15.9838C54.5274 16.479 54.3467 17.3373 54.3467 18.5588V31.5821H50.4209V20.1681C50.4209 17.3456 50.6426 15.4556 51.0779 14.5065C51.9978 12.6578 53.7307 11.7252 56.786 11.7335V15.2823V15.2905Z" fill="#33AD37"/>
<path d="M39.3005 32.3588C39.6865 32.0369 40.245 32.2515 40.245 32.2515C40.6556 32.367 41.0827 32.4248 41.518 32.4248C45.9366 32.4248 48.1377 29.008 48.1377 22.1662C48.1377 20.334 48.0063 18.7494 47.7435 17.4207C47.4806 16.0919 47.0782 14.9943 46.5361 14.1194C45.9941 13.2446 45.3042 12.6009 44.4665 12.18C43.6287 11.7673 42.6432 11.5527 41.5016 11.5527C38.6188 11.5527 37.0255 12.6504 36.1056 14.4908C35.6703 15.4399 35.1365 17.6353 35.1365 20.4578V36.5761H39.0623V33.0933C39.0623 33.0933 39.0623 32.5486 39.3005 32.3505V32.3588ZM43.5384 27.3904C43.177 28.4221 42.5282 28.9338 41.6083 28.9338C40.6885 28.9338 40.0314 28.4138 39.6372 27.3739C39.2676 26.3505 39.0869 25.3354 39.0869 21.9434C39.0869 19.3519 39.2676 17.5362 39.6372 16.4963C40.0314 15.4564 40.6885 14.9365 41.6083 14.9365C42.5282 14.9365 43.1934 15.4647 43.5548 16.5211C43.9162 17.561 44.1051 19.4097 44.1051 22.0672C44.1051 24.7247 43.9162 26.4331 43.5384 27.3987V27.3904Z" fill="#33AD37"/>
<path d="M82.222 5.32117C81.45 4.45459 77.1956 0.18774 76.5221 0.748951C75.9719 1.21112 76.7111 2.27577 76.7111 2.27577L79.0271 5.75858C73.9515 3.62928 63.4306 0.567383 50.3555 0.567383C27.1373 0.575636 12.0171 8.79572 11.2861 9.22488C11.2861 9.22488 28.3528 5.19737 48.3104 5.19737C70.4774 5.19737 86.2874 10.4546 86.2874 10.4546C85.2033 8.76271 83.4375 6.69118 82.2302 5.32942L82.222 5.32117Z" fill="#727171"/>
<path d="M32.5578 23.4366C32.3032 23.0157 31.9336 22.57 31.449 22.0914C30.9644 21.6127 30.3567 21.101 29.6257 20.5398C27.8106 19.1863 26.9154 18.0226 26.9318 17.0652C26.9318 16.7516 27.0058 16.4628 27.1372 16.1821C27.2686 15.9098 27.4493 15.6705 27.6792 15.4724C27.9092 15.2743 28.172 15.1258 28.4759 15.0102C28.7798 14.8947 29.1083 14.8451 29.4615 14.8534C30.4142 14.8699 31.3258 15.1835 32.1882 15.753C32.3935 14.7213 32.6645 13.5081 32.9191 12.6746L32.9356 12.5673C32.0075 11.9483 30.562 11.4531 29.0262 11.4531C27.3261 11.4531 25.9381 11.9153 24.8539 12.9222C23.7945 13.9456 23.2442 15.2661 23.2196 16.8837C23.1949 18.0886 23.4659 19.1285 24.0244 19.9951C24.5993 20.8369 25.6999 21.885 27.3343 23.1313C27.8106 23.5026 28.2049 23.841 28.5252 24.1381C28.8455 24.4352 29.0837 24.6993 29.2315 24.9222C29.5518 25.3843 29.7078 25.9291 29.6996 26.548C29.6668 28.2234 28.7633 29.0405 26.9811 29.0157C26.0941 28.9992 25.166 28.6691 24.1969 28.0336C24.0162 28.9579 23.7534 30.2289 23.4906 31.2275V31.2771C24.6322 31.9373 26.0202 32.383 27.1536 32.3995C28.9933 32.4325 30.4717 31.9208 31.5804 30.8644C32.7056 29.7915 33.2805 28.3555 33.3134 26.548C33.338 25.3018 33.0834 24.2619 32.566 23.4366H32.5578Z" fill="#33AD37"/>
<path d="M5.41343 14.8784C4.69068 15.5717 3.81189 15.9183 2.78526 15.9183C2.34997 15.9183 1.94754 15.844 1.56152 15.7202V31.6652H5.54484L5.56126 14.7051C5.51199 14.7628 5.46271 14.8206 5.41343 14.8784Z" fill="#0079C4"/>
<path d="M3.63962 6.27051C4.42807 6.27051 5.10153 6.54286 5.67645 7.09582C6.25136 7.64052 6.53881 8.30077 6.53881 9.06831C6.53881 9.83584 6.25136 10.5126 5.67645 11.0573C5.10153 11.6103 4.41164 11.8826 3.59034 11.8826C2.76904 11.8826 2.07914 11.6103 1.50423 11.0573C0.945747 10.5209 0.666504 9.85235 0.666504 9.04355C0.666504 8.29252 0.95396 7.64052 1.52887 7.09582C2.15306 6.55111 2.85117 6.27051 3.63962 6.27051Z" fill="#727171"/>
<path d="M82.3777 11.915H81.8274V25.5987C81.8274 26.8201 81.6468 27.6784 81.2936 28.1736C80.9322 28.6441 80.3163 28.8751 79.4292 28.8751C78.5422 28.8751 77.9755 28.611 77.6142 28.0746C77.2528 27.5381 77.0557 26.6551 77.031 25.4006V11.915H73.1052V25.2603C73.1052 27.8353 73.5816 29.6757 74.5425 30.7816C75.5034 31.871 77.1132 32.4157 79.3882 32.4157C82.2792 32.4157 84.1764 31.4914 85.0962 29.6427C85.5315 28.6936 85.7533 26.8036 85.7533 23.9893V12.3607C84.587 12.2039 83.4126 12.0471 82.3777 11.915Z" fill="#F18705"/>
<path d="M94.0238 28.4216C93.6707 27.9264 93.49 27.0681 93.49 25.8466V15.2166H95.6089V11.9154H93.4818V8.51512C91.9377 8.185 90.369 8.00343 89.556 7.9209V9.86038L92.3073 13.2607C92.3073 13.2607 90.0569 12.947 87.4124 12.5839V15.2084H89.556V24.5509H89.5642C89.5806 27.1919 89.7941 28.9745 90.2212 29.8824C91.0097 31.467 92.4059 32.3748 94.7219 32.5977C94.9601 31.6403 95.3215 30.2373 95.6746 29.0901C94.9191 29.0488 94.3441 28.8342 94.0238 28.4133V28.4216Z" fill="#F18705"/>
</svg>
