<?xml version="1.0" encoding="UTF-8"?>
<svg id="_レイヤー_2" data-name="レイヤー 2" xmlns="http://www.w3.org/2000/svg" viewBox="0 0 115.67 43.62">
  <defs>
    <style>
      .cls-1 {
        fill: #727171;
      }

      .cls-2 {
        fill: #33ad37;
      }

      .cls-3 {
        fill: #f18705;
      }

      .cls-4 {
        fill: #0079c4;
      }
    </style>
  </defs>
  <g id="_レイヤー_1-2" data-name="レイヤー 1">
    <path class="cls-3" d="M85.88,26.15c0,8.29-2.69,12.43-8.06,12.43s-8.06-4.21-8.06-12.62,2.68-12.66,8.04-12.66c1.39,0,2.59.25,3.61.76,1.02.51,1.86,1.29,2.52,2.35.66,1.06,1.15,2.39,1.47,4,.32,1.61.49,3.53.49,5.75ZM80.97,26.03c0-3.22-.22-5.46-.67-6.72-.45-1.28-1.24-1.92-2.37-1.92s-1.92.63-2.4,1.89c-.44,1.26-.67,3.46-.67,6.6s.22,5.33.67,6.58c.48,1.26,1.28,1.89,2.4,1.89s1.9-.62,2.35-1.87c.46-1.17.69-3.32.69-6.46Z"/>
    <path class="cls-4" d="M24.98,37.58h-4.78v-16.35c0-1.66-.25-2.5-.69-3.15-.44-.65-1.32-1.06-2.23-1.06s-1.79.37-2.22.94c-.43.6-.7,1.55-.7,3.03v16.59h-4.78v-14.63c0-3.42.29-5.15.82-6.3,1.12-2.24,3.41-3.91,6.92-3.91,2.77,0,4.68,1.09,5.85,2.41,1.17,1.34,1.8,3.14,1.8,6.26v16.17Z"/>
    <path class="cls-2" d="M68.32,17.83c-1.08,0-1.89.27-2.32.84-.43.6-.65,1.64-.65,3.12v15.78h-4.78v-13.83c0-3.42.27-5.71.8-6.86,1.12-2.24,3.23-3.37,6.95-3.36v4.3Z"/>
    <path class="cls-2" d="M47.03,38.51c.47-.39,1.15-.13,1.15-.13.5.14,1.02.21,1.55.21,5.38,0,8.06-4.14,8.06-12.43,0-2.22-.16-4.14-.48-5.75-.32-1.61-.81-2.94-1.47-4-.66-1.06-1.5-1.84-2.52-2.35-1.02-.5-2.22-.76-3.61-.76-3.51,0-5.45,1.33-6.57,3.56-.53,1.15-1.18,3.81-1.18,7.23v19.53h4.78v-4.22s0-.66.29-.9ZM52.19,32.49c-.44,1.25-1.23,1.87-2.35,1.87s-1.92-.63-2.4-1.89c-.45-1.24-.67-2.47-.67-6.58,0-3.14.22-5.34.67-6.6.48-1.26,1.28-1.89,2.4-1.89s1.93.64,2.37,1.92c.44,1.26.67,3.5.67,6.72s-.23,5.29-.69,6.46Z"/>
    <path class="cls-1" d="M99.29,5.75c-.94-1.05-6.12-6.22-6.94-5.54-.67.56.23,1.85.23,1.85l2.82,4.22c-6.18-2.58-18.99-6.29-34.91-6.29C32.22,0,13.81,9.96,12.92,10.48c0,0,20.78-4.88,45.08-4.88,26.99,0,46.24,6.37,46.24,6.37-1.32-2.05-3.47-4.56-4.94-6.21Z"/>
    <path class="cls-2" d="M38.82,27.7c-.31-.51-.76-1.05-1.35-1.63-.59-.58-1.33-1.2-2.22-1.88-2.21-1.64-3.3-3.05-3.28-4.21,0-.38.09-.73.25-1.07.16-.33.38-.62.66-.86.28-.24.6-.42.97-.56.37-.14.77-.2,1.2-.19,1.16.02,2.27.4,3.32,1.09.25-1.25.58-2.72.89-3.73l.02-.13c-1.13-.75-2.89-1.35-4.76-1.35-2.07,0-3.76.56-5.08,1.78-1.29,1.24-1.96,2.84-1.99,4.8-.03,1.46.3,2.72.98,3.77.7,1.02,2.04,2.29,4.03,3.8.58.45,1.06.86,1.45,1.22.39.36.68.68.86.95.39.56.58,1.22.57,1.97-.04,2.03-1.14,3.02-3.31,2.99-1.08-.02-2.21-.42-3.39-1.19-.22,1.12-.54,2.66-.86,3.87v.06c1.39.8,3.08,1.34,4.46,1.36,2.24.04,4.04-.58,5.39-1.86,1.37-1.3,2.07-3.04,2.11-5.23.03-1.51-.28-2.77-.91-3.77Z"/>
    <path class="cls-4" d="M5.77,17.33c-.88.84-1.95,1.26-3.2,1.26-.53,0-1.02-.09-1.49-.24v19.32h4.85l.02-20.55c-.06.07-.12.14-.18.21Z"/>
    <path class="cls-1" d="M3.61,6.9c.96,0,1.78.33,2.48,1,.7.66,1.05,1.46,1.05,2.39s-.35,1.75-1.05,2.41c-.7.67-1.54,1-2.54,1s-1.84-.33-2.54-1c-.68-.65-1.02-1.46-1.02-2.44,0-.91.35-1.7,1.05-2.36.76-.66,1.61-1,2.57-1Z"/>
    <path class="cls-3" d="M99.48,13.74h-.67v16.58c0,1.48-.22,2.52-.65,3.12-.44.57-1.19.85-2.27.85s-1.77-.32-2.21-.97c-.44-.65-.68-1.72-.71-3.24V13.74h-4.78v16.17c0,3.12.58,5.35,1.75,6.69,1.17,1.32,3.13,1.98,5.9,1.98,3.52,0,5.83-1.12,6.95-3.36.53-1.15.8-3.44.8-6.85v-14.09c-1.42-.19-2.85-.38-4.11-.54Z"/>
    <path class="cls-3" d="M113.66,33.74c-.43-.6-.65-1.64-.65-3.12v-12.88h2.58v-4h-2.59v-4.12c-1.88-.4-3.79-.62-4.78-.72v2.35l3.35,4.12s-2.74-.38-5.96-.82v3.18h2.61v11.32h.01c.02,3.2.28,5.36.8,6.46.96,1.92,2.66,3.02,5.48,3.29.29-1.16.73-2.86,1.16-4.25-.92-.05-1.62-.31-2.01-.82Z"/>
  </g>
</svg>