<?xml version="1.0" encoding="UTF-8"?>
<svg id="_レイヤー_2" data-name="レイヤー 2" xmlns="http://www.w3.org/2000/svg" xmlns:xlink="http://www.w3.org/1999/xlink" viewBox="0 0 412.82 171.02">
  <defs>
    <style>
      .cls-1 {
        fill: #231e1f;
      }

      .cls-2 {
        fill: #e55634;
      }

      .cls-3 {
        fill: #7f8186;
      }

      .cls-4 {
        fill: url(#_무제_그라디언트_22);
      }
    </style>
    <linearGradient id="_무제_그라디언트_22" data-name="무제 그라디언트 22" x1="54.07" y1="22.89" x2="54.07" y2="107.75" gradientUnits="userSpaceOnUse">
      <stop offset="0" stop-color="#e0522a"/>
      <stop offset="1" stop-color="#ecc13a"/>
    </linearGradient>
  </defs>
  <g id="_레이어_1" data-name="레이어 1">
    <g>
      <g>
        <path class="cls-1" d="M129.73,57.33c-.64,0-1.48.4-2.62,1.25-1.11.83-1.79,1.6-2.07,2.34-.26.69-.49,1.96-.69,3.87-.27,2.62-.71,5.7-1.31,9.15-.82,4.61-1.32,8.41-1.48,11.27-.08,1.05-.19,2.13-.32,3.2-.17,1.11-.28,2.21-.33,3.26-.05.59-.27,2.33-.65,5.19-1.09,7.65-1.65,13.73-1.65,18.07s.3,7.27.88,9.17c.64,2.09,1.84,3.14,3.55,3.14,1.18,0,2.35-.59,3.48-1.77,1.14-1.18,1.58-3.09,1.29-5.67-.46-4.14-.69-8.43-.69-12.73,0-2.86.55-8.27,1.64-16.09.25-1.87.45-3.63.62-5.23.24-2.34.76-5.27,1.55-8.71,1.69-7.47,2.59-11.7,2.76-12.92v-.07c0-1.73-.3-3.27-.9-4.57-.66-1.43-1.68-2.16-3.04-2.16Z"/>
        <path class="cls-1" d="M166.39,75.34c-6.77,0-12.65,3.97-17.47,11.8-4.77,7.75-7.19,15.74-7.19,23.74,0,4.8,1.26,8.89,3.75,12.17,2.52,3.32,5.77,5,9.67,5,6.2,0,12.23-3.51,17.92-10.43,5.67-6.89,8.54-14.48,8.54-22.57,0-5.31-1.4-9.96-4.17-13.82-2.81-3.91-6.53-5.89-11.05-5.89ZM173.73,95.92c0,6.01-2.03,11.55-6.04,16.46-3.98,4.89-7.98,7.36-11.88,7.36-1.74,0-3.11-.89-4.18-2.71-1.11-1.88-1.67-4.36-1.67-7.36,0-5.4,1.57-11.17,4.68-17.15,3.05-5.87,6.72-8.85,10.9-8.85,2.5,0,4.43,1.08,5.92,3.31,1.51,2.26,2.27,5.26,2.27,8.93Z"/>
        <path class="cls-1" d="M250.07,63.69c0-.56-.19-1.3-.57-2.28-.41-1.05-.99-1.7-1.72-1.95-.62-.21-1.63-.42-3.08-.64-1.43-.22-2.95-.33-4.52-.33-3.1,0-6.41.27-9.84.79-8.97,1.38-15.7,2.28-20.01,2.7-4.3.41-9.22.64-14.62.67-6.07.09-7.6.55-8.21.89-1.06.58-1.59,1.68-1.59,3.25,0,1,.17,1.85.5,2.53l.07.1c.98,1.18,2.99,1.75,6.13,1.75,1.98,0,5.32-.25,9.93-.74,4.58-.46,7.73-.69,9.34-.69.73,0,1.02.3,1.02,1.04,0,.08-.06.61-.16,1.58-2.26,19.41-3.41,32.65-3.41,39.34,0,7.24.49,11.55,1.49,13.19,1.04,1.69,2.37,2.55,3.97,2.55,1.11,0,2.06-.63,2.81-1.88.7-1.17,1.06-2.49,1.06-3.93,0-.13-.03-.38-.17-1.21-.67-3.21-1.01-6.08-1.01-8.53,0-5.36.5-13.6,1.5-24.51,1.23-13.55,1.83-17.19,2.11-17.85.16-.38,1.09-1.32,6.22-1.89,7.79-.87,13.34-.74,16.48-.44,1.58.19,2.84.28,3.75.28,1.16,0,2.55-.66,2.55-3.78Z"/>
        <path class="cls-1" d="M278.82,75.84c-1.23,0-2.53.27-3.84.8-1.3.53-2.76,1.46-4.34,2.78-1.57,1.31-3.32,3.25-5.21,5.76-1.88,2.5-3.62,5.15-5.18,7.88-1.56,2.73-3.29,6.54-5.15,11.32v-.41c.28-5.57.55-9.06.82-10.36.22-1.16.38-2.28.46-3.31.1-.9.47-2.57,1.1-4.97.55-2.21.83-3.96.83-5.2,0-.93-.29-1.81-.85-2.62-.6-.86-1.51-1.3-2.69-1.3s-2.25.45-3.23,1.33c-.95.86-1.59,1.8-1.91,2.81-.3.97-.54,2.62-.74,5.04-.19,2.14-.33,3.51-.41,4.08-.49,3.57-.83,8.33-.99,14.13-.14,4.87-.21,8.09-.21,9.57,0,5.34.31,9.21.92,11.49.66,2.48,1.81,3.74,3.4,3.74s2.73-.44,3.59-1.3c.85-.86,1.41-2.51,1.7-5.05,1.08-9.2,4.14-17.75,9.11-25.41,4.91-7.57,8.74-11.41,11.39-11.41.91,0,1.82.52,2.7,1.53,1.05,1.25,2.24,1.89,3.54,1.89s2.22-.46,2.85-1.37c.59-.85.89-1.81.89-2.87,0-2.28-.8-4.29-2.39-6-1.6-1.71-3.68-2.58-6.19-2.58Z"/>
        <path class="cls-1" d="M325.58,107c0-5.93.82-12.32,2.44-18.98.71-2.59.8-3.23.8-3.5,0-3.85-1.79-4.65-3.29-4.65-1.4,0-2.53.63-3.35,1.86-.76,1.14-1.7,3.5-2.87,7.21-2.89,8.98-6.41,16.07-10.45,21.07-3.98,4.93-7.26,7.43-9.74,7.43-1.74,0-2.62-2.38-2.62-7.07,0-5.46,1.28-12.1,3.79-19.74,1.35-4.01,2.04-7.15,2.04-9.35,0-1.09-.38-2.15-1.13-3.14-.78-1.04-1.84-1.56-3.15-1.56-1.91,0-3.32,1.03-4.19,3.07l-.04.2c0,2.6-.73,7.21-2.16,13.7-1.72,7.85-2.59,13.88-2.59,17.93,0,5.02.98,8.8,2.92,11.25,1.96,2.49,3.95,3.75,5.91,3.75,3.27,0,6.82-1.88,10.56-5.59,3.34-3.31,6.65-7.9,9.85-13.68v1c0,6.28.6,11.1,1.79,14.34,1.25,3.4,2.97,5.13,5.1,5.13,1,0,2.1-.38,3.28-1.14,1.25-.8,1.89-1.74,1.89-2.78,0-.85-.58-1.87-1.79-3.12-2-2.02-3.01-6.61-3.01-13.64Z"/>
        <path class="cls-1" d="M354.48,84.12c5.1-2.74,7.21-3.31,8.09-3.31.05,0,.35.03,1.49.59,1.26.67,1.73.75,2,.75.55,0,1.2-.37,2.04-1.15.83-.77,1.25-1.72,1.25-2.81,0-2.27-.56-3.9-1.67-4.86-1.09-.94-2.82-1.41-5.15-1.41-3.54,0-8.13,2.07-13.65,6.15-5.56,4.11-8.39,9.37-8.39,15.64,0,2.5,1.04,4.78,3.08,6.8,1.97,1.94,5.8,4.55,11.36,7.76,4.1,2.4,6.23,4.51,6.31,6.29-.8,1.51-2.84,2.82-6.09,3.88-3.4,1.12-6.64,1.68-9.61,1.68-.17,0-.68-.06-2.09-.44-1.22-.33-2.01-.48-2.47-.48-1.09,0-2.19.3-3.26.89-1.16.65-1.75,1.66-1.75,3.02,0,2.54,1.24,5.58,7.14,5.58,5.3,0,10.93-1.36,16.74-4.04,5.93-2.74,8.94-6.61,8.94-11.51,0-2.68-.98-5.04-2.91-7.02-1.87-1.92-4.4-3.75-7.53-5.42-3.77-2-6.41-3.71-7.85-5.07-1.38-1.31-2.06-2.73-2.06-4.32,0-2.62,2.02-5.03,6.01-7.18Z"/>
        <path class="cls-1" d="M411.81,77.57c-.65-.51-2-.75-4.25-.75-1.65,0-3.74.16-6.22.47-2.26.31-4.7.58-7.24.81l2.21-9.01c1.32-5.33,1.49-6.39,1.49-6.72,0-.9-.36-1.87-1.08-2.88-.75-1.06-1.81-1.6-3.16-1.6-2.18,0-3.64,1.77-4.35,5.25-.65,3.22-1.41,6.54-2.25,9.88-1.03,4.06-1.57,5.35-1.84,5.71-.34.46-.71.68-1.12.68h-8.45c-1.88,0-2.92,1.13-2.92,3.18,0,2.38,1,5.21,5.79,5.21h0l4.22-.41c.48,0,.48.12.48.19,0,1.28-.67,5.26-2,11.81-1.37,6.65-2.06,11.63-2.06,14.83,0,9.06,3.51,13.66,10.43,13.66,4.08,0,8.1-1.82,11.97-5.42,3.93-3.66,5.84-6.59,5.84-8.98s-1.42-2.62-2.26-2.62c-1.02,0-2.36.85-4.08,2.58-4.07,3.86-7.25,5.82-9.46,5.82-1.43,0-2.46-.48-3.16-1.47-.73-1.03-1.1-3.21-1.1-6.47,0-2.05.7-6.6,2.08-13.54,1.75-8.78,2.26-10.54,2.35-10.74.12-.09.83-.44,5.1-1.07,3.32-.49,6.99-.88,10.91-1.15,4.21-.29,5.1-2.64,5.1-4.56,0-1.23-.34-2.12-1.01-2.65Z"/>
      </g>
      <g>
        <path class="cls-3" d="M41.95,161.76c.08-.38.15-1.06.19-2.04.18-2.69.5-5.5.98-8.44.12-.62.18-1.09.18-1.41,0-.14-.06-.22-.18-.25-.81-.21-1.21-.57-1.21-1.08,0-.37.17-.72.5-1.05s.68-.49,1.06-.49l1.54.05c.7,0,1.67-.05,2.89-.15,1.04-.09,1.9-.14,2.55-.14,2.13,0,3.85.6,5.16,1.81s1.97,2.81,1.97,4.8c0,2.22-1.01,4.24-3.04,6.03-2.03,1.8-4.48,3.02-7.37,3.68-.76.17-1.3.32-1.61.44s-.68.32-1.1.59c-.52.36-1.03.54-1.53.54-.39,0-.74-.19-1.04-.57s-.46-.69-.46-.93c0-.16.08-.4.24-.71l.26-.7ZM44.94,161.18c.4,0,1.56-.3,3.47-.9s3.46-1.52,4.65-2.76c1.19-1.24,1.78-2.66,1.78-4.25,0-1.27-.44-2.29-1.32-3.04-.88-.75-2.03-1.13-3.46-1.13-.98,0-2.15.09-3.52.28-.18.02-.32.04-.42.05-.83,5.16-1.25,8.8-1.25,10.93,0,.39.02.67.07.83Z"/>
        <path class="cls-3" d="M69.85,159.64c0,.8-.67,1.76-2,2.88-1.33,1.12-2.84,1.67-4.52,1.67-1.29,0-2.3-.41-3.04-1.23s-1.11-1.97-1.11-3.44c0-2.16.75-4.19,2.26-6.08,1.51-1.89,3.12-2.84,4.84-2.84.85,0,1.54.27,2.06.82.52.55.78,1.2.78,1.96,0,1.34-.64,2.62-1.91,3.84s-2.91,2.06-4.9,2.52c-.23.05-.34.19-.34.42,0,.37.16.72.49,1.06s.76.5,1.3.5c1.53,0,3.05-.8,4.56-2.4.29-.31.57-.46.85-.46.46,0,.69.26.69.78ZM62.18,157.59c1.2-.25,2.27-.77,3.19-1.56s1.38-1.52,1.38-2.17c0-.25-.07-.47-.21-.64s-.32-.26-.54-.26c-.66,0-1.4.49-2.21,1.48s-1.34,2.04-1.6,3.15Z"/>
        <path class="cls-3" d="M75.94,144.01c.82,0,1.24.46,1.24,1.37,0,.42-.06.87-.17,1.35s-.43,1.68-.94,3.59c-.37,1.38-.66,2.89-.85,4.52-.19,1.63-.29,2.91-.29,3.83,0,.98.07,2.15.22,3.5.04.36.06.59.06.68,0,.46-.17.86-.5,1.19s-.7.5-1.1.5c-.54,0-.92-.26-1.14-.78s-.33-1.41-.33-2.67c0-2.71.31-5.91.94-9.58.63-3.68,1.14-5.85,1.54-6.51.4-.66.84-1,1.33-1Z"/>
        <path class="cls-3" d="M79.22,155.93h0c.24-1.39.37-2.2.37-2.4,0-.57.12-1.05.37-1.44s.59-.58,1.04-.58c.52,0,.92.12,1.21.37s.43.53.43.83-.14.95-.42,1.91l-.07.25c-.42,1.49-.67,2.71-.75,3.65-.08.94-.13,1.7-.13,2.28,0,.47.08,1.1.24,1.89.02.14.03.25.03.35,0,.18-.17.42-.5.72s-.69.45-1.07.45c-1.01,0-1.51-.77-1.51-2.32,0-1.31.18-2.91.55-4.8.08-.42.14-.81.21-1.18ZM84.74,146.41c0,.55-.24,1.03-.73,1.44s-.91.62-1.27.62c-.46,0-.86-.19-1.22-.58s-.53-.77-.53-1.16c0-.56.18-1.01.53-1.35s.85-.52,1.51-.52c.51,0,.92.15,1.24.46s.47.67.47,1.08Z"/>
        <path class="cls-3" d="M87.24,163.51c0-.51-.29-1.61-.9-3.29-1.23-3.33-1.84-5.7-1.84-7.11,0-1.27.49-1.9,1.48-1.9s1.44.58,1.44,1.74c0,.74.02,1.27.05,1.58s.15.88.35,1.7.4,1.51.6,2.06c.11.33.25.76.41,1.3.09.33.17.56.24.7.05-.07.21-.37.48-.9.16-.32.7-1.25,1.62-2.76.92-1.52,1.73-2.73,2.43-3.63s1.22-1.46,1.56-1.66.71-.3,1.09-.3.72.13.98.39c.26.26.38.58.38.96,0,.45-.32.89-.96,1.32-.63.43-1.48,1.42-2.56,2.97-1.08,1.54-2.24,3.49-3.48,5.83-.7,1.34-1.33,2-1.89,2-.48,0-.98-.33-1.49-.98Z"/>
        <path class="cls-3" d="M108.11,159.64c0,.8-.67,1.76-2,2.88-1.33,1.12-2.84,1.67-4.52,1.67-1.29,0-2.3-.41-3.04-1.23s-1.11-1.97-1.11-3.44c0-2.16.75-4.19,2.26-6.08,1.51-1.89,3.12-2.84,4.84-2.84.85,0,1.54.27,2.06.82.52.55.78,1.2.78,1.96,0,1.34-.64,2.62-1.91,3.84s-2.91,2.06-4.9,2.52c-.23.05-.34.19-.34.42,0,.37.16.72.49,1.06s.76.5,1.3.5c1.53,0,3.05-.8,4.56-2.4.29-.31.57-.46.85-.46.46,0,.69.26.69.78ZM100.44,157.59c1.2-.25,2.27-.77,3.19-1.56s1.38-1.52,1.38-2.17c0-.25-.07-.47-.21-.64s-.32-.26-.54-.26c-.66,0-1.4.49-2.21,1.48-.81.99-1.34,2.04-1.6,3.15Z"/>
        <path class="cls-3" d="M112.87,157.88l.19-.37c.92-1.88,1.92-3.4,2.98-4.57,1.06-1.17,2.1-1.76,3.12-1.76.78,0,1.41.22,1.9.65s.74.95.74,1.54c0,.37-.08.69-.25.96s-.4.4-.7.4c-.47,0-.9-.2-1.29-.59-.27-.25-.49-.38-.65-.38-.57,0-1.53.9-2.87,2.7-1.34,1.8-2.15,3.82-2.43,6.07-.08.65-.27,1.1-.56,1.36s-.68.39-1.18.39c-.53,0-.9-.3-1.12-.91s-.33-1.6-.33-2.97c0-.56.02-1.32.05-2.28.03-.9.12-2.01.26-3.31.04-.34.06-.61.08-.8.07-.76.15-1.28.23-1.56s.29-.55.61-.79.67-.37,1.06-.37c.41,0,.72.12.94.36s.32.5.32.79c0,.36-.17,1.12-.51,2.26-.12.39-.22.87-.31,1.41l-.29,1.78Z"/>
        <path class="cls-3" d="M122.94,155.93h0c.24-1.39.37-2.2.37-2.4,0-.57.12-1.05.37-1.44s.59-.58,1.04-.58c.52,0,.92.12,1.21.37s.43.53.43.83-.14.95-.42,1.91l-.07.25c-.42,1.49-.67,2.71-.75,3.65s-.13,1.7-.13,2.28c0,.47.08,1.1.24,1.89.02.14.03.25.03.35,0,.18-.17.42-.5.72s-.69.45-1.07.45c-1.01,0-1.51-.77-1.51-2.32,0-1.31.18-2.91.55-4.8.08-.42.14-.81.21-1.18ZM128.46,146.41c0,.55-.24,1.03-.73,1.44s-.91.62-1.27.62c-.46,0-.86-.19-1.22-.58s-.53-.77-.53-1.16c0-.56.18-1.01.53-1.35s.85-.52,1.51-.52c.51,0,.92.15,1.24.46s.47.67.47,1.08Z"/>
        <path class="cls-3" d="M138.46,161.94c-.37-.7-.63-1.99-.8-3.89-.17-1.98-.54-2.97-1.12-2.97-.55,0-1.5,1.03-2.85,3.09-1.35,2.06-2.18,3.58-2.49,4.56-.07.29-.2.54-.38.73s-.37.29-.55.29c-1.16,0-1.74-.54-1.74-1.61,0-.36.11-1.19.34-2.48.3-1.67.45-3.71.45-6.12,0-.36.16-.75.47-1.16s.64-.62,1-.62c.44,0,.78.11,1.02.34s.35.82.35,1.78c0,.73-.22,2.16-.65,4.26,1.65-3.92,3.5-5.89,5.54-5.89,1.77,0,2.81,1.41,3.11,4.23.31,2.87.66,4.31,1.05,4.31.18,0,.38-.04.61-.12.27-.09.49-.14.65-.14.37,0,.55.22.55.65,0,.39-.25.81-.75,1.26s-1.14.67-1.9.67c-.88,0-1.52-.39-1.9-1.17h.01Z"/>
        <path class="cls-3" d="M152.18,160.08c-.85.97-1.83,1.76-2.96,2.38-1.12.62-2.1.93-2.91.93s-1.44-.24-1.88-.72-.67-1.14-.67-1.98c0-1.2.45-2.53,1.34-4,.9-1.47,2.14-2.74,3.73-3.83,1.59-1.09,3.02-1.63,4.3-1.63.7,0,1.31.19,1.82.58.12.09.23.17.32.23.18.13.35.37.51.72s.23.64.23.85c0,.14-.14.61-.43,1.4-.3.83-.51,1.63-.62,2.4s-.35,2.71-.7,5.81c-.31,2.7-1.06,4.67-2.23,5.91-1.17,1.24-2.48,1.87-3.91,1.87s-2.96-.51-4.38-1.54c-1.41-1.02-2.12-1.87-2.12-2.53,0-.59.28-.88.85-.88.22,0,.67.22,1.35.67,1.74,1.16,3.23,1.74,4.47,1.74.95,0,1.74-.6,2.38-1.8s1.15-3.4,1.52-6.6ZM152.45,153.64c-.56,0-1.3.34-2.22,1.03-.92.68-1.76,1.6-2.54,2.76-.78,1.16-1.17,2.12-1.17,2.89,0,.4.14.6.43.6.98,0,1.96-.4,2.93-1.21s1.75-1.74,2.35-2.79c.6-1.05.9-1.85.9-2.39,0-.27-.07-.49-.21-.65s-.3-.24-.48-.24Z"/>
        <path class="cls-3" d="M176.13,149.89c-.07.06-.13.24-.18.52s-.21,1.61-.46,3.99c-.26,2.37-.38,4.27-.38,5.69,0,.59.07,1.24.21,1.97.04.11.06.23.06.37,0,.42-.12.79-.36,1.12s-.55.5-.92.5c-.25,0-.57-.13-.96-.38s-.62-.68-.69-1.28-.11-1.39-.11-2.35c0-1.32.15-3.29.46-5.9s.49-3.94.55-4c-.21,0-1.07.06-2.56.17-1.5.12-2.38.17-2.62.17-.79,0-1.33-.1-1.64-.31s-.46-.53-.46-.97c0-.39.16-.7.49-.9s1.15-.31,2.47-.31c2.2,0,4.35-.15,6.46-.44,2.38-.37,4.18-.56,5.41-.56,1.37,0,2.21.16,2.51.49s.45.65.45.98c0,.75-.33,1.12-.98,1.12-.21,0-.56-.02-1.03-.07-.48-.04-1.04-.06-1.68-.06-1.93,0-3.26.14-4,.42Z"/>
        <path class="cls-3" d="M185.44,157.88l.19-.37c.92-1.88,1.92-3.4,2.98-4.57,1.06-1.17,2.1-1.76,3.12-1.76.78,0,1.41.22,1.9.65s.74.95.74,1.54c0,.37-.08.69-.25.96s-.4.4-.7.4c-.47,0-.9-.2-1.29-.59-.27-.25-.49-.38-.65-.38-.57,0-1.53.9-2.87,2.7s-2.15,3.82-2.43,6.07c-.08.65-.27,1.1-.56,1.36s-.68.39-1.18.39c-.53,0-.9-.3-1.12-.91s-.33-1.6-.33-2.97c0-.56.02-1.32.05-2.28.03-.9.12-2.01.26-3.31.04-.34.06-.61.08-.8.07-.76.15-1.28.23-1.56s.29-.55.61-.79.67-.37,1.06-.37c.41,0,.72.12.94.36s.32.5.32.79c0,.36-.17,1.12-.51,2.26-.12.39-.22.87-.31,1.41l-.29,1.78Z"/>
        <path class="cls-3" d="M202.75,159.39c-.73,1.35-1.58,2.43-2.55,3.22-.96.8-1.94,1.19-2.93,1.19-.59,0-1.18-.31-1.78-.94s-.9-1.59-.9-2.89c0-.92.23-2.31.69-4.16.4-1.53.59-2.69.59-3.49.31-.65.78-.97,1.43-.97.44,0,.79.15,1.06.45s.39.6.39.9c0,.55-.19,1.33-.57,2.34-.22.6-.46,1.45-.71,2.55-.26,1.1-.38,1.81-.38,2.11,0,1.03.21,1.54.63,1.54.66,0,1.56-.65,2.69-1.94s1.86-2.61,2.21-3.96c.34-1.32.65-2.19.92-2.6s.64-.61,1.13-.61c.79,0,1.19.45,1.19,1.34,0,.13-.06.39-.19.79-.45,1.37-.67,2.91-.67,4.62,0,2.01.34,3.21,1.01,3.6.22.13.33.29.33.49,0,.28-.19.54-.58.79s-.76.37-1.11.37c-.6,0-1.07-.43-1.39-1.29s-.49-2.02-.49-3.47Z"/>
        <path class="cls-3" d="M214.32,160.68c-.03-.42-.69-.93-1.97-1.53-1.57-.76-2.57-1.42-3.01-1.98s-.65-1.15-.65-1.8c0-1.37.76-2.56,2.27-3.59,1.51-1.02,2.93-1.54,4.24-1.54s1.93.57,1.93,1.7c0,.3-.15.57-.44.81s-.54.36-.75.36c-.08,0-.23-.05-.45-.16s-.38-.16-.49-.16c-.68,0-1.43.23-2.24.7-.82.46-1.22,1-1.22,1.62,0,.3.14.59.43.87s.88.64,1.77,1.06c1.32.63,2.19,1.21,2.61,1.71s.63,1.07.63,1.69c0,1.13-.75,2.07-2.26,2.82s-3.2,1.13-5.07,1.13c-1.38,0-2.07-.51-2.07-1.52,0-.37.14-.69.43-.95s.61-.39.97-.39c.14,0,.37.05.67.16.31.12.59.17.85.17.72,0,1.47-.12,2.25-.35s1.3-.52,1.56-.86Z"/>
        <path class="cls-3" d="M223.5,154.22c-.07,0-.28.86-.65,2.58s-.54,2.77-.54,3.13c0,.63.07,1.08.2,1.33s.35.38.66.38c.43,0,.84-.08,1.23-.23s.91-.49,1.55-1.01c.4-.33.73-.5,1.01-.5.22,0,.4.06.53.19s.2.28.2.45c0,.68-.54,1.45-1.62,2.31-1.08.86-2.23,1.29-3.43,1.29-1.01,0-1.77-.3-2.3-.9s-.79-1.47-.79-2.6c0-1.04.39-3.12,1.16-6.25-.49.05-.83.08-1.02.08h-.24c-.35,0-.71-.12-1.07-.35s-.54-.6-.54-1.11c0-.65.36-.97,1.09-.97l2.45-.09c.32-.93.66-2.16,1.02-3.67.21-.94.7-1.41,1.45-1.41.42,0,.75.13.98.39s.35.55.35.86c0,.12-.32,1.32-.97,3.58,2.43-.22,3.76-.32,3.99-.32.4,0,.67.06.8.18s.19.35.19.69c0,.69-.58,1.12-1.73,1.31l-3.95.67Z"/>
        <path class="cls-3" d="M240,159.64c0,.8-.67,1.76-2,2.88-1.33,1.12-2.84,1.67-4.52,1.67-1.29,0-2.3-.41-3.04-1.23s-1.11-1.97-1.11-3.44c0-2.16.75-4.19,2.26-6.08,1.51-1.89,3.12-2.84,4.84-2.84.85,0,1.54.27,2.06.82.52.55.78,1.2.78,1.96,0,1.34-.64,2.62-1.91,3.84-1.27,1.22-2.91,2.06-4.9,2.52-.23.05-.34.19-.34.42,0,.37.16.72.49,1.06s.76.5,1.3.5c1.53,0,3.05-.8,4.56-2.4.29-.31.57-.46.85-.46.46,0,.69.26.69.78ZM232.33,157.59c1.2-.25,2.27-.77,3.19-1.56s1.38-1.52,1.38-2.17c0-.25-.07-.47-.21-.64s-.32-.26-.54-.26c-.66,0-1.4.49-2.21,1.48-.81.99-1.34,2.04-1.6,3.15Z"/>
        <path class="cls-3" d="M249.99,159.76c-1.98,2.83-3.96,4.25-5.96,4.25-.81,0-1.46-.32-1.96-.97s-.74-1.47-.74-2.46c0-2.02.81-4.02,2.44-6.01s3.28-2.99,4.95-2.99c.96,0,1.64.25,2.05.76.57-2.53.91-4.12,1.02-4.75.23-1.17.42-1.95.57-2.34s.39-.69.7-.9.58-.32.81-.32c.39,0,.69.16.89.49s.31.73.31,1.23c0,.22-.17.84-.5,1.87-.55,1.67-1.06,3.68-1.53,6.05-.47,2.36-.7,4.24-.7,5.64s.29,2,.87,2c.3,0,.61-.08.95-.24.34-.15.57-.23.71-.23.37,0,.56.22.56.66,0,.53-.38,1.06-1.14,1.59s-1.48.79-2.16.79c-.73,0-1.3-.4-1.69-1.19-.4-.8-.55-1.77-.45-2.93ZM248.72,153.81c-1,0-2.04.77-3.13,2.32-1.09,1.54-1.63,2.96-1.63,4.24,0,.75.27,1.12.82,1.12.93,0,2.04-.84,3.33-2.51s1.93-3,1.93-3.97c0-.29-.12-.57-.37-.82s-.56-.38-.96-.38Z"/>
        <path class="cls-3" d="M278.68,159.61c.58,0,.87.29.87.86,0,.71-.84,1.59-2.52,2.62s-3.31,1.56-4.88,1.56c-1.39,0-2.67-.46-3.83-1.38-1.17-.92-1.75-2.26-1.75-4.02s.61-3.78,1.83-5.97c1.22-2.19,2.73-3.97,4.54-5.34,1.8-1.38,3.56-2.06,5.28-2.06,1.02,0,1.84.31,2.45.93.61.62.92,1.34.92,2.17,0,.9-.07,1.54-.21,1.93s-.43.72-.88,1-.82.42-1.1.42-.54-.1-.75-.31-.32-.49-.32-.85c0-.25.06-.61.19-1.08.12-.47.18-.87.18-1.18,0-.53-.18-.8-.54-.8-1.1,0-2.33.59-3.69,1.78-1.37,1.19-2.53,2.67-3.51,4.43-.97,1.77-1.46,3.32-1.46,4.68,0,.9.26,1.65.77,2.27s1.26.93,2.24.93c.58,0,1.31-.16,2.19-.48s1.69-.75,2.44-1.29c.75-.55,1.27-.82,1.54-.82Z"/>
        <path class="cls-3" d="M293.4,157.75c-.51,1.81-1.48,3.33-2.91,4.57-1.43,1.24-2.86,1.86-4.28,1.86-1.13,0-2.06-.42-2.79-1.26-.73-.84-1.1-1.87-1.1-3.09,0-1.99.67-3.96,2.01-5.89,1.34-1.93,2.97-2.9,4.88-2.9,1.3,0,2.36.49,3.17,1.47.81.98,1.21,2.14,1.21,3.49,0,.59-.06,1.16-.19,1.73h0ZM287.45,154.09c-.53.48-1.06,1.24-1.57,2.29s-.77,2.11-.77,3.16c0,.64.12,1.17.35,1.59s.54.63.92.63c.95,0,1.93-.57,2.95-1.7,1.02-1.14,1.53-2.41,1.53-3.82,0-.8-.17-1.45-.5-1.96s-.79-.77-1.39-.77-1.07.2-1.52.59h-.01Z"/>
        <path class="cls-3" d="M305.4,161.94c-.37-.7-.63-1.99-.8-3.89-.17-1.98-.54-2.97-1.12-2.97-.55,0-1.5,1.03-2.85,3.09s-2.18,3.58-2.49,4.56c-.07.29-.2.54-.38.73s-.37.29-.55.29c-1.16,0-1.74-.54-1.74-1.61,0-.36.11-1.19.34-2.48.3-1.67.45-3.71.45-6.12,0-.36.16-.75.47-1.16s.64-.62,1-.62c.44,0,.78.11,1.02.34s.35.82.35,1.78c0,.73-.22,2.16-.65,4.26,1.65-3.92,3.5-5.89,5.54-5.89,1.77,0,2.81,1.41,3.11,4.23.31,2.87.66,4.31,1.05,4.31.18,0,.38-.04.61-.12.27-.09.49-.14.65-.14.37,0,.55.22.55.65,0,.39-.25.81-.75,1.26s-1.14.67-1.9.67c-.88,0-1.52-.39-1.9-1.17h.01Z"/>
        <path class="cls-3" d="M320.89,161.94c-.37-.7-.63-1.99-.8-3.89-.17-1.98-.54-2.97-1.12-2.97-.55,0-1.5,1.03-2.85,3.09-1.35,2.06-2.18,3.58-2.49,4.56-.07.29-.2.54-.38.73s-.37.29-.55.29c-1.16,0-1.74-.54-1.74-1.61,0-.36.11-1.19.34-2.48.3-1.67.45-3.71.45-6.12,0-.36.16-.75.47-1.16s.64-.62,1-.62c.44,0,.78.11,1.02.34s.35.82.35,1.78c0,.73-.22,2.16-.65,4.26,1.65-3.92,3.5-5.89,5.54-5.89,1.77,0,2.81,1.41,3.11,4.23.31,2.87.66,4.31,1.05,4.31.18,0,.38-.04.61-.12.27-.09.49-.14.65-.14.37,0,.55.22.55.65,0,.39-.25.81-.75,1.26s-1.14.67-1.9.67c-.88,0-1.52-.39-1.9-1.17h.01Z"/>
        <path class="cls-3" d="M337,159.64c0,.8-.67,1.76-2,2.88-1.33,1.12-2.84,1.67-4.52,1.67-1.29,0-2.3-.41-3.04-1.23s-1.11-1.97-1.11-3.44c0-2.16.75-4.19,2.26-6.08,1.51-1.89,3.12-2.84,4.84-2.84.85,0,1.54.27,2.06.82.52.55.78,1.2.78,1.96,0,1.34-.64,2.62-1.91,3.84s-2.91,2.06-4.9,2.52c-.23.05-.34.19-.34.42,0,.37.16.72.49,1.06s.76.5,1.3.5c1.53,0,3.05-.8,4.56-2.4.29-.31.57-.46.85-.46.46,0,.69.26.69.78ZM329.33,157.59c1.2-.25,2.27-.77,3.19-1.56s1.38-1.52,1.38-2.17c0-.25-.07-.47-.21-.64s-.32-.26-.54-.26c-.66,0-1.4.49-2.21,1.48s-1.34,2.04-1.6,3.15Z"/>
        <path class="cls-3" d="M342.28,164.27c-1.26,0-2.22-.35-2.87-1.04s-.98-1.66-.98-2.9c0-1.95.78-4.05,2.34-6.32s3.1-3.4,4.6-3.4c.72,0,1.34.36,1.85,1.09s.77,1.49.77,2.28c0,.74-.14,1.24-.41,1.5s-.53.39-.78.39c-.74,0-1.17-.52-1.29-1.55-.09-.76-.28-1.14-.56-1.14-.59,0-1.38.86-2.36,2.57s-1.46,3.22-1.46,4.51c0,1.04.56,1.56,1.67,1.56,1.23,0,2.47-.44,3.72-1.32.59-.42,1.05-.64,1.4-.64.42,0,.63.21.63.64,0,.59-.67,1.37-2.02,2.32s-2.76,1.43-4.24,1.43Z"/>
        <path class="cls-3" d="M355.4,154.22c-.07,0-.28.86-.65,2.58s-.54,2.77-.54,3.13c0,.63.07,1.08.2,1.33s.35.38.66.38c.43,0,.84-.08,1.23-.23s.91-.49,1.55-1.01c.4-.33.73-.5,1.01-.5.22,0,.4.06.53.19s.2.28.2.45c0,.68-.54,1.45-1.62,2.31s-2.23,1.29-3.43,1.29c-1.01,0-1.77-.3-2.3-.9s-.79-1.47-.79-2.6c0-1.04.39-3.12,1.16-6.25-.49.05-.83.08-1.02.08h-.24c-.35,0-.71-.12-1.07-.35s-.54-.6-.54-1.11c0-.65.36-.97,1.09-.97l2.45-.09c.32-.93.66-2.16,1.02-3.67.21-.94.7-1.41,1.45-1.41.42,0,.75.13.98.39s.35.55.35.86c0,.12-.32,1.32-.97,3.58,2.43-.22,3.76-.32,3.99-.32.4,0,.67.06.8.18s.19.35.19.69c0,.69-.58,1.12-1.73,1.31l-3.95.67Z"/>
        <path class="cls-3" d="M362.48,155.93h0c.24-1.39.37-2.2.37-2.4,0-.57.12-1.05.37-1.44s.59-.58,1.04-.58c.52,0,.92.12,1.21.37s.43.53.43.83-.14.95-.42,1.91l-.07.25c-.42,1.49-.67,2.71-.75,3.65s-.13,1.7-.13,2.28c0,.47.08,1.1.24,1.89.02.14.03.25.03.35,0,.18-.17.42-.5.72s-.69.45-1.07.45c-1.01,0-1.51-.77-1.51-2.32,0-1.31.18-2.91.55-4.8.08-.42.14-.81.21-1.18ZM368,146.41c0,.55-.24,1.03-.73,1.44s-.91.62-1.27.62c-.46,0-.86-.19-1.22-.58-.35-.39-.53-.77-.53-1.16,0-.56.18-1.01.53-1.35s.85-.52,1.51-.52c.51,0,.92.15,1.24.46s.47.67.47,1.08Z"/>
        <path class="cls-3" d="M370.5,163.51c0-.51-.29-1.61-.9-3.29-1.23-3.33-1.84-5.7-1.84-7.11,0-1.27.49-1.9,1.48-1.9s1.44.58,1.44,1.74c0,.74.02,1.27.05,1.58s.15.88.35,1.7c.2.82.4,1.51.6,2.06.11.33.25.76.41,1.3.09.33.17.56.24.7.05-.07.21-.37.48-.9.16-.32.7-1.25,1.62-2.76s1.73-2.73,2.43-3.63,1.22-1.46,1.56-1.66.71-.3,1.09-.3.72.13.98.39.38.58.38.96c0,.45-.32.89-.96,1.32-.63.43-1.48,1.42-2.56,2.97s-2.24,3.49-3.48,5.83c-.7,1.34-1.33,2-1.89,2-.48,0-.98-.33-1.49-.98Z"/>
        <path class="cls-3" d="M381.95,155.93h0c.24-1.39.37-2.2.37-2.4,0-.57.12-1.05.37-1.44.25-.39.59-.58,1.04-.58.52,0,.92.12,1.21.37s.43.53.43.83-.14.95-.42,1.91l-.07.25c-.42,1.49-.67,2.71-.75,3.65s-.13,1.7-.13,2.28c0,.47.08,1.1.24,1.89.02.14.03.25.03.35,0,.18-.17.42-.5.72s-.69.45-1.07.45c-1.01,0-1.51-.77-1.51-2.32,0-1.31.18-2.91.55-4.8.08-.42.14-.81.21-1.18ZM387.47,146.41c0,.55-.24,1.03-.73,1.44s-.91.62-1.27.62c-.46,0-.86-.19-1.22-.58s-.53-.77-.53-1.16c0-.56.18-1.01.53-1.35s.85-.52,1.51-.52c.51,0,.92.15,1.24.46s.47.67.47,1.08Z"/>
        <path class="cls-3" d="M392.53,154.22c-.07,0-.28.86-.65,2.58s-.54,2.77-.54,3.13c0,.63.07,1.08.2,1.33s.35.38.66.38c.43,0,.84-.08,1.23-.23s.91-.49,1.55-1.01c.4-.33.73-.5,1.01-.5.22,0,.4.06.53.19s.2.28.2.45c0,.68-.54,1.45-1.62,2.31s-2.23,1.29-3.43,1.29c-1.01,0-1.77-.3-2.3-.9s-.79-1.47-.79-2.6c0-1.04.39-3.12,1.16-6.25-.49.05-.83.08-1.02.08h-.24c-.35,0-.71-.12-1.07-.35s-.54-.6-.54-1.11c0-.65.36-.97,1.09-.97l2.45-.09c.32-.93.66-2.16,1.02-3.67.21-.94.7-1.41,1.45-1.41.42,0,.75.13.98.39s.35.55.35.86c0,.12-.32,1.32-.97,3.58,2.43-.22,3.76-.32,3.99-.32.4,0,.67.06.8.18s.19.35.19.69c0,.69-.58,1.12-1.73,1.31l-3.95.67Z"/>
        <path class="cls-3" d="M409.84,156.8c-.12,1.88-.34,3.7-.65,5.46-.31,1.77-.76,3.37-1.36,4.8-.6,1.44-1.24,2.42-1.93,2.94s-1.51.78-2.47.78c-1.02,0-2-.2-2.94-.59h.01c-.81-.34-1.51-.8-2.11-1.37-.6-.57-.9-1.05-.9-1.45,0-.36.09-.65.27-.87s.41-.32.7-.32c.25,0,.46.11.63.32.98,1.27,2.39,1.91,4.26,1.91.75,0,1.48-.8,2.18-2.4.7-1.6,1.14-3.52,1.33-5.76-2.36,1.88-4.17,2.83-5.44,2.83-.82,0-1.48-.33-1.96-1-.48-.66-.72-1.46-.72-2.4s.22-2.29.65-4.07.8-2.89,1.1-3.31.79-.64,1.47-.64c.37,0,.65.16.85.48s.3.67.3,1.06c0,.12-.27.77-.82,1.96-.67,1.45-1.01,2.7-1.01,3.75,0,.54.07.95.22,1.23s.3.42.46.42c.37,0,.81-.11,1.33-.34.52-.22,1.14-.61,1.84-1.16.71-.55,1.16-.97,1.37-1.26s.37-.65.49-1.11.22-1.45.29-2.98c.04-.9.08-1.46.13-1.69s.18-.44.41-.64.52-.29.89-.29c.5,0,.86.11,1.07.32s.31.73.31,1.53l-.25,3.84Z"/>
      </g>
      <g>
        <path class="cls-4" d="M37.91,107.05v-23.21c-10.87-6.21-17.92-18.5-16.63-32.32,1.45-15.49,13.78-28.2,29.04-29.9,19.87-2.22,36.68,13.48,36.68,33.16,0,12.48-6.77,23.35-16.78,29.07v23.21c22.99-7.28,39.38-29.69,37.8-55.73C106.36,23.79,83.89,1.37,56.7.06,25.64-1.43,0,23.64,0,54.77c0,24.55,15.94,45.32,37.91,52.28Z"/>
        <path class="cls-2" d="M67.78,55.92c1.45,9.66-6.64,17.86-16.18,16.38-5.94-.92-10.8-5.84-11.72-11.86-1.47-9.67,6.64-17.88,16.19-16.4,5.94.93,10.8,5.85,11.71,11.87Z"/>
        <path class="cls-2" d="M63.95,126.82c0,5.53-4.43,10.01-9.88,10.01h0c-5.46,0-9.88-4.48-9.88-10.01v-39.55c0-5.53,4.42-10.01,9.88-10.01h0c5.46,0,9.88,4.48,9.88,10.01v39.55Z"/>
      </g>
    </g>
  </g>
</svg>