<svg width="186" height="33" viewBox="0 0 186 33" fill="none" xmlns="http://www.w3.org/2000/svg">
<g clip-path="url(#clip0_727_2719)">
<path d="M40.2398 31.9723H35.3213V10.0293H40.2398V19.2494L48.3492 10.0293H54.5639L44.693 20.8028L54.8962 31.9723H48.4154L40.2398 22.6534V31.9723Z" fill="#F27237"/>
<path d="M67.1269 31.9726L66.9608 29.7587H66.894C65.9632 31.3778 64.3016 32.3034 62.0416 32.3034C58.22 32.3034 55.96 29.8249 55.96 25.628V16.4404H60.3138V25.1315C60.3138 27.2797 61.377 28.4692 63.2053 28.4692C65.1992 28.4692 66.396 27.1146 66.396 24.7019V16.4404H70.7499V31.972L67.1269 31.9726Z" fill="#F27237"/>
<path d="M85.8039 31.9724L85.6708 29.8905H85.6046C84.5745 31.4108 82.8461 32.3026 80.5199 32.3026C76.0998 32.3026 72.876 28.8987 72.876 24.2063C72.876 19.5134 76.0998 16.11 80.5199 16.11C82.4476 16.11 83.943 16.7048 85.0062 17.7623H85.073V8.83984H89.4268V31.9724H85.8039ZM85.206 24.2063C85.206 21.6948 83.5776 19.9431 81.2513 19.9431C78.8914 19.9431 77.2629 21.6948 77.2629 24.2063C77.2629 26.7179 78.8914 28.469 81.2513 28.469C83.5776 28.4696 85.206 26.7179 85.206 24.2063Z" fill="#F27237"/>
<path d="M104.481 31.9727L104.348 29.8908H104.281C103.251 31.4111 101.523 32.303 99.1966 32.303C94.7766 32.303 91.5527 28.899 91.5527 24.2067C91.5527 19.5138 94.7766 16.1104 99.1966 16.1104C101.49 16.1104 103.251 16.9696 104.248 18.4568H104.315L104.481 16.4411H108.103V31.9727H104.481ZM103.883 24.2067C103.883 21.6951 102.254 19.9434 99.9281 19.9434C97.5682 19.9434 95.9397 21.6951 95.9397 24.2067C95.9397 26.7182 97.5682 28.4694 99.9281 28.4694C102.254 28.4699 103.883 26.7182 103.883 24.2067Z" fill="#F27237"/>
<path d="M121.863 17.1012V21.2319H121.697C120.667 20.2075 119.071 19.6785 117.044 19.6785C115.349 19.6785 114.518 20.1744 114.518 21.1325C114.518 21.8267 115.05 22.1238 117.111 22.2557C121.265 22.5203 122.894 23.9743 122.894 27.2457C122.894 30.4183 120.501 32.302 116.48 32.302C113.887 32.302 111.894 31.8392 110.564 30.9142V26.7504H110.763C111.993 28.0724 113.854 28.7329 116.28 28.7329C117.975 28.7329 118.806 28.237 118.806 27.2457C118.806 26.4196 118.141 26.0894 115.948 25.8911C111.993 25.5277 110.431 24.3377 110.431 21.2645C110.431 18.125 112.99 16.1094 116.945 16.1094C118.839 16.1099 120.634 16.4733 121.863 17.1012Z" fill="#F27237"/>
<path d="M136.885 31.9727L136.751 29.8908H136.685C135.655 31.4111 133.926 32.303 131.6 32.303C127.18 32.303 123.956 28.899 123.956 24.2067C123.956 19.5138 127.18 16.1104 131.6 16.1104C133.893 16.1104 135.655 16.9696 136.652 18.4568H136.718L136.884 16.4411H140.506V31.9727H136.885ZM136.286 24.2067C136.286 21.6951 134.658 19.9434 132.331 19.9434C129.971 19.9434 128.343 21.6951 128.343 24.2067C128.343 26.7182 129.971 28.4694 132.331 28.4694C134.658 28.4699 136.286 26.7182 136.286 24.2067Z" fill="#F27237"/>
<path d="M148.416 11.6162C148.416 13.2022 147.286 14.2929 145.725 14.2929C144.162 14.2929 143.032 13.2022 143.032 11.6162C143.032 10.0628 144.162 8.97266 145.725 8.97266C147.286 8.9721 148.416 10.0628 148.416 11.6162ZM143.531 16.4405H147.885V31.9721H143.531V16.4405Z" fill="#F27237"/>
<path d="M177.071 10.0293C182.588 10.0293 185.412 12.5077 185.412 17.3326C185.412 22.1243 182.588 24.6028 177.071 24.6028H172.252V31.9723H167.333V10.0293H177.071ZM176.838 20.2407C179.298 20.2407 180.428 19.3151 180.428 17.3326C180.428 15.3169 179.298 14.3914 176.838 14.3914H172.252V20.2407H176.838Z" fill="#F27237"/>
<path d="M163.944 10.0293H159.025H153.846V14.3748H159.025V23.5784C159.025 26.6184 157.696 27.9405 155.103 27.9405C154.094 27.9405 153.076 27.7019 152.176 27.28L150.499 31.1081C151.937 31.8912 153.653 32.3026 155.669 32.3026C161.153 32.3026 163.944 29.5265 163.944 24.0737V14.3754V10.0293Z" fill="#F27237"/>
</g>
<g clip-path="url(#clip1_727_2719)">
<path d="M6.74497 8.84237L0.379556 31.2255C0.167026 31.9733 0.724572 32.7182 1.49686 32.7182H28.1586C28.9563 32.7182 29.5172 31.928 29.2583 31.1681L21.637 8.78494C21.4758 8.31168 21.0342 7.99414 20.5374 7.99414H7.86228C7.34392 7.99414 6.88795 8.34039 6.74497 8.84237Z" fill="#F27237"/>
<path d="M7.99795 10.4336L13.7561 30.5007C13.9372 31.1313 14.5162 31.5665 15.1748 31.5665H27.0848C27.9437 31.5665 28.334 30.8475 28.0961 30.1566L21.0853 9.79573C20.9374 9.36554 20.5306 9.07617 20.074 9.07617H9.02583C8.31537 9.07617 7.80253 9.75321 7.99795 10.4336Z" fill="white"/>
<path d="M15.2351 18.5367C14.9447 18.5367 14.709 18.3009 14.709 18.0104V14.1503C14.709 13.8598 14.9447 13.624 15.2351 13.624C15.5255 13.624 15.7612 13.8598 15.7612 14.1503V18.0104C15.7612 18.3009 15.5255 18.5367 15.2351 18.5367Z" fill="#F27237"/>
<path d="M19.2722 18.5367C18.9818 18.5367 18.7461 18.3009 18.7461 18.0104V14.1503C18.7461 13.8598 18.9818 13.624 19.2722 13.624C19.5625 13.624 19.7983 13.8598 19.7983 14.1503V18.0104C19.7983 18.3009 19.5625 18.5367 19.2722 18.5367Z" fill="#F27237"/>
<path d="M26.1529 23.6855H10.6172V24.2135H26.1529V23.6855Z" fill="#F27237"/>
<path d="M20.382 29.9541C20.6287 29.9541 20.8286 29.754 20.8286 29.5073C20.8286 29.2606 20.6287 29.0605 20.382 29.0605C20.1354 29.0605 19.9355 29.2606 19.9355 29.5073C19.9355 29.754 20.1354 29.9541 20.382 29.9541Z" fill="#F27237"/>
<path d="M22.015 29.9541C22.2616 29.9541 22.4616 29.754 22.4616 29.5073C22.4616 29.2606 22.2616 29.0605 22.015 29.0605C21.7684 29.0605 21.5684 29.2606 21.5684 29.5073C21.5684 29.754 21.7684 29.9541 22.015 29.9541Z" fill="#F27237"/>
<path d="M12.1865 8.05235L15.7692 0.663452C15.9657 0.257559 16.5762 0.401692 16.5707 0.852868L16.4846 8.0529L12.1865 8.05235Z" fill="#F27237"/>
</g>
<defs>
<clipPath id="clip0_727_2719">
<rect width="151" height="25" fill="white" transform="translate(35 8)"/>
</clipPath>
<clipPath id="clip1_727_2719">
<rect width="30" height="33" fill="white"/>
</clipPath>
</defs>
</svg>
