<?xml version="1.0" encoding="UTF-8"?>
<svg id="_レイヤー_2" data-name="レイヤー 2" xmlns="http://www.w3.org/2000/svg" viewBox="0 0 348.18 109.52">
  <defs>
    <style>
      .cls-1 {
        fill: #004294;
        fill-rule: evenodd;
      }

      .cls-1, .cls-2 {
        stroke-width: 0px;
      }

      .cls-2 {
        fill: #231815;
      }
    </style>
  </defs>
  <g id="_レイヤー_1-2" data-name="レイヤー 1">
    <path class="cls-1" d="m62.82,2.79c.06,0,.09.02.1.08h.1s.02-.03.09-.03c0,0,0,.02-.01.03h.08s.05.05.07.07h.04s.07.06.11.08c.02,0,.04,0,.05.01.04.03.06.1.08.14.07.12.16.21.22.35.08,0,.19.03.29.02.02,0,.03-.02.07-.02.05.01.14.05.16.04.02,0,.05-.05.07-.06.07-.02.37,0,.43.03.02,0,.19.12.21.14v.04s.12.24.12.25h.08s.06-.07.15-.07c.03.04.08.06.12.08h.05v.03c.07.08.07.18.2.2-.01.01-.02.02-.03.03h.25c.05-.05.14,0,.23-.03.08-.02.16-.04.26-.04.06,0,.13,0,.19.01.07-.02.14-.09.19-.12.06,0,.12-.02.18-.03v-.03s.09-.04.11-.04c.17-.05.24.07.35.09.1.02.12-.06.16-.08.03-.01.12-.02.15-.03.01-.09.11-.25.15-.27.02-.01.04-.01.05-.03v-.03s.06-.02.1-.02c0-.01,0-.03.01-.04.06-.03.16,0,.2-.04v-.04s.04,0,.05-.02c0-.01,0-.03-.01-.04.07-.12.16-.26.26-.35v-.03h.08s.14-.04.18-.04c0,0,.02.02.04.01.04-.01.19-.14.22-.18.1.06.14.05.28.04.03-.04.07-.05.1-.1.07-.07.09-.27.15-.39v-.05s.03-.02.04-.03c0-.02,0-.04.01-.05.05-.07.16-.14.22-.2h.11s.33.05.38.01c.15-.06.16-.26.3-.33.04,0,.08,0,.12-.02v-.03c.07-.05.2-.06.3-.04h.14s.05.05.07.05c.06.02.18.02.24.03.09.02.22-.04.29-.05.08-.02.15.04.22.05.02.05.1.15.14.19.02,0,.03,0,.04.01,0,0-.01.09,0,.12.03.08.2.09.29.11.02.06.04.12.01.21l-.03.02s0,.08.01.11h.04c.03.05.1.06.14.11.03.04.03.07.05.11.02.01.04.03.05.04,0,0,0,.02-.01.03.03.02.05,0,.07.03-.02.03.02.13,0,.2,0,0-.02.04-.03.05.02.04.07.11.05.18,0,.04-.03.08-.05.12-.01,0-.03.02-.04.02-.04.09.04.22,0,.36-.04.13-.04.19.01.34,0,0,.02,0,.03.01,0,.01-.03.12-.03.13,0,.05-.03.34.01.44,0,.02.04.08.06.1h.03v.04s.07.03.09.06c0,.01.01.03.01.04h.03s0,.08.03.12c0,.02.05.07.07.09.03.06.03.14.07.19.02.02.07.02.09.04,0,.01,0,.03.02.04.02,0,.04,0,.05.01.01.02.01.11.03.14,0,.02.04.06.05.08v.06s.03.02.04.03c0,0-.02.04,0,.07h.03s.03.03.01.05c.04.03.12.07.15.11.03.05,0,.12.03.19.04.16.14.41.27.42.03.02.06,0,.09.03.02.02.03.04.04.05.04,0,.08,0,.12.01.03.01.03.05.04.05.03,0,.05,0,.08.01.03.01.07.06.1.07.05,0,.1,0,.15.01.01,0,.03.04.04.04.04,0,.07,0,.11.01.02,0,.06.04.08.06.04.02.07,0,.11.03.02.01.05.06.07.07.03-.01.06-.02.08-.03.03,0,.07.05.09.06.08.02.13-.06.23-.03.06.02.1.06.15.08.03,0,.06,0,.08.01,0,.01.01.03.01.04h.18c.06.02.31.17.33.22.05.08-.04.13-.01.22,0,0,.02,0,.03.02,0,.01,0,.03-.01.04h.03s0,.02-.01.03c.04.03.06-.01.05.04h0s.03.01.04.01c.1.06.21-.19.3-.23h.08s.09.02.12.06v.04s.03,0,.04.02c.09.07.03.07.2.07.05-.07.11-.05.19-.09.02,0,.03-.04.05-.05h.06s.04-.07.07-.08c.1-.05.4.04.46.07.04.01.1.05.12.04v.03c.07,0,.14,0,.2.02.03-.01.05-.06.08-.07h.18v-.04s.22-.08.3-.08c0,0,0,.02-.01.03h.07c.03-.07.06-.02.12-.05.04-.02.11-.12.15-.14.05-.02.18,0,.2-.01.08-.03.15-.11.24-.14.13-.04.27.04.38.01.08-.02.12-.07.19-.09.07,0,.14,0,.2.01.1-.03.14-.15.22-.2.06,0,.13-.02.19-.03l.03-.04c.06-.02.17,0,.19,0,.11,0,.23-.06.33-.08.08-.02.1.04.12.04.15.05.41-.03.49-.07,0-.04.02-.06.03-.12.14-.01.32-.02.43.04.1,0,.2.02.3.03.02,0,.03.04.04.05.03.02.08,0,.11.03,0,.01,0,.03.01.04.06.04.12.05.18.1.01,0,.01.04.03.05h.04s.05.06.07.08c.03.02.07,0,.1.03v.03s.1,0,.15.01c.06.02.25.22.26.28h.04s.04.05.06.08c.01,0,.03,0,.04.01.04.06.06.13.08.22-.04.08-.06.08-.08.18,0,0,.04.03.04.04,0,.01,0,.03-.01.04.01,0,.03.02.04.03.02.04.02.08.04.12.01,0,.02,0,.03.01.02.04.02.09.01.11.05.12.07.24.07.37l.03.08s0,.31-.01.35c.04.1.17.12.2.23.04.14-.07.2-.05.3,0,.03.02.1.03.15,0,.06-.02.15-.01.2,0,.05.02.09.01.14.02.05.05.09.05.14.02.11-.04.15-.04.24,0,0,.08.09.08.1v.04h.03s.05.06.08.09h.03s.02.04.03.05c.02,0,.04,0,.05.01.02.02.03.07.05.08h.04c.13.09.22.28.22.49.04.02.04.06.07.08.04,0,.07,0,.11.01.01.01.02.03.03.04.04,0,.07,0,.11.01.03.01.07.05.09.07.02,0,.05,0,.07.01.02,0,.01.04.03.05.02,0,.05,0,.07.01,0,.02,0,.04.01.05.01.02.05.01.07.03v.04c.06.11.03.23.08.3.05.05.17,0,.19.03.17.09.08.16.12.25.02.01.04.03.05.04.03.04.07.09.11.12h.04s.06.05.08.08h.14v-.04h.03c.05-.05.23-.1.33-.1.04.03.09.05.12.08-.01.03.02.14.04.19.04.02.07.03.1.05,0,0,.02,0,.03-.01v.03h.16s.23.03.3.01c.08-.02.23.05.31,0,.03-.05.06-.09.09-.14.07-.05.21-.04.29-.08,0,0,0-.02-.01-.03.03-.03.08-.03.12-.05.02-.01.02-.04.04-.05.04,0,.07,0,.11-.01,0,0,.03-.04.04-.04.14-.05.24.03.34.05.11,0,.21,0,.31-.01,0,0,.03-.04.04-.04h.23c.06-.02.17,0,.24-.01.15-.04.35,0,.38.12.07.01.13.03.2.04,0,.01.02.03.03.04.02,0,.05,0,.07.01.06.03.01.05.12.05.08-.08.19,0,.27.01h.2c.08.02.15.08.24.1,0,0,0-.03.01-.02,0,.02.01.03.01.04.05.03.11,0,.15.03.05.04.11.11.16.14.04.02.09.03.12.04.01,0,.02,0,.04-.01h0s.09.04.12.07c0,.02,0,.03.01.04.04.02.08,0,.11.03.07.07.08.16.14.24.01.02.04.02.05.03,0,.02,0,.04.01.07.02,0,.04,0,.05.01v.05s.04,0,.05.01v.03s.07.06.1.1c.01.04.03.08.04.12.03.05.08.12.11.18.02.04.02.1.04.14.01,0,.03,0,.04.01.02.02.05.08.05.1.02.04,0,.07,0,.1,0,.06.05.14.07.19v.04s.03,0,.04.01c0,.03.02.06.03.08,0,0,.02,0,.03.01.03.07-.01.21,0,.25.02.06.1.17.08.22.02.03.06.07.08.11.01.04.02.2.01.23,0,0-.02.02-.01.04.03.14.11.32.08.49-.01.09.1.26.12.33v.14s.01.09.01.15c0,.02,0,.04-.01.05.03.21.1.27-.05.42.03.04,0,.05.01.08.01,0,.03,0,.04.01.03.04.02.1.05.14,0,.01.05.01.05.03.02.04,0,.07.03.11.01,0,.03.02.04.03.03.06.01.12.04.17.02.03.06.03.08.06v.04s.04,0,.06.01c.01.06.03.13.04.19,0,0,.04.03.04.04,0,.01,0,.03-.01.04.01,0,.03,0,.04.02.04.07.05.14.1.2.02.01.04.02.05.03.02.03.03.11.06.14.03.03.13.07.16.11.02.03.03.08.07.09.05.04.1.01.16.04.09.04.2.1.27.16.02.02.12.05.08.08.04.03.07,0,.08.07.15.02.18.12.24.22.02.03.07.06.08.1.01.03.01.19.01.19.02.04.05.02.05.1.04,0,.08,0,.12.01.04.06.1.12.11.19.06,0,.15.05.2.06.09,0,.32-.06.46-.01.04,0,.08.04.11.05.04,0,.08,0,.12.01,0,.01.01.03.01.04.07.04.21.02.29.05.19.1.35.25.54.34v.04h.04s.03.07.03.07c.01.02.12.06.15.08.02.03.04.05.07.08.02,0,.04,0,.05.02,0,.01,0,.03.01.04.02.01.06.01.07.03v.05s.06-.01.08.07c.07,0,.06.04.11.07.04.02.07,0,.11.03,0,0,.03.04.03.04.02.01.23.08.26.08h0s.02,0,.03-.01c.04,0,.09-.02.14-.03.03,0,.07.04.09.05.07,0,.15,0,.22.01.01.04.12.17.15.19.05,0,.1,0,.15.01.02.01.01.05.03.07.06.06.16.05.23.1.02.01.19.18.2.2.01.03.01.11.01.11.02.03.06.05.08.1.21,0,.34.11.37.29.08.01.16.02.24.04.01.02.05.05.05.07.02.04,0,.09.02.11.11.12.24,0,.38.08.02.01.17.14.19.16.01.02,0,.05.03.06h.05s.1.05.15.07c.1,0,.2,0,.3.01.04.02.08.03.12.04,0,0,0,.02.01.02h.24c.1.01.19.02.29.03.02,0,.05-.03.09-.03v-.04s.06-.05.1-.07v-.03s.08,0,.12-.01c0-.01,0-.03.01-.04.09-.06.21-.03.3,0,.06.02.1.01.12.03.04-.03.1-.04.14-.07,0,0,0-.02-.01-.03.02-.02.07-.03.08-.04v-.04s.05-.01.07-.03c.01-.02.03-.04.04-.07h.04s.02-.04.03-.05c.02,0,.04-.01.05-.01.05-.04.1-.1.15-.14.02-.01.05-.01.07-.02.08-.09.07-.3.19-.34.01-.01.01,0,.04-.01v-.04c.07-.03.13-.18.2-.23.03,0,.06-.01.09-.01.02,0,.06-.05.08-.05.05-.02.14,0,.16.01.07,0,.14,0,.2-.01.02-.03.06-.06.08-.1.02-.04.02-.07.04-.11.01-.01.05-.01.06-.03.02-.03.03-.1.05-.14.02,0,.04-.02.05-.03v-.04s.03,0,.04-.01c.02-.03.04-.06.05-.08h.03s.03-.09.05-.12c.09-.11.21-.2.3-.31.02-.02.02-.05.04-.07.03-.02.12-.06.14-.07h.08c.07-.04.04-.13.18-.14.02-.01.04-.01.08-.01.02-.09.23-.25.31-.29.03,0,.05,0,.08-.01,0,0-.02-.02,0-.04.03,0,.06-.02.08-.03.02-.02.04-.05.05-.07h.03c.04-.05.05-.18.11-.22.02-.02.1-.06.12-.07.05,0,.1,0,.15-.01.01,0,.04-.03.05-.04.04-.01.09-.02.14-.03.11-.07.09-.3.16-.34.07-.06.14-.06.25-.09h.07s.04-.04.06-.05c.05-.03.16-.05.22-.08,0-.06.03-.06.04-.12.05,0,.07-.01.09-.04.05-.03.04-.08.07-.12.05-.04.09-.07.14-.11.05-.07.07-.17.12-.25.02-.03.07-.04.09-.07.14,0,.15.01.26-.01.03-.08.02-.12.05-.19,0,0,.18.04.22.03.12-.04.19-.14.37-.15.01-.04.04-.04.06-.07.03-.05.01-.13.04-.18.03-.05.13-.12.18-.16,0,0,.03-.06.04-.07.03,0,.05-.02.08-.03.01-.01.01-.04.03-.05.02-.01.05,0,.07-.03,0-.01,0-.03.01-.04.02,0,.05,0,.07-.01v-.03s.05-.04.06-.04c.07-.05.14-.02.22-.07.02-.01,0-.04.01-.06.03-.03.19-.1.23-.11.03,0,.22,0,.26.03,0,0,.02.04.03.04.1.04.15-.04.24-.04v.04c.19,0,.25.17.41.19.08.01.16-.09.22-.07.05,0,.09.03.11.07.08.09.02.28.07.33.08.06.35-.03.49,0,0,.03.01.05.01.1-.02.02-.03.01-.01.04.02.03,0,.02.04.03v.04h.04c.03.05.07.12.12.15.03-.02.02,0,.05,0v-.04h.09s0,.02-.01.03c.01.01.04,0,.05.02,0,.02,0,.05.01.07.02.03.07.07.08.09.02.07.05.14.07.2.03.05.11.11.14.16,0,.06,0,.12.01.18.03.09.05.16.03.24,0,.11.02.22.03.33-.02.05-.07.08-.09.12-.07.13.02.25.01.37l-.03.19s-.03,0-.04.01v.05s-.03.02-.04.03v.05s-.02,0-.03.01c-.04.08,0,.11-.04.19-.05.1-.24.14-.26.23-.09,0-.07.03-.11.05-.07.04-.15-.03-.18-.04-.06-.02-.16,0-.22,0-.03.06-.04.03-.07.05,0,.03,0,.05-.01.08-.01,0-.03,0-.04.01v.04c-.04.07-.1.09-.12.16-.03.09.02.16-.05.2-.06.04-.24.01-.31.11-.04.06-.12.17-.14.23-.02.09,0,.21-.12.25-.02.01-.04.01-.08.01v.04c-.08.02-.05.06-.1.1-.02,0-.05,0-.07.01-.02.01,0,.03,0,.04-.03.03-.11.08-.14.11-.01.02,0,.04-.03.05-.02,0-.04,0-.05.02,0,.02-.02.03-.03.05-.02,0-.05,0-.07.01-.01,0-.01.04-.03.05-.03.02-.06,0-.1.03,0,.02-.02.03-.03.04-.03,0-.06.02-.1.03-.06.04-.08.12-.12.18-.03.04-.07.03-.08.1-.25,0-.32.18-.5.24-.09.03-.19.05-.27.07-.04.01-.1,0-.12-.01-.1-.03-.25,0-.3.01,0,0,0,.02.01.03-.02,0-.04,0-.05.01-.07.05-.07.13-.16.16-.02,0-.1-.01-.14.01,0,.02-.02.04-.03.06-.02,0-.04,0-.07.01,0,.07-.03.03-.07.08,0,.01,0,.03.01.04-.01,0-.03.01-.04.01v.05s-.07.07-.08.08c-.03,0-.06,0-.1.01,0,0,.01.02.02.03-.03,0-.06.02-.08.03-.05.04-.05.08-.14.1v.04c-.08.05-.16.13-.26.16h-.12c-.05.01-.09.02-.14.03,0,0-.02-.01-.03-.02-.02,0-.04.05-.06.05-.04,0-.07,0-.11.01-.02,0-.05.05-.08.05h-.18s-.14.04-.19.03c-.01,0-.06-.02-.1-.01-.04.01-.07.05-.11.07-.04,0-.08,0-.12.01l-.03.04s-.07,0-.11.01c-.02.01,0,.05-.03.07-.03.04-.18.09-.23.11-.09.03-.17.04-.25.06h-.14s0,.02-.01.03c-.02,0-.04,0-.05-.01,0,0-.01.02-.01.03-.04.01-.16,0-.23.03-.04.02-.09.06-.14.08,0,.05,0,.09.01.14,0,.05-.03.09-.04.14-.1.01-.27.02-.33.11v.04s-.03,0-.04.01c-.01.02-.03.12-.04.14h-.03s-.06.07-.07.1c0,.05,0,.09-.01.14-.02.09-.05.11-.09.16v.03s-.15.06-.19.08c-.03.01,0,.05-.03.07-.01.02-.05,0-.07.03,0,0,0,.02.01.03-.02.03-.06.09-.08.11-.06.04-.14.04-.15.12-.1,0-.25.03-.29.1-.02.04,0,.07-.03.11,0,.01-.08.1-.1.11h-.03v.04s-.09.03-.11.04c0,0-.01.04-.03.04-.04,0-.08,0-.12.01-.03.01-.07.06-.11.07h-.15s-.02.04-.03.05c-.06.03-.12,0-.16.06-.07.03-.06.1-.08.16-.03.07-.02.2-.03.31,0,.01,0,.03-.01.04,0,.04.03.14.01.2-.02.09,0,.12-.01.2,0,0-.02,0-.01.03,0,.04.06.07.08.09.05.08.07.21.18.23v.04c.18.02.31.09.48.11v.04c.11,0,.15.07.24.09.02.08.08.14.11.22.02.05,0,.08,0,.12,0,.04.04.07.06.1v.04s.07.02.09.04c.04.03.05.07.08.11.01,0,.03.01.04.02v.16c-.06.06.05.24.09.31.03.04.07.03.08.09.07.01.08.06.12.08.03.02.07-.02.08-.01.03,0,.07.02.11.03,0,.08.04.17.11.19.06.05.19.05.26.1.01,0,.01.04.03.05.02.01.09.01.11.03.02,0,.01.04.03.05h.04s.03.05.04.06c.02,0,.04.01.06.02.04.02.07.11.11.13.04.03.11.05.15.08.02.01.07.08.08.11v.04c.05.06.22.12.22.19-.02.02.03.01.03.01.09.08.17.04.27.06,0,0,.02,0,.03-.02.05.02.1.08.12.12,0,.02,0,.04.01.07.02,0,.04,0,.05.01.02.01.01.04.03.05.02,0,.04,0,.05.02,0,0,.09.34.1.35,0,.02-.01.05-.01.07-.03,0-.05.02-.07.04h-.05c-.01.05-.11.12-.07.18.06.05.14.08.2.14.02.02.17.32.18.37.1,0,.21.06.22.16.02.05-.06.12-.07.2.02.02.02.05.04.07.02,0,.04,0,.06.01.05.06,0,.14.01.19,0,.05.08.12.05.2,0,0-.02.06-.03.07h-.03s0,.03.01.04c-.01,0-.03.02-.04.03-.01.03.02.05.01.07,0,0-.02.02-.01.04l.03.03s0,.03-.01.04c.01,0,.03.02.04.03,0,.01,0,.03-.01.04h.03v.03h.03s.05.07.06.12c.02.06-.05.16-.07.22.03.06.08.14.09.21.01.05-.03.08-.04.11-.01.04.09.21.12.24.04.02.07.03.11.04,0,0,.03.02.04.03v.03s.07,0,.11.02c.02,0,.04.05.07.05.06,0,.12,0,.18.01,0,0,.05.03.05.04v.03s.05,0,.08.01c.02,0,.05.04.08.05h.16s.11.05.15.07h.14s.07.05.09.07c.03,0,.05,0,.08.01.02,0,.03.06.04.07.02,0,.04,0,.07.01,0,.02.02.03.03.04.04.03.08.02.11.05,0,.01,0,.03.01.04h.04s.02.04.03.05c.05.04.12,0,.19.03.04.01.07.06.1.07h.11s.07,0,.08.01c.01.02.02.03.03.04.03,0,.06,0,.1.01.02.01.05.06.07.07h.04s.1.08.11.08c0,.02,0,.04.01.05.02,0,.04.02.05.03v.04s.03.01.04.02c.05.07.03.2.12.22.03.02.26.02.37,0,0,0,.04-.02.07-.01.02,0,.04.02.07.03.03.07.09.1.12.15.04.07.03.15.1.19.03,0,.06,0,.09.01.03.01.06.07.08.08.09.04.16-.05.18.11.05.08-.08.32-.05.47,0,.02.04.15.07.19.02.03.06.04.08.09,0,.06,0,.13.01.2.04.1.1.17.1.32-.04.03-.05.08-.08.11-.05.04-.1.02-.13.07-.09.12.02.3-.06.45-.01,0-.03.02-.04.03-.06.12-.07.26-.18.33-.04.03-.08,0-.14.03-.03,0,0,.03-.03.05-.03,0-.05.02-.08.03v.04s-.06.03-.07.04c-.07.09-.03.25-.14.33-.06.04-.13.01-.18.04.03,0,.01,0,.03.01-.05,0-.11,0-.14.04-.03,0-.12.17-.12.2-.05,0-.28,0-.33.02,0,0-.02.03-.03.04-.05.03-.08.02-.11.03-.02.04-.15.26-.16.27-.03,0-.06,0-.1.01-.03.01-.04.05-.07.07-.02,0-.04,0-.05.01v.04s-.04.03-.05.04v.04c-.04.07-.13.09-.22.11-.01.06-.04.04-.06.08-.02.05,0,.07-.03.12-.02.04-.07.11-.09.15-.02.03-.03.12-.05.14h-.04s-.16.08-.18.14c-.06,0-.09,0-.11.04-.03.04,0,.1-.02.16,0,0-.04.03-.04.04,0,.01,0,.03.01.04-.02.01-.04.02-.06.03-.03.04-.07.16-.08.21-.02.06.01.11,0,.15,0,0-.02,0-.03.02,0,.01.02.02.01.05,0,.03-.04.07-.05.1,0,.01,0,.03.01.04-.01,0-.03,0-.04.02,0,.02,0,.04-.01.07-.01.02-.06.06-.08.08h-.03s.01.02.01.03c-.03.05-.07.13-.11.18-.02.03-.08.05-.09.08-.04.07.02.26-.04.33-.02.02-.05.03-.07.05-.02.03,0,.21-.04.24.02.02.1.11.1.18,0,.13-.12.17-.12.3,0,.08.1.13.15.2.08.11.14.23.19.37,0,.01,0,.07.01.11.04.11.11.25.14.37.02.07-.05.13-.01.21.02.05.05.16.05.22,0,.03-.03.12-.01.18.03.12.12.22.16.34.02.06.07.23.04.31,0,0-.02,0-.03.03.03.06.07.13.1.19v.06s.06.06.07.08c.05.11-.08.19-.04.29.02.06.1.14.12.21.04.08,0,.18-.03.26,0,.04,0,.08.01.12-.01.09-.12.34-.11.4.02.05.1.21.1.23.01,0,.03.02.04.03.01.06.02.12.03.18.01.04.07.08.08.11,0,.09.01.18.01.27.02.04.07.09.08.14.02.07,0,.34-.03.38-.01,0-.03,0-.04.01v.04s-.11.09-.12.12v.21c-.02.06-.1.2-.08.26.02.05.07.09.08.15h.04s.08.06.1.13c.09.12-.07.32-.03.44,0,.02.08.13.1.15.02.02.04,0,.06.03v.04s.04.06.05.1v.05s.06.09.07.14c.04.14-.08.28-.03.42.03.1.15.14.18.24.03,0,.03,0,.04.01.08.03.26.21.31.29,0,.02,0,.05.01.07.01,0,.03,0,.04.01,0,.01,0,.03.01.04,0,.01.05.02.05.03v.07c.04.05-.03.15-.04.21.06.03,0,.03.03.08.01,0,.03,0,.04.02.02.01.03.04.01.05.05.04.08,0,.1.08.03,0,.03,0,.04.01h.03v.04s.08.02.11.04c0,.02.02.04.03.05.06,0,.13,0,.19.01.01,0,.03.04.04.04.05,0,.09,0,.14.02.04.01.1.05.14.07.05.02.11,0,.15.03v.03s.05.02.06.03c0,.02,0,.05.01.07h.03s.04.05.06.08c.02.02.05.01.07.03,0,.01,0,.03.01.04h.12s.06.02.1.01v.04s.09.02.12.03h.15s.1.07.12.1v.03s.05,0,.07.01c.02.01.07.06.1.07.09,0,.18,0,.27.01,0,0,.2.09.2.1,0,.01,0,.03.01.04.04,0,.07,0,.11.01,0,.01,0,.03.01.04.02,0,.04,0,.05.01.02.02.01.05.03.07.01.02.03,0,.05.01,0,.02.02.04.03.05.05,0,.1,0,.15.02,0,.02,0,.04.01.05.04.06.1.12.14.18v.04s.04.02.05.03v.04s.04.03.06.04c.02.04.03.1.05.12h.03l.08.09v.04s.13.09.16.14c.03.05.02.1.04.15.06.12.16.13.27.15.02.05.06.19.1.22.02,0,.04,0,.05.01.04.03.06.06.11.08h.05s.04.04.07.05c.05.02.08,0,.12.03,0,.01,0,.03.01.04.03.03.14.05.18.08.02.02.01.05.03.08.02.03.05.04.08.07,0,.01,0,.03.01.04.04.03.09.02.12.05-.02.03-.03.08-.03.12-.08,0-.12.05-.18.07-.09.03-.17-.02-.23-.03,0-.04-.02-.03-.1-.03v.04c-.11,0-.12.05-.19.07-.08.02-.12-.08-.16-.04-.12.04-.18.18-.3.22-.06,0-.13,0-.19-.01,0,0-.07,0-.1.01-.01,0-.03.04-.04.04-.06,0-.13,0-.19.01-.04.02-.04.06-.07.08-.03.02-.07,0-.1.01,0,0,0,.02.01.03-.15.08-.23.1-.45.12v.04c-.16.02-.2.04-.33-.04-.04,0-.07,0-.11-.01-.04-.01-.06-.05-.09-.07-.02-.02-.08-.02-.1-.03,0,0,0-.02.02-.03-.02,0-.03,0-.04-.01v.04h-.04c-.03.06-.06.08-.15.08-.06-.04-.14.05-.22.03-.15-.04-.07-.06-.22,0h-.05s0,.04-.04.05c-.04,0-.08.02-.12.03,0,.05-.08.12-.15.15v.04c-.09.01-.07.04-.11.05-.1,0-.21.02-.31.03-.04.02-.07.06-.12.08h-.2s-.02.03-.03.04c-.08.04-.15-.02-.19,0-.08.04-.1.1-.16.15-.03.02-.06.01-.08.04v.04s-.04,0-.06.02c-.02.02-.03.06-.05.08-.02.01-.04,0-.06.01,0,.01,0,.03-.01.04-.02,0-.04,0-.07.01,0,.02,0,.03-.01.04-.04.02-.07,0-.11.03-.07.04-.1.18-.15.24-.02.03-.06.03-.08.05v.04c-.05.08-.24.12-.27.2-.05.07-.02.05-.02.1,0,0-.03.05-.03.06,0,0,.03.08.03.1,0,.05-.08.13-.09.17-.01.04.01.19-.01.25-.01.01-.03.02-.04.03v.04s-.04.03-.05.04v.04s-.04.02-.05.03v.03s-.06.04-.07.04v.05s-.06.05-.07.07c-.03.06,0,.2-.04.29-.03.07-.08.07-.08.18-.03.04.11.17.07.29-.02.05-.08.11-.11.18-.04.08-.03.2-.03.31-.06.03-.02.03-.04.05-.02.02-.06.01-.1.03l-.12.11c-.08.13.02.31-.03.46,0,.02-.04.07-.04.09v.08s-.06.21-.08.29c-.02.11.06.18.04.26-.01.05-.09.06-.11.1,0,.02-.03.17-.03.19.03.08.1.16.12.3,0,.04-.03.15-.04.18,0,.01,0,.03.01.04-.02.09-.06.14-.08.23-.02.09.03.14.04.23,0,.04-.01.39.01.48.02.06.06.07.07.13h.04c.05.07.12.12.18.18,0,.01,0,.03.01.04.03.01.05.02.08.03v.04s.04.01.06.03c.02.03.02.1.04.12,0,.01.05.01.05.03v.04s.04.03.05.04v.04h.03s0,.04.01.07c.01.02.05,0,.07.03.01.02.02.04.03.05.07.04.16.05.18.14.1,0,.2.1.25.16.02.03,0,.05.03.07.05.04.14.03.19.07.03.02.09.19.1.2.05.02.22.07.24.1,0,.02,0,.04.01.06.02.03.14.13.18.15.07.01.15.02.22.04.1.06.18.17.27.23.04.03.18.07.2.11,0,.02,0,.04.01.05.03.04.04,0,.05.07h.04s.05.1.1.12c.07.05.22,0,.29.05.06.04.08.11.12.18.02.02.06.03.08.05.03.03.03.09.07.11.08.07.32-.03.38-.03.02.03.09.09.12.11h.04s.04.05.07.08c.01,0,.03,0,.04.01,0,.01,0,.03.01.04.02,0,.04,0,.05,0,.01,0,.03.06.04.07.02,0,.05,0,.07.02v.02c.04.05.08.1.12.15.02,0,.04.02.05.03.04.05.06.16.08.21v.07s.04.01.06.03c.07.1.11.29.08.41.05.1.12.25.15.39.01.05-.02.16-.04.22-.02.08.03.16.03.26-.04.02-.07.06-.11.08-.02,0-.04,0-.06.01,0,.02,0,.03-.01.05-.03.05-.05.12-.11.16-.07.04-.17.04-.24.08-.02.01-.04.04-.07.06-.04,0-.07,0-.11.01-.02,0-.01.04-.03.06-.02,0-.05,0-.07.01-.02.02-.03.04-.04.05-.03.02-.06.02-.1.04,0,.01-.02.03-.03.04-.03.01-.06,0-.1.01v.03c-.19.01-.37.03-.56.04-.05.02-.04.05-.08.07-.06.03-.31-.01-.31-.01,0,0-.02,0-.03.01-.06-.02-.11-.11-.16-.13-.04,0-.07-.01-.11-.01-.02,0-.05-.05-.07-.06-.04-.01-.08-.03-.12-.04,0-.02,0-.03-.01-.04-.1,0-.2,0-.3-.01-.03-.01-.06-.06-.07-.07h-.07s-.03-.05-.04-.06c-.06,0-.11-.02-.16-.03-.02,0-.06-.04-.07-.04-.03-.01-.08.01-.1.01-.1.02-.2-.08-.26-.05-.04.01-.07.03-.09.06v.03c-.08.08-.32.13-.42.04-.05-.04-.13-.1-.15-.18-.07,0-.29.01-.35-.01-.06-.02-.28-.12-.38-.08-.04.01-.06.06-.1.08-.02,0-.05,0-.07.01-.04.03-.04.11-.08.13-.04,0-.08,0-.12.01-.03.02-.05.1-.07.12-.05.05-.1,0-.16.02v.03s-.06,0-.1.01c-.02.01-.03.03-.07.04,0,.03.01.02-.01.05h-.03s-.01.08-.03.11c-.05.1-.15.15-.26.19,0,.05-.03.07-.03.09,0,.05.09.15.07.23-.03.1-.13.2-.19.27-.02.02-.05.04-.07.05v.06s-.05.07-.06.1c-.01.09-.03.18-.04.27-.01.01-.03.02-.04.03v.04h-.03s0,.03-.01.05c-.02.02-.04.03-.06.04,0,.03-.08.3-.11.34-.01,0-.03.02-.04.03v.05s-.02.01-.03.02c0,.01,0,.03.01.04,0,.01-.07.2-.08.22-.06.1-.25.17-.3.26,0,.05-.02.15-.05.2-.07.09-.19.12-.2.28-.04.05,0,.08.03.13.02.06-.02.11-.03.15-.04.01-.04.02-.08.03v.04s-.04.02-.07.04c.02.13.08.2.12.33.03.11-.05.17-.07.23,0,.01,0,.03.01.04-.02.06-.07.15-.08.19,0,0,.02.05.01.08-.01.04-.03.12-.04.17.05.09.1.14.1.3-.04.03-.08.04-.08.08-.06.08.04.2.04.25-.03.05.02.16.03.22-.03.03.03.02.04.04.02.02,0,.05.03.08h.03v.05s.03,0,.04.01c0,.01,0,.03-.01.04,0,.02.05.04.05.05,0,.01,0,.02-.01.03.02.01.04,0,.06.03v.04s.09.05.11.1c.01.07.03.15.04.22.04.02.13.04.16.07.02.02.01.05.03.07.01,0,.03.02.04.03.03.04.03.08.05.12.01,0,.03.02.04.03.02.04.01.15.04.23,0,.03.05.07.05.11,0,.05-.1.34-.1.34.03.04.03.03.03.08.08,0,.14.02.16.08.09.13-.17.29-.08.41.04.06.1.09.15.15v.03s.05,0,.07.01c.01,0,.01.04.03.06h.03s.04.05.07.08c.02,0,.04,0,.05.01,0,.01,0,.03.01.04.02,0,.04.01.05.02,0,0,.08.11.08.11.04.07.04.2.04.26,0,.02,0,.04-.01.05,0,.03.03.15.03.18,0,.01-.03.11-.03.12,0,.06,0,.16-.03.26,0,.03,0,.05.01.07-.02.07-.02.17-.06.25,0,.02-.05.09-.07.11h-.03v.04s-.04.03-.05.04c0,.02.02.03,0,.05h-.03s-.03.09-.06.14c-.01,0-.03,0-.04.01v.05l-.04.03s-.03.11-.04.13c-.02.03-.06.06-.08.08v.04s-.04.03-.07.04c-.01.02,0,.04-.03.05h-.03c.02.21-.11.3-.2.45v.04h-.03s0,.05-.03.08c-.02.03-.06.08-.08.11v.04h-.03s0,.05-.01.07c-.02,0-.04.02-.05.03.02.18-.19.49-.41.49,0,.03,0,.03-.01.04-.01.01-.04.01-.05.03-.03.04-.03.09-.05.12-.02.03-.06.02-.1.04,0,0,.02.03,0,.04-.02,0-.05,0-.07.01,0,.02-.02.04-.03.05-.07.05-.16.07-.24.11,0,.02.01.03.01.03,0,.02-.04.03-.04.04-.03.06.01.11,0,.15-.01.06-.03.16-.04.19h-.01c-.08-.02-.12,0-.22.01,0,.07-.03.03-.06.08h0s0,.03.01.04c0,.03-.04.09-.04.13,0,.13.08.29.08.46-.05.03-.07.04-.14.05,0,.18.03.32.05.42.04.14-.01.27.03.37.02.06.1.13.14.22,0,.11,0,.21.01.31,0,.06.03.11.06.18.02.04.01.07.03.08.04.04.09.07.12.11.09,0,.26-.05.33,0,.07.02.1.11.16.14,0,0,.02,0,.03-.01.06.02.18,0,.23.03,0,.01,0,.03.01.04.03,0,.05,0,.08.01.02.01.01.05.03.07.01.01.04,0,.05.03v.04s.04,0,.05.01c.01.01.02.06.04.07.05.03.21.02.23.02.04.02.22.12.24.11v.02h.08s.06.07.1.08c.09.04.17-.04.23-.07h.18s0,.03.01.04c.03,0,.06,0,.08.01.06.02.18.06.23.1.12.08.16.35.27.39,0,0,.15.04.18.04.02.1.13.14.16.21.03.05,0,.1.04.13.05.04.14.01.2.04.06.02.08.07.12.11-.04.25-.13.39-.27.57-.06-.01-.08-.04-.16-.04,0,.02.01,0,.01.01.03.01-.03.02-.03.02-.05.04-.19.03-.26.01-.04-.01-.1-.04-.15-.05,0,0-.02,0-.03.01-.08,0-.15-.02-.23-.03-.04-.01-.09-.06-.12-.07-.04-.02-.07,0-.1-.03-.03-.02,0-.02-.04-.03-.03-.02-.1,0-.14-.03,0,0-.05-.04-.05-.04v-.03s-.04.02-.05-.07c-.03,0-.21-.08-.25-.1,0-.01-.02-.03-.03-.04-.03,0-.05-.01-.08-.02-.01-.02-.03-.04-.04-.07-.02,0-.04,0-.07-.01-.02-.01-.08-.12-.1-.13h-.04s-.14-.13-.15-.2c-.04,0-.09-.01-.11-.03-.11-.03-.11-.1-.16-.19-.02-.03-.16-.12-.12-.15-.03,0-.05,0-.08-.01-.05-.03-.06-.11-.11-.14-.04-.03-.1,0-.15-.03-.02,0-.09-.05-.1-.07-.01-.02,0-.04-.01-.05h-.04s-.04-.05-.05-.06c-.04,0-.08,0-.12-.01-.02,0-.05-.06-.07-.07-.06-.03-.23,0-.31,0-.04.06-.2.2-.27.23-.07.02-.14.04-.2.07v.04s-.12.07-.15.12c0,0,0,.07-.01.1-.04.07-.12.07-.19.11-.01.02-.03.04-.04.05-.03,0-.05.02-.08.03v.04s-.05.02-.08.03c0,.02,0,.04-.01.05-.03.04-.11.12-.15.15-.04.03-.11.05-.15.07-.04,0-.08,0-.12.01l-.03.04h-.22c-.07.02-.09.04-.18.04,0-.04-.03-.03-.11-.03-.06-.06-.15-.07-.26-.05v.04c-.14.04-.11.28-.3.3-.07.06-.15,0-.24.01-.05,0-.1.04-.15.07-.03,0-.06,0-.1.01,0,.02,0,.03-.01.04-.03.03-.08.02-.11.04,0,.01,0,.03-.01.04-.05.03-.14,0-.19.03v.03s-.1.02-.15.04c-.06.04-.12.12-.19.15-.05.03-.21.04-.24.07,0,.01,0,.03-.01.04-.04.01-.08.03-.12.04v.04l-.08.05c-.09.05-.29.03-.41.04-.02.04-.07.04-.1.07v.06l-.04.03s0,.03.01.04c-.03.06-.11.09-.12.16h-.04s0,.04-.01.05c-.01.04-.03.05-.04.08-.1,0-.39.05-.42.09-.03.02-.09.17-.07.19-.06.05-.17.16-.27.16v.04h-.03s-.06.02-.08.01c-.03.01-.12.08-.14.11-.02.03-.03.1-.04.14,0,.01,0,.03.01.04,0,0-.04.03-.04.04,0,.01,0,.03.01.04,0,0-.02,0-.03.01v.08c-.02.07-.03.16-.05.19-.04.06-.12.1-.18.15-.02,0-.04,0-.05.02v.04s-.13.09-.14.1c-.02,0-.05,0-.07.01v.03s-.07.05-.09.07c-.06.04-.22.01-.26.07-.02.09-.04.17-.07.26-.01,0-.03,0-.04.01-.01.02,0,.04-.03.06-.04.03-.14.06-.16.11v.05s-.02,0-.03.01c0,.01.02.03.01.05-.03.11-.07.31-.19.35-.03.02-.13.04-.19.05h-.18c-.08.03-.13.08-.19.12,0,.03,0,.04,0,.1.06.02.04.05.08.08.02.01.06,0,.07.03v.08s0,.01,0,.04c-.15.02-.15.15-.25.22-.03.03-.12.07-.16.08-.03,0-.06,0-.09.02v.03s-.06.04-.08.05v.04s-.04,0-.05.01c0,.01,0,.03-.01.04-.05.04-.12.06-.16.11v.03s-.05.05-.08.07c0,.02,0,.03-.01.04h-.04s-.03.04-.05.05c-.05,0-.1.02-.15.03-.03.01-.06.05-.1.05-.05,0-.1,0-.15.01,0,0-.02.05-.05.07-.04.02-.09,0-.12.03-.05.05-.06.14-.11.18-.06.05-.19.05-.26.12.02,0,.02,0,.03.03-.1,0-.1.05-.16.08-.03,0-.06.02-.08.03,0,0,0,.02-.01.04-.07,0-.15,0-.22.01v.04c-.07.02-.05.07-.09.11-.05.04-.11.06-.16.08,0,.08-.05.11-.07.19-.07,0-.08.06-.14.08-.04,0-.07,0-.11.01,0,.01-.02.03-.03.04-.04,0-.08,0-.12.01-.05.02-.02.04-.07.05-.05,0-.09,0-.14.01-.03.01-.06.06-.08.07h-.05s-.05.05-.08.08c-.02,0-.04,0-.05.01v.04s-.05.02-.07.03v.03s-.07.02-.11.03c-.03.02-.08.17-.11.22-.01,0-.03,0-.04.01,0,.02,0,.04-.01.05-.02.02-.05.01-.07.03-.03.02-.04.05-.07.07h-.04s.02.03,0,.04c-.03.02-.07.02-.1.04v.04s-.05.02-.07.03c0,.01-.02.03-.03.04-.03.02-.07,0-.09.03-.01,0-.02.05-.03.05h-.01s-.09,0-.11-.01c-.04,0-.08.02-.12.03-.09.2-.25.29-.45.38,0,.05-.18.23-.23.3,0,.03-.08.23-.11.27h-.03v.04s-.03.02-.04.03c-.03.04-.03.09-.06.12-.02.02-.05.01-.07.03,0,.01,0,.03-.01.04-.01.01-.05.02-.07.04-.02.02-.01.04-.03.05h-.03s0,.04-.01.05c-.01.01-.05.02-.07.04-.02.02,0,.04-.03.05h-.03s0,.05-.03.07c-.02,0-.03,0-.04.02,0,.01,0,.03.01.04-.02.01-.03.02-.05.03,0,0,0,.02.01.03-.02.01-.04.03-.05.04v.04s-.08.1-.09.11h-.03v.04s-.04.01-.06.03c0,.02,0,.04-.01.05-.01.02-.04,0-.06.03v.04s-.03,0-.04.01v.05s-.06.06-.08.09v.04s-.04.03-.06.04c-.02.05,0,.08-.03.13,0,0-.02,0-.03.01,0,.02.02.03.01.05-.01.04-.06.09-.05.11,0,.05-.02.12,0,.14.02.04.05.04.08.07v.03s.04,0,.07.01c.02.01.03.06.06.07.05,0,.11,0,.16-.01.01,0,.03.02.05.03v.05s0,.25-.01.29c.06.02.04.05.08.08.02.01.12.02.07.05.03.02.06,0,.08.03.07.09.11.26.15.37v.05s.05.07.07.1v.04s.03.02.04.03c0,.02,0,.03-.01.04.02.01.04.02.05.04.01.02,0,.04.01.05h.03s0,.04.01.07h.03s.11.09.12.15c.02,0,.04,0,.07.01,0,.07.12.1.14.19.03,0,.06,0,.08.02.01.07.07.1.1.15,0,.04.02.08.03.12,0,.02.06.08.07.09.02.04.04.16.03.19.02.05.06.12.08.16v.06s.04.03.05.05c.04.09.03.35-.01.41-.04.12-.19.1-.19.25-.01.02,0,.13,0,.19-.06.04-.1.08-.18.09.02.06.02.14.01.25-.15.1-.16.3-.4.34v.04c-.07,0-.42.03-.42.03-.04,0-.1.05-.15.03,0,0,0-.02-.01-.03-.02,0-.1.02-.12.01,0,0,0-.02-.01-.03-.03-.01-.07.02-.12,0-.04-.01-.05-.05-.08-.07-.06-.01-.12-.03-.17-.04-.01,0-.03-.04-.04-.04-.03,0-.06,0-.1-.01-.06-.02-.1-.08-.15-.12-.02,0-.04,0-.07-.01-.03-.02-.03-.07-.05-.08-.05-.04-.06.04-.08-.05-.08,0-.1-.05-.15-.07-.04,0-.06.02-.11,0-.07-.04-.1-.15-.15-.22-.04-.05-.12-.06-.14-.15-.09,0-.15-.04-.22-.05h-.12s-.13-.03-.16-.04c-.01,0-.07.02-.11,0-.02,0-.05-.05-.07-.05-.05-.02-.37-.01-.47-.01-.05-.07-.11-.11-.12-.22-.07,0-.2-.07-.24-.11v-.03s-.06,0-.08-.01c-.02,0-.03-.05-.05-.06-.06,0-.13,0-.19-.01-.01-.02-.03-.04-.04-.05,0,0-.07-.01-.07-.01-.07-.02-.16.02-.19.03h-.17s0,.02-.01.04c-.05,0-.11,0-.16.01-.01.01-.02.03-.03.04-.05.03-.18.04-.22.03-.05.03-.13.08-.25.08v.04s-.08.02-.12.03c-.05.11-.11.21-.2.27-.03.02-.08,0-.11.03-.01.01-.01.05-.03.06-.03,0-.06,0-.09.01-.03.01-.05.06-.08.07-.05,0-.11.01-.16.02,0,.02-.02.04-.03.05-.03,0-.05,0-.08.01v.04s-.07.03-.08.04c0,0,0,.02.01.03l-.04.03v.06l-.05.08h-.03s-.07.1-.07.1v.06h-.03s-.02.1-.03.15c-.02.04-.08.06-.11.09v.04c-.05.1-.15.16-.3.16,0,.05-.04.03-.07.08v.04c-.03.07-.05.12-.11.16,0,.01,0,.03-.01.04-.05.04-.14.02-.21.04-.02,0-.03.04-.05.06h-.04s-.05.06-.07.09h-.04c-.05.04-.11.1-.18.12-.08.03-.18-.02-.24-.01-.03,0-.08.02-.14.04,0,.02,0,.03.01.04-.04,0-.29,0-.33.01,0,.01-.02.03-.03.04h-.15s-.01-.03-.01-.04c-.08,0-.15,0-.23-.01-.01,0-.03-.04-.04-.04-.09-.04-.64-.07-.75-.01-.02,0-.13.14-.15.16-.17,0-.23.04-.38-.01-.06.04-.16.1-.24.07,0,.04,0,.02-.03.03-.03-.03-.19-.09-.24-.01-.06.03-.12.26-.15.32-.02.02-.04.03-.05.04,0,0,.02.03-.02.06h-.03s0,.04-.01.07h-.03v.04s-.04.02-.05.03c0,.02-.01.04-.01.05-.02,0-.04,0-.07.01l-.08.11c-.03.05-.03.21-.03.25-.01.03-.05.16-.05.16h-.03s0,.11-.03.13h-.03s-.03.06-.05.08c-.01,0-.03,0-.04.01-.01.02,0,.04-.01.06-.02.01-.04,0-.05.01,0,0,0,.02.01.03-.03.02-.05.04-.08.05v.04s-.03.02-.04.03c-.02.05-.01.13-.04.18-.03.06-.1.08-.14.15,0,.08,0,.17-.01.25-.02.06-.05.15-.07.23,0,.01,0,.03.01.04,0,.05,0,.15-.03.2-.03.07-.11.13-.14.19,0,.01,0,.03.01.04-.01,0-.03,0-.04.01,0,.02,0,.03.01.04-.02.05-.04.07-.05.11-.02.07,0,.14-.01.19-.02.04-.06.08-.08.12-.03.07,0,.13-.01.19,0,0-.02.03-.01.05.01.06.09.16.07.21.04.04.09.07.1.15.03,0,.05,0,.08.01.02.07.14.21.11.31-.01.06-.16.27-.15.31l.03.03s-.02.04-.01.05c0,0,.02,0,.03.01.01.04,0,.11.03.13.01,0,.03,0,.04.01,0,.01,0,.03-.01.04.02.03.06.04.07.08.03.08-.03.15-.05.19-.06.12-.08.29-.2.34-.02.02-.06.03-.08.01-.1.1-.29.06-.46.1-.12.03-.33.03-.41.03-.06,0-.3.07-.34.06-.15-.06-.28-.13-.46-.14,0-.03,0,0,0-.04-.08,0-.15,0-.23-.01-.03-.04-.05-.07-.08-.11.08-.08-.05-.41-.12-.46-.04-.03-.09-.03-.14-.05,0,0,0-.02-.01-.03-.03,0-.06,0-.1-.01,0-.01-.02-.03-.03-.04-.04-.02-.09-.01-.12-.04,0-.02-.02-.04-.03-.05h-.07s-.09-.07-.1-.1c-.09-.11,0-.23-.05-.34-.02-.04-.06-.07-.08-.1v-.04s-.03-.02-.04-.03c0-.01-.02-.07-.03-.08,0-.01.01-.03.01-.04-.01,0-.03,0-.04-.01-.05-.09-.01-.19-.08-.27-.01-.01-.06-.06-.07-.07-.03,0-.05-.01-.08-.01,0-.01,0-.03-.01-.04h-.04v-.03s-.05,0-.08-.01c0,0-.03-.06-.04-.07-.07-.05-.15-.11-.19-.18h-.01v-.09s.12-.1.1-.16c0-.03-.02,0-.03-.07-.02,0-.04,0-.07-.01-.01-.04-.16-.25-.19-.27-.02,0-.05,0-.07-.02-.01,0-.07-.1-.11-.13-.03-.03-.19-.1-.15-.14-.05-.03-.07-.03-.11-.07-.12,0-.24,0-.35.01-.17-.04-.35-.07-.44-.08-.06,0-.14.04-.22.01-.07-.02-.11-.12-.19-.15-.08-.03-.23.06-.31.06-.04,0-.06-.07-.1-.09-.09-.03-.42.02-.49.03-.02.09-.08.22-.15.26-.06.03-.14,0-.16.01-.03.01-.04.04-.08.07-.03.02-.06,0-.1.02,0,.01,0,.03-.01.04-.03.03-.06,0-.1.03-.01.02-.03.04-.04.06-.03,0-.05.02-.08.03v.03s-.05.03-.07.04c-.01.01-.01.04-.03.05-.02,0-.05,0-.07.01-.01.02-.03.05-.04.07-.02,0-.04,0-.05.01-.04.03-.01.05-.08.07,0,.03,0,.03-.01.04-.11.11-.25.1-.38.16-.03.01-.03.05-.06.07-.03,0-.05.02-.08.03v.04s-.07.03-.09.04c0,.03,0,0,0,.04-.02,0-.02,0-.06.01v.04c-.11.07-.3.38-.39.39-.01.07-.04.04-.07.08v.06s-.03,0-.04.01v.04s-.04.03-.06.04c-.04.05-.04.13-.07.19,0,.02-.05.04-.05.06-.02.04.01.06,0,.09,0,0-.02,0-.03.01-.02.06.04.13.05.19,0,.08-.02.15-.03.23-.01.04-.04.1-.07.13-.01,0-.03.01-.04.02-.06.07-.05.3-.03.33.02.04.04.07.07.11.01,0,.03,0,.04.01v.03s.05,0,.07.01c.06.03.11.07.12.15.09.14-.11.32-.15.38,0,.03,0,.05-.01.08,0,0-.02.01-.03.02,0,0,0,.01.01.02-.01,0-.02,0-.03.01,0,.02,0,.05-.01.07-.01,0-.03.02-.04.03,0,.01.01.03.01.04-.01,0-.03.02-.04.03-.02.04-.02.09-.04.12-.01,0-.03,0-.04.01,0,.03,0,.05-.01.08h-.03s0,.03.01.04c-.02.04-.05.07-.07.11,0,.01.03.03.01.05,0,0-.02,0-.03.01-.02.04-.02.07-.04.12-.01.03-.06.07-.07.1v.05s-.02,0-.03.01c0,.02,0,.03.01.04,0,.01-.03.05-.03.05,0,.03.02.08,0,.12-.01.04-.07.11-.09.16,0,0,0,.02.01.03-.04.07-.08.19-.16.22-.13.11-.26-.07-.44,0-.09.03-.02.08-.16.08-.06.04-.16,0-.19-.04v-.03h-.04s-.04-.02-.05-.03v-.03s-.05,0-.07-.01c-.04-.02-.24-.2-.22-.22-.16-.1-.29-.08-.52-.08-.01-.04-.04-.05-.05-.08v-.07c-.02-.08-.03-.18-.06-.2-.07-.07-.2-.1-.28-.12,0,0-.01-.02-.02-.03-.05-.02-.09,0-.12-.03-.11-.1-.1-.26-.16-.41-.04-.11-.14-.19-.19-.3-.03,0-.06,0-.09-.01v-.04c-.07-.02-.07-.09-.11-.14-.02-.02-.07-.03-.08-.06v-.04s-.04,0-.05-.01v-.04s-.04-.01-.05-.01c-.02-.03-.04-.05-.05-.08h-.07s-.03-.04-.04-.06c-.02,0-.04,0-.05-.01-.03-.02-.08-.1-.07-.12-.02-.01-.04-.03-.05-.04v-.05s-.04,0-.05,0c-.02-.02-.01-.03,0-.04-.02,0-.04-.02-.05-.03-.03-.04-.03-.08-.06-.12-.02,0-.03,0-.04-.01-.04-.05.04-.05-.04-.08-.04-.04-.18-.02-.23-.05-.07-.05-.1-.19-.18-.23h-.08s-.04-.04-.05-.05c-.03,0-.05,0-.08-.01-.13-.08-.09-.26-.25-.27-.04-.03-.23-.13-.31-.11-.03,0-.07.04-.1.05-.1,0-.2,0-.3-.01,0,0-.03.04-.04.04-.05,0-.1.02-.15.03,0,0,.02.03,0,.04-.03.02-.08.03-.11.04v.04c-.06,0-.13.03-.19,0-.08-.04,0-.07-.18-.07-.17.19-.22.03-.46.1-.06.02-.21.09-.3.12,0,0-.16,0-.2.01,0,0-.03.04-.04.04-.06.02-.25.04-.3.03,0,.02.01,0,.01.01.03.01-.03.01-.03.01-.12.09-.32,0-.52.04,0,0-.09,0-.1.01,0,.01,0,.03-.01.04-.04,0-.08,0-.12.01-.03.01-.06.06-.08.07-.03.02-.12.02-.12.02h-.01s0,.03-.01.04c-.04,0-.08.02-.12.03-.02.02-.04.04-.05.07-.03,0-.07,0-.1.01-.05.03-.09.1-.14.14-.02,0-.04,0-.07.01,0,.01,0,.03-.01.04-.04,0-.08.02-.12.03-.03.01-.04.05-.07.07-.02,0-.05,0-.07.01-.01.01-.01.04-.03.05-.02,0-.04,0-.05.01-.01.02-.03.05-.04.07h-.03s-.05.1-.1.12c-.04,0-.08.02-.12.03-.01,0-.03.05-.07.07-.03,0-.06,0-.1,0,0,.01,0,.03-.01.04-.02,0-.04,0-.07.01,0,.02,0,.04-.01.05-.02,0-.04,0-.05.01-.06.05-.07.13-.11.2-.01,0-.03.02-.04.03-.05.09.03.19-.01.31,0,.01-.04.04-.04.06-.02.06,0,.1,0,.14-.02.1-.03.19-.04.29-.03.02-.02.04-.04.05-.04.03-.11.02-.14.06-.04.06,0,.14-.08.19-.02,0-.04,0-.06.01v.03s-.05.03-.05.03h-.06s0,.03-.01.04c-.02,0-.04,0-.06.02,0,.01,0,.03-.01.04h-.03v.04c-.04.05-.11.09-.14.15-.03.07.01.11,0,.18l-.03.07s.06.16.07.18c.02,0,.04.02.05.03v.04s.04,0,.04.02c.04.09-.04.17-.06.25-.01.08.08.18.06.29-.02.05-.07.15-.11.18-.03,0-.05.02-.08.03.02.04-.07.11-.1.15,0,.04-.08.21-.11.26-.01,0-.03.02-.04.03v.04s-.03.02-.04.02c-.05.1-.01.24-.05.37-.03.08-.1.12-.14.19-.05,0-.09.01-.14.02,0,.06-.05.04-.11.08,0,.01,0,.03-.01.04-.04.04-.38.13-.49.11-.06-.01-.16-.01-.2-.04-.03-.02-.01-.05-.08-.07-.11-.03-.23.09-.31.07-.02,0-.07-.04-.11-.05-.07,0-.15,0-.22-.01-.02,0-.04-.04-.05-.05-.03,0-.06-.02-.1-.03,0-.01,0-.03-.01-.04-.07,0-.14-.01-.21-.02-.02-.05-.09-.09-.12-.14v-.07s-.02,0-.03-.01v-.05s-.02,0-.03-.02v-.06s-.02,0-.03-.01c0,0,0-.11-.01-.14h-.03s-.05-.07-.06-.08c0-.04,0-.08-.01-.12-.01,0-.03-.02-.04-.03v-.04s-.06-.01-.07-.03c-.03-.04,0-.14-.02-.16-.05-.13-.27-.13-.33-.27v-.14h-.03s-.08-.09-.08-.09c0-.01,0-.03.01-.04-.03-.06-.07-.14-.09-.2,0-.03,0-.06-.01-.08,0,0-.06-.09-.07-.09h-.03c-.05-.05-.1-.15-.12-.22-.05-.13.07-.29,0-.42,0-.02-.1-.11-.14-.14-.02,0-.05,0-.07-.01,0-.02,0-.03-.01-.04-.02-.02-.06-.03-.08-.05v-.04s-.04,0-.05-.01c-.06-.05-.08-.11-.16-.15v-.04s-.05,0-.07-.01c-.02-.07-.2-.24-.18-.27-.02-.02-.13-.04-.08-.08-.06-.04-.14-.04-.18-.09-.05-.07-.05-.21-.14-.26-.04-.03-.07,0-.12-.03-.04-.02-.08-.09-.1-.13-.05,0-.1,0-.15-.01v-.03s-.1.04-.11.04c-.1,0-.21,0-.31.01-.09-.03-.27-.14-.33-.21-.15,0-.19.05-.29.1-.07.04-.15.02-.22.06,0,.01-.02.03-.03.04-.05,0-.1,0-.15.01-.02,0-.04.04-.05.05-.08.04-.15,0-.22.03-.03.02-.07.06-.11.07-.07,0-.14,0-.22-.01-.17.03-.55,0-.73-.04-.04,0-.36.05-.38.05-.12.02-.12-.06-.18-.1-.05,0-.09-.02-.14-.03v-.03s-.08,0-.12-.01c0-.01-.02-.03-.03-.04-.03-.02-.04,0-.05-.02-.04,0-.14.04-.19.02-.11-.05-.24-.18-.38-.15-.07.02-.17.04-.25.06-.06,0-.13,0-.19.01v.03h-.04c-.06.03-.18,0-.21.01-.09.02-.16.11-.24.14-.06,0-.12,0-.18.01-.07.02-.25.05-.34.07-.09,0-.18.02-.27.03,0,.01,0,.03-.01.04-.07,0-.15,0-.22.01-.06.02-.12.06-.18.08-.03,0-.06,0-.09.01v.03s-.06,0-.1.01c-.1.04-.09.09-.26.09v.04c-.12.04-.16.24-.27.3-.07.04-.21-.01-.3.02-.05.01-.04.04-.07.07-.03,0-.05,0-.08.01-.09.06-.18.14-.33.15,0,0,0,.02.01.03h-.01s-.1.02-.15.04c-.03.01-.06.05-.1.07h-.04c-.12.07-.31.34-.49.3,0,.02,0,0,.01.01.03.01-.03.01-.03.01-.04.03-.1.05-.15.06-.06.01-.16-.06-.27-.03-.12.03-.34.05-.45.03-.05,0-.11,0-.16.01-.07-.02-.11-.11-.19-.13-.06-.02-.13.02-.16.01-.03,0-.08-.06-.11-.07-.04,0-.08,0-.12-.02v-.03s-.05-.04-.08-.05v-.04s-.04,0-.05-.01c-.01-.01-.02-.05-.03-.06-.02,0-.05,0-.07-.01-.01-.01-.01-.06-.03-.07h-.04s-.01,0-.04-.01v-.04c-.08-.03-.08-.09-.12-.15-.01,0-.03,0-.04-.01,0-.02,0-.04-.01-.07-.08-.19-.12-.38-.14-.59-.03-.02-.02-.04-.04-.06-.03,0-.05-.02-.08-.03-.01-.02-.03-.04-.04-.07-.01,0-.03,0-.04-.01-.04-.06-.03-.18-.05-.22h-.03v-.05s-.05-.01-.05-.03v-.04s-.04-.01-.05-.03v-.04s-.04-.02-.05-.03c-.04-.06-.01-.18-.04-.23,0-.06.05-.15.07-.2,0-.02.01-.12.01-.12,0-.01-.05-.08-.05-.1-.01-.03.02-.04.01-.05,0,0-.02,0-.03-.01-.01-.05.02-.05,0-.08,0-.09.07-.16.03-.26-.03-.08-.13-.17-.16-.24,0-.01,0-.03.02-.04,0,0-.04-.03-.04-.04,0-.01,0-.03.01-.04-.01-.04-.05-.09-.05-.13h.01v-.02s-.03,0-.04-.01v-.04s-.04-.04-.05-.06c0-.01,0-.03.01-.04-.01,0-.03,0-.04,0v-.06s-.03-.03-.04-.05c0,0,.02,0,.01-.01-.03-.04-.1-.06-.12-.11-.03-.05-.06-.1-.08-.15h-.01s0-.03.01-.04h-.03s0-.09-.03-.13c-.02-.04-.04,0-.05-.07-.04,0-.07,0-.11-.02-.02-.03-.06-.05-.08-.08v-.04s-.04-.02-.05-.04v-.04s-.04-.02-.05-.02c-.04-.06-.05-.12-.08-.19-.04-.07-.1-.15-.14-.23-.05,0-.11-.01-.16-.02,0-.01,0-.02-.01-.04-.08,0-.15,0-.23-.02,0,0-.12-.09-.12-.09,0-.01,0-.03-.01-.04h-.04s-.09-.07-.11-.08h-.1c-.09-.03-.05-.05-.19-.05,0,0,0,.02.01.03h-.08c-.1.07-.19-.02-.31.02-.06.02-.11.06-.16.08-.03,0-.34-.07-.37-.08-.02-.01-.03-.05-.06-.05h-.12c-.06.09-.13.16-.25.2-.03,0-.06,0-.1.01l-.04.03v.04s-.05.01-.07.02c0,0,0,.02.01.03,0,0-.02.02-.03.03-.12.08-.31.09-.42.19,0,0,.02,0,.02.01h-.02s-.13.08-.17.1c-.04.02-.08,0-.11.03,0,.01,0,.03-.01.04-.02,0-.05,0-.07.01,0,0,0,.02.01.03,0,0-.12.11-.12.11-.05,0-.1,0-.15.01,0,.01,0,.03-.01.04-.03,0-.05,0-.08.01-.02.01,0,.05-.03.07-.02,0-.04,0-.05.02-.06.04,0,.05-.12.05-.09-.06-.26,0-.37.01-.05.1-.13.17-.19.26-.02.02-.06.03-.08.05,0,0,0,.08-.01.13-.04.15-.04.34-.16.42-.09.06-.23.03-.35.07-.04.01-.05.06-.08.07h-.26s-.05.05-.07.08c-.03.02-.13.05-.16.05,0-.01-.02-.03-.03-.04h-.15s-.07-.03-.11-.04c0-.05-.02-.04-.03-.09.06-.06,0-.09-.01-.17-.1,0-.2,0-.3,0-.05,0-.06.02-.1,0-.07.03-.1.09-.2.1-.02-.02-.07-.03-.08-.04v-.04c-.04-.05-.09-.12-.12-.19v-.06c-.04-.06-.11-.11-.12-.2-.08-.01-.07-.06-.12-.08-.04,0-.08,0-.12-.01-.01,0-.02-.04-.03-.04-.04-.03-.11,0-.15-.04-.04-.03-.07-.15-.05-.19-.03-.04-.09-.07-.11-.11v-.04s-.06-.08-.07-.11c0-.02,0-.03.01-.04-.01,0-.02,0-.03-.01-.02-.04-.02-.08-.04-.12-.02,0-.03-.02-.04-.03-.04-.07,0-.19-.01-.25.04-.01.13-.14.15-.18-.01-.02-.01-.03-.01-.06-.07-.03-.03-.04-.07-.08-.01,0-.03,0-.04-.01-.04-.06-.03-.09-.03-.18h-.01s.03-.02.04-.03v-.04s.05-.07.07-.11v-.04s.06-.04.07-.12c0-.02,0-.01,0-.06-.06-.02,0-.02-.04-.05-.02,0-.04,0-.06-.01,0-.02-.02-.04-.03-.05-.07-.07-.16-.11-.19-.23-.03-.1.06-.18.02-.27-.02,0-.03-.02-.04-.03,0-.02,0-.05-.01-.07-.02,0-.04,0-.06-.01,0-.02,0-.04-.01-.05,0,0-.02-.01-.03-.02-.01-.06-.03-.12-.04-.19h.01v-.02s-.03,0-.04-.01c0-.01,0-.03-.02-.04-.01,0-.03,0-.04-.01-.03-.02-.03-.06-.05-.08-.01,0-.03,0-.04-.01v-.04c-.04-.06-.1-.13-.12-.19-.02-.04,0-.09,0-.11,0,0-.03-.04-.03-.05,0,0,0-.02.01-.03,0,0-.05-.07-.05-.08v-.06s-.04.01-.05-.07c-.05,0-.06,0-.1-.01-.06-.1-.14-.27-.28-.27-.07-.05-.18,0-.27-.03-.07-.02-.12-.07-.2-.08v-.04h-.03c-.05-.04-.18-.05-.22-.05-.03,0-.06.03-.11.03-.03,0-.11-.05-.16-.03-.02,0-.04.04-.08.05h-.12v.03s-.04.02-.04.02c-.1.03-.23-.01-.33.02-.06.02-.15.08-.23.1-.02,0-.11-.04-.15-.01v.03s-.14.05-.18.05v.04c-.11,0-.18.05-.26.07-.03,0-.1-.02-.15,0-.03.01-.04.06-.07.08-.04,0-.07,0-.11.01,0,0,0,.02-.01.03-.04.02-.07.01-.11.03-.04.02-.08.07-.12.08-.03,0-.06,0-.08.01,0,.02,0,.03-.01.04-.04,0-.07,0-.11.01-.03.02-.04.07-.08.08-.04,0-.07,0-.11.01,0,0,.01.02.01.03-.04.02-.07.02-.1.05,0,0,.02.04-.01.05h-.04s0,.02.01.03c0,0-.12.11-.12.11-.04,0-.08,0-.12.02v.03c-.1.06-.34-.01-.48.03-.04.01-.1.05-.14.05-.04,0-.28-.06-.35-.08,0-.01.01-.02.01-.03h-.14c-.08.06-.3-.07-.33-.14,0,0-.07-.02-.11-.02-.02-.02-.05,0-.08-.01-.06-.03-.15-.11-.22-.14-.03,0-.05,0-.08-.01,0-.02,0-.04-.01-.05-.11-.16-.19-.2-.18-.42.09-.07.12-.21.12-.33-.01-.01-.08-.08-.08-.09,0-.02,0-.03.01-.04h-.03s-.15-.05-.17-.11c-.07-.09.03-.19.01-.27-.03-.17.02-.31.04-.48.01-.09-.04-.19,0-.3,0-.02.04-.07.04-.07.02-.04.05-.26.04-.31-.02-.17-.04-.33-.1-.51-.01-.04-.01-.13-.01-.13-.01-.03-.05-.07-.07-.1v-.04s-.09-.07-.11-.1c-.03-.04-.02-.08-.05-.12-.01-.01-.05-.01-.05-.03v-.05s-.04,0-.05-.02v-.04s-.04-.03-.05-.04c-.03-.05-.01-.09-.04-.14-.02-.03-.06-.05-.08-.08.02-.14-.02-.2-.07-.29v-.05c-.05-.12-.11-.31-.11-.39,0-.07-.05-.11-.03-.15-.01-.06-.08-.15-.11-.16-.03-.03-.14-.08-.18-.1h-.11s-.05-.02-.05-.03v-.03s-.1,0-.14-.03c-.02,0-.15-.13-.16-.15,0-.02,0-.04-.01-.06h-.03s-.07-.06-.1-.1c0-.02-.02-.04-.03-.05-.02-.01-.05,0-.07-.03v-.03h-.03s-.06-.07-.07-.1c-.02-.04,0-.18,0-.19-.02-.01-.04-.03-.05-.04-.03-.03.02-.02-.03-.04-.02-.02-.04-.02-.08-.03v-.04c-.18,0-.34-.03-.52-.04-.02-.03-.11-.12-.15-.15v-.04h-.04c-.05-.07-.14-.1-.19-.16v-.04s-.04,0-.05-.01c-.02-.02-.01-.05-.03-.07-.01,0-.03,0-.04-.01,0-.02-.02-.04-.03-.05-.02-.02-.05-.01-.07-.03,0-.01,0-.03-.01-.04-.01,0-.03,0-.04-.01-.01-.01-.01-.04-.03-.05-.03,0-.05-.02-.08-.03-.01-.02-.03-.04-.04-.05-.05,0-.11-.02-.16-.03,0-.02-.01-.03-.01-.04-.05-.01-.1-.02-.15-.03-.12-.05-.24-.11-.35-.16v-.04c-.13,0-.33-.14-.42-.2-.02,0-.04,0-.07-.01,0-.01,0-.03-.01-.04,0,0-.16-.03-.19-.05,0,0-.01-.03-.03-.04h-.06s-.07-.06-.11-.08c-.02,0-.04,0-.06-.01-.02-.02,0-.04,0-.04-.03-.02-.07,0-.09-.04v-.04s-.04,0-.06-.02c-.02-.01,0-.04-.02-.05-.01-.01-.04-.01-.05-.03-.01-.02,0-.05,0-.05h-.03s-.02-.05-.03-.07h-.03s-.03-.06-.05-.08c-.02,0-.05,0-.07-.01-.02-.01,0-.04,0-.04h-.04c-.06-.04-.15,0-.23-.03-.04,0-.11,0-.15,0-.04,0-.14-.04-.19-.03-.05.01-.14.04-.19.05-.04,0-.12-.03-.15-.04-.01,0-.09.04-.12.04v.04c-.09,0-.22.04-.27.03-.02,0-.05.04-.07.05-.04,0-.09.02-.13.03-.03.02-.2.19-.22.22,0,.02,0,.04-.01.05h-.03s-.04.07-.08.1h-.04s0,.03-.02.04c-.02,0-.04.01-.07.02-.01.02-.03.04-.04.05-.04,0-.08.02-.12.03-.01,0-.04.05-.05.05-.05,0-.1,0-.15.01,0,0,0,.02-.01.03-.07.04-.17.07-.23.1-.08,0-.15.02-.23.03,0,.01,0,.02-.01.03-.03.02-.07,0-.11.03-.04.02-.07.06-.11.08-.03,0-.05.01-.08.02,0,0-.02.04-.03.04-.06.02-.14,0-.2.03-.02,0-.03.05-.04.06-.03,0-.06,0-.1.01,0,0-.03.04-.04.04-.08.03-.12-.08-.23-.05-.04,0-.07.04-.1.05-.06.03-.15,0-.22,0,0-.03,0-.03-.01-.04-.04-.04-.09-.05-.16-.05-.02.03-.07.07-.14.04-.02,0-.05-.05-.08-.06-.03,0-.17,0-.2.03l-.03.03c-.08.02-.14,0-.2,0-.02-.05-.04-.07-.1-.08,0-.03,0-.03-.01-.04-.02-.02-.06-.03-.08-.05,0-.01,0-.03-.01-.04-.03,0-.06,0-.08-.01,0-.01,0-.03-.01-.04-.05-.04-.1-.07-.16-.11,0-.01-.02-.02-.03-.04-.03,0-.05,0-.08-.01-.02,0-.03-.06-.04-.07-.02,0-.05,0-.07-.01-.02-.02-.05-.1-.05-.12.03-.05.03-.16.03-.25-.03-.02-.08-.07-.1-.11.01-.02.01-.04.01-.07.19-.1.29-.11.42-.26-.01-.02-.01-.03-.01-.05-.07-.02-.22-.17-.25-.21.07-.09.11-.28.07-.38,0-.02-.06-.08-.07-.1,0-.02.01-.12.01-.16.14-.1.21-.2.25-.39,0-.04-.03-.16-.01-.23.04-.14.1-.17.09-.39.04-.02.08-.06.12-.08.07-.03.08,0,.14-.03,0-.07,0-.37.1-.41.06-.05.16-.07.23-.1h.06s.03-.05.07-.07h0s-.03-.01-.04-.01c-.01-.09-.09-.11-.07-.21,0,0-.02,0-.03,0-.02-.08.08-.3.14-.34.02,0,.04-.01.06-.01,0,0,0-.02-.01-.03.02-.02.04-.02.07-.04.07-.06.13-.15.18-.23-.02-.04,0-.13-.03-.2,0,0-.04-.03-.04-.04-.02-.06-.03-.14-.04-.19,0-.02.01-.04.01-.04v-.02h-.01c-.01-.07.01-.12,0-.16-.05-.21-.04-.35-.04-.56,0-.02-.03-.08-.03-.1,0-.03.01-.03.01-.05,0-.15-.18-.22-.2-.36-.11,0-.4.03-.46-.01-.01-.02-.03-.05-.04-.07-.02,0-.04-.01-.07-.01-.07-.06-.15-.25-.2-.34-.07-.11-.22-.17-.27-.29-.01-.07-.03-.14-.04-.2,0,0,.03-.11.03-.11-.03-.04-.06,0-.04-.07-.09-.02-.04-.03-.07-.06-.02,0-.05,0-.07-.01-.03-.02-.03-.06-.07-.08h-.05s-.05-.05-.07-.06c-.03,0-.05,0-.08-.01-.04-.02-.09-.06-.14-.08h-.04c-.06-.03-.12-.14-.18-.19-.03,0-.05-.02-.08-.03-.05-.03-.11-.11-.15-.16-.05-.06-.22-.27-.19-.32-.06-.07-.23-.2-.24-.3-.08-.01-.11-.07-.16-.11-.05-.03-.12-.02-.18-.05,0-.01,0-.03-.01-.04-.03,0-.05,0-.08-.02-.02,0-.01-.05-.03-.06-.03,0-.06-.01-.09-.02,0,0-.09-.06-.11-.07-.02-.01-.03-.05-.04-.07h-.03s-.12-.11-.15-.16v-.04s-.04-.03-.05-.04v-.04s-.04-.01-.06-.03c-.06-.07-.14-.15-.18-.24-.04-.1-.02-.16-.07-.25-.01,0-.03-.02-.04-.03v-.04s-.04,0-.06-.01l-.08-.1s0-.02,0-.04c-.18-.01-.31-.11-.45-.16,0,0,0-.02.01-.03h-.01s-.06-.01-.08-.03c-.01-.02-.03-.05-.04-.07h-.04s-.12-.09-.12-.1c-.1-.13-.03-.38-.19-.39-.03-.02-.08-.01-.12-.03-.03-.01-.04-.05-.07-.07-.02-.01-.12-.02-.07-.05-.06,0-.12-.02-.18-.03-.04-.02-.12-.05-.15-.08,0-.02,0-.03-.01-.04-.02,0-.04,0-.07-.01-.04-.04-.14-.22-.12-.27-.01-.01-.03-.02-.04-.03v-.05c-.05-.09-.19-.05-.24-.11-.06-.07-.05-.18-.16-.19-.08-.05-.25.02-.35-.01-.13-.04-.26-.17-.29-.32-.1-.01-.24-.09-.29-.16-.02-.03-.03-.11-.05-.13-.01-.01-.07-.02-.08-.04v-.04h-.03s0-.03-.01-.05c-.02,0-.04-.02-.05-.03,0-.02,0-.04-.01-.06-.03,0-.06-.02-.09-.02,0-.02,0-.03-.01-.04-.03,0-.05,0-.08-.01-.02-.01-.03-.06-.04-.07-.02,0-.04,0-.05-.01-.03-.02-.14-.13-.16-.16-.03-.04-.11-.22-.09-.26-.1-.14-.11-.2-.15-.39,0-.02,0-.04.01-.05,0-.03-.03-.12-.01-.18.02-.08.08-.18.07-.26,0-.05-.04-.07-.05-.1,0-.01,0-.03.01-.04,0,0-.02,0-.03-.01,0-.04,0-.09-.01-.13,0,0-.02,0-.03-.01-.04-.09-.03-.15-.03-.26.1-.07.26-.32.25-.45-.01-.09-.07-.22-.04-.31.03-.09.12-.13.16-.19,0-.05.02-.09.03-.14-.1-.07-.14-.32-.18-.47,0-.03.03-.09.06-.12-.01-.15.11-.27.15-.37.04-.11-.02-.27-.04-.38,0-.04.05-.26.05-.33,0-.02-.03-.09-.01-.14.04-.13.14-.21.18-.33.02-.05,0-.09,0-.12-.07-.02-.13-.12-.14-.2.03-.02.02-.04.04-.07.01,0,.06-.02.07-.04.05-.09.02-.24.04-.33-.06-.02-.05-.07-.09-.1-.02-.01-.12-.02-.07-.05-.04,0-.07-.01-.11-.01-.02-.01-.03-.06-.04-.07-.02,0-.04,0-.05-.01l-.07-.08v-.05s-.05-.06-.07-.08c0-.02-.01-.04-.01-.07h-.03s-.04-.07-.04-.08c-.03-.09.02-.18.04-.26-.01-.03-.09-.11-.1-.12,0-.01,0-.06,0-.08.02-.03.08-.08.1-.11,0-.02,0-.03-.01-.04,0,0,.02,0,.03-.01.03-.06,0-.12.01-.16-.01,0-.03-.02-.04-.03,0,0,0-.02.01-.03-.02-.02-.05-.01-.07-.03-.01-.01,0-.04-.01-.05-.03,0-.06-.02-.1-.03-.1-.08-.18-.31-.14-.41-.06-.05-.07-.14-.14-.15-.01,0-.01,0-.04-.01v-.04c-.08-.02-.08-.11-.14-.15-.03-.02-.08,0-.11-.03,0,0-.02-.02-.03-.03,0,0,0-.02.01-.03h-.06s-.03-.05-.05-.07c-.02,0-.04,0-.05-.01,0-.02,0-.05-.01-.07-.02,0-.04,0-.05-.01v-.04s-.05-.03-.05-.05c0-.01.01-.03.01-.04h-.03s-.02-.09-.06-.13c-.01,0-.03,0-.04-.02-.01,0-.03-.02-.04-.03,0,0,0-.02.01-.03h-.06s-.06-.04-.08-.05c-.05-.04-.07-.15-.14-.18-.04-.02-.13.03-.22,0,0,0-.05-.01-.05-.01,0-.01,0-.03-.01-.04h-.08s-.14-.12-.15-.15c-.05,0-.1-.02-.15-.03,0,0,0-.02-.01-.03-.01,0-.03,0-.04.01-.11-.03-.14.04-.24.01-.1-.02-.23-.05-.34-.07v-.04s-.09-.03-.11-.05v-.04s-.04,0-.05-.01c-.02-.02,0-.04-.02-.05-.03-.02-.07,0-.11-.03,0,0-.02-.03-.03-.04-.04,0-.08-.01-.12-.02l-.03-.04s-.07,0-.11-.01c-.02,0-.08-.04-.1-.05v-.03c-.05,0-.11,0-.16-.01v-.04c-.06-.02-.05-.07-.1-.1-.02-.02-.05,0-.07-.03.03-.01,0,0,.03-.03h-.15c-.03.07-.16.07-.22.03v-.03s-.07,0-.11-.01c-.03-.02-.03-.05-.06-.07-.02,0-.04,0-.05-.01-.06-.04-.09-.12-.14-.19-.02-.02-.07-.03-.08-.06,0-.01,0-.02-.01-.04h-.04s-.03-.04-.01-.05c-.06-.04-.15-.05-.19-.11-.03-.04-.02-.08-.04-.12,0-.02-.05-.05-.05-.08,0-.07,0-.14-.01-.22-.06-.15-.17-.39-.14-.61,0-.05-.07-.15-.06-.22.02-.08.13-.25.15-.31.04-.1,0-.18.03-.27.01-.03.06-.07.07-.1.02-.03.02-.1.03-.13.03-.12-.02-.24.08-.29.03-.03.11-.04.14-.03v-.02h-.01s.03-.01.03-.01c.03-.03.07-.04.11-.05,0,0,0-.02-.01-.03h.01s.03-.01.04-.03c-.02-.05.08-.27.12-.33.02-.03.08-.08.11-.11h.03c.04-.06,0-.21,0-.34.03-.02.04-.06.07-.08.02,0,.04,0,.06-.01v-.03s.05-.02.07-.04c.02-.02.01-.04.03-.06.02,0,.04-.02.05-.03,0-.05.02-.21.07-.27,0-.01.05-.01.05-.03.04-.06.07-.12.11-.18.01,0,.03,0,.04-.01.02-.04.03-.18.05-.22.01,0,.03,0,.04-.01v-.04s.05-.04.07-.05v-.03s.06-.02.07-.04c.02-.04.04-.16.04-.18,0-.07.01-.15.02-.23.04-.14.03-.33.05-.42.03-.11,0-.2.1-.23.04-.04.13-.03.2-.03v-.04s.05,0,.08-.02c0-.05.01-.04.03-.08-.04-.04-.09-.08-.14-.11v-.03s-.04,0-.05-.01v-.04s-.06-.02-.08-.04c-.06-.08-.1-.24-.12-.35-.01-.05.01-.14.03-.19,0-.02,0-.04-.01-.07,0,0,.02,0,.01-.03,0,0-.02,0-.03-.01,0,0,0-.02.01-.03-.06-.12-.11-.24-.1-.35.02-.11-.08-.4,0-.44.04-.04.07-.03.07-.11.04-.07-.06-.25-.09-.31,0-.01,0-.03.01-.04-.02-.02-.04-.03-.05-.04-.02-.03-.02-.08-.04-.11-.02,0-.04-.01-.05-.02-.05-.04-.14-.08-.18-.14-.05-.06-.08-.18-.07-.26,0-.07.04-.18.01-.25-.01-.03-.05-.06-.07-.08v-.05s-.03,0-.04-.01c0-.02,0-.04-.01-.07h-.03s-.09-.18-.1-.2c-.07,0-.09-.06-.14-.08-.03-.02-.05,0-.07,0-.04,0-.19-.09-.21-.11-.02-.04-.09-.18-.11-.19-.02,0-.04,0-.07,0,0-.02,0-.03-.01-.04-.02,0-.04,0-.07-.01-.02-.02-.04-.04-.05-.07-.02-.02-.05-.01-.07-.03v-.03s-.06-.04-.1-.05c-.01-.01,0-.04,0-.04h-.05s-.01,0-.04-.02v-.04s-.17-.17-.18-.22c-.04-.07.14-.15.04-.3-.01-.02-.05-.01-.07-.03,0-.01,0-.03-.01-.04-.02-.02-.06-.02-.08-.04v-.04s-.04-.01-.05-.03c-.06-.11.05-.15.01-.27,0-.03-.05-.08-.07-.11v-.04c-.03-.06-.13-.1-.18-.15v-.05s-.06-.02-.07-.04c-.03-.06-.04-.18-.05-.26-.02-.11.1-.24.13-.3,0,0-.02-.03-.01-.05,0,0,.02,0,.03-.01v-.05s.02-.03.03-.04c0,0-.02,0-.01-.03,0,0,.02,0,.03-.03-.02-.04-.04-.09-.04-.15-.06-.02-.03-.03-.05-.06-.02-.02-.06,0-.07-.03-.05-.08-.02-.18-.01-.26.06-.04.06-.08.1-.14.05-.07.16-.04.18-.16.07-.12-.04-.37-.07-.49.04-.09.11-.17.16-.24,0-.02,0-.05.01-.07.02-.02.07-.06.08-.08,0-.02-.01-.1.01-.14.03-.04.11-.14.08-.19.14-.19.4-.21.58-.34.07-.05.04-.1.09-.18.04-.07.11-.12.18-.16.02-.01.01-.04.03-.05.02-.02.05-.01.07-.03.02,0,.02-.05.03-.05.06,0,.13,0,.19-.01,0-.01.02-.03.03-.04.04-.03.1-.02.14-.05v-.03s.04-.02.05-.03c0-.02,0-.04.01-.05.02-.03.07-.06.08-.09v-.04c.09-.17.19-.26.25-.45.02-.07-.03-.13-.04-.16-.03-.07.01-.22.01-.29-.06-.02,0-.02-.04-.05-.02-.02-.05-.01-.07-.03-.01-.02,0-.04-.03-.06h-.04s-.11-.09-.11-.09v-.05s-.05-.07-.05-.1c0-.01,0-.03.01-.04-.02-.06-.06-.15-.08-.23,0-.03.02-.06.01-.07,0,0-.02,0-.03-.02,0-.04-.01-.09-.01-.13-.02-.05-.08-.07-.11-.11,0,0,.01-.02.01-.03-.02-.01-.05,0-.07-.03-.01-.01-.06-.08-.07-.09,0,0,0-.02.01-.03-.02,0-.04,0-.05-.01-.01-.01-.01-.04-.03-.05h-.04s-.12-.11-.12-.11c0,0,0-.02.01-.03-.01,0-.03-.02-.04-.03v-.05h-.03s-.03-.05-.04-.07c-.02,0-.04,0-.05-.02-.09-.07-.07-.19-.25-.2-.1-.07-.22.03-.34-.01-.06-.02-.11-.11-.16-.14-.04,0-.09,0-.14-.01-.12-.06-.16-.21-.13-.34-.04-.02-.05-.06-.08-.08-.03-.03-.17-.07-.22-.1,0-.08-.02-.16-.03-.25-.09-.03-.18-.08-.23-.09-.08-.03-.15.03-.23-.01,0-.01-.01-.03-.01-.04-.02-.02-.05-.01-.07-.03-.08-.05-.13-.12-.16-.22-.06,0-.08-.03-.12-.05-.15.02-.16-.06-.2-.19-.02-.06.01-.17,0-.19-.07-.1-.19-.17-.27-.25.06-.11.14-.19.16-.34-.03-.04-.02-.08-.04-.12-.01-.02-.05,0-.07-.03,0,0,0-.02.01-.03,0-.02-.01-.05-.01-.08.05-.03.21-.27.22-.33v-.14s-.02,0-.03-.02c-.03-.07.11-.44.14-.48.02,0,.04,0,.05-.01v-.04s.22-.13.26-.15c.04,0,.09-.02.14-.03.07-.04.12-.14.22-.16h.31s.24-.09.29-.05c.07-.02.19-.1.3-.07.04.01.09.05.12.07.05,0,.1,0,.15.01,0,.01,0,.03.01.04.06.04.2,0,.27,0,0-.09.05-.01.09-.07,0,0,0-.02-.01-.02.02-.02.06-.03.08-.06,0-.01,0-.03.01-.04.01,0,.03,0,.04-.02v-.04s.06-.03.07-.04h.05v-.04c.09,0,.17,0,.26-.01.01,0,.03-.04.04-.04.06-.04.11-.02.18-.05,0,0,.03-.04.04-.04.1-.04.28-.02.3-.02.1-.05.22-.06.33-.08.01-.03.04-.05.06-.07,0-.01,0-.03-.01-.04.03-.05,0-.03.03-.08,0,0,.02,0,.03-.01v-.06s.05,0,.08-.03c.02,0,.01-.04.03-.06.01,0,.03,0,.04-.01,0-.02,0-.03-.01-.05,0,0,.02,0,.03-.01,0-.02,0-.05.01-.06.01,0,.03,0,.04-.02h0s0-.01-.02-.01c0,0,.04-.09.06-.11.02-.03.06-.05.08-.08,0-.02,0-.04.01-.05.01-.02.04-.02.05-.03v-.04s.09-.06.11-.11c.04-.1-.03-.25.02-.34.03-.07.13-.12.16-.18.06-.1.08-.25.15-.34.01,0,.03,0,.04-.01.02-.03.02-.09.04-.12.01-.02.05,0,.07-.03,0,0,0-.02-.01-.03.02-.03.03-.02.04-.06.06-.08-.03-.15-.05-.24.01-.04,0-.07.01-.14.05-.15.11-.27.07-.41v-.15c-.01-.06-.04-.17-.03-.21-.03-.05-.1-.16-.07-.26.04-.11.04-.29.04-.46,0-.04-.03-.11-.01-.15-.03-.06-.09-.19-.05-.32.01-.04.05-.05.03-.09.01,0,.03,0,.04-.01v-.04s.04-.03.05-.04v-.05s.04-.05.05-.07c0-.02.01-.05.01-.07.01,0,.03-.02.04-.03.03-.06.05-.2.07-.27.04-.17-.04-.34-.01-.5,0-.05-.04-.17,0-.22.02-.08.24-.23.33-.25,0-.06.05-.25.1-.27.01,0,.01,0,.04-.01,0-.06.02-.06.04-.09,0,0,0-.08,0-.1.02-.04.05-.13.07-.18v-.07s.02,0,.03-.01c0-.01,0-.03-.01-.04.01-.06.04-.11.01-.18,0-.03-.05-.06-.05-.08-.04-.1.03-.21.05-.27v-.16s-.05-.08-.08-.11c-.02,0-.04-.01-.05-.02-.02-.03-.05-.06-.07-.09h-.03v-.04s-.05,0-.07-.03c0-.02,0-.04-.01-.05-.02,0-.04,0-.05-.01-.02,0-.02-.04-.03-.05-.01,0-.07-.01-.08-.03-.02-.02-.08-.11-.11-.12-.04-.02-.08,0-.11-.03,0-.01,0-.03-.01-.04-.03,0-.05,0-.08-.01-.03-.02-.08-.12-.12-.14-.04,0-.09,0-.14-.01-.08-.04-.09-.17-.19-.19-.05-.04-.16-.02-.2-.03-.03-.06-.08-.11-.11-.16v-.04s-.05,0-.07-.01c-.01-.02-.03-.04-.04-.05-.03,0-.05-.02-.08-.03,0,0-.03-.02-.04-.03,0,0,0-.02.01-.03h-.07s-.08-.04-.11-.05c-.03,0-.06,0-.1-.02-.03-.01-.04-.05-.07-.06-.06-.01-.12-.02-.18-.03v-.04c-.12,0-.2-.04-.24-.05-.07-.02-.15,0-.21-.04-.01-.02-.03-.04-.04-.07-.02,0-.04,0-.05-.01,0-.02-.02-.04-.03-.06-.06,0-.13,0-.19,0-.02-.07-.12-.09-.15-.15-.04-.07-.09-.38-.12-.41-.02-.02-.05-.01-.07-.03-.02-.03-.08-.14-.1-.18,0-.01.02-.14.03-.19-.02-.01-.01-.03-.03-.04-.02-.02-.07,0-.09-.03,0-.07-.03-.03-.05-.1.02-.04,0-.16.03-.21,0-.02.04-.02.05-.03.05-.07.11-.2.12-.26v-.46c.03-.05.05-.1.08-.15.03,0,.03-.01.07,0,.07.02.03.05.16.05,0-.04.02-.04.03-.05.05-.13,0-.22.07-.33.03-.02.06-.05.08-.07,0-.02.01-.03.02-.04h.03v-.04s.14-.15.18-.16c.07-.05.24,0,.31-.04v-.03s.08.03.11.04c.05,0,.09,0,.14-.01.04,0,.1.04.16.03.19-.04.42.02.56.07.09.03.24-.01.31-.01,0,0,.08.03.08.03.05,0,.11-.04.22-.01.02,0,.05.02.08.03,0,0,0,.01-.01.02h.08c.07.04.18-.03.31.02.04.02.06.06.09.08.02,0,.05,0,.07.01,0,.01,0,.03.01.04h.28s.13.02.16.04c0,.01.02.02.03.04.1.05.15-.06.23-.04l.15.07v.03s.07.02.11.03c.09.03.15.07.27.08v.04c.24.02.49.07.67.03.02-.05.05-.14.1-.16.02-.02.09-.01.09-.02v-.03s.05-.02.07-.03c0-.07.09-.23.12-.27.02,0,.03,0,.05-.01v-.04s.04-.03.05-.04v-.04s.05-.01.07-.03c0-.01,0-.03.01-.04.03-.02.08-.02.11-.04,0-.02,0-.03.01-.04.02,0,.04,0,.05-.01v-.04s.06-.04.08-.06c0-.04.05-.14.06-.23,0,0-.02,0-.01-.02.01-.03.07-.07.08-.1.02-.04,0-.08.03-.12,0-.02.04-.01.05-.03.01-.02,0-.04.01-.05.02-.02.05,0,.07-.03.02-.04.02-.13.04-.17.01-.01.07-.03.08-.04.02-.02.01-.04.03-.07.01,0,.03,0,.04-.01.08-.1-.05-.22.03-.34.01-.02.04-.01.06-.03.02-.02.04-.08.07-.11.01-.02.04-.02.05-.03v-.04s.09-.08.12-.12c0-.01,0-.03.01-.04.02,0,.04,0,.06-.01.01,0,.03-.05.04-.07h.03s.04-.18.07-.24c.03-.04.06-.09.09-.14h.03v-.06s.02,0,.03-.01c.03-.06,0-.07.03-.14,0-.01,0-.02-.01-.04.01-.04.05-.04.07-.05.02-.03.08-.16.08-.2.07-.45-.17-.95-.2-1.43-.07-.02-.12-.06-.18-.08-.03,0-.06,0-.09-.02-.02,0-.05-.04-.07-.05-.09-.03-.19,0-.29-.04-.01,0-.03-.04-.04-.04-.04,0-.07,0-.11-.01,0-.01-.02-.03-.03-.04-.03-.02-.07-.02-.1-.04,0-.02-.02-.04-.03-.05h-.09s-.03-.01-.07-.01v-.04s-.05,0-.07-.02c-.02-.06-.1-.19-.16-.21-.01-.01-.01,0-.04-.02v-.04c-.1-.03-.16-.14-.19-.24,0-.05-.01-.1-.02-.15,0,0-.02,0-.03-.01v-.04h-.03s0-.04-.01-.07c-.02,0-.04-.02-.05-.03v-.04s-.04-.04-.07-.06v-.03s-.03,0-.05-.01c-.02-.01-.12-.13-.14-.15v-.04s-.05-.04-.07-.05c-.04-.05-.1-.21-.07-.31.02-.08.12-.13.14-.22,0-.03-.02-.09-.01-.11,0-.01.02-.05.03-.08h-.01v-.02s.06-.02.07-.04c.05-.07.17-.28.14-.34-.04-.11-.17-.08-.19-.2.05-.02.09-.08.11-.12-.02-.03,0-.07-.03-.11,0,0-.02,0-.03-.02-.08-.13-.06-.21-.03-.34.03-.11-.02-.18.08-.21.09-.07.28.04.37-.03.05-.02.13-.09.16-.14,0,0-.02-.03-.01-.05.02-.05.08-.19.12-.21.08-.05.16.04.24-.03.02-.02.03-.06.06-.07.07-.02.16.06.19.07.07,0,.14.02.2.03,0,.01.02.03.03.04h.1c.1.03.28.03.37.01.11-.01.18-.12.33-.12.15.21.38-.06.52-.04.05,0,.16.07.2.1,0,.01,0,.03.01.04.04.05.08.11.18.11.02-.02.09-.02.11,0,.07.03.08.1.14.13.02.02.05,0,.07.03,0,0,0,.02-.01.03.04,0,.07,0,.11.01.02.01.04.12.05.13.02,0,.04,0,.05.01.05.03.1.06.15.05.02,0,.02-.02.05-.01.04.01.12.04.16.05.08,0,.15-.02.23-.03.03-.05.07-.05.09-.08.02-.04.03-.09.06-.12.05-.07.26-.21.38-.22.03.03.1.08.15.04.15-.05.1-.14.34-.14,0-.05,0-.04.07-.04.02-.01.02-.01.05-.01.04-.15.15-.22.26-.29.02,0,.05,0,.07-.01.01-.01.01-.05.03-.06.06-.04.13-.05.16-.11-.03-.16.16-.38.27-.46.03.03.12.08.16.05.04-.01.03,0,.04-.04.08-.11-.03-.3.05-.43.02-.04.08-.03.11-.06.02-.02.03-.07.04-.1.01-.02.06-.08.08-.1.02-.01.04,0,.05-.01v-.04s.06-.04.08-.06c0-.01,0-.03.01-.04.07-.05.21-.01.23-.07.09-.13-.09-.24-.04-.42.02-.09-.01-.21,0-.3.03-.15.04-.43,0-.58-.02-.09-.08-.21-.1-.3-.14-.02-.31-.15-.27-.29-.03-.05-.06-.07-.07-.15-.04,0-.07,0-.11-.01,0-.01-.01-.03-.01-.04-.06,0-.13-.01-.19-.01-.06-.02-.2-.06-.25-.09-.05-.04-.08-.13-.11-.19-.03-.05-.09-.1-.12-.15-.02-.03-.07-.11-.04-.13h-.03s0-.05-.03-.08c-.01,0-.03-.02-.04-.03v-.04h-.03s-.07-.14-.08-.16v-.07c-.13-.28-.34-.49-.43-.8-.03-.09.03-.17.03-.26,0-.16-.01-.34-.01-.5.05-.03.1-.08.15-.1.04-.01.08,0,.11-.01.01,0,.01-.04.03-.05.02-.02.05-.01.07-.03,0,0-.01-.02-.01-.03.02-.02.05-.02.07-.04-.05-.03-.03-.03-.04-.07,0,0-.02.01-.03.01-.02-.02-.04-.04-.05-.07-.03-.02-.07-.01-.08-.04v-.05c-.05-.08.14-.31.19-.33.02-.02.04-.02.08-.03v-.04s.07-.02.1-.03c.02,0,.15,0,.19-.01,0-.01,0-.03.01-.04h.22l.04-.03c.08,0,.15,0,.23.01.04-.01.06-.05.09-.07.08-.03.14,0,.21-.03,0-.01.02-.03.03-.04.11,0,.22,0,.33-.01.17.04.26.14.39.2.08.01.16.03.24.04.06-.02.17-.07.27-.04.08.02.13.11.22.14.02-.04.05-.03.11-.03.02.04.14.08.11.11,0,0,.03.01.03.01.04,0,.08.01.12.01,0,.01,0,.03.01.04.04,0,.09,0,.14.01.03-.01.06-.05.11-.05,0,0,.32.04.35.05.05.02.08.08.14.09.02,0,.2.03.21.03,0,0,0-.02.01-.03.02,0,.04.01.05.01,0,0,.07-.02.1-.01.01,0,.02.04.03.04h.09c.06.02.16.04.21.08.02.02.01-.03.01-.03h.05s.13.02.14.03h.01v-.04s.05-.02.07-.02c.04-.01.09,0,.11.01.06.01.1-.02.14-.03h.07s0-.03.01-.04c.03,0,.05,0,.08-.01.01-.02.03-.04.04-.05.03-.02.08-.02.11-.04v-.03s.04-.01.05-.03v-.04s.05-.04.07-.05v-.03s.05-.01.07-.03v-.04s.09-.02.15-.04c.05-.02.05-.05.14-.05v-.04c.06-.04.06-.09.16-.1.01.01.04,0,.07.03-.03,0-.01,0-.03.01h.05s0-.02-.01-.03c.03,0,.05-.02.08-.03v-.04s.08-.08.1-.1c.02,0,.04,0,.05-.01v-.04s.03-.02.04-.03c.02-.03,0-.04,0-.06,0,0,.02,0,.03-.01v-.05s.03-.02.04-.03v-.04s.03-.02.04-.03v-.04s.04-.03.04-.04c.03-.08-.02-.16-.03-.22v-.12s.02,0,.03-.01c0-.04-.02-.09-.03-.13,0-.05,0-.09.01-.14.05-.04.08-.1.12-.15.02,0,.04,0,.05-.01v-.05s.02-.01.03-.01v-.07s.02,0,.03-.01c0-.01,0-.03-.01-.04,0-.02.05-.07.05-.09v-.04s.1-.05.12-.1c.04.03.09.04.16.04.02-.05.07-.06.1-.11.04-.1,0-.17.04-.3.02-.1.07-.12.08-.22.05,0,.09-.02.1-.03.15-.07.06-.06.12-.18.02-.03.06-.06.08-.1v-.04s.02-.01.03-.01c0-.02,0-.04.01-.07,0-.02.04-.01.05-.03v-.04s.04-.01.05-.03c0-.02.02-.04.03-.05.02,0,.04,0,.05-.01,0-.02,0-.04.01-.05.01,0,.03,0,.04-.01.02-.02.02-.06.04-.08h.03v-.04s.06-.03.07-.04c.12-.12.19-.2.12-.4.04-.02.05-.06.08-.08.03,0,.05-.02.08-.03v-.04s.04-.03.05-.04c.04-.06.03-.14.07-.19.01,0,.03,0,.04-.01v-.04s.17-.09.18-.09c.04,0,.08,0,.12-.01,0-.01.01-.03.01-.04.03-.02.14-.09.18-.1,0-.07.04-.14.06-.2,0-.02,0-.04-.01-.05.02-.14.04-.25.06-.37,0-.15,0-.3.01-.45.03-.12.07-.17.07-.31-.07-.03-.26-.33-.2-.49,0,0,.02,0,.03-.01,0,0,0-.1.01-.14,0,0,.02,0,.03-.01,0-.02,0-.03-.01-.04,0-.08.02-.16.03-.25.01-.05.05-.15.05-.22,0-.09-.07-.17-.1-.23-.03-.09.03-.2.04-.26.02-.07-.02-.18-.03-.23,0-.04,0-.08.01-.12.04-.02.1-.06.12-.09.03-.05.01-.1.04-.14.08-.11.25-.43.45-.45,0-.04,0-.04.01-.06.06-.2.35-.19.54-.12.05.02.11.06.15.03.08-.03.07-.12.16-.14v-.04c.07-.04.12-.14.2-.16.02-.01.05-.02.08,0,.01.02.03.04.04.05.11.06.29,0,.41,0v-.04c.13-.04.03-.16.18-.18.03.06.07.08.15.08.02-.01.18-.07.2-.08h.1c.07-.02.16-.08.26-.09.05,0,.15.04.22.04v.04c.12.05,0,.15.24.15.07-.1.34-.1.48-.12.02,0,.03,0,.05-.01.04.02.07.05.1.07.03,0,.06,0,.1.01,0,.01.01.03.01.04.04.03.08,0,.14.02.01,0,.13.07.15.08.01,0,.01.03,0,.04.03,0,.05.01.08.01.02.01.08.07.09.1v.04s.05,0,.07.01c0,.02,0,.03.01.04.04.03.16.05.24.06h0s0,.01-.01.01c-.03.01.03.02.03.02.01,0,.07.02.11,0l.03-.05c.14-.05.3.04.45,0,.07-.01.16-.04.26-.01.07.02.28.11.37.07.01-.02.03-.04.04-.06.1-.04.12.03.22,0,.03,0,.06-.04.08-.05.04-.01.08.02.11.03.02,0,.14-.02.16-.03.07-.01.14.07.21.04v-.03s.02.01.03.01c.05-.03.17-.03.22-.07,0,0,.01-.04.04-.05.06-.02.16,0,.2.01v.04h.07v-.04h.04c.05-.11.09-.16.26-.15.02.03.15.07.2.05.09-.02.21-.13.33-.16.06,0,.13,0,.19.01.01,0,.04-.04.05-.04.13-.04.23.04.37.04.04-.07.05-.03.08-.07.01-.02,0-.04.01-.05.02-.02.05-.01.07-.03v-.04s.04,0,.05-.01v-.04s.08-.1.09-.11h.03v-.04s.04-.04.07-.05v-.04s.03-.01.04-.02c.02-.02,0-.05.03-.07.04-.04.11-.04.15-.07.03-.03.03-.07.07-.1v-.04s.05,0,.07-.01c.01-.08.08-.1.11-.15v-.04s.04-.03.05-.04c.02-.04.02-.06.01-.1.03-.06.05-.14.08-.19,0-.02,0-.04.01-.06.05-.05.15-.05.2-.09.07-.08.11-.23.15-.34v-.06s.06-.08.07-.09c.02-.05.02-.13.04-.19.04-.11.15-.39.14-.49,0-.05.04-.12.03-.18,0-.02-.02-.04-.03-.08-.06,0-.21-.03-.26-.07-.19,0-.31-.16-.37-.33-.04-.13.06-.23.03-.36-.02-.06-.06-.19-.03-.27,0-.02.05-.06.06-.08,0-.03-.02-.08-.02-.12.01-.06.03-.19.04-.22-.01-.04-.02-.09-.03-.14,0-.03.03-.14.03-.18,0-.04-.04-.11-.03-.15.02-.09.07-.19.11-.27v-.06s.03-.02.04-.03v-.04s.05-.01.07-.03c.01-.02.03-.05.04-.07.02-.02.04,0,.06-.03.03-.04.03-.07.05-.11.02,0,.03,0,.04-.02.03-.04.03-.1.07-.13.02,0,.05,0,.07-.01.03-.02.06-.06.09-.08h.05s.03-.04.04-.05c.04,0,.07,0,.11-.01.03-.01.08-.07.1-.09v-.03s.17.02.25-.03v-.03s.31-.17.34-.16c.05,0,.13.05.15.06.13,0,.25,0,.38.01,0,.01,0,.02.01.04.03.02.07,0,.1.03.02.01.01.04.03.05.02.01.05,0,.07.03.03.03.03.07.05.1.04.05.11.07.15.12,0,.02,0,.04.01.05.01,0,.03.01.04.01.03.02.09.12.11.13h.04s.02.02.03.03c0,0-.01.02-.01.03h.04s.06.11.1.14c.02.02.1.05.12.07.02.01.04.09.05.1l.12.05s.05-.03.08-.01c0,0,.03.04.04.04.04,0,.1-.02.18.02.03.01.06.04.12.05.05,0,.16-.02.22.01,0,0,0,.02.02.03h.04v.03s.05,0,.07.01c0,.02.02.04.03.05.02,0,.05.01.07.02,0,.01.01.03.01.04.02.01.05.03.07.04v.04s.03,0,.04.01v.04s.03.04.03.04h.03v.05s.04.01.05.03c0,.02,0,.04.01.05.01.02.05,0,.07.03v.04h.03s.03.06.06.08c.02,0,.04.01.05.01v.04h.04c.09.15.32.24.35.43.03,0,.03,0,.04.01.04.04.07.11.12.14.02,0,.05,0,.07.01,0,.02,0,.04.01.05.02,0,.04.02.05.03.02.02.03.08.05.11.02.02.17.05.12.08h.08s.1,0,.15.03c0,0,.05.02.06.02v.03s.18.01.24.01c.01-.04.01-.05.06-.07.03-.03.21-.02.26,0,.09.03.21.08.29.12.03,0,.05,0,.08.01.07.04.03.06.15.07.03-.04.07-.05.11-.08.09-.08.11-.19.27-.21v-.04h.03s.16-.07.22-.03c.01.01.01.05.03.06.06.03.16.01.23.01.05-.11.15-.07.23-.13.02-.02,0-.03.01-.05.03-.02.05-.04.08-.05v-.03s.06,0,.08-.01c.07-.03.12-.1.18-.13.02,0,.04,0,.05-.01.07-.05.1-.14.2-.15v-.04c.08-.03.16-.13.26-.16.07-.03.15,0,.23-.02.03,0,.06-.04.08-.05.04,0,.07,0,.11-.01h0s.11-.11.14-.15v-.04s.06-.03.07-.04c.01-.02,0-.04.03-.05h.04s.07-.05.12-.07c.05,0,.1,0,.15-.01,0-.02.01-.04.01-.06.03,0,.06,0,.08-.01,0,0-.02-.03,0-.04.05-.03.07,0,.1-.05.03-.04,0-.13.03-.21,0-.03.04-.05.06-.07v-.05s.03,0,.04-.01c0-.02,0-.03-.01-.04.01,0,.03-.02.04-.03.02-.04.02-.09.04-.12.02-.01.04-.03.06-.04v-.04s.04-.02.05-.03v-.04s.07-.06.08-.1c0-.01,0-.03-.01-.04,0-.01.04-.03.04-.04.05-.11.03-.25.09-.34.01,0,.03-.01.04-.01.04-.05.04-.16.08-.22.01-.02.1-.07.11-.08,0,0,0-.02-.01-.03,0,0,.04-.03.04-.04,0-.04,0-.09.01-.14,0,0,.02,0,.03-.01.02-.04,0-.07.03-.11,0,0,.02,0,.03-.01.04-.09-.01-.18-.03-.26,0-.04.02-.12.03-.18.02-.1-.05-.18.03-.27.09-.07.21-.06.25-.19-.04-.07-.12-.33-.05-.47,0-.03.06-.07.07-.1.02-.06.02-.12.07-.15h.04s.02-.03.03-.04c.06,0,.12-.02.18-.03.01,0,.03-.04.04-.04.04-.02.07-.02.11-.04,0-.01,0-.03.01-.04.04,0,.07,0,.11-.01,0-.02.02-.04.03-.06.03,0,.06-.02.08-.03.01-.02.03-.05.04-.07h.03s0-.06.03-.08c.03-.03.2-.06.26-.07v-.04c.07-.02.08-.07.16-.08.04-.03.09,0,.14,0h.19c.1.04.17.18.3.19.05.04.13-.03.21-.04.02.05.07.04.11.07,0,.02.02.04.03.05.05.03.06-.02.08.05.05,0,.1.05.16.03.03,0,.05-.03.1-.03.02.04.05.07.09.08.04.02.18-.04.27-.03.05.02.11.04.16.05.01.08.2.25.26.27.03.03.07.03.14,0,0-.04,0-.06.06-.08.02-.01.04-.01.08-.01.03.03.07.04.1.07v.03s.04,0,.05.02v.04s.04,0,.05.01c.07.05-.02.08.15.08.06-.13.15-.14.35-.14.05.12.13.06.22.11.06.03.11.09.18.11.06,0,.12-.01.18-.01,0,.01.02.03.03.04.05.01.09.03.14.04.04.03.04.07.07.11.01.02.04.01.05.03.01.01,0,.04.01.06.02,0,.04,0,.05.01,0,.01.01.03.01.04.04.03.1.02.15.05,0,.01,0,.03.01.04.03,0,.05.01.08.02.02,0,.01.04.03.05.03,0,.05.02.08.03,0,.02.02.04.03.06.03.02.07.02.1.04,0,.01,0,.03.01.04.05,0,.1.02.15.03,0,0,0,.02-.01.03h.07s.09.07.14.08c.03,0,.02-.03.06-.03.04,0,.08.05.13.05v.04c.12,0,.36.03.41-.02-.03,0-.01,0-.03-.01.07-.03.02-.1.07-.16.01-.02.04-.02.05-.04.04.02.05.03.11.03.05-.09.09-.04.16-.1,0-.07.11-.09.18-.14.04-.03.08-.13.11-.18.03-.04.25-.23.3-.25.12,0,.24,0,.35.01.01-.06.06-.21.11-.23h.06s0-.02-.01-.03c.02-.02.16-.11.19-.12.12-.04.28.06.37,0,.01,0,.01-.05.03-.06.12-.08.41.04.52.07h.12c.06.02.13.09.24.05.04,0,.07-.04.1-.05h.07s.03-.04.04-.05c.05,0,.11,0,.16.01.06-.02.17-.02.22-.05,0-.01,0-.03.01-.04.04-.03.15,0,.16-.05.02.01.04.04.07.05.14,0,.29-.02.44-.03v-.03s.12-.05.15-.05h.11s0-.02-.01-.03c.06-.03.11-.04.15-.08h.12s.06.05.08.05h.4c.07-.02.18-.05.25-.07h.07c.08-.03.12-.08.23-.08,0-.03,0-.03.01-.04.02-.02.06-.02.08-.04v-.03c.05-.05.11-.12.16-.16.02,0,.04,0,.05-.01v-.04s.04-.03.06-.04v-.04h.01s.1-.07.15-.11c0-.01,0-.03.01-.04h.07s.14.01.19-.01c.01-.02.03-.04.04-.07.04-.02.14-.05.2-.03.08.02.06.06.18.07.04-.05.1-.03.15-.07.02-.01.01-.03.05-.05,0-.04,0-.1.03-.12.03-.03.06-.04.12-.04.04.03.08,0,.14.03.04.02.06.08.1.1.04.02.06,0,.08.01.05-.06.08-.11.19-.11.03.03.05.04.12.04,0-.03-.01-.02.01-.03.04-.03.12-.01.16-.04.07-.06.13-.22.29-.25.05,0,.16.05.2.07.04.01.26.01.26.01.02,0,.04.02.07.03.01,0,.07-.03.11-.01.05.02.09.08.15.09h.31s.14.09.18.12c.05,0,.11-.02.15,0,.05,0,.18-.06.26-.03.04.01.1.07.14.08h.12s.03.04.04.04c.06,0,.12,0,.18.01,0,.01.02.03.03.04.08.04.12,0,.18.08.05.06.05.12.15.13.07.02.23-.1.37-.05.06.02.12.09.16.12.04,0,.07.02.11.03.07.04.22.21.26.28.01.12.03.24.04.35.02.01.03.02.04.03v.04s.2.05.24.1c0,0,.07.09.07.09v.04s.12.12.15.17v.04s.04,0,.06.01c0,.02,0,.04.02.07,0,.01.04.01.05.03.03.05.05.13.08.18.04.05.09.1.14.15.02,0,.04.01.05.02h0s0,.01-.01.01c0,.07.1.11.07.18.03.04.1.1.08.14.03.04.06.02.07.1Z"/>
    <path class="cls-1" d="m92.54,89.85h.03s-.01.01-.03,0Z"/>
    <g>
      <g>
        <path class="cls-2" d="m229.12,8.09h-5.01s-.03.01-.03.03v1.13s.01.03.03.03h1.87v5.49s.01.03.03.03h1.21s.03-.01.03-.03v-5.49h1.87s.03-.01.03-.03v-1.13s-.01-.03-.03-.03Z"/>
        <path class="cls-2" d="m201.9,8.09h-4.24s-.03.01-.03.03v6.65s.01.03.03.03h4.24s.03-.01.03-.03v-1.1s-.01-.03-.03-.03h-3v-1.76h2.38s.03-.01.03-.03v-1.09s-.01-.03-.03-.03h-2.38v-1.49h3s.03-.01.03-.03v-1.1s-.01-.03-.03-.03Z"/>
        <path class="cls-2" d="m185.68,8.09h1.23s.03.01.03.03v6.65s-.01.03-.03.03h-1.23s-.03-.01-.03-.03v-6.65s.01-.03.03-.03Z"/>
        <path class="cls-2" d="m220.38,8.09h1.23s.03.01.03.03v6.65s-.01.03-.03.03h-1.23s-.03-.01-.03-.03v-6.65s.01-.03.03-.03Z"/>
        <path class="cls-2" d="m215.64,10.84c-.16-.02-.33-.04-.5-.06-.28-.03-.56-.07-.81-.11-.28-.05-.62-.21-.62-.69,0-.22.06-.39.2-.54.23-.25.52-.36.93-.36.32,0,.75.12.96.35.16.17.27.42.28.64,0,.02.01.03.03.03h1.2s.02,0,.02,0c0,0,0-.01,0-.02-.01-.66-.37-1.15-.67-1.44-.43-.42-1.1-.66-1.83-.66s-1.4.25-1.85.71c-.36.37-.54.82-.54,1.33,0,1,.6,1.68,1.63,1.85.19.03.4.06.6.09.26.04.52.07.76.12.28.05.74.22.74.76,0,.32-.12.48-.25.62-.27.29-.75.35-1.1.35-.33,0-.79-.06-1.06-.35-.21-.21-.33-.5-.33-.79,0-.02-.01-.03-.03-.03h-1.2s-.03.01-.03.03c0,.58.26,1.17.68,1.57.48.45,1.17.69,1.96.69.62,0,1.48-.13,2.07-.72.37-.38.55-.84.55-1.41,0-1.25-.93-1.83-1.8-1.95Z"/>
        <path class="cls-2" d="m154.81,8.09h-5.01s-.03.01-.03.03v1.13s.01.03.03.03h1.87v5.49s.01.03.03.03h1.21s.03-.01.03-.03v-5.49h1.87s.03-.01.03-.03v-1.13s-.01-.03-.03-.03Z"/>
        <path class="cls-2" d="m133.76,8.14s0-.02,0-.03c0-.01-.02-.02-.03-.02h-1.47s-.02,0-.02.01l-2.46,3v-2.98s-.01-.03-.03-.03h-1.21s-.03.01-.03.03v6.65s.01.03.03.03h1.21s.03-.01.03-.03v-1.79l1.1-1.32,1.65,3.12s.02.02.03.02h1.43s.02,0,.03-.01c0,0,0-.02,0-.03l-2.25-4.16,2-2.45Z"/>
        <path class="cls-2" d="m139.79,8.09s-.02,0-.03.01l-1.68,2.62-1.68-2.62s-.02-.01-.03-.01h-1.31s-.02,0-.03.02c0,0,0,.02,0,.03l2.37,3.88v2.75s.01.03.03.03h1.22s.03-.01.03-.03v-2.75l2.39-3.88s0-.02,0-.03c0,0-.02-.02-.03-.02h-1.26Z"/>
        <path class="cls-2" d="m145.31,7.97c-.79,0-1.41.23-1.88.7-.71.71-.85,1.62-.85,2.78s.14,2.07.85,2.78c.47.47,1.08.7,1.88.7s1.41-.23,1.88-.7c.71-.71.85-1.62.85-2.78s-.15-2.07-.85-2.78c-.47-.47-1.09-.7-1.88-.7Zm.97,5.43c-.23.25-.55.37-.97.37s-.74-.12-.97-.37c-.47-.49-.47-1.44-.47-1.94s0-1.46.47-1.95c.24-.25.56-.38.97-.38s.74.12.97.38c.47.49.47,1.44.47,1.95s0,1.46-.47,1.94Z"/>
        <path class="cls-2" d="m159.33,7.97c-.79,0-1.41.23-1.88.7-.71.71-.85,1.62-.85,2.78s.14,2.07.85,2.78c.47.47,1.08.7,1.88.7s1.41-.23,1.88-.7c.71-.71.85-1.62.85-2.78s-.14-2.07-.85-2.78c-.47-.47-1.09-.7-1.88-.7Zm.97,5.43c-.23.25-.55.37-.97.37s-.74-.12-.97-.37c-.47-.49-.47-1.44-.47-1.94s0-1.46.47-1.95c.24-.25.55-.38.97-.38s.74.12.97.38c.47.49.47,1.44.47,1.95s0,1.46-.47,1.94Z"/>
        <path class="cls-2" d="m173.88,8.09h-1.21s-.03.01-.03.03v4.08c0,1.01-.49,1.56-1.37,1.56s-1.37-.56-1.37-1.56v-4.08s-.01-.03-.03-.03h-1.21s-.03.01-.03.03v4.1c0,1.69.99,2.7,2.64,2.7s2.64-1.01,2.64-2.7v-4.1s-.01-.03-.03-.03Z"/>
        <path class="cls-2" d="m182.27,8.09h-1.19s-.03.01-.03.03v4.32l-2.65-4.34s-.02-.01-.03-.01h-1.28s-.03.01-.03.03v6.65s.01.03.03.03h1.19s.03-.01.03-.03v-4.39l2.68,4.41s.01.01.03.01h1.25s.03-.01.03-.03v-6.65s-.01-.03-.03-.03Z"/>
        <path class="cls-2" d="m195.17,8.09h-1.22s-.02,0-.03.02l-1.64,4.72-1.65-4.72s-.02-.02-.03-.02h-1.28s-.02,0-.02.01c0,0,0,.02,0,.03l2.27,6.65s.02.02.03.02h1.33s.03,0,.03-.02l2.25-6.65s0-.02,0-.03c0,0-.01-.01-.02-.01Z"/>
        <path class="cls-2" d="m209.74,10.26c0-1.08-.72-2.16-2.32-2.16h-2.6s-.03.01-.03.03v6.65s.01.03.03.03h1.22s.03-.01.03-.03v-2.34h1.15l1.3,2.36s.02.02.03.02h1.31s.02,0,.03-.02c0,0,0-.02,0-.03l-1.41-2.55c.74-.29,1.26-1.09,1.26-1.95Zm-3.68-1.04h1.36c.68,0,1.05.54,1.05,1.04,0,.64-.39,1.02-1.03,1.02h-1.38v-2.06Z"/>
        <path class="cls-2" d="m235.3,8.09s-.02,0-.03.01l-1.68,2.62-1.68-2.62s-.02-.01-.03-.01h-1.31s-.02,0-.03.02c0,0,0,.02,0,.03l2.37,3.88v2.75s.01.03.03.03h1.22s.03-.01.03-.03v-2.75l2.39-3.88s0-.02,0-.03c0,0-.02-.02-.03-.02h-1.26Z"/>
        <path class="cls-2" d="m303.85,8.09h-5.01s-.03.01-.03.03v1.13s.01.03.03.03h1.87v5.49s.01.03.03.03h1.21s.03-.01.03-.03v-5.49h1.87s.03-.01.03-.03v-1.13s-.01-.03-.03-.03Z"/>
        <path class="cls-2" d="m308.99,10.84c-.16-.02-.33-.04-.5-.06-.27-.03-.55-.07-.81-.11-.29-.05-.62-.21-.62-.69,0-.22.06-.39.2-.54.23-.25.52-.36.93-.36.32,0,.75.12.96.35.16.17.27.42.27.64,0,.02.01.03.03.03h1.2s.02,0,.02,0c0,0,0-.01,0-.02-.01-.66-.37-1.15-.67-1.44-.43-.42-1.1-.66-1.83-.66-.74,0-1.4.25-1.85.71-.36.37-.54.82-.54,1.33,0,1,.6,1.68,1.63,1.85.19.03.4.06.6.09.26.04.52.07.77.12.28.05.74.22.74.76,0,.32-.12.48-.25.62-.27.29-.75.35-1.1.35-.33,0-.79-.06-1.06-.35-.21-.21-.33-.5-.33-.79,0-.02-.01-.03-.03-.03h-1.2s-.02,0-.02,0,0,.01,0,.02c0,.58.26,1.17.68,1.57.48.45,1.17.69,1.95.69h0c.62,0,1.48-.13,2.06-.72.37-.38.55-.84.55-1.41,0-1.25-.93-1.83-1.8-1.95Z"/>
        <path class="cls-2" d="m287.53,8.09h-1.32s-.02,0-.03.02l-2.34,6.65s0,.02,0,.03c0,0,.01.01.03.01h1.22s.02,0,.03-.02l.47-1.39h2.51l.47,1.39s.02.02.03.02h1.27s.02,0,.02-.01c0,0,0-.02,0-.03l-2.34-6.65s-.02-.02-.03-.02Zm.18,4.15h-1.72l.86-2.54.86,2.54Z"/>
        <path class="cls-2" d="m244.99,7.97c-.79,0-1.41.23-1.88.7-.71.71-.85,1.62-.85,2.78s.15,2.07.85,2.78c.47.47,1.08.7,1.88.7s1.41-.23,1.88-.7c.71-.71.85-1.62.85-2.78s-.15-2.07-.85-2.78c-.47-.47-1.09-.7-1.88-.7Zm.97,5.43c-.23.25-.55.37-.97.37s-.74-.12-.97-.37c-.47-.49-.47-1.44-.47-1.94s0-1.46.47-1.95c.24-.25.55-.38.97-.38s.74.12.97.38c.47.49.47,1.44.47,1.95s0,1.46-.47,1.94Z"/>
        <path class="cls-2" d="m297.1,10.26c0-1.08-.72-2.16-2.32-2.16h-2.6s-.03.01-.03.03v6.65s.01.03.03.03h1.22s.03-.01.03-.03v-2.34h1.15l1.3,2.36s.02.02.03.02h1.31s.02,0,.03-.02c0,0,0-.02,0-.03l-1.41-2.55c.74-.29,1.26-1.09,1.26-1.95Zm-3.68-1.04h1.36c.68,0,1.05.54,1.05,1.04,0,.64-.39,1.02-1.03,1.02h-1.38v-2.06Z"/>
        <path class="cls-2" d="m254.46,8.09h-4.25s-.03.01-.03.03v6.65s.01.03.03.03h1.21s.03-.01.03-.03v-2.64h2.58s.03-.01.03-.03v-1.1s-.01-.03-.03-.03h-2.58v-1.72h3.01s.03-.01.03-.03v-1.1s-.01-.03-.03-.03Z"/>
        <g>
          <path class="cls-2" d="m264.87,8.1h-5s-.03.01-.03.03v1.12s.01.03.03.03h1.87v5.49s.01.03.03.03h1.21s.03-.01.03-.03v-5.49h1.87s.03-.01.03-.03v-1.12s-.01-.03-.03-.03Z"/>
          <path class="cls-2" d="m279.23,8.1h-4.24s-.03.01-.03.03v6.64s.01.03.03.03h4.24s.03-.01.03-.03v-1.09s-.01-.03-.03-.03h-3v-1.76h2.38s.03-.01.03-.03v-1.09s-.01-.03-.03-.03h-2.38v-1.48h3s.03-.01.03-.03v-1.1s-.01-.03-.03-.03Z"/>
          <path class="cls-2" d="m271.94,8.1h-1.21s-.03.01-.03.03v2.56h-2.53v-2.56s-.01-.03-.03-.03h-1.21s-.03.01-.03.03v6.64s.01.03.03.03h1.21s.03-.01.03-.03v-2.86h2.53v2.86s.01.03.03.03h1.21s.03-.01.03-.03v-6.64s-.01-.03-.03-.03Z"/>
        </g>
      </g>
      <g>
        <path class="cls-2" d="m200.53,46.34c-.8-1.64-1.14-3.08-1.14-4.8v-4.45c.02-.1.08-.2.13-.28.06-.09.11-.18.11-.28,0-.26-.2-.43-.51-.43h-2.22s0,3.56,0,3.56c0,3.25-.59,5.81-1.73,7.62-1.61,2.51-3.51,4.29-5.65,5.28l-.1.05.53,1.21.1-.04c3.97-1.44,6.12-4.1,8.1-7.66,1.92,3.99,4.42,6.37,8.11,7.7l.1.04.71-1.43-.11-.05c-1.93-.88-4.69-2.46-6.42-6.05Z"/>
        <path class="cls-2" d="m155.53,48.63l.99-.96-.05-.08c-1.51-2.19-2.15-3.67-2.44-5.67l-.04-.46h1.1c.42,0,.71-.07.89-.22.23-.19.38-.34.38-.34l.08-.07-.79-.93-.08.05s-.08.05-.21.15c-.09.07-.18.1-.3.1h-1.17v-3.37s.03-.04.05-.06c.07-.08.17-.19.17-.34,0-.21-.21-.36-.34-.36h-1.75s0,.11,0,.11c0,.2,0,1.82,0,4.01h-2.72v1.25h2.63l-.02.26c-.29,2.86-1.22,5.46-2.69,7.55l-.05.08.07.07s.45.46.63.74l.08.12.1-.11c.72-.76,1.38-1.81,1.97-3.11v6.7s1.89,0,1.89,0v-7.59c.46.91,1,1.72,1.57,2.37l.08.09Z"/>
        <path class="cls-2" d="m162.98,40.31l-.09-.05-.57.76.08.07c1.18,1.08,2.74,2.99,3.34,3.98l.09.14,1.43-1.81-.08-.07c-1.5-1.42-3.12-2.4-4.2-3.02Z"/>
        <path class="cls-2" d="m158.27,40.2l-.04.12c-.03.09-.72,2.26-2.76,4l-.09.08.68.74.08-.04c1.54-.87,2.66-1.62,4.1-3.15.05-.02.09-.03.13-.04.13-.04.32-.09.32-.36,0-.13-.1-.21-.15-.25l-2.27-1.1Z"/>
        <path class="cls-2" d="m162.53,49.68c1.07-1.33,1.81-2.73,2.2-4.19.02-.01.04-.03.06-.04.08-.06.19-.12.26-.29.06-.15-.13-.35-.22-.41l-1.56-1.17-.08.24c-.62,1.9-1.04,3.19-1.84,4.45-.94-1.28-1.67-2.77-2.19-4.43l-.06-.2-1.32,1.51.03.07c.85,1.96,1.21,2.8,2.51,4.43-.04.05-.09.1-.13.15-1.71,1.94-3.84,2.71-4.76,3.03l-.16.05.74.87.07-.02c3.07-.85,4.12-1.79,5.15-2.69l.2-.18c1.33,1.24,3.1,2.26,5.01,2.88l.07.02.76-.91-.14-.06c-1.79-.77-3.34-1.82-4.6-3.13Z"/>
        <path class="cls-2" d="m165.86,40.15c.42,0,.71-.07.89-.22.23-.19.38-.34.38-.34l.08-.07-.79-.94-.09.06s-.08.06-.21.15c-.1.07-.2.09-.32.09h-3.2v-2.04s.03-.04.05-.06c.06-.08.15-.19.15-.32,0-.14-.13-.35-.36-.35h-2.06v.11c0,.58,0,2.06,0,2.66h-4.15v1.24h.11s9.39.02,9.51.02Z"/>
        <path class="cls-2" d="m174.23,40.12l.09.12,1.63-2-.12-.06c-1.2-.66-2.18-1.18-3.96-1.85l-.09-.03-.44.79.07.06c.87.72,2.19,2.15,2.82,2.98Z"/>
        <path class="cls-2" d="m173.37,44.72l.09.12,1.52-2.06-.11-.06c-.7-.39-2.59-1.35-3.97-1.79l-.09-.03-.41.84.07.06c1.55,1.2,2.89,2.92,2.9,2.93Z"/>
        <path class="cls-2" d="m187.47,43.93s-.08.06-.21.15c-.1.08-.21.08-.32.08h-4.5v-3.18h3.99c.41,0,.69-.07.87-.22.23-.19.38-.34.38-.34l.08-.07-.79-.93-.08.06s-.08.06-.21.15c-.1.07-.19.09-.32.09h-3.91v-2.88s.05-.09.09-.14c.07-.07.14-.16.14-.28,0-.17-.16-.3-.36-.3h-2.14v.11c0,.2,0,1.77,0,3.48h-4.65v1.26s4.65,0,4.65,0v3.18h-5.31v1.27h4.76c-.3.83-1.78,4.84-2.53,6.09-1.01.07-1.75.12-2.5.14h-.16s.77,2.05.77,2.05c.06.2.18.29.39.29.17,0,.25-.12.33-.22.03-.04.06-.09.1-.13,4.99-.91,8.1-1.54,9.15-1.76.51,1.12.81,1.98.81,1.99l.05.15,2.16-1.64-.05-.08c-1.07-1.97-4.7-5.22-4.85-5.36l-.09-.08-.66.75.07.07c.66.74,1.32,1.74,1.96,2.98-1.24.21-5,.64-6.09.73h-.17c.73-1.03,3.54-5.08,3.96-5.98h4.71c.42,0,.71-.07.89-.22.23-.19.38-.34.38-.34l.08-.07-.79-.94-.09.06Z"/>
        <path class="cls-2" d="m175.62,46.28l-1.12-.58-.05.11c-1.64,3.44-3.59,5.71-3.97,6.13-.1.1-.16.18-.15.28.02.11.11.16.28.27.28.17.81.49,1.63,1.35l.11.1.08-.13c.36-.59.64-1.12.78-1.49.03-.09.11-.25.21-.48.44-1.01,1.35-3.11,2.17-5.47l.03-.09Z"/>
        <path class="cls-2" d="m229.24,38.21c.5-.09.83-.18,1.04-.28.03,0,.05,0,.08,0,.16.03.33,0,.41-.12.07-.1.05-.26-.04-.37l-1.29-1.47-.08.04c-1.69.9-6.95,1.64-10.34,1.67-.12,0-1.1-.17-1.73-.28l-.13-.02v.14c0,1.07,0,2.84,0,4.47,0,1.39,0,2.66,0,3.28,0,3.9-1.59,6.8-2.72,7.6l-.11.08.1.09c.17.16.32.34.44.48.09.1.16.19.21.24l.05.05.07-.03c2.23-1.02,3.92-4.56,3.92-8.24,0-.9,0-2.86,0-4.64v-1.95c.44-.01,1.54-.05,2.92-.12v11.91c-1.64.28-2.87.42-3.32.39h-.18s.73,1.92.73,1.92c.06.19.17.28.37.28.14,0,.21-.12.25-.19.04-.07.06-.12.12-.13,3.29-.77,5.26-1.56,6.21-2,.27,1.27.37,2.22.37,2.23l.02.16,2.23-1.02-.03-.09c-.61-2.15-2.95-5.79-3.05-5.94l-.07-.1-.81.59.04.08c.4.85.75,1.87,1.05,3.04-.41.11-1.05.25-1.82.4v-11.64c1.13-.07,2.14-.15,3-.24.14,7.19,1,12.55,4.74,15.33l.07.06.07-.06c.06-.05.13-.13.22-.24.12-.14.27-.32.44-.48l.1-.09-.11-.08c-2.12-1.57-3.54-7.6-3.46-14.7Z"/>
        <path class="cls-2" d="m252.62,52.01c-.06.05-.13.08-.17.1h-6.65s0-5.18,0-5.18h4.71c.44,0,.7-.07.88-.22.23-.19.38-.34.38-.34l.08-.07-.79-.93-.08.06s-.08.06-.21.15c-.11.08-.19.1-.28.1-.05,0-2.19,0-4.69,0v-4.51c2.85,0,5.51,0,5.56,0,.42,0,.71-.07.89-.22.23-.19.38-.34.38-.34l.08-.07-.79-.93-.08.06s-.08.06-.21.15c-.1.08-.16.1-.28.1h-5.55s0-3,0-3c0-.05.05-.11.09-.17.06-.08.12-.16.12-.27,0-.39-.3-.39-.41-.39h-2.2s0,3.82,0,3.82h-3.51c.27-.6.56-1.28.94-2.15.04-.04.1-.08.15-.12.13-.1.28-.21.27-.4,0-.09-.07-.25-.35-.3l-2.53-.53v.13c-.29,3.2-1.27,5.93-2.7,7.49l-.09.1.86.57.07-.06c1.31-1.16,2.05-2.08,2.79-3.49h4.11v4.52h-5.55v1.25h5.55v5.19h-7.41s0,1.25,0,1.25h16.38c.42,0,.71-.07.88-.22.23-.19.38-.34.38-.34l.08-.07-.79-.94-.29.22Z"/>
        <path class="cls-2" d="m273.23,39.98h-2.24v11.63s-4.17,0-4.17,0v-14.72s.03-.06.05-.09c.1-.16.16-.29.16-.38,0-.23-.25-.3-.37-.3h-2.24v15.5h-4.21v-10.87s.03-.06.05-.1c.09-.16.16-.28.16-.38,0-.22-.23-.3-.37-.3h-2.24v.11c0,.53,0,13.6,0,13.6v.11h2.4s0-.94,0-.94h10.77s0,.96,0,.96h2.4s0-13.06,0-13.06c.01-.03.03-.06.05-.09.09-.16.16-.29.16-.39,0-.22-.22-.3-.37-.3Z"/>
        <path class="cls-2" d="m144.66,39.75s-.11.07-.27.2c-.11.09-.35.13-.52.14h-2.58c.93-.69,2.11-1.83,2.28-2,.04-.01.08-.03.11-.04.19-.06.32-.1.42-.27.04-.06.05-.15.03-.23-.02-.1-.08-.18-.18-.23l-2.4-1.02-.02.14c-.11.66-.42,1.78-1.3,3.33l-.05.09.08.06s.09.07.21.15h-3.36l1.42-.89-.07-.1c-1.14-1.66-3.06-2.91-3.08-2.92l-.06-.04-.69.48.05.09c.79,1.4,1.16,2.67,1.31,3.38h-3.35l1.21-.9-.08-.09c-1.29-1.55-3.38-2.52-3.4-2.53l-.07-.03-.48.51.05.08c.87,1.23,1.35,2.34,1.57,2.97h-1.97c-.29,0-1.06-.16-1.07-.16l-.14-.03v3.95h2.07v-2.45h13.2v2.41h2.11v-1.12c0-.34.02-.56.11-.76.15-.32.49-.69.49-.7l.08-.09-1.61-1.45-.07.05Z"/>
        <path class="cls-2" d="m144.97,47.81s-.08.06-.21.15c-.12.09-.15.1-.2.1h-6.23v-.91c1.75-1.11,4.16-3.11,4.18-3.13l.1-.08-1.45-1.29-.07.05s-.1.07-.23.18c-.09.07-.27.11-.44.11h-8.97v1.25h7.68c-.56.58-1.42,1.41-1.66,1.63h-1.46v2.2h-7.53v1.25h7.53v2.26c0,.66-.16.69-.79.69h-2.94s0,1.23,0,1.23h.1s2.38.36,3.69.36c1.41,0,2.28-.35,2.28-2.07v-2.45h6.17c.42,0,.71-.07.88-.22.23-.19.38-.34.38-.34l.08-.07-.79-.93-.08.06Z"/>
        <path class="cls-2" d="m294.33,39.75s-.11.07-.27.2c-.11.09-.35.13-.52.14h-2.58c.94-.69,2.11-1.83,2.28-2,.04-.01.08-.03.11-.04.19-.06.32-.1.43-.27.04-.06.05-.15.03-.23-.02-.1-.08-.18-.18-.23l-2.4-1.02-.02.14c-.11.66-.42,1.78-1.3,3.33l-.05.09.08.06s.09.07.2.15h-3.36l1.43-.89-.07-.1c-1.14-1.66-3.06-2.91-3.08-2.92l-.06-.04-.69.48.05.09c.79,1.39,1.16,2.67,1.31,3.38h-3.35l1.21-.9-.08-.09c-1.29-1.55-3.38-2.52-3.4-2.53l-.07-.03-.48.51.05.08c.86,1.23,1.34,2.34,1.58,2.97h-1.97c-.29,0-1.06-.16-1.07-.16l-.14-.03v3.95h2.07v-2.45h13.2v2.41h2.11v-1.03c0-.33.02-.66.11-.85.15-.32.49-.69.49-.7l.08-.09-1.61-1.45-.07.05Z"/>
        <path class="cls-2" d="m294.65,47.81s-.08.06-.21.15c-.12.09-.15.1-.2.1h-6.23v-.91c1.75-1.11,4.16-3.11,4.18-3.13l.1-.08-1.45-1.29-.07.05s-.1.07-.23.18c-.09.07-.27.11-.44.11h-8.97v1.25h7.68c-.56.58-1.42,1.41-1.66,1.63h-1.46v2.2h-7.53v1.25h7.53v2.26c0,.66-.16.69-.79.69h-2.94s0,1.23,0,1.23h.1s2.38.36,3.69.36c1.41,0,2.28-.35,2.28-2.07v-2.45h6.17c.42,0,.71-.07.88-.22.23-.19.38-.34.38-.34l.08-.07-.79-.93-.08.06Z"/>
        <g>
          <path class="cls-2" d="m299.4,83.96c-1.11-2.27-1.75-4.33-1.99-6.64h11.4c.72,0,1.2-.11,1.48-.34.41-.34.68-.6.68-.6l-1.19-1.4s-.15.1-.37.27c-.23.18-.33.23-.49.23h-11.62c0-.11,0-8.3,0-8.3.05-.4.42-.75.42-.98,0-.37-.29-.57-.72-.57h-3.82c0,.54,0,6.11,0,6.11,0,1.36-.06,2.6-.16,3.74h-13.13v1.85h12.92c-.62,4.41-1.91,6.98-2.8,8.38-3.39,5.32-7.09,8.18-10.35,9.7l.82,1.84c7.39-2.69,11.29-7.82,14.79-14.21,3.23,6.86,7.53,11.62,14.82,14.24l1.11-2.24c-2.89-1.31-8.43-4.14-11.79-11.08Z"/>
          <path class="cls-2" d="m184.72,69.24l-2.42-1.72c-1.27,3.25-3.44,6.47-5.9,9.28v-5.44h1.84c.72,0,1.2-.11,1.48-.34.41-.34.68-.6.68-.6l-1.19-1.4s-.15.1-.37.27c-.23.18-.33.23-.49.23h-1.95v-2.64c0-.29.38-.52.38-.78,0-.5-.32-.49-.62-.49h-3.71c0,.26,0,1.9,0,3.91h-4.34v1.85h4.33c0,2.25,0,4.58,0,5.83h-6.23v1.85h8.06c-3.03,2.99-6.22,5.25-8.57,6.11.59.79.76,1.12.94,1.34.71-.3,1.4-.62,2.07-.96v11.63h3.39v-1.55h5.99v1.55h3.43v-11.04c.02-.39.07-.72.22-1.06.3-.63.92-1.32.92-1.32l-2.21-2.38s-.19.13-.48.35c-.3.23-.59.3-.91.3h-4.83c1.19-.94,2.3-1.93,3.33-2.99h4.68c.72,0,1.2-.11,1.48-.34.41-.34.68-.6.68-.6l-1.19-1.4s-.15.1-.37.27c-.23.18-.33.23-.49.23h-3.09c1.86-2.17,3.48-4.53,4.97-7,.35-.05.55-.27.65-.45.15-.27-.17-.48-.2-.5Zm-12.59,24.53v-4.5h5.99v4.5h-5.99Zm5.99-6.22h-5.99v-3.68h5.99v3.68Z"/>
          <path class="cls-2" d="m196.13,69.44c.32-.26.8-.67.8-.67l-1.66-1.93s-.16.12-.42.31c-.21.15-.55.25-.85.25h-8.4v29.65s3.16,0,3.16,0v-27.8h3.57c-.74,3.1-2.09,7.02-2.97,9.93,2.16,1.86,4.57,6.07,4.6,8.99.03,3.32-3.48,3.3-3.48,3.3v1.79c3.2,0,6.2-.98,6.37-4.86.19-4.47-2.71-7.43-4.62-10.05,1.45-4.11,3.25-8.39,3.91-8.92Z"/>
          <path class="cls-2" d="m157.99,69.65c-.23.18-.47.23-.72.23h-11.79v-3.08c.04-.32.38-.47.38-.74,0-.51-.41-.51-.72-.51h-3.62v4.33h-13.64v1.86h29.54c.66,0,1.17-.13,1.44-.35.4-.34.68-.6.68-.6l-1.19-1.4s-.15.1-.37.28Z"/>
          <path class="cls-2" d="m151.72,84.31v.97h3.86v-6.36c.02-.38.07-.72.22-1.06.3-.63.93-1.32.93-1.32l-2.64-2.38s-.19.13-.48.35c-.3.23-.59.3-.91.3h-19.48s0,0,0,0c-.56,0-1.99-.3-1.99-.3v10.76s3.82,0,3.82,0v-.97h6.69v8.73c0,1.55-.6,1.45-2.14,1.45h-3.18v1.85s2.82.63,5.2.63c2.71,0,3.93-.77,3.93-3.57v-9.09h6.16Zm-16.67-7.64h16.67v5.79h-16.67v-5.79Z"/>
          <path class="cls-2" d="m139.19,88.59c.04-.18-.16-.31-.28-.36l-3.8-1.85c-1.8,3.74-5.08,6.59-7.82,7.92l.91,1.28c3.35-1.25,7.27-3.61,10.22-6.61.29-.14.7-.12.77-.38Z"/>
          <path class="cls-2" d="m148.38,88.04c3.94,3.63,6.14,7.7,6.14,7.7l3.32-3.94c-3.59-2.81-8.54-5.12-8.54-5.12l-.91,1.36Z"/>
          <path class="cls-2" d="m212.32,73.97h3.96v-3.25h7.83c0,1.74,0,3.25,0,3.25h3.95v-3.25h5.93c.72,0,1.2-.12,1.48-.35.41-.34.68-.6.68-.6l-1.19-1.4s-.15.1-.37.27c-.23.18-.33.23-.49.23h-6.04v-1.96c.05-.32.38-.47.38-.75,0-.5-.41-.5-.72-.5h-3.61c0,.28,0,1.66,0,3.21h-7.83v-1.94c.03-.3.38-.52.38-.78,0-.5-.32-.49-.62-.49h-3.71c0,.29,0,1.66,0,3.21h-7.82v1.85h7.82c0,1.74,0,3.25,0,3.25Z"/>
          <path class="cls-2" d="m254.69,78.12c-.23-.04-3.22-.58-3.22-.58.26,2.75.26,10.44-.82,14.32l1.13.87c1.15-2.78,2.59-6.79,3.07-13.84.02-.22.04-.3.05-.39.03-.29,0-.35-.23-.39Z"/>
          <path class="cls-2" d="m265.34,89.56c-.81-4.69-2.24-9.12-3.42-12.09l-1.26.67c.82,3.24,1.18,8.43,1.01,13.18l3.68-1.76Z"/>
          <path class="cls-2" d="m262.1,71.13l2.61-1.39c-.97-1.41-1.82-2.77-3.23-4.39l-1.17.74c.34.54.71,1.58.97,2.42.24.74.64,1.95.81,2.62Z"/>
          <path class="cls-2" d="m249.88,67.38c.23-.18.65-.19.65-.56,0-.11-.17-.27-.3-.31l-3.71-1.17c-.3,1.2-1.64,5.35-4.54,8.82l1.04,1.06c2.41-2,5.45-5.44,6.86-7.84Z"/>
          <path class="cls-2" d="m251.27,73.73c0-.23-.24-.33-.37-.36l-3.57-1.22c-.97,4.56-3.52,9.49-5.7,11.92l1.17,1.03c.55-.5,1.46-1.41,2.15-2.22.22-.26.45-.53.67-.81v15.03h3.03v-19.33c.91-1.45,1.62-2.7,1.95-3.36.26-.25.67-.34.67-.67Z"/>
          <path class="cls-2" d="m234.99,82.62c-.23.18-.33.23-.49.23h-30.02v1.85h9.86c-.63,1.72-2.02,5.44-3.21,8.12-2.59.2-4.45.34-6.28.4l1.31,3.46c.08.28.22.38.51.38.31,0,.37-.32.67-.62,9.86-1.82,19.04-3.97,20.7-4.34,1.61,3.09,2.57,5.86,2.57,5.86l3.56-2.71c-1.95-3.58-8.79-9.67-8.79-9.67l-.94,1.07c1.05,1.17,2,2.6,2.82,4.03-1.92.35-10.25,1.49-13.91,1.92,1.72-2.51,4.16-6.11,5.22-7.91h15.81c.72,0,1.2-.11,1.48-.34.41-.34.68-.6.68-.6l-1.19-1.4s-.15.1-.37.27Z"/>
          <path class="cls-2" d="m230,76.76h-20.71v1.85h20.6c.72,0,1.2-.11,1.48-.34.41-.34.68-.6.68-.6l-1.19-1.4s-.15.1-.37.27c-.23.18-.33.23-.49.23Z"/>
          <path class="cls-2" d="m261.64,74.6c.72,0,1.2-.12,1.48-.34.41-.34.69-.6.69-.6l-1.19-1.4s-.15.1-.37.27c-.23.18-.33.23-.49.23h-2.67v-6.3c.07-.17.35-.51.35-.71,0-.31-.38-.33-.42-.33h-2.88c0,.29,0,3.29,0,7.35h-4.23v1.85h4.23c0,9.36,0,22.48,0,22.48h2.95v-22.48h2.56Z"/>
          <path class="cls-2" d="m273.11,69.83c.41-.34.68-.6.68-.6l-1.19-1.4s-.15.1-.37.27c-.23.18-.33.23-.49.23h-5.79v1.85h5.67c.72,0,1.2-.11,1.48-.34Z"/>
          <path class="cls-2" d="m272.77,75.31c-.23.18-.33.23-.49.23h-8.35v1.85h3.99v16.37c0,1.01,0,1.12-1.01,1.12-.74,0-2.63,0-3.45,0v1.47s3.02.67,4.12.67c3.31,0,3.36-1.24,3.36-3.46v-16.16h1.23c.72,0,1.2-.11,1.48-.34.41-.34.68-.6.68-.6l-1.19-1.4s-.15.1-.37.27Z"/>
          <path class="cls-2" d="m319.19,74.39h24.43v4.39h3.42v-1.66c0-.63.04-1.25.22-1.63.3-.63.93-1.32.93-1.32l-2.65-2.38s-.19.14-.48.36c-.26.2-.74.27-1.08.29h-5.35c1.8-1.19,4.55-3.88,4.68-4.02.51-.17.72-.18.91-.48.09-.13.03-.41-.17-.53l-4.12-1.75c-.2,1.21-.77,3.27-2.38,6.12,0,0,.63.47.89.65h-7.48l3.02-1.88c-2.07-3.03-5.54-5.26-5.54-5.26l-.98.68c1.59,2.79,2.23,5.35,2.46,6.46h-6.96l2.52-1.88c-2.35-2.81-6.12-4.54-6.12-4.54l-.66.7c1.72,2.44,2.6,4.62,2.99,5.73h-3.88c-.56,0-1.98-.3-1.98-.3v6.71h3.36v-4.45Z"/>
          <path class="cls-2" d="m345.75,86.71c-.23.18-.33.23-.49.23h-11.54v-1.97c3.23-2.01,7.68-5.73,7.68-5.73l-2.34-2.09s-.17.12-.42.31c-.21.16-.58.25-.92.25h-16.11v1.85h14.25c-.98,1.05-3.02,3.01-3.42,3.38h-2.54v4h-13.7v1.85h13.7v4.31c0,1.55-.6,1.45-2.14,1.45h-4.65v1.85s4.28.63,6.67.63c2.71,0,3.93-.77,3.93-3.56v-4.67h11.43c.72,0,1.2-.11,1.48-.34.41-.34.68-.6.68-.6l-1.19-1.4s-.15.1-.37.27Z"/>
        </g>
        <g>
          <path class="cls-2" d="m314.66,36.7l-.05-.05-.05.04s-.11.08-.26.2c-.14.1-.26.14-.45.14h-12.79c-.29,0-1.07-.17-1.08-.17l-.1-.02v16.93h2.16v-.76h11.28v.77h2.19v-14.41c0-.23.04-.39.11-.55.16-.33.49-.7.5-.7l.05-.06-1.52-1.36Zm-1.34,15.14h-11.28v-13.63h11.28v13.63Z"/>
          <path class="cls-2" d="m303.32,50.75c1.1-.38,2.28-1.1,3.31-2.04v2.67h1.83v-2.81c1.05.99,1.87,1.64,3.43,2.17l.05.02.72-.77-.11-.05c-.46-.22-1.02-.35-1.45-.76.38-.14.96-.31,1.08-.37h.08c.13-.02.22-.03.31-.12.04-.04.05-.09.05-.15,0-.06-.03-.12-.08-.17l-1.29-.87-.04.1c-.12.3-.44.48-.89.88-.57-.48-1.1-1.04-1.47-1.69h1.16v.28h1.75v-1.79c.02-.2.04-.32.12-.49.15-.32.39-.5.39-.5l.09-.07-1.5-1.11s-.15.11-.31.23c-.14.11-.26.14-.45.14h-5.29c-.29,0-1.07-.16-1.07-.16l-.1-.02v3.77s1.72,0,1.72,0v-.28h1.05c-.96,1.6-2.36,2.47-3.73,3.12l-.09.05.69.81h.05Zm2.04-4.87v-1.46h4.66v1.46h-4.66Z"/>
          <path class="cls-2" d="m312.44,42.45c.2-.17.33-.29.34-.3l.05-.05-.67-.64-.06.04s-.07.05-.18.14c-.08.06-.28.09-.37.09h-2.77v-1.04h2.05c.37,0,.62-.06.77-.19.2-.16.33-.29.34-.29l.06-.05-.67-.64-.06.04s-.08.05-.18.13c-.09.07-.29.09-.37.09h-1.92v-.35s.05-.1.09-.15c.05-.06.1-.12.1-.2,0-.07-.02-.14-.07-.19-.09-.09-.23-.13-.44-.13h-1.84v1.01h-2.88v.91h2.88v1.04h-3.86v.91h8.91c.36,0,.61-.06.77-.18Z"/>
        </g>
      </g>
    </g>
  </g>
</svg>