<svg width="161" height="40" viewBox="0 0 161 40" fill="none" xmlns="http://www.w3.org/2000/svg">
<path d="M43.7527 25.3788H49.1018V29.1564H39.2891V11.9941H43.7527V25.3788Z" fill="#231815"/>
<path d="M63.2192 29.1558H59.0734V27.8604H59.028C58.3015 29.0199 56.8666 29.5453 55.4998 29.5453C52.0397 29.5453 49.6013 26.6555 49.6013 23.3082C49.6013 19.9609 51.9943 17.0938 55.4544 17.0938C56.7985 17.0938 58.2107 17.5965 59.0734 18.6202V17.4833H63.2192V29.1603V29.1558ZM53.8833 23.3263C53.8833 24.8075 54.8641 25.9444 56.5488 25.9444C58.2334 25.9444 59.2142 24.8075 59.2142 23.3263C59.2142 21.8452 58.2334 20.6856 56.5488 20.6856C54.8641 20.6856 53.8833 21.8905 53.8833 23.3263Z" fill="#231815"/>
<path d="M69.7625 18.9826H69.8079C70.766 17.5693 71.9239 17.0938 73.5404 17.0938C76.6827 17.0938 77.9359 19.0731 77.9359 21.9403V29.1558H73.7902V23.4668C73.7902 22.3525 73.9718 20.3958 71.9239 20.3958C70.2392 20.3958 69.7625 21.6459 69.7625 23.1044V29.1603H65.6167V17.4833H69.7625V18.9871V18.9826Z" fill="#231815"/>
<path d="M93.175 28.015C93.175 32.9748 90.7139 34.9814 86.4137 34.9814C83.7255 34.9814 80.1292 33.5908 79.766 30.5198H84.4112C84.5247 30.9275 84.8199 31.2264 85.1877 31.4076C85.5509 31.5888 85.9823 31.6794 86.3728 31.6794C88.6024 31.6794 89.0383 30.2209 89.0383 28.3321V27.784C87.9667 28.853 86.8769 29.3784 85.3284 29.3784C81.9138 29.3784 79.5662 26.783 79.5662 23.4176C79.5662 20.0521 81.9819 17.0898 85.5555 17.0898C86.9223 17.0898 88.1755 17.5473 88.9929 18.7069H89.0383V17.4794H93.184V28.0195L93.175 28.015ZM83.8391 23.2364C83.8391 24.7175 84.8199 25.8544 86.5045 25.8544C88.1892 25.8544 89.17 24.7175 89.17 23.2364C89.17 21.7552 88.1892 20.5957 86.5045 20.5957C84.8199 20.5957 83.8391 21.8005 83.8391 23.2364Z" fill="#231815"/>
<path d="M104.295 27.8562H104.25C103.523 29.0158 102.089 29.5412 100.722 29.5412C97.2617 29.5412 94.8232 26.6514 94.8232 23.3041C94.8232 19.9568 97.2162 17.0896 100.676 17.0896C102.02 17.0896 103.433 17.5924 104.295 18.6161V10.2637H108.441V29.1562H104.295V27.8608V27.8562ZM99.1052 23.3267C99.1052 24.8079 100.086 25.9448 101.771 25.9448C103.455 25.9448 104.436 24.8079 104.436 23.3267C104.436 21.8456 103.455 20.686 101.771 20.686C100.086 20.686 99.1052 21.8909 99.1052 23.3267Z" fill="#231815"/>
<path d="M122.913 24.0109H114.19C114.19 25.6959 115.08 26.6063 116.787 26.6063C117.677 26.6063 118.313 26.3119 118.767 25.5374H122.754C122.095 28.2913 119.475 29.5414 116.81 29.5414C112.941 29.5414 110.049 27.3582 110.049 23.327C110.049 19.2957 112.714 17.0898 116.515 17.0898C120.57 17.0898 122.913 19.5947 122.913 23.5761V24.0064V24.0109ZM119.062 21.6193C118.858 20.5051 117.832 19.7758 116.719 19.7758C115.511 19.7758 114.512 20.4145 114.258 21.6193H119.062Z" fill="#231815"/>
<path d="M128.734 18.9333H128.779C129.76 17.6379 130.964 17.0898 132.467 17.0898C134.151 17.0898 135.609 17.7738 136.453 19.3184C137.253 17.8599 138.824 17.0898 140.418 17.0898C143.378 17.0898 144.404 19.0239 144.404 21.7099V29.1519H140.259V23.5761C140.259 22.3712 140.304 20.3873 138.551 20.3873C136.64 20.3873 136.571 22.1855 136.571 23.5761V29.1519H132.426V23.5761C132.426 22.2806 132.426 20.2967 130.582 20.2967C128.739 20.2967 128.739 22.2761 128.739 23.5761V29.1519H124.593V17.4749H128.739V18.9333H128.734Z" fill="#231815"/>
<path d="M144.668 17.4785H149.449L152.569 23.4665L155.62 17.4785H160.334L150.975 34.9805H146.33L150.316 27.5612L144.668 17.4785Z" fill="#231815"/>
<path d="M23.4235 17.9821C20.581 16.1522 19.532 13.4843 20.7853 9.6433L22.034 5.81588L14.015 0L6.00043 5.81135L8.06196 12.1436C8.41614 13.2171 9.16083 18.3218 3.44849 18.3626C1.72752 18.3626 0.333496 19.7531 0.333496 21.4698C0.333496 23.1865 1.72752 24.5771 3.44849 24.5771C5.16946 24.5771 6.56349 23.1865 6.56349 21.4698L6.57257 21.4834V21.2977C6.57257 17.9368 9.30614 15.2146 12.6754 15.2146H12.8661C16.2354 15.2146 18.969 17.9368 18.969 21.2977V21.4834C18.969 24.8443 16.2354 27.5711 12.8661 27.5711H12.739C9.29706 27.5711 6.509 30.3522 6.509 33.7855C6.509 37.2189 9.29706 40 12.739 40C16.1809 40 18.969 37.2189 18.969 33.7855V33.4639C18.969 31.6884 19.1234 29.7543 19.8862 28.2641C20.6309 26.8101 21.9296 25.7638 23.1965 24.9439L28.9315 21.3883L23.4281 17.9731L23.4235 17.9821Z" fill="#00AFCC"/>
</svg>
