<svg width="64" height="64" viewBox="0 0 64 64" fill="none" xmlns="http://www.w3.org/2000/svg">
<path d="M39.1042 19.8153C36.6293 18.2059 35.716 15.8595 36.8072 12.4813L37.8944 9.11506L30.9123 4L23.9341 9.11108L25.7291 14.6803C26.0375 15.6244 26.6859 20.114 21.7122 20.1499C20.2138 20.1499 19 21.3729 19 22.8827C19 24.3925 20.2138 25.6155 21.7122 25.6155C23.2106 25.6155 24.4244 24.3925 24.4244 22.8827L24.4323 22.8947V22.7313C24.4323 19.7754 26.8124 17.3812 29.746 17.3812H29.912C32.8456 17.3812 35.2257 19.7754 35.2257 22.7313V22.8947C35.2257 25.8506 32.8456 28.2487 29.912 28.2487H29.8013C26.8045 28.2487 24.3769 30.6947 24.3769 33.7144C24.3769 36.734 26.8045 39.18 29.8013 39.18C32.7982 39.18 35.2257 36.734 35.2257 33.7144V33.4315C35.2257 31.8699 35.3601 30.1689 36.0244 28.8583C36.6728 27.5795 37.8035 26.6593 38.9066 25.9382L43.9 22.811L39.1082 19.8073L39.1042 19.8153Z" fill="#00AFCC"/>
<path d="M2.36005 53.9984H5.18827V55.9975H0V46.9155H2.36005V53.9984Z" fill="#231815"/>
<path d="M12.6524 55.9975H10.4604V55.312H10.4363C10.0522 55.9256 9.29354 56.2036 8.57087 56.2036C6.74141 56.2036 5.45215 54.6744 5.45215 52.9031C5.45215 51.1318 6.71741 49.6145 8.54687 49.6145C9.25752 49.6145 10.0042 49.8806 10.4604 50.4223V49.8206H12.6524V55.9999V55.9975ZM7.71617 52.9127C7.71617 53.6965 8.23475 54.2981 9.12548 54.2981C10.0162 54.2981 10.5348 53.6965 10.5348 52.9127C10.5348 52.1289 10.0162 51.5153 9.12548 51.5153C8.23475 51.5153 7.71617 52.1528 7.71617 52.9127Z" fill="#231815"/>
<path d="M16.1119 50.614H16.1359C16.6425 49.8662 17.2547 49.6145 18.1094 49.6145C19.7708 49.6145 20.4335 50.662 20.4335 52.1792V55.9975H18.2415V52.987C18.2415 52.3973 18.3375 51.3619 17.2547 51.3619C16.364 51.3619 16.1119 52.0234 16.1119 52.7952V55.9999H13.9199V49.8206H16.1119V50.6164V50.614Z" fill="#231815"/>
<path d="M28.4913 55.3934C28.4913 58.0181 27.19 59.0799 24.9164 59.0799C23.4951 59.0799 21.5936 58.344 21.4015 56.7189H23.8576C23.9176 56.9346 24.0737 57.0928 24.2682 57.1887C24.4602 57.2846 24.6883 57.3325 24.8948 57.3325C26.0736 57.3325 26.3041 56.5607 26.3041 55.5612V55.2712C25.7375 55.8369 25.1613 56.1149 24.3426 56.1149C22.5371 56.1149 21.2959 54.7415 21.2959 52.9606C21.2959 51.1796 22.5732 49.6121 24.4626 49.6121C25.1853 49.6121 25.8479 49.8541 26.2801 50.4678H26.3041V49.8182H28.4961V55.3958L28.4913 55.3934ZM23.5551 52.8647C23.5551 53.6485 24.0737 54.2501 24.9644 54.2501C25.8551 54.2501 26.3737 53.6485 26.3737 52.8647C26.3737 52.0809 25.8551 51.4673 24.9644 51.4673C24.0737 51.4673 23.5551 52.1049 23.5551 52.8647Z" fill="#231815"/>
<path d="M34.3705 55.3096H34.3465C33.9624 55.9232 33.2037 56.2013 32.481 56.2013C30.6516 56.2013 29.3623 54.6721 29.3623 52.9007C29.3623 51.1294 30.6276 49.6122 32.457 49.6122C33.1677 49.6122 33.9143 49.8782 34.3705 50.4199V46H36.5625V55.9975H34.3705V55.312V55.3096ZM31.6263 52.9127C31.6263 53.6965 32.1449 54.2981 33.0356 54.2981C33.9264 54.2981 34.4449 53.6965 34.4449 52.9127C34.4449 52.1289 33.9264 51.5153 33.0356 51.5153C32.1449 51.5153 31.6263 52.1529 31.6263 52.9127Z" fill="#231815"/>
<path d="M44.2147 53.2746H39.6027C39.6027 54.1662 40.0732 54.648 40.976 54.648C41.4465 54.648 41.7827 54.4922 42.0228 54.0823H44.1307C43.7826 55.5396 42.3973 56.2012 40.988 56.2012C38.9424 56.2012 37.4131 55.0459 37.4131 52.9126C37.4131 50.7794 38.8224 49.6121 40.8319 49.6121C42.9759 49.6121 44.2147 50.9376 44.2147 53.0444V53.2722V53.2746ZM42.1788 52.009C42.0708 51.4193 41.5282 51.0334 40.94 51.0334C40.3013 51.0334 39.7731 51.3714 39.6387 52.009H42.1788Z" fill="#231815"/>
<path d="M47.2921 50.5876H47.3161C47.8347 49.9021 48.471 49.6121 49.2656 49.6121C50.1564 49.6121 50.927 49.974 51.3736 50.7913C51.7962 50.0195 52.6269 49.6121 53.4696 49.6121C55.0349 49.6121 55.5775 50.6355 55.5775 52.0569V55.9951H53.3855V53.0444C53.3855 52.4069 53.4095 51.357 52.4828 51.357C51.472 51.357 51.436 52.3086 51.436 53.0444V55.9951H49.244V53.0444C49.244 52.3589 49.244 51.3091 48.2693 51.3091C47.2945 51.3091 47.2945 52.3565 47.2945 53.0444V55.9951H45.1025V49.8158H47.2945V50.5876H47.2921Z" fill="#231815"/>
<path d="M55.7168 49.8184H58.2449L59.8943 52.9871L61.5077 49.8184H63.9998L59.0516 59.0801H56.5955L58.7035 55.1539L55.7168 49.8184Z" fill="#231815"/>
</svg>
