<svg width="64" height="64" viewBox="0 0 64 64" fill="none" xmlns="http://www.w3.org/2000/svg">
<g clip-path="url(#clip0_711_2750)">
<path d="M30.2503 5.4978C31.0126 5.85123 31.6612 6.27081 32.3343 6.77154C32.5386 6.92267 32.7429 7.0738 32.9534 7.22951C33.2706 7.46582 33.2706 7.46582 33.5941 7.70691C34.8777 8.66057 36.156 9.60846 37.5003 10.4761C37.2702 11.6162 37.0156 12.7036 36.5941 13.7898C36.0353 15.4077 35.9782 17.1456 36.5316 18.768C37.7893 20.5629 39.0192 21.5844 40.9691 22.6106C41.4021 22.8401 41.8338 23.0721 42.264 23.3068C42.4534 23.4065 42.6429 23.5062 42.8381 23.609C42.9741 23.7108 43.1102 23.8126 43.2503 23.9174C43.2503 24.1639 43.2503 24.4103 43.2503 24.6642C42.7772 25.0372 42.7772 25.0372 42.1175 25.4294C41.8784 25.5752 41.6393 25.7211 41.3929 25.8713C40.8891 26.1716 40.3852 26.4717 39.8812 26.7717C36.9657 28.5485 36.9657 28.5485 35.2503 31.3849C35.1805 31.9191 35.1805 31.9191 35.1907 32.4534C35.1861 32.7486 35.1861 32.7486 35.1813 33.0498C35.1783 33.255 35.1753 33.4603 35.1722 33.6718C35.0962 35.8034 34.8329 37.458 33.3138 39.0652C31.7882 40.4405 30.622 40.7131 28.5648 40.6695C27.116 40.5364 26.2451 40.1224 25.2493 39.0691C24.1313 37.704 23.6484 36.733 23.682 34.9397C23.8647 33.4215 24.4337 32.0616 25.5784 31.027C26.8506 30.0791 28.009 29.6348 29.5941 29.5491C31.1708 29.439 32.521 28.9516 33.6029 27.761C34.6669 26.2384 34.6238 24.7086 34.5003 22.9218C34.2383 21.6149 33.4771 20.8282 32.4788 20C30.9334 18.9857 29.2968 18.9968 27.5003 19.1881C26.8682 19.45 26.5255 19.7297 26.0003 20.1837C25.6291 20.3069 25.6291 20.3069 25.2503 20.4326C24.969 20.8889 24.969 20.8889 24.7503 21.4283C24.6649 21.5788 24.5795 21.7293 24.4915 21.8843C24.2166 22.4993 24.1838 22.9673 24.1566 23.6374C24.043 25.0081 23.5402 25.7673 22.6595 26.8101C21.9996 27.3636 21.4102 27.3178 20.5745 27.2865C19.6937 27.0822 19.2827 26.6593 18.7601 25.9428C18.3059 25.0129 18.2409 24.1703 18.5003 23.1707C19.1097 22.424 19.1097 22.424 19.7503 21.9261C19.8741 21.8029 19.8741 21.8029 20.0003 21.6772C20.7419 21.5526 21.4856 21.453 22.2308 21.3525C23.3345 21.1042 23.9992 20.7563 24.6947 19.8599C25.6679 17.7206 24.9863 15.401 24.2347 13.3075C24.1612 13.1159 24.0878 12.9242 24.0121 12.7268C23.9091 12.455 23.9091 12.455 23.804 12.1776C23.7078 11.9372 23.7078 11.9372 23.6096 11.6918C23.4705 11.0947 23.5114 10.7929 23.7503 10.2272C24.187 9.81399 24.187 9.81399 24.7523 9.41139C24.9579 9.26299 25.1635 9.11459 25.3753 8.96169C25.5919 8.80944 25.8084 8.65719 26.0316 8.50033C26.2423 8.34904 26.4531 8.19775 26.6702 8.04188C27.2784 7.60606 27.889 7.17381 28.5003 6.74237C28.8435 6.49846 29.1866 6.25442 29.5296 6.01022C29.7674 5.84112 30.0053 5.67202 30.2503 5.4978Z" fill="#03AECB"/>
<path d="M25.2499 50.8002C25.9999 51.1735 25.9999 51.1735 26.4999 51.5469C26.4999 51.3826 26.4999 51.2183 26.4999 51.0491C27.1599 51.0491 27.8199 51.0491 28.4999 51.0491C28.5145 52.0966 28.5233 53.144 28.5311 54.1916C28.5374 54.6359 28.5374 54.6359 28.5438 55.0891C28.5454 55.3762 28.5471 55.6634 28.5487 55.9593C28.5513 56.2226 28.554 56.4859 28.5566 56.7572C28.4714 57.9037 28.2479 58.7459 27.4608 59.5977C26.5511 60.1252 25.9231 60.1428 24.8749 60.1344C24.3915 60.1383 24.3915 60.1383 23.8983 60.1422C22.8714 59.9911 22.4572 59.7606 21.7499 59.0143C21.5468 58.4543 21.5468 58.4543 21.4999 58.0187C21.9113 58.012 22.3228 58.0071 22.7343 58.0031C22.9634 58.0002 23.1925 57.9973 23.4286 57.9944C23.9999 58.0187 23.9999 58.0187 24.2499 58.2676C24.7498 58.2777 25.25 58.2782 25.7499 58.2676C25.9149 57.7747 26.0799 57.2819 26.2499 56.7741C26.1261 56.8562 26.0024 56.9384 25.8749 57.023C24.9927 57.3743 24.176 57.4493 23.2499 57.2719C22.3749 56.7752 21.8076 56.1135 21.2499 55.2806C21.0721 54.3191 21.0673 53.4116 21.5038 52.5241C22.5055 51.0912 23.4545 50.5602 25.2499 50.8002Z" fill="#0D0D0D"/>
<path d="M56 51.0491C56.825 51.0491 57.65 51.0491 58.5 51.0491C58.7096 51.4113 58.9177 51.7745 59.125 52.1381C59.241 52.3402 59.357 52.5424 59.4766 52.7506C59.75 53.2893 59.75 53.2893 59.75 53.7871C59.915 53.7871 60.08 53.7871 60.25 53.7871C60.317 53.5664 60.3841 53.3456 60.4531 53.1182C60.5511 52.8461 60.6491 52.574 60.75 52.2936C60.8325 52.0575 60.915 51.8213 61 51.578C61.165 51.4035 61.33 51.2289 61.5 51.0491C62.325 51.0491 63.15 51.0491 64 51.0491C64 54.0062 64 56.9633 64 60.01C61.69 60.01 59.38 60.01 57 60.01C57.2652 58.9537 57.6845 58.2605 58.2598 57.3507C58.5766 56.5902 58.5184 56.31 58.25 55.5295C57.8985 54.8329 57.5076 54.1625 57.1094 53.4915C56.8998 53.1359 56.6911 52.7797 56.4834 52.423C56.3907 52.2666 56.2981 52.1103 56.2026 51.9493C56 51.5469 56 51.5469 56 51.0491Z" fill="#0C0C0C"/>
<path d="M34.2505 47.0664C35.0755 47.0664 35.9005 47.0664 36.7505 47.0664C36.7505 50.4342 36.7505 53.802 36.7505 57.2719C36.008 57.2719 35.2655 57.2719 34.5005 57.2719C34.5005 57.1076 34.5005 56.9433 34.5005 56.7741C34.253 56.9383 34.0055 57.1026 33.7505 57.2719C32.5439 57.447 31.5546 57.4548 30.5005 56.8207C29.499 55.7302 29.4047 55.0703 29.438 53.6471C29.5522 52.5386 30.0518 52.0049 30.7974 51.2202C31.778 50.6343 32.3655 50.709 33.5005 50.8001C33.748 50.8823 33.9955 50.9644 34.2505 51.049C34.2505 49.7348 34.2505 48.4205 34.2505 47.0664Z" fill="#141414"/>
<path d="M50.25 50.8001C50.875 51.1734 50.875 51.1734 51.25 51.5468C51.9226 51.2431 51.9226 51.2431 52.5 50.8001C54.2412 50.6267 54.2412 50.6267 55.1865 51.26C56.0065 52.4018 55.888 53.3702 55.8281 54.736C55.8225 54.9797 55.8168 55.2234 55.811 55.4745C55.7964 56.0738 55.7739 56.6728 55.75 57.2718C55.0075 57.2718 54.265 57.2718 53.5 57.2718C53.4175 55.8754 53.335 54.479 53.25 53.0403C52.6313 52.9171 52.6313 52.9171 52 52.7914C51.9175 54.2699 51.835 55.7485 51.75 57.2718C50.925 57.2718 50.1 57.2718 49.25 57.2718C49.1675 55.7933 49.085 54.3147 49 52.7914C48.5875 52.7914 48.175 52.7914 47.75 52.7914C47.2352 53.3039 47.3964 54.3389 47.3594 55.0472C47.3486 55.236 47.3378 55.4248 47.3267 55.6194C47.3001 56.0872 47.2749 56.555 47.25 57.0229C46.59 57.0229 45.93 57.0229 45.25 57.0229C45.25 55.0515 45.25 53.0801 45.25 51.049C45.91 51.049 46.57 51.049 47.25 51.049C47.25 51.2133 47.25 51.3775 47.25 51.5468C47.3738 51.4236 47.4975 51.3004 47.625 51.1734C48.497 50.6525 49.255 50.6417 50.25 50.8001Z" fill="#111111"/>
<path d="M10.5002 51.049C11.2427 51.049 11.9852 51.049 12.7502 51.049C12.7502 53.1026 12.7502 55.1561 12.7502 57.2719C12.0077 57.2719 11.2652 57.2719 10.5002 57.2719C10.5002 57.1076 10.5002 56.9433 10.5002 56.774C10.3581 56.8539 10.216 56.9338 10.0696 57.0161C9.14078 57.4333 8.24764 57.4492 7.25022 57.2719C6.39077 56.5982 5.6008 55.8313 5.39866 54.7244C5.35277 53.4985 5.4026 52.7377 6.21897 51.7802C7.46776 50.5038 8.84962 50.6382 10.5002 51.049Z" fill="#0E0E0E"/>
<path d="M42.0002 50.8001C42.9659 51.2895 43.7485 51.8201 44.2502 52.7914C44.2502 53.3664 44.2502 53.9414 44.2502 54.5338C42.7652 54.5338 41.2802 54.5338 39.7502 54.5338C39.9152 54.8623 40.0802 55.1909 40.2502 55.5294C40.7501 55.54 41.2503 55.5396 41.7502 55.5294C41.8327 55.4473 41.9152 55.3651 42.0002 55.2805C42.6679 55.2454 43.3313 55.2699 44.0002 55.2805C43.8596 56.0924 43.6467 56.503 43.0002 57.0229C41.773 57.4302 40.5294 57.4284 39.2502 57.2718C38.3679 56.6218 37.6015 55.8354 37.3987 54.7243C37.3528 53.4985 37.4026 52.7377 38.219 51.7802C39.3433 50.631 40.4392 50.6258 42.0002 50.8001Z" fill="#0F0F0F"/>
<path d="M18.4512 50.6523C19.3462 50.8934 19.9802 51.2905 20.5 52.0447C20.6828 52.9489 20.642 53.8185 20.5938 54.7361C20.587 54.9798 20.5802 55.2235 20.5732 55.4746C20.5556 56.0739 20.5287 56.673 20.5 57.2719C19.7575 57.2719 19.015 57.2719 18.25 57.2719C18.1675 55.8755 18.085 54.4791 18 53.0404C17.5875 52.9582 17.175 52.8761 16.75 52.7914C16.0385 53.4999 16.1361 54.2361 16.0938 55.1872C16.0792 55.451 16.0792 55.451 16.0645 55.7201C16.0409 56.1543 16.0202 56.5886 16 57.023C15.34 57.023 14.68 57.023 14 57.023C14 55.0516 14 53.0802 14 51.0491C14.66 51.0491 15.32 51.0491 16 51.0491C16 51.2133 16 51.3776 16 51.5469C16.1238 51.4237 16.2475 51.3005 16.375 51.1735C17.0756 50.755 17.6412 50.6915 18.4512 50.6523Z" fill="#0B0B0B"/>
<path d="M0 48.062C0.825 48.062 1.65 48.062 2.5 48.062C2.5 50.362 2.5 52.6619 2.5 55.0316C3.4075 55.0316 4.315 55.0316 5.25 55.0316C5.25 55.7709 5.25 56.5102 5.25 57.2718C3.5175 57.2718 1.785 57.2718 0 57.2718C0 54.2326 0 51.1934 0 48.062Z" fill="#151515"/>
<path d="M63.75 51.5469C63.8325 51.5469 63.915 51.5469 64 51.5469C64 54.3397 64 57.1325 64 60.01C62.4325 60.01 60.865 60.01 59.25 60.01C60.6663 57.1375 62.1696 54.3329 63.75 51.5469Z" fill="#F6F6F6"/>
<path d="M25.2503 16.2012C25.3328 16.2012 25.4153 16.2012 25.5003 16.2012C25.5003 17.269 25.5003 18.3369 25.5003 19.4371C25.9128 19.3549 26.3253 19.2728 26.7503 19.1881C26.4302 19.6132 26.0959 20.0279 25.7503 20.4327C25.5853 20.4327 25.4203 20.4327 25.2503 20.4327C25.1781 20.5867 25.1059 20.7407 25.0316 20.8994C24.7503 21.4284 24.7503 21.4284 24.2503 21.9262C24.2503 21.7619 24.2503 21.5976 24.2503 21.4284C24.074 21.5099 23.8978 21.5914 23.7161 21.6753C22.9406 21.9471 22.3653 21.9769 21.5472 21.9573C21.1813 21.9506 21.1813 21.9506 20.8079 21.9437C20.6239 21.9379 20.4399 21.9321 20.2503 21.9262C20.1678 22.5012 20.0853 23.0762 20.0003 23.6686C19.6703 23.6686 19.3403 23.6686 19.0003 23.6686C19.0003 24.3257 19.0003 24.9829 19.0003 25.6599C19.1653 25.6599 19.3303 25.6599 19.5003 25.6599C19.5828 25.8242 19.6653 25.9885 19.7503 26.1577C20.3123 26.3031 20.3123 26.3031 20.9691 26.36C21.1901 26.3872 21.4112 26.4145 21.639 26.4426C22.2611 26.4631 22.2611 26.4631 22.6878 26.0722C23.4078 25.1224 23.588 24.08 23.7503 22.9218C23.8328 22.9218 23.9153 22.9218 24.0003 22.9218C24.1216 24.6727 23.8098 25.4464 22.6585 26.8121C21.9989 27.3636 21.4087 27.3178 20.5745 27.2866C19.6937 27.0823 19.2827 26.6594 18.7601 25.9428C18.3059 25.0129 18.2409 24.1704 18.5003 23.1708C19.1097 22.424 19.1097 22.424 19.7503 21.9262C19.8328 21.8441 19.9153 21.7619 20.0003 21.6773C20.7419 21.5527 21.4856 21.453 22.2308 21.3525C23.333 21.1046 23.9985 20.7576 24.6927 19.862C25.0474 19.0851 25.1253 18.4668 25.1722 17.6169C25.1886 17.3509 25.2051 17.0849 25.222 16.8108C25.2313 16.6096 25.2407 16.4085 25.2503 16.2012Z" fill="#34AEC0"/>
<path d="M9.125 52.7292C10 52.7915 10 52.7915 10.5 53.2893C10.5834 54.0702 10.6321 54.5751 10.2031 55.2495C9.58623 55.6307 9.2137 55.6361 8.5 55.5295C8.04688 55.2495 8.04688 55.2495 7.75 54.7828C7.67188 54.0205 7.67188 54.0205 7.75 53.2893C8.25 52.7915 8.25 52.7915 9.125 52.7292Z" fill="#EBEBEB"/>
<path d="M32.9847 52.7292C33.7504 52.7915 33.7504 52.7915 34.5004 53.2893C34.6003 54.0685 34.6307 54.5664 34.2191 55.2495C33.5331 55.6593 33.033 55.629 32.2504 55.5295C31.6749 54.6702 31.6641 54.2981 31.7504 53.2893C32.2504 52.7915 32.2504 52.7915 32.9847 52.7292Z" fill="#EAEAEA"/>
<path d="M24.9996 52.7292C25.7496 52.7915 25.7496 52.7915 26.2496 53.2893C26.333 54.6168 26.333 54.6168 25.9996 55.2806C24.4019 55.3707 24.4019 55.3707 23.7496 54.985C23.4996 54.5339 23.4996 54.5339 23.5465 53.896C23.8462 53.0009 24.0465 52.8083 24.9996 52.7292Z" fill="#F3F3F3"/>
<path d="M25.25 16.2012C25.3325 16.2012 25.415 16.2012 25.5 16.2012C25.5 17.269 25.5 18.3369 25.5 19.4371C25.9125 19.3549 26.325 19.2728 26.75 19.1881C26.4298 19.6132 26.0956 20.0279 25.75 20.4327C25.585 20.4327 25.42 20.4327 25.25 20.4327C25.1778 20.5867 25.1056 20.7407 25.0312 20.8994C24.75 21.4284 24.75 21.4284 24.25 21.9262C24.25 21.7619 24.25 21.5976 24.25 21.4284C24.0789 21.5073 23.9078 21.5862 23.7314 21.6676C22.9006 21.9613 22.1756 22.0287 21.2969 22.0818C20.8613 22.1097 20.8613 22.1097 20.417 22.1382C20.0868 22.1564 20.0868 22.1564 19.75 22.1751C19.8325 22.0108 19.915 21.8465 20 21.6773C20.74 21.5247 21.481 21.4384 22.2305 21.3438C23.3371 21.1075 23.9976 20.7584 24.6924 19.862C25.047 19.0851 25.125 18.4668 25.1719 17.6169C25.1883 17.3509 25.2047 17.0849 25.2217 16.8108C25.231 16.6096 25.2404 16.4085 25.25 16.2012Z" fill="#33B8C4"/>
<path d="M26.9999 30.3892C26.7127 31.1172 26.5053 31.3811 25.8437 31.836C25.6477 32.0157 25.4518 32.1953 25.2499 32.3805C25.2082 33.2724 25.2082 33.2724 25.2499 34.1229C25.0024 34.2872 24.7549 34.4514 24.4999 34.6207C24.3544 35.2244 24.3544 35.2244 24.328 35.8964C24.3116 36.1229 24.2952 36.3494 24.2782 36.5828C24.2689 36.7568 24.2596 36.9307 24.2499 37.1098C24.4149 37.1098 24.5799 37.1098 24.7499 37.1098C24.6674 37.4384 24.5849 37.767 24.4999 38.1055C23.7488 36.6097 23.4846 35.386 23.914 33.7446C24.3806 32.4089 25.3349 30.3892 26.9999 30.3892Z" fill="#31B1C2"/>
<path d="M44.25 53.2893C44.3325 53.2893 44.415 53.2893 44.5 53.2893C44.5449 54.2718 44.5234 54.9317 44 55.7784C44 55.6142 44 55.4499 44 55.2806C43.6752 55.3166 43.3503 55.3525 43.0156 55.3895C42.8329 55.4097 42.6502 55.4299 42.4619 55.4508C41.9971 55.4844 41.9971 55.4844 41.75 55.7784C41.0156 55.8251 41.0156 55.8251 40.25 55.7784C40.085 55.6142 39.92 55.4499 39.75 55.2806C39.75 55.0342 39.75 54.7878 39.75 54.5339C41.235 54.5339 42.72 54.5339 44.25 54.5339C44.25 54.1232 44.25 53.7125 44.25 53.2893Z" fill="#E2E2E2"/>
<path d="M33.75 20.6816C33.915 20.6816 34.08 20.6816 34.25 20.6816C35.0567 21.695 35.1317 22.685 35.1719 23.9331C35.1847 24.1971 35.1847 24.1971 35.1978 24.4664C35.2354 25.28 35.25 26.0899 35.25 26.9045C35.0025 26.9866 34.755 27.0688 34.5 27.1534C34.5 27.3998 34.5 27.6463 34.5 27.9001C34.2525 27.9001 34.005 27.9001 33.75 27.9001C33.6675 28.1466 33.585 28.393 33.5 28.6469C32.9844 28.818 32.9844 28.818 32.5 28.8958C32.6025 28.7845 32.705 28.6731 32.8105 28.5584C32.9453 28.4079 33.08 28.2574 33.2188 28.1024C33.3522 27.9551 33.4856 27.8078 33.623 27.6561C34.7074 26.21 34.6517 24.6556 34.5 22.9219C34.3106 22.1456 34.0632 21.4166 33.75 20.6816Z" fill="#24AFC0"/>
<path d="M34.75 32.3806C34.8325 32.3806 34.915 32.3806 35 32.3806C35.1397 34.6988 35.2298 36.6648 33.75 38.6035C33.207 39.043 33.207 39.043 32.75 39.3502C32.7785 38.987 32.8104 38.624 32.8438 38.2612C32.8612 38.0591 32.8786 37.8569 32.8965 37.6486C33 37.11 33 37.11 33.5 36.6122C33.7475 36.6122 33.995 36.6122 34.25 36.6122C34.415 35.2157 34.58 33.8193 34.75 32.3806Z" fill="#32B3CA"/>
<path d="M26.25 56.7742C26.0312 58.2365 26.0312 58.2365 25.75 58.5166C25 58.5477 25 58.5477 24.25 58.5166C24.1675 58.4344 24.085 58.3523 24 58.2677C23.5795 58.2097 23.1572 58.1649 22.7344 58.1276C22.5046 58.1068 22.2748 58.0859 22.0381 58.0644C21.7717 58.0418 21.7717 58.0418 21.5 58.0187C21.5 57.9366 21.5 57.8545 21.5 57.7698C22.6137 57.6466 22.6137 57.6466 23.75 57.5209C23.75 57.4388 23.75 57.3566 23.75 57.272C24.0727 57.1883 24.3957 57.1055 24.7188 57.0231C24.8986 56.9769 25.0784 56.9307 25.2637 56.8831C25.75 56.7742 25.75 56.7742 26.25 56.7742Z" fill="#D2D2D2"/>
<path d="M36.2496 27.9001C36.6621 27.9823 37.0746 28.0644 37.4996 28.1491C37.1593 28.5033 37.1593 28.5033 36.8121 28.8647C35.4375 30.4664 34.9037 32.3014 34.7496 34.3719C34.6671 34.3719 34.5846 34.3719 34.4996 34.3719C34.4694 32.7708 34.5438 31.2312 34.7496 29.6425C34.9971 29.6425 35.2446 29.6425 35.4996 29.6425C35.5821 29.4783 35.6646 29.314 35.7496 29.1447C35.9146 29.1447 36.0796 29.1447 36.2496 29.1447C36.2496 28.734 36.2496 28.3233 36.2496 27.9001Z" fill="#1BABBF"/>
<path d="M30.25 5.4978C31.2188 5.9334 31.2188 5.9334 31.5 6.49346C31.237 6.46266 30.9741 6.43185 30.7031 6.40012C29.7 6.38996 29.7 6.38996 29.125 7.19353C29.0274 7.32958 28.9297 7.46562 28.8291 7.60579C28.0859 8.46654 26.8393 8.76569 25.75 8.9826C26.5967 8.07148 27.5465 7.38743 28.5625 6.68014C28.8061 6.5088 28.8061 6.5088 29.0547 6.334C29.4525 6.0544 29.8512 5.77598 30.25 5.4978Z" fill="#26ACC0"/>
<path d="M25.5 8.98267C25.5825 9.22909 25.665 9.47552 25.75 9.72941C25.255 9.97583 24.76 10.2223 24.25 10.4762C24.5605 12.153 24.5605 12.153 25.0312 13.7898C25.2536 14.4698 25.2919 14.9937 25.25 15.7033C24.6951 14.8747 24.3941 14.0402 24.0781 13.1053C24.0187 12.9389 23.9592 12.7726 23.8979 12.6012C23.672 11.9355 23.4922 11.3568 23.5332 10.6502C23.8132 10.104 24.1276 9.87709 24.6406 9.54272C24.8008 9.4362 24.9609 9.32967 25.126 9.21991C25.2494 9.14162 25.3728 9.06333 25.5 8.98267Z" fill="#22AABA"/>
<path d="M30.25 29.6425C30.415 29.9711 30.58 30.2996 30.75 30.6381C30.5 30.8871 30.5 30.8871 29.5781 30.9337C28.6397 30.9253 27.8764 30.7383 27 30.3892C28.2091 29.5867 28.8173 29.6195 30.25 29.6425Z" fill="#02ACD2"/>
<path d="M24.5 36.1143C24.5825 36.3607 24.665 36.6071 24.75 36.861C24.915 36.9431 25.08 37.0253 25.25 37.1099C25.25 37.4385 25.25 37.767 25.25 38.1056C25.415 38.1056 25.58 38.1056 25.75 38.1056C25.8325 37.777 25.915 37.4484 26 37.1099C26.165 37.1099 26.33 37.1099 26.5 37.1099C26.5825 37.6849 26.665 38.2599 26.75 38.8523C26.585 38.8523 26.42 38.8523 26.25 38.8523C26.25 39.0166 26.25 39.1809 26.25 39.3501C25.7812 39.2724 25.7812 39.2724 25.25 39.1012C24.712 38.2978 24.6998 38.0349 24.75 37.1099C24.585 37.0278 24.42 36.9456 24.25 36.861C24.3325 36.6146 24.415 36.3682 24.5 36.1143Z" fill="#0BABC1"/>
<path d="M32.25 39.8479C31.2483 40.5576 30.5648 40.6848 29.3438 40.6568C29.0621 40.653 28.7804 40.6491 28.4902 40.6452C27.75 40.5946 27.75 40.5946 27 40.3457C27 40.1814 27 40.0171 27 39.8479C27.2172 39.8507 27.4344 39.8536 27.6582 39.8566C27.9463 39.8589 28.2344 39.8611 28.5312 39.8634C28.9576 39.8677 28.9576 39.8677 29.3926 39.8722C30.2487 39.8679 30.2487 39.8679 31.0762 39.7069C31.75 39.5989 31.75 39.5989 32.25 39.8479Z" fill="#16A9BB"/>
<path d="M19.25 22.175C19.58 22.2572 19.91 22.3393 20.25 22.424C20.1675 22.8347 20.085 23.2454 20 23.6685C19.67 23.6685 19.34 23.6685 19 23.6685C19 24.4078 19 25.1471 19 25.9088C18.3989 25.3102 18.426 25.1415 18.4219 24.3219C18.4358 23.5402 18.4702 23.2214 18.875 22.5329C19.0606 22.3557 19.0606 22.3557 19.25 22.175Z" fill="#1EADC0"/>
<path d="M40.25 52.2937C40.745 52.2937 41.24 52.2937 41.75 52.2937C41.915 52.6223 42.08 52.9508 42.25 53.2894C41.425 53.2894 40.6 53.2894 39.75 53.2894C39.915 52.9608 40.08 52.6322 40.25 52.2937Z" fill="#CFCFCF"/>
<path d="M34 25.9087C34.165 25.9087 34.33 25.9087 34.5 25.9087C34.3964 27.1116 33.884 27.608 33 28.3978C32.8507 27.7102 32.75 27.1134 32.75 26.4065C32.9975 26.4065 33.245 26.4065 33.5 26.4065C33.5 26.5708 33.5 26.7351 33.5 26.9043C33.665 26.9043 33.83 26.9043 34 26.9043C34 26.5758 34 26.2472 34 25.9087Z" fill="#E1F6FA"/>
<path d="M41.5 23.1707C42.3662 23.5403 42.3662 23.5403 43.25 23.9174C43.25 24.1638 43.25 24.4102 43.25 24.6641C42.6562 24.9286 42.6562 24.9286 42 25.162C41.835 25.0798 41.67 24.9977 41.5 24.9131C41.5696 24.6897 41.5696 24.6897 41.6406 24.4619C41.8052 23.8766 41.8052 23.8766 41.5 23.1707Z" fill="#16ADC3"/>
<path d="M25.25 14.9565C26.0912 16.6315 26.3159 17.6129 26 19.437C25.835 19.437 25.67 19.437 25.5 19.437C25.4175 17.9584 25.335 16.4799 25.25 14.9565Z" fill="#09A6C5"/>
<path d="M40.25 25.6599C40.4975 25.7421 40.745 25.8242 41 25.9088C40.5998 26.1952 40.1985 26.4801 39.7969 26.7645C39.4619 27.0027 39.4619 27.0027 39.1201 27.2458C38.5 27.6512 38.5 27.6512 37.75 27.9001C38.0071 27.1323 38.1182 26.8839 38.75 26.4067C39.5469 26.2355 39.5469 26.2355 40.25 26.1577C40.25 25.9935 40.25 25.8292 40.25 25.6599Z" fill="#1AACBE"/>
<path d="M25.25 16.2012C25.3325 16.2012 25.415 16.2012 25.5 16.2012C25.5 17.269 25.5 18.3369 25.5 19.4371C25.9125 19.3549 26.325 19.2728 26.75 19.1881C26.5025 19.4346 26.255 19.681 26 19.9349C25.7525 19.8527 25.505 19.7706 25.25 19.686C25.25 18.536 25.25 17.386 25.25 16.2012Z" fill="#3FBCCE"/>
<path d="M31.5 6.49341C32.6086 6.84033 33.2184 7.39095 34 8.23581C33.7525 8.31795 33.505 8.40009 33.25 8.48472C33.1005 8.3307 32.9509 8.17669 32.7969 8.01801C32.248 7.45502 32.248 7.45502 31.5 6.99124C31.5 6.82695 31.5 6.66267 31.5 6.49341Z" fill="#18ADB8"/>
<path d="M30.25 29.6425C30.25 29.7247 30.25 29.8068 30.25 29.8914C29.8375 29.9736 29.425 30.0557 29 30.1404C29 30.2225 29 30.3046 29 30.3893C28.2812 30.5448 28.2812 30.5448 27.5 30.6382C27.335 30.4739 27.17 30.3096 27 30.1404C28.1241 29.5807 29.0197 29.601 30.25 29.6425Z" fill="#4DBED0"/>
<path d="M32.5 26.6555C32.665 26.9019 32.83 27.1484 33 27.4023C32.835 27.5665 32.67 27.7308 32.5 27.9001C32.17 27.9001 31.84 27.9001 31.5 27.9001C31.5 27.6537 31.5 27.4072 31.5 27.1533C31.83 26.9891 32.16 26.8248 32.5 26.6555Z" fill="#F4FEF6"/>
<path d="M35.25 10.9739C35.4975 11.056 35.745 11.1382 36 11.2228C35.835 11.7156 35.67 12.2085 35.5 12.7163C35.335 12.552 35.17 12.3877 35 12.2184C35.0938 11.565 35.0938 11.565 35.25 10.9739Z" fill="#0AABC5"/>
</g>
<defs>
<clipPath id="clip0_711_2750">
<rect width="64" height="55.01" fill="white" transform="translate(0 5)"/>
</clipPath>
</defs>
</svg>
