<svg width="151" height="41" viewBox="0 0 151 41" fill="none" xmlns="http://www.w3.org/2000/svg">
<g clip-path="url(#clip0_9139_81186)">
<path d="M18.1981 23.7673C20.9136 22.1894 22.739 19.243 22.739 15.8681V11.9966C22.739 5.7331 17.675 0.654297 11.4269 0.654297C5.17873 0.654297 0.112305 5.7331 0.112305 11.9966V16.1453H7.00917V16.415C6.1719 16.6242 5.37988 16.9494 4.65323 17.3753C1.93773 18.9532 0.112305 21.8996 0.112305 25.2745V29.1461C0.112305 35.4095 5.17621 40.4883 11.4244 40.4883C17.6726 40.4883 22.739 35.4095 22.739 29.1461V24.9974H15.8421V24.7277C16.6793 24.5184 17.4714 24.1932 18.1981 23.7673ZM13.6345 30.5298C13.6345 31.7522 12.6464 32.7428 11.4269 32.7428C10.2074 32.7428 9.21929 31.7522 9.21929 30.5298V10.6128C9.21929 9.39036 10.2074 8.39981 11.4269 8.39981C12.6464 8.39981 13.6345 9.39036 13.6345 10.6128V30.5298Z" fill="#0A0A0A"/>
<path d="M36.5782 11.9951H33.2261V29.1355H43.0652V25.904H36.5787L36.5782 11.9951Z" fill="#0A0A0A"/>
<path d="M53.8009 18.3386C53.3278 17.7463 52.7225 17.2756 52.0341 16.965C51.3456 16.6542 50.5941 16.5126 49.8407 16.5511C49.0538 16.5448 48.2746 16.7089 47.5557 17.0323C46.8368 17.3557 46.1952 17.8306 45.6742 18.4251C44.5553 19.6887 43.937 21.3229 43.937 23.0165C43.937 24.7099 44.5553 26.3443 45.6742 27.6078C46.1954 28.2022 46.8371 28.6767 47.5559 28.9999C48.2748 29.323 49.0538 29.4872 49.8407 29.4809C51.5415 29.4809 52.8614 28.885 53.8009 27.6933V29.1383H56.9349V16.8952H53.8009V18.3386ZM52.8415 25.5015C52.5256 25.8203 52.148 26.0706 51.7321 26.2369C51.3161 26.4032 50.8711 26.4819 50.4241 26.4686C49.9788 26.4829 49.5349 26.4045 49.1212 26.2382C48.7073 26.0717 48.3319 25.821 48.0183 25.5016C47.4084 24.82 47.0706 23.9341 47.0706 23.016C47.0706 22.0978 47.4084 21.2123 48.0183 20.5302C48.3319 20.2112 48.7073 19.9605 49.1212 19.7942C49.5349 19.6279 49.9785 19.5493 50.4239 19.5637C50.8709 19.5502 51.316 19.6291 51.7316 19.7956C52.1471 19.9619 52.5248 20.2118 52.841 20.5305C53.4581 21.209 53.8004 22.0956 53.8004 23.0161C53.8004 23.9366 53.4581 24.8234 52.841 25.5019L52.8415 25.5015Z" fill="#0A0A0A"/>
<path d="M65.0102 25.1234L61.8417 16.8945H58.416L63.395 28.7465C63.1866 29.4537 62.7768 30.0838 62.2165 30.5585C61.6279 30.961 60.9214 31.151 60.2118 31.0976V34.0365C61.5953 34.1656 62.9781 33.7867 64.1065 32.9702C65.1488 32.1774 65.9864 30.907 66.6184 29.1591L71.0472 16.8958H67.6942L65.0102 25.1239V25.1234Z" fill="#0A0A0A"/>
<path d="M77.8294 16.5497C76.9751 16.5195 76.124 16.6682 75.329 16.9865C74.5346 17.3048 73.8145 17.7858 73.2141 18.3991C72.054 19.6555 71.4116 21.3093 71.4155 23.0255C71.4203 24.7416 72.0715 26.3921 73.2376 27.6424C74.4526 28.8665 76.0641 29.4786 78.0726 29.4789C80.4042 29.4789 82.1695 28.6059 83.3689 26.8593L80.842 25.3896C80.5207 25.8006 80.1055 26.1267 79.631 26.3398C79.1573 26.5531 78.639 26.6472 78.1206 26.6138C76.2576 26.6138 75.1159 25.8465 74.6953 24.3126H83.8545C83.9325 23.8842 83.9732 23.4497 83.9757 23.014C84.0217 21.3088 83.3977 19.654 82.239 18.4107C81.6774 17.8019 80.9938 17.3212 80.2335 17.0001C79.473 16.6793 78.6534 16.5258 77.8294 16.5497ZM74.6473 21.8635C74.7856 21.1441 75.173 20.4977 75.7396 20.0386C76.3428 19.5894 77.0799 19.3606 77.8287 19.3898C78.5139 19.3808 79.1831 19.5957 79.7368 20.0024C80.3249 20.4593 80.7199 21.1239 80.8421 21.8626L74.6473 21.8635Z" fill="#0A0A0A"/>
<path d="M89.2965 18.9981V16.8918H86.1626V29.1352H89.2965V23.2831C89.2965 22.1077 89.6732 21.2668 90.4262 20.7606C91.1805 20.2544 92.0925 20.0452 92.9897 20.173V16.6478C92.2021 16.6377 91.4257 16.8406 90.7421 17.2356C90.0672 17.6303 89.554 18.2557 89.2965 18.9981Z" fill="#0A0A0A"/>
<path d="M108.27 14.6469V11.9961H97.1223V15.2286H104.022L96.9429 26.4373V29.1362H108.405V25.9047H101.189L108.27 14.6469Z" fill="#0A0A0A"/>
<path d="M115.804 16.5497C114.949 16.5195 114.097 16.6682 113.303 16.9865C112.508 17.3048 111.788 17.7858 111.187 18.3991C110.027 19.6555 109.385 21.3094 109.389 23.0256C109.394 24.7418 110.045 26.3923 111.212 27.6424C112.427 28.8665 114.038 29.4786 116.046 29.4789C118.378 29.4789 120.143 28.6059 121.342 26.8593L118.815 25.3896C118.494 25.8006 118.079 26.1267 117.605 26.3398C117.131 26.5531 116.613 26.6472 116.095 26.6138C114.232 26.6138 113.09 25.8465 112.67 24.3126H121.829C121.907 23.8842 121.948 23.4497 121.95 23.014C121.996 21.3088 121.372 19.654 120.213 18.4107C119.652 17.8019 118.968 17.3212 118.208 17.0001C117.447 16.6793 116.627 16.5258 115.804 16.5497ZM112.621 21.8635C112.76 21.1438 113.147 20.4973 113.715 20.0386C114.318 19.5893 115.054 19.3604 115.804 19.3898C116.489 19.3805 117.158 19.5956 117.711 20.0024C118.3 20.459 118.694 21.1239 118.816 21.8626L112.621 21.8635Z" fill="#0A0A0A"/>
<path d="M127.27 18.9981V16.8918H124.136V29.1352H127.27V23.2831C127.27 22.1077 127.647 21.2668 128.4 20.7606C129.154 20.2544 130.066 20.0452 130.963 20.173V16.6478C130.175 16.6377 129.399 16.8409 128.716 17.2356C128.041 17.6303 127.528 18.2557 127.27 18.9981H127.27Z" fill="#0A0A0A"/>
<path d="M138.108 16.5466C136.638 16.563 135.219 17.0918 134.091 18.0432C132.963 18.9947 132.197 20.3103 131.922 21.7665C131.648 23.2226 131.882 24.7297 132.585 26.0317C133.288 27.3335 134.416 28.3504 135.778 28.9091C137.14 29.4679 138.652 29.5342 140.057 29.0971C141.463 28.6598 142.674 27.7459 143.487 26.5104C144.299 25.2749 144.662 23.7942 144.515 22.3195C144.367 20.8449 143.717 19.4671 142.676 18.4203C142.083 17.8093 141.37 17.3277 140.585 17.0056C139.799 16.6832 138.956 16.5269 138.108 16.5466ZM140.465 25.4354C140.157 25.7481 139.79 25.9939 139.384 26.1581C138.979 26.322 138.545 26.4007 138.108 26.3891C137.673 26.4017 137.24 26.3234 136.837 26.1592C136.433 25.9952 136.067 25.7488 135.763 25.4354C135.161 24.7735 134.827 23.9084 134.827 23.0108C134.827 22.1134 135.161 21.2485 135.763 20.5868C136.067 20.2734 136.433 20.0271 136.837 19.8628C137.24 19.6986 137.673 19.6203 138.108 19.6327C138.545 19.6211 138.979 19.7 139.384 19.8638C139.79 20.0279 140.157 20.2736 140.465 20.5864C141.074 21.2444 141.413 22.1109 141.413 23.0107C141.413 23.9104 141.074 24.7773 140.465 25.4354Z" fill="#0A0A0A"/>
<path d="M150.888 25.5537H147.305V29.1467H150.888V25.5537Z" fill="#0A0A0A"/>
</g>
<defs>
<clipPath id="clip0_9139_81186">
<rect width="151" height="40" fill="white" transform="translate(0 0.571289)"/>
</clipPath>
</defs>
</svg>
