<svg width="111" height="24" viewBox="0 0 111 24" fill="none" xmlns="http://www.w3.org/2000/svg">
<path fill-rule="evenodd" clip-rule="evenodd" d="M21.2617 21.6958C21.2617 22.502 21.2617 22.9061 21.418 23.214C21.5557 23.4849 21.7758 23.7049 22.0458 23.8436C22.3537 24.0008 22.7559 24.0008 23.5612 23.9999L31.4461 23.9971C33.4469 23.9971 34.4473 23.9962 35.2683 23.7761C37.5012 23.177 39.245 21.4286 39.8423 19.191C40.0623 18.3681 40.0623 17.3659 40.0623 15.3604C40.0623 12.9601 37.9071 13.2005 37.9071 11.9403C37.9071 10.6801 39.7036 10.9205 39.7036 8.6404C39.7036 6.63216 39.7036 5.62712 39.4835 4.8033C38.8853 2.56762 37.1425 0.821046 34.9105 0.22098C34.0885 -2.20442e-08 33.0863 0 31.0809 0H23.5602C22.7559 0 22.3527 -1.10221e-08 22.0458 0.157182C21.7758 0.294948 21.5557 0.515927 21.418 0.786836C21.2617 1.09473 21.2617 1.49785 21.2617 2.30411V21.6948V21.6958Z" fill="#1E1E1E"/>
<path d="M47.7273 15.2422H59.2236V19.0821H47.7273V15.2422Z" fill="#1E1E1E"/>
<path d="M2.96503 23.7623C2.16064 23.7623 1.75752 23.7623 1.45056 23.6051C1.18058 23.4674 0.960523 23.2464 0.822759 22.9755C0.666504 22.6676 0.666504 22.2644 0.666504 21.4582V0.244141H4.35376C5.15816 0.244141 5.56128 0.244141 5.86824 0.401323C6.13822 0.539088 6.35827 0.760068 6.49604 1.03098C6.65229 1.33887 6.65229 1.74199 6.65229 2.54825V17.0913C6.65229 17.4944 6.65229 17.696 6.73088 17.8504C6.80023 17.9863 6.90933 18.0963 7.04524 18.1648C7.19872 18.2434 7.40029 18.2434 7.80248 18.2434H16.3928C17.1972 18.2434 17.6004 18.2434 17.9073 18.4005C18.1773 18.5383 18.3973 18.7593 18.5351 19.0302C18.6914 19.3381 18.6914 19.7412 18.6914 20.5475V23.7632H2.96503V23.7623Z" fill="#1E1E1E"/>
<path d="M48.2966 1.73185C48.4787 1.15398 48.5703 0.865502 48.745 0.650994C48.8994 0.462376 49.0991 0.315364 49.3247 0.225678C49.5808 0.123047 49.8832 0.123047 50.4878 0.123047H55.2634C55.868 0.123047 56.1704 0.123047 56.4265 0.225678C56.653 0.316289 56.8527 0.462376 57.0062 0.650994C57.1809 0.864577 57.2725 1.15398 57.4546 1.73093L64.4177 23.7614H60.0795C59.4758 23.7614 59.1744 23.7614 58.9182 23.6597C58.6926 23.57 58.4929 23.4239 58.3385 23.2353C58.1638 23.0217 58.0723 22.7342 57.8883 22.1581L52.8733 6.42236L47.8602 22.1581C47.6771 22.7342 47.5846 23.0217 47.4099 23.2353C47.2555 23.4239 47.0567 23.5691 46.8302 23.6597C46.5741 23.7614 46.2726 23.7614 45.6689 23.7614H41.3335L48.2929 1.73093L48.2966 1.73185Z" fill="#1E1E1E"/>
<path d="M66.2881 2.54629C66.2881 1.74004 66.2881 1.33692 66.4443 1.02902C66.5821 0.758115 66.8022 0.53806 67.0721 0.39937C67.38 0.242188 67.7822 0.242188 68.5866 0.242188H70.703C71.1884 0.242188 71.4306 0.242188 71.6488 0.313382C71.8412 0.376255 72.0178 0.478885 72.1675 0.614802C72.3367 0.768286 72.4579 0.979095 72.6992 1.40164L80.0598 14.2823V2.54629C80.0598 1.74004 80.0598 1.33692 80.2161 1.02902C80.3539 0.758115 80.5739 0.53806 80.8439 0.39937C81.1518 0.242188 81.554 0.242188 82.3584 0.242188H85.8071V21.4535C85.8071 22.2588 85.8071 22.6619 85.6508 22.9698C85.5131 23.2407 85.2939 23.4608 85.023 23.5995C84.7161 23.7566 84.3139 23.7566 83.5104 23.7576L81.394 23.7594C80.9077 23.7594 80.6654 23.7594 80.4472 23.6891C80.2549 23.6263 80.0774 23.5236 79.9276 23.3877C79.7584 23.2342 79.6373 23.0225 79.396 22.6L72.0363 9.7212V21.4572C72.0363 22.2634 72.0363 22.6665 71.8791 22.9744C71.7413 23.2453 71.5213 23.4654 71.2513 23.6041C70.9434 23.7613 70.5421 23.7613 69.7368 23.7613H66.2881V2.54629Z" fill="#1E1E1E"/>
<path d="M88.5617 0.244141H92.0104C92.8157 0.244141 93.2179 0.244141 93.5249 0.401323C93.7958 0.539088 94.0149 0.760068 94.1527 1.03098C94.309 1.33887 94.309 1.74199 94.309 2.54825V9.60388H95.2761C95.6764 9.60388 95.8771 9.60388 96.0629 9.55303C96.2266 9.50865 96.3819 9.43468 96.5206 9.33574C96.6768 9.22387 96.8035 9.06853 97.0568 8.75787L103.312 1.09015C103.565 0.779485 103.692 0.624152 103.848 0.512275C103.987 0.413343 104.141 0.339375 104.306 0.294994C104.491 0.244141 104.691 0.244141 105.092 0.244141H110.472L102.197 10.4305C101.776 10.9482 101.565 11.2081 101.484 11.4956C101.413 11.7499 101.413 12.0189 101.484 12.2723C101.564 12.5608 101.775 12.8196 102.195 13.3383L110.655 23.7632H105.216C104.814 23.7632 104.613 23.7632 104.427 23.7124C104.262 23.6671 104.106 23.5931 103.968 23.4932C103.812 23.3804 103.684 23.2242 103.431 22.9117L97.0346 15.0156C96.7813 14.7021 96.6546 14.5459 96.4975 14.434C96.3588 14.3341 96.2034 14.2602 96.0389 14.2149C95.853 14.164 95.6515 14.164 95.2493 14.164H94.308V23.7577H90.8593C90.054 23.7577 89.6518 23.7577 89.3448 23.6005C89.0749 23.4627 88.8548 23.2417 88.717 22.9708C88.5608 22.6629 88.5608 22.2598 88.5608 21.4536V0.244141H88.5617Z" fill="#1E1E1E"/>
<path d="M32.8227 5.75904C32.8227 7.61934 30.6323 8.51897 30.6323 11.9992C30.6323 15.4794 32.8227 16.379 32.8227 18.2393C32.8227 19.8296 31.5338 21.1194 29.9426 21.1194C28.3514 21.1194 27.0625 19.8296 27.0625 18.2393C27.0625 16.379 29.312 15.4794 29.312 11.9992C29.312 8.51897 27.0625 7.61934 27.0625 5.75904C27.0625 4.22882 28.3523 2.87891 29.9426 2.87891C31.5329 2.87891 32.8227 4.1678 32.8227 5.75904Z" fill="#FFD900"/>
</svg>
