<svg width="166" height="29" viewBox="0 0 166 29" fill="none" xmlns="http://www.w3.org/2000/svg">
<g clip-path="url(#clip0_9139_80906)">
<path d="M31.9936 12.7421V8.75156H29.9607V6.78956H27.9944V4.79431H25.9615V2.79906H21.9956V0.737305H11.9976V2.73255H7.99839V4.7278H5.9988V6.72305H3.9992V8.68505H1.9996V12.6755H0V16.666V20.6898H1.96627V22.6518H5.96547V24.647H7.96507V26.6423H11.9643V28.6375H21.9623V26.6423H25.9281V24.6803H27.9277V22.685H31.9269V20.7231H33.8932V16.7326V12.7088H31.9269L31.9936 12.7421Z" fill="#8F5337"/>
<path d="M44.2911 23.0176H42.2915V25.0128H44.2911V23.0176Z" fill="#757676"/>
<path d="M62.421 23.0176H60.4214V25.0128H62.421V23.0176Z" fill="#67B740"/>
<path d="M78.3512 23.0176H76.3516V25.0128H78.3512V23.0176Z" fill="#3B86C7"/>
<path d="M96.9806 23.0176H94.981V25.0128H96.9806V23.0176Z" fill="#864E9B"/>
<path d="M110.245 23.0176H108.245V25.0128H110.245V23.0176Z" fill="#E29E2F"/>
<path d="M123.542 23.0176H121.542V25.0128H123.542V23.0176Z" fill="#CE3B8E"/>
<path d="M142.105 23.0176H140.105V25.0128H142.105V23.0176Z" fill="#3B86C7"/>
<path d="M158.035 23.0176H156.035V25.0128H158.035V23.0176Z" fill="#E29E2F"/>
<path d="M44.2911 4.42871H42.2915V6.42396H44.2911V4.42871Z" fill="black"/>
<path d="M44.2911 7.12207H42.2915V9.11732H44.2911V7.12207Z" fill="black"/>
<path d="M44.2911 9.78223H42.2915V11.7775H44.2911V9.78223Z" fill="black"/>
<path d="M44.2911 12.4434H42.2915V14.4386H44.2911V12.4434Z" fill="black"/>
<path d="M44.2911 15.1035H42.2915V17.0988H44.2911V15.1035Z" fill="black"/>
<path d="M44.2911 17.7305H42.2915V19.7257H44.2911V17.7305Z" fill="black"/>
<path d="M44.2911 20.3906H42.2915V22.3859H44.2911V20.3906Z" fill="black"/>
<path d="M46.9571 23.0176H44.9575V25.0128H46.9571V23.0176Z" fill="black"/>
<path d="M49.5899 23.0176H47.5903V25.0128H49.5899V23.0176Z" fill="black"/>
<path d="M52.2559 23.0176H50.2563V25.0128H52.2559V23.0176Z" fill="black"/>
<path d="M54.8888 23.0176H52.8892V25.0128H54.8888V23.0176Z" fill="black"/>
<path d="M59.7545 7.12207H57.7549V9.11732H59.7545V7.12207Z" fill="black"/>
<path d="M59.7545 9.78223H57.7549V11.7775H59.7545V9.78223Z" fill="black"/>
<path d="M59.7545 12.4434H57.7549V14.4386H59.7545V12.4434Z" fill="black"/>
<path d="M59.7545 15.1035H57.7549V17.0988H59.7545V15.1035Z" fill="black"/>
<path d="M59.7545 17.7305H57.7549V19.7257H59.7545V17.7305Z" fill="black"/>
<path d="M59.7545 20.3906H57.7549V22.3859H59.7545V20.3906Z" fill="black"/>
<path d="M62.421 4.42871H60.4214V6.42396H62.421V4.42871Z" fill="black"/>
<path d="M65.087 4.42871H63.0874V6.42396H65.087V4.42871Z" fill="black"/>
<path d="M67.753 4.42871H65.7534V6.42396H67.753V4.42871Z" fill="black"/>
<path d="M70.419 7.12207H68.4194V9.11732H70.419V7.12207Z" fill="black"/>
<path d="M70.419 9.78223H68.4194V11.7775H70.419V9.78223Z" fill="black"/>
<path d="M70.419 12.4434H68.4194V14.4386H70.419V12.4434Z" fill="black"/>
<path d="M70.419 15.1035H68.4194V17.0988H70.419V15.1035Z" fill="black"/>
<path d="M70.419 17.7305H68.4194V19.7257H70.419V17.7305Z" fill="black"/>
<path d="M70.419 20.3906H68.4194V22.3859H70.419V20.3906Z" fill="black"/>
<path d="M65.087 23.0176H63.0874V25.0128H65.087V23.0176Z" fill="black"/>
<path d="M67.753 23.0176H65.7534V25.0128H67.753V23.0176Z" fill="black"/>
<path d="M75.7183 7.12207H73.7188V9.11732H75.7183V7.12207Z" fill="black"/>
<path d="M75.7183 9.78223H73.7188V11.7775H75.7183V9.78223Z" fill="black"/>
<path d="M75.7183 12.4434H73.7188V14.4386H75.7183V12.4434Z" fill="black"/>
<path d="M75.7183 15.1035H73.7188V17.0988H75.7183V15.1035Z" fill="black"/>
<path d="M75.7183 17.7305H73.7188V19.7257H75.7183V17.7305Z" fill="black"/>
<path d="M75.7183 20.3906H73.7188V22.3859H75.7183V20.3906Z" fill="black"/>
<path d="M78.3512 4.42871H76.3516V6.42396H78.3512V4.42871Z" fill="black"/>
<path d="M80.984 4.42871H78.9844V6.42396H80.984V4.42871Z" fill="black"/>
<path d="M83.65 4.42871H81.6504V6.42396H83.65V4.42871Z" fill="black"/>
<path d="M86.3492 7.12207H84.3496V9.11732H86.3492V7.12207Z" fill="black"/>
<path d="M86.3492 9.78223H84.3496V11.7775H86.3492V9.78223Z" fill="black"/>
<path d="M86.3492 12.4434H84.3496V14.4386H86.3492V12.4434Z" fill="black"/>
<path d="M86.3492 15.1035H84.3496V17.0988H86.3492V15.1035Z" fill="black"/>
<path d="M86.3492 17.7305H84.3496V19.7257H86.3492V17.7305Z" fill="black"/>
<path d="M86.3492 20.3906H84.3496V22.3859H86.3492V20.3906Z" fill="black"/>
<path d="M80.984 23.0176H78.9844V25.0128H80.984V23.0176Z" fill="black"/>
<path d="M83.65 23.0176H81.6504V25.0128H83.65V23.0176Z" fill="black"/>
<path d="M91.648 4.42871H89.6484V6.42396H91.648V4.42871Z" fill="black"/>
<path d="M94.3145 4.42871H92.3149V6.42396H94.3145V4.42871Z" fill="black"/>
<path d="M96.9806 4.42871H94.981V6.42396H96.9806V4.42871Z" fill="black"/>
<path d="M96.9806 7.12207H94.981V9.11732H96.9806V7.12207Z" fill="black"/>
<path d="M96.9806 9.78223H94.981V11.7775H96.9806V9.78223Z" fill="black"/>
<path d="M96.9806 12.4434H94.981V14.4386H96.9806V12.4434Z" fill="black"/>
<path d="M96.9806 15.1035H94.981V17.0988H96.9806V15.1035Z" fill="black"/>
<path d="M96.9806 17.7305H94.981V19.7257H96.9806V17.7305Z" fill="black"/>
<path d="M96.9806 20.3906H94.981V22.3859H96.9806V20.3906Z" fill="black"/>
<path d="M99.6134 4.42871H97.6138V6.42396H99.6134V4.42871Z" fill="black"/>
<path d="M102.246 4.42871H100.247V6.42396H102.246V4.42871Z" fill="black"/>
<path d="M107.578 17.7305H105.579V19.7257H107.578V17.7305Z" fill="black"/>
<path d="M107.578 20.3906H105.579V22.3859H107.578V20.3906Z" fill="black"/>
<path d="M110.245 12.4434H108.245V14.4386H110.245V12.4434Z" fill="black"/>
<path d="M110.245 17.7305H108.245V19.7257H110.245V17.7305Z" fill="black"/>
<path d="M112.911 17.7305H110.911V19.7257H112.911V17.7305Z" fill="black"/>
<path d="M112.911 12.4434H110.911V14.4386H112.911V12.4434Z" fill="black"/>
<path d="M115.544 15.1035H113.544V17.0988H115.544V15.1035Z" fill="black"/>
<path d="M115.544 17.7305H113.544V19.7257H115.544V17.7305Z" fill="black"/>
<path d="M115.544 20.3906H113.544V22.3859H115.544V20.3906Z" fill="black"/>
<path d="M112.911 23.0176H110.911V25.0128H112.911V23.0176Z" fill="black"/>
<path d="M118.21 23.0176H116.21V25.0128H118.21V23.0176Z" fill="black"/>
<path d="M123.542 4.42871H121.542V6.42396H123.542V4.42871Z" fill="black"/>
<path d="M123.542 7.12207H121.542V9.11732H123.542V7.12207Z" fill="black"/>
<path d="M123.542 9.78223H121.542V11.7775H123.542V9.78223Z" fill="black"/>
<path d="M123.542 12.4434H121.542V14.4386H123.542V12.4434Z" fill="black"/>
<path d="M123.542 15.1035H121.542V17.0988H123.542V15.1035Z" fill="black"/>
<path d="M123.542 17.7305H121.542V19.7257H123.542V17.7305Z" fill="black"/>
<path d="M123.542 20.3906H121.542V22.3859H123.542V20.3906Z" fill="black"/>
<path d="M126.141 4.42871H124.142V6.42396H126.141V4.42871Z" fill="black"/>
<path d="M128.808 4.42871H126.808V6.42396H128.808V4.42871Z" fill="black"/>
<path d="M131.474 7.12207H129.474V9.11732H131.474V7.12207Z" fill="black"/>
<path d="M131.474 20.3906H129.474V22.3859H131.474V20.3906Z" fill="black"/>
<path d="M134.14 9.78223H132.14V11.7775H134.14V9.78223Z" fill="black"/>
<path d="M134.14 12.4434H132.14V14.4386H134.14V12.4434Z" fill="black"/>
<path d="M134.14 15.1035H132.14V17.0988H134.14V15.1035Z" fill="black"/>
<path d="M134.14 17.7305H132.14V19.7257H134.14V17.7305Z" fill="black"/>
<path d="M126.141 23.0176H124.142V25.0128H126.141V23.0176Z" fill="black"/>
<path d="M128.808 23.0176H126.808V25.0128H128.808V23.0176Z" fill="black"/>
<path d="M139.439 7.12207H137.439V9.11732H139.439V7.12207Z" fill="black"/>
<path d="M139.439 9.78223H137.439V11.7775H139.439V9.78223Z" fill="black"/>
<path d="M139.439 12.4434H137.439V14.4386H139.439V12.4434Z" fill="black"/>
<path d="M139.439 15.1035H137.439V17.0988H139.439V15.1035Z" fill="black"/>
<path d="M139.439 17.7305H137.439V19.7257H139.439V17.7305Z" fill="black"/>
<path d="M139.439 20.3906H137.439V22.3859H139.439V20.3906Z" fill="black"/>
<path d="M142.105 4.42871H140.105V6.42396H142.105V4.42871Z" fill="black"/>
<path d="M144.771 4.42871H142.771V6.42396H144.771V4.42871Z" fill="black"/>
<path d="M147.437 4.42871H145.438V6.42396H147.437V4.42871Z" fill="black"/>
<path d="M150.07 7.12207H148.07V9.11732H150.07V7.12207Z" fill="black"/>
<path d="M150.07 9.78223H148.07V11.7775H150.07V9.78223Z" fill="black"/>
<path d="M150.07 12.4434H148.07V14.4386H150.07V12.4434Z" fill="black"/>
<path d="M150.07 15.1035H148.07V17.0988H150.07V15.1035Z" fill="black"/>
<path d="M150.07 17.7305H148.07V19.7257H150.07V17.7305Z" fill="black"/>
<path d="M150.07 20.3906H148.07V22.3859H150.07V20.3906Z" fill="black"/>
<path d="M144.771 23.0176H142.771V25.0128H144.771V23.0176Z" fill="black"/>
<path d="M147.437 23.0176H145.438V25.0128H147.437V23.0176Z" fill="black"/>
<path d="M155.369 7.12207H153.369V9.11732H155.369V7.12207Z" fill="black"/>
<path d="M155.369 9.78223H153.369V11.7775H155.369V9.78223Z" fill="black"/>
<path d="M155.369 12.4434H153.369V14.4386H155.369V12.4434Z" fill="black"/>
<path d="M155.369 15.1035H153.369V17.0988H155.369V15.1035Z" fill="black"/>
<path d="M155.369 17.7305H153.369V19.7257H155.369V17.7305Z" fill="black"/>
<path d="M155.369 20.3906H153.369V22.3859H155.369V20.3906Z" fill="black"/>
<path d="M158.035 4.42871H156.035V6.42396H158.035V4.42871Z" fill="black"/>
<path d="M160.668 4.42871H158.668V6.42396H160.668V4.42871Z" fill="black"/>
<path d="M160.668 15.1035H158.668V17.0988H160.668V15.1035Z" fill="black"/>
<path d="M163.334 4.42871H161.334V6.42396H163.334V4.42871Z" fill="black"/>
<path d="M163.334 15.1035H161.334V17.0988H163.334V15.1035Z" fill="black"/>
<path d="M166 7.12207H164V9.11732H166V7.12207Z" fill="black"/>
<path d="M166 9.78223H164V11.7775H166V9.78223Z" fill="black"/>
<path d="M166 15.1035H164V17.0988H166V15.1035Z" fill="black"/>
<path d="M166 17.7305H164V19.7257H166V17.7305Z" fill="black"/>
<path d="M166 20.3906H164V22.3859H166V20.3906Z" fill="black"/>
<path d="M160.668 23.0176H158.668V25.0128H160.668V23.0176Z" fill="black"/>
<path d="M163.334 23.0176H161.334V25.0128H163.334V23.0176Z" fill="black"/>
<path d="M23.9618 4.76087H21.9956V2.76562H11.9976V4.79413H21.9956V6.75612H25.9614V4.76087H23.9618Z" fill="#AA6F54"/>
<path d="M29.9606 12.7425V8.75203H27.9944V6.79004H25.9614V8.81854H27.961V12.809H29.9606V14.8043H31.9935V12.7758H29.9606V12.7425Z" fill="#AA6F54"/>
<path d="M17.9631 22.752H15.9302V24.7805H17.9631V22.752Z" fill="#E11C1C"/>
<path d="M3.96591 16.7658V14.7705H1.96631V16.7325V20.7563H5.99883V18.7278H3.96591V16.7658Z" fill="#733C22"/>
<path d="M13.9636 18.7278V16.7325H11.964V14.7705H9.93112V16.7325V18.7278H7.96484V20.7563H9.99777V18.7278H13.9636Z" fill="#733C22"/>
<path d="M23.9954 16.7658V14.7705H21.9958V16.7325H19.9629V18.7278H23.9621V20.7563H25.9617V18.7278H23.9954V16.7658Z" fill="#733C22"/>
<path d="M27.9944 18.7278V16.7658V14.7705H25.9614V16.7325V18.7278H27.961V20.7563H29.9606V18.7278H27.9944Z" fill="#733C22"/>
<path d="M9.99777 22.752H7.96484V24.7805H9.99777V22.752Z" fill="#733C22"/>
<path d="M25.9948 22.752H23.9619V24.7805H25.9948V22.752Z" fill="#733C22"/>
<path d="M13.964 24.7139H11.9644V26.7424H17.9632V24.7139H13.964Z" fill="#733C22"/>
<path d="M19.9626 0.737305H11.9976V2.73255H21.9956V0.737305H19.9626Z" fill="black"/>
<path d="M9.93134 2.76578H7.96507V4.76103H5.96547V6.75628H3.96587V8.71827H1.96627V12.7088H0V16.6993V20.723H1.96627V22.685H5.96547V24.6803H7.96507V26.6755H11.9643V24.647H7.96507V18.6613H5.96547V20.6233H1.9996V16.666V12.6755H3.96587V8.68502H5.99879V6.65651H7.96507V4.69452H11.9643V2.66602H9.93134V2.76578Z" fill="black"/>
<path d="M23.9619 2.76562H21.9956V4.79413H25.9615V2.76562H23.9619Z" fill="black"/>
<path d="M31.9935 12.7427V8.75217H29.9606V6.79017H27.9944V4.79492H25.9614V6.79017H27.961V8.81867H29.9606V12.8092H31.9269V16.7997V20.7902H27.9944V18.8282H25.9614V24.8472H27.9944V22.8519H31.9935V20.8899H33.9598V16.8994V12.8757H31.9935V12.7427Z" fill="black"/>
<path d="M13.9973 14.7705H11.9644V16.799H13.9973V14.7705Z" fill="black"/>
<path d="M21.9958 14.7705H19.9629V16.799H21.9958V14.7705Z" fill="black"/>
<path d="M23.9619 16.7325V18.7278H25.9615V16.7658V14.7705H23.9619V16.7325Z" fill="black"/>
<path d="M9.99777 16.7658V14.7705H7.96484V16.7325V18.7278H9.99777V16.7658Z" fill="black"/>
<path d="M19.9627 20.757V18.7285H13.9639V20.757H15.9635V22.719H17.9631V24.7143H19.9627V22.719H17.9964V20.757H19.9627Z" fill="black"/>
<path d="M15.9636 22.752H13.9307V24.7805H15.9636V22.752Z" fill="black"/>
<path d="M23.9952 26.7424H25.9615V24.7139H21.9956V26.7424H23.9952Z" fill="black"/>
<path d="M13.9638 28.7374H21.9956V26.7422H11.9976V28.7374H13.9638Z" fill="black"/>
</g>
<defs>
<clipPath id="clip0_9139_80906">
<rect width="166" height="28" fill="white" transform="translate(0 0.571289)"/>
</clipPath>
</defs>
</svg>
