<svg width="200" height="40" viewBox="0 0 200 40" fill="none" xmlns="http://www.w3.org/2000/svg">
<mask id="mask0_9135_76049" style="mask-type:luminance" maskUnits="userSpaceOnUse" x="0" y="0" width="200" height="40">
<path d="M200 0H0V40H200V0Z" fill="white"/>
</mask>
<g mask="url(#mask0_9135_76049)">
<path d="M3.05984 32.8301C2.11253 30.475 1.62399 27.9606 1.62051 25.4221C1.62051 13.0488 13.1798 3.01745 27.4325 3.01745C30.8256 3.01176 34.1939 3.59555 37.3872 4.74279C33.4621 2.1609 28.8639 0.791324 24.1658 0.804786C11.2625 0.804786 0.805176 10.8368 0.805176 23.2048C0.80447 26.5425 1.57616 29.835 3.05984 32.8248V32.8301Z" fill="url(#paint0_linear_9135_76049)"/>
<path d="M27.3737 34.4533C26.1362 34.5399 24.8942 34.3666 23.7277 33.9446C21.9037 33.1406 21.749 31.8253 21.749 30.3886V24.6973H24.1997V30.2866C24.1997 30.9606 24.143 31.9253 24.8324 32.4373C25.5157 32.9313 26.8564 32.9959 27.733 32.9959H30.533V34.4533H27.3737Z" fill="url(#paint1_linear_9135_76049)"/>
<path d="M50.8996 32.8053C49.957 34.2113 47.439 34.5766 45.4996 34.5766C43.6243 34.5766 41.633 34.2279 40.591 32.9659C40.081 32.2637 39.8488 31.3977 39.939 30.5346V24.6979H42.3876V30.5199C42.3555 31.0265 42.4453 31.5333 42.6496 31.9979C43.1443 32.8726 44.4876 33.1566 45.6603 33.1566C46.495 33.191 47.3253 33.019 48.0776 32.6559C49.011 32.1439 48.9543 31.2193 48.9543 30.4466V24.6973H51.3863V30.4039C51.4513 31.2341 51.2827 32.0659 50.8996 32.8053Z" fill="url(#paint2_linear_9135_76049)"/>
<path d="M70.2443 34.4533L64.0377 26.9506V34.4533H61.687V24.6973H64.6983L70.8263 32.2619V24.6973H73.1817V34.4533H70.2443Z" fill="url(#paint3_linear_9135_76049)"/>
<path d="M93.6207 34.4514L92.3021 32.042H86.5541L85.1941 34.4514H82.4561L87.9774 24.6934H90.9681L96.3541 34.4514H93.6207ZM89.4487 26.3887L87.1941 30.5634H91.6434L89.4487 26.3887Z" fill="url(#paint4_linear_9135_76049)"/>
<path d="M115.817 33.5973C114.727 34.4893 113.048 34.4546 111.53 34.4546H105.503V32.9953H111.391C112.715 32.9953 114.11 32.8739 114.11 31.6453C114.109 31.4286 114.051 31.216 113.942 31.0287C113.833 30.8415 113.676 30.6863 113.488 30.5786C112.805 30.3013 112.066 30.1915 111.331 30.2586H109.614C108.757 30.2833 107.9 30.2038 107.061 30.0219C106.485 29.9226 105.961 29.6283 105.576 29.1881C105.191 28.748 104.969 28.1889 104.947 27.6046C104.959 27.1852 105.07 26.7746 105.271 26.4066C105.473 26.0385 105.759 25.7234 106.105 25.4873C107.185 24.7199 108.714 24.6973 110.115 24.6973H116.086V26.1593H110.399C109.058 26.1593 107.599 26.1986 107.599 27.4753C107.599 28.6326 109.061 28.7066 110.298 28.7066H111.698C112.717 28.6645 113.737 28.758 114.731 28.9846C115.322 29.1255 115.847 29.463 116.22 29.9417C116.593 30.4203 116.793 31.0117 116.785 31.6186C116.783 32 116.695 32.376 116.528 32.7186C116.36 33.0613 116.117 33.3616 115.817 33.5973Z" fill="url(#paint5_linear_9135_76049)"/>
<path d="M132.362 34.452C131.267 34.4908 130.172 34.3743 129.11 34.106C128.154 33.826 127.322 33.2304 126.749 32.4165C126.176 31.6025 125.896 30.6184 125.955 29.6247C125.934 28.918 126.07 28.2155 126.353 27.5676C126.636 26.9197 127.059 26.3425 127.591 25.8774C128.766 24.8774 130.673 24.6934 132.362 24.6934H136.733V26.1554H132.588C131.76 26.1172 130.932 26.2415 130.151 26.5214C128.852 27.064 128.613 28.5987 128.613 29.5627C128.58 30.3652 128.796 31.1583 129.232 31.8334C129.948 32.8574 131.287 32.992 132.726 32.992H136.735V34.452H132.364H132.362Z" fill="url(#paint6_linear_9135_76049)"/>
<path d="M156.441 34.4514L155.123 32.042H149.371L148.017 34.4514H145.283L150.787 24.6934H153.784L159.179 34.4514H156.441ZM152.263 26.3887L150.005 30.5634H154.461L152.263 26.3887Z" fill="url(#paint7_linear_9135_76049)"/>
<path d="M178.709 29.8159C177.725 30.8866 176.243 30.9766 174.633 30.9766H170.739V34.4526H168.308V24.6966H174.529C175.556 24.6248 176.587 24.7585 177.562 25.0899C178.018 25.2504 178.426 25.5222 178.75 25.8805C179.074 26.2388 179.303 26.6724 179.417 27.1419C179.531 27.6114 179.526 28.1018 179.402 28.5688C179.279 29.0358 179.041 29.4645 178.709 29.8159ZM176.385 26.6866C176.106 26.4696 175.786 26.311 175.444 26.2202C175.102 26.1293 174.745 26.1082 174.395 26.1579H170.739V29.5113H174.417C176.089 29.5113 176.844 29.0533 176.844 27.7666C176.852 27.5639 176.815 27.362 176.736 27.1753C176.656 26.9887 176.536 26.822 176.385 26.6873L176.385 26.6866Z" fill="url(#paint8_linear_9135_76049)"/>
<path d="M195.011 34.45C193.804 34.4854 192.599 34.3336 191.438 34C190.565 33.6719 189.819 33.0735 189.309 32.2919C188.799 31.5103 188.553 30.5864 188.604 29.6547C188.576 29.0393 188.673 28.4245 188.89 27.8479C189.107 27.2712 189.439 26.7448 189.866 26.3007C191.162 24.9574 192.716 24.6934 194.873 24.6934H199.084V26.1567H195.292C193.937 26.1567 192.759 26.23 191.942 27.1234C191.547 27.6046 191.335 28.2096 191.342 28.832H199.086V30.2987H191.34C191.422 32.2047 192.762 32.992 195.292 32.992H199.085V34.45H195.011Z" fill="url(#paint9_linear_9135_76049)"/>
</g>
<defs>
<linearGradient id="paint0_linear_9135_76049" x1="19.0962" y1="0.804688" x2="19.0962" y2="32.8301" gradientUnits="userSpaceOnUse">
<stop stop-color="#3755AC"/>
<stop offset="1" stop-color="#00023E"/>
</linearGradient>
<linearGradient id="paint1_linear_9135_76049" x1="26.141" y1="24.6973" x2="26.141" y2="34.475" gradientUnits="userSpaceOnUse">
<stop stop-color="#3755AC"/>
<stop offset="1" stop-color="#00023E"/>
</linearGradient>
<linearGradient id="paint2_linear_9135_76049" x1="45.6599" y1="24.6973" x2="45.6599" y2="34.5766" gradientUnits="userSpaceOnUse">
<stop stop-color="#3755AC"/>
<stop offset="1" stop-color="#00023E"/>
</linearGradient>
<linearGradient id="paint3_linear_9135_76049" x1="67.4343" y1="24.6973" x2="67.4343" y2="34.4533" gradientUnits="userSpaceOnUse">
<stop stop-color="#3755AC"/>
<stop offset="1" stop-color="#00023E"/>
</linearGradient>
<linearGradient id="paint4_linear_9135_76049" x1="89.4051" y1="24.6934" x2="89.4051" y2="34.4514" gradientUnits="userSpaceOnUse">
<stop stop-color="#3755AC"/>
<stop offset="1" stop-color="#00023E"/>
</linearGradient>
<linearGradient id="paint5_linear_9135_76049" x1="110.866" y1="24.6973" x2="110.866" y2="34.4548" gradientUnits="userSpaceOnUse">
<stop stop-color="#3755AC"/>
<stop offset="1" stop-color="#00023E"/>
</linearGradient>
<linearGradient id="paint6_linear_9135_76049" x1="131.341" y1="24.6934" x2="131.341" y2="34.4593" gradientUnits="userSpaceOnUse">
<stop stop-color="#3755AC"/>
<stop offset="1" stop-color="#00023E"/>
</linearGradient>
<linearGradient id="paint7_linear_9135_76049" x1="152.231" y1="24.6934" x2="152.231" y2="34.4514" gradientUnits="userSpaceOnUse">
<stop stop-color="#3755AC"/>
<stop offset="1" stop-color="#00023E"/>
</linearGradient>
<linearGradient id="paint8_linear_9135_76049" x1="173.904" y1="24.6777" x2="173.904" y2="34.4526" gradientUnits="userSpaceOnUse">
<stop stop-color="#3755AC"/>
<stop offset="1" stop-color="#00023E"/>
</linearGradient>
<linearGradient id="paint9_linear_9135_76049" x1="193.842" y1="24.6934" x2="193.842" y2="34.455" gradientUnits="userSpaceOnUse">
<stop stop-color="#3755AC"/>
<stop offset="1" stop-color="#00023E"/>
</linearGradient>
</defs>
</svg>
