<svg width="148" height="22" viewBox="0 0 148 22" fill="none" xmlns="http://www.w3.org/2000/svg">
<g clip-path="url(#clip0_730_2721)">
<path d="M14.6748 0.880068C15.5953 1.6321 16.1196 2.58735 16.6659 3.62221C16.7904 3.85387 16.9155 4.08526 17.0405 4.31664C17.1526 4.52455 17.2635 4.73307 17.3743 4.94163C17.5602 5.29277 17.5602 5.29277 17.8104 5.65721C18.4371 4.74696 18.9812 3.8026 19.5146 2.83527C20.2541 1.51492 21.0516 0.566983 22.553 0.133639C23.7924 -0.131561 24.9749 0.019001 26.0884 0.628639C27.0339 1.30763 27.571 2.13079 28.1187 3.14293C28.241 3.36217 28.3633 3.58142 28.4859 3.80053C28.6104 4.02366 28.7341 4.24726 28.8577 4.4709C29.2185 5.11818 29.5935 5.75678 29.9687 6.39578C30.6883 7.62849 31.3971 8.86722 32.1023 10.1083C32.5238 10.8499 32.9472 11.5903 33.3757 12.3279C36.0673 16.965 36.0673 16.965 35.6735 18.976C35.3133 20.1279 34.5538 21.0293 33.5119 21.6308C33.001 21.8929 32.5432 22.0153 31.9691 22.0176C31.8668 22.0184 31.7645 22.0191 31.6591 22.0198C31.5474 22.02 31.4356 22.0201 31.3206 22.0203C31.2013 22.0209 31.0821 22.0215 30.9593 22.0222C30.5588 22.0242 30.1583 22.0252 29.7577 22.0263C29.471 22.0275 29.1842 22.0288 28.8974 22.03C27.9545 22.034 27.0116 22.0365 26.0688 22.0389C25.9083 22.0393 25.7478 22.0397 25.5825 22.0401C24.0689 22.044 22.5554 22.0474 21.0418 22.0495C20.6914 22.05 20.3409 22.0505 19.9905 22.051C19.9034 22.0511 19.8163 22.0512 19.7266 22.0514C18.3172 22.0535 16.9078 22.0587 15.4984 22.0651C14.0499 22.0716 12.6014 22.0752 11.1529 22.0761C10.3402 22.0768 9.52761 22.0787 8.71496 22.0837C7.94984 22.0883 7.1848 22.0893 6.41967 22.0877C6.13957 22.0877 5.85947 22.089 5.57938 22.0917C3.80952 22.1078 2.52718 22.0493 1.13687 20.8372C0.34792 19.9691 -0.0130652 18.9439 -0.0468121 17.7886C-0.0560278 17.5767 -0.0560278 17.5767 -0.0654297 17.3604C0.0159592 16.0859 0.866545 14.8659 1.49747 13.7972C1.62312 13.5817 1.74877 13.3661 1.8744 13.1505C2.00235 12.9314 2.13073 12.7125 2.25926 12.4937C2.56488 11.9729 2.86854 11.451 3.17207 10.929C3.31584 10.6818 3.45972 10.4347 3.6037 10.1877C4.13781 9.27105 4.66841 8.35246 5.19747 7.43292C5.27492 7.29849 5.35238 7.16406 5.43218 7.02555C5.79715 6.39161 6.16114 5.75716 6.52172 5.1207C6.64699 4.89972 6.7726 4.67893 6.89831 4.4582C7.05484 4.18313 7.21075 3.90771 7.3659 3.63185C8.23792 2.10273 9.05992 0.730375 10.7867 0.125782C12.1822 -0.174484 13.501 0.058862 14.6748 0.880068Z" fill="#043D9B"/>
<path d="M45.2783 0.251465C46.7684 0.251465 48.2584 0.251465 49.7936 0.251465C50.2489 0.832265 50.7042 1.41306 51.1732 2.01146C51.4645 2.36907 51.7563 2.72552 52.0512 3.08004C52.5912 3.73288 53.1232 4.39054 53.6425 5.06004C54.0821 5.62659 54.5331 6.18043 54.9987 6.72575C55.7147 7.56459 56.3932 8.4307 57.0682 9.30289C57.2076 9.48229 57.2076 9.48229 57.3499 9.6653C57.5489 9.92141 57.7477 10.1777 57.9461 10.4343C58.4841 10.2404 58.7532 9.8316 59.0828 9.38932C59.205 9.22919 59.3275 9.06927 59.4502 8.90954C59.5438 8.78773 59.5438 8.78773 59.6392 8.66346C59.9299 8.29196 60.2344 7.93286 60.5408 7.57432C61.0155 7.01725 61.4795 6.45358 61.9337 5.87963C62.2819 5.44174 62.6341 5.00726 62.9866 4.57289C63.0558 4.48758 63.125 4.40227 63.1963 4.31437C63.4834 3.96058 63.7705 3.60686 64.0577 3.25314C64.2703 2.99119 64.4829 2.72918 64.6955 2.46718C64.7585 2.38962 64.8215 2.31205 64.8864 2.23214C65.4197 1.57483 65.9468 0.913099 66.4749 0.251465C67.965 0.251465 69.455 0.251465 70.9902 0.251465C70.9902 7.30404 70.9902 14.3566 70.9902 21.6229C69.4174 21.6229 67.8446 21.6229 66.2241 21.6229C66.1827 17.018 66.1413 12.4131 66.0987 7.66861C65.7262 8.12495 65.3536 8.58129 64.9698 9.05147C64.0893 10.128 63.2064 11.2019 62.3061 12.262C61.8924 12.7505 61.4927 13.2487 61.0959 13.751C60.7136 14.2256 60.3192 14.6895 59.9237 15.153C59.5766 15.5603 59.5766 15.5603 59.2812 16.0055C58.9546 16.3406 58.5785 16.3406 58.1343 16.3507C57.5479 16.3569 57.1087 16.3124 56.6689 15.8999C56.3615 15.556 56.097 15.1837 55.839 14.8016C55.6193 14.4824 55.3723 14.1886 55.1241 13.8915C54.9883 13.7242 54.9883 13.7242 54.8497 13.5536C54.4688 13.0893 54.0806 12.6314 53.6922 12.1734C53.3311 11.7468 52.9753 11.3165 52.6234 10.8822C52.1157 10.2565 51.594 9.64378 51.0679 9.03357C51.0075 8.96331 50.947 8.89305 50.8847 8.82066C50.8314 8.75902 50.7782 8.69738 50.7233 8.63387C50.4919 8.35829 50.2689 8.07561 50.0444 7.79432C50.003 12.3578 49.9616 16.9212 49.919 21.6229C48.3876 21.6229 46.8562 21.6229 45.2783 21.6229C45.2783 14.5703 45.2783 7.51775 45.2783 0.251465Z" fill="#05152F"/>
<path d="M76.5088 0.251465C82.7587 0.251465 89.0085 0.251465 95.4478 0.251465C95.4478 1.53752 95.4478 2.82358 95.4478 4.14861C90.7293 4.14861 86.0109 4.14861 81.1495 4.14861C81.1495 5.72506 81.1495 7.30152 81.1495 8.92575C85.2471 8.92575 89.3447 8.92575 93.5664 8.92575C93.5664 10.1288 93.5664 11.3319 93.5664 12.5715C89.4688 12.5715 85.3712 12.5715 81.1495 12.5715C81.1495 14.2724 81.1495 15.9733 81.1495 17.7258C85.8679 17.7258 90.5863 17.7258 95.4478 17.7258C95.4478 19.0118 95.4478 20.2979 95.4478 21.6229C89.1979 21.6229 82.948 21.6229 76.5088 21.6229C76.5088 14.5703 76.5088 7.51775 76.5088 0.251465Z" fill="#05152F"/>
<path d="M14.6748 0.880068C15.5849 1.62703 16.1128 2.56704 16.6581 3.59078C16.7408 3.74236 16.8237 3.89386 16.9067 4.04527C17.1293 4.45446 17.3497 4.86406 17.5595 5.28007C17.6198 5.39131 17.6198 5.39131 17.6813 5.5048C17.7957 5.73342 17.7957 5.73342 17.9358 6.16007C17.8141 6.46244 17.8141 6.46244 17.5801 6.73953C17.0556 7.411 16.643 8.11497 16.2273 8.85809C16.0091 9.2481 15.7886 9.63687 15.5684 10.0258C15.5244 10.1037 15.4803 10.1817 15.4349 10.262C15.0379 10.9632 14.6309 11.6583 14.2201 12.3515C14.1557 12.4606 14.0913 12.5697 14.0249 12.6822C13.7457 13.1549 13.4659 13.6273 13.1839 14.0984C12.9403 14.5054 12.6983 14.9134 12.4564 15.3215C12.381 15.4463 12.3056 15.5711 12.228 15.6997C11.5457 16.8558 11.2981 17.7673 11.5392 19.1086C11.8409 20.0476 12.3593 20.852 13.2167 21.3558C13.733 21.6167 14.2346 21.761 14.8002 21.8744C14.8002 21.9158 14.8002 21.9573 14.8002 22.0001C13.3054 22.0176 11.8106 22.031 10.3157 22.0391C9.62138 22.0431 8.92717 22.0484 8.23293 22.057C7.562 22.0652 6.89114 22.0697 6.22017 22.0716C5.96515 22.073 5.71014 22.0757 5.45515 22.0798C3.73014 22.1064 2.49121 22.0209 1.13687 20.8372C0.34792 19.9691 -0.0130652 18.9439 -0.0468121 17.7886C-0.0560278 17.5767 -0.0560278 17.5767 -0.0654297 17.3604C0.0159592 16.0859 0.866545 14.8659 1.49747 13.7972C1.62312 13.5817 1.74877 13.3661 1.8744 13.1505C2.00235 12.9314 2.13073 12.7125 2.25926 12.4937C2.56488 11.9729 2.86854 11.451 3.17207 10.929C3.31584 10.6818 3.45972 10.4347 3.6037 10.1877C4.13781 9.27105 4.66841 8.35246 5.19747 7.43292C5.27492 7.29849 5.35238 7.16406 5.43218 7.02555C5.79715 6.39161 6.16114 5.75716 6.52172 5.1207C6.64699 4.89972 6.7726 4.67893 6.89831 4.4582C7.05484 4.18313 7.21075 3.90771 7.3659 3.63185C8.23792 2.10273 9.05992 0.730375 10.7867 0.125782C12.1822 -0.174484 13.501 0.058862 14.6748 0.880068Z" fill="#1876F1"/>
<path d="M138.888 0.237241C138.987 0.237222 139.086 0.237204 139.188 0.237185C139.513 0.237272 139.837 0.238246 140.161 0.239236C140.388 0.23947 140.614 0.239649 140.84 0.239775C141.433 0.240252 142.026 0.241486 142.619 0.24288C143.226 0.244171 143.832 0.244741 144.438 0.245374C145.625 0.246718 146.813 0.248928 148 0.251512C148 1.53757 148 2.82363 148 4.14866C147.453 4.15481 146.906 4.16097 146.342 4.16732C145.9 4.17293 145.458 4.17878 145.016 4.18477C144.553 4.191 144.089 4.19684 143.626 4.20169C143.178 4.2064 142.73 4.21224 142.282 4.21881C142.031 4.2222 141.781 4.22448 141.531 4.22672C139.327 4.26154 136.828 4.36486 135.142 5.96366C133.844 7.40955 133.656 9.48116 133.676 11.3375C133.778 13.1937 134.236 14.9175 135.64 16.2207C137.232 17.4548 138.946 17.5124 140.872 17.5264C141.078 17.5288 141.284 17.5312 141.491 17.5338C142.03 17.5402 142.569 17.5452 143.108 17.5499C143.659 17.555 144.211 17.5614 144.762 17.5677C145.842 17.5798 146.921 17.5903 148 17.6001C148 18.8861 148 20.1722 148 21.4972C146.715 21.5058 145.429 21.5127 144.143 21.5168C143.546 21.5187 142.949 21.5214 142.352 21.5257C141.774 21.5298 141.195 21.532 140.617 21.533C140.399 21.5337 140.18 21.535 139.961 21.5371C136.825 21.5655 134.096 21.0686 131.742 18.8415C129.545 16.5645 128.739 13.5088 128.784 10.4167C128.878 7.52186 129.891 4.83233 131.946 2.7658C132.032 2.67651 132.118 2.58722 132.207 2.49522C133.967 0.789804 136.505 0.225459 138.888 0.237241Z" fill="#05152F"/>
<path d="M124.295 0.172888C124.575 0.179199 124.854 0.184934 125.134 0.190076C125.816 0.203883 126.498 0.224875 127.18 0.251459C127.062 0.410692 126.943 0.569807 126.825 0.728873C126.759 0.817493 126.693 0.906113 126.625 0.997418C126.35 1.35973 126.058 1.70573 125.761 2.05075C125.33 2.55718 124.903 3.06618 124.483 3.58289C124.013 4.16174 123.534 4.73194 123.052 5.30066C122.688 5.73016 122.33 6.16318 121.975 6.60003C121.563 7.1079 121.144 7.60962 120.721 8.1086C119.593 9.43548 119.593 9.43548 118.526 10.8115C118.733 11.3039 119.066 11.6777 119.412 12.0765C119.537 12.2232 119.663 12.37 119.788 12.517C119.851 12.5899 119.913 12.6628 119.978 12.738C120.23 13.0351 120.475 13.3372 120.721 13.64C121.133 14.1479 121.552 14.6496 121.975 15.1486C122.398 15.6476 122.817 16.1493 123.229 16.6572C123.808 17.3696 124.4 18.0705 124.993 18.7707C125.299 19.1318 125.605 19.4934 125.91 19.855C125.965 19.9203 126.02 19.9856 126.077 20.0529C126.236 20.2408 126.394 20.429 126.553 20.6172C126.642 20.7193 126.642 20.7193 126.732 20.8235C127.18 21.3443 127.18 21.3443 127.18 21.6229C126.381 21.6582 125.583 21.6823 124.784 21.6989C124.513 21.7058 124.241 21.7152 123.97 21.7272C121.594 21.8299 121.594 21.8299 120.966 21.3332C120.648 20.9841 120.404 20.6415 120.156 20.24C119.968 20.0073 119.778 19.7765 119.584 19.5486C119.398 19.3183 119.213 19.0879 119.027 18.8572C118.428 18.1176 117.824 17.3832 117.209 16.6572C116.594 15.9311 115.987 15.1982 115.39 14.4572C115.307 14.3773 115.224 14.2973 115.138 14.215C114.262 13.2995 114.227 12.4561 114.249 11.2476C114.254 10.9455 114.247 10.6452 114.239 10.3432C114.231 9.16234 114.374 8.45511 115.225 7.57116C115.321 7.47886 115.417 7.38656 115.516 7.29146C115.643 7.14375 115.769 6.99455 115.892 6.84311C115.998 6.71882 116.104 6.59452 116.213 6.46646C116.699 5.89471 117.171 5.31459 117.636 4.7261C117.947 4.33959 118.267 3.96108 118.588 3.58289C119 3.09812 119.407 2.61093 119.804 2.1136C119.88 2.02097 119.957 1.92833 120.037 1.83289C120.289 1.52067 120.289 1.52067 120.442 1.17728C121.234 -0.251634 122.884 0.117688 124.295 0.172888Z" fill="#05152F"/>
<path d="M99.9629 0.251367C100.777 0.209631 101.591 0.181194 102.406 0.161593C102.682 0.153417 102.959 0.142295 103.235 0.128077C105.658 0.00662531 105.658 0.00662529 106.338 0.600335C106.701 0.993795 106.966 1.42465 107.237 1.88565C107.401 2.09784 107.568 2.30799 107.739 2.51422C107.819 2.6147 107.898 2.71517 107.98 2.81869C108.282 3.1943 108.594 3.5615 108.907 3.92851C109.384 4.48874 109.845 5.05887 110.295 5.64137C110.874 6.39101 111.484 7.1091 112.11 7.8197C112.875 8.69039 112.817 9.42394 112.841 10.537C112.847 10.7437 112.856 10.9504 112.867 11.1569C112.923 12.1966 112.957 13.0669 112.283 13.9111C111.994 14.2339 111.688 14.5328 111.376 14.8342C111.185 15.0621 110.996 15.2921 110.812 15.5257C110.397 16.0365 109.976 16.5405 109.55 17.0421C109.148 17.5158 108.752 17.9925 108.366 18.4799C107.816 19.1757 107.249 19.86 106.664 20.5267C106.482 20.7388 106.482 20.7388 106.334 20.9713C106.077 21.3347 105.882 21.583 105.442 21.6999C105.091 21.7246 104.749 21.7218 104.397 21.7087C104.27 21.7075 104.143 21.7062 104.012 21.705C103.608 21.7001 103.204 21.689 102.801 21.6778C102.526 21.6734 102.252 21.6694 101.977 21.6658C101.305 21.6561 100.634 21.6414 99.9629 21.6228C100.175 21.2561 100.387 20.9155 100.665 20.5965C100.726 20.5262 100.787 20.4559 100.85 20.3835C100.946 20.2736 100.946 20.2736 101.045 20.1614C101.181 20.0042 101.317 19.8469 101.453 19.6894C101.52 19.6121 101.586 19.5348 101.655 19.4551C101.914 19.1526 102.166 18.8444 102.416 18.5349C102.826 18.0294 103.242 17.5304 103.663 17.0342C104.086 16.5353 104.505 16.0335 104.917 15.5257C105.33 15.0178 105.748 14.5161 106.171 14.0171C106.703 13.3897 107.227 12.7561 107.746 12.1176C108.033 11.7637 108.325 11.4128 108.617 11.0628C108.446 10.5552 108.223 10.2402 107.857 9.8528C107.351 9.3052 106.876 8.741 106.408 8.16106C106.083 7.76227 105.752 7.36926 105.419 6.97708C104.902 6.36744 104.394 5.75116 103.89 5.13065C103.567 4.73711 103.239 4.34819 102.91 3.95994C102.39 3.34591 101.877 2.72679 101.369 2.10172C101.171 1.85732 100.971 1.61378 100.771 1.37101C100.667 1.24526 100.564 1.1195 100.457 0.989939C100.362 0.875529 100.268 0.761119 100.17 0.643242C99.9629 0.377081 99.9629 0.377081 99.9629 0.251367Z" fill="#05152F"/>
<g clip-path="url(#clip1_730_2721)">
<path d="M35.4191 15.559L27.6345 2.05612C25.9281 -0.759076 21.7665 -0.787876 20.1191 2.17564L11.9457 16.2185C10.4193 18.7932 12.3057 22.026 15.3599 22.026H31.737C34.8201 22.026 37.1255 18.7025 35.4191 15.559Z" fill="#003087"/>
<path d="M24.1913 16.6073L23.7118 15.7692C23.2625 14.9901 22.2747 13.314 22.2747 13.314L15.6881 1.87607C13.9817 -0.668415 9.93964 -0.878655 8.23324 2.32534L0.568116 15.5892C-1.01876 18.3741 0.867635 21.9957 4.31068 22.026H20.5985H27.5451H31.6764C27.4558 22.0562 26.108 19.8703 24.1913 16.6073Z" fill="#1972E2"/>
<path d="M24.1928 16.6073L23.7133 15.7692C23.2641 14.9901 22.2762 13.314 22.2762 13.314L18.0239 5.82886L11.9154 16.2487C10.389 18.8234 12.2754 22.0577 15.3282 22.0577H20.5684H27.5149H31.6765C27.4257 22.026 26.108 19.8703 24.1928 16.6073Z" fill="url(#paint0_linear_730_2721)"/>
</g>
</g>
<defs>
<linearGradient id="paint0_linear_730_2721" x1="10.1318" y1="11.5217" x2="27.8727" y2="18.4974" gradientUnits="userSpaceOnUse">
<stop stop-color="#264CA2" stop-opacity="0"/>
<stop offset="1" stop-color="#234588"/>
</linearGradient>
<clipPath id="clip0_730_2721">
<rect width="148" height="22" fill="white"/>
</clipPath>
<clipPath id="clip1_730_2721">
<rect width="36" height="36" fill="white" transform="translate(0 -7)"/>
</clipPath>
</defs>
</svg>
