<svg width="126" height="40" viewBox="0 0 126 40" fill="none" xmlns="http://www.w3.org/2000/svg">
<g clip-path="url(#clip0_727_2699)">
<path d="M34.5582 10.0036L30.2385 7.4991V27.4991L17.2791 35.0054L12.9593 32.5009V22.5045L21.5989 27.4991L25.9187 25.0018V5.0018L21.5989 2.49729L17.2791 0L0 10.0036V30.0036L4.31978 32.5009V12.5009H4.32698L17.2791 5.0018L21.5989 7.4991V17.5027L12.9593 12.5009L8.64676 14.9982H8.63956V35.0054H8.64676L17.2791 40L34.5582 30.0036V10.0036Z" fill="#1AB0E9"/>
</g>
<g clip-path="url(#clip1_727_2699)">
<path d="M58.7538 21.1111L46.5576 10.2559V28.8556H50.6542V18.8881L62.872 29.7434V11.1436H58.7538V21.1111Z" fill="#040000"/>
<path d="M81.3831 20.3317C80.9727 19.8914 80.4975 19.5161 79.9575 19.2057C79.4175 18.8954 78.8416 18.6211 78.2152 18.3829C77.3873 18.0942 76.6889 17.8272 76.1057 17.5746C75.5225 17.3219 75.0762 17.0405 74.7666 16.7373C74.457 16.4342 74.2986 16.0805 74.2986 15.6763C74.2986 15.2721 74.457 14.9618 74.781 14.7019C75.0978 14.4421 75.5657 14.3122 76.1705 14.3122C76.7753 14.3122 77.0489 14.3988 77.4448 14.5792C77.8408 14.7597 78.2008 14.9979 78.532 15.3154C78.8632 15.6258 79.1512 15.9939 79.4032 16.4197L82.6574 14.6009C82.355 13.9946 81.9158 13.3956 81.3471 12.8037C80.7783 12.2119 80.0583 11.7211 79.1872 11.3385C78.3232 10.9488 77.3009 10.7539 76.1201 10.7539C74.9394 10.7539 73.9386 10.956 73.0027 11.3458C72.0667 11.7427 71.3252 12.3201 70.778 13.078C70.2308 13.8358 69.9572 14.738 69.9572 15.7846C69.9572 16.8311 70.1156 17.4085 70.4396 18.022C70.7564 18.6355 71.1596 19.1624 71.6491 19.5883C72.1387 20.0213 72.6571 20.3678 73.2043 20.642C73.7514 20.9091 74.2338 21.1256 74.6586 21.2772C75.5153 21.5948 76.2065 21.8835 76.7321 22.1361C77.2505 22.3887 77.632 22.6557 77.8696 22.93C78.1072 23.2115 78.2224 23.5724 78.2224 24.0343C78.2224 24.4962 78.0208 25.0015 77.6176 25.3118C77.2145 25.6222 76.7033 25.781 76.0769 25.781C75.4505 25.781 74.925 25.6511 74.3994 25.3984C73.8666 25.1458 73.3843 24.7849 72.9379 24.3086C72.4915 23.8394 72.0955 23.2765 71.7355 22.6413L68.7549 24.7922C69.1581 25.6366 69.7196 26.4089 70.4468 27.1234C71.1668 27.8308 72.0235 28.3937 73.0099 28.8052C73.9962 29.2166 75.0618 29.4259 76.2065 29.4259C77.3513 29.4259 77.8336 29.3032 78.6184 29.0578C79.4031 28.8124 80.1015 28.4515 80.7135 27.9823C81.3254 27.5132 81.815 26.9214 82.175 26.2212C82.535 25.5211 82.715 24.7272 82.715 23.8322C82.715 22.9372 82.5998 22.432 82.3622 21.8546C82.1246 21.2844 81.8006 20.7719 81.3902 20.3389L81.3831 20.3317Z" fill="#040000"/>
<path d="M91.9943 24.3006C91.9943 24.7553 91.908 25.145 91.7424 25.4626C91.5768 25.7802 91.3392 26.0256 91.0512 26.1988C90.756 26.3648 90.396 26.4514 89.9785 26.4514C89.3593 26.4514 88.92 26.2638 88.668 25.8812C88.416 25.4987 88.2864 24.9718 88.2864 24.3006V17.2129H84.2979V24.7048C84.2979 26.0906 84.6291 27.1732 85.2915 27.9599C85.9538 28.7466 87.0122 29.1364 88.4593 29.1364C89.9064 29.1364 90.036 28.9559 90.6048 28.5951C91.1736 28.2342 91.6416 27.7362 91.9943 27.1155V28.8621H95.8028V17.2201H91.9943V24.3078V24.3006Z" fill="#040000"/>
<path d="M101.34 17.2129H97.6533V28.8549H101.34V17.2129Z" fill="#040000"/>
<path d="M99.4968 10.7891C98.892 10.7891 98.3664 10.9767 97.9345 11.3593C97.4953 11.7418 97.2793 12.2326 97.2793 12.8389C97.2793 13.4451 97.4953 13.9432 97.9345 14.3329C98.3736 14.7227 98.892 14.9175 99.4968 14.9175C100.102 14.9175 100.649 14.7227 101.073 14.3329C101.505 13.9432 101.714 13.4451 101.714 12.8389C101.714 12.2326 101.498 11.7346 101.073 11.3593C100.641 10.9767 100.116 10.7891 99.4968 10.7891Z" fill="#040000"/>
<path d="M108.893 13.1641H105.235V17.2131H103.19V20.3817H105.235V28.8551H108.893V20.3817H110.966V17.2131H108.893V13.1641Z" fill="#040000"/>
<path d="M121.859 24.8346C121.571 25.3398 121.19 25.7224 120.707 25.975C120.225 26.2276 119.649 26.3575 118.979 26.3575C118.31 26.3575 117.892 26.2276 117.489 25.9678C117.086 25.7079 116.784 25.3254 116.582 24.8129C116.467 24.5242 116.388 24.2067 116.337 23.853H125.186C125.222 23.7375 125.236 23.5859 125.236 23.4127V22.8714C125.236 21.6228 124.991 20.5618 124.502 19.6812C124.012 18.8007 123.306 18.1366 122.378 17.6675C121.449 17.2056 120.319 16.9746 118.972 16.9746C117.626 16.9746 116.46 17.22 115.473 17.7108C114.487 18.2016 113.738 18.9017 113.213 19.8111C112.694 20.7205 112.428 21.8032 112.428 23.0518C112.428 24.3005 112.694 25.3543 113.234 26.2637C113.774 27.1731 114.537 27.8804 115.516 28.3784C116.503 28.8765 117.669 29.1218 119.015 29.1218C120.362 29.1218 121.751 28.8331 122.788 28.263C123.825 27.6928 124.646 26.8266 125.25 25.679L121.845 24.8418H121.859V24.8346ZM117.468 19.8977C117.856 19.6451 118.331 19.5152 118.907 19.5152C119.483 19.5152 119.757 19.6163 120.095 19.8183C120.434 20.0204 120.693 20.3091 120.88 20.6772C121.031 20.9804 121.118 21.3268 121.147 21.7166H116.424C116.474 21.4784 116.532 21.2474 116.604 21.0453C116.798 20.5329 117.086 20.1504 117.475 19.8905L117.468 19.8977Z" fill="#040000"/>
</g>
<defs>
<clipPath id="clip0_727_2699">
<rect width="35" height="40" fill="white"/>
</clipPath>
<clipPath id="clip1_727_2699">
<rect width="80" height="20" fill="white" transform="translate(46 10)"/>
</clipPath>
</defs>
</svg>
