<?xml version="1.0" encoding="UTF-8"?>
<svg id="_レイヤー_1" data-name=" レイヤー 1" xmlns="http://www.w3.org/2000/svg" viewBox="0 0 1736.2 554.2">
  <defs>
    <style>
      .cls-1 {
        fill: #1ab0e9;
      }

      .cls-1, .cls-2 {
        stroke-width: 0px;
      }

      .cls-2 {
        fill: #040000;
      }
    </style>
  </defs>
  <polygon class="cls-1" points="480 138.6 420 103.9 420 381 420 381 240 485 240 485 180 450.3 180 450.3 180 311.8 180 311.8 300 381 300 381 300 381 360 346.4 360 346.4 360 346.4 360 69.3 360 69.3 360 69.3 300 34.6 300 34.6 300 34.6 240 0 240 0 240 0 0 138.6 0 138.5 0 138.6 0 415.7 0 415.7 0 415.7 60 450.3 60 173.2 60.1 173.2 240 69.3 240 69.3 300 103.9 300 103.9 300 242.5 300 242.5 180 173.2 180 173.2 180 173.2 120.1 207.8 120 207.8 120 207.8 120 485 120 485 120.1 485 240 554.2 240 554.2 240 554.2 480 415.7 480 415.7 480 415.7 480 138.6 480 138.5 480 138.6"/>
  <g>
    <polygon class="cls-2" points="812.6 292.5 643.2 142.1 643.2 399.8 700.1 399.8 700.1 261.7 869.8 412.1 869.8 154.4 812.6 154.4 812.6 292.5"/>
    <path class="cls-2" d="M1126.9,281.7c-5.7-6.1-12.3-11.3-19.8-15.6-7.5-4.3-15.5-8.1-24.2-11.4-11.5-4-21.2-7.7-29.3-11.2s-14.3-7.4-18.6-11.6c-4.3-4.2-6.5-9.1-6.5-14.7s2.2-9.9,6.7-13.5c4.4-3.6,10.9-5.4,19.3-5.4s12.2,1.2,17.7,3.7,10.5,5.8,15.1,10.2c4.6,4.3,8.6,9.4,12.1,15.3l45.2-25.2c-4.2-8.4-10.3-16.7-18.2-24.9-7.9-8.2-17.9-15-30-20.3-12-5.4-26.2-8.1-42.6-8.1s-30.3,2.8-43.3,8.2c-13,5.5-23.3,13.5-30.9,24s-11.4,23-11.4,37.5,2.2,22.5,6.7,31c4.4,8.5,10,15.8,16.8,21.7,6.8,6,14,10.8,21.6,14.6,7.6,3.7,14.3,6.7,20.2,8.8,11.9,4.4,21.5,8.4,28.8,11.9,7.2,3.5,12.5,7.2,15.8,11,3.3,3.9,4.9,8.9,4.9,15.3s-2.8,13.4-8.4,17.7-12.7,6.5-21.4,6.5-16-1.8-23.3-5.3c-7.4-3.5-14.1-8.5-20.3-15.1-6.2-6.5-11.7-14.3-16.7-23.1l-41.4,29.8c5.6,11.7,13.4,22.4,23.5,32.3,10,9.8,21.9,17.6,35.6,23.3s28.5,8.6,44.4,8.6,22.6-1.7,33.5-5.1c10.9-3.4,20.6-8.4,29.1-14.9s15.3-14.7,20.3-24.4,7.5-20.7,7.5-33.1-1.6-19.4-4.9-27.4c-3.3-7.9-7.8-15-13.5-21h0Z"/>
    <path class="cls-2" d="M1274.3,336.7c0,6.3-1.2,11.7-3.5,16.1-2.3,4.4-5.6,7.8-9.6,10.2-4.1,2.3-9.1,3.5-14.9,3.5-8.6,0-14.7-2.6-18.2-7.9-3.5-5.3-5.3-12.6-5.3-21.9v-98.2h-55.4v103.8c0,19.2,4.6,34.2,13.8,45.1,9.2,10.9,23.9,16.3,44,16.3s21.9-2.5,29.8-7.5,14.4-11.9,19.3-20.5v24.2h52.9v-161.3h-52.9v98.2h0Z"/>
    <rect class="cls-2" x="1352.9" y="238.5" width="51.2" height="161.3"/>
    <path class="cls-2" d="M1378.5,149.5c-8.4,0-15.7,2.6-21.7,7.9-6.1,5.3-9.1,12.1-9.1,20.5s3,15.3,9.1,20.7c6.1,5.4,13.3,8.1,21.7,8.1s16-2.7,21.9-8.1c6-5.4,8.9-12.3,8.9-20.7s-3-15.3-8.9-20.5c-6-5.3-13.3-7.9-21.9-7.9Z"/>
    <polygon class="cls-2" points="1509 182.4 1458.2 182.4 1458.2 238.5 1429.8 238.5 1429.8 282.4 1458.2 282.4 1458.2 399.8 1509 399.8 1509 282.4 1537.8 282.4 1537.8 238.5 1509 238.5 1509 182.4"/>
    <path class="cls-2" d="M1689.1,344.1c-4,7-9.3,12.3-16,15.8s-14.7,5.3-24,5.3-15.1-1.8-20.7-5.4c-5.6-3.6-9.8-8.9-12.6-16-1.6-4-2.7-8.4-3.4-13.3h122.9c.5-1.6.7-3.7.7-6.1v-7.5c0-17.3-3.4-32-10.2-44.2-6.8-12.2-16.6-21.4-29.5-27.9-12.9-6.4-28.6-9.6-47.3-9.6s-34.9,3.4-48.6,10.2c-13.7,6.8-24.1,16.5-31.4,29.1-7.2,12.6-10.9,27.6-10.9,44.9s3.7,31.9,11.2,44.5c7.5,12.6,18.1,22.4,31.7,29.3,13.7,6.9,29.9,10.3,48.6,10.3s38-4,52.4-11.9,25.8-19.9,34.2-35.8l-47.3-11.6h.2ZM1628.1,275.7c5.4-3.5,12-5.3,20-5.3s11.8,1.4,16.5,4.2c4.7,2.8,8.3,6.8,10.9,11.9,2.1,4.2,3.3,9,3.7,14.4h-65.6c.7-3.3,1.5-6.5,2.5-9.3,2.7-7.1,6.7-12.4,12.1-16h0Z"/>
  </g>
</svg>