<svg width="241" height="33" viewBox="0 0 241 33" fill="none" xmlns="http://www.w3.org/2000/svg">
<g clip-path="url(#clip0_9153_85137)">
<path d="M19.6015 0.975008L17.2942 9.56996C16.8795 9.49028 16.4542 9.44778 16.0129 9.44778C15.375 9.44778 14.7582 9.53278 14.1681 9.68683C13.1314 9.96306 12.1904 10.4677 11.3982 11.1423L5.10889 4.85814C5.9223 4.0932 6.82078 3.42388 7.78838 2.84486L8.27217 2.56332C9.39926 1.94181 10.6061 1.44778 11.8767 1.11312C13.2005 0.762524 14.5881 0.571289 16.0182 0.571289C17.2517 0.571289 18.4532 0.709403 19.6068 0.975008H19.6015Z" fill="#00ACEB"/>
<path d="M63.6484 12.9854C63.9195 14.1381 64.0578 15.3333 64.0578 16.5657C64.0578 18 63.8664 19.3864 63.5155 20.7038C63.1752 21.9734 62.6808 23.1792 62.0641 24.2948L61.777 24.7941C61.1975 25.7503 60.5223 26.648 59.7674 27.4661L53.478 21.1819C54.1479 20.3904 54.6583 19.4502 54.9294 18.409C55.0889 17.8247 55.1687 17.2031 55.1687 16.5657C55.1687 16.1407 55.1368 15.7264 55.057 15.328L63.6484 12.9854Z" fill="#21BCEC"/>
<path d="M45.6578 23.2801L43.3398 31.8751C42.2712 31.5404 41.2505 31.1048 40.2882 30.5736L39.815 30.3027C38.6826 29.6228 37.6459 28.81 36.7102 27.8857C36.7102 27.8804 36.7049 27.8804 36.7049 27.8804L36.2371 27.3917C35.8756 27.0039 35.5353 26.5896 35.2163 26.1646L41.4206 19.9707L42.7922 21.3997C42.856 21.4687 42.9252 21.5378 42.9943 21.6068C43.7279 22.3452 44.6371 22.9295 45.6472 23.2854L45.6578 23.2801Z" fill="#009CDD"/>
<path d="M28.8366 6.97807L22.6323 13.1666H22.627L21.2607 11.743C21.1916 11.674 21.1278 11.6049 21.0587 11.5358C20.3197 10.7975 19.4106 10.2131 18.4058 9.85722L20.7131 1.26758C21.7817 1.60224 22.8078 2.03783 23.7647 2.56373L24.2379 2.83996C25.3703 3.5199 26.4177 4.33265 27.3427 5.25695C27.348 5.25695 27.348 5.26227 27.348 5.26227L27.8159 5.74567C28.1774 6.14407 28.523 6.5531 28.842 6.97807H28.8366Z" fill="#009CDD"/>
<path d="M52.6539 21.9897L58.9433 28.2792C58.1299 29.0441 57.2314 29.7135 56.2638 30.2925L55.78 30.574C54.6529 31.1955 53.4461 31.6896 52.1754 32.0242C50.8516 32.3748 49.464 32.566 48.0339 32.566C46.8005 32.566 45.599 32.4279 44.4453 32.1623L46.7633 23.5674C47.178 23.6471 47.6033 23.6896 48.0392 23.6896C48.6772 23.6896 49.2992 23.6046 49.884 23.4505C50.9208 23.1743 51.8618 22.6696 52.6539 21.9844V21.9897Z" fill="#00ACEB"/>
<path d="M19.9102 22.5365L26.1783 28.9375C25.5775 29.4369 24.9289 29.8884 24.259 30.2921L23.754 30.579C22.6322 31.2058 21.4253 31.6945 20.1653 32.0292C18.8416 32.3798 17.454 32.571 16.0185 32.571C14.5831 32.571 13.1955 32.3798 11.877 32.0292C10.6117 31.6892 9.41017 31.2005 8.29371 30.5843L7.77802 30.2868C6.65625 29.6175 5.62486 28.8047 4.70511 27.8857C3.78537 26.9668 2.97195 25.9256 2.29144 24.8047L2.00967 24.3107C1.47271 23.3598 1.04208 22.3346 0.717773 21.2669L9.30384 18.9189C9.65473 19.9389 10.2395 20.8525 10.9892 21.6069C11.8611 22.478 12.9616 23.1261 14.1843 23.4502C14.7745 23.6095 15.3912 23.6892 16.0291 23.6892C16.6671 23.6892 17.2892 23.6095 17.8793 23.4502C18.6129 23.2536 19.3041 22.9455 19.9261 22.5365H19.9102Z" fill="#FFA726"/>
<path d="M4.29037 5.6709L10.5797 11.9551C9.90986 12.7466 9.39948 13.6868 9.12834 14.728C8.96885 15.3123 8.8891 15.9338 8.8891 16.5713C8.8891 16.9963 8.921 17.4106 9.00075 17.809L0.409367 20.1516C0.138228 18.9989 0 17.7984 0 16.5713C0 15.137 0.191392 13.7506 0.547594 12.4279C0.887847 11.1636 1.37696 9.95775 1.99367 8.84221L2.28076 8.34288C2.86025 7.3867 3.53544 6.48896 4.29037 5.6709Z" fill="#21BCEC"/>
<path d="M63.3563 11.8807L54.7702 14.2233C54.414 13.1981 53.8345 12.2844 53.0796 11.5354C52.2077 10.6643 51.1072 10.0162 49.8844 9.68683C49.2942 9.53278 48.6775 9.44778 48.0396 9.44778C47.4016 9.44778 46.7796 9.53278 46.1948 9.68683C45.4611 9.88869 44.7699 10.1968 44.1426 10.6058L37.8745 4.20476C38.4753 3.70542 39.1239 3.25389 39.7938 2.85017L40.2988 2.55801C41.4206 1.93649 42.6274 1.44778 43.8874 1.11312C45.2112 0.762524 46.5988 0.571289 48.0342 0.571289C49.4697 0.571289 50.8573 0.762524 52.1758 1.11312C53.4411 1.4531 54.6479 1.94181 55.7644 2.55801L56.2747 2.85549C57.4018 3.52481 58.4279 4.33756 59.3477 5.25655C60.2674 6.17554 61.0808 7.21671 61.7613 8.33756L62.0431 8.82627C62.5801 9.79307 63.016 10.8077 63.3403 11.8807H63.3563Z" fill="#FFA726"/>
<path d="M76.1528 24.348V8.68262H78.6462L85.1429 19.0146V8.68262H88.2478V24.348H85.749L79.2736 14.0213V24.348H76.1528Z" fill="black"/>
<path d="M98.3543 24.4546C98.0193 24.4546 97.6366 24.4174 97.2006 24.3484C96.77 24.29 96.35 24.1518 95.9406 23.9234C95.5472 23.695 95.2229 23.3603 94.9571 22.9088C94.7072 22.4413 94.5796 21.8092 94.5796 21.0018V12.2581C94.5796 11.5675 94.6859 10.9885 94.8933 10.521C95.1006 10.0536 95.3824 9.68703 95.7333 9.42143C96.0842 9.15582 96.4669 8.96459 96.8869 8.84772C97.3069 8.73617 97.7163 8.67773 98.1257 8.67773C99.173 8.67773 100.098 8.69367 100.89 8.72023C101.698 8.74679 102.427 8.78398 103.07 8.82647C103.713 8.85303 104.298 8.89553 104.83 8.95396V11.5781H99.0454C98.6148 11.5781 98.2745 11.6844 98.0406 11.8969C97.8014 12.1093 97.6844 12.4334 97.6844 12.869V15.1319L103.825 15.3019V17.7773L97.6844 17.9473V20.104C97.6844 20.4706 97.7429 20.7627 97.8545 20.9699C97.9821 21.1664 98.1416 21.3099 98.3383 21.3949C98.5457 21.4639 98.7636 21.5011 98.9869 21.5011H104.835V24.1253C104.218 24.1943 103.538 24.2528 102.783 24.2953C102.044 24.3378 101.289 24.3749 100.518 24.4015C99.7631 24.4281 99.0454 24.444 98.3596 24.444L98.3543 24.4546Z" fill="black"/>
<path d="M114.112 24.348V11.498H109.854V8.68262H121.492V11.498H117.212V24.348H114.112Z" fill="black"/>
<path d="M126.936 24.348V8.68262H130.04V15.2059H135.888V8.68262H139.015V24.348H135.888V18.0213H130.04V24.348H126.936Z" fill="black"/>
<path d="M149.227 24.4546C148.892 24.4546 148.51 24.4174 148.074 24.3484C147.643 24.29 147.223 24.1518 146.814 23.9234C146.42 23.695 146.096 23.3603 145.83 22.9088C145.58 22.4413 145.453 21.8092 145.453 21.0018V12.2581C145.453 11.5675 145.559 10.9885 145.766 10.521C145.974 10.0536 146.255 9.68703 146.606 9.42143C146.957 9.15582 147.34 8.96459 147.76 8.84772C148.18 8.73617 148.589 8.67773 148.999 8.67773C150.046 8.67773 150.971 8.69367 151.763 8.72023C152.571 8.74679 153.3 8.78398 153.943 8.82647C154.586 8.85303 155.171 8.89553 155.703 8.95396V11.5781H149.918C149.488 11.5781 149.148 11.6844 148.914 11.8969C148.674 12.1093 148.557 12.4334 148.557 12.869V15.1319L154.698 15.3019V17.7773L148.557 17.9473V20.104C148.557 20.4706 148.616 20.7627 148.728 20.9699C148.855 21.1664 149.015 21.3099 149.211 21.3949C149.419 21.4639 149.637 21.5011 149.86 21.5011H155.708V24.1253C155.091 24.1943 154.406 24.2528 153.656 24.2953C152.917 24.3378 152.162 24.3749 151.391 24.4015C150.636 24.4281 149.918 24.444 149.233 24.444L149.227 24.4546Z" fill="black"/>
<path d="M161.732 24.348V8.68262H168.149C168.766 8.68262 169.334 8.7623 169.866 8.91635C170.398 9.05977 170.866 9.30944 171.27 9.67598C171.674 10.0425 171.987 10.5525 172.211 11.2005C172.45 11.8486 172.567 12.6826 172.567 13.6972C172.567 14.4144 172.498 15.0306 172.36 15.5405C172.221 16.0505 172.03 16.4648 171.796 16.7889C171.573 17.1129 171.312 17.3732 171.02 17.5697C170.727 17.7663 170.424 17.931 170.116 18.0584L173.008 24.348H169.845L167.351 18.5472H166.767C166.559 18.5312 166.341 18.5259 166.118 18.5259H165.448C165.225 18.5259 165.023 18.5206 164.842 18.5047V24.348H161.737H161.732ZM164.837 16.0292H167.607C167.888 16.0292 168.138 15.992 168.362 15.923C168.585 15.8539 168.782 15.7318 168.946 15.5618C169.116 15.3758 169.239 15.1368 169.324 14.8446C169.42 14.5472 169.473 14.1647 169.473 13.7025C169.473 13.2669 169.425 12.9057 169.324 12.6242C169.239 12.3267 169.116 12.1036 168.946 11.9442C168.776 11.7743 168.585 11.6627 168.362 11.6043C168.138 11.5352 167.888 11.498 167.607 11.498H164.837V16.0292Z" fill="black"/>
<path d="M178.229 24.348L180.031 8.68262H183.008L186.575 20.6879L190.116 8.68262H193.072L194.896 24.348H191.897L190.557 12.8101L191.041 12.8526L188 24.348H185.087L182.003 12.8526L182.53 12.8314L181.227 24.348H178.229Z" fill="black"/>
<path d="M204.034 8.68262H200.93V24.348H204.034V8.68262Z" fill="black"/>
<path d="M210.601 24.348V8.68262H213.094L219.596 19.0146V8.68262H222.696V24.348H220.202L213.727 14.0213V24.348H210.601Z" fill="black"/>
<path d="M229.033 24.348V8.68262H235.593C236.641 8.68262 237.512 8.87385 238.214 9.25632C238.911 9.62286 239.464 10.1594 239.873 10.8659C240.293 11.5565 240.585 12.3851 240.755 13.3413C240.926 14.3028 241.005 15.3599 241.005 16.5179C241.005 18.2816 240.803 19.7424 240.399 20.9004C240.006 22.0584 239.416 22.9243 238.618 23.5033C237.821 24.0664 236.816 24.348 235.599 24.348H229.038H229.033ZM232.138 21.5325H235.28C235.923 21.5325 236.433 21.3466 236.811 20.9801C237.188 20.5976 237.459 20.0345 237.629 19.2855C237.81 18.5365 237.901 17.6122 237.901 16.5126C237.901 15.498 237.842 14.664 237.73 14.0159C237.619 13.3519 237.454 12.8367 237.225 12.4701C237.018 12.1036 236.742 11.8486 236.407 11.7105C236.088 11.5671 235.71 11.498 235.274 11.498H232.132V21.5325H232.138Z" fill="black"/>
</g>
<defs>
<clipPath id="clip0_9153_85137">
<rect width="241" height="32" fill="white" transform="translate(0 0.571289)"/>
</clipPath>
</defs>
</svg>
