<svg width="198" height="40" viewBox="0 0 198 40" fill="none" xmlns="http://www.w3.org/2000/svg">
<path d="M61.9501 27.9071L55.2038 16.9103H55.1325L55.2275 27.9071H51.2979V11.0918H55.9131L62.6357 22.0648H62.698L62.603 11.0918H66.5564V27.9071H61.9501Z" fill="black"/>
<path d="M74.0004 14.5609V18.027H80.4855V21.3769H74.0004V27.9071H69.9995V11.0918H81.0316V14.5609H74.0004Z" fill="black"/>
<path d="M90.8082 14.5609V27.9071H86.7599V14.5609H82.0259V11.0918H95.5422V14.5609H90.8082Z" fill="black"/>
<path d="M115.321 27.9312C114.146 28.2106 112.943 28.3466 111.736 28.3362C110.471 28.3482 109.215 28.1303 108.029 27.693C106.947 27.2933 105.956 26.6785 105.117 25.8855C104.295 25.0983 103.647 24.1481 103.211 23.0954C102.742 21.947 102.509 20.7154 102.526 19.4744C102.508 18.2197 102.745 16.9744 103.223 15.8148C103.664 14.7593 104.322 13.8086 105.153 13.0246C105.988 12.2478 106.97 11.6464 108.04 11.2559C109.186 10.838 110.398 10.6292 111.617 10.6395C112.873 10.6243 114.121 10.8258 115.309 11.235C116.336 11.5749 117.28 12.1289 118.078 12.8609L115.529 15.782C115.096 15.2962 114.562 14.9119 113.965 14.6564C113.272 14.3527 112.521 14.2024 111.765 14.2157C111.09 14.2084 110.421 14.3422 109.8 14.6088C109.21 14.862 108.678 15.234 108.236 15.7016C107.786 16.1809 107.436 16.7459 107.206 17.3632C106.957 18.0356 106.834 18.7482 106.841 19.4655C106.834 20.1915 106.945 20.9138 107.171 21.6035C107.377 22.2247 107.712 22.7951 108.153 23.277C108.604 23.7551 109.154 24.1281 109.765 24.3698C110.462 24.6415 111.205 24.774 111.952 24.7599C112.404 24.7612 112.856 24.7264 113.303 24.6557C113.711 24.5898 114.11 24.4738 114.49 24.3103V21.2581H111.284V17.9826H118.2V26.886C117.286 27.3496 116.319 27.7005 115.321 27.9312Z" fill="black"/>
<path d="M121.132 17.6953C121.828 17.0327 122.655 16.5253 123.56 16.2064C124.467 15.8769 125.424 15.7086 126.389 15.7092C127.243 15.6889 128.095 15.8137 128.909 16.0784C129.559 16.2989 130.136 16.6932 130.58 17.2189C131.031 17.7903 131.351 18.4556 131.515 19.1663C131.726 20.0808 131.826 21.0178 131.811 21.9565V27.9119H128.25V26.6494H128.178C127.854 27.1609 127.379 27.5584 126.819 27.7869C126.196 28.0603 125.522 28.1984 124.842 28.1918C124.342 28.1909 123.843 28.1269 123.358 28.0013C122.872 27.8807 122.411 27.6751 121.996 27.3938C121.57 27.0981 121.218 26.7078 120.966 26.2533C120.683 25.7123 120.545 25.107 120.566 24.4965C120.529 23.7439 120.778 23.0054 121.263 22.4299C121.757 21.8875 122.374 21.4719 123.062 21.218C123.85 20.9207 124.675 20.7294 125.513 20.6492C126.386 20.5554 127.262 20.5077 128.14 20.5063V20.3068C128.158 20.056 128.111 19.8048 128.003 19.5778C127.895 19.3507 127.731 19.1556 127.526 19.0115C127.073 18.724 126.544 18.5798 126.009 18.5976C125.457 18.5981 124.912 18.719 124.412 18.9519C123.933 19.1686 123.49 19.4567 123.097 19.8065L121.132 17.6953ZM128.256 22.7575H127.76C127.333 22.7575 126.902 22.7783 126.469 22.817C126.075 22.8502 125.686 22.9261 125.308 23.0433C124.997 23.1368 124.71 23.3008 124.471 23.5227C124.359 23.6321 124.271 23.7639 124.214 23.9096C124.156 24.0554 124.129 24.2117 124.136 24.3684C124.13 24.5692 124.184 24.7672 124.29 24.9372C124.392 25.0901 124.527 25.2175 124.685 25.3094C124.853 25.4077 125.037 25.4762 125.228 25.5119C125.424 25.5501 125.623 25.5701 125.822 25.5714C126.152 25.5938 126.484 25.5471 126.796 25.4344C127.107 25.3216 127.392 25.1452 127.632 24.9163C127.848 24.6776 128.014 24.3984 128.122 24.0948C128.229 23.7912 128.276 23.4693 128.259 23.1476L128.256 22.7575Z" fill="black"/>
<path d="M142.345 19.2872C142.178 19.2406 142.007 19.2087 141.834 19.192C141.671 19.192 141.508 19.1681 141.351 19.1681C140.896 19.1537 140.445 19.2508 140.036 19.451C139.708 19.6202 139.419 19.8542 139.184 20.1389C138.973 20.403 138.816 20.7067 138.724 21.0322C138.637 21.2998 138.589 21.5786 138.581 21.86V27.9078H134.699V16.0951H138.439V17.8043H138.486C138.778 17.2059 139.219 16.6931 139.766 16.3155C140.33 15.9294 141 15.7286 141.683 15.7408C141.84 15.7408 141.995 15.7408 142.143 15.7646C142.268 15.7772 142.391 15.8011 142.511 15.836L142.345 19.2872Z" fill="black"/>
<path d="M152.997 27.907V26.3645H152.95C152.558 26.978 151.994 27.4611 151.329 27.7521C150.604 28.0796 149.817 28.2462 149.022 28.2405C148.227 28.2348 147.443 28.0571 146.723 27.7194C146.045 27.3838 145.445 26.9102 144.96 26.3287C144.47 25.7353 144.096 25.0544 143.858 24.3218C143.605 23.5534 143.478 22.7489 143.482 21.9396C143.479 21.1362 143.61 20.338 143.87 19.5782C144.115 18.8535 144.493 18.181 144.983 17.595C145.48 17.0024 146.102 16.5284 146.805 16.2075C147.507 15.8866 148.272 15.7269 149.044 15.7399C149.808 15.7153 150.566 15.8876 151.246 16.2402C151.774 16.5166 152.248 16.8868 152.644 17.333H152.688V9.95117H156.573V27.907H152.997ZM152.855 21.9693C152.854 21.2049 152.581 20.4659 152.086 19.8849C151.837 19.5988 151.535 19.365 151.195 19.1971C150.825 19.018 150.419 18.9283 150.008 18.935C149.591 18.9271 149.177 19.0168 148.8 19.1971C148.466 19.3617 148.169 19.5915 147.925 19.873C147.688 20.1589 147.509 20.4888 147.399 20.8438C147.282 21.2042 147.221 21.5811 147.221 21.9604C147.222 22.3436 147.282 22.7244 147.399 23.089C147.512 23.4486 147.692 23.7832 147.931 24.0746C148.183 24.3797 148.501 24.6237 148.861 24.7882C149.221 24.9527 149.613 25.0334 150.008 25.0245C150.419 25.0327 150.826 24.9429 151.195 24.7625C151.536 24.5966 151.839 24.3625 152.086 24.0746C152.581 23.4937 152.854 22.7546 152.855 21.9902V21.9693Z" fill="black"/>
<path d="M171.345 22.1365V22.6129C171.345 22.7631 171.337 22.9132 171.321 23.0625H162.774C162.803 23.3793 162.904 23.685 163.07 23.9559C163.238 24.2273 163.455 24.4655 163.709 24.6586C164.249 25.0742 164.909 25.303 165.59 25.3107C166.132 25.3277 166.67 25.209 167.154 24.9653C167.564 24.7493 167.92 24.4441 168.196 24.072L170.894 25.7812C170.343 26.5886 169.587 27.2333 168.704 27.6483C167.712 28.097 166.633 28.3158 165.546 28.2885C164.691 28.293 163.842 28.152 163.035 27.8716C162.269 27.6106 161.563 27.1997 160.957 26.6626C160.357 26.1175 159.882 25.4493 159.562 24.7033C159.21 23.8591 159.038 22.9502 159.058 22.0352C159.045 21.1359 159.215 20.2433 159.556 19.4118C159.864 18.661 160.323 17.9819 160.904 17.4167C161.484 16.863 162.168 16.4307 162.916 16.1453C163.718 15.8401 164.569 15.6876 165.427 15.6956C166.239 15.6881 167.045 15.8367 167.801 16.1333C168.51 16.4149 169.148 16.849 169.671 17.4048C170.211 17.9872 170.626 18.6743 170.891 19.4237C171.202 20.2938 171.355 21.2124 171.345 22.1365ZM167.784 20.6476C167.792 20.0607 167.58 19.4921 167.19 19.0545C166.804 18.6108 166.222 18.3905 165.451 18.3905C165.096 18.3862 164.743 18.4467 164.409 18.5691C164.105 18.6799 163.824 18.8443 163.578 19.0545C163.348 19.2568 163.158 19.5002 163.017 19.7721C162.878 20.0421 162.797 20.3383 162.78 20.6416L167.784 20.6476Z" fill="black"/>
<path d="M181.499 27.9072V21.4395C181.5 21.1211 181.473 20.8033 181.419 20.4896C181.37 20.2118 181.278 19.9435 181.145 19.6945C181.02 19.4667 180.836 19.2773 180.611 19.1466C180.346 19.0033 180.048 18.9334 179.748 18.9442C179.432 18.9376 179.12 19.007 178.836 19.1466C178.579 19.2783 178.356 19.4691 178.186 19.7035C178.004 19.9573 177.871 20.2432 177.795 20.5462C177.707 20.8592 177.663 21.1829 177.664 21.508V27.9072H173.758V16.0796H177.521V17.7203H177.56C177.719 17.4493 177.909 17.1984 178.127 16.9729C178.361 16.723 178.632 16.511 178.931 16.3446C179.249 16.1651 179.586 16.0204 179.934 15.9128C180.311 15.8002 180.702 15.744 181.095 15.7461C181.79 15.7253 182.48 15.8724 183.107 16.1749C183.631 16.4335 184.09 16.8082 184.449 17.2707C184.793 17.7352 185.042 18.2635 185.182 18.825C185.33 19.4 185.405 19.9912 185.408 20.5849V27.9072H181.499Z" fill="black"/>
<path d="M15.9426 1.09866L4.07055 7.97129C3.16862 8.49373 2.41956 9.24504 1.8986 10.1498C1.37763 11.0545 1.10309 12.0809 1.10254 13.1258V26.874C1.10309 27.9189 1.37763 28.9452 1.8986 29.85C2.41956 30.7547 3.16862 31.506 4.07055 32.0285L15.9426 38.9011C16.845 39.4238 17.8686 39.699 18.9106 39.699C19.9526 39.699 20.9763 39.4238 21.8787 38.9011L33.7507 32.0285C34.6526 31.506 35.4017 30.7547 35.9227 29.85C36.4436 28.9452 36.7182 27.9189 36.7187 26.874V13.1258C36.7182 12.0809 36.4436 11.0545 35.9227 10.1498C35.4017 9.24504 34.6526 8.49373 33.7507 7.97129L21.8787 1.09866C20.9763 0.575962 19.9526 0.300781 18.9106 0.300781C17.8686 0.300781 16.845 0.575962 15.9426 1.09866Z" fill="url(#paint0_linear_9135_94293)"/>
<path d="M29.1268 11.3152L21.306 6.77412C20.5776 6.35145 19.7509 6.12891 18.9094 6.12891C18.0678 6.12891 17.2412 6.35145 16.5127 6.77412L8.6801 11.3152C7.95517 11.7407 7.3543 12.3497 6.93761 13.0812C6.52092 13.8128 6.30301 14.6414 6.30569 15.484V24.5304C6.30543 25.3753 6.52692 26.2054 6.9479 26.9373C7.36888 27.6691 7.97449 28.2768 8.70385 28.6992L16.5246 33.2313C17.2534 33.6528 18.08 33.8747 18.9212 33.8747C19.7625 33.8747 20.589 33.6528 21.3179 33.2313L29.1268 28.6962C29.8561 28.2738 30.4617 27.6661 30.8827 26.9343C31.3037 26.2025 31.5252 25.3724 31.5249 24.5274V15.484C31.5252 14.6391 31.3037 13.809 30.8827 13.0771C30.4617 12.3453 29.8561 11.7376 29.1268 11.3152ZM19.2581 27.6094H17.5367C15.305 27.6094 13.1648 26.72 11.5868 25.1368C10.0088 23.5536 9.12234 21.4064 9.12234 19.1675V17.3004H10.8408C13.0727 17.3004 15.2132 18.1897 16.7917 19.7728C18.3702 21.3559 19.2573 23.5031 19.2581 25.7423V27.6094ZM19.2314 17.6846L18.5873 17.0384C18.1723 16.6234 17.843 16.1303 17.6183 15.5874C17.3936 15.0445 17.2779 14.4624 17.2779 13.8745C17.2779 13.2867 17.3936 12.7046 17.6183 12.1617C17.843 11.6187 18.1723 11.1257 18.5873 10.7107L19.2848 10.0109L19.9289 10.6571C20.7635 11.4947 21.2324 12.6306 21.2324 13.815C21.2324 14.9994 20.7635 16.1353 19.9289 16.9729L19.2314 17.6846ZM27.5745 15.9664C27.5745 17.4456 26.9888 18.8642 25.9463 19.9102C24.9037 20.9561 23.4898 21.5437 22.0154 21.5437H20.7866V20.4032C20.7866 18.924 21.3723 17.5054 22.4149 16.4595C23.4574 15.4135 24.8714 14.8259 26.3457 14.8259H27.5745V15.9664Z" fill="white"/>
<defs>
<linearGradient id="paint0_linear_9135_94293" x1="4.88973" y1="29.9024" x2="33.2302" y2="10.012" gradientUnits="userSpaceOnUse">
<stop stop-color="#00AAFF"/>
<stop offset="0.48" stop-color="#00D5D6"/>
<stop offset="0.79" stop-color="#00E8C4"/>
<stop offset="1" stop-color="#00FF8A"/>
</linearGradient>
</defs>
</svg>
