<?xml version="1.0" encoding="UTF-8"?>
<svg xmlns="http://www.w3.org/2000/svg" xmlns:xlink="http://www.w3.org/1999/xlink" width="180px" height="34px" viewBox="0 0 177 34" version="1.1">
<g id="surface1">
<path style=" stroke:none;fill-rule:nonzero;fill:rgb(13.725491%,9.411765%,8.235294%);fill-opacity:1;" d="M 45.824219 9.015625 L 51.902344 9.015625 C 53.207031 9.015625 54.28125 9.164062 55.132812 9.457031 C 55.984375 9.753906 56.660156 10.144531 57.160156 10.628906 C 57.660156 11.113281 58.011719 11.679688 58.207031 12.324219 C 58.40625 12.972656 58.507812 13.644531 58.507812 14.347656 C 58.507812 15.09375 58.40625 15.8125 58.207031 16.496094 C 58.007812 17.183594 57.660156 17.785156 57.160156 18.300781 C 56.660156 18.820312 55.992188 19.230469 55.15625 19.53125 C 54.320312 19.835938 53.269531 19.988281 51.996094 19.988281 L 49.324219 19.988281 L 49.324219 26.082031 L 45.820312 26.082031 L 45.820312 9.015625 Z M 51.878906 17.023438 C 52.496094 17.023438 53.007812 16.960938 53.417969 16.832031 C 53.824219 16.703125 54.144531 16.527344 54.382812 16.304688 C 54.617188 16.082031 54.78125 15.808594 54.871094 15.480469 C 54.957031 15.152344 55 14.796875 55 14.417969 C 55 14.039062 54.953125 13.671875 54.859375 13.367188 C 54.765625 13.0625 54.597656 12.8125 54.359375 12.605469 C 54.121094 12.398438 53.796875 12.234375 53.394531 12.125 C 52.992188 12.011719 52.476562 11.957031 51.855469 11.957031 L 49.328125 11.957031 L 49.328125 17.027344 L 51.882812 17.027344 Z M 51.878906 17.023438 "/>
<path style=" stroke:none;fill-rule:nonzero;fill:rgb(13.725491%,9.411765%,8.235294%);fill-opacity:1;" d="M 67.144531 24.503906 C 66.648438 25.066406 66.097656 25.519531 65.484375 25.867188 C 64.871094 26.21875 64.082031 26.394531 63.109375 26.394531 C 62.550781 26.394531 62.023438 26.324219 61.523438 26.175781 C 61.027344 26.03125 60.585938 25.8125 60.214844 25.507812 C 59.839844 25.203125 59.542969 24.816406 59.320312 24.347656 C 59.097656 23.878906 58.988281 23.316406 58.988281 22.664062 C 58.988281 21.804688 59.179688 21.101562 59.5625 20.558594 C 59.945312 20.019531 60.441406 19.59375 61.0625 19.292969 C 61.683594 18.988281 62.378906 18.777344 63.148438 18.644531 C 63.921875 18.519531 64.703125 18.4375 65.5 18.40625 L 67.097656 18.335938 L 67.097656 17.714844 C 67.097656 16.953125 66.886719 16.421875 66.464844 16.140625 C 66.042969 15.851562 65.546875 15.710938 64.976562 15.710938 C 63.65625 15.710938 62.898438 16.210938 62.710938 17.214844 L 59.65625 16.925781 C 59.878906 15.621094 60.453125 14.675781 61.375 14.09375 C 62.296875 13.511719 63.535156 13.222656 65.09375 13.222656 C 66.046875 13.222656 66.859375 13.335938 67.527344 13.566406 C 68.195312 13.800781 68.734375 14.128906 69.136719 14.558594 C 69.542969 14.988281 69.835938 15.511719 70.019531 16.125 C 70.203125 16.742188 70.292969 17.429688 70.292969 18.195312 L 70.292969 26.082031 L 67.144531 26.082031 Z M 67.070312 20.511719 L 65.59375 20.582031 C 64.894531 20.613281 64.332031 20.6875 63.902344 20.800781 C 63.472656 20.910156 63.144531 21.050781 62.914062 21.21875 C 62.679688 21.382812 62.527344 21.578125 62.445312 21.800781 C 62.367188 22.023438 62.328125 22.269531 62.328125 22.542969 C 62.328125 22.957031 62.46875 23.285156 62.753906 23.523438 C 63.042969 23.761719 63.441406 23.882812 63.949219 23.882812 C 64.804688 23.882812 65.503906 23.683594 66.046875 23.285156 C 66.351562 23.0625 66.597656 22.777344 66.789062 22.4375 C 66.980469 22.09375 67.074219 21.667969 67.074219 21.160156 L 67.074219 20.511719 Z M 67.070312 20.511719 "/>
<path style=" stroke:none;fill-rule:nonzero;fill:rgb(13.725491%,9.411765%,8.235294%);fill-opacity:1;" d="M 83.839844 21.566406 C 83.710938 23.066406 83.195312 24.253906 82.300781 25.140625 C 81.402344 26.023438 80.054688 26.464844 78.257812 26.464844 C 77.210938 26.464844 76.304688 26.304688 75.539062 25.984375 C 74.777344 25.667969 74.152344 25.222656 73.667969 24.648438 C 73.183594 24.074219 72.820312 23.378906 72.582031 22.566406 C 72.34375 21.753906 72.222656 20.855469 72.222656 19.867188 C 72.222656 18.878906 72.363281 17.976562 72.640625 17.152344 C 72.917969 16.335938 73.320312 15.632812 73.84375 15.046875 C 74.371094 14.46875 75.015625 14.015625 75.777344 13.699219 C 76.539062 13.378906 77.414062 13.21875 78.402344 13.21875 C 79.246094 13.21875 79.980469 13.328125 80.605469 13.539062 C 81.234375 13.757812 81.761719 14.054688 82.191406 14.4375 C 82.621094 14.820312 82.953125 15.277344 83.195312 15.8125 C 83.429688 16.347656 83.589844 16.929688 83.671875 17.570312 L 80.308594 18.023438 C 80.226562 17.386719 80.046875 16.875 79.757812 16.480469 C 79.472656 16.089844 78.980469 15.894531 78.277344 15.894531 C 77.769531 15.894531 77.347656 16.003906 77.015625 16.214844 C 76.683594 16.433594 76.414062 16.722656 76.214844 17.089844 C 76.019531 17.453125 75.878906 17.875 75.800781 18.34375 C 75.71875 18.8125 75.679688 19.304688 75.679688 19.8125 C 75.679688 20.324219 75.71875 20.84375 75.800781 21.320312 C 75.878906 21.796875 76.015625 22.21875 76.203125 22.585938 C 76.394531 22.953125 76.65625 23.246094 76.992188 23.457031 C 77.324219 23.675781 77.746094 23.777344 78.253906 23.777344 C 78.921875 23.777344 79.4375 23.585938 79.804688 23.203125 C 80.167969 22.820312 80.386719 22.269531 80.449219 21.554688 L 83.835938 21.554688 Z M 83.839844 21.566406 "/>
<path style=" stroke:none;fill-rule:nonzero;fill:rgb(13.725491%,9.411765%,8.235294%);fill-opacity:1;" d="M 86.195312 9.015625 L 89.632812 9.015625 L 89.632812 12.027344 L 86.195312 12.027344 Z M 86.246094 13.605469 L 89.585938 13.605469 L 89.585938 26.082031 L 86.246094 26.082031 Z M 86.246094 13.605469 "/>
<path style=" stroke:none;fill-rule:nonzero;fill:rgb(13.725491%,9.411765%,8.235294%);fill-opacity:1;" d="M 93.375 16.210938 L 91.417969 16.210938 L 91.417969 13.605469 L 93.375 13.605469 L 93.375 13.199219 C 93.375 12.4375 93.484375 11.777344 93.707031 11.214844 C 93.929688 10.660156 94.234375 10.207031 94.625 9.851562 C 95.015625 9.503906 95.472656 9.246094 96 9.078125 C 96.523438 8.910156 97.097656 8.828125 97.714844 8.828125 C 98.113281 8.828125 98.53125 8.851562 98.96875 8.898438 C 99.40625 8.945312 99.851562 9.039062 100.316406 9.1875 L 99.863281 11.625 C 99.351562 11.496094 98.867188 11.433594 98.40625 11.433594 C 97.976562 11.433594 97.585938 11.554688 97.238281 11.804688 C 96.890625 12.050781 96.714844 12.492188 96.714844 13.128906 L 96.714844 13.609375 L 99.597656 13.609375 L 99.597656 16.214844 L 96.714844 16.214844 L 96.714844 26.085938 L 93.375 26.085938 Z M 101.578125 9.015625 L 105.011719 9.015625 L 105.011719 12.027344 L 101.578125 12.027344 Z M 101.625 13.605469 L 104.964844 13.605469 L 104.964844 26.082031 L 101.625 26.082031 Z M 101.625 13.605469 "/>
<path style=" stroke:none;fill-rule:nonzero;fill:rgb(13.725491%,9.411765%,8.235294%);fill-opacity:1;" d="M 119.128906 21.566406 C 119.003906 23.066406 118.488281 24.253906 117.589844 25.140625 C 116.691406 26.023438 115.34375 26.464844 113.546875 26.464844 C 112.5 26.464844 111.59375 26.304688 110.828125 25.984375 C 110.066406 25.667969 109.441406 25.222656 108.957031 24.648438 C 108.472656 24.074219 108.109375 23.378906 107.871094 22.566406 C 107.632812 21.753906 107.515625 20.855469 107.515625 19.867188 C 107.515625 18.878906 107.652344 17.976562 107.929688 17.152344 C 108.207031 16.335938 108.613281 15.632812 109.136719 15.046875 C 109.660156 14.46875 110.304688 14.015625 111.070312 13.699219 C 111.832031 13.378906 112.707031 13.21875 113.691406 13.21875 C 114.535156 13.21875 115.269531 13.328125 115.898438 13.539062 C 116.527344 13.757812 117.054688 14.054688 117.480469 14.4375 C 117.910156 14.820312 118.242188 15.277344 118.484375 15.8125 C 118.722656 16.347656 118.882812 16.929688 118.960938 17.570312 L 115.597656 18.023438 C 115.519531 17.386719 115.335938 16.875 115.050781 16.480469 C 114.761719 16.089844 114.269531 15.894531 113.570312 15.894531 C 113.0625 15.894531 112.636719 16.003906 112.304688 16.214844 C 111.972656 16.433594 111.703125 16.722656 111.507812 17.089844 C 111.308594 17.457031 111.167969 17.875 111.089844 18.34375 C 111.011719 18.8125 110.96875 19.304688 110.96875 19.8125 C 110.96875 20.324219 111.011719 20.84375 111.089844 21.320312 C 111.171875 21.796875 111.304688 22.21875 111.496094 22.585938 C 111.6875 22.953125 111.949219 23.246094 112.28125 23.457031 C 112.613281 23.675781 113.035156 23.777344 113.542969 23.777344 C 114.214844 23.777344 114.730469 23.585938 115.09375 23.203125 C 115.460938 22.820312 115.675781 22.269531 115.738281 21.554688 L 119.125 21.554688 Z M 119.128906 21.566406 "/>
<path style=" stroke:none;fill-rule:nonzero;fill:rgb(13.725491%,9.411765%,8.235294%);fill-opacity:1;" d="M 125.039062 8.921875 L 129.304688 8.921875 L 133.550781 21.660156 L 137.914062 8.921875 L 142.0625 8.921875 L 142.0625 25.988281 L 138.796875 25.988281 L 138.796875 14.609375 L 134.910156 25.988281 L 132.144531 25.988281 L 128.234375 14.632812 L 128.234375 25.988281 L 125.039062 25.988281 Z M 125.039062 8.921875 "/>
<path style=" stroke:none;fill-rule:nonzero;fill:rgb(13.725491%,9.411765%,8.235294%);fill-opacity:1;" d="M 155.730469 22.089844 C 155.507812 23.496094 154.945312 24.558594 154.046875 25.285156 C 153.152344 26.007812 151.84375 26.371094 150.125 26.371094 C 148.0625 26.371094 146.507812 25.796875 145.464844 24.652344 C 144.421875 23.503906 143.902344 21.878906 143.902344 19.773438 C 143.902344 18.722656 144.054688 17.785156 144.355469 16.964844 C 144.65625 16.144531 145.082031 15.445312 145.632812 14.871094 C 146.179688 14.296875 146.835938 13.863281 147.597656 13.566406 C 148.363281 13.273438 149.203125 13.125 150.125 13.125 C 152.035156 13.125 153.46875 13.675781 154.429688 14.777344 C 155.394531 15.875 155.875 17.355469 155.875 19.222656 L 155.875 20.5625 L 147.242188 20.5625 C 147.273438 21.566406 147.527344 22.351562 148.003906 22.917969 C 148.484375 23.480469 149.199219 23.765625 150.152344 23.765625 C 151.472656 23.765625 152.25 23.210938 152.488281 22.09375 L 155.730469 22.09375 Z M 152.652344 18.363281 C 152.652344 17.503906 152.441406 16.832031 152.019531 16.351562 C 151.597656 15.875 150.945312 15.636719 150.054688 15.636719 C 149.609375 15.636719 149.21875 15.707031 148.882812 15.851562 C 148.550781 15.996094 148.269531 16.191406 148.035156 16.4375 C 147.804688 16.6875 147.625 16.972656 147.5 17.296875 C 147.375 17.625 147.300781 17.976562 147.285156 18.363281 Z M 152.652344 18.363281 "/>
<path style=" stroke:none;fill-rule:nonzero;fill:rgb(13.725491%,9.411765%,8.235294%);fill-opacity:1;" d="M 158.660156 16.113281 L 156.707031 16.113281 L 156.707031 13.507812 L 158.660156 13.507812 L 158.660156 10.1875 L 162 10.1875 L 162 13.507812 L 164.863281 13.507812 L 164.863281 16.113281 L 162 16.113281 L 162 21.875 C 162 22.527344 162.136719 22.96875 162.402344 23.199219 C 162.671875 23.433594 163.023438 23.546875 163.453125 23.546875 C 163.675781 23.546875 163.902344 23.535156 164.132812 23.511719 C 164.363281 23.484375 164.589844 23.441406 164.8125 23.378906 L 165.289062 25.839844 C 164.828125 25.984375 164.378906 26.085938 163.941406 26.140625 C 163.503906 26.195312 163.089844 26.222656 162.691406 26.222656 C 161.320312 26.222656 160.3125 25.894531 159.652344 25.242188 C 158.992188 24.589844 158.660156 23.492188 158.660156 21.945312 Z M 158.660156 16.113281 "/>
<path style=" stroke:none;fill-rule:nonzero;fill:rgb(13.725491%,9.411765%,8.235294%);fill-opacity:1;" d="M 173.851562 24.410156 C 173.359375 24.96875 172.808594 25.421875 172.191406 25.773438 C 171.578125 26.121094 170.789062 26.296875 169.820312 26.296875 C 169.261719 26.296875 168.734375 26.226562 168.234375 26.082031 C 167.734375 25.9375 167.296875 25.714844 166.925781 25.410156 C 166.550781 25.109375 166.253906 24.722656 166.03125 24.25 C 165.808594 23.78125 165.695312 23.21875 165.695312 22.566406 C 165.695312 21.707031 165.886719 21.007812 166.269531 20.460938 C 166.652344 19.921875 167.152344 19.5 167.773438 19.195312 C 168.390625 18.894531 169.089844 18.679688 169.859375 18.550781 C 170.628906 18.421875 171.414062 18.34375 172.207031 18.3125 L 173.804688 18.242188 L 173.804688 17.621094 C 173.804688 16.855469 173.597656 16.328125 173.171875 16.042969 C 172.75 15.757812 172.253906 15.613281 171.683594 15.613281 C 170.363281 15.613281 169.609375 16.113281 169.417969 17.117188 L 166.367188 16.832031 C 166.589844 15.523438 167.160156 14.582031 168.082031 13.996094 C 169.003906 13.417969 170.246094 13.125 171.804688 13.125 C 172.757812 13.125 173.570312 13.242188 174.238281 13.472656 C 174.90625 13.703125 175.441406 14.035156 175.847656 14.464844 C 176.25 14.894531 176.546875 15.417969 176.730469 16.03125 C 176.910156 16.644531 177.003906 17.332031 177.003906 18.097656 L 177.003906 25.984375 L 173.855469 25.984375 L 173.855469 24.410156 Z M 173.78125 20.417969 L 172.304688 20.488281 C 171.605469 20.519531 171.039062 20.59375 170.613281 20.703125 C 170.183594 20.816406 169.851562 20.953125 169.621094 21.121094 C 169.390625 21.289062 169.238281 21.484375 169.15625 21.707031 C 169.078125 21.929688 169.035156 22.175781 169.035156 22.445312 C 169.035156 22.859375 169.179688 23.1875 169.464844 23.425781 C 169.75 23.664062 170.148438 23.785156 170.65625 23.785156 C 171.515625 23.785156 172.214844 23.585938 172.757812 23.1875 C 173.058594 22.964844 173.304688 22.683594 173.496094 22.34375 C 173.6875 22 173.785156 21.574219 173.785156 21.0625 L 173.785156 20.417969 Z M 173.78125 20.417969 "/>
<path style=" stroke:none;fill-rule:nonzero;fill:rgb(17.254902%,0%,100%);fill-opacity:1;" d="M 33.917969 17 C 33.917969 17.972656 33.839844 18.921875 33.675781 19.847656 C 30.75 19.5 27.296875 20.414062 25.476562 21.699219 C 22.4375 23.84375 18.570312 25.851562 16.640625 22.53125 C 15.125 19.929688 8.808594 20.882812 2.296875 25.539062 C 1.832031 24.742188 1.429688 23.898438 1.101562 23.023438 C 4.847656 20.5625 9.59375 18.15625 12.460938 18.15625 C 14.949219 18.15625 16.058594 19.171875 16.550781 20.019531 C 16.730469 20.320312 16.925781 20.578125 17.15625 20.78125 C 17.230469 20.847656 17.3125 20.914062 17.410156 20.980469 C 17.445312 21.003906 17.484375 21.027344 17.523438 21.050781 C 17.625 21.109375 17.714844 21.148438 17.800781 21.179688 C 18.070312 21.289062 18.371094 21.34375 18.703125 21.34375 L 18.839844 21.34375 L 18.925781 21.332031 C 18.925781 21.332031 21.898438 21.554688 23.070312 15.585938 C 23.199219 14.921875 23.332031 14.296875 23.507812 13.714844 C 24.617188 9.882812 26.171875 7.410156 27.5625 5.84375 C 24.429688 6.515625 21.0625 7.742188 17.539062 9.492188 C 11.933594 12.273438 5.121094 16.96875 0.546875 21.292969 C 0.191406 19.917969 0 18.480469 0 17 C 0 7.613281 7.589844 0 16.957031 0 C 26.324219 0 33.917969 7.613281 33.917969 17 Z M 33.917969 17 "/>
<path style=" stroke:none;fill-rule:nonzero;fill:rgb(17.254902%,0%,100%);fill-opacity:1;" d="M 33.308594 21.578125 C 33.101562 22.3125 32.84375 23.035156 32.546875 23.722656 L 32.539062 23.722656 C 30.402344 23.953125 28.320312 24.667969 27.046875 25.570312 C 24.003906 27.714844 20.140625 29.726562 18.203125 26.402344 C 16.761719 23.925781 10.9375 24.679688 4.75 28.800781 C 4.242188 28.273438 3.769531 27.710938 3.328125 27.117188 C 9.726562 22.660156 15.867188 21.777344 17.355469 24.332031 C 19.289062 27.652344 23.152344 25.644531 26.191406 23.5 C 27.789062 22.371094 30.648438 21.539062 33.296875 21.578125 Z M 33.308594 21.578125 "/>
<path style=" stroke:none;fill-rule:nonzero;fill:rgb(17.254902%,0%,100%);fill-opacity:1;" d="M 31.453125 25.832031 C 31.347656 26 31.246094 26.167969 31.132812 26.332031 C 31.097656 26.386719 31.058594 26.445312 31.019531 26.5 C 30.929688 26.632812 30.839844 26.765625 30.746094 26.898438 C 30.5 27.246094 30.234375 27.582031 29.960938 27.910156 C 29.824219 28.074219 29.683594 28.230469 29.539062 28.394531 C 29.527344 28.40625 29.519531 28.414062 29.507812 28.425781 C 29.375 28.570312 29.246094 28.707031 29.113281 28.847656 C 29.113281 28.855469 29.101562 28.863281 29.097656 28.867188 C 28.953125 29.015625 28.804688 29.160156 28.65625 29.304688 C 28.65625 29.304688 28.652344 29.308594 28.648438 29.308594 C 28.496094 29.453125 28.335938 29.597656 28.175781 29.738281 C 28.164062 29.742188 28.160156 29.753906 28.144531 29.757812 C 28.144531 29.757812 28.144531 29.757812 28.140625 29.761719 C 25.25 31.722656 21.78125 33.34375 19.902344 30.496094 C 19.859375 30.421875 19.808594 30.347656 19.765625 30.273438 C 18.472656 28.039062 13.628906 28.425781 8.15625 31.53125 C 7.464844 31.109375 6.808594 30.644531 6.183594 30.128906 C 12.101562 26.421875 17.527344 25.820312 18.914062 28.203125 C 20.847656 31.523438 24.714844 29.515625 27.753906 27.371094 C 28.664062 26.722656 29.988281 26.175781 31.449219 25.832031 Z M 31.453125 25.832031 "/>
<path style=" stroke:none;fill-rule:nonzero;fill:rgb(17.254902%,0%,100%);fill-opacity:1;" d="M 21.65625 33.34375 C 21.390625 33.421875 21.121094 33.492188 20.847656 33.558594 C 20.84375 33.558594 20.84375 33.554688 20.835938 33.554688 C 21.109375 33.484375 21.375 33.417969 21.644531 33.335938 L 21.648438 33.335938 C 21.648438 33.335938 21.648438 33.34375 21.652344 33.34375 Z M 21.65625 33.34375 "/>
<path style=" stroke:none;fill-rule:nonzero;fill:rgb(17.254902%,0%,100%);fill-opacity:1;" d="M 21.644531 33.335938 C 21.378906 33.414062 21.109375 33.484375 20.835938 33.554688 C 19.585938 33.84375 18.289062 34 16.957031 34 C 15.773438 34 14.613281 33.875 13.496094 33.648438 L 13.492188 33.648438 C 12.359375 33.410156 11.273438 33.058594 10.234375 32.613281 C 11.800781 31.832031 13.292969 31.292969 14.636719 30.980469 L 14.640625 30.980469 C 15.558594 30.761719 16.40625 30.660156 17.15625 30.660156 C 17.394531 30.660156 17.621094 30.671875 17.835938 30.6875 C 19.089844 30.808594 20.015625 31.273438 20.484375 32.078125 C 20.816406 32.648438 21.210938 33.0625 21.648438 33.339844 Z M 21.644531 33.335938 "/>
<path style=" stroke:none;fill-rule:nonzero;fill:rgb(17.254902%,0%,100%);fill-opacity:1;" d="M 31.453125 25.832031 C 31.347656 26 31.246094 26.167969 31.132812 26.332031 C 31.097656 26.386719 31.058594 26.445312 31.019531 26.5 C 30.929688 26.632812 30.839844 26.765625 30.746094 26.898438 C 30.5 27.246094 30.234375 27.582031 29.960938 27.910156 C 29.824219 28.074219 29.683594 28.230469 29.539062 28.394531 C 29.527344 28.40625 29.519531 28.414062 29.507812 28.425781 C 29.375 28.570312 29.246094 28.707031 29.113281 28.847656 C 29.113281 28.855469 29.101562 28.863281 29.097656 28.867188 C 28.953125 29.015625 28.804688 29.160156 28.65625 29.304688 C 28.65625 29.304688 28.652344 29.308594 28.648438 29.308594 C 28.496094 29.453125 28.335938 29.597656 28.175781 29.738281 C 28.164062 29.742188 28.160156 29.753906 28.144531 29.757812 C 28.144531 29.757812 28.144531 29.757812 28.140625 29.761719 C 25.25 31.722656 21.78125 33.34375 19.902344 30.496094 C 19.859375 30.421875 19.808594 30.347656 19.765625 30.273438 C 18.472656 28.039062 13.628906 28.425781 8.15625 31.53125 C 7.464844 31.109375 6.808594 30.644531 6.183594 30.128906 C 12.101562 26.421875 17.527344 25.820312 18.914062 28.203125 C 20.847656 31.523438 24.714844 29.515625 27.753906 27.371094 C 28.664062 26.722656 29.988281 26.175781 31.449219 25.832031 Z M 31.453125 25.832031 "/>
<path style=" stroke:none;fill-rule:nonzero;fill:rgb(17.254902%,0%,100%);fill-opacity:1;" d="M 33.296875 21.578125 C 33.089844 22.316406 32.835938 23.035156 32.535156 23.722656 C 30.398438 23.953125 28.320312 24.667969 27.042969 25.570312 C 24.003906 27.714844 20.136719 29.726562 18.199219 26.402344 C 16.761719 23.925781 10.9375 24.679688 4.75 28.800781 C 4.238281 28.273438 3.765625 27.710938 3.328125 27.117188 C 9.722656 22.660156 15.863281 21.777344 17.351562 24.332031 C 19.285156 27.652344 23.148438 25.644531 26.1875 23.5 C 27.785156 22.371094 30.644531 21.539062 33.292969 21.578125 Z M 33.296875 21.578125 "/>
<path style=" stroke:none;fill-rule:nonzero;fill:rgb(17.254902%,0%,100%);fill-opacity:1;" d="M 33.917969 17 C 33.917969 17.972656 33.839844 18.921875 33.675781 19.847656 C 30.75 19.5 27.296875 20.414062 25.476562 21.699219 C 22.4375 23.84375 18.570312 25.851562 16.640625 22.53125 C 15.125 19.929688 8.808594 20.882812 2.296875 25.539062 C 1.832031 24.742188 1.429688 23.898438 1.101562 23.023438 C 4.847656 20.5625 9.59375 18.15625 12.460938 18.15625 C 14.949219 18.15625 16.058594 19.171875 16.550781 20.019531 C 16.730469 20.320312 16.925781 20.578125 17.15625 20.78125 C 17.230469 20.847656 17.3125 20.914062 17.410156 20.980469 C 17.445312 21.003906 17.484375 21.027344 17.523438 21.050781 C 17.625 21.109375 17.714844 21.148438 17.800781 21.179688 C 18.070312 21.289062 18.371094 21.34375 18.703125 21.34375 L 18.839844 21.34375 L 18.925781 21.332031 C 18.925781 21.332031 21.898438 21.554688 23.070312 15.585938 C 23.199219 14.921875 23.332031 14.296875 23.507812 13.714844 C 24.617188 9.882812 26.171875 7.410156 27.5625 5.84375 C 24.429688 6.515625 21.0625 7.742188 17.539062 9.492188 C 11.933594 12.273438 5.121094 16.96875 0.546875 21.292969 C 0.191406 19.917969 0 18.480469 0 17 C 0 7.613281 7.589844 0 16.957031 0 C 26.324219 0 33.917969 7.613281 33.917969 17 Z M 33.917969 17 "/>
</g>
</svg>
