<?xml version="1.0" encoding="UTF-8"?>
<svg id="_レイヤー_2" data-name="レイヤー 2" xmlns="http://www.w3.org/2000/svg" viewBox="0 0 574.08 110.01">
  <defs>
    <style>
      .cls-1 {
        fill: #231815;
      }

      .cls-2 {
        fill: #2c00ff;
      }
    </style>
  </defs>
  <g id="_4_Pacific_Meta_logo2" data-name="4｜Pacific Meta logo2">
    <g id="Pacific_Meta_logo2" data-name="Pacific Meta logo2">
      <g>
        <g>
          <path class="cls-1" d="M148.62,29.17h19.72c4.23,0,7.72.48,10.48,1.43,2.76.96,4.95,2.22,6.57,3.79,1.62,1.57,2.76,3.4,3.4,5.49.64,2.09.97,4.27.97,6.54,0,2.42-.32,4.74-.97,6.96-.65,2.22-1.78,4.16-3.4,5.84s-3.79,3-6.5,3.98c-2.71.98-6.12,1.47-10.25,1.47h-8.66v19.72h-11.37V29.17ZM168.26,55.08c2.01,0,3.67-.2,4.99-.62s2.36-.98,3.13-1.7c.77-.72,1.3-1.61,1.59-2.67.28-1.06.42-2.21.42-3.44s-.15-2.42-.46-3.4c-.31-.98-.85-1.8-1.62-2.47-.77-.67-1.82-1.19-3.13-1.55-1.31-.36-2.98-.54-4.99-.54h-8.2v16.4h8.28Z"/>
          <path class="cls-1" d="M217.77,79.29c-1.6,1.81-3.39,3.28-5.38,4.41-1.99,1.13-4.55,1.7-7.7,1.7-1.81,0-3.52-.23-5.14-.7s-3.04-1.18-4.25-2.17c-1.21-.98-2.18-2.23-2.9-3.75-.72-1.52-1.08-3.34-1.08-5.45,0-2.78.62-5.05,1.86-6.81,1.24-1.75,2.86-3.12,4.87-4.1,2.01-.98,4.27-1.67,6.77-2.09,2.5-.41,5.04-.67,7.62-.77l5.18-.23v-2.01c0-2.47-.68-4.18-2.05-5.1-1.37-.93-2.98-1.39-4.83-1.39-4.28,0-6.73,1.62-7.35,4.87l-9.9-.93c.72-4.23,2.58-7.28,5.57-9.17,2.99-1.88,7.01-2.82,12.07-2.82,3.09,0,5.72.37,7.89,1.12,2.17.75,3.91,1.82,5.22,3.21,1.31,1.39,2.27,3.08,2.86,5.07.59,1.99.89,4.21.89,6.69v25.52h-10.21v-5.1ZM217.54,66.37l-4.79.23c-2.27.1-4.1.34-5.49.7-1.39.36-2.46.81-3.21,1.35-.75.54-1.25,1.17-1.51,1.89-.26.72-.39,1.52-.39,2.4,0,1.34.46,2.4,1.39,3.17.93.77,2.22,1.16,3.87,1.16,2.78,0,5.05-.64,6.81-1.93.98-.72,1.78-1.64,2.4-2.74.62-1.11.93-2.49.93-4.14v-2.09Z"/>
          <path class="cls-1" d="M271.92,69.78c-.41,4.85-2.08,8.7-4.99,11.56-2.91,2.86-7.28,4.29-13.11,4.29-3.4,0-6.34-.52-8.82-1.55-2.47-1.03-4.5-2.47-6.07-4.33-1.57-1.86-2.75-4.1-3.52-6.73-.77-2.63-1.16-5.54-1.16-8.74s.45-6.12,1.35-8.78c.9-2.65,2.21-4.92,3.91-6.81,1.7-1.88,3.79-3.34,6.27-4.37,2.47-1.03,5.31-1.55,8.51-1.55,2.73,0,5.12.35,7.15,1.04,2.04.7,3.75,1.66,5.14,2.9,1.39,1.24,2.47,2.72,3.25,4.45.77,1.73,1.29,3.62,1.55,5.69l-10.91,1.47c-.26-2.06-.85-3.72-1.78-4.99s-2.53-1.9-4.8-1.9c-1.65,0-3.02.35-4.1,1.04-1.08.7-1.95,1.64-2.59,2.82s-1.1,2.54-1.35,4.06c-.26,1.52-.39,3.11-.39,4.76s.13,3.33.39,4.87c.26,1.55.7,2.91,1.31,4.1.62,1.19,1.47,2.13,2.55,2.82,1.08.7,2.45,1.04,4.1,1.04,2.17,0,3.84-.62,5.03-1.86,1.18-1.24,1.88-3.02,2.09-5.34h10.98Z"/>
          <path class="cls-1" d="M279.57,29.17h11.14v9.75h-11.14v-9.75ZM279.73,44.02h10.83v40.37h-10.83v-40.37Z"/>
          <path class="cls-1" d="M302.85,52.45h-6.34v-8.43h6.34v-1.31c0-2.47.36-4.61,1.08-6.42.72-1.8,1.71-3.27,2.98-4.41,1.26-1.13,2.75-1.97,4.45-2.51,1.7-.54,3.56-.81,5.57-.81,1.29,0,2.64.08,4.06.23,1.42.15,2.87.46,4.37.93l-1.47,7.89c-1.65-.41-3.22-.62-4.72-.62-1.39,0-2.66.4-3.79,1.2-1.13.8-1.7,2.23-1.7,4.29v1.55h9.36v8.43h-9.36v31.94h-10.83v-31.94ZM329.46,29.17h11.14v9.75h-11.14v-9.75ZM329.61,44.02h10.83v40.37h-10.83v-40.37Z"/>
          <path class="cls-1" d="M386.38,69.78c-.41,4.85-2.08,8.7-4.99,11.56-2.91,2.86-7.28,4.29-13.11,4.29-3.4,0-6.34-.52-8.82-1.55-2.47-1.03-4.5-2.47-6.07-4.33-1.57-1.86-2.75-4.1-3.52-6.73s-1.16-5.54-1.16-8.74.45-6.12,1.35-8.78c.9-2.65,2.21-4.92,3.91-6.81,1.7-1.88,3.79-3.34,6.27-4.37,2.47-1.03,5.31-1.55,8.51-1.55,2.73,0,5.12.35,7.15,1.04,2.04.7,3.75,1.66,5.14,2.9,1.39,1.24,2.47,2.72,3.25,4.45.77,1.73,1.29,3.62,1.55,5.69l-10.91,1.47c-.26-2.06-.85-3.72-1.78-4.99s-2.53-1.9-4.8-1.9c-1.65,0-3.02.35-4.1,1.04-1.08.7-1.95,1.64-2.59,2.82-.64,1.19-1.1,2.54-1.35,4.06s-.39,3.11-.39,4.76.13,3.33.39,4.87c.26,1.55.7,2.91,1.31,4.1.62,1.19,1.47,2.13,2.55,2.82,1.08.7,2.45,1.04,4.1,1.04,2.17,0,3.84-.62,5.03-1.86,1.18-1.24,1.88-3.02,2.09-5.34h10.98Z"/>
        </g>
        <g>
          <path class="cls-1" d="M405.55,28.86h13.84l13.77,41.23,14.15-41.23h13.46v55.23h-10.6v-36.82l-12.61,36.82h-8.97l-12.68-36.74v36.74h-10.36V28.86Z"/>
          <path class="cls-1" d="M505.09,71.48c-.72,4.54-2.54,7.98-5.45,10.33-2.91,2.34-7.15,3.52-12.72,3.52-6.7,0-11.74-1.86-15.12-5.57-3.38-3.71-5.07-8.97-5.07-15.78,0-3.4.49-6.43,1.47-9.09.98-2.65,2.36-4.91,4.14-6.77,1.78-1.86,3.91-3.26,6.38-4.22,2.48-.95,5.21-1.43,8.2-1.43,6.19,0,10.84,1.78,13.96,5.34,3.12,3.56,4.68,8.35,4.68,14.39v4.33h-28c.1,3.25.93,5.79,2.48,7.62,1.55,1.83,3.87,2.75,6.96,2.75,4.28,0,6.81-1.8,7.58-5.41h10.52ZM495.11,59.41c0-2.78-.68-4.95-2.05-6.5-1.37-1.55-3.49-2.32-6.38-2.32-1.44,0-2.71.23-3.79.7s-2,1.1-2.75,1.9-1.33,1.73-1.74,2.78c-.41,1.06-.65,2.2-.7,3.44h17.4Z"/>
          <path class="cls-1" d="M514.6,52.14h-6.34v-8.43h6.34v-10.75h10.83v10.75h9.28v8.43h-9.28v18.64c0,2.11.44,3.54,1.31,4.29s2.01,1.12,3.4,1.12c.72,0,1.46-.04,2.21-.12.75-.08,1.48-.22,2.2-.43l1.55,7.97c-1.5.46-2.95.79-4.37.97-1.42.18-2.77.27-4.06.27-4.44,0-7.72-1.06-9.86-3.17-2.14-2.11-3.21-5.67-3.21-10.67v-18.87Z"/>
          <path class="cls-1" d="M563.87,78.98c-1.6,1.81-3.39,3.28-5.38,4.41-1.99,1.13-4.55,1.7-7.7,1.7-1.81,0-3.52-.23-5.14-.7s-3.04-1.18-4.25-2.17c-1.21-.98-2.18-2.23-2.9-3.75-.72-1.52-1.08-3.34-1.08-5.45,0-2.78.62-5.05,1.86-6.81,1.24-1.75,2.86-3.12,4.87-4.1,2.01-.98,4.27-1.67,6.77-2.09,2.5-.41,5.04-.67,7.62-.77l5.18-.23v-2.01c0-2.47-.68-4.18-2.05-5.1-1.37-.93-2.98-1.39-4.83-1.39-4.28,0-6.73,1.62-7.35,4.87l-9.9-.93c.72-4.23,2.58-7.28,5.57-9.17,2.99-1.88,7.01-2.82,12.07-2.82,3.09,0,5.72.37,7.89,1.12s3.91,1.82,5.22,3.21c1.31,1.39,2.27,3.08,2.86,5.07.59,1.99.89,4.21.89,6.69v25.52h-10.21v-5.1ZM563.64,66.06l-4.79.23c-2.27.1-4.1.34-5.49.7-1.39.36-2.46.81-3.21,1.35-.75.54-1.25,1.17-1.51,1.89-.26.72-.39,1.52-.39,2.4,0,1.34.46,2.4,1.39,3.17.93.77,2.22,1.16,3.87,1.16,2.78,0,5.05-.64,6.81-1.93.98-.72,1.78-1.64,2.4-2.74.62-1.11.93-2.49.93-4.14v-2.09Z"/>
        </g>
      </g>
      <g>
        <g>
          <path class="cls-2" d="M110.01,55c0,3.15-.26,6.22-.78,9.22-9.49-1.12-20.7,1.83-26.6,5.99-9.86,6.94-22.4,13.44-28.66,2.69-4.91-8.42-25.4-5.33-46.52,9.74-1.51-2.58-2.81-5.31-3.88-8.14,12.15-7.97,27.55-15.75,36.85-15.75,8.06,0,11.66,3.28,13.26,6.03.58.97,1.22,1.8,1.97,2.46.23.22.5.43.82.64.11.08.24.16.36.23.34.19.62.32.9.42.88.35,1.86.53,2.93.53h.44l.28-.04s9.64.72,13.44-18.59c.42-2.15.86-4.17,1.42-6.06,3.6-12.4,8.65-20.4,13.16-25.46-10.17,2.17-21.09,6.14-32.51,11.8C38.71,39.71,16.61,54.91,1.77,68.89c-1.15-4.44-1.77-9.09-1.77-13.89C0,24.63,24.62,0,55,0s55.01,24.63,55.01,55Z"/>
          <path class="cls-2" d="M108.03,69.82c-.67,2.38-1.5,4.71-2.47,6.94h-.02c-6.93.74-13.68,3.06-17.82,5.98-9.86,6.94-22.4,13.44-28.68,2.69-4.67-8.02-23.56-5.57-43.63,7.76-1.65-1.71-3.19-3.53-4.61-5.45,20.75-14.42,40.66-17.28,45.49-9.01,6.27,10.74,18.8,4.25,28.66-2.69,5.18-3.66,14.45-6.35,23.04-6.22h.04Z"/>
          <path class="cls-2" d="M102.01,83.58c-.34.55-.67,1.09-1.03,1.62-.12.18-.24.37-.37.55-.29.43-.59.86-.89,1.28-.8,1.13-1.66,2.22-2.55,3.28-.44.53-.9,1.04-1.36,1.56-.04.04-.07.07-.1.11-.43.46-.85.91-1.28,1.36-.01.02-.04.05-.06.06-.47.48-.95.95-1.43,1.42,0,0-.01.01-.02.01-.49.47-1.01.94-1.53,1.39-.04.02-.06.05-.1.06t-.02.02c-9.37,6.35-20.63,11.59-26.72,2.37-.14-.23-.3-.47-.44-.72-4.2-7.22-19.91-5.97-37.65,4.08-2.25-1.37-4.38-2.88-6.4-4.54,19.19-12,36.79-13.95,41.28-6.24,6.28,10.75,18.82,4.25,28.68-2.69,2.95-2.09,7.24-3.87,11.98-4.98Z"/>
          <path class="cls-2" d="M70.24,107.89c-.86.25-1.74.48-2.62.7-.01-.01-.02-.02-.04-.02.88-.22,1.75-.44,2.62-.7h.01s.01.02.02.02Z"/>
        </g>
        <path class="cls-2" d="M70.2,107.87c-.86.25-1.74.48-2.62.7-4.05.94-8.26,1.44-12.58,1.44-3.84,0-7.6-.4-11.23-1.14h-.01c-3.67-.77-7.2-1.9-10.57-3.35,5.09-2.52,9.93-4.27,14.28-5.28h.01c2.98-.71,5.73-1.04,8.17-1.04.77,0,1.5.04,2.2.1,4.07.38,7.07,1.89,8.59,4.49,1.08,1.85,2.35,3.19,3.77,4.09Z"/>
        <path class="cls-2" d="M102.01,83.58c-.34.55-.67,1.09-1.03,1.62-.12.18-.24.37-.37.55-.29.43-.59.86-.89,1.28-.8,1.13-1.66,2.22-2.55,3.28-.44.53-.9,1.04-1.36,1.56-.04.04-.07.07-.1.11-.43.46-.85.91-1.28,1.36-.01.02-.04.05-.06.06-.47.48-.95.95-1.43,1.42,0,0-.01.01-.02.01-.49.47-1.01.94-1.53,1.39-.04.02-.06.05-.1.06t-.02.02c-9.37,6.35-20.63,11.59-26.72,2.37-.14-.23-.3-.47-.44-.72-4.2-7.22-19.91-5.97-37.65,4.08-2.25-1.37-4.38-2.88-6.4-4.54,19.19-12,36.79-13.95,41.28-6.24,6.28,10.75,18.82,4.25,28.68-2.69,2.95-2.09,7.24-3.87,11.98-4.98Z"/>
        <path class="cls-2" d="M107.99,69.82c-.67,2.39-1.49,4.71-2.46,6.94-6.93.74-13.68,3.06-17.82,5.98-9.86,6.94-22.4,13.44-28.68,2.69-4.67-8.02-23.56-5.57-43.63,7.76-1.65-1.71-3.19-3.53-4.61-5.45,20.75-14.42,40.66-17.28,45.49-9.01,6.27,10.74,18.8,4.25,28.66-2.69,5.18-3.66,14.45-6.35,23.04-6.22Z"/>
        <path class="cls-2" d="M110.01,55c0,3.15-.26,6.22-.78,9.22-9.49-1.12-20.7,1.83-26.6,5.99-9.86,6.94-22.4,13.44-28.66,2.69-4.91-8.42-25.4-5.33-46.52,9.74-1.51-2.58-2.81-5.31-3.88-8.14,12.15-7.97,27.55-15.75,36.85-15.75,8.06,0,11.66,3.28,13.26,6.03.58.97,1.22,1.8,1.97,2.46.23.22.5.43.82.64.11.08.24.16.36.23.34.19.62.32.9.42.88.35,1.86.53,2.93.53h.44l.28-.04s9.64.72,13.44-18.59c.42-2.15.86-4.17,1.42-6.06,3.6-12.4,8.65-20.4,13.16-25.46-10.17,2.17-21.09,6.14-32.51,11.8C38.71,39.71,16.61,54.91,1.77,68.89c-1.15-4.44-1.77-9.09-1.77-13.89C0,24.63,24.62,0,55,0s55.01,24.63,55.01,55Z"/>
      </g>
    </g>
  </g>
</svg>