<svg width="82" height="33" viewBox="0 0 82 33" fill="none" xmlns="http://www.w3.org/2000/svg">
<path d="M23.9414 11.2505C21.8459 9.417 18.9272 8.33978 15.5407 8.33978C6.69096 8.33978 0.666504 15.2387 0.666504 15.2387L2.35033 17.9605C2.35033 17.9605 3.28588 18.0361 2.7994 16.4296C3.22967 15.6168 4.07175 14.5016 5.71815 13.2351V31.3427C5.00713 31.5506 4.07175 31.9287 4.70776 32.5713H9.59109C10.2273 31.9287 9.21687 31.5318 8.59965 31.3427V27.071C8.59965 27.071 11.9485 28.3941 15.5409 28.3941C18.7028 28.3941 21.5841 27.449 23.7356 25.729C25.8873 24.0279 27.2531 21.4763 27.2531 18.5654C27.2344 15.7112 26.0182 13.0839 23.9415 11.2506L23.9414 11.2505ZM21.3594 24.3303C19.8813 25.8046 17.7296 26.7497 15.2413 26.7308C12.4723 26.7308 10.1335 26.1826 8.59932 25.4266V11.8364C10.2833 10.6268 13.0336 9.87072 15.2413 9.88966C17.9356 9.88966 20.0497 10.9104 21.4717 12.479C22.8936 14.048 23.6794 16.127 23.6794 18.5465C23.6606 20.8903 22.8375 22.8371 21.3594 24.3303ZM31.5374 8.35872H30.5458C30.0967 8.35872 29.7413 8.7179 29.7413 9.17145V27.6946C29.7413 28.1483 30.0967 28.5073 30.5458 28.5073H31.5374C31.9865 28.5073 32.3419 28.1483 32.3419 27.6946V9.17145C32.3419 8.71774 31.9865 8.35872 31.5374 8.35872ZM57.4877 8.35872H56.4961C56.047 8.35872 55.6916 8.7179 55.6916 9.17145V27.6946C55.6916 28.1483 56.047 28.5073 56.4961 28.5073H57.4877C57.9368 28.5073 58.2922 28.1483 58.2922 27.6946V9.17145C58.2922 8.71774 57.9368 8.35872 57.4877 8.35872ZM80.8374 8.35872H79.9207C79.191 8.35872 78.9851 8.45308 78.6671 9.11464C78.3489 9.77619 71.1458 24.1602 71.1458 24.1602C71.1458 24.1602 63.9612 9.75741 63.6244 9.11464C63.3064 8.45308 63.1007 8.35872 62.371 8.35872H61.4541C60.7807 8.35872 60.4065 8.66109 60.7993 9.43611C61.1923 10.211 70.0419 27.7703 70.0419 27.7703C70.2664 28.224 70.6967 28.4885 71.1646 28.4885C71.6323 28.4885 72.0439 28.224 72.2871 27.7703C72.3059 27.7326 81.1368 10.2111 81.5296 9.43611C81.8851 8.66109 81.5109 8.35855 80.8374 8.35855V8.35872ZM49.6484 27.8082C50.0226 28.2996 50.2845 28.4885 51.0142 28.4885H52.5109C53.4651 28.4885 53.1097 28.0539 52.8477 27.7137C52.1929 26.8253 45.6632 18.4519 45.6632 18.4519C45.6632 18.4519 52.4174 10.0219 53.091 9.13357C53.353 8.77439 53.6896 8.35872 52.7542 8.35872H51.2573C50.5277 8.35872 50.2657 8.54762 49.8917 9.03904C49.5175 9.53047 44.0168 16.354 44.0168 16.354C44.0168 16.354 38.5162 9.53047 38.142 9.03904C37.7678 8.54762 37.5058 8.35872 36.7762 8.35872H35.2794C34.3439 8.35872 34.6807 8.79333 34.9426 9.13357C35.5974 10.0219 42.3703 18.4519 42.3703 18.4519C42.3703 18.4519 35.6535 26.8253 34.9801 27.7137C34.7181 28.0728 34.3813 28.4885 35.3169 28.4885H36.8136C37.5432 28.4885 37.8052 28.2996 38.1794 27.8082C38.5536 27.3168 44.0168 20.5501 44.0168 20.5501C44.0168 20.5501 49.2741 27.3355 49.6484 27.8082ZM31.0509 0.571289C30.4523 0.571289 29.9658 0.779126 29.573 1.17619C29.18 1.57292 28.9742 2.06435 28.9742 2.66941C28.9742 3.27415 29.18 3.76557 29.573 4.16264C29.9658 4.55937 30.4523 4.76737 31.0509 4.76737C31.6497 4.76737 32.1362 4.55953 32.529 4.16264C32.922 3.76557 33.1278 3.27415 33.1278 2.66941C33.1278 2.06451 32.922 1.57308 32.529 1.17619C32.1362 0.779126 31.631 0.571289 31.0509 0.571289ZM57.0012 0.571289C56.4026 0.571289 55.9161 0.779126 55.5233 1.17619C55.1303 1.57292 54.9245 2.06435 54.9245 2.66941C54.9245 3.27415 55.1303 3.76557 55.5233 4.16264C55.9161 4.55937 56.4026 4.76737 57.0012 4.76737C57.6 4.76737 58.0865 4.55953 58.4793 4.16264C58.8723 3.76557 59.0781 3.27415 59.0781 2.66941C59.0781 2.06451 58.8723 1.57308 58.4793 1.17619C58.0865 0.779126 57.5813 0.571289 57.0012 0.571289Z" fill="#0096FA"/>
</svg>
