<svg width="64" height="64" viewBox="0 0 64 64" fill="none" xmlns="http://www.w3.org/2000/svg">
<path d="M18.39 27.3431C16.7343 25.9107 14.4282 25.0691 11.7525 25.0691C4.76007 25.0691 0 30.4589 0 30.4589L1.33043 32.5853C1.33043 32.5853 2.06963 32.6444 1.68525 31.3893C2.02522 30.7543 2.69056 29.883 3.99143 28.8936V43.0402C3.42963 43.2026 2.69056 43.498 3.19309 44H7.05152C7.55418 43.498 6.75584 43.1879 6.26816 43.0402V39.7029C6.26816 39.7029 8.91418 40.7366 11.7526 40.7366C14.2509 40.7366 16.5275 39.9982 18.2275 38.6545C19.9276 37.3255 21.0067 35.332 21.0067 33.0579C20.9919 30.8281 20.031 28.7755 18.3902 27.3432L18.39 27.3431ZM16.35 37.5617C15.1821 38.7135 13.482 39.4519 11.5159 39.4371C9.328 39.4371 7.48007 39.0088 6.26791 38.4182V27.8009C7.59847 26.8559 9.77152 26.2652 11.5159 26.28C13.6447 26.28 15.3151 27.0774 16.4387 28.3029C17.5621 29.5287 18.183 31.1529 18.183 33.0431C18.1682 34.8742 17.5178 36.3952 16.35 37.5617ZM24.3918 25.0839H23.6083C23.2535 25.0839 22.9727 25.3645 22.9727 25.7189V40.1901C22.9727 40.5445 23.2535 40.825 23.6083 40.825H24.3918C24.7466 40.825 25.0275 40.5445 25.0275 40.1901V25.7189C25.0275 25.3644 24.7466 25.0839 24.3918 25.0839ZM44.8958 25.0839H44.1123C43.7575 25.0839 43.4766 25.3645 43.4766 25.7189V40.1901C43.4766 40.5445 43.7575 40.825 44.1123 40.825H44.8958C45.2506 40.825 45.5314 40.5445 45.5314 40.1901V25.7189C45.5314 25.3644 45.2506 25.0839 44.8958 25.0839ZM63.3449 25.0839H62.6206C62.0441 25.0839 61.8814 25.1577 61.6301 25.6745C61.3787 26.1913 55.6873 37.4288 55.6873 37.4288C55.6873 37.4288 50.0106 26.1767 49.7445 25.6745C49.4933 25.1577 49.3307 25.0839 48.7542 25.0839H48.0297C47.4976 25.0839 47.2019 25.3202 47.5123 25.9256C47.8229 26.531 54.8151 40.2492 54.8151 40.2492C54.9925 40.6037 55.3325 40.8103 55.7022 40.8103C56.0717 40.8103 56.3969 40.6037 56.5891 40.2492C56.6039 40.2198 63.5815 26.5311 63.8919 25.9256C64.1727 25.3202 63.877 25.0838 63.3449 25.0838V25.0839ZM38.7017 40.2788C38.9974 40.6628 39.2044 40.8103 39.7809 40.8103H40.9635C41.7174 40.8103 41.4366 40.4708 41.2296 40.205C40.7122 39.511 35.5529 32.9693 35.5529 32.9693C35.5529 32.9693 40.8896 26.3833 41.4218 25.6893C41.6288 25.4087 41.8948 25.0839 41.1557 25.0839H39.973C39.3965 25.0839 39.1895 25.2315 38.894 25.6154C38.5983 25.9994 34.252 31.3302 34.252 31.3302C34.252 31.3302 29.9059 25.9994 29.6103 25.6154C29.3146 25.2315 29.1076 25.0839 28.5311 25.0839H27.3485C26.6093 25.0839 26.8754 25.4235 27.0824 25.6893C27.5998 26.3833 32.9512 32.9693 32.9512 32.9693C32.9512 32.9693 27.644 39.511 27.1119 40.205C26.905 40.4856 26.6389 40.8103 27.3781 40.8103H28.5607C29.1372 40.8103 29.3441 40.6628 29.6398 40.2788C29.9355 39.8949 34.252 34.6084 34.252 34.6084C34.252 34.6084 38.406 39.9096 38.7017 40.2788ZM24.0074 19C23.5345 19 23.1501 19.1624 22.8397 19.4726C22.5292 19.7825 22.3666 20.1665 22.3666 20.6392C22.3666 21.1116 22.5292 21.4955 22.8397 21.8057C23.1501 22.1157 23.5345 22.2782 24.0074 22.2782C24.4805 22.2782 24.8649 22.1158 25.1753 21.8057C25.4858 21.4955 25.6484 21.1116 25.6484 20.6392C25.6484 20.1666 25.4858 19.7827 25.1753 19.4726C24.8649 19.1624 24.4658 19 24.0074 19ZM44.5114 19C44.0384 19 43.654 19.1624 43.3436 19.4726C43.0331 19.7825 42.8705 20.1665 42.8705 20.6392C42.8705 21.1116 43.0331 21.4955 43.3436 21.8057C43.654 22.1157 44.0384 22.2782 44.5114 22.2782C44.9845 22.2782 45.3688 22.1158 45.6792 21.8057C45.9898 21.4955 46.1523 21.1116 46.1523 20.6392C46.1523 20.1666 45.9898 19.7827 45.6792 19.4726C45.3688 19.1624 44.9697 19 44.5114 19Z" fill="#0096FA"/>
</svg>
