<?xml version="1.0" encoding="UTF-8"?>
<svg xmlns="http://www.w3.org/2000/svg" xmlns:xlink="http://www.w3.org/1999/xlink" width="150px" height="59px" viewBox="0 0 150 59" version="1.1">
<g id="surface1">
<path style=" stroke:none;fill-rule:nonzero;fill:rgb(13.725491%,9.411765%,8.235294%);fill-opacity:1;" d="M 9.632812 44.195312 L 9.632812 46.574219 L 6.308594 46.574219 L 6.308594 58.519531 L 3.324219 58.519531 L 3.324219 46.574219 L 0 46.574219 L 0 44.195312 Z M 17.601562 50.132812 L 17.601562 44.195312 L 20.585938 44.195312 L 20.585938 58.519531 L 17.601562 58.519531 L 17.601562 52.328125 L 14.179688 52.328125 L 14.179688 58.519531 L 11.195312 58.519531 L 11.195312 44.195312 L 14.179688 44.195312 L 14.179688 50.132812 Z M 37.6875 44.195312 L 43.070312 44.195312 C 45.796875 44.195312 46.871094 45.679688 46.871094 48.308594 C 46.871094 49.933594 46.402344 52.335938 42.894531 52.335938 L 40.679688 52.335938 L 40.679688 58.53125 L 37.695312 58.53125 L 37.695312 44.203125 Z M 40.679688 50.132812 L 42.339844 50.132812 C 43.234375 50.132812 43.847656 49.335938 43.847656 48.382812 C 43.847656 47.214844 43.53125 46.402344 42.183594 46.402344 L 40.679688 46.402344 Z M 48.09375 51.359375 C 48.09375 47.570312 48.09375 43.953125 53.023438 43.953125 C 57.949219 43.953125 57.949219 47.570312 57.949219 51.359375 C 57.949219 55.148438 57.949219 58.761719 53.023438 58.761719 C 48.09375 58.761719 48.09375 55.113281 48.09375 51.359375 Z M 54.917969 51.359375 C 54.917969 47.683594 54.703125 46.101562 53.015625 46.101562 C 51.328125 46.101562 51.113281 47.695312 51.113281 51.359375 C 51.113281 55.023438 51.328125 56.613281 53.015625 56.613281 C 54.703125 56.613281 54.917969 55.03125 54.917969 51.359375 Z M 23.019531 58.519531 L 23.019531 44.195312 L 31.136719 44.195312 L 31.136719 46.402344 L 26.011719 46.402344 L 26.011719 50.132812 L 30.507812 50.132812 L 30.507812 52.335938 L 26.011719 52.335938 L 26.011719 56.324219 L 31.136719 56.324219 L 31.136719 58.53125 L 23.019531 58.53125 Z M 76.199219 58.519531 L 76.199219 44.195312 L 84.316406 44.195312 L 84.316406 46.402344 L 79.191406 46.402344 L 79.191406 50.132812 L 83.691406 50.132812 L 83.691406 52.335938 L 79.191406 52.335938 L 79.191406 56.324219 L 84.316406 56.324219 L 84.316406 58.53125 L 76.199219 58.53125 Z M 114.421875 58.519531 L 114.421875 44.195312 L 122.542969 44.195312 L 122.542969 46.402344 L 117.414062 46.402344 L 117.414062 50.132812 L 121.914062 50.132812 L 121.914062 52.335938 L 117.414062 52.335938 L 117.414062 56.324219 L 122.542969 56.324219 L 122.542969 58.53125 L 114.421875 58.53125 Z M 145.015625 58.761719 C 141.308594 58.761719 140.625 56.582031 140.78125 54.101562 L 143.773438 54.101562 C 143.773438 55.46875 143.832031 56.621094 145.476562 56.621094 C 146.484375 56.621094 146.980469 55.96875 146.980469 54.996094 C 146.980469 52.417969 140.964844 52.261719 140.964844 47.992188 C 140.964844 45.746094 142.03125 43.964844 145.675781 43.964844 C 148.585938 43.964844 150.03125 45.273438 149.835938 48.265625 L 146.925781 48.265625 C 146.925781 47.195312 146.742188 46.101562 145.535156 46.101562 C 144.566406 46.101562 143.988281 46.640625 143.988281 47.628906 C 143.988281 50.347656 150.007812 50.105469 150.007812 54.609375 C 150.007812 58.324219 147.296875 58.753906 145.023438 58.753906 Z M 71.839844 44.195312 L 70.023438 54.035156 L 68.203125 44.195312 L 65.25 44.195312 L 63.433594 54.035156 L 61.613281 44.195312 L 58.546875 44.195312 L 61.714844 58.519531 L 64.953125 58.519531 L 66.722656 48.671875 L 68.492188 58.519531 L 71.734375 58.519531 L 74.902344 44.195312 L 71.832031 44.195312 Z M 137.125 44.195312 L 135.308594 54.035156 L 133.488281 44.195312 L 130.535156 44.195312 L 128.71875 54.035156 L 126.898438 44.195312 L 123.832031 44.195312 L 127 58.519531 L 130.246094 58.519531 L 132.015625 48.671875 L 133.785156 58.519531 L 137.035156 58.519531 L 140.203125 44.195312 Z M 95.703125 48.308594 C 95.703125 45.6875 94.636719 44.195312 91.910156 44.195312 L 86.527344 44.195312 L 86.527344 58.519531 L 89.511719 58.519531 L 89.511719 52.328125 L 91.527344 52.328125 L 92.851562 58.519531 L 95.6875 58.519531 L 94.183594 51.730469 C 95.472656 50.917969 95.695312 49.425781 95.695312 48.308594 Z M 89.511719 50.132812 L 89.511719 46.402344 L 91.015625 46.402344 C 92.363281 46.402344 92.675781 47.214844 92.675781 48.382812 C 92.675781 49.335938 92.066406 50.132812 91.171875 50.132812 Z M 109.1875 44.195312 L 109.1875 54.957031 L 106.808594 44.195312 L 102.203125 44.195312 L 102.203125 58.519531 L 104.980469 58.519531 L 104.980469 47.601562 L 107.417969 58.519531 L 111.964844 58.519531 L 111.964844 44.195312 Z M 109.1875 44.195312 "/>
<path style=" stroke:none;fill-rule:nonzero;fill:rgb(89.803922%,0%,9.803922%);fill-opacity:1;" d="M 0 0.238281 L 150 0.238281 L 150 37.84375 L 0 37.84375 Z M 0 0.238281 "/>
</g>
</svg>
