<?xml version="1.0" encoding="UTF-8"?>
<svg id="_レイヤー_2" data-name="レイヤー 2" xmlns="http://www.w3.org/2000/svg" viewBox="0 0 181.42 70.59">
  <defs>
    <style>
      .cls-1 {
        fill: #e50019;
      }

      .cls-2 {
        fill: #231815;
      }
    </style>
  </defs>
  <g id="_レイヤー_1-2" data-name="レイヤー 1">
    <g>
      <path class="cls-2" d="M11.65,53.02v2.87h-4.02v14.41h-3.61v-14.41H0v-2.87h11.65ZM21.29,60.18v-7.16h3.61v17.28h-3.61v-7.47h-4.14v7.47h-3.61v-17.28h3.61v7.16h4.14ZM45.58,53.02h6.51c3.3,0,4.6,1.79,4.6,4.96,0,1.96-.57,4.86-4.81,4.86h-2.68v7.47h-3.61v-17.28ZM49.2,60.18h2.01c1.08,0,1.82-.96,1.82-2.11,0-1.41-.38-2.39-2.01-2.39h-1.82v4.5ZM58.17,61.66c0-4.57,0-8.93,5.96-8.93s5.96,4.36,5.96,8.93,0,8.93-5.96,8.93-5.96-4.4-5.96-8.93ZM66.42,61.66c0-4.43-.26-6.34-2.3-6.34s-2.3,1.92-2.3,6.34.26,6.34,2.3,6.34,2.3-1.91,2.3-6.34ZM27.84,70.3v-17.28h9.82v2.66h-6.2v4.5h5.44v2.66h-5.44v4.81h6.2v2.66h-9.82ZM92.16,70.3v-17.28h9.82v2.66h-6.2v4.5h5.44v2.66h-5.44v4.81h6.2v2.66h-9.82ZM138.39,70.3v-17.28h9.82v2.66h-6.2v4.5h5.44v2.66h-5.44v4.81h6.2v2.66h-9.82ZM175.39,70.59c-4.48,0-5.31-2.63-5.12-5.62h3.62c0,1.65.07,3.04,2.06,3.04,1.22,0,1.82-.79,1.82-1.96,0-3.11-7.28-3.3-7.28-8.45,0-2.71,1.29-4.86,5.7-4.86,3.52,0,5.27,1.58,5.03,5.19h-3.52c0-1.29-.22-2.61-1.68-2.61-1.17,0-1.87.65-1.87,1.84,0,3.28,7.28,2.99,7.28,8.42,0,4.48-3.28,5-6.03,5ZM86.89,53.02l-2.2,11.87-2.2-11.87h-3.57l-2.2,11.87-2.2-11.87h-3.71l3.83,17.28h3.92l2.14-11.88,2.14,11.88h3.92l3.83-17.28h-3.71ZM165.85,53.02l-2.2,11.87-2.2-11.87h-3.57l-2.2,11.87-2.2-11.87h-3.71l3.83,17.28h3.93l2.14-11.88,2.14,11.88h3.93l3.83-17.28h-3.71ZM115.75,57.98c0-3.16-1.29-4.96-4.59-4.96h-6.51v17.28h3.61v-7.47h2.44l1.6,7.47h3.43l-1.82-8.19c1.56-.98,1.83-2.78,1.83-4.13ZM108.26,60.18v-4.5h1.82c1.63,0,2.01.98,2.01,2.39,0,1.15-.74,2.11-1.82,2.11h-2.01ZM132.06,53.02v12.98l-2.88-12.98h-5.57v17.28h3.36v-13.17l2.95,13.17h5.5v-17.28h-3.36Z"/>
      <rect class="cls-1" width="181.42" height="45.36"/>
    </g>
  </g>
</svg>