<svg width="137" height="32" viewBox="0 0 137 32" fill="none" xmlns="http://www.w3.org/2000/svg">
<path fill-rule="evenodd" clip-rule="evenodd" d="M16.9158 1.85178C15.7139 1.15878 14.2332 1.15878 13.0313 1.85178L3.45958 7.37091C2.25771 8.0639 1.51734 9.34462 1.51734 10.7306L1.51733 21.7689C1.51733 23.1549 2.25771 24.4357 3.45958 25.1287L13.0313 30.6477C14.2332 31.3407 15.7139 31.3407 16.9158 30.6477L23.8708 26.6373L27.8097 28.9087C28.0676 29.0573 28.3852 29.0573 28.6431 28.9087L32.3512 26.7705C32.6091 26.6219 32.7679 26.347 32.7679 26.0498V20.8036C32.7679 20.5063 32.6091 20.2316 32.3512 20.0829L28.4298 17.8218V10.7306C28.4298 9.34462 27.6894 8.0639 26.4876 7.37091L16.9158 1.85178Z" fill="#FF3465"/>
<path fill-rule="evenodd" clip-rule="evenodd" d="M12.6147 1.13125C14.0744 0.289582 15.8729 0.289582 17.3326 1.13125L26.9044 6.65038C28.364 7.49205 29.2633 9.04753 29.2633 10.7309V17.3415L32.768 19.3624C33.2837 19.6597 33.6014 20.2092 33.6014 20.8039V26.0501C33.6014 26.6447 33.2837 27.1942 32.768 27.4916L29.0599 29.6296C28.5442 29.927 27.9089 29.927 27.3932 29.6296L23.8709 27.5986L17.3326 31.3688C15.8729 32.2104 14.0744 32.2104 12.6147 31.3688L3.043 25.8496C1.58329 25.008 0.684082 23.4525 0.684082 21.7691L0.684084 10.7309C0.684084 9.04753 1.5833 7.49205 3.043 6.65038L12.6147 1.13125ZM23.8709 26.6376L16.9159 30.6479C15.714 31.3409 14.2333 31.3409 13.0314 30.6479L3.45968 25.129C2.25781 24.436 1.51743 23.1551 1.51743 21.7691V10.7309C1.51743 9.34487 2.25781 8.06415 3.45968 7.37115L13.0314 1.85202C14.2333 1.15903 15.714 1.15902 16.9159 1.85202L26.4877 7.37115C27.6895 8.06415 28.4299 9.34487 28.4299 10.7309V17.822L32.3513 20.0831C32.6092 20.2318 32.768 20.5066 32.768 20.8039V26.0501C32.768 26.3473 32.6092 26.6222 32.3513 26.7707L28.6432 28.909C28.3853 29.0575 28.0677 29.0575 27.8098 28.909L23.8709 26.6376Z" fill="#0B2F51"/>
<path d="M2.41064 11.8436C2.41064 10.9243 3.05688 10.5517 3.85405 11.0113L12.5389 16.0191C13.336 16.4787 13.9823 17.5966 13.9823 18.5159V28.5313C13.9823 29.4507 13.336 29.8233 12.5389 29.3636L3.85405 24.356C3.05688 23.8962 2.41064 22.7784 2.41064 21.8591V11.8436Z" fill="#0B2F51"/>
<path d="M5.7041 15.8715C5.32265 15.6516 5.01343 15.8299 5.01343 16.2698V21.0179C5.01343 21.4578 5.32265 21.9927 5.7041 22.2126C6.08556 22.4326 6.39478 22.2543 6.39478 21.8144V17.0663C6.39478 16.6264 6.08556 16.0915 5.7041 15.8715Z" fill="white"/>
<path d="M10.3657 18.393C9.98427 18.1731 9.67505 18.3514 9.67505 18.7913V23.5394C9.67505 23.9793 9.98427 24.5142 10.3657 24.7341C10.7472 24.9541 11.0564 24.7757 11.0564 24.3358V19.5878C11.0564 19.1479 10.7472 18.613 10.3657 18.393Z" fill="white"/>
<path d="M13.5455 9.26518C14.2887 9.6937 15.4936 9.6937 16.2367 9.26518C16.9799 8.83667 16.9799 8.14191 16.2367 7.71339C15.4936 7.28488 14.2887 7.28488 13.5455 7.71339C12.8023 8.14191 12.8023 8.83667 13.5455 9.26518Z" fill="#0B2F51"/>
<path d="M24.1213 21.0581C24.1213 20.8282 24.2829 20.7351 24.4822 20.85L27.1884 22.4104C27.3877 22.5254 27.5492 22.8048 27.5492 23.0346V27.8657C27.5492 28.0955 27.3877 28.1885 27.1884 28.0737L24.4822 26.5132C24.2829 26.3984 24.1213 26.1189 24.1213 25.889V21.0581Z" fill="#0B2F51" fill-opacity="0.15"/>
<path fill-rule="evenodd" clip-rule="evenodd" d="M127.186 4.45703H133.548V24.6587H117.338V9.0176H127.186V4.45703Z" fill="white"/>
<path d="M128.317 13.8164H122.146V19.9905H128.317V13.8164Z" fill="#0B2F51"/>
<path fill-rule="evenodd" clip-rule="evenodd" d="M95.4944 8.87891H108.958V24.6572H95.4944V8.87891Z" fill="white"/>
<path d="M104.35 13.1309H100.028V20.4025H104.35V13.1309Z" fill="#0B2F51"/>
<path fill-rule="evenodd" clip-rule="evenodd" d="M110.319 8.87891H115.964V24.6572H110.319V8.87891Z" fill="white"/>
<path fill-rule="evenodd" clip-rule="evenodd" d="M110.332 4.34961H115.964V8.32847H110.332V4.34961Z" fill="white"/>
<path fill-rule="evenodd" clip-rule="evenodd" d="M78.4597 4.45703H84.6307V8.8804H94.1208V24.6587H78.4597V4.45703Z" fill="white"/>
<path d="M83.405 19.9919H89.7243V13.4062H83.405V19.9919Z" fill="#0B2F51"/>
<path d="M62.0068 9.39258H66.6405V19.7829H71.8114V9.44472H76.536V24.1088H62.0068V9.39258Z" fill="white"/>
<path fill-rule="evenodd" clip-rule="evenodd" d="M61.4575 8.8457H67.1902V19.236H71.2621V8.89784H77.0857V24.6596H61.4575V8.8457Z" fill="white"/>
<path d="M42.2024 4.86719H59.4145V15.3809H63.4851V19.9923H59.5081V24.1111H42.2024V4.86719Z" fill="white"/>
<path d="M42.2024 4.86719H59.4145V15.3809H63.4851V19.9923H59.5081V24.1111H42.2024V4.86719Z" fill="white"/>
<path fill-rule="evenodd" clip-rule="evenodd" d="M41.6528 4.31836H59.9639V14.8321H64.0346V20.5411H60.0573V24.6599H41.6528V4.31836Z" fill="white"/>
<path d="M49.2746 8.83398H45.865V20.1682H49.2746V8.83398Z" fill="#0B2F51"/>
<path d="M55.7602 8.83398H52.3506V20.1682H55.7602V8.83398Z" fill="#0B2F51"/>
<path fill-rule="evenodd" clip-rule="evenodd" d="M129.655 8.25391H136.017V28.4555H119.807V12.8145H129.655V8.25391Z" fill="#0C2F51"/>
<path d="M130.786 17.6152H124.615V23.7893H130.786V17.6152Z" fill="#0C2F51"/>
<path fill-rule="evenodd" clip-rule="evenodd" d="M97.9636 12.6777H111.427V28.4559H97.9636V12.6777Z" fill="#0C2F51"/>
<path d="M106.819 16.9297H102.497V24.2015H106.819V16.9297Z" fill="#0C2F51"/>
<path fill-rule="evenodd" clip-rule="evenodd" d="M112.788 12.6777H118.433V28.4559H112.788V12.6777Z" fill="#0C2F51"/>
<path fill-rule="evenodd" clip-rule="evenodd" d="M112.8 8.14844H118.433V12.1273H112.8V8.14844Z" fill="#0C2F51"/>
<path fill-rule="evenodd" clip-rule="evenodd" d="M80.9287 8.25391H87.0997V12.6773H96.5898V28.4555H80.9287V8.25391Z" fill="#0C2F51"/>
<path d="M85.874 23.7908H92.1935V17.2051H85.874V23.7908Z" fill="#0C2F51"/>
<path d="M64.4761 13.1934H69.1097V23.5836H74.2807V13.2455H79.0053V27.9095H64.4761V13.1934Z" fill="#0C2F51"/>
<path fill-rule="evenodd" clip-rule="evenodd" d="M63.9268 12.6426H69.6595V23.0328H73.7314V12.6947H79.555V28.4564H63.9268V12.6426Z" fill="#0C2F51"/>
<path d="M44.6716 8.66211H61.8837V19.1759H65.9544V23.7872H61.9771V27.906H44.6716V8.66211Z" fill="#0C2F51"/>
<path d="M44.6716 8.66211H61.8837V19.1759H65.9544V23.7872H61.9771V27.906H44.6716V8.66211Z" fill="#0C2F51"/>
<path fill-rule="evenodd" clip-rule="evenodd" d="M44.1221 8.11523H62.4332V18.629H66.5039V24.3379H62.5266V28.4567H44.1221V8.11523Z" fill="#0C2F51"/>
<path d="M51.7438 12.6309H48.3342V23.9651H51.7438V12.6309Z" fill="#0C2F51"/>
<path d="M58.2294 12.6309H54.8196V23.9651H58.2294V12.6309Z" fill="#0C2F51"/>
<path d="M41.6528 4.31836H59.964L62.4331 8.11556H44.122L41.6528 4.31836Z" fill="#0C2F51"/>
<path d="M59.4145 4.86719H42.2024L44.6716 8.66439H61.8836L59.4145 4.86719Z" fill="#0C2F51"/>
<path d="M49.2746 8.83398H45.865L48.3342 12.6312H51.7438L49.2746 8.83398Z" fill="#0C2F51"/>
<path d="M41.6528 24.6599V4.31836L44.122 8.11556V28.457L41.6528 24.6599Z" fill="#0C2F51"/>
<path d="M42.2024 4.86719V24.1111L44.6716 27.9082V8.66439L42.2024 4.86719Z" fill="#0C2F51"/>
<path d="M55.7602 8.83398H52.3506L54.8198 12.6312H58.2294L55.7602 8.83398Z" fill="#0C2F51"/>
<path d="M45.865 8.83398V20.1682L48.3342 23.9654V12.6312L45.865 8.83398Z" fill="#0C2F51"/>
<path d="M49.2747 20.1682V8.83398L51.7438 12.6312V23.9654L49.2747 20.1682Z" fill="#0C2F51"/>
<path d="M52.3506 8.83398V20.1682L54.8198 23.9654V12.6312L52.3506 8.83398Z" fill="#0C2F51"/>
<path d="M59.9644 4.31836V14.8321L62.4335 18.6293V8.11556L59.9644 4.31836Z" fill="#0C2F51"/>
<path d="M59.4143 15.3809V4.86719L61.8835 8.66439V19.1782L59.4143 15.3809Z" fill="#0C2F51"/>
<path d="M61.4575 8.8457H67.1902L69.6594 12.6429H63.9267L61.4575 8.8457Z" fill="#0C2F51"/>
<path d="M55.7605 20.1682V8.83398L58.2297 12.6312V23.9654L55.7605 20.1682Z" fill="#0C2F51"/>
<path d="M45.865 20.1699H49.2746L51.7438 23.9671H48.3342L45.865 20.1699Z" fill="#0C2F51"/>
<path d="M66.6405 9.39258H62.0068L64.476 13.1898H69.1097L66.6405 9.39258Z" fill="#0C2F51"/>
<path d="M59.9644 14.8301H64.035L66.5042 18.6273H62.4335L59.9644 14.8301Z" fill="#0C2F51"/>
<path d="M52.3506 20.1699H55.7602L58.2294 23.9671H54.8198L52.3506 20.1699Z" fill="#0C2F51"/>
<path d="M63.485 15.3809H59.4143L61.8835 19.1781H65.9541L63.485 15.3809Z" fill="#0C2F51"/>
<path d="M61.4575 24.6596V8.8457L63.9267 12.6429V28.4567L61.4575 24.6596Z" fill="#0C2F51"/>
<path d="M62.0068 9.39258V24.1088L64.476 27.906V13.1898L62.0068 9.39258Z" fill="#0C2F51"/>
<path d="M71.2622 8.89844H77.0858L79.555 12.6956H73.7314L71.2622 8.89844Z" fill="#0C2F51"/>
<path d="M42.2024 24.1113H59.5079L61.977 27.9085H44.6716L42.2024 24.1113Z" fill="#0C2F51"/>
<path d="M78.4597 4.45703H84.6307L87.0998 8.25424H80.9289L78.4597 4.45703Z" fill="#0C2F51"/>
<path d="M76.5361 9.44727H71.8115L74.2807 13.2445H79.0053L76.5361 9.44727Z" fill="#0C2F51"/>
<path d="M67.1902 8.8457V19.236L69.6593 23.0332V12.6429L67.1902 8.8457Z" fill="#0C2F51"/>
<path d="M60.0573 24.6582H41.6528L44.122 28.4553H62.5265L60.0573 24.6582Z" fill="#0C2F51"/>
<path d="M66.6406 19.7828V9.39258L69.1098 13.1898V23.5801L66.6406 19.7828Z" fill="#0C2F51"/>
<path d="M63.4854 19.9922V15.3809L65.9545 19.1781V23.7894L63.4854 19.9922Z" fill="#0C2F51"/>
<path d="M64.0347 14.8301V20.539L66.5038 24.3362V18.6273L64.0347 14.8301Z" fill="#0C2F51"/>
<path d="M59.5083 19.9902H63.4853L65.9545 23.7874H61.9772L59.5083 19.9902Z" fill="#0C2F51"/>
<path d="M71.2622 19.2366V8.89844L73.7314 12.6956V23.0338L71.2622 19.2366Z" fill="#0C2F51"/>
<path d="M59.5083 24.109V19.9902L61.9772 23.7874V27.9062L59.5083 24.109Z" fill="#0C2F51"/>
<path d="M64.0347 20.541H60.0574L62.5265 24.3382H66.5038L64.0347 20.541Z" fill="#0C2F51"/>
<path d="M71.8115 9.44727V19.7854L74.2807 23.5826V13.2445L71.8115 9.44727Z" fill="#0C2F51"/>
<path d="M60.0574 20.541V24.6598L62.5265 28.457V24.3382L60.0574 20.541Z" fill="#0C2F51"/>
<path d="M84.6306 4.45703V8.8804L87.0998 12.6776V8.25424L84.6306 4.45703Z" fill="#0C2F51"/>
<path d="M67.1902 19.2363H71.2623L73.7312 23.0335H69.6593L67.1902 19.2363Z" fill="#0C2F51"/>
<path d="M71.8116 19.7832H66.6406L69.1098 23.5804H74.2807L71.8116 19.7832Z" fill="#0C2F51"/>
<path d="M78.4597 24.6587V4.45703L80.9289 8.25424V28.4558L78.4597 24.6587Z" fill="#0C2F51"/>
<path d="M76.5361 24.1114V9.44727L79.0053 13.2445V27.9085L76.5361 24.1114Z" fill="#0C2F51"/>
<path d="M77.0859 8.89844V24.6602L79.5551 28.4573V12.6956L77.0859 8.89844Z" fill="#0C2F51"/>
<path d="M84.6306 8.87891H94.1207L96.5899 12.6761H87.0998L84.6306 8.87891Z" fill="#0C2F51"/>
<path d="M62.0068 24.1113H76.536L79.0052 27.9085H64.476L62.0068 24.1113Z" fill="#0C2F51"/>
<path d="M89.7243 13.4062H83.405L85.8739 17.2035H92.1934L89.7243 13.4062Z" fill="#0C2F51"/>
<path d="M77.0857 24.6582H61.4575L63.9267 28.4553H79.5549L77.0857 24.6582Z" fill="#0C2F51"/>
<path d="M83.405 13.4062V19.9919L85.8739 23.7891V17.2035L83.405 13.4062Z" fill="#0C2F51"/>
<path d="M89.7244 19.9919V13.4062L92.1935 17.2035V23.7891L89.7244 19.9919Z" fill="#0C2F51"/>
<path d="M95.4944 8.87891H108.958L111.427 12.6761H97.9635L95.4944 8.87891Z" fill="#0C2F51"/>
<path d="M83.405 19.9902H89.7243L92.1934 23.7874H85.8739L83.405 19.9902Z" fill="#0C2F51"/>
<path d="M110.332 4.34961H115.964L118.433 8.14681H112.8L110.332 4.34961Z" fill="#0C2F51"/>
<path d="M94.1206 8.87891V24.6571L96.5898 28.4543V12.6761L94.1206 8.87891Z" fill="#0C2F51"/>
<path d="M110.332 8.32847V4.34961L112.8 8.14681V12.1257L110.332 8.32847Z" fill="#0C2F51"/>
<path d="M95.4944 24.6571V8.87891L97.9635 12.6761V28.4543L95.4944 24.6571Z" fill="#0C2F51"/>
<path d="M104.35 13.1309H100.028L102.497 16.9281H106.819L104.35 13.1309Z" fill="#0C2F51"/>
<path d="M94.1208 24.6562H78.4597L80.9289 28.4534H96.59L94.1208 24.6562Z" fill="#0C2F51"/>
<path d="M115.964 4.34961V8.32847L118.433 12.1257V8.14681L115.964 4.34961Z" fill="#0C2F51"/>
<path d="M100.028 13.1309V20.4025L102.497 24.1998V16.9281L100.028 13.1309Z" fill="#0C2F51"/>
<path d="M115.964 8.33008H110.332L112.8 12.1273H118.433L115.964 8.33008Z" fill="#0C2F51"/>
<path d="M110.319 8.87891H115.964L118.433 12.6761H112.788L110.319 8.87891Z" fill="#0C2F51"/>
<path d="M104.35 20.4025V13.1309L106.819 16.9281V24.1998L104.35 20.4025Z" fill="#0C2F51"/>
<path d="M100.028 20.4043H104.35L106.819 24.2016H102.497L100.028 20.4043Z" fill="#0C2F51"/>
<path d="M108.958 8.87891V24.6571L111.426 28.4543V12.6761L108.958 8.87891Z" fill="#0C2F51"/>
<path d="M117.338 9.01758H127.186L129.656 12.8148H119.807L117.338 9.01758Z" fill="#0C2F51"/>
<path d="M110.319 24.6571V8.87891L112.788 12.6761V28.4543L110.319 24.6571Z" fill="#0C2F51"/>
<path d="M127.187 4.45703H133.548L136.018 8.25424H129.655L127.187 4.45703Z" fill="#0C2F51"/>
<path d="M127.187 9.0176V4.45703L129.655 8.25424V12.8148L127.187 9.0176Z" fill="#0C2F51"/>
<path d="M108.958 24.6562H95.4944L97.9635 28.4534H111.427L108.958 24.6562Z" fill="#0C2F51"/>
<path d="M115.964 8.87891V24.6571L118.433 28.4543V12.6761L115.964 8.87891Z" fill="#0C2F51"/>
<path d="M117.338 24.6586V9.01758L119.807 12.8148V28.4558L117.338 24.6586Z" fill="#0C2F51"/>
<path d="M128.317 13.8164H122.146L124.615 17.6136H130.786L128.317 13.8164Z" fill="#0C2F51"/>
<path d="M122.146 13.8164V19.9905L124.615 23.7877V17.6136L122.146 13.8164Z" fill="#0C2F51"/>
<path d="M115.964 24.6562H110.319L112.788 28.4534H118.433L115.964 24.6562Z" fill="#0C2F51"/>
<path d="M128.317 19.9905V13.8164L130.786 17.6136V23.7877L128.317 19.9905Z" fill="#0C2F51"/>
<path d="M133.548 4.45703V24.6587L136.017 28.4558V8.25424L133.548 4.45703Z" fill="#0C2F51"/>
<path d="M122.146 19.9902H128.317L130.786 23.7874H124.615L122.146 19.9902Z" fill="#0C2F51"/>
<path d="M133.548 24.6562H117.338L119.807 28.4534H136.017L133.548 24.6562Z" fill="#0C2F51"/>
<path fill-rule="evenodd" clip-rule="evenodd" d="M127.186 4.45703H133.548V24.6587H117.338V9.0176H127.186V4.45703Z" fill="white"/>
<path fill-rule="evenodd" clip-rule="evenodd" d="M128.285 10.1152H118.437V23.561H132.449V5.55463H128.285V10.1152ZM133.548 4.45703V24.6587H117.338V9.0176H127.186V4.45703H133.548Z" fill="#0B2F51"/>
<path d="M128.317 13.8164H122.146V19.9905H128.317V13.8164Z" fill="#0B2F51"/>
<path fill-rule="evenodd" clip-rule="evenodd" d="M95.4944 8.87891H108.958V24.6571H95.4944V8.87891Z" fill="white"/>
<path fill-rule="evenodd" clip-rule="evenodd" d="M95.4944 8.87891H108.958V24.6571H95.4944V8.87891ZM96.5934 23.5595H107.859V9.9765H96.5934V23.5595Z" fill="#0B2F51"/>
<path d="M104.35 13.1309H100.028V20.4025H104.35V13.1309Z" fill="#0B2F51"/>
<path fill-rule="evenodd" clip-rule="evenodd" d="M110.319 8.87891H115.964V24.6571H110.319V8.87891Z" fill="white"/>
<path fill-rule="evenodd" clip-rule="evenodd" d="M110.319 8.87891H115.964V24.6571H110.319V8.87891ZM111.418 23.5595H114.865V9.9765H111.418V23.5595Z" fill="#0B2F51"/>
<path fill-rule="evenodd" clip-rule="evenodd" d="M110.332 4.34961H115.964V8.32847H110.332V4.34961Z" fill="white"/>
<path fill-rule="evenodd" clip-rule="evenodd" d="M110.332 4.34961H115.964V8.32847H110.332V4.34961ZM111.431 7.23085H114.865V5.44723H111.431V7.23085Z" fill="#0B2F51"/>
<path fill-rule="evenodd" clip-rule="evenodd" d="M78.4597 4.45703H84.6307V8.8804H94.1208V24.6587H78.4597V4.45703Z" fill="white"/>
<path fill-rule="evenodd" clip-rule="evenodd" d="M83.5316 9.97802V5.55463H79.5588V23.561H93.0217V9.97802H83.5316ZM94.1208 8.8804V24.6587H78.4597V4.45703H84.6307V8.8804H94.1208Z" fill="#0B2F51"/>
<path d="M83.405 19.9919H89.7243V13.4062H83.405V19.9919Z" fill="#0B2F51"/>
<path fill-rule="evenodd" clip-rule="evenodd" d="M61.4575 8.8457H67.1902V19.236H71.2621V8.89784H77.0857V24.6596H61.4575V8.8457Z" fill="white"/>
<path fill-rule="evenodd" clip-rule="evenodd" d="M66.0912 20.3336V9.94333H62.5566V23.562H75.9867V9.99547H72.3611V20.3336H66.0912ZM71.2621 8.89784H77.0857V24.6596H61.4575V8.8457H67.1902V19.236H71.2621V8.89784Z" fill="#0B2F51"/>
<path fill-rule="evenodd" clip-rule="evenodd" d="M41.6528 4.31836H59.9639V14.8321H64.0346V20.5411H60.0573V24.6599H41.6528V4.31836Z" fill="white"/>
<path fill-rule="evenodd" clip-rule="evenodd" d="M58.8649 15.9297V5.41598H42.7519V23.5623H58.9585V19.4435H62.9356V15.9297H58.8649ZM64.0346 14.8321V20.5411H60.0573V24.6599H41.6528V4.31836H59.9639V14.8321H64.0346Z" fill="#0B2F51"/>
<path d="M49.2746 8.83398H45.865V20.1682H49.2746V8.83398Z" fill="#0B2F51"/>
<path d="M55.7602 8.83398H52.3506V20.1682H55.7602V8.83398Z" fill="#0B2F51"/>
</svg>
