<?xml version="1.0" encoding="UTF-8"?>
<svg id="_レイヤー_1" data-name="レイヤー_1" xmlns="http://www.w3.org/2000/svg" xmlns:xlink="http://www.w3.org/1999/xlink" version="1.1" viewBox="0 0 239.9 56">
  <!-- Generator: Adobe Illustrator 30.2.1, SVG Export Plug-In . SVG Version: 2.1.1 Build 1)  -->
  <defs>
    <style>
      .st0 {
        fill: none;
      }

      .st1 {
        fill: #2b2b2b;
      }

      .st2 {
        clip-path: url(#clippath);
      }
    </style>
    <clipPath id="clippath">
      <rect class="st0" x="7.6" y="7.6" width="224.5" height="40.7"/>
    </clipPath>
  </defs>
  <g class="st2">
    <g>
      <path class="st1" d="M53.6,35.2c0,3.7,2.2,6.1,5.5,6.1s6.1-2.6,6.1-6.8v-13.9h5v24.6h-4.5s-.3-2-.5-2.7c0,0,0,0,0-.2,0,0-.2,0-.2,0,0,0,0,0-.1,0h0s0,0,0,0c-1.8,2.2-4.1,3.3-7.1,3.3-5.5,0-9-3.8-9-9.8v-15.3h5v14.6ZM220.7,20.1c6.9,0,11.4,4.8,11.4,12.1h0c0,.6,0,1.4-.1,2.2h-17.6c-.3,0-.6.3-.5.6.7,4,3.4,6.4,7.4,6.4s5.2-1.6,6-3.9h4.6c-.8,4.7-4.7,8.1-10.6,8.2-6.9,0-12.5-5.5-12.6-12.4-.2-7.7,4.7-13.2,12-13.2h0ZM206.2,45.2h-4.2l-.4-2.6c0-.3-.2-.4-.5-.5-.2,0-.4,0-.5.2h0c-1.7,2.2-4.2,3.3-7.3,3.3-6.5,0-11.1-5.3-11.1-12.8s4.6-12.8,11.6-12.8,5.2.9,6.9,3c0,0,.1.2.3,0,.2,0,.2-.3.2-.3v-12.8h5v35ZM94,20.1c6.4,0,10.2,3.4,11.2,9.5h-4.7c-.9-3.4-3-5.1-6.4-5.1s-7.1,3-7.1,8.4,2.8,8.4,7,8.4,5.6-1.7,6.5-5.1h4.7c-1,6.2-5.1,9.5-11.3,9.5s-11.9-5.1-11.9-12.8,4.9-12.8,12-12.8h0ZM167.3,20.1c7.2,0,12.4,5.3,12.4,12.8s-5.1,12.8-12.4,12.8-12.4-5.3-12.4-12.8,5.1-12.8,12.4-12.8h0ZM113.2,30.2c0,.2.3.3.5.2l10-9.7h5.5v.5s-7.1,6.8-9.3,9.1c0,0-.2.2-.2.3,0,.1.1.3.1.3l10,13.9v.5h-5.6l-8-11.2h0c0,0,0-.2-.2-.2-.1,0-.2,0-.2,0h0c0,0-1.9,1.9-1.9,1.9-.4.4-.6.9-.6,1.5v7.9h-5V10.2h5v20ZM78.8,45.2h-5v-24.6h5v24.6ZM144.2,20.1c2.6,0,4.6.9,6.1,2.6h0c1.4,1.7,2.1,4,2.1,6.8v15.8h-4.8v-14.3c0-2.2-.4-3.9-1.1-5s-1.9-1.7-3.6-1.7-3.2.6-4.2,1.8c-1,1.2-1.6,2.8-1.6,4.9v14.3h-4.8v-24.5h4.4v2.7c0,0,0,.3,0,.3,0,.3.3.4.5.1l.3-.4h0c.4-.6.9-1.2,1.4-1.6,1.4-1.1,3.1-1.7,5.2-1.7h0ZM194.2,24.5c-4.3,0-6.8,3.1-6.8,8.4s2.6,8.4,6.8,8.4,7-3.1,7-8.4-2.7-8.4-7-8.4h0ZM167.3,24.5c-4.4,0-7.3,3.3-7.3,8.4s2.8,8.4,7.3,8.4,7.3-3.3,7.3-8.4-2.8-8.4-7.3-8.4h0ZM220.7,24.4c-3.4,0-5.7,2.1-6.6,5.5,0,.3.2.7.5.7h12c.3,0,.6-.3.6-.7-.5-3.3-3.1-5.5-6.5-5.5h0ZM76.3,9.9c1.6,0,2.9,1.3,2.9,2.9s-1.3,2.9-2.9,2.9-2.9-1.3-2.9-2.9,1.3-2.9,2.9-2.9Z"/>
      <path class="st1" d="M28.1,10.3c9.6.1,17.3,7.9,17.3,17.5s-1.7,8.5-4.4,11.6c-.3.3-.2.8.2,1l7.4,4.3v.5h-20.9s0,0,0,0,0,0,0,0c-9.6-.1-17.3-7.9-17.3-17.5s1.7-8.5,4.4-11.6c.3-.3.2-.8-.2-1l-7.4-4.3v-.5h20.9ZM27.9,15.3c-6.9,0-12.5,5.6-12.5,12.5s5.6,12.5,12.5,12.5,12.5-5.6,12.5-12.5-5.6-12.5-12.5-12.5Z"/>
    </g>
  </g>
</svg>