<?xml version="1.0" encoding="UTF-8"?>
<svg xmlns="http://www.w3.org/2000/svg" xmlns:xlink="http://www.w3.org/1999/xlink" width="240px" height="56px" viewBox="0 0 240 56" version="1.1">
<defs>
<clipPath id="clip1">
  <path d="M 48 9 L 232.148438 9 L 232.148438 46 L 48 46 Z M 48 9 "/>
</clipPath>
<clipPath id="clip2">
  <path d="M 7.648438 10 L 49 10 L 49 46 L 7.648438 46 Z M 7.648438 10 "/>
</clipPath>
</defs>
<g id="surface1">
<g clip-path="url(#clip1)" clip-rule="nonzero">
<path style=" stroke:none;fill-rule:nonzero;fill:rgb(16.862746%,16.862746%,16.862746%);fill-opacity:1;" d="M 53.648438 35.199219 C 53.648438 38.898438 55.851562 41.300781 59.148438 41.300781 C 62.449219 41.300781 65.25 38.699219 65.25 34.5 L 65.25 20.601562 L 70.25 20.601562 L 70.25 45.199219 L 65.75 45.199219 C 65.75 45.199219 65.449219 43.199219 65.25 42.5 C 65.25 42.5 65.25 42.5 65.25 42.300781 C 65.25 42.300781 65.050781 42.300781 65.050781 42.300781 C 65.050781 42.300781 65.050781 42.300781 64.949219 42.300781 C 63.148438 44.5 60.851562 45.601562 57.851562 45.601562 C 52.351562 45.601562 48.851562 41.800781 48.851562 35.800781 L 48.851562 20.5 L 53.851562 20.5 L 53.851562 35.101562 Z M 220.75 20.101562 C 227.648438 20.101562 232.148438 24.898438 232.148438 32.199219 C 232.148438 32.800781 232.148438 33.601562 232.050781 34.398438 L 214.449219 34.398438 C 214.148438 34.398438 213.851562 34.699219 213.949219 35 C 214.648438 39 217.351562 41.398438 221.351562 41.398438 C 225.351562 41.398438 226.550781 39.800781 227.351562 37.5 L 231.949219 37.5 C 231.148438 42.199219 227.25 45.601562 221.351562 45.699219 C 214.449219 45.699219 208.851562 40.199219 208.75 33.300781 C 208.550781 25.601562 213.449219 20.101562 220.75 20.101562 Z M 206.25 45.199219 L 202.050781 45.199219 L 201.648438 42.601562 C 201.648438 42.300781 201.449219 42.199219 201.148438 42.101562 C 200.949219 42.101562 200.75 42.101562 200.648438 42.300781 C 198.949219 44.5 196.449219 45.601562 193.351562 45.601562 C 186.851562 45.601562 182.25 40.300781 182.25 32.800781 C 182.25 25.300781 186.851562 20 193.851562 20 C 200.851562 20 199.050781 20.898438 200.75 23 C 200.75 23 200.851562 23.199219 201.050781 23 C 201.25 23 201.25 22.699219 201.25 22.699219 L 201.25 9.898438 L 206.25 9.898438 Z M 94.050781 20.101562 C 100.449219 20.101562 104.25 23.5 105.25 29.601562 L 100.550781 29.601562 C 99.648438 26.199219 97.550781 24.5 94.148438 24.5 C 90.75 24.5 87.050781 27.5 87.050781 32.898438 C 87.050781 38.300781 89.851562 41.300781 94.050781 41.300781 C 98.25 41.300781 99.648438 39.601562 100.550781 36.199219 L 105.25 36.199219 C 104.25 42.398438 100.148438 45.699219 93.949219 45.699219 C 87.75 45.699219 82.050781 40.601562 82.050781 32.898438 C 82.050781 25.199219 86.949219 20.101562 94.050781 20.101562 Z M 167.351562 20.101562 C 174.550781 20.101562 179.75 25.398438 179.75 32.898438 C 179.75 40.398438 174.648438 45.699219 167.351562 45.699219 C 160.050781 45.699219 154.949219 40.398438 154.949219 32.898438 C 154.949219 25.398438 160.050781 20.101562 167.351562 20.101562 Z M 113.25 30.199219 C 113.25 30.398438 113.550781 30.5 113.75 30.398438 L 123.75 20.699219 L 129.25 20.699219 L 129.25 21.199219 C 129.25 21.199219 122.148438 28 119.949219 30.300781 C 119.949219 30.300781 119.75 30.5 119.75 30.601562 C 119.75 30.699219 119.851562 30.898438 119.851562 30.898438 L 129.851562 44.800781 L 129.851562 45.300781 L 124.25 45.300781 L 116.25 34.101562 C 116.25 34.101562 116.25 33.898438 116.050781 33.898438 C 115.949219 33.898438 115.851562 33.898438 115.851562 33.898438 C 115.851562 33.898438 113.949219 35.800781 113.949219 35.800781 C 113.550781 36.199219 113.351562 36.699219 113.351562 37.300781 L 113.351562 45.199219 L 108.351562 45.199219 L 108.351562 10.199219 L 113.351562 10.199219 L 113.351562 30.199219 Z M 78.851562 45.199219 L 73.851562 45.199219 L 73.851562 20.601562 L 78.851562 20.601562 Z M 144.25 20.101562 C 146.851562 20.101562 148.851562 21 150.351562 22.699219 C 151.75 24.398438 152.449219 26.699219 152.449219 29.5 L 152.449219 45.300781 L 147.648438 45.300781 L 147.648438 31 C 147.648438 28.800781 147.25 27.101562 146.550781 26 C 145.851562 24.898438 144.648438 24.300781 142.949219 24.300781 C 141.25 24.300781 139.75 24.898438 138.75 26.101562 C 137.75 27.300781 137.148438 28.898438 137.148438 31 L 137.148438 45.300781 L 132.351562 45.300781 L 132.351562 20.800781 L 136.75 20.800781 L 136.75 23.5 C 136.75 23.5 136.75 23.800781 136.75 23.800781 C 136.75 24.101562 137.050781 24.199219 137.25 23.898438 L 137.550781 23.5 C 137.949219 22.898438 138.449219 22.300781 138.949219 21.898438 C 140.351562 20.800781 142.050781 20.199219 144.148438 20.199219 Z M 194.25 24.5 C 189.949219 24.5 187.449219 27.601562 187.449219 32.898438 C 187.449219 38.199219 190.050781 41.300781 194.25 41.300781 C 198.449219 41.300781 201.25 38.199219 201.25 32.898438 C 201.25 27.601562 198.550781 24.5 194.25 24.5 Z M 167.351562 24.5 C 162.949219 24.5 160.050781 27.800781 160.050781 32.898438 C 160.050781 38 162.851562 41.300781 167.351562 41.300781 C 171.851562 41.300781 174.648438 38 174.648438 32.898438 C 174.648438 27.800781 171.851562 24.5 167.351562 24.5 Z M 220.75 24.398438 C 217.351562 24.398438 215.050781 26.5 214.148438 29.898438 C 214.148438 30.199219 214.351562 30.601562 214.648438 30.601562 L 226.648438 30.601562 C 226.949219 30.601562 227.25 30.300781 227.25 29.898438 C 226.75 26.601562 224.148438 24.398438 220.75 24.398438 Z M 76.351562 9.898438 C 77.949219 9.898438 79.25 11.199219 79.25 12.800781 C 79.25 14.398438 77.949219 15.699219 76.351562 15.699219 C 74.75 15.699219 73.449219 14.398438 73.449219 12.800781 C 73.449219 11.199219 74.75 9.898438 76.351562 9.898438 Z M 76.351562 9.898438 "/>
</g>
<g clip-path="url(#clip2)" clip-rule="nonzero">
<path style=" stroke:none;fill-rule:nonzero;fill:rgb(16.862746%,16.862746%,16.862746%);fill-opacity:1;" d="M 28.148438 10.300781 C 37.75 10.398438 45.449219 18.199219 45.449219 27.800781 C 45.449219 37.398438 43.75 36.300781 41.050781 39.398438 C 40.75 39.699219 40.851562 40.199219 41.25 40.398438 L 48.648438 44.699219 L 48.648438 45.199219 L 27.75 45.199219 C 18.148438 45.101562 10.449219 37.300781 10.449219 27.699219 C 10.449219 18.101562 12.148438 19.199219 14.851562 16.101562 C 15.148438 15.800781 15.050781 15.300781 14.648438 15.101562 L 7.25 10.800781 L 7.25 10.300781 Z M 27.949219 15.300781 C 21.050781 15.300781 15.449219 20.898438 15.449219 27.800781 C 15.449219 34.699219 21.050781 40.300781 27.949219 40.300781 C 34.851562 40.300781 40.449219 34.699219 40.449219 27.800781 C 40.449219 20.898438 34.851562 15.300781 27.949219 15.300781 Z M 27.949219 15.300781 "/>
</g>
</g>
</svg>
