<svg width="147" height="23" viewBox="0 0 147 23" fill="none" xmlns="http://www.w3.org/2000/svg">
<path d="M47.8163 0.571289H29.9297V4.59531H43.7842V9.55759H29.9297V13.5816H47.9419V18.5473H29.9297V22.5713H51.974V9.55759H47.8163V0.571289Z" fill="#003232"/>
<path d="M33.9618 0.571289H29.9297V22.5713H33.9618V0.571289Z" fill="#003232"/>
<path d="M22.3745 2.25488H18.4238V6.94957H22.3745V2.25488Z" fill="#003232"/>
<path d="M116.382 9.55759H102.874V4.59531H120.886V0.571289H98.842V22.5713H102.874V13.5816H116.382V9.55759Z" fill="#003232"/>
<path d="M87.8794 22.5713H91.9115V0.571289H69.8672V22.5713H73.8993V4.59531H87.8794V22.5713Z" fill="#003232"/>
<path d="M133.964 22.5713H137.992V4.59531H147V0.571289H124.956V4.59531H133.964V22.5713Z" fill="#003232"/>
<path d="M62.9364 0.571289H58.9043V22.5713H62.9364V0.571289Z" fill="#003232"/>
<path d="M18.3457 18.5473H0.333496V22.5713H22.3778V9.56097H4.36562V4.59531H22.3778V0.571289H0.333496V13.5816H18.3457V18.5473Z" fill="#003232"/>
</svg>
