<?xml version="1.0" encoding="UTF-8"?>
<svg id="_レイヤー_2" data-name="レイヤー 2" xmlns="http://www.w3.org/2000/svg" viewBox="0 0 432.13 64.95">
  <defs>
    <style>
      .cls-1 {
        fill: #003232;
      }
    </style>
  </defs>
  <g id="_レイヤー_1-2" data-name="レイヤー 1">
    <g>
      <polygon class="cls-1" points="139.9 0 87.2 0 87.2 11.88 128.02 11.88 128.02 26.53 87.2 26.53 87.2 38.41 140.27 38.41 140.27 53.07 87.2 53.07 87.2 64.95 152.15 64.95 152.15 26.53 139.9 26.53 139.9 0"/>
      <rect class="cls-1" x="87.2" width="11.88" height="64.95"/>
      <rect class="cls-1" x="53.3" y="4.97" width="11.64" height="13.86"/>
      <polygon class="cls-1" points="341.92 26.53 302.12 26.53 302.12 11.88 355.19 11.88 355.19 0 290.24 0 290.24 64.95 302.12 64.95 302.12 38.41 341.92 38.41 341.92 26.53"/>
      <polygon class="cls-1" points="257.94 64.95 269.82 64.95 269.82 0 204.87 0 204.87 64.95 216.75 64.95 216.75 11.88 257.94 11.88 257.94 64.95"/>
      <polygon class="cls-1" points="393.72 64.95 405.59 64.95 405.59 11.88 432.13 11.88 432.13 0 367.18 0 367.18 11.88 393.72 11.88 393.72 64.95"/>
      <rect class="cls-1" x="172.57" width="11.88" height="64.95"/>
      <polygon class="cls-1" points="53.07 53.07 0 53.07 0 64.95 64.95 64.95 64.95 26.54 11.88 26.54 11.88 11.88 64.95 11.88 64.95 0 0 0 0 38.41 53.07 38.41 53.07 53.07"/>
    </g>
  </g>
</svg>