<?xml version="1.0" encoding="UTF-8"?>
<svg id="_レイヤー_2" data-name="レイヤー 2" xmlns="http://www.w3.org/2000/svg" viewBox="0 0 511.39 89.53">
  <defs>
    <style>
      .cls-1 {
        fill: #004098;
      }
    </style>
  </defs>
  <g id="_レイヤー_1-2" data-name="レイヤー 1">
    <path class="cls-1" d="m35.21,24.31v18.79h-11.62v-18.79h11.62m30.51,0v18.79h-11.62v-18.79h11.62m0,22.32v18.58H23.58v-18.58h15.16v-22.32h11.82v22.32h15.16m96.97-1.61v-27.16h12.91v29.76c-1.45-.98-2.78-2.36-3.09-3.82-.44-2.09-.99-7.72-.99-7.72,0,0-2.76,8.28-3.3,9.38-.56,1.1-.89,1.65-1.78,1.65h-2.09c-1.22,0-1.66-.88-1.66-2.09m-4.86,13.02c4.63,0,10.59.11,12.69,0,1.46-.07,3.57-.97,5.08-2.06v14.21h-52.44v-4.96c2.93-1.52,10.1-5.62,14.24-11.5,5.3-7.5,5.96-16.78,5.96-24.72v-11.15h7.06v32.75c0,3.83,2.77,7.43,7.4,7.43m-28.7-3.97c-2.19,3.95-4.54,6.22-5.96,7.35V17.87h9.5v17.66c0,3.09-.11,12.36-3.53,18.55m143.29,2.21c1.91-1.55,2.36-3.31,1.98-4.79-.37-1.47-2.65-3.75-4.56-4.34-1.91-.59-7.29-1.99-7.87-.89-.44.82,1.32,2.29,2.21,3.76.88,1.47,2.28,3.97,2.71,5.37.45,1.4,3.62,2.43,5.53.88m-42.83,7.28c.2.79.44,1.88.77,2.65.33.78.77,1,1.65,1h46.07c1.55,0,2.43-.77,2.66-1.55.21-.76.44-1.97-1-3.19-1.44-1.21-4.09-3.35-5.3-4.23-1.21-.88-2.86-.66-3.86.33-1,1-3.2,3.57-3.2,3.57h-7.39v-17.88h15.41c1.55,0,2.24-.56,2.46-1.33.22-.77.27-1.29-1.16-2.5-1.43-1.21-4.77-3.76-5.99-4.65-1.21-.88-2.24-.55-3.24.45-.99.99-2.79,2.95-2.79,2.95h-4.7v-13.46h17.29c1.55,0,2.43-.78,2.65-1.55.22-.78.45-1.99-.99-3.2-1.44-1.22-4.09-3.64-5.3-4.53-1.21-.88-2.87-.66-3.86.33-1,.99-3.21,3.86-3.21,3.86h-33.44c-1.11,0-1.55.55-1.32,1.44.19.78.43,1.88.77,2.65.33.77.77,1,1.65,1h13.55v13.46h-13.62c-1.11,0-1.55.56-1.33,1.44.2.78.45,1.88.78,2.65.33.78.77.99,1.66.99h12.51v17.88h-16.86c-1.11,0-1.55.56-1.32,1.44Zm-2.87-49.01h55.96v58.51h-55.96V14.56Zm159.48,1.92v6.69h-13.68l.03-6.69h13.64m7.36,25.98c-.82,1.09-1.86,2.35-3.24,3.68-2.3,2.22-4.75,3.91-6.45,4.98-2.44-4.98-2.89-9.27-2.96-11.09h5.3v1.03c0,1.55.95,1.62,2.06,1.62.54,0,2.97-.1,5.3-.21m-7.36-13.99v5.96h-13.73l.03-5.96h13.7m122.53,8.39c2.5,0,3.83-3.17,1.32-5.22-1.46-1.2-6.18-4.27-7.8-5.3-1.04-.67-2.65-.23-3.3.55-.67.77-3.94,5-3.94,5h-38.89c-.77,0-1.21.17-.99.82.28.85,1.32,2.82,1.77,3.37.44.55,1.11.77,2.1.77h22.08v30.51c0,3.39-.88,4.42-2.5,4.42s-3.53.18-5.3.18-2.37.71-1.34,1.31c1.04.59,4.57,6.5,5.31,7.53.74,1.03,1.03,2.36,2.06,2.36s1.77.15,6.92-.45c5.14-.59,7.95-4.42,7.95-7.95v-37.9h14.57m-52.41-7.67c.67-.78.61-1.21-.05-1.54-.66-.33-11.04-4.37-11.59-4.59-.56-.21-1.27,0-1.55.61-.28.61-4.14,7.79-9.88,14.85-5.74,7.07-12.36,14.9-13.36,15.68-.99.77,0,1.32,1.22.77.87-.4,6.43-2.6,13.28-6.87v33.14c0,1.55.74,1.69,1.32,1.62.59-.07,9.57-1.18,10.12-1.28.55-.11,1.22-.56,1.22-1.22v-41.79c6.56-5.71,8.72-8.74,9.26-9.38Zm-37.08,1.6c.88-.22,8.5-2.98,19.98-9.27,11.47-6.3,14.16-9.17,15.04-9.9.88-.73,1.18-1.76.29-2.2-.88-.45-10.11-4.83-11.19-5.16-.48-.15-.85.04-1.17.59-.34.55-4.86,7.18-8.17,10.71-3.31,3.54-13.91,13.14-14.9,14.13-.99,1-.77,1.32.11,1.1Zm-13.1,41.91c-1.18-.66-10.59-6.04-18.18-15.23-1.12-1.36-2.05-2.71-2.84-4.04,3.23-.71,17.93-4.22,18.74-4.35.89-.15,1.17-.88.66-1.4-.33-.33-3.79-3.81-6.25-6.3v-23.06s1.17-.81,1.84-1.47c.88-.88.79-1.94,0-2.58-.74-.59-6.85-4.78-7.65-5.3-.81-.52-2.21-.29-2.73.22-.35.35-1.84,1.82-2.78,2.73h-15.52c-1.34-.51-3.53-1.36-5.06-1.93-2.31-.88-4.14-1.44-4.69-1.65-.56-.23-1.38.49-1.38,1.04v60.04c-4.08.68-7.12,1.18-7.43,1.22-1.03.15-1.18.96-.96,1.47.22.52,3.1,8.38,3.32,8.98.22.59,1.1.96,1.77.66.52-.23,19.04-9.07,26.67-12.71,4.47,6.9,11.37,11.54,11.37,11.54l10.96-6.04c1.19-.52,1.21-1.24.15-1.84Zm-84.93-16.96c.44,2.42,1.1,5.51,1.1,7.5s3.2,4.08,6.18,2.77c2.98-1.34,4.41-4.64,3.21-8.18-1.23-3.53-4.2-5.62-6.63-6.62-2.43-1-6.29-2.21-6.62-1.66-.33.55,2.32,3.75,2.77,6.19Zm.88,24.72c1.33-.44,36.54-14.02,36.54-14.02,0,0-6.05.38-13.47.85v-1.94c3.18-2.81,12.23-10.86,12.69-11.49.56-.78.56-1.66-.54-2.33-1.11-.66-6.18-2.64-6.8-2.87-.6-.22-1.15.33-1.37,1-.16.47-2.61,8.31-3.98,12.64v-16.29h11.82c1.65,0,2.31-2.54.87-3.97-1.43-1.43-3.52-3.2-4.52-3.98-1-.77-2.2-.44-2.98.55-.77,1-2.1,3.21-2.1,3.21h-3.09v-7.28h7.73c2.43,0,2.43-2.43,1.55-3.42-.89-1-4.64-3.64-5.96-4.42-1.32-.77-2.76-.33-3.32.33-.54.66-2.2,2.32-2.2,2.32h-11.95c1.44-1.54,2.92-3.17,4.44-4.97,3.19-3.8,5.5-6.8,7.16-9.09,2.13.38,2.65,1.23,4.21,2.69,1.87,1.76,2.2,4.86,3.75,6.07,1.54,1.21,5.3,2.76,8.06-1.1,2.77-3.86-.56-7.51-3.76-8.95-2.32-1.04-7.67-1.27-10.42-1.31,1.18-1.74,1.7-2.66,1.7-2.66,0,0-14.24-5.07-15-5.19-.78-.11-1.11.45-1.22,1.11-.11.66-2.1,10.7-5.52,18.32-3.42,7.62-8.72,15.23-9.61,16.34-.88,1.11-2.21,4.08,1.44,1.66,2.1-1.4,5.51-3.98,9.55-7.73h7.01v7.28h-11.59c-.89,0-1.33.44-1.11,1.11.22.66.44,1.65.89,2.43.43.78,1.32.66,2.31.66h9.5v22.06c-7.87.49-14.55.9-14.91.9-.89,0-1.21.56-.99,1.1.26.65,2.54,8.83,2.87,9.61.33.77.99,1.22,2.32.77Zm-25.39-69.33c-1.33-.88-7.39-4.19-8.17-4.52-.77-.33-1.76-.23-2.31.33-.39.39-1.53,1.6-2.41,2.54h-58.36c-.32-.25-.69-.48-1.16-.66-1.99-.77-6.73-2.43-7.51-2.76-.77-.33-1.99.22-2.1,1.54-.12,1.43,0,71.42,0,72.53s.99,1.88,1.98,1.88c0,0,7.73-.89,8.51-1,.77-.11,1.55-.99,1.55-1.65v-1.22h55.96v.88c0,1.66.78,2.31,1.77,2.21.99-.11,8.61-.66,9.48-1,.89-.33,2.11-.55,2.11-1.99V16.32s.82-.84,1.44-1.66c.99-1.32.54-2.64-.78-3.53Zm-107.07,3.32c-1.33-.89-7.4-4.19-8.18-4.53-.76-.33-1.75-.23-2.31.34-.39.38-1.52,1.59-2.4,2.53h-54.84c-.32-.25-.69-.47-1.15-.65-1.99-.77-6.74-2.43-7.51-2.77-.77-.34-1.99.22-2.09,1.54-.12,1.43,0,66.58,0,67.68s.99,1.88,1.99,1.88c0,0,7.73-.88,8.5-1,.77-.11,1.54-.98,1.54-1.65v-2.54h52.44v2.21c0,1.65.77,2.31,1.77,2.2,1-.11,8.61-.66,9.49-.99.88-.33,2.1-.56,2.1-1.99V19.64s.82-.85,1.44-1.66c.99-1.32.56-2.65-.77-3.53ZM20.06,20.78c6.22-6.41,14.92-10.4,24.6-10.4,17.67,0,32.36,13.24,34.18,30.79l.16,1.59h10.39l-.16-1.92C87.19,17.55,68.03,0,44.65,0S1.18,18.62.02,42.55h3.54C4.72,20.59,22.56,3.52,44.65,3.52c20.51,0,37.94,15.56,40.69,35.7h-3.32c-2.72-18.54-18.45-32.37-37.38-32.37C24.45,6.86,8.05,22.46,6.88,42.55h3.54c.54-8.5,4.11-16.08,9.63-21.76v47.96c-5.57-5.73-9.16-13.41-9.66-22h-3.54c1.04,20.2,17.5,35.93,37.79,35.93,18.93,0,34.66-13.83,37.38-32.37h3.32c-2.75,20.14-20.18,35.7-40.69,35.7-22.17,0-40.07-17.19-41.12-39.26H0c1.04,24.04,20.52,42.79,44.65,42.79s42.53-17.56,44.57-40.84l.16-1.92h-10.39l-.16,1.59c-1.82,17.55-16.51,30.78-34.18,30.78-9.68,0-18.38-3.97-24.6-10.39h49.19V20.78H20.06Zm441.02-8.38c.29.84,1.32,2.81,1.76,3.37.45.55,1.1.77,2.11.77h39.74c1.11,0,2.1-2.21.88-3.54-1.21-1.32-8.17-5.74-9.28-6.3-1.09-.55-2.65-.22-3.31.56-.66.78-3.42,4.31-3.42,4.31h-27.49c-.76,0-1.21.16-.99.83Zm-83.27,27.61c.02,3.66.34,14.74,2.95,23.04.3.94.68,1.86,1.1,2.75-2.44.41-5.84.97-9.51,1.59l.11-27.38h5.35M20.06,20.79h0s0,0,0,0"/>
  </g>
</svg>