<?xml version="1.0" encoding="UTF-8"?>
<svg id="_レイヤー_2" data-name="レイヤー 2" xmlns="http://www.w3.org/2000/svg" viewBox="0 0 479 56.87">
  <defs>
    <style>
      .cls-1 {
        fill: #004098;
        stroke-width: 0px;
      }
    </style>
  </defs>
  <g id="_レイヤー_1-2" data-name="レイヤー 1">
    <g>
      <path class="cls-1" d="m2.44,43.64c3.15,1.65,8.19,3.31,13.31,3.31,5.51,0,8.43-2.28,8.43-5.75s-2.52-5.2-8.9-7.4C6.46,30.64.63,25.76.63,18.04.63,8.98,8.27,2.13,20.72,2.13c6.07,0,10.4,1.18,13.55,2.68l-2.68,9.61c-2.05-1.02-5.91-2.52-11.03-2.52s-7.72,2.44-7.72,5.12c0,3.39,2.91,4.88,9.85,7.48,9.37,3.47,13.71,8.35,13.71,15.83,0,8.9-6.78,16.46-21.35,16.46-6.07,0-12.05-1.65-15.05-3.31l2.44-9.85Z"/>
      <path class="cls-1" d="m44.19,0h11.97v22.14h.16c1.26-1.73,2.84-3.07,4.73-4.02,1.81-.95,4.02-1.5,6.22-1.5,7.64,0,13.47,5.28,13.47,16.94v22.45h-11.97v-21.19c0-5.04-1.73-8.51-6.22-8.51-3.15,0-5.12,2.05-5.99,4.25-.32.71-.39,1.73-.39,2.6v22.84h-11.97V0Z"/>
      <path class="cls-1" d="m96.26,12.76c-3.78,0-6.22-2.68-6.22-5.99s2.52-5.99,6.38-5.99,6.22,2.6,6.3,5.99c0,3.31-2.44,5.99-6.38,5.99h-.08Zm-5.91,43.25V17.49h11.97v38.52h-11.97Z"/>
      <path class="cls-1" d="m123.9,33.72h.16c.87-1.65,1.81-3.23,2.76-4.65l7.8-11.58h14.42l-13.79,15.6,15.75,22.92h-14.73l-9.37-15.83-2.99,3.78v12.05h-11.97V0h11.97v33.72Z"/>
      <path class="cls-1" d="m172.35,56.87c-11.26,0-19.93-7.4-19.93-19.85s8.19-20.4,20.64-20.4c11.74,0,19.61,8.11,19.61,19.77,0,14.02-10,20.48-20.24,20.48h-.08Zm.32-8.59c4.73,0,7.64-4.65,7.64-11.58,0-5.67-2.21-11.5-7.64-11.5s-7.88,5.83-7.88,11.58c0,6.54,2.76,11.5,7.8,11.5h.08Z"/>
      <path class="cls-1" d="m212.05,33.72h.16c.87-1.65,1.81-3.23,2.76-4.65l7.8-11.58h14.42l-13.79,15.6,15.75,22.92h-14.73l-9.37-15.83-2.99,3.78v12.05h-11.97V0h11.97v33.72Z"/>
      <path class="cls-1" d="m279.08,43.64c0,5.04.16,9.14.31,12.37h-10.4l-.55-5.44h-.24c-1.5,2.36-5.12,6.3-12.05,6.3-7.88,0-13.55-4.88-13.55-16.78v-22.61h11.97v20.72c0,5.59,1.81,8.98,6.06,8.98,3.31,0,5.28-2.28,5.99-4.18.31-.71.47-1.58.47-2.6v-22.92h11.97v26.15Z"/>
      <path class="cls-1" d="m305,3.7c3.15-.63,9.45-1.18,15.52-1.18,7.33,0,11.82.71,15.68,2.99,3.7,1.97,6.3,5.59,6.3,10.48s-2.76,8.98-8.67,11.26v.16c6.07,1.58,10.56,6.22,10.56,13.08,0,4.88-2.21,8.67-5.51,11.26-3.86,3.07-10.32,4.81-20.87,4.81-5.91,0-10.32-.39-13-.79V3.7Zm11.9,20.24h3.94c6.38,0,9.69-2.6,9.69-6.54s-3.07-6.14-8.51-6.14c-2.68,0-4.17.16-5.12.39v12.29Zm0,23.55c1.18.24,2.6.24,4.65.24,5.44,0,10.24-2.13,10.24-7.72s-4.81-7.48-10.79-7.48h-4.1v14.97Z"/>
      <path class="cls-1" d="m384.24,46.71c0,3.62.16,7.17.63,9.3h-10.79l-.71-3.86h-.24c-2.52,3.07-6.46,4.73-11.03,4.73-7.8,0-12.45-5.67-12.45-11.82,0-10,8.98-14.73,22.61-14.73v-.47c0-2.05-1.1-4.96-7.01-4.96-3.94,0-8.11,1.34-10.63,2.84l-2.21-7.64c2.68-1.5,7.96-3.47,14.97-3.47,12.84,0,16.86,7.56,16.86,16.62v13.47Zm-11.58-8.9c-6.3,0-11.19,1.5-11.19,6.07,0,3.07,2.05,4.57,4.73,4.57,2.91,0,5.44-1.97,6.22-4.41.16-.63.24-1.34.24-2.05v-4.17Z"/>
      <path class="cls-1" d="m393.77,29.78c0-4.81-.16-8.82-.32-12.29h10.4l.55,5.36h.24c1.58-2.52,5.44-6.22,11.89-6.22,7.88,0,13.79,5.28,13.79,16.62v22.77h-11.97v-21.35c0-4.96-1.73-8.35-6.07-8.35-3.31,0-5.28,2.28-6.14,4.49-.31.79-.39,1.89-.39,2.99v22.21h-11.97v-26.23Z"/>
      <path class="cls-1" d="m451.9,33.72h.16c.87-1.65,1.81-3.23,2.76-4.65l7.8-11.58h14.42l-13.79,15.6,15.75,22.92h-14.73l-9.37-15.83-2.99,3.78v12.05h-11.97V0h11.97v33.72Z"/>
    </g>
  </g>
</svg>