<?xml version="1.0" encoding="UTF-8"?>
<svg xmlns="http://www.w3.org/2000/svg" xmlns:xlink="http://www.w3.org/1999/xlink" width="180px" height="40px" viewBox="0 0 179 40" version="1.1">
<defs>
<linearGradient id="linear0" gradientUnits="userSpaceOnUse" x1="127.994003" y1="256" x2="127.994003" y2="129.326996" gradientTransform="matrix(0.155652,0,0,0.15625,0,0)">
<stop offset="0" style="stop-color:rgb(91.372549%,40.784314%,86.666667%);stop-opacity:1;"/>
<stop offset="0.45" style="stop-color:rgb(21.960784%,36.078431%,89.803922%);stop-opacity:1;"/>
<stop offset="0.75" style="stop-color:rgb(0%,0%,0%);stop-opacity:1;"/>
</linearGradient>
</defs>
<g id="surface1">
<path style=" stroke:none;fill-rule:nonzero;fill:rgb(0%,0%,0%);fill-opacity:1;" d="M 78.085938 27.628906 L 74.390625 27.628906 L 74.390625 25.269531 C 73.53125 26.957031 71.8125 27.894531 69.648438 27.894531 C 66.25 27.894531 64.007812 25.417969 64.007812 21.820312 L 64.007812 12.375 L 67.703125 12.375 L 67.703125 21.03125 C 67.703125 23.132812 69.011719 24.59375 70.878906 24.59375 C 72.96875 24.59375 74.425781 22.945312 74.425781 20.695312 L 74.425781 12.375 L 78.125 12.375 L 78.125 27.667969 Z M 78.085938 27.628906 "/>
<path style=" stroke:none;fill-rule:nonzero;fill:rgb(0%,0%,0%);fill-opacity:1;" d="M 46.007812 20.515625 L 49.855469 20.515625 C 50.078125 22.875 51.644531 24.414062 54.1875 24.414062 C 56.464844 24.414062 58.03125 23.511719 58.03125 21.636719 C 58.03125 17.101562 46.679688 20.25 46.679688 12.117188 C 46.679688 8.628906 49.667969 6.195312 53.960938 6.195312 C 58.257812 6.195312 61.46875 8.78125 61.617188 12.753906 L 57.808594 12.753906 C 57.621094 10.917969 56.164062 9.644531 53.925781 9.644531 C 51.832031 9.644531 50.527344 10.617188 50.527344 12.117188 C 50.527344 16.800781 62.027344 13.316406 62.027344 21.5625 C 62.027344 25.5 58.777344 27.898438 54.148438 27.898438 C 49.519531 27.898438 46.195312 24.972656 46.007812 20.550781 Z M 46.007812 20.515625 "/>
<path style=" stroke:none;fill-rule:nonzero;fill:rgb(0%,0%,0%);fill-opacity:1;" d="M 84.660156 25.722656 L 84.660156 27.636719 L 80.960938 27.636719 L 80.960938 6.195312 L 84.660156 6.195312 L 84.660156 14.214844 C 85.515625 12.980469 87.160156 12.117188 89.140625 12.117188 C 93.65625 12.117188 96.308594 15.339844 96.308594 19.988281 C 96.308594 24.636719 93.621094 27.859375 89.066406 27.859375 C 87.234375 27.859375 85.515625 27.035156 84.660156 25.722656 Z M 92.648438 19.988281 C 92.648438 17.175781 91.007812 15.304688 88.542969 15.304688 C 86.078125 15.304688 84.433594 17.140625 84.433594 19.988281 C 84.433594 22.835938 86.078125 24.675781 88.542969 24.675781 C 91.007812 24.675781 92.648438 22.835938 92.648438 19.988281 Z M 92.648438 19.988281 "/>
<path style=" stroke:none;fill-rule:nonzero;fill:rgb(0%,0%,0%);fill-opacity:1;" d="M 110.164062 27.78125 L 110.164062 28.714844 C 110.164062 30.328125 110.871094 30.851562 112.441406 30.851562 L 116.996094 30.851562 L 116.996094 33.816406 L 112.253906 33.816406 C 108.371094 33.816406 106.652344 32.351562 106.652344 28.867188 L 106.652344 27.742188 C 101.386719 26.953125 97.691406 22.644531 97.691406 17.019531 C 97.691406 10.761719 102.207031 6.148438 108.371094 6.148438 C 114.53125 6.148438 119.011719 10.761719 119.011719 17.019531 C 119.011719 22.644531 115.316406 26.917969 110.125 27.742188 Z M 108.332031 24.40625 C 112.214844 24.40625 115.015625 21.292969 115.015625 17.058594 C 115.015625 12.824219 112.214844 9.675781 108.332031 9.675781 C 104.449219 9.675781 101.6875 12.824219 101.6875 17.058594 C 101.6875 21.292969 104.488281 24.40625 108.332031 24.40625 Z M 108.332031 24.40625 "/>
<path style=" stroke:none;fill-rule:nonzero;fill:rgb(0%,0%,0%);fill-opacity:1;" d="M 135.292969 27.628906 L 131.59375 27.628906 L 131.59375 25.269531 C 130.738281 26.957031 129.019531 27.894531 126.851562 27.894531 C 123.453125 27.894531 121.214844 25.417969 121.214844 21.820312 L 121.214844 12.375 L 124.910156 12.375 L 124.910156 21.03125 C 124.910156 23.132812 126.21875 24.59375 128.085938 24.59375 C 130.175781 24.59375 131.632812 22.945312 131.632812 20.695312 L 131.632812 12.375 L 135.328125 12.375 L 135.328125 27.667969 Z M 135.292969 27.628906 "/>
<path style=" stroke:none;fill-rule:nonzero;fill:rgb(0%,0%,0%);fill-opacity:1;" d="M 152.097656 22.570312 C 151.539062 25.832031 148.699219 27.890625 144.929688 27.890625 C 139.960938 27.890625 137.160156 23.957031 137.160156 19.945312 C 137.160156 15.933594 139.625 12.109375 144.628906 12.109375 C 149.632812 12.109375 152.023438 15.859375 152.023438 19.457031 C 152.023438 19.984375 152.023438 20.433594 151.949219 20.730469 L 140.707031 20.730469 C 140.96875 23.207031 142.539062 24.78125 144.890625 24.78125 C 146.796875 24.78125 148.027344 23.992188 148.4375 22.53125 L 152.0625 22.53125 Z M 140.820312 18.332031 L 148.328125 18.332031 C 148.175781 16.382812 146.832031 14.921875 144.628906 14.921875 C 142.539062 14.921875 141.230469 16.007812 140.820312 18.332031 Z M 140.820312 18.332031 "/>
<path style=" stroke:none;fill-rule:nonzero;fill:rgb(0%,0%,0%);fill-opacity:1;" d="M 160.988281 15.484375 C 158.632812 15.484375 157.699219 17.507812 157.699219 20.433594 L 157.699219 27.628906 L 154.003906 27.628906 L 154.003906 12.371094 L 157.699219 12.371094 L 157.699219 15.070312 C 158.445312 13.121094 159.640625 12.371094 161.582031 12.371094 L 163.375 12.371094 L 163.375 15.484375 Z M 160.988281 15.484375 "/>
<path style=" stroke:none;fill-rule:nonzero;fill:rgb(0%,0%,0%);fill-opacity:1;" d="M 175.25 12.375 L 175.25 20.695312 C 175.25 22.945312 173.796875 24.59375 171.703125 24.59375 C 169.835938 24.59375 168.527344 23.132812 168.527344 21.03125 L 168.527344 12.375 L 164.832031 12.375 L 164.832031 21.820312 C 164.832031 25.382812 167.074219 27.894531 170.472656 27.894531 C 172.636719 27.894531 174.355469 26.957031 175.214844 25.269531 L 175.214844 28.679688 C 175.214844 30.292969 174.503906 30.816406 172.9375 30.816406 L 166.699219 30.816406 L 166.699219 33.777344 L 173.347656 33.777344 C 177.230469 33.777344 178.949219 32.316406 178.949219 28.828125 L 178.949219 12.375 Z M 175.25 12.375 "/>
<path style=" stroke:none;fill-rule:nonzero;fill:url(#linear0);" d="M 27.484375 25.003906 L 24.683594 22.195312 C 23.414062 20.917969 21.734375 20.207031 19.902344 20.207031 C 18.113281 20.207031 16.394531 20.917969 15.125 22.195312 L 12.324219 25.003906 L 4.519531 32.839844 L 7.132812 35.464844 L 14.972656 27.59375 C 15.757812 26.804688 16.691406 27.105469 16.953125 27.21875 C 17.214844 27.328125 18.074219 27.78125 18.074219 28.902344 L 18.074219 40 L 21.769531 40 L 21.769531 28.902344 C 21.769531 27.78125 22.628906 27.328125 22.890625 27.21875 C 23.152344 27.105469 24.085938 26.804688 24.871094 27.59375 L 32.710938 35.464844 L 35.328125 32.839844 L 27.523438 25.003906 Z M 27.484375 25.003906 "/>
<path style=" stroke:none;fill-rule:nonzero;fill:rgb(0%,0%,0%);fill-opacity:1;" d="M 32.824219 18.144531 C 31.367188 18.144531 30.136719 17.320312 29.574219 15.96875 C 29.015625 14.621094 29.3125 13.15625 30.324219 12.144531 L 35.289062 7.160156 L 32.675781 4.535156 L 28.269531 8.960938 C 27.933594 9.296875 27.558594 9.558594 27.1875 9.859375 C 26.214844 10.421875 25.09375 10.496094 24.011719 10.046875 C 22.59375 9.445312 21.734375 8.171875 21.734375 6.636719 L 21.734375 0 L 18.035156 0 L 18.035156 6.636719 C 18.035156 8.171875 17.179688 9.445312 15.757812 10.046875 C 14.675781 10.496094 13.554688 10.421875 12.621094 9.894531 C 12.25 9.597656 11.839844 9.335938 11.5 8.960938 L 7.09375 4.535156 L 4.480469 7.160156 L 9.148438 11.84375 C 10.230469 12.933594 10.53125 14.433594 9.933594 15.855469 C 9.335938 17.28125 8.066406 18.144531 6.535156 18.144531 L 0 18.144531 L 0 21.855469 L 6.609375 21.855469 C 9.632812 21.855469 12.25 20.09375 13.40625 17.320312 C 13.742188 16.53125 13.890625 15.746094 13.929688 14.957031 C 15.832031 15.746094 17.886719 16.15625 19.902344 16.15625 C 21.921875 16.15625 23.824219 15.78125 25.65625 15.03125 C 25.691406 15.820312 25.839844 16.605469 26.175781 17.394531 C 27.296875 20.128906 29.835938 21.855469 32.824219 21.855469 L 39.84375 21.855469 L 39.84375 18.144531 Z M 32.824219 18.144531 "/>
</g>
</svg>
