<svg width="1150" height="256" viewBox="0 0 1150 256" fill="none" xmlns="http://www.w3.org/2000/svg">
<path d="M501.67 176.833H477.919V161.719C472.401 172.515 461.365 178.513 447.45 178.513C425.618 178.513 411.224 162.679 411.224 139.647V79.1896H434.975V134.609C434.975 148.044 443.372 157.401 455.367 157.401C468.802 157.401 478.159 146.845 478.159 132.45V79.1896H501.91V177.073L501.67 176.833Z" fill="black"/>
<path d="M295.58 131.288H320.291C321.73 146.402 331.807 156.238 348.121 156.238C362.755 156.238 372.831 150.481 372.831 138.485C372.831 109.456 299.898 129.608 299.898 77.5476C299.898 55.2359 319.091 39.6417 346.681 39.6417C374.271 39.6417 394.903 56.1955 395.863 81.6261H371.392C370.192 69.8704 360.836 61.7135 346.441 61.7135C333.006 61.7135 324.609 67.9512 324.609 77.5476C324.609 107.536 398.502 85.2247 398.502 138.005C398.502 163.196 377.63 178.55 347.881 178.55C318.132 178.55 296.78 159.837 295.58 131.528V131.288Z" fill="black"/>
<path d="M543.896 164.635V176.871H520.145V39.6417H543.896V90.9826C549.414 83.0655 559.97 77.5476 572.685 77.5476C601.714 77.5476 618.748 98.1799 618.748 127.929C618.748 157.678 601.474 178.31 572.205 178.31C560.45 178.31 549.414 173.032 543.896 164.635ZM595.237 127.929C595.237 109.936 584.681 97.94 568.846 97.94C553.012 97.94 542.456 109.696 542.456 127.929C542.456 146.162 553.012 157.918 568.846 157.918C584.681 157.918 595.237 146.162 595.237 127.929Z" fill="black"/>
<path d="M707.747 177.79V183.787C707.747 194.104 712.306 197.462 722.382 197.462H751.651V216.415H721.182C696.232 216.415 685.196 207.059 685.196 184.747V177.55C651.368 172.512 627.617 144.922 627.617 108.935C627.617 68.87 656.646 39.361 696.232 39.361C735.817 39.361 764.606 68.87 764.606 108.935C764.606 144.922 740.855 172.272 707.508 177.55L707.747 177.79ZM695.992 156.198C720.943 156.198 738.936 136.285 738.936 109.175C738.936 82.0651 720.943 61.9126 695.992 61.9126C671.041 61.9126 653.288 82.0651 653.288 109.175C653.288 136.285 671.281 156.198 695.992 156.198Z" fill="black"/>
<path d="M869.198 176.833H845.447V161.719C839.929 172.515 828.893 178.513 814.979 178.513C793.147 178.513 778.752 162.679 778.752 139.647V79.1896H802.503V134.609C802.503 148.044 810.9 157.401 822.896 157.401C836.331 157.401 845.687 146.845 845.687 132.45V79.1896H869.438V177.073L869.198 176.833Z" fill="black"/>
<path d="M977.168 144.442C973.569 165.314 955.336 178.509 931.105 178.509C899.196 178.509 881.203 153.318 881.203 127.648C881.203 101.977 897.037 77.5064 929.185 77.5064C961.333 77.5064 976.688 101.498 976.688 124.529C976.688 127.888 976.688 130.767 976.208 132.686H903.995C905.674 148.52 915.75 158.596 930.865 158.596C943.1 158.596 951.017 153.558 953.656 144.202H976.928L977.168 144.442ZM904.714 117.332H952.937C951.977 104.856 943.34 95.4997 929.185 95.4997C915.75 95.4997 907.353 102.457 904.714 117.332Z" fill="black"/>
<path d="M1034.27 99.0993C1019.15 99.0993 1013.15 112.055 1013.15 130.768V176.83H989.402V79.1867H1013.15V96.4603C1017.95 83.9849 1025.63 79.1867 1038.1 79.1867H1049.62V99.0993H1034.27Z" fill="black"/>
<path d="M1125.92 79.1896V132.45C1125.92 146.845 1116.56 157.401 1103.13 157.401C1091.13 157.401 1082.73 148.044 1082.73 134.609V79.1896H1058.98V139.647C1058.98 162.439 1073.38 178.513 1095.21 178.513C1109.12 178.513 1120.16 172.515 1125.68 161.719V183.551C1125.68 193.867 1121.12 197.226 1111.04 197.226H1070.98V216.179H1113.68C1138.63 216.179 1149.67 206.822 1149.67 184.511V79.1896H1125.92Z" fill="black"/>
<path d="M176.576 160.035L158.582 142.042C150.425 133.885 139.629 129.327 127.874 129.327C116.358 129.327 105.322 133.885 97.165 142.042L79.1717 160.035L29.0303 210.177L45.824 226.97L96.2053 176.589C101.243 171.551 107.241 173.47 108.921 174.19C110.6 174.91 116.118 177.789 116.118 184.986V256H139.869V184.986C139.869 177.789 145.387 174.91 147.066 174.19C148.746 173.47 154.744 171.551 159.782 176.589L210.163 226.97L226.957 210.177L176.815 160.035H176.576Z" fill="url(#paint0_linear_7221_5135)"/>
<path d="M210.884 116.117C201.527 116.117 193.61 110.839 190.011 102.202C186.413 93.5653 188.332 84.2087 194.81 77.7312L226.718 45.823L209.924 29.0292L181.615 57.3387C179.455 59.4979 177.056 61.1773 174.657 63.0966C168.419 66.6953 161.222 67.1751 154.265 64.2961C145.148 60.4576 139.63 52.3006 139.63 42.4642V0H115.879V42.4642C115.879 52.3006 110.361 60.4576 101.244 64.2961C94.2869 67.1751 87.0896 66.6953 81.0919 63.3365C78.6927 61.4172 76.0537 59.7378 73.8945 57.3387L45.585 29.0292L28.7913 45.823L58.7801 75.8119C65.7375 82.7693 67.6568 92.3657 63.8183 101.482C59.9797 110.599 51.8227 116.117 41.9864 116.117H0.00195312V139.868H42.4662C61.899 139.868 78.6927 128.592 86.13 110.839C88.2892 105.801 89.2488 100.763 89.4887 95.7245C101.724 100.763 114.919 103.402 127.874 103.402C140.83 103.402 153.065 101.003 164.821 96.2043C165.061 101.242 166.02 106.281 168.18 111.319C175.377 128.832 191.691 139.868 210.884 139.868H255.987V116.117H210.884Z" fill="black"/>
<defs>
<linearGradient id="paint0_linear_7221_5135" x1="127.994" y1="256" x2="127.994" y2="129.327" gradientUnits="userSpaceOnUse">
<stop stop-color="#E968DD"/>
<stop offset="0.45" stop-color="#385CE5"/>
<stop offset="0.75"/>
</linearGradient>
</defs>
</svg>
