<svg width="133" height="28" viewBox="0 0 133 28" fill="none" xmlns="http://www.w3.org/2000/svg">
<path d="M28.4825 14.0003C28.4825 21.7285 22.1795 28.0007 14.4133 28.0007C6.64706 28.0007 0.333496 21.7279 0.333496 14.0003C0.333496 6.27279 6.6365 0 14.4133 0C22.1901 0 28.4825 6.27214 28.4825 14.0003Z" fill="#DD1438"/>
<path d="M22.4766 7.26758C22.1354 6.41378 21.5744 5.6585 20.9368 5.03457C20.2656 4.41064 19.4736 3.91806 18.6486 3.57851C18.0988 3.35981 17.5266 3.21729 16.9326 3.14045C14.8318 2.83374 12.6208 3.48 11.0144 5.07791C9.16637 6.91686 8.51759 9.62078 9.33137 12.127V12.1598C8.81459 12.4771 8.34137 12.8606 7.93415 13.298C7.29593 13.966 6.76793 14.7541 6.42737 15.6079C6.08615 16.4728 5.93237 17.3595 5.93237 18.3006C5.93237 19.1873 6.13037 20.1179 6.49337 20.9494C6.83459 21.8032 7.39559 22.5585 8.03315 23.1824C8.70437 23.8063 9.49637 24.2989 10.3214 24.6384C11.1464 24.978 12.0374 25.131 12.9502 25.131C12.8182 25.131 12.6974 25.131 12.5759 25.1199C14.4787 25.2184 16.4039 24.5504 17.8559 23.1055C19.7152 21.2554 20.3639 18.5738 19.5607 16.111C20.1105 15.7826 20.6167 15.3774 21.0457 14.9288C21.6839 14.2608 22.2119 13.4727 22.5525 12.6189C22.8937 11.754 23.0475 10.8673 23.0475 9.92618C23.0475 9.01787 22.8495 8.08723 22.4753 7.26627M16.4033 7.75884C16.3485 7.54014 16.3373 7.31027 16.3373 7.09091C16.5901 7.13491 16.8323 7.2111 17.0745 7.30961C17.4157 7.45213 17.7015 7.682 17.9325 7.93354C18.1523 8.20741 18.3503 8.49179 18.4605 8.83134C18.5813 9.17089 18.6143 9.49928 18.6143 9.83817C18.5701 10.4838 18.2955 11.086 17.8441 11.5346L16.4033 7.75818V7.75884ZM18.0421 12.0718C18.0863 12.0278 18.1298 11.9845 18.1741 11.9405C18.4711 11.6338 18.6578 11.3166 18.8011 10.9337C18.9548 10.5508 18.9878 10.1455 18.9878 9.77315C18.9878 9.35742 18.8776 8.99619 18.7238 8.65664C18.5701 8.3171 18.3061 8.02155 18.0526 7.75884C17.7886 7.52897 17.4586 7.2991 17.1174 7.18942C16.8752 7.10207 16.6112 7.06923 16.3366 7.0469C16.3478 6.60884 16.4574 6.18194 16.6666 5.78788C16.9748 5.85356 17.2718 5.94091 17.5464 6.07226C18.0744 6.30213 18.4816 6.64168 18.8552 7.0029C19.1964 7.41864 19.4934 7.8567 19.6802 8.34928C19.867 8.84185 19.9442 9.34559 19.9442 9.88152C19.9442 10.4174 19.834 10.9323 19.603 11.3809C19.4162 11.8623 19.108 12.2676 18.745 12.6071C18.6242 12.7168 18.4922 12.8153 18.3602 12.9027L18.0414 12.0705L18.0421 12.0718ZM18.5588 13.407C18.7568 13.2645 18.9436 13.1115 19.1086 12.9361C19.4934 12.5204 19.8234 12.0055 20.0108 11.4801C20.2418 10.9107 20.3191 10.3524 20.3191 9.79417C20.3191 9.23591 20.1758 8.67766 19.9448 8.15225C19.7251 7.65967 19.3838 7.17826 18.9766 6.80587C18.5588 6.43348 18.1186 6.13794 17.5906 5.95207C17.2936 5.85356 16.9854 5.77672 16.6778 5.74388C16.8098 5.50284 16.9636 5.28414 17.1616 5.08711C17.3154 4.93408 17.4804 4.80273 17.6566 4.69305C17.7998 4.74756 17.9318 4.80273 18.0638 4.85724C18.6908 5.11995 19.2961 5.52517 19.7798 6.05059C20.2748 6.54316 20.6378 7.17826 20.9018 7.80219C21.1658 8.47012 21.2761 9.1814 21.2761 9.84933C21.2431 10.5606 21.0893 11.2397 20.8253 11.8636C20.5613 12.4547 20.1541 13.013 19.6591 13.5056C19.4063 13.7571 19.1198 13.987 18.8228 14.1735L18.5588 13.407ZM11.2328 23.4556C11.1226 23.4116 11.0131 23.3683 10.9028 23.3131C10.2758 23.0504 9.67061 22.6452 9.18683 22.1197C8.69183 21.6272 8.32883 20.9921 8.06483 20.3681C7.80083 19.7002 7.69061 18.9889 7.69061 18.321C7.72361 17.6097 7.87739 16.9306 8.14139 16.3067C8.40539 15.7156 8.81261 15.1573 9.30761 14.6648C9.54983 14.4237 9.80261 14.2162 10.0778 14.0408L10.3861 14.829C10.2098 14.9603 10.0448 15.1028 9.89105 15.2559C9.50627 15.6716 9.17627 16.1865 8.98883 16.7119C8.75783 17.2702 8.68061 17.8396 8.68061 18.3867C8.68061 18.9338 8.82383 19.5032 9.05483 20.0286C9.27461 20.5212 9.61583 21.0026 10.0231 21.375C10.4408 21.7474 10.8811 22.0429 11.4091 22.2288C11.6731 22.3273 11.9483 22.3818 12.2341 22.4258C12.1021 22.6557 11.9483 22.8639 11.7608 23.0497C11.5846 23.2139 11.4196 23.3453 11.2328 23.4549M11.4421 22.1197C10.9141 21.8899 10.5068 21.5503 10.1333 21.1891C9.79205 20.7734 9.49505 20.3353 9.30827 19.8427C9.12149 19.3501 9.04427 18.8464 9.04427 18.3105C9.04427 17.7746 9.15449 17.2597 9.38549 16.8111C9.57227 16.3297 9.88049 15.9244 10.2435 15.5849C10.3425 15.4975 10.4527 15.4095 10.5735 15.3222L10.9035 16.1648C10.8817 16.1865 10.8487 16.2088 10.8263 16.2417C10.5293 16.5484 10.3425 16.8656 10.1993 17.2485C10.0455 17.6314 10.0125 18.0366 10.0125 18.409C10.0125 18.8247 10.1227 19.186 10.2765 19.5255C10.4303 19.8651 10.6943 20.1606 10.9477 20.4233C11.2117 20.6532 11.5417 20.883 11.8829 20.9927C12.1027 21.0696 12.3449 21.1129 12.5977 21.1241C12.5759 21.5621 12.4545 21.989 12.2459 22.3719C11.9707 22.3174 11.7067 22.2406 11.4427 22.1204M12.5317 20.424C12.5759 20.6427 12.5977 20.8725 12.5865 21.0919C12.3555 21.0479 12.1357 20.9822 11.9153 20.8837C11.5741 20.7412 11.2883 20.5113 11.0573 20.2598C10.8375 19.9859 10.6395 19.6904 10.5293 19.362C10.4085 19.0224 10.3755 18.694 10.3755 18.3551C10.4197 17.7424 10.6725 17.1513 11.0903 16.7132L12.5311 20.424H12.5317ZM8.21993 23.051C7.58171 22.4159 7.13093 21.6718 6.78971 20.8509C6.49271 20.0739 6.33893 19.1649 6.33893 18.3111C6.38315 17.4573 6.56993 16.6035 6.91115 15.8154C7.25237 15.0273 7.76915 14.316 8.37437 13.7249C8.73737 13.3637 9.14459 13.057 9.59537 12.7943L9.82637 13.3965C9.47459 13.6264 9.14459 13.8891 8.85815 14.1958C8.33015 14.7541 7.92293 15.3892 7.65893 16.0893C7.39493 16.7901 7.28471 17.5453 7.28471 18.2895C7.32893 19.0231 7.47149 19.7784 7.77971 20.4456C8.08793 21.1136 8.52749 21.748 9.05549 22.2301C9.58349 22.7227 10.2105 23.1279 10.8817 23.3906C10.9807 23.4234 11.0797 23.4563 11.1675 23.4891C10.7273 23.7518 10.2323 23.8943 9.70427 23.9048C9.51749 23.9048 9.33005 23.8937 9.15449 23.8503C8.82449 23.6205 8.50571 23.3466 8.21927 23.051M22.0793 12.3786C21.7381 13.1667 21.2213 13.878 20.6161 14.469C20.2313 14.8519 19.7911 15.1803 19.3178 15.443L19.0868 14.8519C19.4716 14.6109 19.8241 14.3377 20.1316 14.0093C20.6596 13.4511 21.0668 12.816 21.3308 12.1158C21.5948 11.4157 21.7051 10.6598 21.7051 9.91567C21.6608 9.18206 21.5183 8.42678 21.2101 7.7595C20.9018 7.09157 20.4623 6.45713 19.9343 5.97506C19.4063 5.48248 18.7793 5.07726 18.1081 4.81455C17.9873 4.77055 17.8553 4.7272 17.7233 4.6832C18.3615 4.3003 19.1205 4.19062 19.8241 4.34365C20.1653 4.58468 20.4841 4.8579 20.7593 5.15344C21.3975 5.78854 21.8483 6.53266 22.1895 7.35362C22.4865 8.13057 22.6403 9.03954 22.6403 9.89334C22.6073 10.736 22.4205 11.6009 22.0793 12.3779" fill="white"/>
<path d="M37.5244 23.1618C36.1272 22.7566 35.0052 22.2312 34.1584 21.5856L35.6434 18.3017C36.4572 18.8928 37.4142 19.3637 38.5362 19.725C39.647 20.0862 40.769 20.2615 41.8804 20.2615C43.1232 20.2615 44.0367 20.0757 44.6307 19.7145C45.2247 19.3421 45.5217 18.8607 45.5217 18.2479C45.5217 17.7993 45.3454 17.4269 44.9937 17.1314C44.6419 16.8358 44.1904 16.5948 43.6407 16.4201C43.0909 16.2448 42.3537 16.0477 41.4079 15.829C39.9671 15.4895 38.7897 15.1506 37.8657 14.811C36.9417 14.4715 36.1609 13.9244 35.5009 13.1691C34.8409 12.4138 34.5109 11.4175 34.5109 10.1591C34.5109 9.0643 34.8079 8.07915 35.4019 7.19251C35.9959 6.30588 36.8869 5.60511 38.0861 5.07969C39.2853 4.56544 40.7479 4.30273 42.4751 4.30273C43.6849 4.30273 44.8623 4.44525 46.0173 4.72963C47.1723 5.01401 48.1735 5.43041 49.0421 5.96633L47.6891 9.27184C45.9401 8.28669 44.1911 7.79411 42.4533 7.79411C41.2323 7.79411 40.3195 7.99114 39.7361 8.38521C39.1533 8.77927 38.8563 9.30468 38.8563 9.93978C38.8563 10.5749 39.1975 11.0674 39.8681 11.3735C40.5393 11.6907 41.5729 11.9974 42.9589 12.3041C44.3997 12.6437 45.5771 12.9826 46.5011 13.3221C47.4251 13.6617 48.2059 14.1976 48.8659 14.9312C49.5259 15.6648 49.8559 16.6605 49.8559 17.9195C49.8559 18.992 49.5589 19.9772 48.9537 20.8638C48.3484 21.7504 47.4469 22.4512 46.2364 22.9766C45.0267 23.4909 43.5634 23.7536 41.8362 23.7536C40.3624 23.7647 38.921 23.5677 37.5244 23.1625" fill="#131722"/>
<path d="M55.0916 21.5426C53.5849 20.0537 52.8364 17.9304 52.8364 15.172V4.63086H57.2142V15.0078C57.2142 18.379 58.622 20.0649 61.427 20.0649C62.7912 20.0649 63.836 19.6597 64.562 18.8387C65.2768 18.0178 65.6398 16.7482 65.6398 15.0078V4.63086H69.9628V15.1608C69.9628 17.9193 69.215 20.0426 67.7075 21.5315C66.2008 23.0204 64.0993 23.7645 61.4045 23.7645C58.6985 23.7645 56.5865 23.0204 55.0903 21.5426" fill="#131722"/>
<path d="M85.8034 5.46298C87.0356 6.02124 87.9926 6.80936 88.6526 7.82735C89.3239 8.84534 89.6539 10.0604 89.6539 11.4507C89.6539 12.8411 89.3239 14.0338 88.6526 15.063C87.9814 16.0921 87.0356 16.8802 85.8034 17.4273C84.5712 17.9744 83.1192 18.2483 81.4362 18.2483H77.63V23.4368H73.2522V4.63086H81.4362C83.108 4.63086 84.56 4.91524 85.8034 5.46298ZM84.1976 13.8585C84.8794 13.289 85.2206 12.4904 85.2206 11.4501C85.2206 10.4098 84.8794 9.5783 84.1976 9.02004C83.5159 8.45062 82.5146 8.17741 81.1946 8.17741H77.6306V14.7123H81.1946C82.5034 14.7123 83.5046 14.4279 84.1976 13.8585Z" fill="#131722"/>
<path d="M104.856 23.4473L101.215 18.2043H97.1886V23.4473H92.8108V4.63086H100.995C102.667 4.63086 104.119 4.90473 105.362 5.46298C106.594 6.02124 107.551 6.80936 108.211 7.82735C108.882 8.84534 109.212 10.0604 109.212 11.4507C109.212 12.8411 108.871 14.0561 108.201 15.063C107.529 16.081 106.562 16.8474 105.33 17.3833L109.565 23.4256H104.857V23.4473H104.856ZM103.745 9.03121C103.063 8.46179 102.062 8.18857 100.742 8.18857H97.178V14.7451H100.742C102.051 14.7451 103.052 14.4607 103.745 13.8801C104.427 13.3107 104.768 12.5009 104.768 11.4613C104.779 10.3993 104.438 9.58946 103.745 9.03121Z" fill="#131722"/>
<path d="M126.064 19.4193H117.286L115.614 23.4473H111.137L119.563 4.63086H123.886L132.334 23.4473H127.747L126.064 19.4193H126.064ZM124.689 16.1138L121.686 8.91102L118.683 16.1138H124.689Z" fill="#131722"/>
</svg>
