<svg width="114" height="48" viewBox="0 0 114 48" fill="none" xmlns="http://www.w3.org/2000/svg">
<path d="M41.9498 12.5783V35.4234C41.9498 35.8339 41.7341 36.2174 41.3768 36.4193L21.558 47.8452C21.3827 47.9462 21.1805 48 20.985 48C20.7895 48 20.5873 47.9529 20.412 47.8452L12.68 43.3906L12.5182 43.2964L0.572992 36.4193C0.215715 36.2174 0 35.8339 0 35.4234V12.5783C0 12.4773 0.0134822 12.3764 0.0404465 12.2822C0.0404465 12.2553 0.0539287 12.2351 0.0606698 12.2082C0.080893 12.1409 0.114598 12.0736 0.155045 12.0063C0.182009 11.9592 0.208974 11.9188 0.242679 11.8785C0.269643 11.8448 0.296608 11.8112 0.330313 11.7775C0.384242 11.717 0.444912 11.6699 0.505581 11.6295C0.525805 11.616 0.546028 11.6026 0.572992 11.5891C0.572992 11.5891 0.579733 11.5891 0.586475 11.5824L7.29386 7.71317L7.38149 7.65934L20.3985 0.15645C20.7558 -0.0521501 21.194 -0.0521501 21.5513 0.15645L41.3363 11.5622C41.3363 11.5622 41.3566 11.5756 41.37 11.5824C41.3903 11.5958 41.4172 11.6093 41.4375 11.6228C41.4577 11.6362 41.4779 11.6497 41.4981 11.6699C41.5184 11.6833 41.5386 11.7035 41.5588 11.717C41.579 11.7304 41.5925 11.7506 41.6127 11.7708C41.6464 11.8044 41.6801 11.8381 41.7071 11.8785C41.7408 11.9188 41.7678 11.9659 41.7947 12.0063C41.8621 12.1207 41.9026 12.2351 41.9228 12.3562C41.9228 12.3764 41.9296 12.3966 41.9363 12.4168C41.943 12.4706 41.9498 12.5312 41.9498 12.5783ZM39.6443 34.764V14.5701L31.4809 19.2737V25.8951C31.4809 26.5276 30.9618 27.0457 30.3282 27.0457C29.6945 27.0457 29.1754 26.5276 29.1754 25.8951V20.5993L22.1242 24.6637V37.3277C22.1242 37.967 21.6052 38.4784 20.9715 38.4784C20.3379 38.4784 19.8188 37.967 19.8188 37.3277V24.6637L2.30545 14.5701V19.8591L8.01515 23.2102C8.15672 23.2977 8.27805 23.4053 8.37243 23.5332C8.65556 23.7418 8.84431 24.0782 8.84431 24.4618V31.6619C8.84431 32.2944 8.32524 32.8125 7.69158 32.8125C7.05792 32.8125 6.53885 32.2944 6.53885 31.6619V25.0068L2.30545 22.5238V34.7572L12.0194 40.3558V26.6958C12.0194 26.2854 12.2351 25.9085 12.5924 25.6999C12.9496 25.4981 13.3878 25.4981 13.7451 25.6999L17.3313 27.7657C17.8841 28.082 18.0729 28.7818 17.7493 29.3336C17.4325 29.8854 16.7314 30.0738 16.1786 29.7575L14.3181 28.6876V41.6814L20.9783 45.517L26.5329 42.3139V30.9688C26.5329 30.3362 27.0452 29.8181 27.6856 29.8181C28.326 29.8181 28.8384 30.3362 28.8384 30.9688V40.9883L33.0853 38.539V26.891C33.0853 26.2584 33.5976 25.7403 34.238 25.7403C34.8784 25.7403 35.3907 26.2584 35.3907 26.891V37.2133L39.6511 34.7572L39.6443 34.764ZM34.3728 14.9536L38.4983 12.5783L20.9783 2.47797L10.2397 8.6687L7.93426 9.99432L3.45818 12.5715L20.9783 22.6651L32.0673 16.2725L34.3728 14.9469V14.9536Z" fill="#231815"/>
<path d="M39.6444 14.5684V34.7622L35.3841 37.2183V26.896C35.3841 26.2634 34.865 25.7453 34.2314 25.7453C33.5977 25.7453 33.0786 26.2634 33.0786 26.896V38.544L28.8317 40.9933V30.9738C28.8317 30.3413 28.3127 29.8231 27.679 29.8231C27.0454 29.8231 26.5263 30.3413 26.5263 30.9738V42.319L20.9716 45.522L14.3114 41.6864V28.6926L16.172 29.7626C16.7248 30.0788 17.4258 29.8904 17.7427 29.3386C18.0595 28.7868 17.8707 28.087 17.3247 27.7708L13.7385 25.7049C13.3812 25.5031 12.943 25.5031 12.5857 25.7049C12.2284 25.9135 12.0127 26.2904 12.0127 26.7008V40.3608L2.29883 34.7622V22.5288L6.53223 25.0118V31.6669C6.53223 32.2994 7.05129 32.8175 7.68496 32.8175C8.31862 32.8175 8.83768 32.2994 8.83768 31.6669V24.4668C8.83768 24.0832 8.64893 23.7468 8.36581 23.5382C8.27143 23.4103 8.15683 23.2959 8.00853 23.2152L2.29883 19.8641V14.5751L19.8189 24.6687V37.3327C19.8189 37.972 20.338 38.4834 20.9716 38.4834C21.6053 38.4834 22.1244 37.972 22.1244 37.3327V24.6687L29.1755 20.6043V25.9001C29.1755 26.5326 29.6879 27.0507 30.3283 27.0507C30.9687 27.0507 31.481 26.5326 31.481 25.9001V19.2787L39.6444 14.5751V14.5684Z" fill="white"/>
<path d="M38.4913 12.5769L34.3658 14.9522L21.5442 7.56372C20.9915 7.24746 20.2904 7.43587 19.9736 7.98765C19.6567 8.53944 19.8455 9.23926 20.3983 9.55552L32.0671 16.2778L20.978 22.6704L3.45117 12.5769L7.92725 9.99964L20.2163 17.0853C20.3983 17.1863 20.5938 17.2401 20.7892 17.2401C21.187 17.2401 21.5712 17.0382 21.7869 16.6681C22.1038 16.1163 21.915 15.4165 21.3622 15.1003L10.2327 8.66729L20.978 2.47656L38.4981 12.5769H38.4913Z" fill="#EB5814"/>
<path d="M34.3729 14.9559L32.0674 16.2815L20.3986 9.55917C19.8458 9.2429 19.6571 8.54308 19.9739 7.9913C20.2907 7.43952 20.9918 7.2511 21.5446 7.56737L34.3661 14.9559H34.3729Z" fill="#F5B567"/>
<path d="M21.3695 15.0894C21.9222 15.4057 22.111 16.1123 21.7942 16.6573C21.5784 17.0274 21.1942 17.2293 20.7965 17.2293C20.601 17.2293 20.4055 17.1822 20.2235 17.0745L7.92773 9.99554L10.2332 8.66992L21.3695 15.0894Z" fill="#F5B567"/>
<path d="M50.3157 14.7262V18.333C50.3157 18.407 50.3157 18.7704 50.5853 19.0664C50.9089 19.4096 51.3403 19.3894 51.401 19.3894H53.5042V21.0313H50.309V23.1106C51.8594 23.1106 53.4166 23.1106 54.967 23.1106C55.0142 23.1106 55.4457 23.1241 55.7018 22.7809C55.8366 22.6059 55.8569 22.4108 55.8569 22.33V18.4877C55.8434 18.3733 55.776 17.9225 55.3783 17.5793C55.0547 17.2967 54.6974 17.2429 54.5693 17.2294H52.6549V15.6413H55.8569V13.5352H51.2527C51.1786 13.5419 50.8078 13.589 50.5382 13.9254C50.2618 14.2686 50.2955 14.6589 50.3022 14.7262H50.3157Z" fill="#231815"/>
<path d="M64.2151 14.7262V18.333C64.2151 18.407 64.2151 18.7704 64.4848 19.0664C64.8083 19.4096 65.2398 19.3894 65.3004 19.3894H67.4036V21.0313H64.2084V23.1106C65.7588 23.1106 67.316 23.1106 68.8665 23.1106C68.9137 23.1106 69.3451 23.1241 69.6012 22.7809C69.7361 22.6059 69.7563 22.4108 69.7563 22.33V18.4877C69.7428 18.3733 69.6754 17.9225 69.2777 17.5793C68.9541 17.2967 68.5968 17.2429 68.4687 17.2294H66.5543V15.6413H69.7563V13.5352H65.1521C65.078 13.5419 64.7072 13.589 64.4376 13.9254C64.1612 14.2686 64.1949 14.6589 64.2016 14.7262H64.2151Z" fill="#231815"/>
<path d="M56.8544 13.5352V21.9868C56.8544 22.0676 56.8948 22.5252 57.2791 22.8414C57.5622 23.0702 57.8656 23.1039 57.9734 23.1106H62.0248C62.099 23.1106 62.5506 23.1308 62.9079 22.7809C63.2921 22.4108 63.2787 21.933 63.2719 21.859V13.5352H60.8182V20.9708H59.2138V13.5352H56.8477H56.8544Z" fill="#231815"/>
<path d="M78.5474 13.5352V23.1039H80.9337V13.5352H78.5474Z" fill="#231815"/>
<path d="M70.9229 13.5352V23.1039H73.2822V19.3154H74.9742V23.1039H77.428V13.5352H75.0079V17.2025H73.3092V13.5352H70.9229Z" fill="#231815"/>
<path d="M83.0635 13.5352V15.749H85.2071V23.1039H87.58V15.7086H89.5888V13.5352H83.0635Z" fill="#231815"/>
<path d="M94.4022 15.7154V21.038H92.7304V15.7154H94.4022ZM90.3036 14.5647V22.081C90.3036 22.1416 90.2969 22.5521 90.6339 22.8549C90.9305 23.1173 91.2811 23.1106 91.3485 23.1106H95.7976C95.865 23.1106 96.2223 23.1106 96.5122 22.8347C96.8155 22.5454 96.8088 22.1753 96.8088 22.1147V14.7935C96.8088 14.7195 96.8492 14.2821 96.5122 13.9187C96.1684 13.5419 95.7032 13.5352 95.6358 13.5352C94.2337 13.5419 92.8383 13.5553 91.4361 13.5621C91.3687 13.5621 90.971 13.5419 90.6407 13.838C90.3306 14.1206 90.3036 14.484 90.2969 14.558L90.3036 14.5647Z" fill="#231815"/>
<path d="M103.017 13.5352C103.098 13.5352 103.576 13.5486 103.947 13.9322C104.284 14.2821 104.298 14.6993 104.298 14.7935V19.6519C104.298 19.7192 104.298 20.0893 103.988 20.3853C103.684 20.6814 103.314 20.6881 103.239 20.6881H100.246V23.1106H97.7993C97.7993 20.3786 97.7993 17.6466 97.7993 14.9213C97.7993 14.457 97.7993 13.9995 97.7993 13.5352C100.273 13.5352 102.147 13.5352 103.003 13.5352H103.017ZM100.233 15.7827V18.5752H101.83V15.7827H100.233Z" fill="#231815"/>
<path d="M96.458 24.8926V34.468H98.8309V24.8926H96.458Z" fill="#231815"/>
<path d="M89.124 24.8926V27.1064H91.2475V34.468H93.6068V27.0728H95.5955V24.8926H89.124Z" fill="#231815"/>
<path d="M50.309 24.8926V34.468H52.783V27.0728H54.057V34.468H56.5512V27.0728H57.886V34.468H60.3195V26.0702C60.3195 25.9827 60.3128 25.5991 60.0094 25.2761C59.6724 24.9195 59.2342 24.9128 59.16 24.9128C56.2074 24.9128 53.2548 24.8993 50.3022 24.8926H50.309Z" fill="#231815"/>
<path d="M61.7278 25.229C62.0514 24.9262 62.4221 24.8993 62.5232 24.8926H66.514C66.6083 24.8926 66.9858 24.9128 67.3094 25.2088C67.6734 25.5453 67.6869 25.9894 67.6869 26.0634V34.468H65.2938V31.7831H63.7366V34.468H61.3301V26.0634C61.3301 25.976 61.3705 25.552 61.7211 25.2223L61.7278 25.229ZM63.6895 27.0526V29.6769H65.3343V27.0526H63.6895Z" fill="#231815"/>
<path d="M73.7675 24.8926C73.8619 24.8926 74.2192 24.9128 74.5293 25.1954C74.9 25.5251 74.9203 25.976 74.9203 26.05V29.2261C74.9203 29.2261 74.9203 29.6298 74.6169 29.8182C74.4619 29.9124 74.3068 29.9124 74.2327 29.9124V30.2825C74.2866 30.2825 74.4821 30.2691 74.6641 30.3969C74.9337 30.5921 74.9202 30.9353 74.9135 30.9622V34.4747H72.5676V31.1573H71.1655V34.4747H68.7319V24.8993C70.4105 24.8993 72.089 24.8993 73.7675 24.8993V24.8926ZM71.125 27.0055V29.0982H72.5744V27.0055H71.125Z" fill="#231815"/>
<path d="M75.9517 24.8926V34.468H78.3582V30.9218H79.6727C79.6727 30.9218 79.7873 30.9083 79.8615 30.9891C79.9154 31.0564 79.9019 31.1304 79.9019 31.1439V34.468H82.1332V30.1682C82.1265 30.0672 82.0928 29.825 81.9108 29.6029C81.6411 29.2665 81.2569 29.2328 81.1827 29.2261H80.6704L82.1332 24.8993H79.7267L78.5874 28.7147H78.3313V24.8993H75.9517V24.8926Z" fill="#231815"/>
<path d="M83.0635 24.8926V34.468H88.5305V32.3147H85.47V30.693H88.5305V28.5666H85.4498V27.0122H88.5305V24.8926H83.0635Z" fill="#231815"/>
<path d="M99.7007 24.8926V34.468H102.121V27.0661H103.705V34.468H106.159V25.9356C106.159 25.875 106.165 25.4915 105.862 25.1887C105.565 24.8993 105.195 24.8993 105.134 24.906C103.327 24.906 101.521 24.906 99.7074 24.8993L99.7007 24.8926Z" fill="#231815"/>
<path d="M107.177 26.0228V33.1556C107.177 33.2431 107.204 33.7613 107.635 34.1381C107.979 34.4409 108.37 34.4611 108.485 34.4611H113.23V29.495H110.81V32.301H109.57V27.0524H112.34V24.8789H108.242C108.154 24.8789 107.81 24.8924 107.521 25.1615C107.163 25.4912 107.177 25.9488 107.177 26.0161V26.0228Z" fill="#231815"/>
</svg>
