<?xml version="1.0" encoding="UTF-8"?>
<svg id="_レイヤー_2" data-name="レイヤー 2" xmlns="http://www.w3.org/2000/svg" viewBox="0 0 167.97 71.32">
  <defs>
    <style>
      .cls-1 {
        fill: #231815;
      }

      .cls-1, .cls-2, .cls-3, .cls-4 {
        stroke-width: 0px;
      }

      .cls-2 {
        fill: #fff;
      }

      .cls-3 {
        fill: #eb5814;
      }

      .cls-4 {
        fill: #f5b567;
      }
    </style>
  </defs>
  <g id="Layer_1" data-name="Layer 1">
    <g>
      <path class="cls-1" d="m62.23,18.69v33.95c0,.61-.32,1.18-.85,1.48l-29.4,16.98c-.26.15-.56.23-.85.23s-.59-.07-.85-.23l-11.47-6.62-.24-.14h0L.85,54.12c-.53-.3-.85-.87-.85-1.48V18.69c0-.15.02-.3.06-.44,0-.04.02-.07.03-.11.03-.1.08-.2.14-.3.04-.07.08-.13.13-.19.04-.05.08-.1.13-.15.08-.09.17-.16.26-.22.03-.02.06-.04.1-.06,0,0,.01,0,.02-.01l9.95-5.75.13-.08L30.26.23c.53-.31,1.18-.31,1.71,0l29.35,16.95s.03.02.05.03c.03.02.07.04.1.06s.06.04.09.07c.03.02.06.05.09.07s.05.05.08.08c.05.05.1.1.14.16.05.06.09.13.13.19.1.17.16.34.19.52,0,.03.01.06.02.09.01.08.02.17.02.24Zm-3.42,32.97v-30.01l-12.11,6.99v9.84c0,.94-.77,1.71-1.71,1.71s-1.71-.77-1.71-1.71v-7.87l-10.46,6.04v18.82c0,.95-.77,1.71-1.71,1.71s-1.71-.76-1.71-1.71v-18.82L3.42,21.65v7.86l8.47,4.98c.21.13.39.29.53.48.42.31.7.81.7,1.38v10.7c0,.94-.77,1.71-1.71,1.71s-1.71-.77-1.71-1.71v-9.89l-6.28-3.69v18.18l14.41,8.32v-20.3c0-.61.32-1.17.85-1.48.53-.3,1.18-.3,1.71,0l5.32,3.07c.82.47,1.1,1.51.62,2.33-.47.82-1.51,1.1-2.33.63l-2.76-1.59v19.31l9.88,5.7,8.24-4.76v-16.86c0-.94.76-1.71,1.71-1.71s1.71.77,1.71,1.71v14.89l6.3-3.64v-17.31c0-.94.76-1.71,1.71-1.71s1.71.77,1.71,1.71v15.34l6.32-3.65Zm-7.82-29.44l6.12-3.53L31.12,3.68l-15.93,9.2-3.42,1.97-6.64,3.83,25.99,15,16.45-9.5,3.42-1.97Z"/>
      <path class="cls-2" d="m58.81,21.65v30.01l-6.32,3.65v-15.34c0-.94-.77-1.71-1.71-1.71s-1.71.77-1.71,1.71v17.31l-6.3,3.64v-14.89c0-.94-.77-1.71-1.71-1.71s-1.71.77-1.71,1.71v16.86l-8.24,4.76-9.88-5.7v-19.31l2.76,1.59c.82.47,1.86.19,2.33-.63.47-.82.19-1.86-.62-2.33l-5.32-3.07c-.53-.3-1.18-.3-1.71,0-.53.31-.85.87-.85,1.48v20.3l-14.41-8.32v-18.18l6.28,3.69v9.89c0,.94.77,1.71,1.71,1.71s1.71-.77,1.71-1.71v-10.7c0-.57-.28-1.07-.7-1.38-.14-.19-.31-.36-.53-.48l-8.47-4.98v-7.86l25.99,15v18.82c0,.95.77,1.71,1.71,1.71s1.71-.76,1.71-1.71v-18.82l10.46-6.04v7.87c0,.94.76,1.71,1.71,1.71s1.71-.77,1.71-1.71v-9.84l12.11-6.99Z"/>
      <path class="cls-3" d="m57.1,18.69l-6.12,3.53-19.02-10.98c-.82-.47-1.86-.19-2.33.63s-.19,1.86.63,2.33l17.31,9.99-16.45,9.5L5.12,18.69l6.64-3.83,18.23,10.53c.27.15.56.23.85.23.59,0,1.16-.3,1.48-.85.47-.82.19-1.86-.63-2.33L15.18,12.88,31.12,3.68l25.99,15.01Z"/>
      <path class="cls-4" d="m50.99,22.22l-3.42,1.97-17.31-9.99c-.82-.47-1.1-1.51-.63-2.33s1.51-1.1,2.33-.63l19.02,10.98Z"/>
      <path class="cls-4" d="m31.7,22.42c.82.47,1.1,1.52.63,2.33-.32.55-.89.85-1.48.85-.29,0-.58-.07-.85-.23L11.76,14.85l3.42-1.97,16.52,9.54Z"/>
    </g>
    <g>
      <g>
        <path class="cls-1" d="m74.64,21.88v5.36c0,.11,0,.65.4,1.09.48.51,1.12.48,1.21.48h3.12v2.44h-4.74v3.09c2.3,0,4.61,0,6.91,0,.07,0,.71.02,1.09-.49.2-.26.23-.55.23-.67v-5.71c-.02-.17-.12-.84-.71-1.35-.48-.42-1.01-.5-1.2-.52h-2.84v-2.36h4.75v-3.13h-6.83c-.11.01-.66.08-1.06.58-.41.51-.36,1.09-.35,1.19Z"/>
        <path class="cls-1" d="m95.26,21.88v5.36c0,.11,0,.65.4,1.09.48.51,1.12.48,1.21.48h3.12v2.44h-4.74v3.09c2.3,0,4.61,0,6.91,0,.07,0,.71.02,1.09-.49.2-.26.23-.55.23-.67v-5.71c-.02-.17-.12-.84-.71-1.35-.48-.42-1.01-.5-1.2-.52h-2.84v-2.36h4.75v-3.13h-6.83c-.11.01-.66.08-1.06.58-.41.51-.36,1.09-.35,1.19Z"/>
        <path class="cls-1" d="m84.34,20.11v12.56c0,.12.06.8.63,1.27.42.34.87.39,1.03.4h6.01c.11,0,.78.03,1.31-.49.57-.55.55-1.26.54-1.37v-12.37h-3.64v11.05h-2.38v-11.05h-3.51Z"/>
        <path class="cls-1" d="m116.52,20.11v14.22h3.54v-14.22h-3.54Z"/>
        <polygon class="cls-1" points="105.21 20.11 105.21 34.33 108.71 34.33 108.71 28.7 111.22 28.7 111.22 34.33 114.86 34.33 114.86 20.11 111.27 20.11 111.27 25.56 108.75 25.56 108.75 20.11 105.21 20.11"/>
      </g>
      <g>
        <polygon class="cls-1" points="123.22 20.11 123.22 23.4 126.4 23.4 126.4 34.33 129.92 34.33 129.92 23.34 132.9 23.34 132.9 20.11 123.22 20.11"/>
        <path class="cls-1" d="m140.04,23.35v7.91h-2.48v-7.91h2.48Zm-6.08-1.71v11.17c0,.09-.01.7.49,1.15.44.39.96.38,1.06.38h6.6c.1,0,.63,0,1.06-.41.45-.43.44-.98.44-1.07v-10.88c0-.11.06-.76-.44-1.3-.51-.56-1.2-.57-1.3-.57-2.08.01-4.15.03-6.23.04-.1,0-.69-.03-1.18.41-.46.42-.5.96-.51,1.07Z"/>
        <path class="cls-1" d="m152.82,20.11c.12,0,.83.02,1.38.59.5.52.52,1.14.52,1.28v7.22c0,.1,0,.65-.46,1.09-.45.44-1,.45-1.11.45h-4.44v3.6h-3.63c0-4.06,0-8.12,0-12.17,0-.69,0-1.37,0-2.06,3.67,0,6.45,0,7.72,0Zm-4.13,3.34v4.15h2.37v-4.15h-2.37Z"/>
      </g>
    </g>
    <g>
      <path class="cls-1" d="m143.09,36.99v14.23h3.52v-14.23h-3.52Z"/>
      <polygon class="cls-1" points="132.21 36.99 132.21 40.28 135.36 40.28 135.36 51.22 138.86 51.22 138.86 40.23 141.81 40.23 141.81 36.99 132.21 36.99"/>
      <path class="cls-1" d="m74.63,36.99v14.23h3.67v-10.99h1.89v10.99h3.7v-10.99h1.98v10.99h3.61v-12.48c0-.13-.01-.7-.46-1.18-.5-.53-1.15-.54-1.26-.54-4.38,0-8.76-.02-13.14-.03Z"/>
      <path class="cls-1" d="m91.57,37.49c.48-.45,1.03-.49,1.18-.5h5.92c.14,0,.7.03,1.18.47.54.5.56,1.16.56,1.27v12.49h-3.55v-3.99h-2.31v3.99h-3.57v-12.49c0-.13.06-.76.58-1.25Zm2.91,2.71v3.9h2.44v-3.9h-2.44Z"/>
      <path class="cls-1" d="m109.43,36.99c.14,0,.67.03,1.13.45.55.49.58,1.16.58,1.27v4.72s0,.6-.45.88c-.23.14-.46.14-.57.14v.55c.08,0,.37-.02.64.17.4.29.38.8.37.84v5.22h-3.48v-4.93h-2.08v4.93h-3.61v-14.23c2.49,0,4.98,0,7.47,0Zm-3.92,3.14v3.11h2.15v-3.11h-2.15Z"/>
      <path class="cls-1" d="m112.67,36.99v14.23h3.57v-5.27h1.95s.17-.02.28.1c.08.1.06.21.06.23v4.94h3.31v-6.39c-.01-.15-.06-.51-.33-.84-.4-.5-.97-.55-1.08-.56h-.76l2.17-6.43h-3.57l-1.69,5.67h-.38v-5.67h-3.53Z"/>
      <polygon class="cls-1" points="123.22 36.99 123.22 51.22 131.33 51.22 131.33 48.02 126.79 48.02 126.79 45.61 131.33 45.61 131.33 42.45 126.76 42.45 126.76 40.14 131.33 40.14 131.33 36.99 123.22 36.99"/>
      <path class="cls-1" d="m147.9,36.99v14.23h3.59v-11h2.35v11h3.64v-12.68c0-.09.01-.66-.44-1.11-.44-.43-.99-.43-1.08-.42-2.68,0-5.36,0-8.05-.01Z"/>
      <path class="cls-1" d="m158.99,38.67v10.6c0,.13.04.9.68,1.46.51.45,1.09.48,1.26.48h7.04v-7.38h-3.59v4.17h-1.84v-7.8h4.11v-3.23h-6.08c-.13,0-.64.02-1.07.42-.53.49-.51,1.17-.51,1.27Z"/>
    </g>
  </g>
</svg>