<svg width="161" height="26" viewBox="0 0 161 26" fill="none" xmlns="http://www.w3.org/2000/svg">
<g clip-path="url(#clip0_730_2691)">
<path fill-rule="evenodd" clip-rule="evenodd" d="M78.5934 2.54004C77.2881 2.54004 76.2178 3.59434 76.2178 4.93858C76.2178 6.25646 77.2881 7.31076 78.5934 7.31076C79.8987 7.31076 80.9693 6.25646 80.9693 4.93858C80.9693 3.59434 79.8987 2.54004 78.5934 2.54004ZM80.6818 8.52313H76.531V22.7298H80.6818V8.52313ZM52.3053 3.06723H56.3514V8.52324H59.458V12.3187H56.3514V17.3267C56.3514 18.0647 56.926 18.6445 57.6306 18.6445H59.4319V22.6773H57.6306C54.7069 22.6773 52.3053 20.2787 52.3053 17.3003V12.2924H50.4258V8.49689H52.3053V3.06723ZM69.3519 8.20695C67.4724 8.20695 65.9847 8.99767 65.4101 10.2365V3.06723H61.2593V22.7036H65.4101V14.7436C65.4101 13.0831 66.4803 11.9234 67.9945 11.9234C69.5348 11.9234 70.3965 12.925 70.3965 14.6118V22.73H74.5472V14.0847C74.5472 10.3946 72.6674 8.20695 69.3519 8.20695ZM86.6078 8.49682V10.4473C87.2342 9.02395 88.7484 8.20688 90.6539 8.18053C90.9411 8.18053 91.3067 8.20688 91.7503 8.25959V12.2132C91.3328 12.1341 90.8629 12.0814 90.3668 12.0814C87.9913 12.0814 86.6078 13.4257 86.6078 15.7715V22.7035H82.457V8.49682H86.6078ZM103.419 10.3683C103.002 9.12946 101.357 8.25969 99.2426 8.25969C97.2585 8.25969 95.5879 8.97132 94.2565 10.3946C92.9513 11.7916 92.2724 13.5575 92.2724 15.6134C92.2724 17.6693 92.9513 19.4089 94.2565 20.8586C95.5879 22.2555 97.2585 22.9672 99.2426 22.9672C101.357 22.9672 103.002 22.0974 103.419 20.8586V22.73H107.57V3.06723H103.419V10.3683ZM102.584 18.1438C101.879 18.829 101.018 19.1453 99.9997 19.1453C99.0076 19.1453 98.1463 18.8027 97.4674 18.1438C96.7628 17.4321 96.4232 16.5886 96.4232 15.6134C96.4232 14.6382 96.7628 13.7948 97.4674 13.1095C98.1723 12.3978 99.0076 12.0552 99.9997 12.0552C101.044 12.0552 101.905 12.3978 102.584 13.1095C103.315 13.7948 103.681 14.6382 103.681 15.6134C103.681 16.5886 103.315 17.4321 102.584 18.1438ZM119.553 8.57584L123.312 15.3234L125.845 8.52313H129.917L124.122 23.5469L119.553 15.3761L114.985 23.5469L109.215 8.52313H113.288L115.794 15.3234L119.553 8.57584ZM136.756 8.18053C134.616 8.18053 132.814 8.86581 131.405 10.2364C130.021 11.5806 129.316 13.3729 129.316 15.587V15.7188C129.316 17.9328 130.021 19.7251 131.405 21.0694C132.841 22.3872 134.668 23.0725 136.965 23.0725C139.106 23.0725 140.855 22.6508 142.186 21.781V18.1173C140.881 19.0398 139.21 19.4879 137.2 19.4879C135.007 19.4879 133.572 18.4072 133.493 16.7204H143.805C143.857 16.2986 143.883 15.8242 143.883 15.3498C143.883 13.3202 143.204 11.6334 141.899 10.2628C140.594 8.86581 138.845 8.18053 136.756 8.18053ZM133.493 14.0056C133.519 13.3466 133.859 12.7931 134.485 12.345C135.138 11.8969 135.869 11.6597 136.756 11.6597C138.401 11.6597 139.68 12.7404 139.68 14.0056H133.493ZM153.777 8.25966C155.761 8.25966 157.432 8.97132 158.737 10.3946C160.069 11.8179 160.747 13.5312 160.747 15.5871C160.747 17.6429 160.069 19.3826 158.737 20.8322C157.432 22.2292 155.761 22.9408 153.777 22.9408C151.663 22.9408 150.018 22.071 149.6 20.8322V22.7036H145.45V3.06723H149.6V10.3683C150.018 9.12946 151.663 8.25966 153.777 8.25966ZM153.02 19.1453C154.012 19.1453 154.848 18.829 155.552 18.1438C156.257 17.4321 156.597 16.5886 156.597 15.6134C156.597 14.6382 156.257 13.7947 155.552 13.1095C154.874 12.3978 154.012 12.0552 153.02 12.0552C152.002 12.0552 151.14 12.3978 150.41 13.1095C149.705 13.7947 149.339 14.6382 149.339 15.6134C149.339 16.5886 149.705 17.4321 150.41 18.1438C151.114 18.8027 151.976 19.1453 153.02 19.1453Z" fill="black"/>
<path d="M22.6162 0.0808105C22.8782 0.135133 23.1256 0.244962 23.3416 0.402894C23.5834 0.593836 23.7686 0.84695 23.8774 1.13509C24.5642 2.84873 25.2509 4.56132 25.9377 6.27289C26.6977 8.17641 27.4615 10.0803 28.2291 11.9845C28.6291 12.9828 29.0271 13.9822 29.4333 14.9785C29.5197 15.1823 29.5643 15.4014 29.5643 15.6227C29.5643 15.844 29.5197 16.0631 29.4333 16.2668L25.9429 24.9507C25.7118 25.5254 25.2931 25.8828 24.6775 25.9759C23.9116 26.0909 23.2266 25.7139 22.9499 25.0439C22.2949 23.4376 21.6545 21.8261 21.0088 20.2157L17.7256 12.0238C16.7536 9.59281 15.7801 7.16251 14.8052 4.73292C14.4819 3.92615 14.1689 3.11524 13.831 2.31468C13.738 2.09701 13.694 1.86156 13.7021 1.62501C13.7103 1.38845 13.7704 1.15657 13.8782 0.945806C13.9859 0.735034 14.1388 0.550522 14.3258 0.40534C14.5129 0.260155 14.7296 0.157849 14.9607 0.105666C14.9886 0.0994522 15.0156 0.0890958 15.0425 0.0808105H22.6162Z" fill="url(#paint0_linear_730_2691)"/>
<path d="M9.01302 0.0808105C9.09905 0.10463 9.18509 0.125343 9.269 0.154341C9.48757 0.222454 9.68806 0.338656 9.85575 0.4944C10.0234 0.650147 10.154 0.841476 10.238 1.05431C10.9876 2.91018 11.7338 4.76742 12.4765 6.62607C13.2282 8.49986 13.9799 10.374 14.7316 12.2485C15.0992 13.1675 15.4685 14.0861 15.8395 15.0044C15.9225 15.201 15.9653 15.4123 15.9653 15.6258C15.9653 15.8392 15.9225 16.0505 15.8395 16.2472C15.4249 17.2787 15.0104 18.3098 14.5958 19.3406C13.8359 21.2275 13.0759 23.1145 12.3159 25.0014C12.1966 25.2952 11.9926 25.547 11.7298 25.7247C11.4671 25.9025 11.1574 25.9982 10.8401 25.9998C10.504 26.0057 10.1742 25.9077 9.89595 25.7192C9.61767 25.5306 9.4045 25.2608 9.2856 24.9465C8.58294 23.1683 7.8658 21.3953 7.15487 19.6202C6.20211 17.2169 5.24453 14.8152 4.28209 12.4153C3.3024 9.97255 2.32304 7.52947 1.34404 5.08606C0.973025 4.16124 0.605117 3.23434 0.228923 2.31054C0.0645567 1.92563 0.0565856 1.4919 0.206699 1.10121C0.356811 0.710531 0.653216 0.393584 1.03313 0.217515C1.17096 0.161852 1.31262 0.116166 1.457 0.0808105H9.01302Z" fill="url(#paint1_linear_730_2691)"/>
<path d="M42.9025 15.8751C42.6954 16.5741 42.3847 17.2338 42.1201 17.908C41.3556 19.826 40.5865 21.743 39.8132 23.6589C39.636 24.098 39.4556 24.5361 39.2837 24.9773C39.1625 25.2788 38.9536 25.537 38.6841 25.7185C38.4146 25.9001 38.0968 25.9966 37.7717 25.9956C37.4465 25.9946 37.1294 25.8961 36.861 25.7129C36.5925 25.5297 36.385 25.2702 36.2659 24.968L32.9102 16.5979L30.0084 9.36813C29.0612 7.00758 28.1147 4.64734 27.1688 2.28746C27.0789 2.07169 27.0374 1.83882 27.0473 1.60528C27.0573 1.37175 27.1183 1.14324 27.2262 0.935854C27.3341 0.728472 27.4863 0.547273 27.6719 0.405032C27.8575 0.262792 28.0721 0.162975 28.3005 0.11262C28.3316 0.105371 28.3617 0.0950144 28.3927 0.0856934H35.9665C35.9901 0.0929428 36.013 0.102264 36.037 0.107442C36.3026 0.162836 36.5499 0.284323 36.756 0.460648C36.9621 0.636973 37.1206 0.862436 37.2161 1.11616C37.6572 2.22084 38.0986 3.32242 38.5407 4.42089C39.698 7.30549 40.8543 10.1901 42.0095 13.0747C42.3131 13.8349 42.651 14.5816 42.8997 15.3624L42.9025 15.8751Z" fill="url(#paint2_linear_730_2691)"/>
</g>
<defs>
<linearGradient id="paint0_linear_730_2691" x1="12.5273" y1="2.18523" x2="30.7225" y2="20.3929" gradientUnits="userSpaceOnUse">
<stop stop-color="#FF00A8"/>
<stop offset="1" stop-color="#6200C6"/>
</linearGradient>
<linearGradient id="paint1_linear_730_2691" x1="-1.06859" y1="2.17902" x2="17.1224" y2="20.3825" gradientUnits="userSpaceOnUse">
<stop stop-color="#FF00A8"/>
<stop offset="1" stop-color="#6200C6"/>
</linearGradient>
<linearGradient id="paint2_linear_730_2691" x1="25.8744" y1="2.17872" x2="44.0665" y2="20.3833" gradientUnits="userSpaceOnUse">
<stop stop-color="#FF00A8"/>
<stop offset="1" stop-color="#6200C6"/>
</linearGradient>
<clipPath id="clip0_730_2691">
<rect width="161" height="26" fill="white"/>
</clipPath>
</defs>
</svg>
