<?xml version="1.0" encoding="UTF-8"?>
<svg id="_レイヤー_2" data-name="レイヤー 2" xmlns="http://www.w3.org/2000/svg" viewBox="0 0 126.39 48.76">
  <defs>
    <style>
      .cls-1 {
        fill: #4c4746;
      }

      .cls-1, .cls-2 {
        stroke-width: 0px;
      }

      .cls-2 {
        fill: #00b5c9;
      }
    </style>
  </defs>
  <g id="_レイヤー_1-2" data-name="レイヤー 1">
    <g>
      <path class="cls-1" d="m28.24,1.6c-2.13-2.13-5.57-2.13-7.7,0v16.19l23.93.04L28.24,1.6Z"/>
      <path class="cls-2" d="m17.91,4.21L1.6,20.53c-2.13,2.13-2.13,5.58,0,7.71l16.32,16.32V4.21Z"/>
      <path class="cls-1" d="m20.54,47.18c2.13,2.12,5.57,2.11,7.7-.01l8.74-8.74v-17.94l-16.44-.09v26.77Z"/>
      <path class="cls-1" d="m39.59,35.81l7.58-7.58c2.13-2.13,2.13-5.58,0-7.71l-.03-.03h-7.54v15.32Z"/>
      <path class="cls-1" d="m92.96,6.83h3.68c.4,0,.73.33.73.73v33.59c0,.4-.33.73-.73.73h-3.68c-.4,0-.73-.33-.73-.73V7.56c0-.4.33-.73.73-.73"/>
      <path class="cls-1" d="m70.26,11.54h-8.58c-.4,0-.73-.33-.73-.73v-3.26c0-.4.32-.73.73-.73h22.3c.4,0,.73.33.73.73v3.26c0,.4-.33.73-.73.73h-8.58v29.61c0,.4-.32.73-.72.73h-3.69c-.4,0-.73-.33-.73-.73V11.54Z"/>
      <path class="cls-1" d="m126.39,31.43c0,2.94-1.1,5.46-3.29,7.55-2.2,2.09-4.84,3.14-7.93,3.14-3.48,0-6.46-1.18-8.94-3.55-.44-.41-.45-.82-.04-1.21l2.57-2.45c.19-.18.4-.28.62-.28.24,0,.46.09.65.28,1.42,1.36,3.14,2.04,5.14,2.04,1.59,0,2.95-.54,4.09-1.62,1.13-1.08,1.7-2.38,1.7-3.9,0-1.61-.56-2.83-1.66-3.66-.75-.57-2.09-1.14-4.02-1.69-2.89-.83-5.06-1.81-6.48-2.96-2.15-1.73-3.22-4.07-3.22-7.03,0-2.71,1.01-5.03,3.03-6.95,2.01-1.92,4.45-2.88,7.29-2.88,3.48,0,6.46,1.18,8.94,3.55.43.41.45.82.04,1.21l-2.57,2.45c-.19.18-.41.28-.65.28-.22,0-.42-.09-.62-.28-1.42-1.36-3.14-2.04-5.14-2.04-1.35,0-2.5.45-3.46,1.36-.95.91-1.43,2.01-1.43,3.29,0,1.65.7,2.89,2.1,3.72.68.41,2.28.98,4.81,1.69,5.65,1.61,8.47,4.92,8.47,9.93"/>
    </g>
  </g>
</svg>