<svg width="83" height="33" viewBox="0 0 83 33" fill="none" xmlns="http://www.w3.org/2000/svg">
<path d="M18.5434 1.61871C17.1446 0.220846 14.8856 0.220846 13.4868 1.61871V12.2438L29.2016 12.2701L18.5434 1.61871Z" fill="#4C4746"/>
<path d="M11.7598 3.33203L1.04907 14.0424C-0.349691 15.4403 -0.349691 17.7045 1.04907 19.1023L11.7664 29.8128V3.33203H11.7598Z" fill="#00B5C9"/>
<path d="M13.4868 31.5321C14.8856 32.9234 17.1446 32.9168 18.5434 31.5255L24.2829 25.7897V14.0161L13.4868 13.957V31.5255V31.5321Z" fill="#4C4746"/>
<path d="M25.9971 24.0698L30.9748 19.0952C32.3736 17.6973 32.3736 15.4332 30.9748 14.0353L30.9551 14.0156H26.0036V24.0698H25.9971Z" fill="#4C4746"/>
<path d="M61.0448 5.05078H63.4615C63.7241 5.05078 63.9409 5.26735 63.9409 5.52986V27.5742C63.9409 27.8367 63.7241 28.0532 63.4615 28.0532H61.0448C60.7821 28.0532 60.5654 27.8367 60.5654 27.5742V5.52986C60.5654 5.26735 60.7821 5.05078 61.0448 5.05078Z" fill="#4C4746"/>
<path d="M46.1378 8.14254H40.5033C40.2406 8.14254 40.0239 7.92597 40.0239 7.66346V5.524C40.0239 5.26149 40.2341 5.04492 40.5033 5.04492H55.1477C55.4103 5.04492 55.6271 5.26149 55.6271 5.524V7.66346C55.6271 7.92597 55.4103 8.14254 55.1477 8.14254H49.5132V27.5749C49.5132 27.8374 49.3031 28.0539 49.0404 28.0539H46.6172C46.3545 28.0539 46.1378 27.8374 46.1378 27.5749V8.14254Z" fill="#4C4746"/>
<path d="M82.9984 21.1952C82.9984 23.1247 82.276 24.7785 80.8379 26.1501C79.3931 27.5217 77.6594 28.2108 75.6302 28.2108C73.3449 28.2108 71.388 27.4364 69.7594 25.881C69.4704 25.6119 69.4639 25.3429 69.7331 25.0869L71.4208 23.4791C71.5456 23.3609 71.6835 23.2953 71.828 23.2953C71.9856 23.2953 72.13 23.3544 72.2548 23.4791C73.1873 24.3716 74.3169 24.8179 75.6302 24.8179C76.6744 24.8179 77.5675 24.4635 78.3161 23.7547C79.0582 23.0459 79.4325 22.1928 79.4325 21.1952C79.4325 20.1386 79.0648 19.338 78.3424 18.7932C77.8499 18.4192 76.9699 18.0451 75.7025 17.6841C73.8046 17.1394 72.3796 16.4963 71.4471 15.7416C70.0352 14.6062 69.3325 13.0705 69.3325 11.1279C69.3325 9.34944 69.9958 7.82688 71.3223 6.56683C72.6423 5.30678 74.2446 4.67676 76.1096 4.67676C78.3949 4.67676 80.3519 5.45116 81.9805 7.00654C82.2629 7.27561 82.276 7.54468 82.0068 7.80063L80.3191 9.40851C80.1943 9.52664 80.0498 9.59226 79.8922 9.59226C79.7477 9.59226 79.6164 9.5332 79.4851 9.40851C78.5526 8.51597 77.423 8.0697 76.1096 8.0697C75.2231 8.0697 74.4679 8.36503 73.8375 8.96224C73.2136 9.55945 72.8984 10.2814 72.8984 11.1214C72.8984 12.2042 73.3581 13.018 74.2775 13.5627C74.724 13.8318 75.7747 14.2059 77.4362 14.6718C81.1465 15.7284 82.9984 17.9007 82.9984 21.1887" fill="#4C4746"/>
</svg>
