<?xml version="1.0" encoding="UTF-8"?>
<svg id="_レイヤー_2" data-name="レイヤー 2" xmlns="http://www.w3.org/2000/svg" viewBox="0 0 353.94 34.02">
  <defs>
    <style>
      .cls-1 {
        fill: #0b318f;
      }

      .cls-1, .cls-2, .cls-3 {
        stroke-width: 0px;
      }

      .cls-2 {
        fill: #231815;
      }

      .cls-3 {
        fill: #fccb00;
      }
    </style>
  </defs>
  <g id="_レイヤー_1-2" data-name="レイヤー 1">
    <g>
      <g>
        <path class="cls-1" d="m21.5,16.63c-.24-.31-.55-.3-.78.01l-5.08,7.08c-.25.35-.17.66.21.86l18.14,9.35c.5.26.81-.12.47-.56l-12.97-16.74Zm-12.74-5.26l5.62-2.81c.33-.17.42-.54.19-.84L8.8.28c-.26-.34-.67-.2-.67.23v10.46c0,.4.29.57.64.4Zm11.93,4.05c.22.28.57.28.78-.01L32.07.63c.32-.44.02-.8-.47-.55l-15.78,7.89c-.39.2-.47.53-.2.88l5.09,6.57Zm-6.21,8.58l-5.72-2.96c-.36-.18-.65,0-.65.39v11.39c0,.45.44.59.7.23l5.87-8.19c.22-.3.12-.69-.21-.86Z"/>
        <path class="cls-3" d="m7.37,12.19L.29,15.73c-.39.19-.39.59,0,.79l7.08,3.66c.35.18.65,0,.65-.39v-7.2c0-.4-.29-.57-.64-.4Z"/>
      </g>
      <g>
        <polygon class="cls-2" points="183.05 24.6 184.79 24.6 184.79 17.92 190.51 17.92 190.51 16.4 184.79 16.4 184.79 10.94 191.3 10.94 191.3 9.42 183.05 9.42 183.05 24.6"/>
        <path class="cls-2" d="m239.72,24.6h1.7v-10.89h-1.7v10.89Zm0-15.18v2.15h1.7v-2.15h-1.7Z"/>
        <path class="cls-2" d="m193.31,24.6h1.7v-10.89h-1.7v10.89Zm0-15.18v2.15h1.7v-2.15h-1.7Z"/>
        <path class="cls-2" d="m202.77,13.56c-1.65,0-2.79.68-3.44,2.04v-1.89h-1.67v10.89h1.67v-5.95c0-1.12.3-1.99.89-2.62.59-.63,1.3-.94,2.11-.94.66,0,1.19.21,1.6.63.41.42.61,1.03.61,1.84v7.04h1.7v-7.49c0-1.07-.31-1.93-.94-2.58-.63-.64-1.47-.97-2.53-.97Z"/>
        <path class="cls-2" d="m212.18,13.54c-1.33,0-2.4.25-3.22.75v1.7c.9-.62,1.93-.92,3.09-.92.92,0,1.57.22,1.95.65.39.44.58,1.08.58,1.94v.56h-1.98c-1.37,0-2.46.29-3.25.87-.79.58-1.19,1.39-1.19,2.44,0,.92.31,1.67.93,2.28.62.6,1.44.9,2.46.9,1.47,0,2.49-.47,3.05-1.4v1.29h1.67v-6.89c0-2.78-1.37-4.17-4.1-4.17Zm2.4,7.43c0,.67-.23,1.23-.69,1.66-.46.44-1.07.65-1.85.65-.69,0-1.21-.17-1.57-.5-.36-.34-.54-.78-.54-1.32s.23-.99.69-1.35c.46-.36,1.14-.54,2.06-.54h1.89v1.4Z"/>
        <path class="cls-2" d="m223.86,13.56c-1.65,0-2.79.68-3.44,2.04v-1.89h-1.67v10.89h1.67v-5.95c0-1.12.3-1.99.89-2.62.59-.63,1.3-.94,2.11-.94.66,0,1.19.21,1.6.63.41.42.61,1.03.61,1.84v7.04h1.7v-7.49c0-1.07-.31-1.93-.94-2.58-.63-.64-1.47-.97-2.53-.97Z"/>
        <path class="cls-2" d="m230.74,15.17c-1.01,1.12-1.51,2.45-1.51,3.99s.5,2.91,1.51,4c1.01,1.09,2.37,1.64,4.09,1.64,1,0,1.85-.21,2.53-.62v-1.61c-.72.47-1.49.71-2.32.71-1.29,0-2.28-.39-2.98-1.17-.7-.78-1.06-1.76-1.07-2.93,0-1.17.37-2.16,1.11-2.95.74-.79,1.72-1.19,2.95-1.19.89,0,1.66.22,2.32.67v-1.61c-.73-.4-1.56-.6-2.49-.6-1.75,0-3.12.56-4.13,1.67Z"/>
        <path class="cls-2" d="m247.48,13.54c-1.33,0-2.4.25-3.22.75v1.7c.9-.62,1.93-.92,3.09-.92.92,0,1.57.22,1.95.65.39.44.58,1.08.58,1.94v.56h-1.98c-1.37,0-2.46.29-3.25.87-.79.58-1.19,1.39-1.19,2.44,0,.92.31,1.67.93,2.28.62.6,1.44.9,2.46.9,1.47,0,2.49-.47,3.05-1.4v1.29h1.67v-6.89c0-2.78-1.37-4.17-4.1-4.17Zm2.4,7.43c0,.67-.23,1.23-.69,1.66-.46.44-1.07.65-1.85.65-.69,0-1.21-.17-1.57-.5-.36-.34-.54-.78-.54-1.32s.23-.99.69-1.35c.46-.36,1.14-.54,2.06-.54h1.89v1.4Z"/>
        <rect class="cls-2" x="254.24" y="9.42" width="1.7" height="15.18"/>
        <rect class="cls-2" x="326.69" y="9.42" width="1.75" height="15.18"/>
        <path class="cls-2" d="m336.21,13.56c-1.65,0-2.79.68-3.44,2.04v-1.89h-1.67v10.89h1.67v-5.95c0-1.12.3-1.99.89-2.62.59-.63,1.3-.94,2.11-.94.66,0,1.19.21,1.6.63.41.42.61,1.03.61,1.84v7.04h1.7v-7.49c0-1.07-.32-1.93-.94-2.58-.63-.64-1.47-.97-2.53-.97Z"/>
        <path class="cls-2" d="m343.08,15.17c-1.01,1.12-1.51,2.45-1.51,3.99s.5,2.91,1.51,4c1.01,1.09,2.37,1.64,4.09,1.64,1,0,1.85-.21,2.53-.62v-1.61c-.72.47-1.49.71-2.32.71-1.29,0-2.28-.39-2.98-1.17-.7-.78-1.06-1.76-1.07-2.93,0-1.17.37-2.16,1.11-2.95.74-.79,1.72-1.19,2.95-1.19.89,0,1.66.22,2.32.67v-1.61c-.73-.4-1.56-.6-2.49-.6-1.75,0-3.12.56-4.13,1.67Z"/>
        <rect class="cls-2" x="351.88" y="22.09" width="2.06" height="2.5"/>
        <path class="cls-2" d="m279.43,15.62v-1.91h-1.7v10.89h1.7v-5.95c0-.92.25-1.72.75-2.43.5-.7,1.13-1.05,1.89-1.05.31,0,.62.05.92.15v-1.67c-.14-.03-.34-.04-.6-.04-1.4,0-2.39.67-2.96,2.02Z"/>
        <path class="cls-2" d="m288.59,13.54c-1.5,0-2.72.54-3.66,1.62-.94,1.08-1.41,2.43-1.41,4.05s.45,2.93,1.36,3.98c.91,1.05,2.14,1.58,3.7,1.58s2.86-.53,3.78-1.59c.92-1.06,1.37-2.4,1.37-4.01s-.45-2.98-1.34-4.04c-.89-1.06-2.17-1.59-3.81-1.59Zm2.51,8.56c-.59.78-1.42,1.17-2.51,1.17-1,0-1.8-.4-2.4-1.19-.6-.79-.9-1.76-.9-2.89s.29-2.14.88-2.94c.59-.8,1.4-1.2,2.43-1.2,1.14,0,2,.39,2.55,1.17.56.78.84,1.77.84,2.97s-.29,2.13-.88,2.91Z"/>
        <path class="cls-2" d="m302.39,19.7c0,1.07-.27,1.93-.81,2.55-.54.63-1.26.94-2.16.94-.69,0-1.23-.21-1.63-.62-.4-.41-.6-1.02-.6-1.8v-7.06h-1.7v7.49c0,1.07.31,1.93.93,2.57.62.64,1.47.96,2.54.96,1.7,0,2.84-.67,3.41-2.02v1.89h1.7v-10.89h-1.7v5.99Z"/>
        <path class="cls-2" d="m315.05,15.12c-.82-1.05-1.96-1.58-3.4-1.58s-2.61.61-3.37,1.82v-1.65h-1.67v15.11h1.67v-5.88c.79,1.22,1.9,1.82,3.33,1.82s2.52-.53,3.38-1.6c.87-1.07,1.3-2.44,1.3-4.11,0-1.57-.41-2.89-1.23-3.94Zm-1.41,7.03c-.59.72-1.34,1.08-2.25,1.08-.79,0-1.5-.33-2.15-.99-.64-.66-.97-1.68-.97-3.07s.32-2.49.96-3.12c.64-.64,1.39-.96,2.27-.96s1.6.36,2.17,1.09c.57.73.86,1.69.86,2.88,0,1.33-.29,2.36-.88,3.08Z"/>
        <polygon class="cls-2" points="316.04 27.26 317.54 27.26 320.33 22.41 318.06 22.41 316.04 27.26"/>
        <path class="cls-2" d="m270.64,17.93h2.94v4.63c-.78.37-1.65.55-2.56.55-1.72,0-3.08-.54-4.06-1.62-1.03-1.13-1.54-2.63-1.54-4.46s.53-3.27,1.57-4.43c.99-1.11,2.3-1.67,3.88-1.67,1.47,0,2.79.39,3.92,1.17v-1.83c-1.07-.67-2.44-1.01-4.06-1.01-1.98,0-3.67.73-4.97,2.17-1.4,1.56-2.14,3.46-2.14,5.61,0,2.28.67,4.24,2.08,5.72,1.31,1.37,3.05,2,5.27,2,1.75,0,3.22-.44,4.33-1.34v-7.02h-4.68v1.52Z"/>
        <path class="cls-2" d="m115.1,15.62v-1.91h-1.7v10.89h1.7v-5.95c0-.92.25-1.72.75-2.43.5-.7,1.13-1.05,1.89-1.05.31,0,.62.05.92.15v-1.67c-.14-.03-.34-.04-.6-.04-1.4,0-2.39.67-2.96,2.02Z"/>
        <path class="cls-2" d="m123.53,13.54c-1.33,0-2.4.25-3.22.75v1.7c.9-.62,1.93-.92,3.09-.92.92,0,1.57.22,1.95.65.39.44.58,1.08.58,1.94v.56h-1.98c-1.37,0-2.46.29-3.25.87s-1.19,1.39-1.19,2.44c0,.92.31,1.67.93,2.28.62.6,1.44.9,2.46.9,1.47,0,2.49-.47,3.05-1.4v1.29h1.67v-6.89c0-2.78-1.37-4.16-4.1-4.16Zm2.4,7.43c0,.67-.23,1.23-.69,1.66-.46.44-1.07.65-1.85.65-.69,0-1.21-.17-1.57-.5-.36-.34-.54-.78-.54-1.32s.23-.99.69-1.35c.46-.36,1.14-.54,2.06-.54h1.89v1.4Z"/>
        <path class="cls-2" d="m135.01,13.54c-1.42,0-2.52.6-3.31,1.8v-5.93h-1.7v15.18h1.7v-1.61c.77,1.19,1.89,1.78,3.35,1.78s2.58-.54,3.4-1.61c.82-1.07,1.23-2.38,1.23-3.91,0-1.7-.44-3.08-1.31-4.13-.87-1.05-2-1.58-3.37-1.58Zm2.06,8.59c-.57.73-1.3,1.09-2.17,1.09s-1.64-.33-2.27-.99c-.62-.66-.93-1.71-.93-3.16s.32-2.38.97-3.03,1.35-.97,2.13-.97c.9,0,1.65.36,2.24,1.08.59.72.89,1.76.89,3.1,0,1.17-.29,2.13-.86,2.86Z"/>
        <path class="cls-2" d="m146.23,13.54c-1.5,0-2.72.54-3.66,1.62-.94,1.08-1.41,2.43-1.41,4.05s.45,2.93,1.36,3.98c.91,1.05,2.14,1.58,3.7,1.58s2.86-.53,3.78-1.59c.92-1.06,1.37-2.4,1.37-4.01s-.45-2.98-1.34-4.04c-.89-1.06-2.17-1.59-3.81-1.59Zm2.51,8.56c-.59.78-1.42,1.17-2.51,1.17-1,0-1.8-.4-2.4-1.19-.6-.79-.9-1.76-.9-2.89s.29-2.14.88-2.94c.59-.8,1.4-1.2,2.43-1.2,1.15,0,2,.39,2.55,1.17.56.78.84,1.77.84,2.97s-.29,2.13-.88,2.91Z"/>
        <path class="cls-2" d="m158.9,19.79c-.52-.47-1.23-.89-2.15-1.27-.46-.2-.76-.33-.89-.4-.14-.06-.35-.19-.64-.38-.29-.19-.49-.38-.59-.57-.1-.19-.15-.42-.15-.68,0-.41.17-.75.5-1.02.34-.26.79-.4,1.36-.4,1.14,0,2.05.2,2.71.6v-1.61c-.69-.31-1.6-.47-2.73-.47-1.02,0-1.86.27-2.54.81-.68.54-1.02,1.26-1.02,2.16,0,.8.25,1.44.74,1.91.49.47,1.15.87,1.96,1.18.89.36,1.52.68,1.9.97.38.29.57.69.57,1.2,0,.44-.17.79-.52,1.05-.34.26-.84.39-1.5.39-1.1,0-2.13-.29-3.09-.86v1.65c.82.44,1.88.67,3.2.67,1.13,0,2.02-.27,2.67-.82.65-.54.98-1.28.98-2.21,0-.8-.26-1.44-.77-1.91Z"/>
        <path class="cls-2" d="m166.77,13.56c-1.65,0-2.79.68-3.44,2.04v-6.18h-1.67v15.18h1.67v-5.95c0-1.14.3-2.03.9-2.64.6-.62,1.3-.92,2.1-.92.66,0,1.19.21,1.6.64.41.43.61,1.04.61,1.82v7.04h1.7v-7.45c0-1.1-.32-1.98-.96-2.62-.64-.64-1.48-.97-2.52-.97Z"/>
        <path class="cls-2" d="m109.05,24.6h1.7v-10.89h-1.7v10.89Zm0-15.18v2.15h1.7v-2.15h-1.7Z"/>
        <path class="cls-2" d="m172.91,24.6h1.7v-10.89h-1.7v10.89Zm0-15.18v2.15h1.7v-2.15h-1.7Z"/>
        <polygon class="cls-2" points="107.1 9.42 104.91 9.42 98.61 17.09 98.61 9.42 96.84 9.42 96.84 24.6 98.61 24.6 98.61 19.56 100.83 16.92 105.44 24.6 107.63 24.6 102.01 15.5 107.1 9.42"/>
        <polygon class="cls-2" points="51.02 9.42 39.74 9.42 39.74 10.94 44.48 10.94 44.48 24.6 46.28 24.6 46.28 10.94 51.02 10.94 51.02 9.42"/>
        <path class="cls-2" d="m53.64,13.54c-1.5,0-2.72.54-3.66,1.62-.94,1.08-1.41,2.43-1.41,4.05s.45,2.93,1.36,3.98c.91,1.05,2.14,1.58,3.7,1.58s2.86-.53,3.78-1.59c.92-1.06,1.37-2.4,1.37-4.01s-.45-2.98-1.34-4.04c-.89-1.06-2.17-1.59-3.81-1.59Zm2.51,8.56c-.59.78-1.42,1.17-2.51,1.17-1,0-1.8-.4-2.4-1.19-.6-.79-.9-1.76-.9-2.89s.29-2.14.88-2.94c.59-.8,1.4-1.2,2.43-1.2,1.14,0,2,.39,2.55,1.17.56.78.84,1.77.84,2.97s-.29,2.13-.88,2.91Z"/>
        <path class="cls-2" d="m76.72,17.3c-1.03,2.92-1.6,4.57-1.72,4.94l-1.91-4.94-1.42-3.59h-1.91l4.4,10.61c-.6,1.65-1.67,2.59-3.37,2.45v1.54c1.36.12,2.34-.28,3.11-.88.77-.6,1.43-1.64,1.99-3.11l3.93-10.61h-1.82l-1.27,3.59Z"/>
        <path class="cls-2" d="m85.25,13.54c-1.5,0-2.72.54-3.66,1.62-.94,1.08-1.41,2.43-1.41,4.05s.45,2.93,1.36,3.98c.91,1.05,2.14,1.58,3.7,1.58s2.86-.53,3.78-1.59c.92-1.06,1.37-2.4,1.37-4.01s-.45-2.98-1.34-4.04c-.89-1.06-2.17-1.59-3.81-1.59Zm2.51,8.56c-.59.78-1.42,1.17-2.51,1.17-1,0-1.8-.4-2.4-1.19-.6-.79-.9-1.76-.9-2.89s.29-2.14.88-2.94c.59-.8,1.4-1.2,2.43-1.2,1.15,0,2,.39,2.55,1.17.56.78.84,1.77.84,2.97s-.29,2.13-.88,2.91Z"/>
        <polygon class="cls-2" points="68.91 13.71 66.83 13.71 62.35 19.05 62.35 9.42 60.68 9.42 60.68 24.6 62.35 24.6 62.35 21.29 64.07 19.31 67.52 24.6 69.65 24.6 65.15 18.06 68.91 13.71"/>
      </g>
    </g>
  </g>
</svg>