<?xml version="1.0" encoding="UTF-8"?>
<svg id="_レイヤー_2" data-name="レイヤー 2" xmlns="http://www.w3.org/2000/svg" viewBox="0 0 278.45 34.02">
  <defs>
    <style>
      .cls-1 {
        fill: #fccb00;
      }

      .cls-2 {
        fill: #231815;
      }

      .cls-3 {
        fill: #0b318f;
      }
    </style>
  </defs>
  <g id="_レイヤー_1-2" data-name="レイヤー 1">
    <g>
      <g>
        <path class="cls-3" d="m21.5,16.63c-.24-.31-.55-.3-.78.01l-5.08,7.08c-.25.35-.17.66.21.86l18.14,9.35c.5.26.81-.12.47-.56l-12.97-16.74Zm-12.74-5.26l5.62-2.81c.33-.17.42-.54.19-.84L8.8.28c-.26-.34-.67-.2-.67.23v10.46c0,.4.29.57.64.4Zm11.93,4.05c.22.28.57.28.78-.01L32.07.63c.32-.44.02-.8-.47-.55l-15.78,7.89c-.39.2-.47.53-.2.88l5.09,6.57Zm-6.21,8.58l-5.72-2.96c-.36-.18-.65,0-.65.39v11.39c0,.45.44.59.7.23l5.87-8.19c.22-.3.12-.69-.21-.86Z"/>
        <path class="cls-1" d="m7.37,12.19L.29,15.73c-.39.19-.39.59,0,.79l7.08,3.66c.35.18.65,0,.65-.39v-7.2c0-.4-.29-.57-.64-.4Z"/>
      </g>
      <g>
        <path class="cls-2" d="m209.73,15.75c0,1.87-.04,3.67-.49,4.91-.32.89-.85,1.53-1.65,1.99v1.9c1.63-.66,2.7-1.74,3.27-3.31.54-1.5.59-3.46.59-5.49v-5.54h-1.72v5.54Zm9.89.71c-.23,2.34-1.03,3.78-1.69,4.59-.75.92-1.72,1.36-2.69,1.46v-12.3h-1.72v14.16h1.35c1.59-.02,3.17-.85,4.33-2.27,1.16-1.42,1.87-3.36,2.07-5.64h-1.66Z"/>
        <path class="cls-2" d="m238.95,15.75c0,1.87-.04,3.67-.48,4.91-.32.89-.85,1.53-1.65,1.99v1.9c1.63-.66,2.7-1.74,3.27-3.31.54-1.5.59-3.46.59-5.49v-5.54h-1.72v5.54Zm9.89.71c-.23,2.34-1.03,3.78-1.69,4.59-.75.92-1.72,1.36-2.69,1.46v-12.3h-1.72v14.16h1.35c1.59-.02,3.17-.85,4.33-2.27,1.16-1.42,1.87-3.36,2.07-5.64h-1.66Z"/>
        <path class="cls-2" d="m276.48,9.09c-.92,0-1.7.64-1.91,1.49h-10.85v1.65h10.06v.44s0,.25,0,.64c0,.39-.03.64-.09,1.35-.06.71-.27,2.1-.89,3.36-1.08,2.12-2.56,3.13-4.08,3.8-1.57.68-3.12.87-3.12.87v1.67c2.15-.25,3.53-.9,3.91-1.06.38-.16,1.24-.6,2.09-1.24,1.03-.8,2.38-2.07,3.2-4.42.76-2.23.74-4.39.73-4.85.28.16.61.25.95.25,1.09,0,1.97-.88,1.97-1.97s-.88-1.97-1.97-1.97Zm0,2.76c-.44,0-.79-.36-.79-.79s.36-.79.79-.79.79.36.79.79-.36.79-.79.79Z"/>
        <path class="cls-2" d="m147.45,17.6c-1.47.99-3.07,1.49-4.27,1.74v1.6c1.69-.31,3.3-.84,4.64-1.61v5.05h1.72v-6.29c1.51-1.35,2.48-3.04,2.89-5.06h-1.83c-.47,1.89-1.47,3.43-3.16,4.57Z"/>
        <rect class="cls-2" x="252.13" y="15.54" width="10.98" height="1.8"/>
        <path class="cls-2" d="m207.01,16.25c-.02-.49-.08-1.29-.08-1.29-.32.02-3.29.22-5.92.4l-.37-2.33h-1.63l.39,2.44c-1.43.1-2.49.17-2.49.17v1.66l2.75-.18,1.15,7.28h1.63l-1.17-7.39,3.99-.27.02.36c0,1.13-.4,1.93-1.59,2.53v1.77c2.29-.6,3.34-2.72,3.34-4.3,0,0,0-.37,0-.66v-.2Z"/>
        <path class="cls-2" d="m179.41,13.03c-.26,4.12-1.5,6.93-3.68,8.41-1.92,1.3-4.16,1.3-5.36,1.3h-1.06v1.69h1.06c1.28,0,3.95,0,6.29-1.58,2.65-1.79,4.13-5.09,4.41-9.81h-1.66Zm-4.89.45v-1.71c-1.32-.32-2.87-.47-4.9-.47h-.72v1.65h.72c2.11,0,3.63.16,4.9.53Z"/>
        <path class="cls-2" d="m193.41,13.03c-.26,4.12-1.5,6.93-3.68,8.41-1.92,1.3-4.16,1.3-5.36,1.3h-1.06v1.69h1.06c1.28,0,3.95,0,6.29-1.58,2.65-1.79,4.13-5.09,4.41-9.81h-1.66Zm-5.06-.41v-1.71c-1.32-.32-2.87-.47-4.9-.47h-.72v1.65h.72c2.11,0,3.63.16,4.9.53Zm0,4.12v-1.71c-1.32-.32-2.87-.47-4.9-.47h-.72v1.65h.72c2.11,0,3.63.16,4.9.53Z"/>
        <path class="cls-2" d="m142.95,10.59h-12.23v1.65h10.48v.44s0,.25,0,.64-.03.64-.09,1.35-.27,2.1-.89,3.36c-1.08,2.12-2.57,3.1-4.09,3.76-1.57.68-3.38.91-3.38.91v1.67c2.15-.25,3.79-.93,4.17-1.1.38-.16,1.26-.57,2.1-1.21,1.03-.8,2.38-2.07,3.2-4.42.79-2.32.73-4.57.73-4.9v-2.15Z"/>
        <path class="cls-2" d="m162.74,9.83h-1.72v3.06h-6.78v1.65h6.78v1.5c0,4.03-1.61,6.34-4.86,6.87v1.67c2.66-.36,4.65-1.72,5.69-3.95.79-1.69.89-3.43.89-4.59v-1.5h4.44v-1.65h-4.44v-3.06Z"/>
        <path class="cls-2" d="m236.23,9.22v2.79h1.24v-2.79h-1.24Zm-1.87,2.79h1.24v-2.79h-1.24v2.79Zm-.48-1.6h-7.93l-.18.62s-.72,2.6-2.95,4.42v2.1c2.74-1.67,3.99-4.34,4.43-5.49h4.89c-.02,2.08-.37,3.94-1.08,5.53-1.3,2.92-3.66,4.66-7.01,5.19v1.74c2.05-.29,3.82-.97,5.27-2.04,1.42-1.05,2.53-2.46,3.31-4.19.88-1.98,1.31-4.3,1.26-6.9,0-.06,0-.99,0-.99Z"/>
        <path class="cls-2" d="m54.13,12.13v-1.41h-6.41v-1.6h-1.57v1.6h-6.41v1.41h6.41v.9h-5.26v6.75h3.39c-.95.96-2.59,2.24-4.54,2.86v1.46c2.88-.78,5.47-2.91,6.41-4.26v5.09h1.57v-5.09c.95,1.34,3.53,3.47,6.41,4.25v-1.46c-1.95-.62-3.59-1.9-4.54-2.86h3.39v-6.75h-5.26v-.9h6.41Zm-7.98,6.23h-3.73v-1.36h3.73v1.36Zm0-2.56h-3.73v-1.36h3.73v1.36Zm5.31,2.56h-3.74v-1.36h3.74v1.36Zm0-3.92v1.36h-3.74v-1.36h3.74Z"/>
        <path class="cls-2" d="m69.17,13.23h-11.56v5.89h5.12v3.69c0,.31-.26.57-.57.57h-1.95v1.48h2.46c.88,0,1.59-.71,1.59-1.59v-4.14h4.89v-5.89Zm-1.61,4.42h-8.34v-2.94h8.34v2.94Zm-3.39-6.93v-1.6h-1.57v1.6h-6.41v1.41h14.4v-1.41h-6.41Zm3.31,9.33h-1.8c.98,1.93,2.71,3.3,4.91,4.09v-1.51c-1.32-.56-2.38-1.48-3.1-2.58Zm-8.19,0c-.73,1.1-1.78,2.01-3.1,2.58v1.51c2.2-.79,3.92-2.16,4.91-4.09h-1.8Z"/>
        <path class="cls-2" d="m127.53,20.05c-.46.83-.95,1.38-1.35,1.74-.54.52-1.4,1.09-2.88,1.13-1.24.02-1.95-.45-2.07-.53-.13-.1-.78-.56-1.16-1.38-.35-.71-.34-1.63-.34-1.88,0-.11,0-9.23,0-9.23h-1.69v9c0,1.49.33,2.35.33,2.35.28.86.89,1.67,1.7,2.33.89.73,2.14.96,3.18.96s2.08-.38,2.08-.38c1.84-.66,2.95-2.21,3.64-3.46.7-1.32,1.03-2.7,1.07-2.83h-1.7c-.18.65-.45,1.49-.83,2.18Z"/>
        <path class="cls-2" d="m96.72,10.8c-2.18-.68-5.32-1.15-7-1.2v1.61c1.69.06,5.08.6,7,1.29v-1.69Zm2.25,7.66v-.03c-.8-2.41-3.53-3.36-7.01-2.47-1.87.52-3.09,1.62-3.09,1.62.08-.37.31-1.4.64-2.6.09-.34.18-.66.27-.94.12-.41.25-.83.39-1.24h-1.69c-.36,1.11-1.14,3.72-1.34,6.12l1.31.8h.02c1.18-1.06,2.43-1.79,3.72-2.16,1.29-.36,2.39-.42,3.32-.19.93.23,1.53.75,1.79,1.54.22.81.12,1.58-.3,2.23-.52.83-1.52,1.4-2.8,1.61-.9.15-2.28.18-3.07.17h-2.09s0,1.61,0,1.61h2.07c.11,0,.24,0,.38,0,.83,0,2.18-.04,3.1-.19,1.74-.29,3.12-1.12,3.89-2.33.66-1.04.83-2.3.48-3.54Z"/>
        <path class="cls-2" d="m101.7,10.25c-.21,2.14-.72,8.39-.01,13.79h1.65c-.74-5.35-.19-11.86,0-13.79h-1.65Zm10.1,1.97h.9v-1.61h-6.71v1.61h4.17v2.76h-4.72v1.61h4.72v2.68c-.08-.02-.17-.05-.26-.07-1.56-.41-2.61-.28-2.61-.28-.68.06-2.21.37-2.64,2.04-.37,1.43.44,2.54,1.54,3.01.44.16,1.17.5,2.75.31,1.63-.23,2.27-1.08,2.52-1.61.33-.71.32-1.13.33-1.12.7.27,2.45,1.02,2.94,1.28v-1.7c-.64-.34-2.05-.98-2.34-1.1-.1-.04-.29-.12-.6-.24v-3.21h2.94v-1.61h-2.94v-2.76Zm-2.01,10.01s-.48.59-1.84.56c-1.57,0-1.76-.77-1.76-1.17-.01-.56.42-1.02,1.05-1.12.46-.08.94-.03,1.41.05.54.09,1.02.24,1.51.39,0,0,.04.91-.37,1.29Zm5.24-12.83v2.79h1.24v-2.79h-1.24Zm-.64,0h-1.24v2.79h1.24v-2.79Z"/>
        <path class="cls-2" d="m85.19,15.29h-4.25c-.34-.72-.66-1.46-.95-2.17h4.74v-1.61h-5.36c-.25-.7-.45-1.34-.58-1.9h-1.65c.12.55.3,1.19.54,1.9h-4.77v1.61h5.35c.28.71.59,1.44.92,2.17h-6.69v1.61h7.45c.58,1.17,1.18,2.26,1.74,3.14h1.96c-.57-.73-1.24-1.86-1.91-3.14h3.46v-1.61Zm-7.94,7.43c-1.33-.29-1.9-.77-2.18-1.19-.69-1.02-.02-2.75,0-2.81h-1.73c-.28.83-.51,2.07,0,3.22.53,1.19,1.69,1.99,3.45,2.36,1.08.24,2.74.24,3.74.24h2.93v-1.61h-2.93c-.87,0-2.21.05-3.29-.2Z"/>
      </g>
    </g>
  </g>
</svg>