<svg width="226" height="23" viewBox="0 0 226 23" fill="none" xmlns="http://www.w3.org/2000/svg">
<path d="M8.58486 5.21634V7.56733H6.31433V13.9428C6.32247 14.4489 6.4364 14.7917 6.65613 14.9795C6.87586 15.1591 7.16069 15.257 7.51877 15.2407C7.73036 15.2407 7.95009 15.2325 8.16981 15.208C8.38954 15.1917 8.5523 15.1754 8.66624 15.1591V18.1631C8.39768 18.1958 8.0396 18.2203 7.57573 18.2529C7.11186 18.2856 6.66427 18.31 6.22481 18.31C5.15872 18.2937 4.36119 18.0978 3.82408 17.7141C3.2951 17.3305 2.93703 16.8407 2.76613 16.2611C2.59523 15.6652 2.51385 15.0529 2.52199 14.4081V7.56733H0.666504V5.21634H2.51385V1.45312H6.31433V5.21634H8.58486Z" fill="#231815"/>
<path d="M15.3962 17.9756L11.0098 4.97168H15.0869L17.3168 14.1552H17.3737L19.6117 4.97168H23.6563L19.2211 17.9756H15.3962Z" fill="#231815"/>
<path d="M43.0579 8.35891V15.2241C43.0579 15.6731 43.066 16.1466 43.1067 16.6119C43.1474 17.0772 43.245 17.518 43.3915 17.9261H39.884C39.7457 17.4772 39.6561 17.0364 39.6399 16.5792H39.591C39.3713 16.9221 39.0377 17.2241 38.5982 17.469C38.1669 17.7221 37.6786 17.918 37.1659 18.0486C36.6451 18.1955 36.1568 18.2527 35.6848 18.2527C34.4152 18.2527 33.3817 17.9261 32.5842 17.2649C31.7866 16.6037 31.3716 15.6486 31.3472 14.4078C31.3716 12.8731 31.9575 11.7548 33.1213 11.0446C34.285 10.3426 35.9126 9.85277 37.996 9.59155L39.3876 9.39563V8.30993C39.3713 7.82831 39.2004 7.47729 38.8668 7.24872C38.5331 7.02832 38.1018 6.91403 37.5809 6.9222C36.9706 6.9222 36.5148 7.04464 36.2056 7.30586C35.8801 7.57525 35.6766 8.02422 35.5871 8.66095H31.9331C31.9982 7.43647 32.3482 6.53036 32.9748 5.94262C33.6014 5.35487 34.3176 4.97936 35.1314 4.80794C35.937 4.63651 36.6532 4.56304 37.2636 4.57937C39.0458 4.55488 40.4537 4.8161 41.4628 5.36303C42.4801 5.90996 43.0009 6.89771 43.0335 8.35075L43.0579 8.35891ZM39.4039 12.514V11.6078L36.8485 12.3425C36.3521 12.465 35.937 12.6446 35.579 12.8895C35.2209 13.1344 35.0337 13.5099 35.0174 14.0241C35.0337 14.5384 35.2209 14.9058 35.5627 15.1425C35.9045 15.3792 36.3195 15.4935 36.7997 15.4935C37.5647 15.4935 38.1832 15.2486 38.6552 14.7425C39.1353 14.2445 39.3876 13.5017 39.4039 12.514Z" fill="#231815"/>
<path d="M57.0553 6.50515L54.7197 8.799C54.3128 8.35003 53.7757 7.99901 53.0921 7.76228C52.4166 7.52555 51.7656 7.41126 51.139 7.41126C50.6588 7.41126 50.26 7.49289 49.9752 7.66432C49.6741 7.82758 49.5195 8.07248 49.5113 8.39901C49.5358 8.83165 49.7962 9.14185 50.3089 9.33777C50.8134 9.53368 51.4563 9.68878 52.2051 9.81123C52.9619 9.94184 53.7187 10.1214 54.4756 10.35C55.2324 10.5786 55.8672 10.9459 56.3799 11.4602C56.8926 11.9745 57.1611 12.7092 57.1774 13.6724C57.1611 14.7989 56.86 15.705 56.2904 16.3826C55.7126 17.0601 54.9883 17.5499 54.1012 17.8519C53.2142 18.1458 52.2864 18.3009 51.3261 18.2928C49.9427 18.2928 48.7708 18.0887 47.8105 17.6642C46.8502 17.256 45.9062 16.6111 44.9866 15.7377L47.3466 13.6887C47.9244 14.252 48.5348 14.6928 49.1858 15.0193C49.8369 15.3377 50.5856 15.501 51.4401 15.5091C51.6679 15.5091 51.9365 15.4846 52.2539 15.4275C52.5713 15.3703 52.8642 15.2397 53.1165 15.052C53.3607 14.8642 53.4909 14.5785 53.5071 14.1948C53.4909 13.803 53.2223 13.5173 52.7096 13.3377C52.1969 13.1581 51.5621 13.003 50.8053 12.8806C50.0485 12.7581 49.2916 12.5785 48.5348 12.3418C47.7779 12.1132 47.1432 11.7541 46.6305 11.2643C46.1178 10.7745 45.8573 10.0643 45.8329 9.15818C45.8492 8.07248 46.134 7.19902 46.6712 6.52148C47.2083 5.8521 47.9 5.37047 48.7301 5.06027C49.5602 4.75824 50.4228 4.6113 51.318 4.61946C52.3271 4.61946 53.3037 4.79089 54.2721 5.11742C55.2406 5.44394 56.1602 5.90108 57.0472 6.49699L57.0553 6.50515Z" fill="#231815"/>
<path d="M70.7923 8.35891V15.2241C70.7923 15.6731 70.8005 16.1466 70.8412 16.6119C70.8818 17.0772 70.9795 17.518 71.1341 17.9261H67.6185C67.4801 17.4772 67.3987 17.0364 67.3825 16.5792H67.3336C67.1139 16.9221 66.7802 17.2241 66.3408 17.469C65.9095 17.7221 65.4293 17.918 64.9085 18.0486C64.3877 18.1955 63.8994 18.2527 63.4355 18.2527C62.166 18.2527 61.1324 17.9261 60.3349 17.2649C59.5374 16.6037 59.1223 15.6486 59.0979 14.4078C59.1223 12.8731 59.7083 11.7548 60.872 11.0446C62.0357 10.3426 63.6634 9.85277 65.7549 9.59155L67.1383 9.39563V8.30993C67.1383 7.82831 66.9593 7.47729 66.6256 7.24872C66.292 7.02832 65.8606 6.91403 65.3398 6.9222C64.7376 6.9222 64.2819 7.04464 63.9645 7.30586C63.6471 7.57525 63.4436 8.02422 63.346 8.66095H59.692C59.7652 7.43647 60.1152 6.53036 60.7418 5.94262C61.3684 5.35487 62.0846 4.97936 62.8984 4.80794C63.7041 4.63651 64.4121 4.56304 65.0306 4.57937C66.8128 4.55488 68.2125 4.8161 69.2298 5.36303C70.2471 5.90996 70.7679 6.89771 70.8005 8.35075L70.7923 8.35891ZM67.1383 12.514V11.6078L64.583 12.3425C64.0865 12.465 63.6634 12.6446 63.3134 12.8895C62.9635 13.1344 62.7763 13.5099 62.7519 14.0241C62.7682 14.5384 62.9472 14.9058 63.2971 15.1425C63.6471 15.3792 64.054 15.4935 64.5341 15.4935C65.291 15.4935 65.9095 15.2486 66.3896 14.7425C66.8698 14.2445 67.122 13.5017 67.1383 12.514Z" fill="#231815"/>
<path d="M73.779 17.9751V0.571289H77.5795V6.18754H77.6283C78.0189 5.68143 78.556 5.29776 79.2315 5.02837C79.9069 4.76715 80.5499 4.62022 81.1765 4.62022C82.5355 4.63654 83.5609 5.01205 84.2283 5.74673C84.9037 6.48142 85.2374 7.50997 85.2374 8.82424V17.967H81.445V10.1712C81.4125 9.19159 81.2009 8.53037 80.8021 8.18752C80.4034 7.84466 79.9802 7.6814 79.5407 7.70589C79.0687 7.6814 78.6293 7.87732 78.2224 8.29364C77.8155 8.7018 77.5957 9.50995 77.5632 10.6854V17.967H73.7627L73.779 17.9751Z" fill="#231815"/>
<path d="M91.9677 3.50186H88.1672V0.571289H91.9677V3.50186ZM88.1754 4.97123H91.9759V17.9751H88.1754V4.97123Z" fill="#231815"/>
<path d="M105.697 11.2002C105.697 12.2778 105.77 14.5145 108.114 14.5145C110.034 14.5145 110.474 13.0125 110.474 11.2002C110.474 10.588 110.425 9.31456 110.002 8.69416C109.701 8.22069 109.017 7.71458 107.935 7.76356C106.136 7.83702 105.697 9.37986 105.697 11.2002ZM110.498 16.2859C109.758 16.7838 108.846 17.3634 107.096 17.3634C106.038 17.3634 105.005 17.094 104.167 16.5308C102.45 15.4288 101.782 13.437 101.782 11.2329C101.782 8.65334 102.995 4.94727 107.243 4.94727C109.212 4.94727 110.124 5.81256 110.702 6.35133V5.15134H114.25V17.4696C114.193 18.8655 114.152 20.5144 112.28 21.5919C110.97 22.3674 109.05 22.5715 107.894 22.5715C105.33 22.5715 103.654 21.6899 102.962 20.9797C101.953 19.9675 101.978 18.6695 101.978 17.9838H105.892C105.941 18.5471 105.99 19.3552 106.999 19.8205C107.243 19.943 107.617 20.0654 108.211 20.0654C110.506 20.0654 110.506 18.7185 110.506 17.6573V16.2859" fill="#231815"/>
<path d="M120.231 6.48988C121.069 5.77968 121.981 5.21642 123.95 5.02051V8.35924L122.697 8.55516C120.874 8.87352 120.337 9.1429 120.337 10.7674V17.9836H116.536V5.14296H120.239V6.48988H120.231Z" fill="#231815"/>
<path d="M129.59 9.0117C129.126 9.75455 128.947 10.628 128.947 11.5178C128.947 13.5586 129.932 15.3463 132.056 15.3463C134.18 15.3463 135.108 13.7055 135.108 11.6892C135.108 10.2688 134.766 9.1668 134.058 8.48109C133.268 7.74641 132.381 7.72192 131.836 7.7709C130.754 7.84437 130.119 8.21171 129.598 9.01986L129.59 9.0117ZM138.957 11.5504C138.957 14.7831 137.085 18.3422 132.056 18.3422C128.434 18.3422 125.13 16.2851 125.13 11.5504C125.13 7.62396 127.621 4.50564 132.544 4.77502C137.793 5.06889 138.949 9.20762 138.949 11.5504" fill="#231815"/>
<path d="M148.609 5.16699H152.401V17.9832H148.609V16.7505C148.234 17.1668 148.023 17.4117 147.331 17.7546C146.566 18.1464 145.728 18.3423 144.898 18.3423C144.068 18.3423 142.497 18.2199 141.618 16.9954C140.951 16.0648 140.829 15.3056 140.829 13.224V5.16699H144.645V13.1179C144.645 13.6893 144.645 14.2526 144.946 14.6363C145.166 14.9301 145.679 15.2811 146.444 15.2811C146.664 15.2811 147.184 15.2811 147.754 14.9546C148.568 14.4648 148.592 13.8281 148.617 13.1424V5.16699H148.609Z" fill="#231815"/>
<path d="M161.207 7.54338C160.515 7.54338 159.799 7.84541 159.262 8.57193C158.716 9.28213 158.472 10.3923 158.472 11.5923C158.472 13.2168 158.895 14.2208 159.384 14.7596C159.823 15.2249 160.466 15.4943 161.076 15.4943C162.924 15.4943 163.737 13.5106 163.737 11.4943C163.737 9.80457 163.274 8.00868 161.719 7.61685C161.548 7.56787 161.369 7.54338 161.198 7.54338H161.207ZM158.195 6.41686C158.317 6.26992 158.448 6.12299 158.562 6.00054C159.205 5.3883 160.36 4.87402 161.792 4.87402C164.95 4.87402 167.383 7.25767 167.383 11.5188C167.383 14.1474 166.228 18.2208 161.817 18.2208C160.385 18.2208 159.644 17.7555 158.635 17.1433V22.4167H154.818V5.21688H158.195V6.41686Z" fill="#231815"/>
<path fill-rule="evenodd" clip-rule="evenodd" d="M217.554 0.856445L175.253 8.7094L174.211 16.8073L181.828 22.0154L224.057 14.1706L225.163 5.96658L217.554 0.856445Z" fill="#231815"/>
</svg>
