<?xml version="1.0" encoding="UTF-8"?>
<svg id="_レイヤー_2" data-name="レイヤー 2" xmlns="http://www.w3.org/2000/svg" viewBox="0 0 696.57 216.38">
  <defs>
    <style>
      .cls-1 {
        fill: #231f20;
      }

      .cls-1, .cls-2 {
        stroke-width: 0px;
      }

      .cls-2 {
        fill: #f37021;
      }
    </style>
  </defs>
  <g id="Layer_1" data-name="Layer 1">
    <g>
      <path class="cls-2" d="M218.05,8.43l-86.36,199.52h-45.61L0,8.43h49.88l60.71,142.52L172.16,8.43h45.89Z"/>
      <path class="cls-1" d="M416.15,207.95l-.28-119.72-58.72,98.62h-20.81l-58.43-96.05v117.15h-43.32V8.43h38.19l74.68,123.99L420.99,8.43h37.91l.57,199.52h-43.32Z"/>
      <g>
        <path class="cls-1" d="M612.88,167.36c-7.55,3.13-15.82,4.88-24.5,4.88-35.37,0-64.05-28.68-64.05-64.05,0-8.69,1.75-16.96,4.88-24.51-28.29,37.1-35.69,78.64-15.32,99,20.37,20.36,61.89,12.96,99-15.32Z"/>
        <path class="cls-1" d="M670.36,86.14c5.46-21.7,2.3-39.82-8.9-51.03-7.62-7.62-18.43-11.52-31.4-11.52-6.1,0-12.68.87-19.63,2.61-15.23,3.83-30.85,11.63-45.57,22.45,7.29-2.88,15.21-4.52,23.53-4.52,35.37,0,64.05,28.68,64.05,64.05,0,8.32-1.64,16.24-4.52,23.53,10.81-14.72,18.61-30.35,22.44-45.57Z"/>
        <path class="cls-1" d="M678.19,47.85c3.69,11.41,3.73,25.12-.08,40.25-5.99,23.81-20.84,48.47-41.8,69.44-28.66,28.66-63.17,44.48-91.11,44.48-4.5,0-8.8-.46-12.91-1.29,16.36,9.94,35.56,15.66,56.09,15.66,59.75,0,108.19-48.44,108.19-108.19,0-22.34-6.78-43.1-18.38-60.34Z"/>
        <path class="cls-1" d="M539.04,60.26c20.97-20.97,45.63-35.81,69.44-41.8,15.13-3.81,28.84-3.77,40.25-.08-17.24-11.61-38-18.38-60.34-18.38-59.75,0-108.19,48.44-108.19,108.19,0,20.5,5.7,39.66,15.61,56-5.94-29.61,10.01-70.69,43.24-103.92Z"/>
      </g>
    </g>
  </g>
</svg>