<svg width="91" height="28" viewBox="0 0 91 28" fill="none" xmlns="http://www.w3.org/2000/svg">
<path d="M28.5988 1.08984L17.404 26.9061H11.4917L0.333252 1.08984H6.79913L14.6689 19.5308L22.6501 1.08984H28.5988Z" fill="#F37021"/>
<path d="M54.2783 26.9061L54.242 11.4153L46.6302 24.176H43.9326L36.3584 11.7479V26.9061H30.7429V1.08984H35.6934L45.3741 17.1332L54.9057 1.08984H59.8199L59.8938 26.9061H54.2783Z" fill="#231F20"/>
<path d="M79.7799 21.6556C78.8012 22.0606 77.7292 22.2871 76.604 22.2871C72.019 22.2871 68.3013 18.5761 68.3013 13.9995C68.3013 12.8751 68.5281 11.805 68.9339 10.8281C65.2667 15.6286 64.3074 21.0035 66.948 23.6379C69.5885 26.2723 74.9707 25.3148 79.7812 21.6556H79.7799Z" fill="#231F20"/>
<path d="M87.231 11.1442C87.9388 8.33644 87.5291 5.99186 86.0773 4.54138C85.0895 3.55541 83.6882 3.05078 82.007 3.05078C81.2162 3.05078 80.3633 3.16335 79.4624 3.38849C77.4881 3.88407 75.4633 4.89332 73.5552 6.29334C74.5002 5.92069 75.5268 5.70849 76.6053 5.70849C81.1903 5.70849 84.908 9.41945 84.908 13.996C84.908 15.0726 84.6955 16.0974 84.3221 17.0406C85.7234 15.136 86.7345 13.1136 87.231 11.1442Z" fill="#231F20"/>
<path d="M88.2461 6.19141C88.7244 7.66777 88.7296 9.44173 88.2357 11.3994C87.4592 14.4803 85.5342 17.6711 82.8172 20.3844C79.1021 24.0928 74.6286 26.1398 71.0068 26.1398C70.4234 26.1398 69.866 26.0802 69.3333 25.9728C71.454 27.259 73.9428 27.9991 76.6041 27.9991C84.3494 27.9991 90.6286 21.7314 90.6286 14.0002C90.6286 11.1096 89.7498 8.42342 88.2461 6.1927V6.19141Z" fill="#231F20"/>
<path d="M70.2082 7.79716C72.9265 5.08381 76.1231 3.16363 79.2096 2.38858C81.1708 1.89559 82.948 1.90077 84.4271 2.37822C82.1923 0.875983 79.5012 0 76.6053 0C68.86 0 62.5808 6.26775 62.5808 13.9989C62.5808 16.6514 63.3197 19.1306 64.6043 21.2449C63.8343 17.4136 65.9019 12.0981 70.2094 7.79845L70.2082 7.79716Z" fill="#231F20"/>
</svg>
