<svg width="161" height="32" viewBox="0 0 161 32" fill="none" xmlns="http://www.w3.org/2000/svg">
<path d="M156.863 5.19694H160.667V23.4668C160.667 25.1572 160.308 26.5928 159.59 27.7737C158.872 28.9547 157.871 29.852 156.585 30.4656C155.3 31.0908 153.813 31.4034 152.122 31.4034C151.404 31.4034 150.606 31.2992 149.726 31.0908C148.857 30.8824 148.012 30.5466 147.19 30.0835C146.38 29.632 145.702 29.0357 145.158 28.2948L147.121 25.8287C147.792 26.6275 148.533 27.2122 149.344 27.5827C150.154 27.9532 151.005 28.1384 151.896 28.1384C152.857 28.1384 153.674 27.959 154.345 27.6001C155.028 27.2527 155.555 26.7375 155.926 26.0544C156.296 25.3713 156.481 24.5377 156.481 23.5536V9.4518L156.863 5.19694ZM144.099 14.8008V14.4361C144.099 13.012 144.272 11.7153 144.62 10.5459C144.967 9.36497 145.465 8.35191 146.113 7.50673C146.762 6.64996 147.549 5.99582 148.475 5.54428C149.401 5.08117 150.449 4.84961 151.619 4.84961C152.834 4.84961 153.87 5.06959 154.727 5.50955C155.596 5.9495 156.319 6.5805 156.898 7.40252C157.477 8.21297 157.928 9.18551 158.253 10.3201C158.588 11.4432 158.837 12.6936 158.999 14.0714V15.2349C158.849 16.578 158.594 17.8052 158.235 18.9167C157.876 20.0282 157.402 20.9891 156.811 21.7996C156.221 22.61 155.491 23.2352 154.623 23.6752C153.766 24.1151 152.753 24.3351 151.584 24.3351C150.438 24.3351 149.401 24.0978 148.475 23.6231C147.561 23.1484 146.773 22.4827 146.113 21.6259C145.465 20.7691 144.967 19.7619 144.62 18.6041C144.272 17.4347 144.099 16.167 144.099 14.8008ZM148.284 14.4361V14.8008C148.284 15.6575 148.365 16.4564 148.527 17.1974C148.701 17.9384 148.961 18.5925 149.309 19.1598C149.668 19.7156 150.119 20.1555 150.663 20.4797C151.219 20.7923 151.873 20.9486 152.626 20.9486C153.61 20.9486 154.415 20.7402 155.04 20.3234C155.677 19.9066 156.163 19.3451 156.499 18.6388C156.846 17.921 157.089 17.1221 157.228 16.2422V13.0988C157.159 12.4157 157.014 11.779 156.794 11.1885C156.585 10.598 156.302 10.0828 155.943 9.64284C155.584 9.1913 155.132 8.84397 154.588 8.60083C154.044 8.34612 153.402 8.21876 152.661 8.21876C151.908 8.21876 151.254 8.38085 150.698 8.70503C150.142 9.02921 149.685 9.47496 149.326 10.0423C148.979 10.6096 148.718 11.2695 148.545 12.0221C148.371 12.7746 148.284 13.5793 148.284 14.4361Z" fill="black"/>
<path d="M136.805 8.7745V23.9878H132.619V5.19694H136.614L136.805 8.7745ZM142.553 5.07538L142.518 8.96553C142.264 8.91922 141.986 8.88449 141.685 8.86133C141.395 8.83818 141.106 8.8266 140.817 8.8266C140.099 8.8266 139.468 8.9308 138.924 9.1392C138.379 9.33603 137.922 9.62547 137.552 10.0075C137.193 10.378 136.915 10.8296 136.718 11.3621C136.521 11.8947 136.405 12.491 136.371 13.1509L135.415 13.2204C135.415 12.0395 135.531 10.9453 135.763 9.93807C135.994 8.9308 136.342 8.0451 136.805 7.28096C137.279 6.51682 137.87 5.92056 138.576 5.49218C139.294 5.0638 140.122 4.84961 141.06 4.84961C141.314 4.84961 141.586 4.87277 141.876 4.91908C142.177 4.96539 142.403 5.01749 142.553 5.07538Z" fill="black"/>
<path d="M111.623 14.8008V14.4013C111.623 13.0467 111.82 11.7905 112.213 10.6327C112.607 9.46338 113.174 8.45032 113.915 7.59356C114.668 6.72522 115.583 6.05371 116.659 5.57901C117.748 5.09274 118.975 4.84961 120.341 4.84961C121.719 4.84961 122.946 5.09274 124.023 5.57901C125.111 6.05371 126.032 6.72522 126.784 7.59356C127.537 8.45032 128.11 9.46338 128.503 10.6327C128.897 11.7905 129.094 13.0467 129.094 14.4013V14.8008C129.094 16.1554 128.897 17.4116 128.503 18.5694C128.11 19.7271 127.537 20.7402 126.784 21.6085C126.032 22.4653 125.117 23.1368 124.04 23.6231C122.963 24.0978 121.742 24.3351 120.376 24.3351C118.998 24.3351 117.765 24.0978 116.677 23.6231C115.6 23.1368 114.685 22.4653 113.933 21.6085C113.18 20.7402 112.607 19.7271 112.213 18.5694C111.82 17.4116 111.623 16.1554 111.623 14.8008ZM115.808 14.4013V14.8008C115.808 15.646 115.895 16.4448 116.069 17.1974C116.242 17.9499 116.515 18.6099 116.885 19.1772C117.256 19.7445 117.73 20.1903 118.309 20.5144C118.888 20.8386 119.577 21.0007 120.376 21.0007C121.151 21.0007 121.823 20.8386 122.39 20.5144C122.969 20.1903 123.444 19.7445 123.814 19.1772C124.185 18.6099 124.457 17.9499 124.631 17.1974C124.816 16.4448 124.909 15.646 124.909 14.8008V14.4013C124.909 13.5677 124.816 12.7804 124.631 12.0395C124.457 11.2869 124.179 10.6212 123.797 10.0423C123.427 9.46338 122.952 9.01185 122.373 8.68767C121.806 8.35191 121.128 8.18403 120.341 8.18403C119.554 8.18403 118.871 8.35191 118.292 8.68767C117.724 9.01185 117.256 9.46338 116.885 10.0423C116.515 10.6212 116.242 11.2869 116.069 12.0395C115.895 12.7804 115.808 13.5677 115.808 14.4013Z" fill="black"/>
<path d="M102.696 21.9055C102.696 21.2571 102.916 20.713 103.356 20.273C103.796 19.8215 104.393 19.5957 105.145 19.5957C105.909 19.5957 106.506 19.8215 106.934 20.273C107.374 20.713 107.594 21.2571 107.594 21.9055C107.594 22.5538 107.374 23.098 106.934 23.538C106.506 23.9779 105.909 24.1979 105.145 24.1979C104.393 24.1979 103.796 23.9779 103.356 23.538C102.916 23.098 102.696 22.5538 102.696 21.9055Z" fill="black"/>
<path d="M91.738 24.3351C90.3487 24.3351 89.0925 24.1094 87.9694 23.6578C86.8579 23.1947 85.9086 22.5521 85.1213 21.7301C84.3455 20.9081 83.7493 19.9413 83.3325 18.8299C82.9157 17.7184 82.7073 16.5201 82.7073 15.2349V14.5403C82.7073 13.0699 82.9215 11.7384 83.3498 10.5459C83.7782 9.35339 84.3745 8.33454 85.1386 7.48936C85.9028 6.6326 86.8058 5.97845 87.8478 5.52691C88.8898 5.07538 90.0187 4.84961 91.2344 4.84961C92.5774 4.84961 93.7525 5.07538 94.7598 5.52691C95.7671 5.97845 96.6007 6.61523 97.2606 7.43726C97.9321 8.24771 98.43 9.21446 98.7542 10.3375C99.0899 11.4606 99.2578 12.6994 99.2578 14.054V15.8428H84.7392V12.8383H95.1245V12.5084C95.1014 11.7558 94.9508 11.0495 94.673 10.3896C94.4067 9.72967 93.9957 9.19709 93.4399 8.79187C92.8842 8.38664 92.1432 8.18403 91.217 8.18403C90.5223 8.18403 89.9029 8.33454 89.3587 8.63557C88.8262 8.92501 88.3804 9.3476 88.0215 9.90334C87.6626 10.4591 87.3847 11.1306 87.1879 11.9179C87.0027 12.6936 86.91 13.5677 86.91 14.5403V15.2349C86.91 16.057 87.02 16.8211 87.24 17.5274C87.4716 18.222 87.8073 18.8299 88.2473 19.3509C88.6872 19.8719 89.2198 20.2829 89.845 20.5839C90.4702 20.8734 91.1823 21.0181 91.9811 21.0181C92.9884 21.0181 93.8857 20.8155 94.673 20.4102C95.4603 20.005 96.1434 19.4319 96.7223 18.6909L98.9278 20.827C98.5226 21.4175 97.9958 21.9848 97.3475 22.529C96.6991 23.0616 95.906 23.4957 94.9682 23.8315C94.042 24.1672 92.9652 24.3351 91.738 24.3351Z" fill="black"/>
<path d="M80.2238 5.1979V8.25445H69.6301V5.1979H80.2238ZM72.6866 0.595703H76.872V18.7961C76.872 19.375 76.9531 19.8207 77.1151 20.1333C77.2888 20.4343 77.5262 20.637 77.8272 20.7412C78.1282 20.8454 78.4813 20.8975 78.8866 20.8975C79.176 20.8975 79.4539 20.8801 79.7202 20.8454C79.9865 20.8106 80.2006 20.7759 80.3627 20.7412L80.3801 23.9366C80.0328 24.0408 79.6275 24.1335 79.1644 24.2145C78.7129 24.2956 78.1919 24.3361 77.6014 24.3361C76.6405 24.3361 75.7895 24.1682 75.0485 23.8324C74.3075 23.4851 73.7286 22.9236 73.3118 22.1479C72.895 21.3722 72.6866 20.3417 72.6866 19.0566V0.595703Z" fill="black"/>
<path d="M63.0307 20.2192V11.2579C63.0307 10.5864 62.9091 10.0075 62.666 9.52127C62.4229 9.035 62.0524 8.65872 61.5545 8.39243C61.0683 8.12614 60.4546 7.99299 59.7137 7.99299C59.0306 7.99299 58.4401 8.10877 57.9422 8.34033C57.4444 8.57189 57.0565 8.88449 56.7787 9.27814C56.5008 9.67178 56.3619 10.1175 56.3619 10.6154H52.1938C52.1938 9.87439 52.3733 9.15657 52.7322 8.4619C53.0911 7.76723 53.6121 7.14781 54.2952 6.60365C54.9783 6.05949 55.7946 5.63111 56.7439 5.31851C57.6933 5.00591 58.7585 4.84961 59.9394 4.84961C61.3519 4.84961 62.6023 5.08696 63.6906 5.56165C64.7905 6.03634 65.6531 6.75417 66.2783 7.71513C66.9151 8.66451 67.2335 9.85703 67.2335 11.2927V19.6461C67.2335 20.5029 67.2914 21.2728 67.4071 21.9559C67.5345 22.6274 67.7139 23.2121 67.9455 23.7099V23.9878H63.6559C63.4591 23.5363 63.3028 22.9632 63.187 22.2685C63.0828 21.5622 63.0307 20.8791 63.0307 20.2192ZM63.6385 12.5605L63.6733 15.1481H60.6688C59.8931 15.1481 59.21 15.2234 58.6195 15.3739C58.0291 15.5128 57.537 15.7212 57.1434 15.9991C56.7497 16.2769 56.4545 16.6127 56.2577 17.0063C56.0608 17.4 55.9624 17.8457 55.9624 18.3436C55.9624 18.8414 56.0782 19.2988 56.3098 19.7156C56.5413 20.1208 56.8771 20.4392 57.317 20.6707C57.7686 20.9023 58.3127 21.0181 58.9495 21.0181C59.8063 21.0181 60.553 20.8444 61.1898 20.4971C61.8382 20.1382 62.3476 19.704 62.7181 19.1946C63.0886 18.6736 63.2854 18.1815 63.3086 17.7184L64.6632 19.5766C64.5242 20.0513 64.2869 20.5607 63.9511 21.1049C63.6154 21.6491 63.1754 22.1701 62.6313 22.6679C62.0987 23.1542 61.4561 23.5536 60.7036 23.8662C59.9626 24.1788 59.1058 24.3351 58.1333 24.3351C56.906 24.3351 55.8119 24.092 54.851 23.6057C53.89 23.1079 53.1374 22.4421 52.5933 21.6085C52.0491 20.7634 51.777 19.8082 51.777 18.743C51.777 17.7473 51.9623 16.8674 52.3328 16.1033C52.7148 15.3276 53.2706 14.6792 54 14.1582C54.741 13.6372 55.644 13.2435 56.7092 12.9773C57.7744 12.6994 58.99 12.5605 60.3562 12.5605H63.6385Z" fill="black"/>
<path d="M44.292 5.19694H48.0953V23.4668C48.0953 25.1572 47.7364 26.5928 47.0186 27.7737C46.3007 28.9547 45.2993 29.852 44.0141 30.4656C42.729 31.0908 41.2412 31.4034 39.5509 31.4034C38.833 31.4034 38.0342 31.2992 37.1542 31.0908C36.2859 30.8824 35.4407 30.5466 34.6187 30.0835C33.8082 29.632 33.1309 29.0357 32.5868 28.2948L34.5492 25.8287C35.2207 26.6275 35.9617 27.2122 36.7722 27.5827C37.5826 27.9532 38.4336 28.1384 39.3251 28.1384C40.286 28.1384 41.1023 27.959 41.7738 27.6001C42.4569 27.2527 42.9837 26.7375 43.3542 26.0544C43.7247 25.3713 43.9099 24.5377 43.9099 23.5536V9.4518L44.292 5.19694ZM31.5274 14.8008V14.4361C31.5274 13.012 31.7011 11.7153 32.0484 10.5459C32.3957 9.36497 32.8936 8.35191 33.542 7.50673C34.1903 6.64996 34.9776 5.99582 35.9038 5.54428C36.8301 5.08117 37.8779 4.84961 39.0472 4.84961C40.2629 4.84961 41.2991 5.06959 42.1559 5.50955C43.0242 5.9495 43.7478 6.5805 44.3267 7.40252C44.9056 8.21297 45.3571 9.18551 45.6813 10.3201C46.0171 11.4432 46.266 12.6936 46.4281 14.0714V15.2349C46.2776 16.578 46.0229 17.8052 45.664 18.9167C45.305 20.0282 44.8304 20.9891 44.2399 21.7996C43.6494 22.61 42.92 23.2352 42.0517 23.6752C41.1949 24.1151 40.1818 24.3351 39.0125 24.3351C37.8663 24.3351 36.8301 24.0978 35.9038 23.6231C34.9892 23.1484 34.2019 22.4827 33.542 21.6259C32.8936 20.7691 32.3957 19.7619 32.0484 18.6041C31.7011 17.4347 31.5274 16.167 31.5274 14.8008ZM35.7128 14.4361V14.8008C35.7128 15.6575 35.7938 16.4564 35.9559 17.1974C36.1296 17.9384 36.3901 18.5925 36.7374 19.1598C37.0963 19.7156 37.5479 20.1555 38.092 20.4797C38.6478 20.7923 39.3019 20.9486 40.0545 20.9486C41.0386 20.9486 41.8433 20.7402 42.4685 20.3234C43.1053 19.9066 43.5915 19.3451 43.9273 18.6388C44.2746 17.921 44.5177 17.1221 44.6567 16.2422V13.0988C44.5872 12.4157 44.4425 11.779 44.2225 11.1885C44.0141 10.598 43.7305 10.0828 43.3715 9.64284C43.0126 9.1913 42.5611 8.84397 42.0169 8.60083C41.4728 8.34612 40.8302 8.21876 40.0892 8.21876C39.3367 8.21876 38.6825 8.38085 38.1268 8.70503C37.571 9.02921 37.1137 9.47496 36.7548 10.0423C36.4075 10.6096 36.147 11.2695 35.9733 12.0221C35.7996 12.7746 35.7128 13.5793 35.7128 14.4361Z" fill="black"/>
<path d="M28.5924 11.5195V14.854H19.4054V11.5195H28.5924Z" fill="black"/>
<path d="M5.47722 5.19727L9.05478 11.4319L12.7018 5.19727H17.304L11.6077 14.419L17.5298 23.9881H12.9276L9.10688 17.4929L5.28619 23.9881H0.666626L6.57133 14.419L0.892394 5.19727H5.47722Z" fill="black"/>
</svg>
