<svg width="161" height="26" viewBox="0 0 161 26" fill="none" xmlns="http://www.w3.org/2000/svg">
<path d="M156.828 1.08377H160.333V17.9208C160.333 19.4786 160.003 20.8017 159.341 21.89C158.68 22.9783 157.757 23.8053 156.572 24.3708C155.388 24.9469 154.017 25.235 152.459 25.235C151.798 25.235 151.061 25.139 150.25 24.9469C149.45 24.7549 148.671 24.4454 147.914 24.0186C147.167 23.6025 146.543 23.053 146.041 22.3702L147.85 20.0975C148.469 20.8337 149.151 21.3725 149.898 21.714C150.645 22.0554 151.429 22.2261 152.251 22.2261C153.137 22.2261 153.889 22.0607 154.508 21.73C155.137 21.4099 155.623 20.9351 155.964 20.3055C156.306 19.676 156.476 18.9078 156.476 18.0008V5.00494L156.828 1.08377ZM145.065 9.93442V9.59832C145.065 8.28593 145.225 7.0909 145.545 6.01325C145.865 4.92492 146.324 3.99131 146.921 3.21241C147.519 2.42284 148.244 1.81999 149.098 1.40386C149.952 0.977069 150.917 0.763672 151.995 0.763672C153.115 0.763672 154.07 0.966399 154.86 1.37185C155.66 1.77731 156.327 2.35882 156.86 3.11638C157.394 3.86327 157.81 4.75954 158.109 5.80518C158.418 6.84016 158.648 7.99251 158.797 9.26222V10.3345C158.658 11.5722 158.423 12.7033 158.093 13.7276C157.762 14.7519 157.324 15.6375 156.78 16.3844C156.236 17.1312 155.564 17.7074 154.764 18.1129C153.974 18.5183 153.041 18.7211 151.963 18.7211C150.907 18.7211 149.952 18.5023 149.098 18.0649C148.255 17.6274 147.53 17.0139 146.921 16.2243C146.324 15.4347 145.865 14.5065 145.545 13.4395C145.225 12.3618 145.065 11.1935 145.065 9.93442ZM148.922 9.59832V9.93442C148.922 10.724 148.997 11.4602 149.146 12.1431C149.306 12.826 149.546 13.4288 149.866 13.9516C150.197 14.4638 150.613 14.8692 151.115 15.168C151.627 15.4561 152.23 15.6001 152.923 15.6001C153.83 15.6001 154.572 15.4081 155.148 15.024C155.735 14.6398 156.183 14.1223 156.492 13.4715C156.812 12.81 157.036 12.0737 157.164 11.2628V8.36595C157.1 7.73643 156.967 7.14959 156.764 6.60542C156.572 6.06126 156.311 5.58645 155.98 5.181C155.649 4.76487 155.233 4.44478 154.732 4.22071C154.23 3.98597 153.638 3.8686 152.955 3.8686C152.262 3.8686 151.659 4.01798 151.147 4.31674C150.634 4.61549 150.213 5.02628 149.882 5.54911C149.562 6.07193 149.322 6.68011 149.162 7.37365C149.002 8.0672 148.922 8.80875 148.922 9.59832Z" fill="black"/>
<path d="M138.343 4.38076V18.401H134.486V1.08377H138.167L138.343 4.38076ZM143.64 0.971734L143.608 4.55681C143.374 4.51413 143.118 4.48212 142.84 4.46078C142.573 4.43944 142.307 4.42877 142.04 4.42877C141.378 4.42877 140.797 4.5248 140.295 4.71686C139.794 4.89825 139.372 5.16499 139.031 5.5171C138.7 5.85853 138.444 6.27466 138.263 6.76547C138.081 7.25629 137.975 7.80578 137.943 8.41397L137.062 8.47799C137.062 7.38966 137.169 6.38136 137.382 5.45308C137.596 4.5248 137.916 3.70856 138.343 3.00434C138.78 2.30013 139.324 1.75063 139.975 1.35585C140.637 0.961064 141.4 0.763672 142.264 0.763672C142.499 0.763672 142.749 0.785012 143.016 0.827691C143.294 0.870371 143.502 0.918385 143.64 0.971734Z" fill="black"/>
<path d="M115.136 9.93442V9.56631C115.136 8.31794 115.317 7.16026 115.68 6.09327C116.043 5.01561 116.566 4.082 117.248 3.29243C117.942 2.49219 118.785 1.87334 119.777 1.43587C120.78 0.987739 121.911 0.763672 123.17 0.763672C124.44 0.763672 125.571 0.987739 126.563 1.43587C127.566 1.87334 128.415 2.49219 129.108 3.29243C129.802 4.082 130.33 5.01561 130.693 6.09327C131.055 7.16026 131.237 8.31794 131.237 9.56631V9.93442C131.237 11.1828 131.055 12.3405 130.693 13.4075C130.33 14.4745 129.802 15.4081 129.108 16.2083C128.415 16.9979 127.572 17.6167 126.579 18.0649C125.587 18.5023 124.461 18.7211 123.202 18.7211C121.933 18.7211 120.796 18.5023 119.793 18.0649C118.801 17.6167 117.958 16.9979 117.265 16.2083C116.571 15.4081 116.043 14.4745 115.68 13.4075C115.317 12.3405 115.136 11.1828 115.136 9.93442ZM118.993 9.56631V9.93442C118.993 10.7133 119.073 11.4495 119.233 12.1431C119.393 12.8366 119.644 13.4448 119.985 13.9676C120.327 14.4905 120.764 14.9012 121.298 15.2C121.831 15.4988 122.466 15.6481 123.202 15.6481C123.917 15.6481 124.536 15.4988 125.059 15.2C125.592 14.9012 126.03 14.4905 126.371 13.9676C126.713 13.4448 126.963 12.8366 127.123 12.1431C127.294 11.4495 127.38 10.7133 127.38 9.93442V9.56631C127.38 8.79808 127.294 8.07253 127.123 7.38966C126.963 6.69612 126.707 6.0826 126.355 5.54911C126.014 5.01561 125.576 4.59949 125.043 4.30073C124.52 3.99131 123.896 3.83659 123.17 3.83659C122.445 3.83659 121.815 3.99131 121.282 4.30073C120.759 4.59949 120.327 5.01561 119.985 5.54911C119.644 6.0826 119.393 6.69612 119.233 7.38966C119.073 8.07253 118.993 8.79808 118.993 9.56631Z" fill="black"/>
<path d="M106.909 16.4802C106.909 15.8827 107.112 15.3812 107.517 14.9757C107.923 14.5596 108.472 14.3516 109.166 14.3516C109.87 14.3516 110.42 14.5596 110.814 14.9757C111.22 15.3812 111.423 15.8827 111.423 16.4802C111.423 17.0777 111.22 17.5792 110.814 17.9847C110.42 18.3901 109.87 18.5928 109.166 18.5928C108.472 18.5928 107.923 18.3901 107.517 17.9847C107.112 17.5792 106.909 17.0777 106.909 16.4802Z" fill="black"/>
<path d="M92.1849 4.41277V25.059H88.3278V1.08377H91.8808L92.1849 4.41277ZM103.468 9.58232V9.91842C103.468 11.1775 103.319 12.3458 103.02 13.4235C102.732 14.4905 102.3 15.4241 101.724 16.2243C101.158 17.0139 100.459 17.6274 99.6271 18.0649C98.7949 18.5023 97.8346 18.7211 96.7463 18.7211C95.6686 18.7211 94.7243 18.5237 93.9134 18.1289C93.1132 17.7234 92.4357 17.1526 91.8808 16.4164C91.326 15.6801 90.8779 14.8159 90.5364 13.8236C90.2057 12.8206 89.9709 11.7216 89.8322 10.5266V9.23021C89.9709 7.9605 90.2057 6.80815 90.5364 5.77317C90.8779 4.7382 91.326 3.84726 91.8808 3.10037C92.4357 2.35348 93.1132 1.77731 93.9134 1.37185C94.7137 0.966399 95.6473 0.763672 96.7143 0.763672C97.8026 0.763672 98.7682 0.977069 99.6111 1.40386C100.454 1.81999 101.164 2.4175 101.74 3.1964C102.316 3.96463 102.748 4.89291 103.036 5.98124C103.324 7.05889 103.468 8.25925 103.468 9.58232ZM99.6111 9.91842V9.58232C99.6111 8.78208 99.5365 8.04052 99.3871 7.35765C99.2377 6.66411 99.003 6.05593 98.6829 5.5331C98.3628 5.01028 97.952 4.60482 97.4505 4.31674C96.9597 4.01798 96.3675 3.8686 95.674 3.8686C94.9911 3.8686 94.4042 3.98597 93.9134 4.22071C93.4226 4.44478 93.0118 4.75954 92.6811 5.16499C92.3503 5.57045 92.0942 6.04526 91.9128 6.58942C91.7314 7.12291 91.6034 7.70442 91.5287 8.33394V11.4389C91.6568 12.2071 91.8755 12.9113 92.1849 13.5515C92.4943 14.1917 92.9318 14.7039 93.4973 15.088C94.0735 15.4614 94.8097 15.6481 95.706 15.6481C96.3995 15.6481 96.9917 15.4988 97.4825 15.2C97.9733 14.9012 98.3734 14.4905 98.6829 13.9676C99.003 13.4341 99.2377 12.8206 99.3871 12.1271C99.5365 11.4335 99.6111 10.6973 99.6111 9.91842Z" fill="black"/>
<path d="M80.4054 14.9279V6.66944C80.4054 6.05059 80.2934 5.5171 80.0693 5.06896C79.8452 4.62083 79.5038 4.27406 79.045 4.02865C78.5969 3.78324 78.0314 3.66054 77.3485 3.66054C76.719 3.66054 76.1748 3.76724 75.716 3.98064C75.2572 4.19403 74.8998 4.48212 74.6437 4.8449C74.3876 5.20767 74.2596 5.61846 74.2596 6.07727H70.4184C70.4184 5.39439 70.5838 4.73286 70.9146 4.09267C71.2453 3.45248 71.7255 2.88164 72.355 2.38016C72.9845 1.87867 73.7367 1.48389 74.6117 1.1958C75.4866 0.907715 76.4682 0.763672 77.5566 0.763672C78.8583 0.763672 80.0106 0.982404 81.0136 1.41987C82.0272 1.85733 82.8221 2.51887 83.3983 3.40446C83.9852 4.27939 84.2786 5.37839 84.2786 6.70145V14.3998C84.2786 15.1893 84.3319 15.8989 84.4386 16.5284C84.556 17.1473 84.7214 17.6861 84.9348 18.1449V18.401H80.9816C80.8002 17.9848 80.6562 17.4567 80.5495 16.8165C80.4534 16.1656 80.4054 15.5361 80.4054 14.9279ZM80.9656 7.8698L80.9976 10.2545H78.2288C77.5139 10.2545 76.8844 10.3239 76.3402 10.4626C75.796 10.5906 75.3426 10.7827 74.9798 11.0388C74.617 11.2948 74.3449 11.6043 74.1635 11.967C73.9822 12.3298 73.8915 12.7406 73.8915 13.1994C73.8915 13.6582 73.9982 14.0797 74.2116 14.4638C74.425 14.8372 74.7344 15.1306 75.1398 15.344C75.556 15.5574 76.0574 15.6641 76.6443 15.6641C77.4339 15.6641 78.1221 15.5041 78.7089 15.184C79.3064 14.8532 79.7759 14.4531 80.1173 13.9836C80.4588 13.5035 80.6402 13.05 80.6615 12.6232L81.9099 14.3357C81.7818 14.7732 81.5631 15.2427 81.2537 15.7442C80.9442 16.2457 80.5388 16.7258 80.0373 17.1846C79.5465 17.6327 78.9543 18.0008 78.2608 18.2889C77.5779 18.577 76.7883 18.7211 75.8921 18.7211C74.7611 18.7211 73.7528 18.497 72.8672 18.0489C71.9816 17.5901 71.288 16.9765 70.7865 16.2083C70.285 15.4294 70.0343 14.5491 70.0343 13.5675C70.0343 12.6499 70.205 11.839 70.5465 11.1348C70.8986 10.4199 71.4107 9.82239 72.0829 9.34225C72.7658 8.8621 73.598 8.49933 74.5797 8.25392C75.5613 7.99784 76.6816 7.8698 77.9407 7.8698H80.9656Z" fill="black"/>
<path d="M51.0206 14.56L55.0218 1.08398H57.4865L56.8143 5.11719L52.7811 18.4012H50.5725L51.0206 14.56ZM48.6679 1.08398L51.7888 14.624L52.0449 18.4012H49.5802L44.8907 1.08398H48.6679ZM61.2316 14.464L64.2566 1.08398H68.0177L63.3443 18.4012H60.8795L61.2316 14.464ZM57.9027 1.08398L61.8558 14.4L62.352 18.4012H60.1433L56.0621 5.10119L55.3899 1.08398H57.9027Z" fill="black"/>
<path d="M39.161 13.7116C39.161 13.3274 39.065 12.9807 38.873 12.6712C38.6809 12.3511 38.3128 12.0631 37.7686 11.807C37.2351 11.5509 36.4456 11.3162 35.3999 11.1028C34.4823 10.9 33.6394 10.66 32.8712 10.3826C32.1136 10.0945 31.4627 9.7477 30.9186 9.34225C30.3744 8.93679 29.9529 8.45665 29.6542 7.90181C29.3554 7.34698 29.2061 6.70679 29.2061 5.98124C29.2061 5.27703 29.3608 4.61016 29.6702 3.98064C29.9796 3.35111 30.4224 2.79628 30.9986 2.31614C31.5748 1.83599 32.2736 1.45721 33.0952 1.1798C33.9275 0.90238 34.8558 0.763672 35.8801 0.763672C37.3312 0.763672 38.5742 1.00908 39.6092 1.49989C40.6548 1.98004 41.4551 2.63623 42.0099 3.46848C42.5647 4.29006 42.8421 5.21834 42.8421 6.25332H38.985C38.985 5.79451 38.8676 5.36772 38.6329 4.97293C38.4088 4.56748 38.0674 4.24205 37.6086 3.99664C37.1498 3.74056 36.5736 3.61253 35.8801 3.61253C35.2185 3.61253 34.669 3.71923 34.2316 3.93262C33.8048 4.13535 33.4847 4.4021 33.2713 4.73286C33.0685 5.06363 32.9672 5.4264 32.9672 5.82119C32.9672 6.10928 33.0205 6.37069 33.1272 6.60542C33.2446 6.82949 33.4367 7.03755 33.7034 7.22961C33.9702 7.411 34.3329 7.58172 34.7917 7.74177C35.2612 7.90181 35.848 8.05653 36.5523 8.2059C37.8753 8.48332 39.0117 8.84076 39.9613 9.27823C40.9216 9.70502 41.6578 10.2599 42.1699 10.9427C42.6821 11.6149 42.9382 12.4685 42.9382 13.5035C42.9382 14.2717 42.7728 14.9759 42.442 15.6161C42.1219 16.2457 41.6525 16.7951 41.0336 17.2646C40.4148 17.7234 39.6732 18.0809 38.8089 18.3369C37.9553 18.593 36.9951 18.7211 35.9281 18.7211C34.3596 18.7211 33.0312 18.4436 31.9429 17.8888C30.8546 17.3233 30.0276 16.6031 29.4621 15.7282C28.9073 14.8426 28.6299 13.925 28.6299 12.9753H32.359C32.4017 13.6902 32.5991 14.2611 32.9512 14.6878C33.314 15.104 33.7621 15.4081 34.2956 15.6001C34.8397 15.7815 35.3999 15.8722 35.9761 15.8722C36.6696 15.8722 37.2511 15.7815 37.7206 15.6001C38.1901 15.4081 38.5475 15.152 38.7929 14.8319C39.0383 14.5011 39.161 14.1277 39.161 13.7116Z" fill="black"/>
<path d="M26.0691 6.91016V9.98308H17.6025V6.91016H26.0691Z" fill="black"/>
<path d="M4.7667 1.08398L8.06369 6.82971L11.4247 1.08398H15.666L10.4164 9.58253L15.874 18.4012H11.6328L8.11171 12.4154L4.59065 18.4012H0.333374L5.77501 9.58253L0.541436 1.08398H4.7667Z" fill="black"/>
</svg>
