<svg width="24" height="20" viewBox="0 0 24 20" fill="none" xmlns="http://www.w3.org/2000/svg">
<path fill-rule="evenodd" clip-rule="evenodd" d="M5.2267 0.221191H19.0507C19.3811 0.221191 19.6854 0.394979 19.8502 0.67733L23.8773 7.59278C24.0859 7.95151 24.0241 8.40422 23.7263 8.69472L12.6408 19.5159C12.2812 19.8665 11.7036 19.8665 11.3449 19.5159L0.273118 8.70931C-0.0311174 8.41151 -0.0886173 7.94593 0.135804 7.58549L4.44101 0.655875C4.60879 0.386397 4.90616 0.221191 5.2267 0.221191Z" fill="#009393"/>
<path d="M16.2911 13.0038H13.8333L12.0067 10.0754L10.0593 13.0038H7.70898L10.8249 8.61718L7.88358 4.42175H10.2876L12.0067 7.1948L13.7661 4.42175H16.0896L13.1483 8.54546L16.2911 13.0038Z" fill="white"/>
<rect width="4.29105" height="2.14552" transform="matrix(1 0 0 -1 9.85461 10.8583)" fill="#009393"/>
<path d="M18.2883 8.71278C17.6587 9.36911 15.0827 9.8603 12.0003 9.8603C8.91787 9.8603 6.34091 9.36911 5.71045 8.71278C6.24502 8.15613 8.17942 7.71773 10.634 7.59779L10.6345 6.56726C7.74612 6.70875 5.57961 7.29074 5.56348 7.98719V9.43922C5.57961 10.1357 7.74612 10.7168 10.6345 10.8583H13.3647C16.2531 10.7164 18.4205 10.1357 18.4366 9.43922V7.98719C18.4205 7.29074 16.2531 6.70875 13.3647 6.56726V7.59779C15.8202 7.71773 17.7537 8.15613 18.2883 8.71278Z" fill="white"/>
</svg>
