<svg width="100" height="100" viewBox="0 0 100 100" fill="none" xmlns="http://www.w3.org/2000/svg">
<g clip-path="url(#clip0_574_24597)">
<path d="M50 97.5391C76.2551 97.5391 97.5391 76.2551 97.5391 50C97.5391 23.7449 76.2551 2.46094 50 2.46094C23.7449 2.46094 2.46094 23.7449 2.46094 50C2.46094 76.2551 23.7449 97.5391 50 97.5391Z" fill="white"/>
<path d="M50 100C22.4219 100 0 77.5781 0 50C0 22.4219 22.4219 0 50 0C77.5781 0 100 22.4219 100 50C100 77.5781 77.5781 100 50 100ZM50 4.88281C25.1172 4.88281 4.88281 25.1172 4.88281 50C4.88281 74.8828 25.1172 95.1172 50 95.1172C74.8828 95.1172 95.1172 74.8828 95.1172 50C95.1172 25.1172 74.8828 4.88281 50 4.88281Z" fill="#040000"/>
<path d="M26.1328 41.0547C24.2188 44.3359 23.2422 47.9297 23.2422 51.7578C23.2422 55.5859 24.1797 59.3359 26.0938 62.6172C28.0078 65.8594 30.6641 68.4375 33.9453 70.3516C37.2266 72.2266 40.8203 73.2031 44.6875 73.2031C48.5547 73.2031 52.1094 72.2656 55.3906 70.3516C58.7109 68.4375 61.3672 65.7812 63.2812 62.5C65.1953 59.2188 66.1719 55.625 66.1719 51.7578C66.1719 47.8906 65.1562 44.3359 63.2031 41.0937C61.2891 37.8125 58.6328 35.1562 55.3516 33.2422C52.0703 31.2891 48.4766 30.2734 44.6484 30.2734C40.8203 30.2734 37.1875 31.2891 33.9063 33.2422C30.6641 35.1562 28.0469 37.8125 26.1328 41.0937V41.0547ZM36.3672 37.1875C38.8672 35.6641 41.6406 34.8828 44.6484 34.8828C47.6563 34.8828 50.4297 35.625 52.9297 37.1484C55.4297 38.6328 57.4219 40.7031 58.9062 43.2813C60.3906 45.8594 61.0937 48.7109 61.0937 51.7187C61.0937 54.7266 60.3516 57.5781 58.9062 60.1562C57.5 62.6953 55.5078 64.7656 53.0078 66.25C50.5469 67.6953 47.7734 68.4375 44.7656 68.4375C41.7578 68.4375 38.9844 67.6953 36.4062 66.1719C33.9062 64.6875 31.9141 62.6172 30.4297 60.0781C28.9844 57.5391 28.2422 54.7266 28.2422 51.7578C28.2422 48.7891 28.9453 45.8984 30.3516 43.3203C31.7969 40.7422 33.8281 38.6719 36.3281 37.1875H36.3672Z" fill="#BF1A20"/>
<path d="M35.4297 58.8672C35.4297 62.5391 34.5312 65.3516 32.6953 67.2656C31.0156 69.1406 28.7109 70.2344 25.8594 70.4687V75.1953C28.5547 75.0781 30.9766 74.375 33.0859 73.125C35.3516 71.875 37.1094 70 38.3594 67.6172C39.6094 65.2344 40.2734 62.3437 40.2734 59.0625V24.375H35.3906V58.8672H35.4297Z" fill="#040000"/>
<path d="M75 65.4297C72.1875 67.4219 68.8672 68.4766 65.1562 68.4766C61.4453 68.4766 59.1016 67.7734 56.6406 66.3281C54.2187 64.8828 52.3047 62.8516 50.9766 60.2734C49.6875 57.7344 49.0234 54.8437 49.0234 51.7187C49.0234 48.5937 49.7266 45.8203 51.1719 43.2812C52.6172 40.7031 54.5703 38.6328 56.9531 37.1484C59.375 35.6641 62.0703 34.8828 64.8828 34.8828C67.6953 34.8828 71.4062 35.9375 74.5703 37.9687L76.5234 33.3984C74.9609 32.5 73.2422 31.7187 71.3281 31.1328C69.2969 30.5078 67.0703 30.1953 64.6875 30.1953C60.7031 30.1953 57.1094 31.1328 53.9453 33.0469C50.8203 34.8828 48.3594 37.5 46.5625 40.8203C44.8047 44.1016 43.9062 47.8516 43.9062 51.9922C43.9062 56.1328 44.8047 59.4141 46.5234 62.6172C48.2812 65.8203 50.8203 68.3984 54.0625 70.2734C57.3437 72.1484 61.1719 73.125 65.4688 73.125C69.7656 73.125 70.1562 72.7734 72.1875 72.0312C74.1016 71.3281 75.7422 70.5469 77.0703 69.7266L75.0391 65.3906L75 65.4297Z" fill="#040000"/>
<mask id="mask0_574_24597" style="mask-type:luminance" maskUnits="userSpaceOnUse" x="22" y="29" width="45" height="45">
<path d="M22.6172 29.6094V73.7891H66.7969V29.6094H22.6172ZM55.5078 70.5859C55.3516 70.6641 55.1953 70.7812 55.0391 70.8594C54.6875 70.7031 54.375 70.5078 54.0625 70.3125C52.5781 69.4531 51.25 68.4375 50.0781 67.3047C51.0547 66.9531 51.9922 66.5234 52.8906 66.0156C53.4766 65.6641 54.0234 65.2734 54.6094 64.8438C55.2734 65.3906 55.9375 65.8984 56.6797 66.3281C57.5781 66.8359 58.5547 67.2656 59.5703 67.6172C58.3594 68.75 56.9922 69.7656 55.5469 70.5859H55.5078Z" fill="white"/>
</mask>
<g mask="url(#mask0_574_24597)">
<path d="M26.1328 41.0547C24.2188 44.3359 23.2422 47.9297 23.2422 51.7578C23.2422 55.5859 24.1797 59.3359 26.0938 62.6172C28.0078 65.8594 30.6641 68.4375 33.9453 70.3516C37.2266 72.2266 40.8203 73.2031 44.6875 73.2031C48.5547 73.2031 52.1094 72.2656 55.3906 70.3516C58.7109 68.4375 61.3672 65.7812 63.2812 62.5C65.1953 59.2188 66.1719 55.625 66.1719 51.7578C66.1719 47.8906 65.1562 44.3359 63.2031 41.0937C61.2891 37.8125 58.6328 35.1562 55.3516 33.2422C52.0703 31.2891 48.4766 30.2734 44.6484 30.2734C40.8203 30.2734 37.1875 31.2891 33.9063 33.2422C30.6641 35.1562 28.0469 37.8125 26.1328 41.0937V41.0547ZM36.3672 37.1875C38.8672 35.6641 41.6406 34.8828 44.6484 34.8828C47.6563 34.8828 50.4297 35.625 52.9297 37.1484C55.4297 38.6328 57.4219 40.7031 58.9062 43.2813C60.3906 45.8594 61.0937 48.7109 61.0937 51.7187C61.0937 54.7266 60.3516 57.5781 58.9062 60.1562C57.5 62.6953 55.5078 64.7656 53.0078 66.25C50.5469 67.6953 47.7734 68.4375 44.7656 68.4375C41.7578 68.4375 38.9844 67.6953 36.4062 66.1719C33.9062 64.6875 31.9141 62.6172 30.4297 60.0781C28.9844 57.5391 28.2422 54.7266 28.2422 51.7578C28.2422 48.7891 28.9453 45.8984 30.3516 43.3203C31.7969 40.7422 33.8281 38.6719 36.3281 37.1875H36.3672Z" fill="#BF1A20"/>
</g>
<mask id="mask1_574_24597" style="mask-type:luminance" maskUnits="userSpaceOnUse" x="25" y="23" width="16" height="53">
<path d="M25.2734 23.7891V75.8203H40.9375V23.7891H25.2734ZM38.6719 67.7734C37.9297 69.1406 37.0313 70.3906 35.9766 71.4062C35.2734 71.0938 34.5703 70.7422 33.9063 70.3516C32.8906 69.7656 31.9531 69.1016 31.0547 68.3984C31.5625 68.0078 32.0703 67.5781 32.5 67.1094C33.1641 66.4062 33.7109 65.5469 34.1406 64.5703C34.8438 65.1953 35.625 65.7422 36.4844 66.25C37.2656 66.7188 38.0859 67.1094 38.9063 67.4219C38.8281 67.5391 38.7891 67.6562 38.7109 67.8125L38.6719 67.7734Z" fill="white"/>
</mask>
<g mask="url(#mask1_574_24597)">
<path d="M35.4297 58.8672C35.4297 62.5391 34.5312 65.3516 32.6953 67.2656C31.0156 69.1406 28.7109 70.2344 25.8594 70.4687V75.1953C28.5547 75.0781 30.9766 74.375 33.0859 73.125C35.3516 71.875 37.1094 70 38.3594 67.6172C39.6094 65.2344 40.2734 62.3437 40.2734 59.0625V24.375H35.3906V58.8672H35.4297Z" fill="#040000"/>
</g>
</g>
<defs>
<clipPath id="clip0_574_24597">
<rect width="100" height="100" fill="white"/>
</clipPath>
</defs>
</svg>
